<?xml version="1.0" standalone="no"?>
<!DOCTYPE svg PUBLIC "-//W3C//DTD SVG 1.1//EN" "http://www.w3.org/Graphics/SVG/1.1/DTD/svg11.dtd" >
<svg xmlns="http://www.w3.org/2000/svg" xmlns:xlink="http://www.w3.org/1999/xlink" version="1.1">
<metadata>
Created by FontForge 20190801 at Wed Dec  3 18:39:42 2008
 By Jimmy Wärting
Copyright (C) 2004, 2009 Hoefler &#38; Frere-Jones. http://www.typography.com
</metadata>
<defs>
<font id="Sentinel-BlackItalic" horiz-adv-x="616" >
  <font-face 
    font-family="Sentinel Black"
    font-weight="450"
    font-style="italic"
    font-stretch="normal"
    units-per-em="1000"
    panose-1="0 0 0 0 0 0 0 0 0 0"
    ascent="800"
    descent="-200"
    x-height="484"
    cap-height="658"
    bbox="-166 -384 1267 1134"
    underline-thickness="50"
    underline-position="-100"
    slope="-12"
    stemh="96"
    stemv="137"
    unicode-range="U+0020-FB04"
  />
<missing-glyph horiz-adv-x="500" 
d="M0 -200v1000h500v-1000h-500zM71 750l179 -390l179 390h-358zM50 -76l172 376l-172 376v-752zM450 676l-172 -376l172 -376v752zM250 240l-179 -390h358z" />
    <glyph glyph-name="f_b" unicode="fb" horiz-adv-x="901" 
d="M668 697l-111 -352l8 -3c51 97 109 142 173 142c98 0 144 -69 144 -172c0 -130 -105 -323 -301 -323c-133 0 -204 76 -204 186c0 42 12 102 36 193l3 14h-131l-66 -313c-38 -179 -134 -246 -245 -246c-73 0 -119 41 -119 93c0 42 28 81 76 81c31 0 61 -22 61 -67
c0 -25 -12 -46 -17 -53c35 -2 48 21 61 87l82 418h-84l20 78h80c37 160 125 239 273 239c43 0 79 -6 107 -18zM660 380c-66 0 -124 -150 -124 -247c0 -46 21 -68 45 -68c74 0 127 162 127 243c0 51 -20 72 -48 72zM305 475l-3 -15h135l17 62c-16 12 -25 30 -25 52
c0 24 11 46 28 59c-6 3 -20 6 -40 6c-79 0 -89 -56 -112 -164z" />
    <glyph glyph-name="f_f" unicode="ff" horiz-adv-x="695" 
d="M274 -177c-72 0 -118 40 -119 91c-48 -64 -111 -91 -181 -91c-73 0 -119 41 -119 93c0 42 28 81 76 81c31 0 61 -22 61 -67c0 -25 -12 -46 -17 -53c35 -2 48 21 61 87l82 418h-84l20 78h80c37 157 125 235 272 235c67 0 116 -15 146 -40c40 29 89 44 148 44
c107 0 168 -46 168 -109c0 -42 -28 -83 -82 -83c-44 0 -76 26 -76 67c0 24 11 46 28 59c-7 4 -17 6 -28 6c-67 0 -72 -56 -95 -164l-3 -15h138l-20 -78h-135l-66 -313c-38 -179 -144 -246 -255 -246zM219 69c-7 -30 -14 -57 -24 -80c10 5 22 8 36 8c31 0 61 -22 61 -67
c0 -25 -12 -46 -17 -53c35 -2 58 21 71 87l82 418h-143zM304 471l-3 -11h143c5 19 9 37 15 54c-19 11 -31 31 -31 56c0 24 11 46 28 59c-6 3 -20 6 -40 6c-79 0 -89 -56 -112 -164z" />
    <glyph glyph-name="f_h" unicode="fh" horiz-adv-x="963" 
d="M686 697l-132 -420l8 -3c71 157 150 210 230 210c61 0 106 -37 106 -102c0 -94 -81 -227 -81 -272c0 -15 8 -19 16 -19c16 0 35 13 69 95l55 -20c-40 -111 -105 -177 -189 -177c-70 0 -107 43 -107 98c0 83 67 198 67 252c0 17 -11 27 -30 27c-35 0 -105 -29 -196 -366
h-168l101 382h-150l-66 -313c-38 -179 -134 -246 -245 -246c-73 0 -119 41 -119 93c0 42 28 81 76 81c31 0 61 -22 61 -67c0 -25 -12 -46 -17 -53c35 -2 48 21 61 87l82 418h-84l20 78h80c37 160 125 239 273 239c45 0 82 -7 111 -19zM305 475l-3 -15h153l14 53
c-24 10 -40 32 -40 61c0 24 11 46 28 59c-6 3 -20 6 -40 6c-79 0 -89 -56 -112 -164z" />
    <glyph glyph-name="fi" unicode="fi" horiz-adv-x="663" 
d="M425 382h-140l-66 -313c-38 -179 -134 -246 -245 -246c-73 0 -119 41 -119 93c0 42 28 81 76 81c31 0 61 -22 61 -67c0 -25 -12 -46 -17 -53c35 -2 48 21 61 87l82 418h-84l20 78h80c37 160 124 239 296 239c127 0 196 -46 196 -109c0 -42 -31 -83 -97 -83
c-57 0 -91 26 -91 67c0 24 11 46 28 59c-7 4 -29 6 -41 6c-86 0 -97 -56 -120 -164l-3 -15h308l-73 -260c-5 -17 -23 -71 -23 -90c0 -15 8 -19 16 -19c16 0 35 13 69 95l55 -20c-40 -111 -104 -177 -188 -177c-65 0 -111 40 -111 103c0 19 5 39 13 71z" />
    <glyph glyph-name="f_j" unicode="fj" horiz-adv-x="610" 
d="M430 699c127 0 196 -46 196 -109c0 -42 -31 -83 -97 -83c-57 0 -91 26 -91 67c0 24 11 46 28 59c-7 4 -29 6 -41 6c-86 0 -97 -56 -120 -164l-3 -15h306l-113 -426c-47 -176 -135 -211 -237 -211c-69 0 -110 29 -122 69c-45 -48 -101 -69 -162 -69c-73 0 -119 41 -119 93
c0 42 28 81 76 81c31 0 61 -22 61 -67c0 -25 -12 -46 -17 -53c35 -2 48 21 61 87l82 418h-84l20 78h80c37 160 124 239 296 239zM431 382h-146l-66 -313c-6 -27 -13 -51 -21 -72h11c33 0 63 -24 63 -66c0 -29 -13 -49 -22 -59c38 -3 59 24 89 143z" />
    <glyph glyph-name="f_k" unicode="fk" horiz-adv-x="925" 
d="M677 266c82 -8 105 -42 105 -89c0 -29 -9 -49 -9 -67c0 -15 9 -19 17 -19c18 0 34 13 68 95l55 -20c-40 -111 -93 -177 -179 -177c-82 0 -116 52 -116 104c0 33 12 69 12 94c0 28 -8 40 -68 42l-60 -229h-168l101 382h-150l-66 -313c-38 -179 -134 -246 -245 -246
c-73 0 -119 41 -119 93c0 42 28 81 76 81c31 0 61 -22 61 -67c0 -25 -12 -46 -17 -53c35 -2 48 21 61 87l82 418h-84l20 78h80c37 160 125 239 273 239c45 0 82 -7 111 -19l168 17l-109 -412c55 0 78 30 129 115c26 43 62 84 122 84c59 0 89 -39 89 -87
c0 -45 -28 -95 -80 -95c-45 0 -69 36 -61 80c-12 -8 -21 -17 -38 -47c-16 -27 -35 -51 -61 -69zM305 475l-3 -15h153l14 53c-24 10 -40 32 -40 61c0 24 11 46 28 59c-6 3 -20 6 -40 6c-79 0 -89 -56 -112 -164z" />
    <glyph glyph-name="fl" unicode="fl" horiz-adv-x="667" 
d="M407 699c44 0 81 -7 110 -19l165 17l-138 -494c-5 -17 -24 -75 -24 -93c0 -15 8 -19 16 -19c16 0 35 13 69 95l55 -20c-40 -111 -103 -177 -188 -177c-66 0 -111 36 -111 102c0 17 4 44 12 74l57 217h-145l-66 -313c-38 -179 -134 -246 -245 -246c-73 0 -119 41 -119 93
c0 42 28 81 76 81c31 0 61 -22 61 -67c0 -25 -12 -46 -17 -53c35 -2 48 21 61 87l82 418h-84l20 78h80c37 160 125 239 273 239zM305 475l-3 -15h149l15 55c-23 10 -37 31 -37 59c0 24 11 46 28 59c-6 3 -20 6 -40 6c-79 0 -89 -56 -112 -164z" />
    <glyph glyph-name="f_f_b" unicode="ffb" horiz-adv-x="1211" 
d="M274 -177c-72 0 -118 40 -119 91c-48 -64 -111 -91 -181 -91c-73 0 -119 41 -119 93c0 42 28 81 76 81c31 0 61 -22 61 -67c0 -25 -12 -46 -17 -53c35 -2 48 21 61 87l82 418h-84l20 78h80c37 157 125 235 272 235c69 0 119 -16 149 -43c43 31 96 47 162 47
c43 0 79 -6 107 -18l154 16l-111 -352l8 -3c51 97 109 142 173 142c98 0 144 -69 144 -172c0 -130 -105 -323 -301 -323c-133 0 -204 76 -204 186c0 42 12 102 36 193l3 14h-131l-66 -313c-38 -179 -144 -246 -255 -246zM219 69c-7 -30 -14 -57 -24 -80c10 5 22 8 36 8
c31 0 61 -22 61 -67c0 -25 -12 -46 -17 -53c35 -2 58 21 71 87l82 418h-143zM970 380c-66 0 -124 -150 -124 -247c0 -46 21 -68 45 -68c74 0 127 162 127 243c0 51 -20 72 -48 72zM615 475l-3 -15h135l17 62c-16 12 -25 30 -25 52c0 24 11 46 28 59c-6 3 -20 6 -40 6
c-79 0 -89 -56 -112 -164zM304 471l-3 -11h143c5 19 9 37 15 54c-19 11 -31 31 -31 56c0 24 11 46 28 59c-6 3 -20 6 -40 6c-79 0 -89 -56 -112 -164z" />
    <glyph glyph-name="f_f_h" unicode="ffh" horiz-adv-x="1273" 
d="M274 -177c-72 0 -118 40 -119 91c-48 -64 -111 -91 -181 -91c-73 0 -119 41 -119 93c0 42 28 81 76 81c31 0 61 -22 61 -67c0 -25 -12 -46 -17 -53c35 -2 48 21 61 87l82 418h-84l20 78h80c37 157 125 235 272 235c69 0 119 -16 149 -43c43 31 96 47 162 47
c45 0 82 -7 111 -19l168 17l-132 -420l8 -3c71 157 150 210 230 210c61 0 106 -37 106 -102c0 -94 -81 -227 -81 -272c0 -15 8 -19 16 -19c16 0 35 13 69 95l55 -20c-40 -111 -105 -177 -189 -177c-70 0 -107 43 -107 98c0 83 67 198 67 252c0 17 -11 27 -30 27
c-35 0 -105 -29 -196 -366h-168l101 382h-150l-66 -313c-38 -179 -144 -246 -255 -246zM219 69c-7 -30 -14 -57 -24 -80c10 5 22 8 36 8c31 0 61 -22 61 -67c0 -25 -12 -46 -17 -53c35 -2 58 21 71 87l82 418h-143zM615 475l-3 -15h153l14 53c-24 10 -40 32 -40 61
c0 24 11 46 28 59c-6 3 -20 6 -40 6c-79 0 -89 -56 -112 -164zM304 471l-3 -11h143c5 19 9 37 15 54c-19 11 -31 31 -31 56c0 24 11 46 28 59c-6 3 -20 6 -40 6c-79 0 -89 -56 -112 -164z" />
    <glyph glyph-name="f_f_i" unicode="ffi" horiz-adv-x="973" 
d="M406 695c70 0 121 -17 150 -44c46 32 107 48 184 48c127 0 196 -46 196 -109c0 -42 -31 -83 -97 -83c-57 0 -91 26 -91 67c0 24 11 46 28 59c-7 4 -29 6 -41 6c-86 0 -97 -56 -120 -164l-3 -15h308l-73 -260c-5 -17 -23 -71 -23 -90c0 -15 8 -19 16 -19c16 0 35 13 69 95
l55 -20c-40 -111 -104 -177 -188 -177c-65 0 -111 40 -111 103c0 19 5 39 13 71l57 219h-140l-66 -313c-38 -179 -144 -246 -255 -246c-72 0 -118 40 -119 91c-48 -64 -111 -91 -181 -91c-73 0 -119 41 -119 93c0 42 28 81 76 81c31 0 61 -22 61 -67c0 -25 -12 -46 -17 -53
c35 -2 48 21 61 87l82 418h-84l20 78h80c37 157 125 235 272 235zM219 69c-7 -30 -14 -57 -24 -80c10 5 22 8 36 8c31 0 61 -22 61 -67c0 -25 -12 -46 -17 -53c35 -2 58 21 71 87l82 418h-143zM304 471l-3 -11h143c5 19 9 37 15 54c-19 11 -31 31 -31 56c0 24 11 46 28 59
c-6 3 -20 6 -40 6c-79 0 -89 -56 -112 -164z" />
    <glyph glyph-name="f_f_j" unicode="ffj" horiz-adv-x="920" 
d="M406 695c70 0 121 -17 150 -44c46 32 107 48 184 48c127 0 196 -46 196 -109c0 -42 -31 -83 -97 -83c-57 0 -91 26 -91 67c0 24 11 46 28 59c-7 4 -29 6 -41 6c-86 0 -97 -56 -120 -164l-3 -15h306l-113 -426c-47 -176 -135 -211 -237 -211c-71 0 -113 31 -123 72
c-48 -50 -109 -72 -171 -72c-72 0 -118 40 -119 91c-48 -64 -111 -91 -181 -91c-73 0 -119 41 -119 93c0 42 28 81 76 81c31 0 61 -22 61 -67c0 -25 -12 -46 -17 -53c35 -2 48 21 61 87l82 418h-84l20 78h80c37 157 125 235 272 235zM219 69c-7 -30 -14 -57 -24 -80
c10 5 22 8 36 8c31 0 61 -22 61 -67c0 -25 -12 -46 -17 -53c35 -2 58 21 71 87l82 418h-143zM741 382h-146l-66 -313c-6 -27 -13 -51 -22 -72h12c33 0 63 -24 63 -66c0 -29 -13 -49 -22 -59c38 -3 59 24 89 143zM304 471l-3 -11h143c5 19 9 37 15 54c-19 11 -31 31 -31 56
c0 24 11 46 28 59c-6 3 -20 6 -40 6c-79 0 -89 -56 -112 -164z" />
    <glyph glyph-name="f_f_k" unicode="ffk" horiz-adv-x="1235" 
d="M274 -177c-72 0 -118 40 -119 91c-48 -64 -111 -91 -181 -91c-73 0 -119 41 -119 93c0 42 28 81 76 81c31 0 61 -22 61 -67c0 -25 -12 -46 -17 -53c35 -2 48 21 61 87l82 418h-84l20 78h80c37 157 125 235 272 235c69 0 119 -16 149 -43c43 31 96 47 162 47
c45 0 82 -7 111 -19l168 17l-109 -412c55 0 78 30 129 115c26 43 62 84 122 84c59 0 89 -39 89 -87c0 -45 -28 -95 -80 -95c-45 0 -69 36 -61 80c-12 -8 -21 -17 -38 -47c-16 -27 -35 -51 -61 -69c82 -8 105 -42 105 -89c0 -29 -9 -49 -9 -67c0 -15 9 -19 17 -19
c18 0 34 13 68 95l55 -20c-40 -111 -93 -177 -179 -177c-82 0 -116 52 -116 104c0 33 12 69 12 94c0 28 -8 40 -68 42l-60 -229h-168l101 382h-150l-66 -313c-38 -179 -144 -246 -255 -246zM219 69c-7 -30 -14 -57 -24 -80c10 5 22 8 36 8c31 0 61 -22 61 -67
c0 -25 -12 -46 -17 -53c35 -2 58 21 71 87l82 418h-143zM615 475l-3 -15h153l14 53c-24 10 -40 32 -40 61c0 24 11 46 28 59c-6 3 -20 6 -40 6c-79 0 -89 -56 -112 -164zM304 471l-3 -11h143c5 19 9 37 15 54c-19 11 -31 31 -31 56c0 24 11 46 28 59c-6 3 -20 6 -40 6
c-79 0 -89 -56 -112 -164z" />
    <glyph glyph-name="f_f_l" unicode="ffl" horiz-adv-x="977" 
d="M274 -177c-72 0 -118 40 -119 91c-48 -64 -111 -91 -181 -91c-73 0 -119 41 -119 93c0 42 28 81 76 81c31 0 61 -22 61 -67c0 -25 -12 -46 -17 -53c35 -2 48 21 61 87l82 418h-84l20 78h80c37 157 125 235 272 235c69 0 119 -16 149 -43c43 31 96 47 162 47
c44 0 81 -7 110 -19l165 17l-138 -494c-5 -17 -24 -75 -24 -93c0 -15 8 -19 16 -19c16 0 35 13 69 95l55 -20c-40 -111 -103 -177 -188 -177c-66 0 -111 36 -111 102c0 17 4 44 12 74l57 217h-145l-66 -313c-38 -179 -144 -246 -255 -246zM219 69c-7 -30 -14 -57 -24 -80
c10 5 22 8 36 8c31 0 61 -22 61 -67c0 -25 -12 -46 -17 -53c35 -2 58 21 71 87l82 418h-143zM615 475l-3 -15h149l15 55c-23 10 -37 31 -37 59c0 24 11 46 28 59c-6 3 -20 6 -40 6c-79 0 -89 -56 -112 -164zM304 471l-3 -11h143c5 19 9 37 15 54c-19 11 -31 31 -31 56
c0 24 11 46 28 59c-6 3 -20 6 -40 6c-79 0 -89 -56 -112 -164z" />
    <glyph glyph-name=".notdef" horiz-adv-x="500" 
d="M0 -200v1000h500v-1000h-500zM71 750l179 -390l179 390h-358zM50 -76l172 376l-172 376v-752zM450 676l-172 -376l172 -376v752zM250 240l-179 -390h358z" />
    <glyph glyph-name="A" unicode="A" horiz-adv-x="715" 
d="M342 96h73l-7 105h-202l-58 -105h85l-24 -96h-260l24 96h64l326 566h175l56 -566h79l-24 -96h-331zM254 289h149l-14 237h-4z" />
    <glyph glyph-name="B" unicode="B" horiz-adv-x="673" 
d="M-32 0l24 96h79l116 466h-79l24 96h323c186 0 234 -66 234 -134c0 -82 -61 -158 -217 -177l-2 -7c111 -16 162 -65 162 -136c0 -46 -15 -88 -48 -122c-50 -50 -139 -82 -278 -82h-338zM322 388h53c88 0 132 44 132 105c0 45 -23 69 -95 69h-46zM249 96h56
c96 0 149 40 149 119c0 50 -28 77 -112 77h-44z" />
    <glyph glyph-name="C" unicode="C" horiz-adv-x="685" 
d="M348 -16c-176 0 -293 107 -293 283c0 166 114 407 360 407c83 0 147 -30 184 -86l49 84h101l-65 -264h-111c-5 125 -66 177 -137 177c-148 0 -195 -254 -195 -339c0 -134 80 -158 132 -158c97 0 144 64 188 172l91 -27c-49 -143 -136 -249 -304 -249z" />
    <glyph glyph-name="D" unicode="D" horiz-adv-x="740" 
d="M-32 0l24 96h79l116 466h-79l24 96h265c233 0 345 -110 345 -267c0 -102 -34 -200 -109 -275s-181 -116 -346 -116h-319zM250 93h52c72 0 114 15 161 62c52 52 92 171 92 268c0 98 -46 142 -150 142h-37z" />
    <glyph glyph-name="E" unicode="E" horiz-adv-x="690" 
d="M132 658h613l-61 -243h-93c7 129 -6 150 -93 150h-130l-47 -187h26c48 0 56 11 87 88h89l-67 -269h-87c11 76 6 88 -41 88h-30l-48 -192h123c107 0 127 37 182 178h104l-68 -271h-623l24 96h79l116 466h-79z" />
    <glyph glyph-name="F" unicode="F" horiz-adv-x="660" 
d="M316 366h14c48 0 56 11 87 88h89l-68 -272h-87c11 76 7 91 -40 91h-18l-44 -177h102l-24 -96h-359l24 96h79l116 466h-79l24 96h600l-62 -248h-95c4 138 -17 155 -104 155h-105z" />
    <glyph glyph-name="G" unicode="G" horiz-adv-x="739" 
d="M343 83c88 0 117 81 136 151l4 15h-107l23 96h352l-23 -96h-69l-68 -257h-95l-13 90c-32 -48 -84 -98 -181 -98c-153 0 -247 112 -247 272c0 177 114 418 360 418c83 0 147 -30 184 -86l49 84h101l-63 -254h-129c-5 125 -64 167 -121 167c-148 0 -195 -262 -195 -355
c0 -119 56 -147 102 -147z" />
    <glyph glyph-name="H" unicode="H" horiz-adv-x="796" 
d="M-32 0l24 96h79l116 466h-79l24 96h341l-24 -96h-82l-43 -173h225l43 173h-82l24 96h340l-24 -96h-79l-116 -466h79l-24 -96h-340l24 96h82l49 197h-225l-49 -197h82l-24 -96h-341z" />
    <glyph glyph-name="I" unicode="I" horiz-adv-x="392" 
d="M-32 0l24 96h79l116 466h-79l24 96h338l-24 -96h-79l-116 -466h79l-24 -96h-338z" />
    <glyph glyph-name="J" unicode="J" horiz-adv-x="589" 
d="M580 562l-84 -335c-36 -144 -108 -243 -272 -243c-151 0 -234 74 -234 170c0 74 45 125 110 125c50 0 88 -32 88 -83c0 -46 -27 -79 -68 -94c13 -20 37 -31 71 -31c53 0 93 31 116 124l93 367h-89l24 96h345l-24 -96h-76z" />
    <glyph glyph-name="K" unicode="K" horiz-adv-x="735" 
d="M719 562l-210 -166l137 -300h73l-24 -96h-332l24 94h60l-80 189l-87 -69l-29 -120h71l-24 -94h-330l24 96h79l116 466h-79l24 96h335l-24 -94h-76l-56 -225l270 225h-72l24 94h283l-24 -96h-73z" />
    <glyph glyph-name="L" unicode="L" horiz-adv-x="620" 
d="M132 658h353l-24 -93h-94l-117 -472h83c107 0 123 37 182 190h92l-71 -283h-568l24 96h79l116 466h-79z" />
    <glyph glyph-name="M" unicode="M" horiz-adv-x="926" 
d="M-33 0l24 96h72l116 466h-73l24 96h306l34 -378h4l211 378h321l-24 -96h-77l-116 -466h77l-24 -96h-328l24 96h72l109 440h-9l-307 -537h-74l-52 537h-9l-109 -440h74l-24 -96h-242z" />
    <glyph glyph-name="N" unicode="N" horiz-adv-x="778" 
d="M447 -6l-165 497h-9l-99 -395h84l-24 -96h-258l24 96h78l116 466h-79l24 96h270l151 -452h9l88 356h-84l24 96h259l-24 -96h-79l-141 -568h-165z" />
    <glyph glyph-name="O" unicode="O" horiz-adv-x="746" 
d="M55 277c0 157 110 397 382 397c177 0 301 -117 301 -293c0 -157 -110 -397 -381 -397c-178 0 -302 117 -302 293zM438 585c-144 0 -197 -262 -197 -372c0 -100 48 -140 114 -140c144 0 197 262 197 372c0 100 -48 140 -114 140z" />
    <glyph glyph-name="P" unicode="P" horiz-adv-x="659" 
d="M288 248l-38 -152h85l-24 -96h-343l24 96h79l116 466h-79l24 96h299c202 0 269 -64 269 -175c0 -116 -82 -235 -326 -235h-86zM312 342h56c115 0 140 93 140 149c0 59 -37 76 -107 76h-33z" />
    <glyph glyph-name="Q" unicode="Q" horiz-adv-x="746" 
d="M364 -11c-190 0 -309 112 -309 288c0 157 110 397 382 397c177 0 301 -117 301 -293c0 -114 -57 -269 -190 -345c18 -43 37 -45 56 -45c28 0 48 16 73 78l60 -21c-35 -119 -90 -165 -166 -165c-91 0 -127 42 -151 110c-18 -2 -37 -4 -56 -4zM242 182c22 53 62 98 130 98
c72 0 105 -41 129 -96c42 89 51 201 51 261c0 100 -48 140 -114 140c-144 0 -197 -262 -197 -372c0 -11 0 -22 1 -31zM358 72c9 0 24 0 42 5c-10 65 -31 100 -70 100c-33 0 -55 -27 -55 -54c0 -38 42 -51 83 -51z" />
    <glyph glyph-name="R" unicode="R" horiz-adv-x="717" 
d="M-32 0l24 96h79l116 466h-79l24 96h345c175 0 235 -70 235 -144c0 -102 -80 -173 -258 -184l-2 -6c110 -13 147 -59 147 -108c0 -32 -12 -72 -12 -95c0 -20 12 -25 22 -25c15 0 27 11 51 60l54 -28c-39 -87 -82 -143 -175 -143c-80 0 -132 39 -132 105c0 44 19 93 19 140
c0 35 -28 55 -87 55h-42l-47 -189h85l-24 -96h-343zM320 376h57c43 0 85 9 113 37c19 19 30 46 30 84c0 41 -21 70 -90 70h-62z" />
    <glyph glyph-name="S" unicode="S" horiz-adv-x="628" 
d="M-11 -14l60 256h97c9 -106 85 -166 182 -166c55 0 98 25 98 73c0 49 -64 71 -135 100c-90 36 -192 82 -192 201c0 137 113 224 241 224c77 0 145 -28 186 -79l43 77h95l-58 -246h-98c-8 105 -66 156 -152 156c-54 0 -94 -28 -94 -72c0 -53 67 -77 140 -108
c89 -37 187 -82 187 -193c0 -139 -112 -225 -246 -225c-98 0 -167 31 -214 87l-46 -85h-94z" />
    <glyph glyph-name="T" unicode="T" horiz-adv-x="707" 
d="M104 0l24 96h96l120 479h-23c-75 0 -88 -24 -161 -195h-95l70 278h641l-70 -278h-81c3 170 -1 195 -77 195h-15l-120 -479h100l-24 -96h-385z" />
    <glyph glyph-name="U" unicode="U" horiz-adv-x="727" 
d="M328 -16c-159 0 -241 82 -241 184c0 28 9 70 16 99l74 295h-79l24 96h344l-24 -96h-84l-77 -306c-7 -29 -11 -51 -11 -71c0 -67 52 -89 107 -89c42 0 76 12 104 40c26 26 43 61 56 111l79 315h-78l24 96h254l-24 -96h-75l-84 -336c-16 -65 -43 -121 -85 -163
c-50 -50 -120 -79 -220 -79z" />
    <glyph glyph-name="V" unicode="V" horiz-adv-x="726" 
d="M351 562l35 -408h6l232 408h-85l24 96h260l-24 -96h-64l-336 -566h-163l-66 566h-79l24 96h331l-24 -96h-71z" />
    <glyph glyph-name="W" unicode="W" horiz-adv-x="1054" 
d="M597 -4l-25 342l-201 -342h-160l-34 566h-86l24 96h322l-23 -94h-58l16 -393h7l183 306l-6 87h-70l23 94h308l-23 -94h-65l21 -393h7l196 393h-88l23 94h263l-24 -96h-67l-297 -566h-166z" />
    <glyph glyph-name="X" unicode="X" horiz-adv-x="708" 
d="M420 564h-64l71 -147l146 147h-70l24 94h272l-24 -96h-73l-227 -214l132 -252h76l-24 -96h-338l24 94h64l-73 153l-152 -153h70l-24 -94h-272l24 96h73l233 221l-130 245h-76l24 96h338z" />
    <glyph glyph-name="Y" unicode="Y" horiz-adv-x="665" 
d="M414 364l161 200h-79l24 94h260l-24 -96h-65l-249 -291l-44 -175h84l-24 -96h-348l24 96h84l43 172l-109 294h-75l24 96h344l-24 -94h-74z" />
    <glyph glyph-name="Z" unicode="Z" horiz-adv-x="650" 
d="M-30 0l23 91l476 474h-117c-78 0 -100 -21 -180 -180h-88l69 273h562l-23 -91l-479 -474h140c78 0 100 21 183 190h88l-71 -283h-583z" />
    <glyph glyph-name="a" unicode="a" 
d="M570 473l-82 -317c-5 -19 -7 -31 -7 -41c0 -18 10 -24 19 -24c18 0 37 17 63 95l55 -20c-37 -115 -96 -177 -178 -177c-61 0 -102 33 -102 99c0 7 1 17 2 26l-8 3c-40 -88 -94 -128 -161 -128c-105 0 -150 80 -150 168c0 103 46 210 101 265c43 43 82 62 140 62
c64 0 104 -47 118 -98l24 87h166zM238 90c69 0 122 153 122 235c0 49 -15 72 -45 72c-67 0 -119 -156 -119 -243c0 -51 21 -64 42 -64z" />
    <glyph glyph-name="b" unicode="b" horiz-adv-x="558" 
d="M317 380c-66 0 -124 -150 -124 -247c0 -46 21 -68 45 -68c74 0 127 162 127 243c0 51 -20 72 -48 72zM324 692l-110 -347l8 -3c51 97 109 142 173 142c98 0 144 -69 144 -172c0 -130 -105 -323 -301 -323c-133 0 -204 76 -204 186c0 42 12 102 36 193l62 233h-66l23 91
h235z" />
    <glyph glyph-name="c" unicode="c" horiz-adv-x="508" 
d="M320 484c87 0 170 -43 170 -141c0 -60 -41 -107 -93 -107c-45 0 -72 28 -72 67c0 41 33 66 57 73c-7 22 -23 34 -52 34c-80 0 -137 -107 -137 -214c0 -93 52 -112 89 -112c45 0 88 24 129 77l48 -42c-45 -61 -115 -130 -231 -130c-126 0 -208 73 -208 192
c0 169 140 303 300 303z" />
    <glyph glyph-name="d" unicode="d" 
d="M238 90c69 0 124 155 124 243c0 55 -25 64 -45 64c-72 0 -121 -156 -121 -243c0 -51 21 -64 42 -64zM563 186l55 -20c-37 -115 -96 -177 -178 -177c-61 0 -102 33 -102 99c0 12 1 19 2 26l-8 3c-40 -88 -94 -128 -161 -128c-105 0 -150 80 -150 168c0 103 46 210 101 265
c43 43 82 62 140 62c64 0 104 -46 121 -89l54 206h-66l23 91h233l-139 -536c-5 -19 -7 -31 -7 -41c0 -18 10 -24 19 -24c18 0 37 17 63 95z" />
    <glyph glyph-name="e" unicode="e" horiz-adv-x="509" 
d="M499 361c0 -93 -90 -166 -309 -168c0 -92 50 -116 98 -116c41 0 83 18 131 72l45 -42c-55 -64 -123 -118 -233 -118c-129 0 -211 73 -211 191c0 157 128 304 310 304c108 0 169 -51 169 -123zM309 416c-55 0 -100 -86 -114 -168c122 4 153 67 153 116c0 33 -15 52 -39 52
z" />
    <glyph glyph-name="f" unicode="f" horiz-adv-x="385" 
d="M-26 -177c-73 0 -119 41 -119 93c0 42 28 81 76 81c31 0 61 -22 61 -67c0 -25 -12 -46 -17 -53c35 -2 48 21 61 87l83 418h-85l20 78h80c36 160 119 239 256 239c107 0 168 -46 168 -109c0 -42 -28 -83 -82 -83c-44 0 -76 26 -76 67c0 24 11 46 28 59c-7 4 -17 6 -28 6
c-67 0 -72 -56 -95 -164l-3 -15h138l-20 -78h-135l-66 -313c-38 -179 -134 -246 -245 -246z" />
    <glyph glyph-name="g" unicode="g" horiz-adv-x="573" 
d="M124 -114c12 -4 31 -7 45 -7c33 0 61 10 84 33c26 26 49 69 77 183l-10 4c-30 -46 -70 -74 -134 -74c-107 0 -155 79 -155 175c0 86 32 167 87 222c43 43 85 62 139 62c70 0 117 -47 129 -98l24 87h166l-101 -433c-42 -180 -175 -217 -292 -217c-54 0 -195 13 -195 113
c0 40 29 79 81 79c51 0 78 -35 78 -75c0 -24 -11 -42 -23 -54zM255 117c63 0 107 114 107 204c0 48 -18 76 -52 76c-68 0 -105 -127 -105 -202c0 -57 21 -78 50 -78z" />
    <glyph glyph-name="h" unicode="h" horiz-adv-x="626" 
d="M431 -11c-70 0 -107 43 -107 98c0 83 67 198 67 252c0 17 -11 27 -30 27c-35 0 -105 -29 -196 -366h-168l159 601h-66l23 91h235l-131 -415l8 -3c71 157 150 210 230 210c61 0 106 -37 106 -102c0 -94 -81 -227 -81 -272c0 -15 8 -19 16 -19c16 0 35 13 69 95l55 -20
c-40 -111 -105 -177 -189 -177z" />
    <glyph glyph-name="i" unicode="i" horiz-adv-x="374" 
d="M359 642c0 -47 -37 -102 -106 -102c-49 0 -85 32 -85 83c0 47 37 102 106 102c49 0 85 -32 85 -83zM308 394c0 -83 -83 -237 -83 -284c0 -15 8 -19 16 -19c16 0 35 13 69 95l55 -20c-40 -111 -104 -177 -188 -177c-65 0 -111 40 -111 103c0 73 83 229 83 272
c0 14 -7 18 -14 18c-17 0 -39 -36 -65 -96l-55 20c48 114 106 178 192 178c59 0 101 -37 101 -90z" />
    <glyph glyph-name="j" unicode="j" horiz-adv-x="337" 
d="M358 642c0 -47 -37 -102 -106 -102c-49 0 -85 32 -85 83c0 47 37 102 106 102c49 0 85 -32 85 -83zM307 392c0 -27 -7 -63 -15 -95l-71 -267c-41 -155 -121 -207 -236 -207c-82 0 -125 41 -125 93c0 42 28 81 76 81c33 0 63 -24 63 -66c0 -29 -13 -49 -22 -59
c38 -3 59 24 89 143l57 227c9 35 25 96 25 122c0 14 -7 18 -14 18c-17 0 -39 -36 -65 -96l-55 20c48 114 106 178 192 178c59 0 101 -37 101 -92z" />
    <glyph glyph-name="k" unicode="k" horiz-adv-x="588" 
d="M436 110c0 -15 9 -19 17 -19c18 0 34 13 68 95l55 -20c-40 -111 -93 -177 -179 -177c-82 0 -116 52 -116 104c0 33 12 69 12 94c0 28 -8 40 -68 42l-60 -229h-168l159 601h-66l23 91h235l-108 -407c55 0 78 30 129 115c26 43 62 84 122 84c59 0 89 -39 89 -87
c0 -45 -28 -95 -80 -95c-45 0 -69 36 -61 80c-12 -8 -21 -17 -38 -47c-16 -27 -35 -51 -61 -69c82 -8 105 -42 105 -89c0 -29 -9 -49 -9 -67z" />
    <glyph glyph-name="l" unicode="l" horiz-adv-x="336" 
d="M30 91c0 17 4 44 12 74l116 436h-66l23 91h235l-137 -489c-5 -17 -24 -75 -24 -93c0 -15 8 -19 16 -19c16 0 35 13 69 95l55 -20c-40 -111 -103 -177 -188 -177c-66 0 -111 36 -111 102z" />
    <glyph glyph-name="m" unicode="m" horiz-adv-x="965" 
d="M770 -11c-70 0 -107 43 -107 98c0 83 67 198 67 252c0 17 -11 27 -28 27c-33 0 -103 -29 -187 -366h-168l68 248c16 58 19 79 19 91c0 17 -11 27 -30 27c-35 0 -105 -29 -189 -366h-168l84 317c15 58 8 65 -2 65c-17 0 -39 -36 -65 -96l-55 20c48 113 104 178 185 178
c46 0 82 -32 82 -96c0 -25 -2 -57 -16 -111l8 -3c71 157 150 210 218 210c60 0 95 -33 95 -95c0 -25 -7 -58 -21 -112l8 -3c71 157 150 210 228 210c59 0 104 -37 104 -102c0 -94 -81 -227 -81 -272c0 -15 8 -19 16 -19c16 0 35 13 69 95l55 -20
c-40 -111 -105 -177 -189 -177z" />
    <glyph glyph-name="n" unicode="n" horiz-adv-x="669" 
d="M523 110c0 -15 8 -19 16 -19c16 0 35 13 69 95l55 -20c-40 -111 -105 -177 -189 -177c-70 0 -107 43 -107 98c0 83 67 198 67 252c0 17 -11 27 -30 27c-35 0 -105 -29 -189 -366h-168l84 317c15 58 8 65 -2 65c-17 0 -39 -36 -65 -96l-55 20c48 113 104 178 185 178
c46 0 82 -32 82 -96c0 -25 -2 -57 -16 -111l8 -3c71 157 150 210 230 210c61 0 106 -37 106 -102c0 -94 -81 -227 -81 -272z" />
    <glyph glyph-name="o" unicode="o" horiz-adv-x="554" 
d="M315 484c128 0 219 -82 219 -198c0 -163 -143 -297 -295 -297c-128 0 -219 82 -219 198c0 163 143 297 295 297zM364 345c0 60 -24 70 -46 70c-84 0 -128 -213 -128 -287c0 -60 24 -70 45 -70c85 0 129 213 129 287z" />
    <glyph glyph-name="p" unicode="p" horiz-adv-x="615" 
d="M374 380c-66 0 -114 -134 -114 -234c0 -43 16 -70 48 -70c66 0 114 152 114 232c0 51 -20 72 -48 72zM131 317c15 58 3 61 -6 61c-17 0 -36 -32 -61 -92l-55 20c49 117 96 178 171 178c57 0 92 -44 92 -112c0 -9 0 -15 -1 -27l8 -3c42 99 109 142 170 142
c101 0 147 -69 147 -172c0 -130 -85 -312 -233 -312c-57 0 -103 26 -127 82l-40 -155h80l-24 -91h-310l24 91h62z" />
    <glyph glyph-name="q" unicode="q" horiz-adv-x="581" 
d="M574 473l-133 -546h65l-24 -91h-310l24 91h77l46 172l-8 3c-27 -50 -70 -102 -143 -102c-95 0 -144 75 -144 172c0 96 39 191 97 249c40 40 87 63 142 63c67 0 107 -47 121 -98l24 87h166zM245 101c63 0 119 142 119 224c0 49 -17 72 -47 72c-67 0 -118 -143 -118 -226
c0 -58 25 -70 46 -70z" />
    <glyph glyph-name="r" unicode="r" horiz-adv-x="533" 
d="M47 0l84 317c15 58 8 65 -2 65c-17 0 -39 -36 -65 -96l-55 20c48 113 104 178 185 178c46 0 82 -32 82 -96c0 -25 -2 -53 -13 -99l8 -3c56 132 101 198 183 198c53 0 94 -41 94 -98c0 -61 -40 -107 -93 -107c-42 0 -84 29 -79 85c-17 -6 -77 -30 -161 -364h-168z" />
    <glyph glyph-name="s" unicode="s" horiz-adv-x="487" 
d="M444 147c0 -109 -106 -158 -220 -158c-132 0 -219 53 -219 122c0 49 36 80 80 80c54 0 78 -35 78 -69c0 -18 -6 -39 -22 -57c12 -6 33 -16 70 -16c52 0 74 27 74 59c0 38 -45 57 -88 78c-71 34 -134 67 -134 139c0 105 109 159 219 159c121 0 200 -54 200 -118
c0 -45 -36 -75 -77 -75c-57 0 -81 38 -81 68c0 23 7 40 18 53c-8 5 -26 12 -50 12c-49 0 -74 -28 -74 -57c0 -41 51 -59 113 -91c51 -26 113 -57 113 -129z" />
    <glyph glyph-name="t" unicode="t" horiz-adv-x="424" 
d="M432 382h-149l-53 -199c-4 -14 -7 -34 -7 -44c0 -32 19 -41 38 -41c35 0 60 32 84 101l57 -20c-42 -138 -121 -190 -207 -190c-74 0 -140 36 -140 125c0 21 5 54 13 84l50 184h-82l20 78h83l32 116l169 20l-36 -136h148z" />
    <glyph glyph-name="u" unicode="u" horiz-adv-x="674" 
d="M493 -11c-61 0 -102 33 -102 99c0 26 5 54 22 119l-8 3c-74 -168 -145 -221 -225 -221c-61 0 -109 36 -109 103c0 92 74 226 74 271c0 15 -8 19 -16 19c-14 0 -31 -14 -65 -96l-55 20c40 111 103 178 187 178c69 0 108 -40 108 -96c0 -81 -64 -194 -64 -248
c0 -22 11 -33 30 -33c35 0 101 29 185 366h168l-82 -317c-5 -19 -7 -31 -7 -41c0 -18 10 -24 19 -24c18 0 37 17 63 95l55 -20c-37 -115 -96 -177 -178 -177z" />
    <glyph glyph-name="v" unicode="v" horiz-adv-x="561" 
d="M199 484c65 0 102 -39 102 -91c0 -77 -64 -172 -64 -231c0 -39 31 -65 67 -65c93 0 166 163 159 232c-8 -6 -22 -11 -42 -11c-40 0 -74 30 -74 77c0 48 38 92 91 92c57 0 107 -39 107 -137c0 -143 -126 -361 -298 -361c-100 0 -172 72 -172 155c0 93 71 180 71 221
c0 13 -8 17 -15 17c-23 0 -43 -34 -73 -96l-55 20c51 113 110 178 196 178z" />
    <glyph glyph-name="w" unicode="w" horiz-adv-x="823" 
d="M199 484c65 0 102 -39 102 -91c0 -97 -84 -203 -84 -261c0 -19 9 -37 34 -37c54 0 107 76 175 378h151l-27 -113c-18 -76 -28 -138 -28 -188c0 -61 26 -75 57 -75c93 0 153 163 146 232c-8 -6 -22 -11 -42 -11c-40 0 -74 30 -74 77c0 48 38 92 91 92
c57 0 107 -39 107 -139c0 -141 -99 -359 -276 -359c-76 0 -140 37 -140 151v2l-6 2c-35 -77 -92 -155 -188 -155c-80 0 -142 54 -142 138c0 98 91 181 91 238c0 13 -8 17 -15 17c-23 0 -43 -34 -73 -96l-55 20c51 113 110 178 196 178z" />
    <glyph glyph-name="x" unicode="x" horiz-adv-x="628" 
d="M393 184c0 -57 18 -85 48 -85c34 0 54 32 80 109l56 -20c-31 -111 -80 -199 -185 -199c-70 0 -124 36 -141 147h-6c-38 -97 -91 -147 -161 -147c-53 0 -95 35 -95 91c0 47 29 91 79 91c55 0 78 -48 67 -92c64 22 100 135 100 210c0 57 -15 85 -45 85
c-34 0 -54 -32 -80 -109l-56 20c31 111 78 199 187 199c64 0 119 -36 136 -147h6c38 97 91 147 161 147c53 0 95 -34 95 -92c0 -46 -29 -90 -79 -90c-55 0 -78 48 -67 92c-64 -22 -100 -135 -100 -210z" />
    <glyph glyph-name="y" unicode="y" horiz-adv-x="596" 
d="M199 484c63 0 100 -40 100 -92c0 -77 -57 -180 -57 -226c0 -20 13 -29 30 -29c34 0 93 19 174 336h154l-103 -431c-44 -185 -170 -219 -284 -219c-49 0 -189 9 -189 109c0 40 29 79 81 79c51 0 78 -35 78 -71c0 -27 -15 -46 -27 -55c8 -3 18 -6 40 -6
c77 0 113 47 140 150l34 126l-6 3c-58 -106 -115 -131 -176 -131c-73 0 -110 45 -110 101c0 79 68 182 68 237c0 13 -8 17 -15 17c-23 0 -43 -34 -73 -96l-55 20c51 113 110 178 196 178z" />
    <glyph glyph-name="z" unicode="z" horiz-adv-x="530" 
d="M202 159c74 -4 125 -21 164 -21c37 0 56 12 86 83l54 -15c-40 -146 -78 -217 -172 -217c-57 0 -114 28 -152 84l-22 32l-9 -2c-15 -88 -57 -114 -89 -114c-44 0 -77 35 -77 76c0 46 43 82 144 96c66 77 121 115 201 153c-74 4 -115 21 -152 21c-36 0 -62 -12 -92 -83
l-54 15c40 146 81 217 179 217c49 0 101 -28 139 -84l22 -32l9 2c15 88 57 114 89 114c44 0 77 -35 77 -76c0 -46 -43 -82 -144 -96c-66 -77 -121 -115 -201 -153z" />
    <glyph glyph-name="Aacute" unicode="&#xc1;" horiz-adv-x="715" 
d="M342 96h73l-7 105h-202l-58 -105h85l-24 -96h-260l24 96h64l326 566h175l56 -566h79l-24 -96h-331zM254 289h149l-14 237h-4zM571 783l-94 -59h-79l83 133c32 51 58 91 102 91s72 -34 72 -68c0 -45 -38 -68 -84 -97z" />
    <glyph glyph-name="aacute" unicode="&#xe1;" 
d="M570 473l-82 -317c-5 -19 -7 -31 -7 -41c0 -18 10 -24 19 -24c18 0 37 17 63 95l55 -20c-37 -115 -96 -177 -178 -177c-61 0 -102 33 -102 99c0 7 1 17 2 26l-8 3c-40 -88 -94 -128 -161 -128c-105 0 -150 80 -150 168c0 103 46 210 101 265c43 43 82 62 140 62
c64 0 104 -47 118 -98l24 87h166zM238 90c69 0 122 153 122 235c0 49 -15 72 -45 72c-67 0 -119 -156 -119 -243c0 -51 21 -64 42 -64zM468 595l-94 -59h-79l83 133c32 51 58 91 102 91s72 -34 72 -68c0 -45 -38 -68 -84 -97z" />
    <glyph glyph-name="Abreve" unicode="&#x102;" horiz-adv-x="715" 
d="M342 96h73l-7 105h-202l-58 -105h85l-24 -96h-260l24 96h64l326 566h175l56 -566h79l-24 -96h-331zM254 289h149l-14 237h-4zM466 718c-95 0 -158 60 -127 195h79c-7 -62 26 -84 66 -84c46 0 82 27 99 84h83c-25 -134 -98 -195 -200 -195z" />
    <glyph glyph-name="abreve" unicode="&#x103;" 
d="M570 473l-82 -317c-5 -19 -7 -31 -7 -41c0 -18 10 -24 19 -24c18 0 37 17 63 95l55 -20c-37 -115 -96 -177 -178 -177c-61 0 -102 33 -102 99c0 7 1 17 2 26l-8 3c-40 -88 -94 -128 -161 -128c-105 0 -150 80 -150 168c0 103 46 210 101 265c43 43 82 62 140 62
c64 0 104 -47 118 -98l24 87h166zM238 90c69 0 122 153 122 235c0 49 -15 72 -45 72c-67 0 -119 -156 -119 -243c0 -51 21 -64 42 -64zM362 530c-95 0 -158 60 -127 195h79c-7 -62 26 -84 66 -84c46 0 82 27 99 84h83c-25 -134 -98 -195 -200 -195z" />
    <glyph glyph-name="Acircumflex" unicode="&#xc2;" horiz-adv-x="715" 
d="M342 96h73l-7 105h-202l-58 -105h85l-24 -96h-260l24 96h64l326 566h175l56 -566h79l-24 -96h-331zM254 289h149l-14 237h-4zM276 724l177 203h98l79 -203h-95l-55 83l-98 -83h-106z" />
    <glyph glyph-name="acircumflex" unicode="&#xe2;" 
d="M570 473l-82 -317c-5 -19 -7 -31 -7 -41c0 -18 10 -24 19 -24c18 0 37 17 63 95l55 -20c-37 -115 -96 -177 -178 -177c-61 0 -102 33 -102 99c0 7 1 17 2 26l-8 3c-40 -88 -94 -128 -161 -128c-105 0 -150 80 -150 168c0 103 46 210 101 265c43 43 82 62 140 62
c64 0 104 -47 118 -98l24 87h166zM238 90c69 0 122 153 122 235c0 49 -15 72 -45 72c-67 0 -119 -156 -119 -243c0 -51 21 -64 42 -64zM173 536l177 203h98l79 -203h-95l-55 83l-98 -83h-106z" />
    <glyph glyph-name="Adieresis" unicode="&#xc4;" horiz-adv-x="715" 
d="M342 96h73l-7 105h-202l-58 -105h85l-24 -96h-260l24 96h64l326 566h175l56 -566h79l-24 -96h-331zM254 289h149l-14 237h-4zM462 810c0 -42 -32 -92 -90 -92c-42 0 -73 29 -73 75c0 42 32 92 90 92c42 0 73 -29 73 -75zM664 810c0 -42 -32 -92 -90 -92
c-42 0 -73 29 -73 75c0 42 32 92 90 92c42 0 73 -29 73 -75z" />
    <glyph glyph-name="adieresis" unicode="&#xe4;" 
d="M570 473l-82 -317c-5 -19 -7 -31 -7 -41c0 -18 10 -24 19 -24c18 0 37 17 63 95l55 -20c-37 -115 -96 -177 -178 -177c-61 0 -102 33 -102 99c0 7 1 17 2 26l-8 3c-40 -88 -94 -128 -161 -128c-105 0 -150 80 -150 168c0 103 46 210 101 265c43 43 82 62 140 62
c64 0 104 -47 118 -98l24 87h166zM238 90c69 0 122 153 122 235c0 49 -15 72 -45 72c-67 0 -119 -156 -119 -243c0 -51 21 -64 42 -64zM359 622c0 -42 -32 -92 -90 -92c-42 0 -73 29 -73 75c0 42 32 92 90 92c42 0 73 -29 73 -75zM561 622c0 -42 -32 -92 -90 -92
c-42 0 -73 29 -73 75c0 42 32 92 90 92c42 0 73 -29 73 -75z" />
    <glyph glyph-name="AE" unicode="&#xc6;" horiz-adv-x="1057" 
d="M359 96h79l29 115h-226l-102 -117h76l-24 -94h-264l24 96h60l424 466h-88l24 96h741l-61 -243h-93c7 129 -6 150 -93 150h-130l-47 -187h26c48 0 56 11 87 88h89l-67 -269h-87c11 76 6 88 -41 88h-30l-48 -192h123c107 0 127 37 182 178h104l-68 -271h-623zM317 299h172
l65 259h-11z" />
    <glyph glyph-name="ae" unicode="&#xe6;" horiz-adv-x="786" 
d="M607 484c108 0 169 -51 169 -123c0 -93 -90 -166 -309 -168c0 -92 50 -116 98 -116c41 0 83 18 131 72l45 -42c-55 -64 -123 -118 -233 -118c-84 0 -148 32 -178 89c-71 -78 -142 -89 -185 -89c-94 0 -137 56 -137 118c0 119 136 153 310 160c10 37 12 62 12 71
c0 45 -27 65 -78 65c-15 0 -32 -2 -46 -7c9 -9 14 -28 14 -37c0 -46 -39 -73 -81 -73c-53 0 -73 38 -73 66c0 93 107 132 222 132c76 0 125 -18 152 -50c50 33 107 50 167 50zM586 416c-55 0 -100 -86 -114 -168c122 4 153 67 153 116c0 33 -15 52 -39 52zM307 181
c0 12 0 23 2 35c-67 -6 -142 -18 -142 -80c0 -28 18 -53 49 -53c26 0 62 13 95 51c-2 14 -4 30 -4 47z" />
    <glyph glyph-name="AEacute" unicode="&#x1fc;" horiz-adv-x="1057" 
d="M359 96h79l29 115h-226l-102 -117h76l-24 -94h-264l24 96h60l424 466h-88l24 96h741l-61 -243h-93c7 129 -6 150 -93 150h-130l-47 -187h26c48 0 56 11 87 88h89l-67 -269h-87c11 76 6 88 -41 88h-30l-48 -192h123c107 0 127 37 182 178h104l-68 -271h-623zM317 299h172
l65 259h-11zM806 783l-94 -59h-79l83 133c32 51 58 91 102 91s72 -34 72 -68c0 -45 -38 -68 -84 -97z" />
    <glyph glyph-name="aeacute" unicode="&#x1fd;" horiz-adv-x="786" 
d="M607 484c108 0 169 -51 169 -123c0 -93 -90 -166 -309 -168c0 -92 50 -116 98 -116c41 0 83 18 131 72l45 -42c-55 -64 -123 -118 -233 -118c-84 0 -148 32 -178 89c-71 -78 -142 -89 -185 -89c-94 0 -137 56 -137 118c0 119 136 153 310 160c10 37 12 62 12 71
c0 45 -27 65 -78 65c-15 0 -32 -2 -46 -7c9 -9 14 -28 14 -37c0 -46 -39 -73 -81 -73c-53 0 -73 38 -73 66c0 93 107 132 222 132c76 0 125 -18 152 -50c50 33 107 50 167 50zM583 595l-94 -59h-79l83 133c32 51 58 91 102 91s72 -34 72 -68c0 -45 -38 -68 -84 -97zM586 416
c-55 0 -100 -86 -114 -168c122 4 153 67 153 116c0 33 -15 52 -39 52zM307 181c0 12 0 23 2 35c-67 -6 -142 -18 -142 -80c0 -28 18 -53 49 -53c26 0 62 13 95 51c-2 14 -4 30 -4 47z" />
    <glyph glyph-name="Agrave" unicode="&#xc0;" horiz-adv-x="715" 
d="M342 96h73l-7 105h-202l-58 -105h85l-24 -96h-260l24 96h64l326 566h175l56 -566h79l-24 -96h-331zM254 289h149l-14 237h-4zM469 836l29 -112h-70l-58 58c-42 42 -57 69 -57 98c0 32 26 69 73 69c54 0 67 -51 83 -113z" />
    <glyph glyph-name="agrave" unicode="&#xe0;" 
d="M570 473l-82 -317c-5 -19 -7 -31 -7 -41c0 -18 10 -24 19 -24c18 0 37 17 63 95l55 -20c-37 -115 -96 -177 -178 -177c-61 0 -102 33 -102 99c0 7 1 17 2 26l-8 3c-40 -88 -94 -128 -161 -128c-105 0 -150 80 -150 168c0 103 46 210 101 265c43 43 82 62 140 62
c64 0 104 -47 118 -98l24 87h166zM238 90c69 0 122 153 122 235c0 49 -15 72 -45 72c-67 0 -119 -156 -119 -243c0 -51 21 -64 42 -64zM366 648l29 -112h-70l-58 58c-42 42 -57 69 -57 98c0 32 26 69 73 69c54 0 67 -51 83 -113z" />
    <glyph glyph-name="Amacron" unicode="&#x100;" horiz-adv-x="715" 
d="M342 96h73l-7 105h-202l-58 -105h85l-24 -96h-260l24 96h64l326 566h175l56 -566h79l-24 -96h-331zM254 289h149l-14 237h-4zM303 724l27 107h319l-27 -107h-319z" />
    <glyph glyph-name="amacron" unicode="&#x101;" 
d="M570 473l-82 -317c-5 -19 -7 -31 -7 -41c0 -18 10 -24 19 -24c18 0 37 17 63 95l55 -20c-37 -115 -96 -177 -178 -177c-61 0 -102 33 -102 99c0 7 1 17 2 26l-8 3c-40 -88 -94 -128 -161 -128c-105 0 -150 80 -150 168c0 103 46 210 101 265c43 43 82 62 140 62
c64 0 104 -47 118 -98l24 87h166zM238 90c69 0 122 153 122 235c0 49 -15 72 -45 72c-67 0 -119 -156 -119 -243c0 -51 21 -64 42 -64zM200 536l27 107h319l-27 -107h-319z" />
    <glyph glyph-name="Aogonek" unicode="&#x104;" horiz-adv-x="715" 
d="M592 -215c-34 -21 -78 -38 -127 -38c-68 0 -132 28 -132 100c0 65 58 110 142 153h-157l24 96h73l-7 105h-202l-58 -105h85l-24 -96h-260l24 96h64l326 566h175l56 -566h79l-24 -96h-71l-17 -12c-72 -51 -99 -82 -99 -116c0 -22 14 -45 50 -45c19 0 37 4 60 17zM254 289
h149l-14 237h-4z" />
    <glyph glyph-name="aogonek" unicode="&#x105;" 
d="M380 386l24 87h166l-82 -317c-5 -19 -7 -31 -7 -41c0 -18 10 -24 19 -24c18 0 37 17 63 95l55 -20c-23 -67 -47 -122 -122 -174c-78 -53 -104 -86 -104 -120c0 -22 14 -45 50 -45c19 0 37 4 60 17l20 -59c-34 -21 -78 -38 -127 -38c-68 0 -132 28 -132 100
c0 63 54 107 134 149c-38 13 -59 45 -59 92c0 7 1 17 2 26l-8 3c-40 -88 -94 -128 -161 -128c-105 0 -150 80 -150 168c0 103 46 210 101 265c43 43 82 62 140 62c64 0 104 -47 118 -98zM238 90c69 0 122 153 122 235c0 49 -15 72 -45 72c-67 0 -119 -156 -119 -243
c0 -51 21 -64 42 -64z" />
    <glyph glyph-name="Aring" unicode="&#xc5;" horiz-adv-x="715" 
d="M603 755c0 -45 -23 -87 -63 -111l54 -548h79l-24 -96h-331l24 96h73l-7 105h-204l-58 -105h87l-24 -96h-260l24 96h66l323 561c-21 20 -32 48 -32 78c0 69 55 132 144 132c80 0 129 -51 129 -112zM252 289h151l-14 240h-4zM417 730c0 -24 11 -50 43 -50c29 0 56 30 56 80
c0 24 -11 50 -43 50c-29 0 -56 -30 -56 -80z" />
    <glyph glyph-name="aring" unicode="&#xe5;" 
d="M570 473l-82 -317c-5 -19 -7 -31 -7 -41c0 -18 10 -24 19 -24c18 0 37 17 63 95l55 -20c-37 -115 -96 -177 -178 -177c-61 0 -102 33 -102 99c0 7 1 17 2 26l-8 3c-40 -88 -94 -128 -161 -128c-105 0 -150 80 -150 168c0 103 46 210 101 265c43 43 82 62 140 62
c64 0 104 -47 118 -98l24 87h166zM238 90c69 0 122 153 122 235c0 49 -15 72 -45 72c-67 0 -119 -156 -119 -243c0 -51 21 -64 42 -64zM527 662c0 -69 -55 -132 -144 -132c-80 0 -129 51 -129 112c0 69 55 132 144 132c80 0 129 -51 129 -112zM341 637c0 -24 11 -50 43 -50
c29 0 56 30 56 80c0 24 -11 50 -43 50c-29 0 -56 -30 -56 -80z" />
    <glyph glyph-name="Aringacute" unicode="&#x1fa;" horiz-adv-x="715" 
d="M603 755c0 -45 -23 -87 -63 -111l54 -548h79l-24 -96h-331l24 96h73l-7 105h-204l-58 -105h87l-24 -96h-260l24 96h66l323 561c-21 20 -32 48 -32 78c0 69 55 132 144 132c80 0 129 -51 129 -112zM252 289h151l-14 240h-4zM417 730c0 -24 11 -50 43 -50c29 0 56 30 56 80
c0 24 -11 50 -43 50c-29 0 -56 -30 -56 -80zM625 969l-94 -59h-79l83 133c32 51 58 91 102 91s72 -34 72 -68c0 -45 -38 -68 -84 -97z" />
    <glyph glyph-name="aringacute" unicode="&#x1fb;" 
d="M570 473l-82 -317c-5 -19 -7 -31 -7 -41c0 -18 10 -24 19 -24c18 0 37 17 63 95l55 -20c-37 -115 -96 -177 -178 -177c-61 0 -102 33 -102 99c0 7 1 17 2 26l-8 3c-40 -88 -94 -128 -161 -128c-105 0 -150 80 -150 168c0 103 46 210 101 265c43 43 82 62 140 62
c64 0 104 -47 118 -98l24 87h166zM238 90c69 0 122 153 122 235c0 49 -15 72 -45 72c-67 0 -119 -156 -119 -243c0 -51 21 -64 42 -64zM522 662c0 -69 -55 -132 -144 -132c-80 0 -129 51 -129 112c0 69 55 132 144 132c80 0 129 -51 129 -112zM336 637c0 -24 11 -50 43 -50
c29 0 56 30 56 80c0 24 -11 50 -43 50c-29 0 -56 -30 -56 -80zM535 875l-94 -59h-79l83 133c32 51 58 91 102 91s72 -34 72 -68c0 -45 -38 -68 -84 -97z" />
    <glyph glyph-name="Atilde" unicode="&#xc3;" horiz-adv-x="715" 
d="M342 96h73l-7 105h-202l-58 -105h85l-24 -96h-260l24 96h64l326 566h175l56 -566h79l-24 -96h-331zM254 289h149l-14 237h-4zM399 773c-24 0 -41 -16 -58 -55h-73c34 114 64 180 145 180c63 0 118 -54 157 -54c24 0 41 16 58 55h73c-34 -114 -64 -180 -145 -180
c-63 0 -117 54 -157 54z" />
    <glyph glyph-name="atilde" unicode="&#xe3;" 
d="M570 473l-82 -317c-5 -19 -7 -31 -7 -41c0 -18 10 -24 19 -24c18 0 37 17 63 95l55 -20c-37 -115 -96 -177 -178 -177c-61 0 -102 33 -102 99c0 7 1 17 2 26l-8 3c-40 -88 -94 -128 -161 -128c-105 0 -150 80 -150 168c0 103 46 210 101 265c43 43 82 62 140 62
c64 0 104 -47 118 -98l24 87h166zM238 90c69 0 122 153 122 235c0 49 -15 72 -45 72c-67 0 -119 -156 -119 -243c0 -51 21 -64 42 -64zM296 585c-24 0 -41 -16 -58 -55h-73c34 114 64 180 145 180c63 0 118 -54 157 -54c24 0 41 16 58 55h73c-34 -114 -64 -180 -145 -180
c-63 0 -117 54 -157 54z" />
    <glyph glyph-name="Cacute" unicode="&#x106;" horiz-adv-x="685" 
d="M348 -16c-176 0 -293 107 -293 283c0 166 114 407 360 407c83 0 147 -30 184 -86l49 84h101l-65 -264h-111c-5 125 -66 177 -137 177c-148 0 -195 -254 -195 -339c0 -134 80 -158 132 -158c97 0 144 64 188 172l91 -27c-49 -143 -136 -249 -304 -249zM551 783l-94 -59
h-79l83 133c32 51 58 91 102 91s72 -34 72 -68c0 -45 -38 -68 -84 -97z" />
    <glyph glyph-name="cacute" unicode="&#x107;" horiz-adv-x="508" 
d="M320 484c87 0 170 -43 170 -141c0 -60 -41 -107 -93 -107c-45 0 -72 28 -72 67c0 41 33 66 57 73c-7 22 -23 34 -52 34c-80 0 -137 -107 -137 -214c0 -93 52 -112 89 -112c45 0 88 24 129 77l48 -42c-45 -61 -115 -130 -231 -130c-126 0 -208 73 -208 192
c0 169 140 303 300 303zM428 595l-94 -59h-79l83 133c32 51 58 91 102 91s72 -34 72 -68c0 -45 -38 -68 -84 -97z" />
    <glyph glyph-name="Ccaron" unicode="&#x10c;" horiz-adv-x="685" 
d="M348 -16c-176 0 -293 107 -293 283c0 166 114 407 360 407c83 0 147 -30 184 -86l49 84h101l-65 -264h-111c-5 125 -66 177 -137 177c-148 0 -195 -254 -195 -339c0 -134 80 -158 132 -158c97 0 144 64 188 172l91 -27c-49 -143 -136 -249 -304 -249zM658 927l-177 -203
h-98l-79 203h95l55 -83l98 83h106z" />
    <glyph glyph-name="ccaron" unicode="&#x10d;" horiz-adv-x="508" 
d="M320 484c87 0 170 -43 170 -141c0 -60 -41 -107 -93 -107c-45 0 -72 28 -72 67c0 41 33 66 57 73c-7 22 -23 34 -52 34c-80 0 -137 -107 -137 -214c0 -93 52 -112 89 -112c45 0 88 24 129 77l48 -42c-45 -61 -115 -130 -231 -130c-126 0 -208 73 -208 192
c0 169 140 303 300 303zM534 739l-177 -203h-98l-79 203h95l55 -83l98 83h106z" />
    <glyph glyph-name="Ccedilla" unicode="&#xc7;" horiz-adv-x="685" 
d="M150 -157c23 -13 60 -27 96 -27c27 0 43 10 43 27c0 21 -31 35 -92 31l-16 47l99 69c-137 24 -225 124 -225 277c0 166 114 407 360 407c83 0 147 -30 184 -86l49 84h101l-65 -264h-111c-5 125 -66 177 -137 177c-148 0 -195 -254 -195 -339c0 -134 80 -158 132 -158
c97 0 144 64 188 172l91 -27c-48 -139 -131 -242 -289 -249l-50 -40l1 -4c65 -14 98 -45 98 -87c0 -63 -62 -105 -152 -105c-47 0 -106 15 -147 41z" />
    <glyph glyph-name="ccedilla" unicode="&#xe7;" horiz-adv-x="508" 
d="M55 -157c23 -13 60 -27 96 -27c27 0 43 10 43 27c0 21 -31 35 -92 31l-16 47l102 71c-103 13 -168 83 -168 189c0 169 140 303 300 303c87 0 170 -43 170 -141c0 -60 -41 -107 -93 -107c-45 0 -72 28 -72 67c0 41 33 66 57 73c-7 22 -23 34 -52 34
c-80 0 -137 -107 -137 -214c0 -93 52 -112 89 -112c45 0 88 24 129 77l48 -42c-38 -51 -93 -108 -179 -125l-62 -50l1 -4c65 -14 98 -45 98 -87c0 -63 -62 -105 -152 -105c-47 0 -106 15 -147 41z" />
    <glyph glyph-name="Cdotaccent" unicode="&#x10a;" horiz-adv-x="685" 
d="M348 -16c-176 0 -293 107 -293 283c0 166 114 407 360 407c83 0 147 -30 184 -86l49 84h101l-65 -264h-111c-5 125 -66 177 -137 177c-148 0 -195 -254 -195 -339c0 -134 80 -158 132 -158c97 0 144 64 188 172l91 -27c-49 -143 -136 -249 -304 -249zM554 813
c0 -44 -35 -96 -100 -96c-47 0 -81 30 -81 79c0 44 35 96 100 96c47 0 81 -30 81 -79z" />
    <glyph glyph-name="cdotaccent" unicode="&#x10b;" horiz-adv-x="508" 
d="M320 484c87 0 170 -43 170 -141c0 -60 -41 -107 -93 -107c-45 0 -72 28 -72 67c0 41 33 66 57 73c-7 22 -23 34 -52 34c-80 0 -137 -107 -137 -214c0 -93 52 -112 89 -112c45 0 88 24 129 77l48 -42c-45 -61 -115 -130 -231 -130c-126 0 -208 73 -208 192
c0 169 140 303 300 303zM431 625c0 -44 -35 -96 -100 -96c-47 0 -81 30 -81 79c0 44 35 96 100 96c47 0 81 -30 81 -79z" />
    <glyph glyph-name="Dcaron" unicode="&#x10e;" horiz-adv-x="734" 
d="M-38 0l24 96h79l116 466h-79l24 96h265c233 0 345 -110 345 -267c0 -102 -34 -200 -109 -275s-181 -116 -346 -116h-319zM244 93h52c72 0 114 15 161 62c52 52 92 171 92 268c0 98 -46 142 -150 142h-37zM688 927l-177 -203h-98l-79 203h95l55 -83l98 83h106z" />
    <glyph glyph-name="dcaron" unicode="&#x10f;" 
d="M238 90c69 0 124 155 124 243c0 55 -25 64 -45 64c-72 0 -121 -156 -121 -243c0 -51 21 -64 42 -64zM563 186l55 -20c-37 -115 -96 -177 -178 -177c-61 0 -102 33 -102 99c0 12 1 19 2 26l-8 3c-40 -88 -94 -128 -161 -128c-105 0 -150 80 -150 168c0 103 46 210 101 265
c43 43 82 62 140 62c64 0 104 -46 121 -89l54 206h-66l23 91h233l-139 -536c-5 -19 -7 -31 -7 -41c0 -18 10 -24 19 -24c18 0 37 17 63 95zM782 634l-61 -85h-60l29 163c13 71 37 103 85 103c34 0 68 -27 68 -65c0 -37 -22 -61 -61 -116z" />
    <glyph glyph-name="Dcroat" unicode="&#x110;" horiz-adv-x="740" 
d="M-32 0l24 96h79l49 199h-78l23 96h79l43 171h-79l24 96h265c233 0 345 -110 345 -267c0 -102 -34 -200 -109 -275s-181 -116 -346 -116h-319zM250 93h52c72 0 114 15 161 62c52 52 92 171 92 268c0 98 -46 142 -150 142h-37l-44 -174h105l-23 -96h-106z" />
    <glyph glyph-name="dcroat" unicode="&#x111;" 
d="M394 692h233l-32 -121h67l-17 -68h-67l-90 -347c-5 -19 -7 -31 -7 -41c0 -18 10 -24 19 -24c18 0 37 17 63 95l55 -20c-37 -115 -96 -177 -178 -177c-61 0 -102 33 -102 99c0 12 1 19 2 26l-8 3c-40 -88 -94 -128 -161 -128c-105 0 -150 80 -150 168c0 103 44 200 99 255
c43 43 82 62 140 62c64 0 104 -46 121 -89l30 118h-112l17 68h113l11 42h-66zM238 90c69 0 122 153 122 233c0 55 -25 64 -45 64c-72 0 -119 -154 -119 -233c0 -51 21 -64 42 -64z" />
    <glyph glyph-name="Eacute" unicode="&#xc9;" horiz-adv-x="690" 
d="M132 658h613l-61 -243h-93c7 129 -6 150 -93 150h-130l-47 -187h26c48 0 56 11 87 88h89l-67 -269h-87c11 76 6 88 -41 88h-30l-48 -192h123c107 0 127 37 182 178h104l-68 -271h-623l24 96h79l116 466h-79zM581 783l-94 -59h-79l83 133c32 51 58 91 102 91
s72 -34 72 -68c0 -45 -38 -68 -84 -97z" />
    <glyph glyph-name="eacute" unicode="&#xe9;" horiz-adv-x="509" 
d="M499 361c0 -93 -90 -166 -309 -168c0 -92 50 -116 98 -116c41 0 83 18 131 72l45 -42c-55 -64 -123 -118 -233 -118c-129 0 -211 73 -211 191c0 157 128 304 310 304c108 0 169 -51 169 -123zM438 595l-94 -59h-79l83 133c32 51 58 91 102 91s72 -34 72 -68
c0 -45 -38 -68 -84 -97zM309 416c-55 0 -100 -86 -114 -168c122 4 153 67 153 116c0 33 -15 52 -39 52z" />
    <glyph glyph-name="Ebreve" unicode="&#x114;" horiz-adv-x="690" 
d="M132 658h613l-61 -243h-93c7 129 -6 150 -93 150h-130l-47 -187h26c48 0 56 11 87 88h89l-67 -269h-87c11 76 6 88 -41 88h-30l-48 -192h123c107 0 127 37 182 178h104l-68 -271h-623l24 96h79l116 466h-79zM476 718c-95 0 -158 60 -127 195h79c-7 -62 26 -84 66 -84
c46 0 82 27 99 84h83c-25 -134 -98 -195 -200 -195z" />
    <glyph glyph-name="ebreve" unicode="&#x115;" horiz-adv-x="509" 
d="M499 361c0 -93 -90 -166 -309 -168c0 -92 50 -116 98 -116c41 0 83 18 131 72l45 -42c-55 -64 -123 -118 -233 -118c-129 0 -211 73 -211 191c0 157 128 304 310 304c108 0 169 -51 169 -123zM332 530c-95 0 -158 60 -127 195h79c-7 -62 26 -84 66 -84c46 0 82 27 99 84
h83c-25 -134 -98 -195 -200 -195zM309 416c-55 0 -100 -86 -114 -168c122 4 153 67 153 116c0 33 -15 52 -39 52z" />
    <glyph glyph-name="Ecaron" unicode="&#x11a;" horiz-adv-x="690" 
d="M132 658h613l-61 -243h-93c7 129 -6 150 -93 150h-130l-47 -187h26c48 0 56 11 87 88h89l-67 -269h-87c11 76 6 88 -41 88h-30l-48 -192h123c107 0 127 37 182 178h104l-68 -271h-623l24 96h79l116 466h-79zM688 927l-177 -203h-98l-79 203h95l55 -83l98 83h106z" />
    <glyph glyph-name="ecaron" unicode="&#x11b;" horiz-adv-x="509" 
d="M499 361c0 -93 -90 -166 -309 -168c0 -92 50 -116 98 -116c41 0 83 18 131 72l45 -42c-55 -64 -123 -118 -233 -118c-129 0 -211 73 -211 191c0 157 128 304 310 304c108 0 169 -51 169 -123zM544 739l-177 -203h-98l-79 203h95l55 -83l98 83h106zM309 416
c-55 0 -100 -86 -114 -168c122 4 153 67 153 116c0 33 -15 52 -39 52z" />
    <glyph glyph-name="Ecircumflex" unicode="&#xca;" horiz-adv-x="690" 
d="M132 658h613l-61 -243h-93c7 129 -6 150 -93 150h-130l-47 -187h26c48 0 56 11 87 88h89l-67 -269h-87c11 76 6 88 -41 88h-30l-48 -192h123c107 0 127 37 182 178h104l-68 -271h-623l24 96h79l116 466h-79zM287 724l177 203h98l79 -203h-95l-55 83l-98 -83h-106z" />
    <glyph glyph-name="ecircumflex" unicode="&#xea;" horiz-adv-x="509" 
d="M499 361c0 -93 -90 -166 -309 -168c0 -92 50 -116 98 -116c41 0 83 18 131 72l45 -42c-55 -64 -123 -118 -233 -118c-129 0 -211 73 -211 191c0 157 128 304 310 304c108 0 169 -51 169 -123zM143 536l177 203h98l79 -203h-95l-55 83l-98 -83h-106zM309 416
c-55 0 -100 -86 -114 -168c122 4 153 67 153 116c0 33 -15 52 -39 52z" />
    <glyph glyph-name="Edieresis" unicode="&#xcb;" horiz-adv-x="690" 
d="M132 658h613l-61 -243h-93c7 129 -6 150 -93 150h-130l-47 -187h26c48 0 56 11 87 88h89l-67 -269h-87c11 76 6 88 -41 88h-30l-48 -192h123c107 0 127 37 182 178h104l-68 -271h-623l24 96h79l116 466h-79zM473 810c0 -42 -32 -92 -90 -92c-42 0 -73 29 -73 75
c0 42 32 92 90 92c42 0 73 -29 73 -75zM675 810c0 -42 -32 -92 -90 -92c-42 0 -73 29 -73 75c0 42 32 92 90 92c42 0 73 -29 73 -75z" />
    <glyph glyph-name="edieresis" unicode="&#xeb;" horiz-adv-x="509" 
d="M499 361c0 -93 -90 -166 -309 -168c0 -92 50 -116 98 -116c41 0 83 18 131 72l45 -42c-55 -64 -123 -118 -233 -118c-129 0 -211 73 -211 191c0 157 128 304 310 304c108 0 169 -51 169 -123zM531 622c0 -42 -32 -92 -90 -92c-42 0 -73 29 -73 75c0 42 32 92 90 92
c42 0 73 -29 73 -75zM329 622c0 -42 -32 -92 -90 -92c-42 0 -73 29 -73 75c0 42 32 92 90 92c42 0 73 -29 73 -75zM309 416c-55 0 -100 -86 -114 -168c122 4 153 67 153 116c0 33 -15 52 -39 52z" />
    <glyph glyph-name="Edotaccent" unicode="&#x116;" horiz-adv-x="690" 
d="M132 658h613l-61 -243h-93c7 129 -6 150 -93 150h-130l-47 -187h26c48 0 56 11 87 88h89l-67 -269h-87c11 76 6 88 -41 88h-30l-48 -192h123c107 0 127 37 182 178h104l-68 -271h-623l24 96h79l116 466h-79zM584 813c0 -44 -35 -96 -100 -96c-47 0 -81 30 -81 79
c0 44 35 96 100 96c47 0 81 -30 81 -79z" />
    <glyph glyph-name="edotaccent" unicode="&#x117;" horiz-adv-x="509" 
d="M499 361c0 -93 -90 -166 -309 -168c0 -92 50 -116 98 -116c41 0 83 18 131 72l45 -42c-55 -64 -123 -118 -233 -118c-129 0 -211 73 -211 191c0 157 128 304 310 304c108 0 169 -51 169 -123zM441 625c0 -44 -35 -96 -100 -96c-47 0 -81 30 -81 79c0 44 35 96 100 96
c47 0 81 -30 81 -79zM309 416c-55 0 -100 -86 -114 -168c122 4 153 67 153 116c0 33 -15 52 -39 52z" />
    <glyph glyph-name="Egrave" unicode="&#xc8;" horiz-adv-x="690" 
d="M132 658h613l-61 -243h-93c7 129 -6 150 -93 150h-130l-47 -187h26c48 0 56 11 87 88h89l-67 -269h-87c11 76 6 88 -41 88h-30l-48 -192h123c107 0 127 37 182 178h104l-68 -271h-623l24 96h79l116 466h-79zM479 836l29 -112h-70l-58 58c-42 42 -57 69 -57 98
c0 32 26 69 73 69c54 0 67 -51 83 -113z" />
    <glyph glyph-name="egrave" unicode="&#xe8;" horiz-adv-x="509" 
d="M499 361c0 -93 -90 -166 -309 -168c0 -92 50 -116 98 -116c41 0 83 18 131 72l45 -42c-55 -64 -123 -118 -233 -118c-129 0 -211 73 -211 191c0 157 128 304 310 304c108 0 169 -51 169 -123zM336 648l29 -112h-70l-58 58c-42 42 -57 69 -57 98c0 32 26 69 73 69
c54 0 67 -51 83 -113zM309 416c-55 0 -100 -86 -114 -168c122 4 153 67 153 116c0 33 -15 52 -39 52z" />
    <glyph glyph-name="Emacron" unicode="&#x112;" horiz-adv-x="690" 
d="M132 658h613l-61 -243h-93c7 129 -6 150 -93 150h-130l-47 -187h26c48 0 56 11 87 88h89l-67 -269h-87c11 76 6 88 -41 88h-30l-48 -192h123c107 0 127 37 182 178h104l-68 -271h-623l24 96h79l116 466h-79zM314 724l27 107h319l-27 -107h-319z" />
    <glyph glyph-name="emacron" unicode="&#x113;" horiz-adv-x="509" 
d="M499 361c0 -93 -90 -166 -309 -168c0 -92 50 -116 98 -116c41 0 83 18 131 72l45 -42c-55 -64 -123 -118 -233 -118c-129 0 -211 73 -211 191c0 157 128 304 310 304c108 0 169 -51 169 -123zM170 536l27 107h319l-27 -107h-319zM309 416c-55 0 -100 -86 -114 -168
c122 4 153 67 153 116c0 33 -15 52 -39 52z" />
    <glyph glyph-name="Eogonek" unicode="&#x118;" horiz-adv-x="690" 
d="M552 -215c-34 -21 -78 -38 -127 -38c-68 0 -132 28 -132 100c0 65 58 110 142 153h-467l24 96h79l116 466h-79l24 96h613l-61 -243h-93c7 129 -6 150 -93 150h-130l-47 -187h26c48 0 56 11 87 88h89l-67 -269h-87c11 76 6 88 -41 88h-30l-48 -192h123
c107 0 127 37 182 178h104l-68 -271h-53l-17 -12c-72 -51 -99 -82 -99 -116c0 -22 14 -45 50 -45c19 0 37 4 60 17z" />
    <glyph glyph-name="eogonek" unicode="&#x119;" horiz-adv-x="509" 
d="M419 149l45 -42c-28 -32 -52 -56 -93 -83l-48 -32c-76 -50 -106 -86 -106 -120c0 -22 14 -45 50 -45c19 0 37 4 60 17l20 -59c-34 -21 -78 -38 -127 -38c-68 0 -132 28 -132 100c0 53 36 95 126 143c-119 6 -194 77 -194 190c0 157 128 304 310 304
c108 0 169 -51 169 -123c0 -93 -90 -166 -309 -168c0 -92 50 -116 98 -116c41 0 83 18 131 72zM309 416c-55 0 -100 -86 -114 -168c122 4 153 67 153 116c0 33 -15 52 -39 52z" />
    <glyph glyph-name="Eth" unicode="&#xd0;" horiz-adv-x="740" 
d="M-32 0l24 96h79l49 199h-78l23 96h79l43 171h-79l24 96h265c233 0 345 -110 345 -267c0 -102 -34 -200 -109 -275s-181 -116 -346 -116h-319zM250 93h52c72 0 114 15 161 62c52 52 92 171 92 268c0 98 -46 142 -150 142h-37l-44 -174h105l-23 -96h-106z" />
    <glyph glyph-name="eth" unicode="&#xf0;" horiz-adv-x="560" 
d="M585 602l-91 -29c32 -63 50 -134 50 -206c0 -246 -149 -378 -306 -378c-128 0 -219 82 -219 198c0 163 123 267 240 267c66 0 104 -23 126 -47c2 39 -6 83 -20 126l-124 -38l-21 70l117 36c-12 25 -27 48 -42 68l101 34c21 -20 41 -42 58 -65l110 34zM358 304
c0 60 -24 70 -45 70c-76 0 -124 -169 -124 -246c0 -60 24 -70 45 -70c76 0 124 169 124 246z" />
    <glyph glyph-name="Gbreve" unicode="&#x11e;" horiz-adv-x="739" 
d="M343 83c88 0 117 81 136 151l4 15h-107l23 96h352l-23 -96h-69l-68 -257h-95l-13 90c-32 -48 -84 -98 -181 -98c-153 0 -247 112 -247 272c0 177 114 418 360 418c83 0 147 -30 184 -86l49 84h101l-63 -254h-129c-5 125 -64 167 -121 167c-148 0 -195 -262 -195 -355
c0 -119 56 -147 102 -147zM461 718c-95 0 -158 60 -127 195h79c-7 -62 26 -84 66 -84c46 0 82 27 99 84h83c-25 -134 -98 -195 -200 -195z" />
    <glyph glyph-name="gbreve" unicode="&#x11f;" horiz-adv-x="573" 
d="M124 -114c12 -4 31 -7 45 -7c33 0 61 10 84 33c26 26 49 69 77 183l-10 4c-30 -46 -70 -74 -134 -74c-107 0 -155 79 -155 175c0 86 32 167 87 222c43 43 85 62 139 62c70 0 117 -47 129 -98l24 87h166l-101 -433c-42 -180 -175 -217 -292 -217c-54 0 -195 13 -195 113
c0 40 29 79 81 79c51 0 78 -35 78 -75c0 -24 -11 -42 -23 -54zM255 117c63 0 107 114 107 204c0 48 -18 76 -52 76c-68 0 -105 -127 -105 -202c0 -57 21 -78 50 -78zM380 530c-95 0 -158 60 -127 195h79c-7 -62 26 -84 66 -84c46 0 82 27 99 84h83
c-25 -134 -98 -195 -200 -195z" />
    <glyph glyph-name="Gcommaaccent" unicode="&#x122;" horiz-adv-x="739" 
d="M343 83c88 0 117 81 136 151l4 15h-107l23 96h352l-23 -96h-69l-68 -257h-95l-13 90c-32 -48 -84 -98 -181 -98c-153 0 -247 112 -247 272c0 177 114 418 360 418c83 0 147 -30 184 -86l49 84h101l-63 -254h-129c-5 125 -64 167 -121 167c-148 0 -195 -262 -195 -355
c0 -119 56 -147 102 -147zM155 -384l-17 57c78 21 129 57 148 99l-7 6c-8 -5 -18 -7 -28 -7c-45 0 -72 31 -72 72c0 52 38 100 96 100c60 0 101 -43 101 -113c0 -107 -93 -186 -221 -214z" />
    <glyph glyph-name="gcommaaccent" unicode="&#x123;" horiz-adv-x="573" 
d="M124 -114c12 -4 31 -7 45 -7c33 0 61 10 84 33c26 26 49 69 77 183l-10 4c-30 -46 -70 -74 -134 -74c-107 0 -155 79 -155 175c0 86 32 167 87 222c43 43 85 62 139 62c70 0 117 -47 129 -98l24 87h166l-101 -433c-42 -180 -175 -217 -292 -217c-54 0 -195 13 -195 113
c0 40 29 79 81 79c51 0 78 -35 78 -75c0 -24 -11 -42 -23 -54zM255 117c63 0 107 114 107 204c0 48 -18 76 -52 76c-68 0 -105 -127 -105 -202c0 -57 21 -78 50 -78zM483 856l17 -57c-78 -21 -129 -57 -148 -99l7 -6c8 5 18 7 28 7c45 0 72 -31 72 -72
c0 -52 -38 -100 -96 -100c-60 0 -101 43 -101 113c0 107 93 186 221 214z" />
    <glyph glyph-name="Gdotaccent" unicode="&#x120;" horiz-adv-x="739" 
d="M343 83c88 0 117 81 136 151l4 15h-107l23 96h352l-23 -96h-69l-68 -257h-95l-13 90c-32 -48 -84 -98 -181 -98c-153 0 -247 112 -247 272c0 177 114 418 360 418c83 0 147 -30 184 -86l49 84h101l-63 -254h-129c-5 125 -64 167 -121 167c-148 0 -195 -262 -195 -355
c0 -119 56 -147 102 -147zM569 813c0 -44 -35 -96 -100 -96c-47 0 -81 30 -81 79c0 44 35 96 100 96c47 0 81 -30 81 -79z" />
    <glyph glyph-name="gdotaccent" unicode="&#x121;" horiz-adv-x="573" 
d="M124 -114c12 -4 31 -7 45 -7c33 0 61 10 84 33c26 26 49 69 77 183l-10 4c-30 -46 -70 -74 -134 -74c-107 0 -155 79 -155 175c0 86 32 167 87 222c43 43 85 62 139 62c70 0 117 -47 129 -98l24 87h166l-101 -433c-42 -180 -175 -217 -292 -217c-54 0 -195 13 -195 113
c0 40 29 79 81 79c51 0 78 -35 78 -75c0 -24 -11 -42 -23 -54zM255 117c63 0 107 114 107 204c0 48 -18 76 -52 76c-68 0 -105 -127 -105 -202c0 -57 21 -78 50 -78zM488 625c0 -44 -35 -96 -100 -96c-47 0 -81 30 -81 79c0 44 35 96 100 96c47 0 81 -30 81 -79z" />
    <glyph glyph-name="Hbar" unicode="&#x126;" horiz-adv-x="796" 
d="M72 422l22 88h80l13 52h-79l24 96h341l-24 -96h-82l-16 -62h225l16 62h-82l24 96h340l-24 -96h-79l-13 -52h80l-22 -88h-80l-81 -326h79l-24 -96h-340l24 96h82l44 178h-225l-44 -178h82l-24 -96h-341l24 96h79l81 326h-80zM319 370h225l15 62h-225z" />
    <glyph glyph-name="hbar" unicode="&#x127;" horiz-adv-x="626" 
d="M431 -11c-70 0 -107 43 -107 98c0 78 64 193 64 242c0 17 -11 27 -30 27c-32 0 -102 -19 -193 -356h-168l133 503h-65l17 68h66l11 42h-66l20 79h235l-38 -121h111l-17 -68h-116l-71 -226l8 -3c71 157 150 200 227 200c61 0 106 -37 106 -102c0 -89 -78 -222 -78 -262
c0 -15 8 -19 16 -19c16 0 35 13 69 95l55 -20c-40 -111 -105 -177 -189 -177z" />
    <glyph glyph-name="Iacute" unicode="&#xcd;" horiz-adv-x="392" 
d="M-32 0l24 96h79l116 466h-79l24 96h338l-24 -96h-79l-116 -466h79l-24 -96h-338zM425 783l-94 -59h-79l83 133c32 51 58 91 102 91s72 -34 72 -68c0 -45 -38 -68 -84 -97z" />
    <glyph glyph-name="iacute" unicode="&#xed;" horiz-adv-x="374" 
d="M308 394c0 -83 -83 -237 -83 -284c0 -15 8 -19 16 -19c16 0 35 13 69 95l55 -20c-40 -111 -104 -177 -188 -177c-65 0 -111 40 -111 103c0 73 83 229 83 272c0 14 -7 18 -14 18c-17 0 -39 -36 -65 -96l-55 20c48 114 106 178 192 178c59 0 101 -37 101 -90zM328 595
l-94 -59h-79l83 133c32 51 58 91 102 91s72 -34 72 -68c0 -45 -38 -68 -84 -97z" />
    <glyph glyph-name="Ibreve" unicode="&#x12c;" horiz-adv-x="392" 
d="M-32 0l24 96h79l116 466h-79l24 96h338l-24 -96h-79l-116 -466h79l-24 -96h-338zM320 718c-95 0 -158 60 -127 195h79c-7 -62 26 -84 66 -84c46 0 82 27 99 84h83c-25 -134 -98 -195 -200 -195z" />
    <glyph glyph-name="ibreve" unicode="&#x12d;" horiz-adv-x="374" 
d="M308 394c0 -83 -83 -237 -83 -284c0 -15 8 -19 16 -19c16 0 35 13 69 95l55 -20c-40 -111 -104 -177 -188 -177c-65 0 -111 40 -111 103c0 73 83 229 83 272c0 14 -7 18 -14 18c-17 0 -39 -36 -65 -96l-55 20c48 114 106 178 192 178c59 0 101 -37 101 -90zM222 530
c-95 0 -158 60 -127 195h79c-7 -62 26 -84 66 -84c46 0 82 27 99 84h83c-25 -134 -98 -195 -200 -195z" />
    <glyph glyph-name="Icircumflex" unicode="&#xce;" horiz-adv-x="392" 
d="M-32 0l24 96h79l116 466h-79l24 96h338l-24 -96h-79l-116 -466h79l-24 -96h-338zM131 724l177 203h98l79 -203h-95l-55 83l-98 -83h-106z" />
    <glyph glyph-name="icircumflex" unicode="&#xee;" horiz-adv-x="374" 
d="M308 394c0 -83 -83 -237 -83 -284c0 -15 8 -19 16 -19c16 0 35 13 69 95l55 -20c-40 -111 -104 -177 -188 -177c-65 0 -111 40 -111 103c0 73 83 229 83 272c0 14 -7 18 -14 18c-17 0 -39 -36 -65 -96l-55 20c48 114 106 178 192 178c59 0 101 -37 101 -90zM33 536
l177 203h98l79 -203h-95l-55 83l-98 -83h-106z" />
    <glyph glyph-name="Idieresis" unicode="&#xcf;" horiz-adv-x="392" 
d="M-32 0l24 96h79l116 466h-79l24 96h338l-24 -96h-79l-116 -466h79l-24 -96h-338zM317 810c0 -42 -32 -92 -90 -92c-42 0 -73 29 -73 75c0 42 32 92 90 92c42 0 73 -29 73 -75zM519 810c0 -42 -32 -92 -90 -92c-42 0 -73 29 -73 75c0 42 32 92 90 92c42 0 73 -29 73 -75z
" />
    <glyph glyph-name="idieresis" unicode="&#xef;" horiz-adv-x="374" 
d="M308 394c0 -83 -83 -237 -83 -284c0 -15 8 -19 16 -19c16 0 35 13 69 95l55 -20c-40 -111 -104 -177 -188 -177c-65 0 -111 40 -111 103c0 73 83 229 83 272c0 14 -7 18 -14 18c-17 0 -39 -36 -65 -96l-55 20c48 114 106 178 192 178c59 0 101 -37 101 -90zM219 622
c0 -42 -32 -92 -90 -92c-42 0 -73 29 -73 75c0 42 32 92 90 92c42 0 73 -29 73 -75zM421 622c0 -42 -32 -92 -90 -92c-42 0 -73 29 -73 75c0 42 32 92 90 92c42 0 73 -29 73 -75z" />
    <glyph glyph-name="Idotaccent" unicode="&#x130;" horiz-adv-x="392" 
d="M-32 0l24 96h79l116 466h-79l24 96h338l-24 -96h-79l-116 -466h79l-24 -96h-338zM428 813c0 -44 -35 -96 -100 -96c-47 0 -81 30 -81 79c0 44 35 96 100 96c47 0 81 -30 81 -79z" />
    <glyph glyph-name="dotlessi" unicode="&#x131;" horiz-adv-x="374" 
d="M308 394c0 -83 -83 -237 -83 -284c0 -15 8 -19 16 -19c16 0 35 13 69 95l55 -20c-40 -111 -104 -177 -188 -177c-65 0 -111 40 -111 103c0 73 83 229 83 272c0 14 -7 18 -14 18c-17 0 -39 -36 -65 -96l-55 20c48 114 106 178 192 178c59 0 101 -37 101 -90z" />
    <glyph glyph-name="Igrave" unicode="&#xcc;" horiz-adv-x="392" 
d="M-32 0l24 96h79l116 466h-79l24 96h338l-24 -96h-79l-116 -466h79l-24 -96h-338zM323 836l29 -112h-70l-58 58c-42 42 -57 69 -57 98c0 32 26 69 73 69c54 0 67 -51 83 -113z" />
    <glyph glyph-name="igrave" unicode="&#xec;" horiz-adv-x="374" 
d="M308 394c0 -83 -83 -237 -83 -284c0 -15 8 -19 16 -19c16 0 35 13 69 95l55 -20c-40 -111 -104 -177 -188 -177c-65 0 -111 40 -111 103c0 73 83 229 83 272c0 14 -7 18 -14 18c-17 0 -39 -36 -65 -96l-55 20c48 114 106 178 192 178c59 0 101 -37 101 -90zM226 648
l29 -112h-70l-58 58c-42 42 -57 69 -57 98c0 32 26 69 73 69c54 0 67 -51 83 -113z" />
    <glyph glyph-name="Imacron" unicode="&#x12a;" horiz-adv-x="392" 
d="M-32 0l24 96h79l116 466h-79l24 96h338l-24 -96h-79l-116 -466h79l-24 -96h-338zM158 724l27 107h319l-27 -107h-319z" />
    <glyph glyph-name="imacron" unicode="&#x12b;" horiz-adv-x="374" 
d="M308 394c0 -83 -83 -237 -83 -284c0 -15 8 -19 16 -19c16 0 35 13 69 95l55 -20c-40 -111 -104 -177 -188 -177c-65 0 -111 40 -111 103c0 73 83 229 83 272c0 14 -7 18 -14 18c-17 0 -39 -36 -65 -96l-55 20c48 114 106 178 192 178c59 0 101 -37 101 -90zM60 536
l27 107h319l-27 -107h-319z" />
    <glyph glyph-name="Iogonek" unicode="&#x12e;" horiz-adv-x="392" 
d="M-32 0l24 96h79l116 466h-79l24 96h338l-24 -96h-79l-116 -466h79l-24 -96h-93l-17 -12c-72 -51 -99 -82 -99 -116c0 -22 14 -45 50 -45c19 0 37 4 60 17l20 -59c-34 -21 -78 -38 -127 -38c-68 0 -132 28 -132 100c0 65 58 110 142 153h-142z" />
    <glyph glyph-name="iogonek" unicode="&#x12f;" horiz-adv-x="374" 
d="M310 186l55 -20c-23 -65 -57 -121 -117 -164c-94 -67 -111 -96 -111 -130c0 -22 14 -45 50 -45c19 0 37 4 60 17l20 -59c-34 -21 -78 -38 -127 -38c-68 0 -132 28 -132 100c0 62 53 106 131 147c-45 13 -73 48 -73 98c0 73 83 229 83 272c0 14 -7 18 -14 18
c-17 0 -39 -36 -65 -96l-55 20c48 114 106 178 192 178c59 0 101 -37 101 -90c0 -83 -83 -237 -83 -284c0 -15 8 -19 16 -19c16 0 35 13 69 95zM359 642c0 -47 -37 -102 -106 -102c-49 0 -85 32 -85 83c0 47 37 102 106 102c49 0 85 -32 85 -83z" />
    <glyph glyph-name="Kcommaaccent" unicode="&#x136;" horiz-adv-x="735" 
d="M719 562l-210 -166l137 -300h73l-24 -96h-332l24 94h60l-80 189l-87 -69l-29 -120h71l-24 -94h-330l24 96h79l116 466h-79l24 96h335l-24 -94h-76l-56 -225l270 225h-72l24 94h283l-24 -96h-73zM179 -384l-17 57c78 21 129 57 148 99l-7 6c-8 -5 -18 -7 -28 -7
c-45 0 -72 31 -72 72c0 52 38 100 96 100c60 0 101 -43 101 -113c0 -107 -93 -186 -221 -214z" />
    <glyph glyph-name="kcommaaccent" unicode="&#x137;" horiz-adv-x="588" 
d="M436 110c0 -15 9 -19 17 -19c18 0 34 13 68 95l55 -20c-40 -111 -93 -177 -179 -177c-82 0 -116 52 -116 104c0 33 12 69 12 94c0 28 -8 40 -68 42l-60 -229h-168l159 601h-66l23 91h235l-108 -407c55 0 78 30 129 115c26 43 62 84 122 84c59 0 89 -39 89 -87
c0 -45 -28 -95 -80 -95c-45 0 -69 36 -61 80c-12 -8 -21 -17 -38 -47c-16 -27 -35 -51 -61 -69c82 -8 105 -42 105 -89c0 -29 -9 -49 -9 -67zM79 -379l-17 57c78 21 129 57 148 99l-7 6c-8 -5 -18 -7 -28 -7c-45 0 -72 31 -72 72c0 52 38 100 96 100c60 0 101 -43 101 -113
c0 -107 -93 -186 -221 -214z" />
    <glyph glyph-name="Lacute" unicode="&#x139;" horiz-adv-x="620" 
d="M132 658h353l-24 -93h-94l-117 -472h83c107 0 123 37 182 190h92l-71 -283h-568l24 96h79l116 466h-79zM426 783l-94 -59h-79l83 133c32 51 58 91 102 91s72 -34 72 -68c0 -45 -38 -68 -84 -97z" />
    <glyph glyph-name="lacute" unicode="&#x13a;" horiz-adv-x="336" 
d="M30 91c0 17 4 44 12 74l116 436h-66l23 91h235l-137 -489c-5 -17 -24 -75 -24 -93c0 -15 8 -19 16 -19c16 0 35 13 69 95l55 -20c-40 -111 -103 -177 -188 -177c-66 0 -111 36 -111 102zM370 809l-94 -59h-79l83 133c32 51 58 91 102 91s72 -34 72 -68
c0 -45 -38 -68 -84 -97z" />
    <glyph glyph-name="Lcaron" unicode="&#x13d;" horiz-adv-x="620" 
d="M132 658h353l-24 -93h-94l-117 -472h83c107 0 123 37 182 190h92l-71 -283h-568l24 96h79l116 466h-79zM632 580l-61 -85h-60l29 163c13 71 37 103 85 103c34 0 68 -27 68 -65c0 -37 -22 -61 -61 -116z" />
    <glyph glyph-name="lcaron" unicode="&#x13e;" horiz-adv-x="336" 
d="M30 91c0 17 4 44 12 74l116 436h-66l23 91h235l-137 -489c-5 -17 -24 -75 -24 -93c0 -15 8 -19 16 -19c16 0 35 13 69 95l55 -20c-40 -111 -103 -177 -188 -177c-66 0 -111 36 -111 102zM505 634l-61 -85h-60l29 163c13 71 37 103 85 103c34 0 68 -27 68 -65
c0 -37 -22 -61 -61 -116z" />
    <glyph glyph-name="Lcommaaccent" unicode="&#x13b;" horiz-adv-x="620" 
d="M132 658h353l-24 -93h-94l-117 -472h83c107 0 123 37 182 190h92l-71 -283h-568l24 96h79l116 466h-79zM119 -384l-17 57c78 21 129 57 148 99l-7 6c-8 -5 -18 -7 -28 -7c-45 0 -72 31 -72 72c0 52 38 100 96 100c60 0 101 -43 101 -113c0 -107 -93 -186 -221 -214z" />
    <glyph glyph-name="lcommaaccent" unicode="&#x13c;" horiz-adv-x="336" 
d="M30 91c0 17 4 44 12 74l116 436h-66l23 91h235l-137 -489c-5 -17 -24 -75 -24 -93c0 -15 8 -19 16 -19c16 0 35 13 69 95l55 -20c-40 -111 -103 -177 -188 -177c-66 0 -111 36 -111 102zM-28 -384l-17 57c78 21 129 57 148 99l-7 6c-8 -5 -18 -7 -28 -7
c-45 0 -72 31 -72 72c0 52 38 100 96 100c60 0 101 -43 101 -113c0 -107 -93 -186 -221 -214z" />
    <glyph glyph-name="Ldot" unicode="&#x13f;" horiz-adv-x="620" 
d="M132 658h353l-24 -93h-94l-117 -472h83c107 0 126 37 174 160h92l-63 -253h-568l24 96h79l116 466h-79zM511 313c-48 0 -81 31 -81 75c0 43 34 91 97 91c48 0 81 -31 81 -75c0 -43 -34 -91 -97 -91z" />
    <glyph glyph-name="ldot" unicode="&#x140;" horiz-adv-x="439" 
d="M477 353c0 -42 -33 -92 -94 -92c-45 0 -77 29 -77 75c0 42 33 92 94 92c45 0 77 -29 77 -75zM30 91c0 17 4 44 12 74l116 436h-66l23 91h235l-137 -489c-5 -17 -24 -75 -24 -93c0 -15 8 -19 16 -19c16 0 35 13 69 95l55 -20c-40 -111 -103 -177 -188 -177
c-66 0 -111 36 -111 102z" />
    <glyph glyph-name="Lslash" unicode="&#x141;" horiz-adv-x="625" 
d="M137 658h353l-24 -93h-94l-43 -174l184 59l-23 -93l-184 -59l-51 -205h83c107 0 123 37 182 190h92l-71 -283h-568l24 96h79l35 139l-87 -27l23 94l87 28l58 232h-79z" />
    <glyph glyph-name="lslash" unicode="&#x142;" horiz-adv-x="352" 
d="M38 91c0 17 4 44 12 74l32 122l-96 -28l18 79l99 29l63 234h-66l23 91h235l-77 -274l106 31l-19 -78l-109 -32l-38 -136c-5 -17 -24 -75 -24 -93c0 -15 8 -19 16 -19c16 0 35 13 69 95l55 -20c-40 -111 -103 -177 -188 -177c-66 0 -111 36 -111 102z" />
    <glyph glyph-name="Nacute" unicode="&#x143;" horiz-adv-x="778" 
d="M447 -6l-165 497h-9l-99 -395h84l-24 -96h-258l24 96h78l116 466h-79l24 96h270l151 -452h9l88 356h-84l24 96h259l-24 -96h-79l-141 -568h-165zM617 783l-94 -59h-79l83 133c32 51 58 91 102 91s72 -34 72 -68c0 -45 -38 -68 -84 -97z" />
    <glyph glyph-name="nacute" unicode="&#x144;" horiz-adv-x="669" 
d="M523 110c0 -15 8 -19 16 -19c16 0 35 13 69 95l55 -20c-40 -111 -105 -177 -189 -177c-70 0 -107 43 -107 98c0 83 67 198 67 252c0 17 -11 27 -30 27c-35 0 -105 -29 -189 -366h-168l84 317c15 58 8 65 -2 65c-17 0 -39 -36 -65 -96l-55 20c48 113 104 178 185 178
c46 0 82 -32 82 -96c0 -25 -2 -57 -16 -111l8 -3c71 157 150 210 230 210c61 0 106 -37 106 -102c0 -94 -81 -227 -81 -272zM503 595l-94 -59h-79l83 133c32 51 58 91 102 91s72 -34 72 -68c0 -45 -38 -68 -84 -97z" />
    <glyph glyph-name="Ncaron" unicode="&#x147;" horiz-adv-x="778" 
d="M447 -6l-165 497h-9l-99 -395h84l-24 -96h-258l24 96h78l116 466h-79l24 96h270l151 -452h9l88 356h-84l24 96h259l-24 -96h-79l-141 -568h-165zM723 927l-177 -203h-98l-79 203h95l55 -83l98 83h106z" />
    <glyph glyph-name="ncaron" unicode="&#x148;" horiz-adv-x="669" 
d="M523 110c0 -15 8 -19 16 -19c16 0 35 13 69 95l55 -20c-40 -111 -105 -177 -189 -177c-70 0 -107 43 -107 98c0 83 67 198 67 252c0 17 -11 27 -30 27c-35 0 -105 -29 -189 -366h-168l84 317c15 58 8 65 -2 65c-17 0 -39 -36 -65 -96l-55 20c48 113 104 178 185 178
c46 0 82 -32 82 -96c0 -25 -2 -57 -16 -111l8 -3c71 157 150 210 230 210c61 0 106 -37 106 -102c0 -94 -81 -227 -81 -272zM609 739l-177 -203h-98l-79 203h95l55 -83l98 83h106z" />
    <glyph glyph-name="Ncommaaccent" unicode="&#x145;" horiz-adv-x="778" 
d="M447 -6l-165 497h-9l-99 -395h84l-24 -96h-258l24 96h78l116 466h-79l24 96h270l151 -452h9l88 356h-84l24 96h259l-24 -96h-79l-141 -568h-165zM166 -384l-17 57c78 21 129 57 148 99l-7 6c-8 -5 -18 -7 -28 -7c-45 0 -72 31 -72 72c0 52 38 100 96 100
c60 0 101 -43 101 -113c0 -107 -93 -186 -221 -214z" />
    <glyph glyph-name="ncommaaccent" unicode="&#x146;" horiz-adv-x="669" 
d="M523 110c0 -15 8 -19 16 -19c16 0 35 13 69 95l55 -20c-40 -111 -105 -177 -189 -177c-70 0 -107 43 -107 98c0 83 67 198 67 252c0 17 -11 27 -30 27c-35 0 -105 -29 -189 -366h-168l84 317c15 58 8 65 -2 65c-17 0 -39 -36 -65 -96l-55 20c48 113 104 178 185 178
c46 0 82 -32 82 -96c0 -25 -2 -57 -16 -111l8 -3c71 157 150 210 230 210c61 0 106 -37 106 -102c0 -94 -81 -227 -81 -272zM152 -374l-17 57c78 21 129 57 148 99l-7 6c-8 -5 -18 -7 -28 -7c-45 0 -72 31 -72 72c0 52 38 100 96 100c60 0 101 -43 101 -113
c0 -107 -93 -186 -221 -214z" />
    <glyph glyph-name="Ntilde" unicode="&#xd1;" horiz-adv-x="778" 
d="M447 -6l-165 497h-9l-99 -395h84l-24 -96h-258l24 96h78l116 466h-79l24 96h270l151 -452h9l88 356h-84l24 96h259l-24 -96h-79l-141 -568h-165zM445 773c-24 0 -41 -16 -58 -55h-73c34 114 64 180 145 180c63 0 118 -54 157 -54c24 0 41 16 58 55h73
c-34 -114 -64 -180 -145 -180c-63 0 -117 54 -157 54z" />
    <glyph glyph-name="ntilde" unicode="&#xf1;" horiz-adv-x="669" 
d="M523 110c0 -15 8 -19 16 -19c16 0 35 13 69 95l55 -20c-40 -111 -105 -177 -189 -177c-70 0 -107 43 -107 98c0 83 67 198 67 252c0 17 -11 27 -30 27c-35 0 -105 -29 -189 -366h-168l84 317c15 58 8 65 -2 65c-17 0 -39 -36 -65 -96l-55 20c48 113 104 178 185 178
c46 0 82 -32 82 -96c0 -25 -2 -57 -16 -111l8 -3c71 157 150 210 230 210c61 0 106 -37 106 -102c0 -94 -81 -227 -81 -272zM331 585c-24 0 -41 -16 -58 -55h-73c34 114 64 180 145 180c63 0 118 -54 157 -54c24 0 41 16 58 55h73c-34 -114 -64 -180 -145 -180
c-63 0 -117 54 -157 54z" />
    <glyph glyph-name="Oacute" unicode="&#xd3;" horiz-adv-x="746" 
d="M55 277c0 157 110 397 382 397c177 0 301 -117 301 -293c0 -157 -110 -397 -381 -397c-178 0 -302 117 -302 293zM438 585c-144 0 -197 -262 -197 -372c0 -100 48 -140 114 -140c144 0 197 262 197 372c0 100 -48 140 -114 140zM596 783l-94 -59h-79l83 133
c32 51 58 91 102 91s72 -34 72 -68c0 -45 -38 -68 -84 -97z" />
    <glyph glyph-name="oacute" unicode="&#xf3;" horiz-adv-x="554" 
d="M315 484c128 0 219 -82 219 -198c0 -163 -143 -297 -295 -297c-128 0 -219 82 -219 198c0 163 143 297 295 297zM364 345c0 60 -24 70 -46 70c-84 0 -128 -213 -128 -287c0 -60 24 -70 45 -70c85 0 129 213 129 287zM448 595l-94 -59h-79l83 133c32 51 58 91 102 91
s72 -34 72 -68c0 -45 -38 -68 -84 -97z" />
    <glyph glyph-name="Obreve" unicode="&#x14e;" horiz-adv-x="746" 
d="M55 277c0 157 110 397 382 397c177 0 301 -117 301 -293c0 -157 -110 -397 -381 -397c-178 0 -302 117 -302 293zM438 585c-144 0 -197 -262 -197 -372c0 -100 48 -140 114 -140c144 0 197 262 197 372c0 100 -48 140 -114 140zM491 718c-95 0 -158 60 -127 195h79
c-7 -62 26 -84 66 -84c46 0 82 27 99 84h83c-25 -134 -98 -195 -200 -195z" />
    <glyph glyph-name="obreve" unicode="&#x14f;" horiz-adv-x="554" 
d="M315 484c128 0 219 -82 219 -198c0 -163 -143 -297 -295 -297c-128 0 -219 82 -219 198c0 163 143 297 295 297zM364 345c0 60 -24 70 -46 70c-84 0 -128 -213 -128 -287c0 -60 24 -70 45 -70c85 0 129 213 129 287zM342 530c-95 0 -158 60 -127 195h79
c-7 -62 26 -84 66 -84c46 0 82 27 99 84h83c-25 -134 -98 -195 -200 -195z" />
    <glyph glyph-name="Ocircumflex" unicode="&#xd4;" horiz-adv-x="746" 
d="M55 277c0 157 110 397 382 397c177 0 301 -117 301 -293c0 -157 -110 -397 -381 -397c-178 0 -302 117 -302 293zM438 585c-144 0 -197 -262 -197 -372c0 -100 48 -140 114 -140c144 0 197 262 197 372c0 100 -48 140 -114 140zM302 724l177 203h98l79 -203h-95l-55 83
l-98 -83h-106z" />
    <glyph glyph-name="ocircumflex" unicode="&#xf4;" horiz-adv-x="554" 
d="M315 484c128 0 219 -82 219 -198c0 -163 -143 -297 -295 -297c-128 0 -219 82 -219 198c0 163 143 297 295 297zM364 345c0 60 -24 70 -46 70c-84 0 -128 -213 -128 -287c0 -60 24 -70 45 -70c85 0 129 213 129 287zM153 536l177 203h98l79 -203h-95l-55 83l-98 -83h-106
z" />
    <glyph glyph-name="Odieresis" unicode="&#xd6;" horiz-adv-x="746" 
d="M55 277c0 157 110 397 382 397c177 0 301 -117 301 -293c0 -157 -110 -397 -381 -397c-178 0 -302 117 -302 293zM438 585c-144 0 -197 -262 -197 -372c0 -100 48 -140 114 -140c144 0 197 262 197 372c0 100 -48 140 -114 140zM488 810c0 -42 -32 -92 -90 -92
c-42 0 -73 29 -73 75c0 42 32 92 90 92c42 0 73 -29 73 -75zM690 810c0 -42 -32 -92 -90 -92c-42 0 -73 29 -73 75c0 42 32 92 90 92c42 0 73 -29 73 -75z" />
    <glyph glyph-name="odieresis" unicode="&#xf6;" horiz-adv-x="554" 
d="M315 484c128 0 219 -82 219 -198c0 -163 -143 -297 -295 -297c-128 0 -219 82 -219 198c0 163 143 297 295 297zM364 345c0 60 -24 70 -46 70c-84 0 -128 -213 -128 -287c0 -60 24 -70 45 -70c85 0 129 213 129 287zM339 622c0 -42 -32 -92 -90 -92c-42 0 -73 29 -73 75
c0 42 32 92 90 92c42 0 73 -29 73 -75zM541 622c0 -42 -32 -92 -90 -92c-42 0 -73 29 -73 75c0 42 32 92 90 92c42 0 73 -29 73 -75z" />
    <glyph glyph-name="OE" unicode="&#x152;" horiz-adv-x="1038" 
d="M499 658h594l-61 -243h-93c7 129 -6 150 -93 150h-130l-47 -187h26c48 0 56 11 87 88h89l-67 -269h-87c11 76 6 88 -41 88h-30l-48 -192h123c107 0 127 37 182 178h104l-68 -271h-550c-233 0 -345 110 -345 267c0 102 34 200 109 275s181 116 346 116zM536 565h-52
c-72 0 -114 -15 -161 -62c-52 -52 -92 -171 -92 -268c0 -98 46 -142 150 -142h37z" />
    <glyph glyph-name="oe" unicode="&#x153;" horiz-adv-x="833" 
d="M743 149l45 -42c-55 -64 -123 -118 -233 -118c-59 0 -121 21 -155 70c-49 -48 -102 -70 -161 -70c-128 0 -219 82 -219 198c0 163 143 297 295 297c66 0 121 -18 159 -79c44 45 111 79 184 79c103 0 165 -51 165 -123c0 -93 -90 -166 -309 -168c0 -92 50 -116 98 -116
c41 0 83 18 131 72zM364 345c0 60 -24 70 -46 70c-84 0 -128 -213 -128 -287c0 -60 24 -70 45 -70c85 0 129 213 129 287zM633 416c-55 0 -100 -86 -114 -168c122 4 153 67 153 116c0 33 -15 52 -39 52z" />
    <glyph glyph-name="Ograve" unicode="&#xd2;" horiz-adv-x="746" 
d="M55 277c0 157 110 397 382 397c177 0 301 -117 301 -293c0 -157 -110 -397 -381 -397c-178 0 -302 117 -302 293zM438 585c-144 0 -197 -262 -197 -372c0 -100 48 -140 114 -140c144 0 197 262 197 372c0 100 -48 140 -114 140zM494 836l29 -112h-70l-58 58
c-42 42 -57 69 -57 98c0 32 26 69 73 69c54 0 67 -51 83 -113z" />
    <glyph glyph-name="ograve" unicode="&#xf2;" horiz-adv-x="554" 
d="M315 484c128 0 219 -82 219 -198c0 -163 -143 -297 -295 -297c-128 0 -219 82 -219 198c0 163 143 297 295 297zM364 345c0 60 -24 70 -46 70c-84 0 -128 -213 -128 -287c0 -60 24 -70 45 -70c85 0 129 213 129 287zM346 648l29 -112h-70l-58 58c-42 42 -57 69 -57 98
c0 32 26 69 73 69c54 0 67 -51 83 -113z" />
    <glyph glyph-name="Ohungarumlaut" unicode="&#x150;" horiz-adv-x="746" 
d="M55 277c0 157 110 397 382 397c177 0 301 -117 301 -293c0 -157 -110 -397 -381 -397c-178 0 -302 117 -302 293zM438 585c-144 0 -197 -262 -197 -372c0 -100 48 -140 114 -140c144 0 197 262 197 372c0 100 -48 140 -114 140zM478 783l-82 -59h-77l69 133
c28 53 53 91 94 91c43 0 71 -33 71 -67c0 -45 -33 -68 -75 -98zM679 783l-82 -59h-79l71 133c28 53 53 91 94 91c43 0 71 -33 71 -67c0 -45 -33 -68 -75 -98z" />
    <glyph glyph-name="ohungarumlaut" unicode="&#x151;" horiz-adv-x="554" 
d="M315 484c128 0 219 -82 219 -198c0 -163 -143 -297 -295 -297c-128 0 -219 82 -219 198c0 163 143 297 295 297zM364 345c0 60 -24 70 -46 70c-84 0 -128 -213 -128 -287c0 -60 24 -70 45 -70c85 0 129 213 129 287zM330 595l-82 -59h-77l69 133c28 53 53 91 94 91
c43 0 71 -33 71 -67c0 -45 -33 -68 -75 -98zM531 595l-82 -59h-79l71 133c28 53 53 91 94 91c43 0 71 -33 71 -67c0 -45 -33 -68 -75 -98z" />
    <glyph glyph-name="Omacron" unicode="&#x14c;" horiz-adv-x="746" 
d="M55 277c0 157 110 397 382 397c177 0 301 -117 301 -293c0 -157 -110 -397 -381 -397c-178 0 -302 117 -302 293zM438 585c-144 0 -197 -262 -197 -372c0 -100 48 -140 114 -140c144 0 197 262 197 372c0 100 -48 140 -114 140zM329 724l27 107h319l-27 -107h-319z" />
    <glyph glyph-name="omacron" unicode="&#x14d;" horiz-adv-x="554" 
d="M315 484c128 0 219 -82 219 -198c0 -163 -143 -297 -295 -297c-128 0 -219 82 -219 198c0 163 143 297 295 297zM364 345c0 60 -24 70 -46 70c-84 0 -128 -213 -128 -287c0 -60 24 -70 45 -70c85 0 129 213 129 287zM180 536l27 107h319l-27 -107h-319z" />
    <glyph glyph-name="Oslash" unicode="&#xd8;" horiz-adv-x="746" 
d="M55 277c0 157 110 397 382 397c70 0 133 -19 182 -52l92 99l64 -58l-95 -100c37 -48 58 -110 58 -182c0 -157 -110 -397 -381 -397c-71 0 -134 19 -183 52l-92 -99l-64 58l94 99c-37 49 -57 111 -57 183zM438 585c-142 0 -196 -255 -197 -367l293 313
c-19 37 -54 54 -96 54zM355 73c142 0 195 254 197 367l-294 -313c20 -38 55 -54 97 -54z" />
    <glyph glyph-name="oslash" unicode="&#xf8;" horiz-adv-x="554" 
d="M58 -52l-51 46l60 65c-30 33 -47 77 -47 128c0 163 143 297 295 297c44 0 84 -10 117 -28l64 69l51 -46l-60 -65c30 -34 47 -78 47 -128c0 -163 -143 -297 -295 -297c-44 0 -84 10 -117 27zM318 415c-67 0 -109 -134 -123 -227l166 186c-6 34 -25 41 -43 41zM235 58
c67 0 109 133 123 225l-166 -185c7 -34 26 -40 43 -40z" />
    <glyph glyph-name="Oslashacute" unicode="&#x1fe;" horiz-adv-x="746" 
d="M55 277c0 157 110 397 382 397c70 0 133 -19 182 -52l92 99l64 -58l-95 -100c37 -48 58 -110 58 -182c0 -157 -110 -397 -381 -397c-71 0 -134 19 -183 52l-92 -99l-64 58l94 99c-37 49 -57 111 -57 183zM438 585c-142 0 -196 -255 -197 -367l293 313
c-19 37 -54 54 -96 54zM355 73c142 0 195 254 197 367l-294 -313c20 -38 55 -54 97 -54zM581 783l-94 -59h-79l83 133c32 51 58 91 102 91s72 -34 72 -68c0 -45 -38 -68 -84 -97z" />
    <glyph glyph-name="oslashacute" unicode="&#x1ff;" horiz-adv-x="554" 
d="M58 -52l-51 46l60 65c-30 33 -47 77 -47 128c0 163 143 297 295 297c44 0 84 -10 117 -28l64 69l51 -46l-60 -65c30 -34 47 -78 47 -128c0 -163 -143 -297 -295 -297c-44 0 -84 10 -117 27zM443 595l-94 -59h-79l83 133c32 51 58 91 102 91s72 -34 72 -68
c0 -45 -38 -68 -84 -97zM318 415c-67 0 -109 -134 -123 -227l166 186c-6 34 -25 41 -43 41zM235 58c67 0 109 133 123 225l-166 -185c7 -34 26 -40 43 -40z" />
    <glyph glyph-name="Otilde" unicode="&#xd5;" horiz-adv-x="746" 
d="M55 277c0 157 110 397 382 397c177 0 301 -117 301 -293c0 -157 -110 -397 -381 -397c-178 0 -302 117 -302 293zM438 585c-144 0 -197 -262 -197 -372c0 -100 48 -140 114 -140c144 0 197 262 197 372c0 100 -48 140 -114 140zM424 773c-24 0 -41 -16 -58 -55h-73
c34 114 64 180 145 180c63 0 118 -54 157 -54c24 0 41 16 58 55h73c-34 -114 -64 -180 -145 -180c-63 0 -117 54 -157 54z" />
    <glyph glyph-name="otilde" unicode="&#xf5;" horiz-adv-x="554" 
d="M315 484c128 0 219 -82 219 -198c0 -163 -143 -297 -295 -297c-128 0 -219 82 -219 198c0 163 143 297 295 297zM364 345c0 60 -24 70 -46 70c-84 0 -128 -213 -128 -287c0 -60 24 -70 45 -70c85 0 129 213 129 287zM276 585c-24 0 -41 -16 -58 -55h-73
c34 114 64 180 145 180c63 0 118 -54 157 -54c24 0 41 16 58 55h73c-34 -114 -64 -180 -145 -180c-63 0 -117 54 -157 54z" />
    <glyph glyph-name="Racute" unicode="&#x154;" horiz-adv-x="717" 
d="M-32 0l24 96h79l116 466h-79l24 96h345c175 0 235 -70 235 -144c0 -102 -80 -173 -258 -184l-2 -6c110 -13 147 -59 147 -108c0 -32 -12 -72 -12 -95c0 -20 12 -25 22 -25c15 0 27 11 51 60l54 -28c-39 -87 -82 -143 -175 -143c-80 0 -132 39 -132 105c0 44 19 93 19 140
c0 35 -28 55 -87 55h-42l-47 -189h85l-24 -96h-343zM320 376h57c43 0 85 9 113 37c19 19 30 46 30 84c0 41 -21 70 -90 70h-62zM549 783l-94 -59h-79l83 133c32 51 58 91 102 91s72 -34 72 -68c0 -45 -38 -68 -84 -97z" />
    <glyph glyph-name="racute" unicode="&#x155;" horiz-adv-x="533" 
d="M47 0l84 317c15 58 8 65 -2 65c-17 0 -39 -36 -65 -96l-55 20c48 113 104 178 185 178c46 0 82 -32 82 -96c0 -25 -2 -53 -13 -99l8 -3c56 132 101 198 183 198c53 0 94 -41 94 -98c0 -61 -40 -107 -93 -107c-42 0 -84 29 -79 85c-17 -6 -77 -30 -161 -364h-168zM436 595
l-94 -59h-79l83 133c32 51 58 91 102 91s72 -34 72 -68c0 -45 -38 -68 -84 -97z" />
    <glyph glyph-name="Rcaron" unicode="&#x158;" horiz-adv-x="717" 
d="M-32 0l24 96h79l116 466h-79l24 96h345c175 0 235 -70 235 -144c0 -102 -80 -173 -258 -184l-2 -6c110 -13 147 -59 147 -108c0 -32 -12 -72 -12 -95c0 -20 12 -25 22 -25c15 0 27 11 51 60l54 -28c-39 -87 -82 -143 -175 -143c-80 0 -132 39 -132 105c0 44 19 93 19 140
c0 35 -28 55 -87 55h-42l-47 -189h85l-24 -96h-343zM320 376h57c43 0 85 9 113 37c19 19 30 46 30 84c0 41 -21 70 -90 70h-62zM656 927l-177 -203h-98l-79 203h95l55 -83l98 83h106z" />
    <glyph glyph-name="rcaron" unicode="&#x159;" horiz-adv-x="533" 
d="M47 0l84 317c15 58 8 65 -2 65c-17 0 -39 -36 -65 -96l-55 20c48 113 104 178 185 178c46 0 82 -32 82 -96c0 -25 -2 -53 -13 -99l8 -3c56 132 101 198 183 198c53 0 94 -41 94 -98c0 -61 -40 -107 -93 -107c-42 0 -84 29 -79 85c-17 -6 -77 -30 -161 -364h-168zM542 739
l-177 -203h-98l-79 203h95l55 -83l98 83h106z" />
    <glyph glyph-name="Rcommaaccent" unicode="&#x156;" horiz-adv-x="717" 
d="M-32 0l24 96h79l116 466h-79l24 96h345c175 0 235 -70 235 -144c0 -102 -80 -173 -258 -184l-2 -6c110 -13 147 -59 147 -108c0 -32 -12 -72 -12 -95c0 -20 12 -25 22 -25c15 0 27 11 51 60l54 -28c-39 -87 -82 -143 -175 -143c-80 0 -132 39 -132 105c0 44 19 93 19 140
c0 35 -28 55 -87 55h-42l-47 -189h85l-24 -96h-343zM320 376h57c43 0 85 9 113 37c19 19 30 46 30 84c0 41 -21 70 -90 70h-62zM162 -384l-17 57c78 21 129 57 148 99l-7 6c-8 -5 -18 -7 -28 -7c-45 0 -72 31 -72 72c0 52 38 100 96 100c60 0 101 -43 101 -113
c0 -107 -93 -186 -221 -214z" />
    <glyph glyph-name="rcommaaccent" unicode="&#x157;" horiz-adv-x="533" 
d="M47 0l84 317c15 58 8 65 -2 65c-17 0 -39 -36 -65 -96l-55 20c48 113 104 178 185 178c46 0 82 -32 82 -96c0 -25 -2 -53 -13 -99l8 -3c56 132 101 198 183 198c53 0 94 -41 94 -98c0 -61 -40 -107 -93 -107c-42 0 -84 29 -79 85c-17 -6 -77 -30 -161 -364h-168z
M-18 -384l-17 57c78 21 129 57 148 99l-7 6c-8 -5 -18 -7 -28 -7c-45 0 -72 31 -72 72c0 52 38 100 96 100c60 0 101 -43 101 -113c0 -107 -93 -186 -221 -214z" />
    <glyph glyph-name="Sacute" unicode="&#x15a;" horiz-adv-x="628" 
d="M-11 -14l60 256h97c9 -106 85 -166 182 -166c55 0 98 25 98 73c0 49 -64 71 -135 100c-90 36 -192 82 -192 201c0 137 113 224 241 224c77 0 145 -28 186 -79l43 77h95l-58 -246h-98c-8 105 -66 156 -152 156c-54 0 -94 -28 -94 -72c0 -53 67 -77 140 -108
c89 -37 187 -82 187 -193c0 -139 -112 -225 -246 -225c-98 0 -167 31 -214 87l-46 -85h-94zM526 783l-94 -59h-79l83 133c32 51 58 91 102 91s72 -34 72 -68c0 -45 -38 -68 -84 -97z" />
    <glyph glyph-name="sacute" unicode="&#x15b;" horiz-adv-x="487" 
d="M444 147c0 -109 -106 -158 -220 -158c-132 0 -219 53 -219 122c0 49 36 80 80 80c54 0 78 -35 78 -69c0 -18 -6 -39 -22 -57c12 -6 33 -16 70 -16c52 0 74 27 74 59c0 38 -45 57 -88 78c-71 34 -134 67 -134 139c0 105 109 159 219 159c121 0 200 -54 200 -118
c0 -45 -36 -75 -77 -75c-57 0 -81 38 -81 68c0 23 7 40 18 53c-8 5 -26 12 -50 12c-49 0 -74 -28 -74 -57c0 -41 51 -59 113 -91c51 -26 113 -57 113 -129zM423 595l-94 -59h-79l83 133c32 51 58 91 102 91s72 -34 72 -68c0 -45 -38 -68 -84 -97z" />
    <glyph glyph-name="Scaron" unicode="&#x160;" horiz-adv-x="628" 
d="M-11 -14l60 256h97c9 -106 85 -166 182 -166c55 0 98 25 98 73c0 49 -64 71 -135 100c-90 36 -192 82 -192 201c0 137 113 224 241 224c77 0 145 -28 186 -79l43 77h95l-58 -246h-98c-8 105 -66 156 -152 156c-54 0 -94 -28 -94 -72c0 -53 67 -77 140 -108
c89 -37 187 -82 187 -193c0 -139 -112 -225 -246 -225c-98 0 -167 31 -214 87l-46 -85h-94zM633 927l-177 -203h-98l-79 203h95l55 -83l98 83h106z" />
    <glyph glyph-name="scaron" unicode="&#x161;" horiz-adv-x="487" 
d="M444 147c0 -109 -106 -158 -220 -158c-132 0 -219 53 -219 122c0 49 36 80 80 80c54 0 78 -35 78 -69c0 -18 -6 -39 -22 -57c12 -6 33 -16 70 -16c52 0 74 27 74 59c0 38 -45 57 -88 78c-71 34 -134 67 -134 139c0 105 109 159 219 159c121 0 200 -54 200 -118
c0 -45 -36 -75 -77 -75c-57 0 -81 38 -81 68c0 23 7 40 18 53c-8 5 -26 12 -50 12c-49 0 -74 -28 -74 -57c0 -41 51 -59 113 -91c51 -26 113 -57 113 -129zM529 739l-177 -203h-98l-79 203h95l55 -83l98 83h106z" />
    <glyph glyph-name="Scedilla" unicode="&#x15e;" horiz-adv-x="628" 
d="M125 -157c23 -13 60 -27 96 -27c27 0 43 10 43 27c0 21 -31 35 -92 31l-16 47l104 72c-56 12 -99 39 -131 78l-46 -85h-94l60 256h97c9 -106 85 -166 182 -166c55 0 98 25 98 73c0 49 -64 71 -135 100c-90 36 -192 82 -192 201c0 137 113 224 241 224
c77 0 145 -28 186 -79l43 77h95l-58 -246h-98c-8 105 -66 156 -152 156c-54 0 -94 -28 -94 -72c0 -53 67 -77 140 -108c89 -37 187 -82 187 -193c0 -139 -112 -225 -246 -225h-5l-50 -40l1 -4c65 -14 98 -45 98 -87c0 -63 -62 -105 -152 -105c-47 0 -106 15 -147 41z" />
    <glyph glyph-name="scedilla" unicode="&#x15f;" horiz-adv-x="487" 
d="M40 -157c23 -13 60 -27 96 -27c27 0 43 10 43 27c0 21 -31 35 -92 31l-16 47l102 71c-103 11 -168 59 -168 119c0 49 36 80 80 80c54 0 78 -35 78 -69c0 -18 -6 -39 -22 -57c12 -6 33 -16 70 -16c52 0 74 27 74 59c0 38 -45 57 -88 78c-71 34 -134 67 -134 139
c0 105 109 159 219 159c121 0 200 -54 200 -118c0 -45 -36 -75 -77 -75c-57 0 -81 38 -81 68c0 23 7 40 18 53c-8 5 -26 12 -50 12c-49 0 -74 -28 -74 -57c0 -41 51 -59 113 -91c51 -26 113 -57 113 -129c0 -97 -84 -146 -183 -156l-58 -47l1 -4c65 -14 98 -45 98 -87
c0 -63 -62 -105 -152 -105c-47 0 -106 15 -147 41z" />
    <glyph glyph-name="Scommaaccent" unicode="&#x218;" horiz-adv-x="628" 
d="M-11 -14l60 256h97c9 -106 85 -166 182 -166c55 0 98 25 98 73c0 49 -64 71 -135 100c-90 36 -192 82 -192 201c0 137 113 224 241 224c77 0 145 -28 186 -79l43 77h95l-58 -246h-98c-8 105 -66 156 -152 156c-54 0 -94 -28 -94 -72c0 -53 67 -77 140 -108
c89 -37 187 -82 187 -193c0 -139 -112 -225 -246 -225c-98 0 -167 31 -214 87l-46 -85h-94zM115 -384l-17 57c78 21 129 57 148 99l-7 6c-8 -5 -18 -7 -28 -7c-45 0 -72 31 -72 72c0 52 38 100 96 100c60 0 101 -43 101 -113c0 -107 -93 -186 -221 -214z" />
    <glyph glyph-name="scommaaccent" unicode="&#x219;" horiz-adv-x="487" 
d="M444 147c0 -109 -106 -158 -220 -158c-132 0 -219 53 -219 122c0 49 36 80 80 80c54 0 78 -35 78 -69c0 -18 -6 -39 -22 -57c12 -6 33 -16 70 -16c52 0 74 27 74 59c0 38 -45 57 -88 78c-71 34 -134 67 -134 139c0 105 109 159 219 159c121 0 200 -54 200 -118
c0 -45 -36 -75 -77 -75c-57 0 -81 38 -81 68c0 23 7 40 18 53c-8 5 -26 12 -50 12c-49 0 -74 -28 -74 -57c0 -41 51 -59 113 -91c51 -26 113 -57 113 -129zM33 -384l-17 57c78 21 129 57 148 99l-7 6c-8 -5 -18 -7 -28 -7c-45 0 -72 31 -72 72c0 52 38 100 96 100
c60 0 101 -43 101 -113c0 -107 -93 -186 -221 -214z" />
    <glyph glyph-name="Tcaron" unicode="&#x164;" horiz-adv-x="707" 
d="M104 0l24 96h96l120 479h-23c-75 0 -88 -24 -161 -195h-95l70 278h641l-70 -278h-81c3 170 -1 195 -77 195h-15l-120 -479h100l-24 -96h-385zM691 927l-177 -203h-98l-79 203h95l55 -83l98 83h106z" />
    <glyph glyph-name="tcaron" unicode="&#x165;" horiz-adv-x="424" 
d="M432 382h-149l-53 -199c-4 -14 -7 -34 -7 -44c0 -32 19 -41 38 -41c35 0 60 32 84 101l57 -20c-42 -138 -121 -190 -207 -190c-74 0 -140 36 -140 125c0 21 5 54 13 84l50 184h-82l20 78h83l32 116l169 20l-36 -136h148zM502 634l-61 -85h-60l29 163c13 71 37 103 85 103
c34 0 68 -27 68 -65c0 -37 -22 -61 -61 -116z" />
    <glyph glyph-name="Tcommaaccent" unicode="&#x162;" horiz-adv-x="707" 
d="M104 0l24 96h96l120 479h-23c-75 0 -88 -24 -161 -195h-95l70 278h641l-70 -278h-81c3 170 -1 195 -77 195h-15l-120 -479h100l-24 -96h-385zM147 -384l-17 57c78 21 129 57 148 99l-7 6c-8 -5 -18 -7 -28 -7c-45 0 -72 31 -72 72c0 52 38 100 96 100
c60 0 101 -43 101 -113c0 -107 -93 -186 -221 -214z" />
    <glyph glyph-name="tcommaaccent" unicode="&#x163;" horiz-adv-x="424" 
d="M432 382h-149l-53 -199c-4 -14 -7 -34 -7 -44c0 -32 19 -41 38 -41c35 0 60 32 84 101l57 -20c-42 -138 -121 -190 -207 -190c-74 0 -140 36 -140 125c0 21 5 54 13 84l50 184h-82l20 78h83l32 116l169 20l-36 -136h148zM23 -384l-17 57c78 21 129 57 148 99l-7 6
c-8 -5 -18 -7 -28 -7c-45 0 -72 31 -72 72c0 52 38 100 96 100c60 0 101 -43 101 -113c0 -107 -93 -186 -221 -214z" />
    <glyph glyph-name="Thorn" unicode="&#xde;" horiz-adv-x="688" 
d="M-29 0l24 96h76l116 466h-76l24 96h338l-24 -96h-82l-12 -46h40c215 0 287 -56 287 -159c0 -98 -77 -211 -321 -211h-98l-12 -50h82l-24 -96h-338zM371 424h-39l-46 -186h62c113 0 137 71 137 117c0 54 -39 69 -114 69z" />
    <glyph glyph-name="thorn" unicode="&#xfe;" horiz-adv-x="572" 
d="M331 380c-66 0 -114 -134 -114 -234c0 -43 16 -70 48 -70c66 0 114 152 114 232c0 51 -20 72 -48 72zM348 692l-100 -316l9 -3c34 66 88 111 149 111c101 0 147 -69 147 -172c0 -130 -85 -312 -233 -312c-57 0 -103 26 -127 82l-40 -155h80l-24 -91h-310l24 91h62
l171 674h-66l23 91h235z" />
    <glyph glyph-name="Uacute" unicode="&#xda;" horiz-adv-x="727" 
d="M328 -16c-159 0 -241 82 -241 184c0 28 9 70 16 99l74 295h-79l24 96h344l-24 -96h-84l-77 -306c-7 -29 -11 -51 -11 -71c0 -67 52 -89 107 -89c42 0 76 12 104 40c26 26 43 61 56 111l79 315h-78l24 96h254l-24 -96h-75l-84 -336c-16 -65 -43 -121 -85 -163
c-50 -50 -120 -79 -220 -79zM659 783l-94 -59h-79l83 133c32 51 58 91 102 91s72 -34 72 -68c0 -45 -38 -68 -84 -97z" />
    <glyph glyph-name="uacute" unicode="&#xfa;" horiz-adv-x="674" 
d="M493 -11c-61 0 -102 33 -102 99c0 26 5 54 22 119l-8 3c-74 -168 -145 -221 -225 -221c-61 0 -109 36 -109 103c0 92 74 226 74 271c0 15 -8 19 -16 19c-14 0 -31 -14 -65 -96l-55 20c40 111 103 178 187 178c69 0 108 -40 108 -96c0 -81 -64 -194 -64 -248
c0 -22 11 -33 30 -33c35 0 101 29 185 366h168l-82 -317c-5 -19 -7 -31 -7 -41c0 -18 10 -24 19 -24c18 0 37 17 63 95l55 -20c-37 -115 -96 -177 -178 -177zM493 595l-94 -59h-79l83 133c32 51 58 91 102 91s72 -34 72 -68c0 -45 -38 -68 -84 -97z" />
    <glyph glyph-name="Ubreve" unicode="&#x16c;" horiz-adv-x="727" 
d="M328 -16c-159 0 -241 82 -241 184c0 28 9 70 16 99l74 295h-79l24 96h344l-24 -96h-84l-77 -306c-7 -29 -11 -51 -11 -71c0 -67 52 -89 107 -89c42 0 76 12 104 40c26 26 43 61 56 111l79 315h-78l24 96h254l-24 -96h-75l-84 -336c-16 -65 -43 -121 -85 -163
c-50 -50 -120 -79 -220 -79zM554 718c-95 0 -158 60 -127 195h79c-7 -62 26 -84 66 -84c46 0 82 27 99 84h83c-25 -134 -98 -195 -200 -195z" />
    <glyph glyph-name="ubreve" unicode="&#x16d;" horiz-adv-x="674" 
d="M493 -11c-61 0 -102 33 -102 99c0 26 5 54 22 119l-8 3c-74 -168 -145 -221 -225 -221c-61 0 -109 36 -109 103c0 92 74 226 74 271c0 15 -8 19 -16 19c-14 0 -31 -14 -65 -96l-55 20c40 111 103 178 187 178c69 0 108 -40 108 -96c0 -81 -64 -194 -64 -248
c0 -22 11 -33 30 -33c35 0 101 29 185 366h168l-82 -317c-5 -19 -7 -31 -7 -41c0 -18 10 -24 19 -24c18 0 37 17 63 95l55 -20c-37 -115 -96 -177 -178 -177zM385 520c-95 0 -158 60 -127 195h79c-7 -62 26 -84 66 -84c46 0 82 27 99 84h83c-25 -134 -98 -195 -200 -195z
" />
    <glyph glyph-name="Ucircumflex" unicode="&#xdb;" horiz-adv-x="727" 
d="M328 -16c-159 0 -241 82 -241 184c0 28 9 70 16 99l74 295h-79l24 96h344l-24 -96h-84l-77 -306c-7 -29 -11 -51 -11 -71c0 -67 52 -89 107 -89c42 0 76 12 104 40c26 26 43 61 56 111l79 315h-78l24 96h254l-24 -96h-75l-84 -336c-16 -65 -43 -121 -85 -163
c-50 -50 -120 -79 -220 -79zM365 724l177 203h98l79 -203h-95l-55 83l-98 -83h-106z" />
    <glyph glyph-name="ucircumflex" unicode="&#xfb;" horiz-adv-x="674" 
d="M493 -11c-61 0 -102 33 -102 99c0 26 5 54 22 119l-8 3c-74 -168 -145 -221 -225 -221c-61 0 -109 36 -109 103c0 92 74 226 74 271c0 15 -8 19 -16 19c-14 0 -31 -14 -65 -96l-55 20c40 111 103 178 187 178c69 0 108 -40 108 -96c0 -81 -64 -194 -64 -248
c0 -22 11 -33 30 -33c35 0 101 29 185 366h168l-82 -317c-5 -19 -7 -31 -7 -41c0 -18 10 -24 19 -24c18 0 37 17 63 95l55 -20c-37 -115 -96 -177 -178 -177zM198 536l177 203h98l79 -203h-95l-55 83l-98 -83h-106z" />
    <glyph glyph-name="Udieresis" unicode="&#xdc;" horiz-adv-x="727" 
d="M328 -16c-159 0 -241 82 -241 184c0 28 9 70 16 99l74 295h-79l24 96h344l-24 -96h-84l-77 -306c-7 -29 -11 -51 -11 -71c0 -67 52 -89 107 -89c42 0 76 12 104 40c26 26 43 61 56 111l79 315h-78l24 96h254l-24 -96h-75l-84 -336c-16 -65 -43 -121 -85 -163
c-50 -50 -120 -79 -220 -79zM551 810c0 -42 -32 -92 -90 -92c-42 0 -73 29 -73 75c0 42 32 92 90 92c42 0 73 -29 73 -75zM753 810c0 -42 -32 -92 -90 -92c-42 0 -73 29 -73 75c0 42 32 92 90 92c42 0 73 -29 73 -75z" />
    <glyph glyph-name="udieresis" unicode="&#xfc;" horiz-adv-x="674" 
d="M493 -11c-61 0 -102 33 -102 99c0 26 5 54 22 119l-8 3c-74 -168 -145 -221 -225 -221c-61 0 -109 36 -109 103c0 92 74 226 74 271c0 15 -8 19 -16 19c-14 0 -31 -14 -65 -96l-55 20c40 111 103 178 187 178c69 0 108 -40 108 -96c0 -81 -64 -194 -64 -248
c0 -22 11 -33 30 -33c35 0 101 29 185 366h168l-82 -317c-5 -19 -7 -31 -7 -41c0 -18 10 -24 19 -24c18 0 37 17 63 95l55 -20c-37 -115 -96 -177 -178 -177zM384 622c0 -42 -32 -92 -90 -92c-42 0 -73 29 -73 75c0 42 32 92 90 92c42 0 73 -29 73 -75zM586 622
c0 -42 -32 -92 -90 -92c-42 0 -73 29 -73 75c0 42 32 92 90 92c42 0 73 -29 73 -75z" />
    <glyph glyph-name="Ugrave" unicode="&#xd9;" horiz-adv-x="727" 
d="M328 -16c-159 0 -241 82 -241 184c0 28 9 70 16 99l74 295h-79l24 96h344l-24 -96h-84l-77 -306c-7 -29 -11 -51 -11 -71c0 -67 52 -89 107 -89c42 0 76 12 104 40c26 26 43 61 56 111l79 315h-78l24 96h254l-24 -96h-75l-84 -336c-16 -65 -43 -121 -85 -163
c-50 -50 -120 -79 -220 -79zM557 836l29 -112h-70l-58 58c-42 42 -57 69 -57 98c0 32 26 69 73 69c54 0 67 -51 83 -113z" />
    <glyph glyph-name="ugrave" unicode="&#xf9;" horiz-adv-x="674" 
d="M493 -11c-61 0 -102 33 -102 99c0 26 5 54 22 119l-8 3c-74 -168 -145 -221 -225 -221c-61 0 -109 36 -109 103c0 92 74 226 74 271c0 15 -8 19 -16 19c-14 0 -31 -14 -65 -96l-55 20c40 111 103 178 187 178c69 0 108 -40 108 -96c0 -81 -64 -194 -64 -248
c0 -22 11 -33 30 -33c35 0 101 29 185 366h168l-82 -317c-5 -19 -7 -31 -7 -41c0 -18 10 -24 19 -24c18 0 37 17 63 95l55 -20c-37 -115 -96 -177 -178 -177zM391 648l29 -112h-70l-58 58c-42 42 -57 69 -57 98c0 32 26 69 73 69c54 0 67 -51 83 -113z" />
    <glyph glyph-name="Uhungarumlaut" unicode="&#x170;" horiz-adv-x="727" 
d="M328 -16c-159 0 -241 82 -241 184c0 28 9 70 16 99l74 295h-79l24 96h344l-24 -96h-84l-77 -306c-7 -29 -11 -51 -11 -71c0 -67 52 -89 107 -89c42 0 76 12 104 40c26 26 43 61 56 111l79 315h-78l24 96h254l-24 -96h-75l-84 -336c-16 -65 -43 -121 -85 -163
c-50 -50 -120 -79 -220 -79zM541 783l-82 -59h-77l69 133c28 53 53 91 94 91c43 0 71 -33 71 -67c0 -45 -33 -68 -75 -98zM742 783l-82 -59h-79l71 133c28 53 53 91 94 91c43 0 71 -33 71 -67c0 -45 -33 -68 -75 -98z" />
    <glyph glyph-name="uhungarumlaut" unicode="&#x171;" horiz-adv-x="674" 
d="M493 -11c-61 0 -102 33 -102 99c0 26 5 54 22 119l-8 3c-74 -168 -145 -221 -225 -221c-61 0 -109 36 -109 103c0 92 74 226 74 271c0 15 -8 19 -16 19c-14 0 -31 -14 -65 -96l-55 20c40 111 103 178 187 178c69 0 108 -40 108 -96c0 -81 -64 -194 -64 -248
c0 -22 11 -33 30 -33c35 0 101 29 185 366h168l-82 -317c-5 -19 -7 -31 -7 -41c0 -18 10 -24 19 -24c18 0 37 17 63 95l55 -20c-37 -115 -96 -177 -178 -177zM375 595l-82 -59h-77l69 133c28 53 53 91 94 91c43 0 71 -33 71 -67c0 -45 -33 -68 -75 -98zM576 595l-82 -59h-79
l71 133c28 53 53 91 94 91c43 0 71 -33 71 -67c0 -45 -33 -68 -75 -98z" />
    <glyph glyph-name="Umacron" unicode="&#x16a;" horiz-adv-x="727" 
d="M328 -16c-159 0 -241 82 -241 184c0 28 9 70 16 99l74 295h-79l24 96h344l-24 -96h-84l-77 -306c-7 -29 -11 -51 -11 -71c0 -67 52 -89 107 -89c42 0 76 12 104 40c26 26 43 61 56 111l79 315h-78l24 96h254l-24 -96h-75l-84 -336c-16 -65 -43 -121 -85 -163
c-50 -50 -120 -79 -220 -79zM392 724l27 107h319l-27 -107h-319z" />
    <glyph glyph-name="umacron" unicode="&#x16b;" horiz-adv-x="674" 
d="M493 -11c-61 0 -102 33 -102 99c0 26 5 54 22 119l-8 3c-74 -168 -145 -221 -225 -221c-61 0 -109 36 -109 103c0 92 74 226 74 271c0 15 -8 19 -16 19c-14 0 -31 -14 -65 -96l-55 20c40 111 103 178 187 178c69 0 108 -40 108 -96c0 -81 -64 -194 -64 -248
c0 -22 11 -33 30 -33c35 0 101 29 185 366h168l-82 -317c-5 -19 -7 -31 -7 -41c0 -18 10 -24 19 -24c18 0 37 17 63 95l55 -20c-37 -115 -96 -177 -178 -177zM225 536l27 107h319l-27 -107h-319z" />
    <glyph glyph-name="Uogonek" unicode="&#x172;" horiz-adv-x="727" 
d="M422 -215c-34 -21 -78 -38 -127 -38c-68 0 -132 28 -132 100c0 58 47 101 117 140c-128 14 -193 90 -193 181c0 28 9 70 16 99l74 295h-79l24 96h344l-24 -96h-84l-77 -306c-7 -29 -11 -51 -11 -71c0 -67 52 -89 107 -89c42 0 76 12 104 40c26 26 43 61 56 111l79 315
h-78l24 96h254l-24 -96h-75l-84 -336c-16 -65 -43 -121 -85 -163c-39 -39 -89 -64 -156 -74l-1 -1c-72 -51 -99 -82 -99 -116c0 -22 14 -45 50 -45c19 0 37 4 60 17z" />
    <glyph glyph-name="uogonek" unicode="&#x173;" horiz-adv-x="674" 
d="M616 186l55 -20c-23 -67 -47 -122 -122 -174c-78 -53 -104 -86 -104 -120c0 -22 14 -45 50 -45c19 0 37 4 60 17l20 -59c-34 -21 -78 -38 -127 -38c-68 0 -132 28 -132 100c0 63 54 107 134 149c-38 13 -59 45 -59 92c0 26 5 54 22 119l-8 3
c-74 -168 -145 -221 -225 -221c-61 0 -109 36 -109 103c0 92 74 226 74 271c0 15 -8 19 -16 19c-14 0 -31 -14 -65 -96l-55 20c40 111 103 178 187 178c69 0 108 -40 108 -96c0 -81 -64 -194 -64 -248c0 -22 11 -33 30 -33c35 0 101 29 185 366h168l-82 -317
c-5 -19 -7 -31 -7 -41c0 -18 10 -24 19 -24c18 0 37 17 63 95z" />
    <glyph glyph-name="Uring" unicode="&#x16e;" horiz-adv-x="727" 
d="M328 -16c-159 0 -241 82 -241 184c0 28 9 70 16 99l74 295h-79l24 96h344l-24 -96h-84l-77 -306c-7 -29 -11 -51 -11 -71c0 -67 52 -89 107 -89c42 0 76 12 104 40c26 26 43 61 56 111l79 315h-78l24 96h254l-24 -96h-75l-84 -336c-16 -65 -43 -121 -85 -163
c-50 -50 -120 -79 -220 -79zM718 850c0 -69 -55 -132 -144 -132c-80 0 -129 51 -129 112c0 69 55 132 144 132c80 0 129 -51 129 -112zM532 825c0 -24 11 -50 43 -50c29 0 56 30 56 80c0 24 -11 50 -43 50c-29 0 -56 -30 -56 -80z" />
    <glyph glyph-name="uring" unicode="&#x16f;" horiz-adv-x="674" 
d="M493 -11c-61 0 -102 33 -102 99c0 26 5 54 22 119l-8 3c-74 -168 -145 -221 -225 -221c-61 0 -109 36 -109 103c0 92 74 226 74 271c0 15 -8 19 -16 19c-14 0 -31 -14 -65 -96l-55 20c40 111 103 178 187 178c69 0 108 -40 108 -96c0 -81 -64 -194 -64 -248
c0 -22 11 -33 30 -33c35 0 101 29 185 366h168l-82 -317c-5 -19 -7 -31 -7 -41c0 -18 10 -24 19 -24c18 0 37 17 63 95l55 -20c-37 -115 -96 -177 -178 -177zM552 662c0 -69 -55 -132 -144 -132c-80 0 -129 51 -129 112c0 69 55 132 144 132c80 0 129 -51 129 -112zM366 637
c0 -24 11 -50 43 -50c29 0 56 30 56 80c0 24 -11 50 -43 50c-29 0 -56 -30 -56 -80z" />
    <glyph glyph-name="Wacute" unicode="&#x1e82;" horiz-adv-x="1054" 
d="M597 -4l-25 342l-201 -342h-160l-34 566h-86l24 96h322l-23 -94h-58l16 -393h7l183 306l-6 87h-70l23 94h308l-23 -94h-65l21 -393h7l196 393h-88l23 94h263l-24 -96h-67l-297 -566h-166zM777 783l-94 -59h-79l83 133c32 51 58 91 102 91s72 -34 72 -68
c0 -45 -38 -68 -84 -97z" />
    <glyph glyph-name="wacute" unicode="&#x1e83;" horiz-adv-x="823" 
d="M199 484c65 0 102 -39 102 -91c0 -97 -84 -203 -84 -261c0 -19 9 -37 34 -37c54 0 107 76 175 378h151l-27 -113c-18 -76 -28 -138 -28 -188c0 -61 26 -75 57 -75c93 0 153 163 146 232c-8 -6 -22 -11 -42 -11c-40 0 -74 30 -74 77c0 48 38 92 91 92
c57 0 107 -39 107 -139c0 -141 -99 -359 -276 -359c-76 0 -140 37 -140 151v2l-6 2c-35 -77 -92 -155 -188 -155c-80 0 -142 54 -142 138c0 98 91 181 91 238c0 13 -8 17 -15 17c-23 0 -43 -34 -73 -96l-55 20c51 113 110 178 196 178zM587 595l-94 -59h-79l83 133
c32 51 58 91 102 91s72 -34 72 -68c0 -45 -38 -68 -84 -97z" />
    <glyph glyph-name="Wcircumflex" unicode="&#x174;" horiz-adv-x="1054" 
d="M597 -4l-25 342l-201 -342h-160l-34 566h-86l24 96h322l-23 -94h-58l16 -393h7l183 306l-6 87h-70l23 94h308l-23 -94h-65l21 -393h7l196 393h-88l23 94h263l-24 -96h-67l-297 -566h-166zM482 724l177 203h98l79 -203h-95l-55 83l-98 -83h-106z" />
    <glyph glyph-name="wcircumflex" unicode="&#x175;" horiz-adv-x="823" 
d="M199 484c65 0 102 -39 102 -91c0 -97 -84 -203 -84 -261c0 -19 9 -37 34 -37c54 0 107 76 175 378h151l-27 -113c-18 -76 -28 -138 -28 -188c0 -61 26 -75 57 -75c93 0 153 163 146 232c-8 -6 -22 -11 -42 -11c-40 0 -74 30 -74 77c0 48 38 92 91 92
c57 0 107 -39 107 -139c0 -141 -99 -359 -276 -359c-76 0 -140 37 -140 151v2l-6 2c-35 -77 -92 -155 -188 -155c-80 0 -142 54 -142 138c0 98 91 181 91 238c0 13 -8 17 -15 17c-23 0 -43 -34 -73 -96l-55 20c51 113 110 178 196 178zM292 536l177 203h98l79 -203h-95
l-55 83l-98 -83h-106z" />
    <glyph glyph-name="Wdieresis" unicode="&#x1e84;" horiz-adv-x="1054" 
d="M597 -4l-25 342l-201 -342h-160l-34 566h-86l24 96h322l-23 -94h-58l16 -393h7l183 306l-6 87h-70l23 94h308l-23 -94h-65l21 -393h7l196 393h-88l23 94h263l-24 -96h-67l-297 -566h-166zM668 810c0 -42 -32 -92 -90 -92c-42 0 -73 29 -73 75c0 42 32 92 90 92
c42 0 73 -29 73 -75zM870 810c0 -42 -32 -92 -90 -92c-42 0 -73 29 -73 75c0 42 32 92 90 92c42 0 73 -29 73 -75z" />
    <glyph glyph-name="wdieresis" unicode="&#x1e85;" horiz-adv-x="823" 
d="M199 484c65 0 102 -39 102 -91c0 -97 -84 -203 -84 -261c0 -19 9 -37 34 -37c54 0 107 76 175 378h151l-27 -113c-18 -76 -28 -138 -28 -188c0 -61 26 -75 57 -75c93 0 153 163 146 232c-8 -6 -22 -11 -42 -11c-40 0 -74 30 -74 77c0 48 38 92 91 92
c57 0 107 -39 107 -139c0 -141 -99 -359 -276 -359c-76 0 -140 37 -140 151v2l-6 2c-35 -77 -92 -155 -188 -155c-80 0 -142 54 -142 138c0 98 91 181 91 238c0 13 -8 17 -15 17c-23 0 -43 -34 -73 -96l-55 20c51 113 110 178 196 178zM680 622c0 -42 -32 -92 -90 -92
c-42 0 -73 29 -73 75c0 42 32 92 90 92c42 0 73 -29 73 -75zM478 622c0 -42 -32 -92 -90 -92c-42 0 -73 29 -73 75c0 42 32 92 90 92c42 0 73 -29 73 -75z" />
    <glyph glyph-name="Wgrave" unicode="&#x1e80;" horiz-adv-x="1054" 
d="M597 -4l-25 342l-201 -342h-160l-34 566h-86l24 96h322l-23 -94h-58l16 -393h7l183 306l-6 87h-70l23 94h308l-23 -94h-65l21 -393h7l196 393h-88l23 94h263l-24 -96h-67l-297 -566h-166zM675 836l29 -112h-70l-58 58c-42 42 -57 69 -57 98c0 32 26 69 73 69
c54 0 67 -51 83 -113z" />
    <glyph glyph-name="wgrave" unicode="&#x1e81;" horiz-adv-x="823" 
d="M199 484c65 0 102 -39 102 -91c0 -97 -84 -203 -84 -261c0 -19 9 -37 34 -37c54 0 107 76 175 378h151l-27 -113c-18 -76 -28 -138 -28 -188c0 -61 26 -75 57 -75c93 0 153 163 146 232c-8 -6 -22 -11 -42 -11c-40 0 -74 30 -74 77c0 48 38 92 91 92
c57 0 107 -39 107 -139c0 -141 -99 -359 -276 -359c-76 0 -140 37 -140 151v2l-6 2c-35 -77 -92 -155 -188 -155c-80 0 -142 54 -142 138c0 98 91 181 91 238c0 13 -8 17 -15 17c-23 0 -43 -34 -73 -96l-55 20c51 113 110 178 196 178zM485 648l29 -112h-70l-58 58
c-42 42 -57 69 -57 98c0 32 26 69 73 69c54 0 67 -51 83 -113z" />
    <glyph glyph-name="Yacute" unicode="&#xdd;" horiz-adv-x="665" 
d="M414 364l161 200h-79l24 94h260l-24 -96h-65l-249 -291l-44 -175h84l-24 -96h-348l24 96h84l43 172l-109 294h-75l24 96h344l-24 -94h-74zM576 783l-94 -59h-79l83 133c32 51 58 91 102 91s72 -34 72 -68c0 -45 -38 -68 -84 -97z" />
    <glyph glyph-name="yacute" unicode="&#xfd;" horiz-adv-x="596" 
d="M199 484c63 0 100 -40 100 -92c0 -77 -57 -180 -57 -226c0 -20 13 -29 30 -29c34 0 93 19 174 336h154l-103 -431c-44 -185 -170 -219 -284 -219c-49 0 -189 9 -189 109c0 40 29 79 81 79c51 0 78 -35 78 -71c0 -27 -15 -46 -27 -55c8 -3 18 -6 40 -6
c77 0 113 47 140 150l34 126l-6 3c-58 -106 -115 -131 -176 -131c-73 0 -110 45 -110 101c0 79 68 182 68 237c0 13 -8 17 -15 17c-23 0 -43 -34 -73 -96l-55 20c51 113 110 178 196 178zM479 595l-94 -59h-79l83 133c32 51 58 91 102 91s72 -34 72 -68
c0 -45 -38 -68 -84 -97z" />
    <glyph glyph-name="Ycircumflex" unicode="&#x176;" horiz-adv-x="665" 
d="M414 364l161 200h-79l24 94h260l-24 -96h-65l-249 -291l-44 -175h84l-24 -96h-348l24 96h84l43 172l-109 294h-75l24 96h344l-24 -94h-74zM282 724l177 203h98l79 -203h-95l-55 83l-98 -83h-106z" />
    <glyph glyph-name="ycircumflex" unicode="&#x177;" horiz-adv-x="596" 
d="M199 484c63 0 100 -40 100 -92c0 -77 -57 -180 -57 -226c0 -20 13 -29 30 -29c34 0 93 19 174 336h154l-103 -431c-44 -185 -170 -219 -284 -219c-49 0 -189 9 -189 109c0 40 29 79 81 79c51 0 78 -35 78 -71c0 -27 -15 -46 -27 -55c8 -3 18 -6 40 -6
c77 0 113 47 140 150l34 126l-6 3c-58 -106 -115 -131 -176 -131c-73 0 -110 45 -110 101c0 79 68 182 68 237c0 13 -8 17 -15 17c-23 0 -43 -34 -73 -96l-55 20c51 113 110 178 196 178zM184 536l177 203h98l79 -203h-95l-55 83l-98 -83h-106z" />
    <glyph glyph-name="Ydieresis" unicode="&#x178;" horiz-adv-x="665" 
d="M414 364l161 200h-79l24 94h260l-24 -96h-65l-249 -291l-44 -175h84l-24 -96h-348l24 96h84l43 172l-109 294h-75l24 96h344l-24 -94h-74zM468 810c0 -42 -32 -92 -90 -92c-42 0 -73 29 -73 75c0 42 32 92 90 92c42 0 73 -29 73 -75zM670 810c0 -42 -32 -92 -90 -92
c-42 0 -73 29 -73 75c0 42 32 92 90 92c42 0 73 -29 73 -75z" />
    <glyph glyph-name="ydieresis" unicode="&#xff;" horiz-adv-x="596" 
d="M199 484c63 0 100 -40 100 -92c0 -77 -57 -180 -57 -226c0 -20 13 -29 30 -29c34 0 93 19 174 336h154l-103 -431c-44 -185 -170 -219 -284 -219c-49 0 -189 9 -189 109c0 40 29 79 81 79c51 0 78 -35 78 -71c0 -27 -15 -46 -27 -55c8 -3 18 -6 40 -6
c77 0 113 47 140 150l34 126l-6 3c-58 -106 -115 -131 -176 -131c-73 0 -110 45 -110 101c0 79 68 182 68 237c0 13 -8 17 -15 17c-23 0 -43 -34 -73 -96l-55 20c51 113 110 178 196 178zM370 622c0 -42 -32 -92 -90 -92c-42 0 -73 29 -73 75c0 42 32 92 90 92
c42 0 73 -29 73 -75zM572 622c0 -42 -32 -92 -90 -92c-42 0 -73 29 -73 75c0 42 32 92 90 92c42 0 73 -29 73 -75z" />
    <glyph glyph-name="Ygrave" unicode="&#x1ef2;" horiz-adv-x="665" 
d="M414 364l161 200h-79l24 94h260l-24 -96h-65l-249 -291l-44 -175h84l-24 -96h-348l24 96h84l43 172l-109 294h-75l24 96h344l-24 -94h-74zM474 836l29 -112h-70l-58 58c-42 42 -57 69 -57 98c0 32 26 69 73 69c54 0 67 -51 83 -113z" />
    <glyph glyph-name="ygrave" unicode="&#x1ef3;" horiz-adv-x="596" 
d="M199 484c63 0 100 -40 100 -92c0 -77 -57 -180 -57 -226c0 -20 13 -29 30 -29c34 0 93 19 174 336h154l-103 -431c-44 -185 -170 -219 -284 -219c-49 0 -189 9 -189 109c0 40 29 79 81 79c51 0 78 -35 78 -71c0 -27 -15 -46 -27 -55c8 -3 18 -6 40 -6
c77 0 113 47 140 150l34 126l-6 3c-58 -106 -115 -131 -176 -131c-73 0 -110 45 -110 101c0 79 68 182 68 237c0 13 -8 17 -15 17c-23 0 -43 -34 -73 -96l-55 20c51 113 110 178 196 178zM377 648l29 -112h-70l-58 58c-42 42 -57 69 -57 98c0 32 26 69 73 69
c54 0 67 -51 83 -113z" />
    <glyph glyph-name="Zacute" unicode="&#x179;" horiz-adv-x="650" 
d="M-30 0l23 91l476 474h-117c-78 0 -100 -21 -180 -180h-88l69 273h562l-23 -91l-479 -474h140c78 0 100 21 183 190h88l-71 -283h-583zM556 783l-94 -59h-79l83 133c32 51 58 91 102 91s72 -34 72 -68c0 -45 -38 -68 -84 -97z" />
    <glyph glyph-name="zacute" unicode="&#x17a;" horiz-adv-x="530" 
d="M202 159c74 -4 125 -21 164 -21c37 0 56 12 86 83l54 -15c-40 -146 -78 -217 -172 -217c-57 0 -114 28 -152 84l-22 32l-9 -2c-15 -88 -57 -114 -89 -114c-44 0 -77 35 -77 76c0 46 43 82 144 96c66 77 121 115 201 153c-74 4 -115 21 -152 21c-36 0 -62 -12 -92 -83
l-54 15c40 146 81 217 179 217c49 0 101 -28 139 -84l22 -32l9 2c15 88 57 114 89 114c44 0 77 -35 77 -76c0 -46 -43 -82 -144 -96c-66 -77 -121 -115 -201 -153zM449 595l-94 -59h-79l83 133c32 51 58 91 102 91s72 -34 72 -68c0 -45 -38 -68 -84 -97z" />
    <glyph glyph-name="Zcaron" unicode="&#x17d;" horiz-adv-x="650" 
d="M-30 0l23 91l476 474h-117c-78 0 -100 -21 -180 -180h-88l69 273h562l-23 -91l-479 -474h140c78 0 100 21 183 190h88l-71 -283h-583zM663 927l-177 -203h-98l-79 203h95l55 -83l98 83h106z" />
    <glyph glyph-name="zcaron" unicode="&#x17e;" horiz-adv-x="530" 
d="M202 159c74 -4 125 -21 164 -21c37 0 56 12 86 83l54 -15c-40 -146 -78 -217 -172 -217c-57 0 -114 28 -152 84l-22 32l-9 -2c-15 -88 -57 -114 -89 -114c-44 0 -77 35 -77 76c0 46 43 82 144 96c66 77 121 115 201 153c-74 4 -115 21 -152 21c-36 0 -62 -12 -92 -83
l-54 15c40 146 81 217 179 217c49 0 101 -28 139 -84l22 -32l9 2c15 88 57 114 89 114c44 0 77 -35 77 -76c0 -46 -43 -82 -144 -96c-66 -77 -121 -115 -201 -153zM555 739l-177 -203h-98l-79 203h95l55 -83l98 83h106z" />
    <glyph glyph-name="Zdotaccent" unicode="&#x17b;" horiz-adv-x="650" 
d="M-30 0l23 91l476 474h-117c-78 0 -100 -21 -180 -180h-88l69 273h562l-23 -91l-479 -474h140c78 0 100 21 183 190h88l-71 -283h-583zM559 813c0 -44 -35 -96 -100 -96c-47 0 -81 30 -81 79c0 44 35 96 100 96c47 0 81 -30 81 -79z" />
    <glyph glyph-name="zdotaccent" unicode="&#x17c;" horiz-adv-x="530" 
d="M202 159c74 -4 125 -21 164 -21c37 0 56 12 86 83l54 -15c-40 -146 -78 -217 -172 -217c-57 0 -114 28 -152 84l-22 32l-9 -2c-15 -88 -57 -114 -89 -114c-44 0 -77 35 -77 76c0 46 43 82 144 96c66 77 121 115 201 153c-74 4 -115 21 -152 21c-36 0 -62 -12 -92 -83
l-54 15c40 146 81 217 179 217c49 0 101 -28 139 -84l22 -32l9 2c15 88 57 114 89 114c44 0 77 -35 77 -76c0 -46 -43 -82 -144 -96c-66 -77 -121 -115 -201 -153zM452 625c0 -44 -35 -96 -100 -96c-47 0 -81 30 -81 79c0 44 35 96 100 96c47 0 81 -30 81 -79z" />
    <glyph glyph-name="schwa" unicode="&#x259;" horiz-adv-x="509" 
d="M10 112c0 92 90 165 309 168c-1 91 -51 116 -98 116c-41 0 -83 -18 -131 -72l-45 42c55 64 123 118 233 118c129 0 211 -73 211 -191c0 -157 -128 -304 -310 -304c-108 0 -169 51 -169 123zM200 57c55 0 99 86 114 168c-122 -5 -153 -68 -153 -116c0 -33 15 -52 39 -52z
" />
    <glyph glyph-name="germandbls" unicode="&#xdf;" horiz-adv-x="652" 
d="M476 377c0 -25 30 -46 63 -71c40 -30 91 -72 91 -143c0 -95 -80 -174 -202 -174c-115 0 -161 50 -161 100c0 44 29 79 78 79c40 0 68 -27 68 -67c0 -23 -10 -40 -23 -54c7 -5 17 -9 34 -9c37 0 65 32 65 73c0 39 -35 67 -72 96c-39 31 -78 61 -78 108c0 44 19 64 84 114
c44 34 78 63 78 131c0 48 -27 79 -73 79c-68 0 -100 -56 -123 -164l-86 -408c-38 -179 -134 -246 -245 -246c-73 0 -119 41 -119 93c0 42 28 81 76 81c31 0 61 -22 61 -67c0 -25 -12 -46 -17 -53c35 0 48 19 61 87l83 420h-85l20 78h80c37 160 130 239 292 239
c143 0 227 -57 227 -132c0 -71 -57 -98 -108 -123c-52 -25 -69 -39 -69 -67z" />
    <glyph glyph-name="zero" unicode="0" horiz-adv-x="614" 
d="M285 -16c-150 0 -236 98 -236 270c0 157 102 396 320 396c149 0 235 -98 235 -270c0 -157 -102 -396 -319 -396zM372 567c-106 0 -153 -312 -153 -401c0 -86 33 -99 62 -99c106 0 153 312 153 401c0 86 -33 99 -62 99z" />
    <glyph glyph-name="one" unicode="1" horiz-adv-x="478" 
d="M-20 0l23 91h129l96 388c-12 -3 -31 -5 -52 -5c-30 0 -61 5 -85 12l19 78c98 -4 172 24 222 79h107l-137 -552h125l-23 -91h-424z" />
    <glyph glyph-name="two" unicode="2" horiz-adv-x="592" 
d="M226 532c26 -13 43 -40 43 -72c0 -51 -37 -90 -89 -90c-55 0 -91 38 -91 95c0 98 101 185 250 185c166 0 248 -83 248 -175c0 -150 -122 -191 -260 -220c-127 -27 -188 -63 -218 -118l4 -5c31 23 71 37 117 37c84 0 120 -25 176 -25c36 0 55 21 74 72l62 -13
c-33 -157 -81 -219 -166 -219c-115 0 -137 109 -208 109c-7 0 -15 0 -29 -3c8 -14 10 -26 10 -36c0 -44 -31 -71 -71 -71c-31 0 -73 24 -73 90c0 111 113 184 229 241c102 50 169 93 169 175c0 51 -27 86 -84 86c-35 0 -73 -15 -93 -43z" />
    <glyph glyph-name="three" unicode="3" horiz-adv-x="568" 
d="M132 93c12 -17 47 -34 95 -34c79 0 110 58 110 135c0 59 -34 83 -134 83h-17l22 87h29c51 0 88 14 111 37c25 25 38 60 38 98c0 51 -27 77 -83 77c-33 0 -59 -9 -68 -16c16 -15 28 -39 28 -66c0 -45 -32 -82 -84 -82c-55 0 -93 36 -93 83c0 91 104 156 245 156
c164 0 239 -72 239 -158c0 -97 -70 -160 -216 -172l-1 -4c121 -19 168 -67 168 -143c0 -100 -91 -190 -269 -190c-157 0 -244 72 -244 164c0 61 44 107 101 107s81 -40 81 -78c0 -39 -23 -72 -58 -84z" />
    <glyph glyph-name="four" unicode="4" horiz-adv-x="593" 
d="M320 273l62 251h-6l-247 -251h191zM431 94h89l-24 -94h-343l24 94h99l21 85h-295l21 93l377 373h168l-93 -372h116l-23 -94h-116z" />
    <glyph glyph-name="five" unicode="5" horiz-adv-x="558" 
d="M219 496l-48 -145c43 30 96 51 156 51c133 0 195 -78 195 -171c0 -120 -96 -247 -277 -247c-140 0 -232 71 -232 154c0 55 36 99 97 99c50 0 78 -34 78 -74c0 -32 -22 -59 -48 -72c12 -15 39 -32 78 -32c93 0 122 96 122 161c0 78 -58 89 -94 89c-50 0 -83 -19 -107 -36
l-68 23l102 325l38 26c58 -22 138 -32 202 -32c70 0 107 11 158 33l25 -52c-62 -89 -132 -128 -230 -128c-61 0 -110 12 -147 28z" />
    <glyph glyph-name="six" unicode="6" horiz-adv-x="581" 
d="M276 58c62 0 96 82 96 169c0 71 -28 94 -62 94c-63 0 -101 -74 -101 -167c0 -59 26 -96 67 -96zM596 511c0 -49 -29 -98 -94 -98c-52 0 -83 35 -83 76c0 30 13 55 36 72c-9 8 -23 17 -53 17c-90 0 -143 -92 -167 -229c22 20 68 46 135 46c95 0 178 -61 178 -165
c0 -126 -97 -246 -258 -246c-160 0 -245 104 -245 254c0 220 135 412 353 412c119 0 198 -59 198 -139z" />
    <glyph glyph-name="seven" unicode="7" horiz-adv-x="571" 
d="M299 84c-21 -55 -48 -100 -109 -100c-55 0 -96 39 -96 83c0 89 74 164 331 355c26 20 51 39 73 57l-6 6c-47 -29 -80 -38 -113 -38c-58 0 -93 34 -136 34c-34 0 -51 -22 -88 -103h-89l66 265h95l-10 -87h8c36 65 67 94 112 94c89 0 84 -107 144 -107c3 0 6 1 8 2
c-4 11 -6 23 -6 32c0 42 29 73 78 73c43 0 77 -25 77 -64c0 -43 -25 -77 -76 -116c-97 -72 -175 -160 -263 -386z" />
    <glyph glyph-name="eight" unicode="8" horiz-adv-x="576" 
d="M583 493c0 -87 -74 -135 -156 -147c57 -31 107 -73 107 -152c0 -120 -104 -209 -268 -209c-170 0 -253 70 -253 156c0 90 70 142 168 155c-52 27 -94 71 -94 143c0 117 108 211 261 211c160 0 235 -82 235 -157zM370 142c0 56 -61 86 -151 126c-47 -36 -73 -75 -73 -119
c0 -47 37 -91 118 -91c59 0 106 30 106 84zM256 494c0 -53 47 -83 130 -118c41 33 64 73 64 115c0 40 -29 86 -97 86c-57 0 -97 -33 -97 -83z" />
    <glyph glyph-name="nine" unicode="9" horiz-adv-x="581" 
d="M345 576c-62 0 -97 -82 -97 -173c0 -75 27 -98 61 -98c63 0 102 74 102 171c0 63 -25 100 -66 100zM17 127c0 47 29 96 94 96c52 0 83 -35 83 -76c0 -30 -13 -55 -36 -72c15 -11 31 -19 61 -19c90 0 143 92 165 221c-22 -20 -68 -46 -135 -46c-95 0 -177 61 -177 169
c0 130 98 250 259 250c160 0 245 -104 245 -254c0 -220 -135 -412 -353 -412c-125 0 -206 60 -206 143z" />
    <glyph glyph-name="period" unicode="." horiz-adv-x="267" 
d="M85 -17c-52 0 -87 41 -87 92c0 64 47 114 104 114c52 0 87 -41 87 -92c0 -64 -47 -114 -104 -114z" />
    <glyph glyph-name="comma" unicode="," horiz-adv-x="267" 
d="M-59 -169l-17 60c91 21 149 65 169 111l-7 6c-8 -6 -19 -10 -33 -10c-42 0 -69 36 -69 80c0 56 40 107 100 107c63 0 105 -46 105 -121c0 -120 -106 -206 -248 -233z" />
    <glyph glyph-name="colon" unicode=":" horiz-adv-x="283" 
d="M93 -17c-52 0 -87 41 -87 92c0 64 47 114 104 114c52 0 87 -41 87 -92c0 -64 -47 -114 -104 -114zM163 266c-52 0 -87 41 -87 92c0 64 47 114 104 114c52 0 87 -41 87 -92c0 -64 -47 -114 -104 -114z" />
    <glyph glyph-name="semicolon" unicode=";" horiz-adv-x="283" 
d="M-51 -169l-17 60c91 21 149 65 169 111l-7 6c-8 -6 -19 -10 -33 -10c-42 0 -69 36 -69 80c0 56 40 107 100 107c63 0 105 -46 105 -121c0 -120 -106 -206 -248 -233zM163 266c-52 0 -87 41 -87 92c0 64 47 114 104 114c52 0 87 -41 87 -92c0 -64 -47 -114 -104 -114z" />
    <glyph glyph-name="ellipsis" unicode="&#x2026;" horiz-adv-x="790" 
d="M85 -17c-52 0 -87 41 -87 92c0 64 47 114 104 114c52 0 87 -41 87 -92c0 -64 -47 -114 -104 -114zM348 -17c-52 0 -87 41 -87 92c0 64 47 114 104 114c52 0 87 -41 87 -92c0 -64 -47 -114 -104 -114zM612 -17c-52 0 -87 41 -87 92c0 64 47 114 104 114
c52 0 87 -41 87 -92c0 -64 -47 -114 -104 -114z" />
    <glyph glyph-name="periodcentered" unicode="&#xb7;" horiz-adv-x="271" 
d="M149 220c-52 0 -87 41 -87 92c0 64 47 114 104 114c52 0 87 -41 87 -92c0 -64 -47 -114 -104 -114z" />
    <glyph glyph-name="bullet" unicode="&#x2022;" horiz-adv-x="480" 
d="M248 157c-84 0 -140 66 -140 149c0 104 75 184 167 184c84 0 140 -66 140 -149c0 -104 -75 -184 -167 -184z" />
    <glyph glyph-name="ampersand" unicode="&#x26;" horiz-adv-x="728" 
d="M645 395c43 0 86 -26 86 -82c0 -43 -34 -92 -84 -92c-40 0 -63 24 -63 56c-33 -22 -61 -62 -92 -109c26 -51 49 -69 73 -69c22 0 46 12 74 66l51 -30c-46 -96 -87 -151 -174 -151c-69 0 -106 25 -142 85c-47 -52 -101 -85 -189 -85c-100 0 -174 61 -174 162
c0 86 53 156 204 198c-36 53 -47 86 -47 128c0 99 89 168 214 168c113 0 181 -62 181 -137c0 -43 -20 -111 -166 -158c28 -44 50 -86 66 -127c55 87 98 177 182 177zM257 85c34 0 59 9 84 31c-24 68 -51 118 -91 177c-60 -38 -73 -86 -73 -120c0 -51 31 -88 80 -88zM323 501
c0 -25 10 -54 41 -106c60 36 76 77 76 112s-20 63 -56 63c-37 0 -61 -29 -61 -69z" />
    <glyph glyph-name="exclam" unicode="!" horiz-adv-x="310" 
d="M110 219c6 68 11 137 19 287c5 94 12 178 112 178c63 0 106 -40 106 -87c0 -38 -18 -75 -39 -121c-39 -86 -76 -167 -122 -271zM117 -17c-52 0 -88 35 -90 79c0 54 40 97 99 97c52 0 88 -35 90 -79c0 -54 -41 -97 -99 -97z" />
    <glyph glyph-name="exclamdown" unicode="&#xa1;" horiz-adv-x="310" 
d="M254 448c-6 -68 -11 -137 -19 -287c-5 -94 -12 -178 -112 -178c-63 0 -106 40 -106 87c0 38 18 75 39 121c39 86 76 167 122 271zM247 684c52 0 88 -35 90 -79c0 -54 -40 -97 -99 -97c-52 0 -88 35 -90 79c0 54 41 97 99 97z" />
    <glyph glyph-name="question" unicode="?" horiz-adv-x="512" 
d="M402 237c-34 -21 -81 -43 -147 -43c-62 0 -134 31 -134 111c0 69 56 108 154 139c78 25 137 46 137 104c0 47 -42 60 -75 60c-21 0 -47 -3 -61 -12c11 -15 20 -31 20 -54c0 -36 -29 -78 -90 -78c-48 0 -86 32 -86 84c0 84 102 136 218 136c160 0 223 -80 223 -163
c0 -118 -93 -158 -222 -188c-62 -14 -84 -24 -84 -45c0 -15 12 -24 34 -24c19 0 47 4 86 22zM193 -17c-55 0 -90 38 -90 84c0 51 44 92 99 92s90 -38 90 -84c0 -52 -44 -92 -99 -92z" />
    <glyph glyph-name="questiondown" unicode="&#xbf;" horiz-adv-x="512" 
d="M156 430c34 21 81 43 147 43c62 0 134 -31 134 -111c0 -69 -56 -108 -154 -139c-78 -25 -137 -46 -137 -104c0 -47 42 -60 75 -60c21 0 47 3 61 12c-11 15 -20 31 -20 54c0 36 29 78 90 78c48 0 86 -32 86 -84c0 -84 -102 -136 -218 -136c-160 0 -223 80 -223 163
c0 118 93 158 222 188c62 14 84 24 84 45c0 15 -12 24 -34 24c-19 0 -47 -4 -86 -22zM365 684c55 0 90 -38 90 -84c0 -51 -44 -92 -99 -92s-90 38 -90 84c0 52 44 92 99 92z" />
    <glyph glyph-name="quotedblleft" unicode="&#x201c;" horiz-adv-x="521" 
d="M331 682l17 -60c-91 -21 -149 -65 -169 -111l7 -6c8 6 19 10 33 10c42 0 69 -36 69 -80c0 -56 -40 -107 -100 -107c-63 0 -105 46 -105 121c0 120 106 206 248 233zM572 682l17 -60c-91 -21 -149 -65 -169 -111l7 -6c8 6 19 10 33 10c42 0 69 -36 69 -80
c0 -56 -40 -107 -100 -107c-63 0 -105 46 -105 121c0 120 106 206 248 233z" />
    <glyph glyph-name="quotedblright" unicode="&#x201d;" horiz-adv-x="521" 
d="M80 320l-17 60c91 21 149 65 169 111l-7 6c-8 -6 -19 -10 -33 -10c-42 0 -69 36 -69 80c0 56 40 107 100 107c63 0 105 -46 105 -121c0 -120 -106 -206 -248 -233zM321 320l-17 60c91 21 149 65 169 111l-7 6c-8 -6 -19 -10 -33 -10c-42 0 -69 36 -69 80
c0 56 40 107 100 107c63 0 105 -46 105 -121c0 -120 -106 -206 -248 -233z" />
    <glyph glyph-name="quoteleft" unicode="&#x2018;" horiz-adv-x="267" 
d="M318 682l17 -60c-91 -21 -149 -65 -169 -111l7 -6c8 6 19 10 33 10c42 0 69 -36 69 -80c0 -56 -40 -107 -100 -107c-63 0 -105 46 -105 121c0 120 106 206 248 233z" />
    <glyph glyph-name="quoteright" unicode="&#x2019;" horiz-adv-x="267" 
d="M80 320l-17 60c91 21 149 65 169 111l-7 6c-8 -6 -19 -10 -33 -10c-42 0 -69 36 -69 80c0 56 40 107 100 107c63 0 105 -46 105 -121c0 -120 -106 -206 -248 -233z" />
    <glyph glyph-name="quotedblbase" unicode="&#x201e;" horiz-adv-x="508" 
d="M-59 -173l-17 60c91 21 149 65 169 111l-7 6c-8 -6 -19 -10 -33 -10c-42 0 -69 36 -69 80c0 56 40 107 100 107c63 0 105 -46 105 -121c0 -120 -106 -206 -248 -233zM182 -173l-17 60c91 21 149 65 169 111l-7 6c-8 -6 -19 -10 -33 -10c-42 0 -69 36 -69 80
c0 56 40 107 100 107c63 0 105 -46 105 -121c0 -120 -106 -206 -248 -233z" />
    <glyph glyph-name="quotesinglbase" unicode="&#x201a;" horiz-adv-x="267" 
d="M-59 -173l-17 60c91 21 149 65 169 111l-7 6c-8 -6 -19 -10 -33 -10c-42 0 -69 36 -69 80c0 56 40 107 100 107c63 0 105 -46 105 -121c0 -120 -106 -206 -248 -233z" />
    <glyph glyph-name="guillemotleft" unicode="&#xab;" horiz-adv-x="530" 
d="M191 32l-155 162c-15 16 -18 31 -18 40c0 22 15 37 33 48l225 143l35 -47l-152 -154l80 -157zM413 32l-155 162c-15 16 -18 31 -18 40c0 22 15 37 33 48l225 143l35 -47l-152 -154l80 -157z" />
    <glyph glyph-name="guillemotright" unicode="&#xbb;" horiz-adv-x="530" 
d="M339 426l155 -162c15 -16 18 -31 18 -40c0 -22 -15 -37 -33 -48l-225 -143l-35 47l152 154l-80 157zM117 426l155 -162c15 -16 18 -31 18 -40c0 -22 -15 -37 -33 -48l-225 -143l-35 47l152 154l-80 157z" />
    <glyph glyph-name="guilsinglleft" unicode="&#x2039;" horiz-adv-x="315" 
d="M199 32l-163 162c-15 16 -18 31 -18 40c0 22 15 37 33 48l233 143l35 -50l-155 -151l83 -154z" />
    <glyph glyph-name="guilsinglright" unicode="&#x203a;" horiz-adv-x="315" 
d="M116 426l163 -162c15 -16 18 -31 18 -40c0 -22 -15 -37 -33 -48l-233 -143l-35 50l155 151l-83 154z" />
    <glyph glyph-name="hyphen" unicode="-" horiz-adv-x="351" 
d="M36 200l27 109h261l-27 -109h-261z" />
    <glyph glyph-name="endash" unicode="&#x2013;" horiz-adv-x="525" 
d="M36 201l25 101h435l-25 -101h-435z" />
    <glyph glyph-name="emdash" unicode="&#x2014;" horiz-adv-x="775" 
d="M36 201l25 101h685l-25 -101h-685z" />
    <glyph glyph-name="underscore" unicode="_" horiz-adv-x="450" 
d="M-61 0l24 96h453l-24 -96h-453z" />
    <glyph glyph-name="slash" unicode="/" horiz-adv-x="425" 
d="M-166 -183l618 917l89 -40l-618 -917z" />
    <glyph glyph-name="backslash" unicode="\" horiz-adv-x="425" 
d="M376 -193l-98 -20l-161 917l98 20z" />
    <glyph glyph-name="bar" unicode="|" horiz-adv-x="291" 
d="M-14 -198l229 920l99 -14l-229 -920z" />
    <glyph glyph-name="parenleft" unicode="(" horiz-adv-x="401" 
d="M288 -161c-145 97 -229 234 -229 394c0 230 174 412 421 493l28 -68c-148 -83 -286 -233 -286 -456c0 -123 49 -234 118 -305z" />
    <glyph glyph-name="parenright" unicode=")" horiz-adv-x="401" 
d="M136 725c145 -97 229 -234 229 -394c0 -230 -174 -412 -421 -493l-28 68c148 83 286 233 286 456c0 123 -49 234 -118 305z" />
    <glyph glyph-name="bracketleft" unicode="[" horiz-adv-x="376" 
d="M-24 -161l220 887h307l-21 -84h-147l-179 -719h147l-21 -84h-306z" />
    <glyph glyph-name="bracketright" unicode="]" horiz-adv-x="376" 
d="M424 726l-220 -887h-307l21 84h147l179 719h-147l21 84h306z" />
    <glyph glyph-name="braceleft" unicode="{" horiz-adv-x="401" 
d="M320 -161c-166 12 -235 61 -235 143c0 66 58 147 58 198c0 27 -32 53 -110 53h-15l24 99h25c52 0 84 7 106 29c67 67 11 217 99 305c61 61 163 64 258 60l-19 -82c-51 -3 -80 -8 -99 -27c-53 -53 -25 -209 -99 -283c-37 -37 -90 -45 -157 -52l-2 -9
c92 -15 141 -39 141 -95c0 -49 -48 -142 -48 -189c0 -38 23 -55 92 -67z" />
    <glyph glyph-name="braceright" unicode="}" horiz-adv-x="401" 
d="M105 727c166 -12 235 -61 235 -143c0 -66 -58 -147 -58 -198c0 -27 32 -53 110 -53h15l-24 -99h-25c-52 0 -84 -7 -106 -29c-67 -67 -11 -217 -99 -305c-61 -61 -163 -64 -258 -60l19 82c51 3 80 8 99 27c53 53 25 209 99 283c37 37 90 45 157 52l2 9
c-92 15 -141 39 -141 95c0 49 48 142 48 189c0 38 -23 55 -92 67z" />
    <glyph glyph-name="at" unicode="@" horiz-adv-x="898" 
d="M631 -49l24 -50c-65 -33 -142 -56 -245 -56c-221 0 -379 133 -379 352c0 287 231 494 502 494c197 0 349 -119 349 -311c0 -199 -112 -329 -248 -329c-61 0 -131 29 -134 112l-9 4c-34 -76 -80 -111 -133 -111c-95 0 -133 69 -133 151c0 151 93 275 204 275
c55 0 92 -40 103 -84l20 75h141l-64 -225c-23 -81 -14 -121 43 -121c75 0 142 116 142 253c0 157 -116 254 -287 254c-228 0 -428 -188 -428 -436c0 -184 126 -296 318 -296c87 0 159 20 214 49zM416 149c62 0 105 122 105 188c0 40 -17 66 -50 66c-66 0 -98 -142 -98 -192
c0 -40 13 -62 43 -62z" />
    <glyph glyph-name="copyright" unicode="&#xa9;" horiz-adv-x="787" 
d="M393 -35c-212 0 -369 151 -369 363s157 364 369 364s369 -152 369 -364s-157 -363 -369 -363zM393 19c182 0 303 127 303 309s-121 310 -303 310s-303 -128 -303 -310s121 -309 303 -309zM403 140c-117 0 -192 72 -192 186c0 118 82 194 177 194c47 0 82 -15 104 -43
l12 42h55v-145h-63c-21 67 -49 97 -94 97c-48 0 -79 -36 -79 -138c0 -99 36 -135 94 -135c50 0 78 36 88 96h59c-9 -92 -58 -154 -161 -154z" />
    <glyph glyph-name="published" unicode="&#x2117;" horiz-adv-x="787" 
d="M393 -35c-212 0 -369 151 -369 363s157 364 369 364s369 -152 369 -364s-157 -363 -369 -363zM393 19c182 0 303 127 303 309s-121 310 -303 310s-303 -128 -303 -310s121 -309 303 -309zM242 144v53h45v256h-45v53h190c114 0 160 -44 160 -113c0 -67 -48 -113 -160 -113
h-41v-83h48v-53h-197zM391 332h32c45 0 60 17 60 62s-13 62 -60 62h-32v-124z" />
    <glyph glyph-name="registered.alt" horiz-adv-x="787" 
d="M393 -35c-212 0 -369 151 -369 363s157 364 369 364s369 -152 369 -364s-157 -363 -369 -363zM393 19c182 0 303 127 303 309s-121 310 -303 310s-303 -128 -303 -310s121 -309 303 -309zM362 303v-100h48v-53h-196v53h44v256h-44v53h208c109 0 149 -45 149 -93
s-30 -83 -121 -92v-3c74 -4 97 -32 101 -79l1 -12c2 -25 6 -30 17 -30c8 0 14 8 21 36l36 -9c-10 -50 -32 -88 -90 -88c-68 0 -90 36 -90 100v8c0 38 -10 53 -46 53h-38zM362 353h43c37 0 56 12 56 54c0 39 -10 55 -56 55h-43v-109z" />
    <glyph glyph-name="registered" unicode="&#xae;" horiz-adv-x="500" 
d="M315 247c-130 0 -225 92 -225 221s95 222 225 222c129 0 225 -93 225 -222s-96 -221 -225 -221zM315 286c108 0 179 74 179 182s-71 183 -179 183s-179 -75 -179 -183s71 -182 179 -182zM296 453v-61h29v-32h-119v32h27v156h-27v32h127c66 0 90 -28 90 -57
s-18 -50 -73 -56v-1c45 -3 57 -20 61 -48l1 -8c2 -15 3 -18 10 -18c5 0 8 5 13 22l22 -6c-6 -30 -20 -53 -55 -53c-41 0 -55 22 -55 61v5c0 23 -6 32 -28 32h-23zM296 483h26c23 0 34 7 34 33c0 24 -6 33 -34 33h-26v-66z" />
    <glyph glyph-name="servicemark" unicode="&#x2120;" horiz-adv-x="857" 
d="M65 335l28 122h52c8 -51 41 -78 90 -78c30 0 46 12 46 34c0 24 -32 35 -69 50c-45 18 -95 40 -95 94c0 65 63 108 135 108c43 0 75 -14 95 -37l20 36h50l-28 -117h-51c-7 54 -39 72 -76 72c-28 0 -47 -13 -47 -34c0 -23 33 -34 68 -48c45 -18 96 -40 96 -96
c0 -64 -59 -107 -140 -107c-45 0 -84 17 -104 40l-21 -39h-49zM382 341l12 55h43l51 207h-41l14 55h181l10 -162h7l86 162h180l-14 -55h-43l-51 -207h43l-14 -55h-179l13 54h40l52 206h-7l-148 -260h-44l-23 260h-7l-52 -206h40l-13 -54h-136z" />
    <glyph glyph-name="trademark" unicode="&#x2122;" horiz-adv-x="889" 
d="M414 341l14 55h41l51 207h-41l14 55h181l10 -162h7l86 162h180l-14 -55h-43l-51 -207h43l-14 -55h-179l13 54h40l52 206h-7l-148 -260h-44l-23 260h-7l-52 -206h40l-13 -54h-136zM117 341l14 55h54l53 215h-16c-35 0 -46 -14 -77 -93h-49l35 140h334l-35 -140h-42
c0 79 -6 93 -37 93h-17l-53 -215h54l-14 -55h-204z" />
    <glyph glyph-name="asterisk" unicode="*" horiz-adv-x="427" 
d="M287 347c-8 26 -3 65 7 119l-13 4c-26 -50 -45 -84 -67 -100c-27 -18 -59 -12 -78 14c-21 29 -16 60 12 78c22 17 60 25 116 32v15c-56 7 -94 17 -116 33c-27 19 -31 50 -10 78c20 26 51 32 78 13c22 -16 41 -51 65 -102l13 3c-9 56 -13 96 -4 122c11 31 39 45 71 34
c33 -11 47 -38 37 -71c-9 -25 -35 -54 -77 -93l8 -11c51 27 87 42 115 42c33 0 54 -22 54 -57c-1 -35 -22 -58 -55 -57c-28 1 -63 16 -113 43l-9 -10c41 -40 67 -69 74 -95c10 -32 -4 -59 -36 -69c-34 -11 -62 3 -72 35z" />
    <glyph glyph-name="dagger" unicode="&#x2020;" horiz-adv-x="549" 
d="M450 618l-100 -175c27 -12 71 -24 100 -24h4c-10 61 24 101 69 101c39 0 66 -27 66 -70c0 -44 -38 -97 -106 -97c-50 0 -80 12 -146 37l-28 -311l-33 -133c-9 -34 -66 -60 -83 -60c-14 0 -59 57 -50 93l33 133l119 293c-27 12 -71 24 -100 24h-4
c10 -61 -24 -101 -69 -101c-39 0 -66 27 -66 70c0 44 38 97 106 97c50 0 80 -12 146 -37l-6 197l11 15c14 19 39 35 64 35c44 0 65 -37 70 -68z" />
    <glyph glyph-name="daggerdbl" unicode="&#x2021;" horiz-adv-x="549" 
d="M282 178c25 -10 68 -22 97 -22h4c-10 61 24 101 69 101c39 0 66 -27 66 -70c0 -44 -38 -97 -106 -97c-50 0 -80 12 -146 37l9 -190l-11 -15c-14 -19 -39 -35 -64 -35c-44 0 -65 37 -70 68l-3 19l97 168c-27 12 -71 24 -100 24h-4c10 -61 -24 -101 -69 -101
c-39 0 -66 27 -66 70c0 44 38 97 106 97c49 0 79 -12 143 -36l-5 116l66 101c-25 11 -68 23 -97 23h-4c10 -61 -24 -101 -69 -101c-39 0 -66 27 -66 70c0 44 38 97 106 97c50 0 80 -12 146 -37l-9 190l11 15c14 19 39 35 64 35c44 0 65 -37 70 -68l3 -19l-97 -168
c27 -12 71 -24 100 -24h4c-10 61 24 101 69 101c39 0 66 -27 66 -70c0 -44 -38 -97 -106 -97c-50 0 -80 11 -144 36l6 -116z" />
    <glyph glyph-name="asciicircum" unicode="^" horiz-adv-x="389" 
d="M69 480l196 237h98l76 -237h-94l-53 117l-118 -117h-105z" />
    <glyph glyph-name="asciitilde" unicode="~" horiz-adv-x="431" 
d="M161 290c-24 0 -41 -16 -58 -55h-73c34 114 64 180 145 180c55 0 106 -54 137 -54c24 0 41 16 58 55h73c-34 -114 -64 -180 -145 -180c-55 0 -105 54 -137 54z" />
    <glyph glyph-name="dollar" unicode="$" horiz-adv-x="563" 
d="M353 717l82 -9l-20 -79c95 -16 170 -62 170 -134c0 -47 -28 -91 -83 -91c-45 0 -81 30 -81 73c0 25 10 50 29 65c-8 7 -24 18 -51 25l-46 -184c109 -41 179 -83 179 -179c0 -124 -102 -204 -258 -204h-15l-22 -93l-82 9l22 92c-103 17 -183 63 -183 138c0 47 29 91 85 91
c44 0 81 -30 81 -73c0 -25 -10 -51 -30 -66c12 -10 34 -21 64 -27l46 185c-100 39 -164 79 -164 171c0 122 110 206 257 209zM385 149c0 39 -30 61 -73 80l-41 -165c87 1 114 38 114 85zM224 486c0 -38 20 -57 57 -75l40 161c-68 -7 -97 -45 -97 -86z" />
    <glyph glyph-name="sterling" unicode="&#xa3;" horiz-adv-x="632" 
d="M493 264h-134c-9 -41 -33 -80 -64 -109c76 -24 127 -32 151 -32c45 0 62 21 93 88l60 -14c-35 -145 -81 -213 -182 -213c-69 0 -123 27 -189 82c-39 -57 -85 -82 -134 -82c-66 0 -106 38 -106 91c0 70 64 114 140 114c25 0 50 -3 76 -8c1 9 1 16 1 21c0 20 -3 41 -8 62
h-136l22 87h93c-5 24 -9 48 -9 71c0 145 130 228 274 228c142 0 203 -71 203 -134c0 -60 -40 -103 -94 -103c-52 0 -82 30 -82 73s31 69 57 77c-12 10 -32 24 -72 24c-73 0 -111 -52 -111 -132c0 -33 11 -66 17 -104h156zM105 46c34 0 58 24 77 56c-21 11 -43 18 -65 18
c-25 0 -51 -14 -51 -41c0 -20 15 -33 39 -33z" />
    <glyph glyph-name="Euro" unicode="&#x20ac;" horiz-adv-x="668" 
d="M444 337h-150c-4 -22 -5 -44 -6 -62h141l-21 -85h-114c17 -85 70 -105 114 -105c54 0 106 32 158 130l73 -47c-56 -111 -141 -184 -263 -184c-133 0 -233 67 -257 204h-104l21 87h77c1 21 3 41 7 62h-69l22 87h72c52 129 167 226 323 226c143 0 215 -85 215 -166
c0 -67 -41 -111 -92 -111c-48 0 -78 33 -78 76c0 44 25 71 47 81c-5 13 -35 35 -79 35c-90 0 -140 -67 -167 -143h152z" />
    <glyph glyph-name="yen" unicode="&#xa5;" horiz-adv-x="636" 
d="M104 353h131l-79 187h-73l23 94h310l-23 -92h-63l65 -174l146 174h-74l23 92h240l-23 -94h-62l-168 -187h128l-20 -80h-173l-12 -50h173l-20 -80h-173l-13 -53h83l-22 -90h-323l22 90h84l13 53h-172l20 80h172l12 50h-172z" />
    <glyph glyph-name="cent" unicode="&#xa2;" horiz-adv-x="566" 
d="M333 570l84 -10l-20 -83c98 -20 142 -80 142 -141c0 -56 -34 -97 -86 -97c-45 0 -73 28 -73 69c0 37 25 64 48 71c-7 13 -31 22 -57 27l-81 -321c9 -1 18 -1 28 -1c48 0 102 28 143 77l48 -41c-43 -64 -122 -129 -239 -131l-23 -95l-84 10l23 94
c-104 23 -163 96 -163 196c0 152 115 284 289 290zM183 211c0 -53 16 -84 40 -103l74 296c-82 -23 -114 -117 -114 -193z" />
    <glyph glyph-name="numbersign" unicode="#" horiz-adv-x="673" 
d="M66 400l17 87h139l48 180l95 -9l-45 -171h129l48 180l95 -9l-45 -171h120l-17 -87h-126l-44 -170h132l-17 -87h-138l-49 -188l-96 9l47 179h-129l-49 -188l-96 9l47 179h-121l17 87h127l44 170h-133zM297 400l-44 -170h129l44 170h-129z" />
    <glyph glyph-name="paragraph" unicode="&#xb6;" horiz-adv-x="652" 
d="M229 -114l68 273c-143 1 -238 80 -238 209c0 162 138 255 363 255h303l-22 -91h-66l-161 -646h-92l161 648h-63l-161 -648h-92z" />
    <glyph glyph-name="section" unicode="&#xa7;" horiz-adv-x="535" 
d="M519 294c0 -73 -56 -123 -148 -141c39 -27 68 -61 68 -109c0 -112 -118 -172 -233 -172c-132 0 -232 54 -232 133c0 50 40 84 85 84c48 0 80 -29 80 -67c0 -22 -12 -44 -34 -59c18 -14 56 -26 98 -26c65 0 89 29 89 64c0 38 -43 63 -126 102c-73 34 -145 73 -145 147
c0 73 56 123 152 139c-38 26 -66 58 -66 105c0 107 118 167 230 167c138 0 218 -60 218 -124c0 -48 -37 -80 -84 -80c-48 0 -81 29 -81 64c0 18 8 39 30 56c-17 11 -46 19 -76 19c-59 0 -91 -26 -91 -61c0 -33 41 -57 123 -95c71 -33 143 -72 143 -146zM253 346
c-12 5 -24 11 -36 17c-39 -16 -56 -42 -56 -66c0 -38 52 -63 112 -91c17 -8 34 -16 51 -25c38 17 54 40 54 66c0 43 -61 69 -125 99z" />
    <glyph glyph-name="ordfeminine" unicode="&#xaa;" horiz-adv-x="459" 
d="M347 654h123l-57 -216c-4 -13 -5 -22 -5 -29c0 -12 7 -16 14 -16c12 0 25 9 44 64l41 -14c-29 -87 -70 -128 -132 -128c-46 0 -76 26 -76 69c0 5 1 12 1 19l-5 2c-29 -62 -67 -90 -115 -90c-75 0 -107 56 -107 118c0 72 33 147 72 186c31 30 59 43 100 43
c46 0 75 -33 85 -69zM233 391c47 0 81 103 81 159c0 33 -9 48 -30 48c-45 0 -79 -105 -79 -164c0 -35 14 -43 28 -43z" />
    <glyph glyph-name="ordmasculine" unicode="&#xba;" horiz-adv-x="396" 
d="M287 662c91 0 156 -57 156 -139c0 -114 -102 -208 -210 -208c-91 0 -156 57 -156 139c0 114 102 208 210 208zM318 562c0 41 -16 48 -31 48c-56 0 -85 -145 -85 -195c0 -41 16 -48 30 -48c57 0 86 145 86 195z" />
    <glyph glyph-name="degree" unicode="&#xb0;" horiz-adv-x="402" 
d="M259 415c57 0 87 60 87 115c0 46 -25 72 -66 72c-59 0 -87 -60 -87 -115c0 -46 27 -72 66 -72zM447 532c0 -112 -84 -189 -195 -189c-110 0 -162 69 -162 142c0 111 84 189 195 189c110 0 162 -69 162 -142z" />
    <glyph glyph-name="percent" unicode="%" horiz-adv-x="809" 
d="M182 267c-84 0 -142 50 -142 140c0 113 94 228 213 228c42 0 77 -13 101 -36c42 -15 73 -17 106 -17c83 0 172 26 238 87l49 -41l-581 -664l-68 55l488 534l-3 3c-45 -35 -104 -49 -153 -49c-14 0 -28 0 -41 2c-1 -106 -89 -242 -207 -242zM586 -14
c-84 0 -142 50 -142 140c0 113 94 228 213 228c80 0 136 -44 136 -125c0 -106 -88 -243 -207 -243zM605 48c63 0 122 109 122 185c0 36 -17 54 -42 54c-64 0 -122 -113 -122 -187c0 -36 16 -52 42 -52zM201 329c63 0 122 109 122 185c0 5 -1 9 -1 13c-20 9 -40 21 -60 38
c-56 -19 -103 -117 -103 -184c0 -36 16 -52 42 -52z" />
    <glyph glyph-name="quotedbl" unicode="&#x22;" horiz-adv-x="472" 
d="M141 377l-53 34l51 134c34 90 59 129 108 129c42 0 79 -32 79 -75c0 -41 -28 -69 -109 -148zM365 377l-53 34l51 134c34 90 59 129 108 129c42 0 79 -32 79 -75c0 -41 -28 -69 -109 -148z" />
    <glyph glyph-name="quotesingle" unicode="'" horiz-adv-x="248" 
d="M141 377l-53 34l51 134c34 90 59 129 108 129c42 0 79 -32 79 -75c0 -41 -28 -69 -109 -148z" />
    <glyph glyph-name="plus" unicode="+" horiz-adv-x="525" 
d="M171 70l43 172h-169l22 89h169l42 169h99l-42 -169h169l-22 -89h-169l-43 -172h-99z" />
    <glyph glyph-name="minus" unicode="&#x2212;" horiz-adv-x="519" 
d="M459 239h-397l23 95h397z" />
    <glyph glyph-name="divide" unicode="&#xf7;" horiz-adv-x="519" 
d="M482 243h-441l21 87h441zM223 33c-43 0 -72 33 -72 73c0 51 39 91 85 91c43 0 72 -33 72 -73c0 -51 -39 -91 -85 -91zM308 375c-43 0 -72 33 -72 73c0 51 39 91 85 91c43 0 72 -33 72 -73c0 -51 -39 -91 -85 -91z" />
    <glyph glyph-name="equal" unicode="=" horiz-adv-x="525" 
d="M79 338l25 97h417l-25 -97h-417zM29 137l25 97h417l-25 -97h-417z" />
    <glyph glyph-name="multiply" unicode="&#xd7;" horiz-adv-x="520" 
d="M335 281l99 -135l-78 -62l-95 137l-170 -143l-54 72l174 141l-100 136l78 62l95 -138l170 142l54 -72z" />
    <glyph glyph-name="less" unicode="&#x3c;" horiz-adv-x="524" 
d="M405 68l-332 172l25 102l387 160l36 -86l-342 -131l268 -127z" />
    <glyph glyph-name="greater" unicode="&#x3e;" horiz-adv-x="524" 
d="M143 502l332 -172l-25 -102l-387 -160l-36 86l342 131l-268 127z" />
    <glyph glyph-name="plusminus" unicode="&#xb1;" horiz-adv-x="539" 
d="M207 165l38 154h-151l20 80h151l38 151h89l-38 -151h151l-20 -80h-151l-38 -154h-89zM414 36h-391l20 80h391z" />
    <glyph glyph-name="zero.osf" horiz-adv-x="625" 
d="M38 230c0 135 91 348 309 348c158 0 251 -95 251 -246c0 -135 -91 -348 -309 -348c-158 0 -251 95 -251 246zM420 410c0 76 -35 85 -67 85c-93 0 -137 -250 -137 -343c0 -76 35 -85 67 -85c93 0 137 250 137 343z" />
    <glyph glyph-name="one.osf" horiz-adv-x="470" 
d="M-20 0l23 91h125l78 316c-11 -3 -30 -5 -50 -5c-29 0 -60 5 -83 12l19 78c98 -4 168 24 218 79h107l-119 -480h121l-23 -91h-416z" />
    <glyph glyph-name="two.osf" horiz-adv-x="566" 
d="M204 484c26 -12 42 -35 42 -68c0 -49 -35 -85 -89 -85s-88 34 -88 84c0 86 99 163 244 163c160 0 239 -74 239 -156c0 -127 -113 -168 -241 -190c-122 -21 -178 -51 -212 -101l4 -5c31 23 70 37 118 37c85 0 121 -24 178 -24c36 0 55 20 74 77l63 -13
c-33 -163 -80 -219 -165 -219c-118 0 -140 103 -210 103c-5 0 -19 0 -31 -3c8 -13 10 -24 10 -34c0 -41 -32 -67 -72 -67c-31 0 -73 23 -73 85c0 104 113 173 211 218c96 44 162 75 162 146c0 45 -37 71 -93 71c-28 0 -53 -7 -71 -19z" />
    <glyph glyph-name="three.osf" horiz-adv-x="552" 
d="M122 -7c12 -7 42 -13 68 -13c91 0 116 61 116 137c0 58 -34 78 -123 78h-17l22 87h29c52 0 85 16 111 42c24 24 36 62 36 99c0 54 -27 80 -79 80c-29 0 -55 -9 -64 -16c19 -17 32 -38 32 -66c0 -47 -33 -85 -88 -85c-58 0 -93 36 -93 86c0 91 104 156 241 156
c160 0 235 -72 235 -158c0 -97 -73 -171 -220 -183l-1 -4c118 -10 163 -59 163 -135c0 -100 -92 -193 -266 -193c-158 0 -244 64 -244 150c0 61 43 107 99 107c58 0 85 -42 85 -86c0 -39 -21 -69 -42 -83z" />
    <glyph glyph-name="four.osf" horiz-adv-x="589" 
d="M301 205l61 247h-6l-241 -247h186zM407 5h82l-23 -90h-319l23 90h82l26 106h-294l19 85l377 377h168l-92 -368h114l-23 -94h-114z" />
    <glyph glyph-name="five.osf" horiz-adv-x="542" 
d="M203 428l-50 -153c41 27 96 48 150 48c127 0 188 -77 188 -171c0 -121 -90 -248 -275 -248c-132 0 -226 56 -226 141c0 52 37 99 98 99c51 0 81 -36 81 -78c0 -33 -20 -60 -40 -76c7 -5 32 -11 53 -11c96 0 127 96 127 162c0 79 -57 89 -87 89c-44 0 -79 -19 -101 -33
l-68 23l104 333l38 26c58 -22 138 -32 196 -32c64 0 101 11 152 33l25 -52c-62 -89 -132 -128 -224 -128c-55 0 -104 12 -141 28z" />
    <glyph glyph-name="six.osf" horiz-adv-x="585" 
d="M398 648c121 0 200 -59 200 -139c0 -49 -29 -98 -94 -98c-52 0 -83 35 -83 76c0 30 13 55 36 72c-9 8 -23 17 -55 17c-88 0 -149 -95 -173 -229c22 20 68 46 138 46c98 0 181 -62 181 -165c0 -125 -97 -244 -261 -244c-163 0 -248 104 -248 254c0 215 141 410 359 410z
M273 58c65 0 99 81 99 167c0 70 -28 94 -65 94c-66 0 -104 -73 -104 -165c0 -58 26 -96 70 -96z" />
    <glyph glyph-name="seven.osf" horiz-adv-x="563" 
d="M264 4c-21 -55 -48 -100 -109 -100c-55 0 -96 39 -96 83c0 90 85 166 342 361l67 54l-6 6c-45 -28 -78 -38 -110 -38c-55 0 -89 34 -130 34c-33 0 -49 -21 -85 -98h-89l66 265h95l-11 -92h8c35 70 65 99 108 99c85 0 80 -112 137 -112c3 0 6 1 8 2c-4 11 -6 24 -6 33
c0 45 29 77 79 77c42 0 76 -26 76 -68c0 -43 -25 -78 -76 -117c-95 -73 -182 -161 -268 -389z" />
    <glyph glyph-name="eight.osf" horiz-adv-x="576" 
d="M583 491c0 -87 -74 -134 -156 -146c57 -31 107 -73 107 -152c0 -120 -104 -208 -268 -208c-170 0 -253 70 -253 156c0 90 70 141 168 154c-52 27 -94 70 -94 142c0 117 108 211 261 211c160 0 235 -82 235 -157zM370 142c0 56 -61 85 -151 125c-47 -35 -73 -74 -73 -118
c0 -47 37 -91 118 -91c59 0 106 30 106 84zM256 492c0 -52 47 -82 130 -118c41 33 64 73 64 115c0 40 -29 86 -97 86c-57 0 -97 -33 -97 -83z" />
    <glyph glyph-name="nine.osf" horiz-adv-x="585" 
d="M324 504c-65 0 -99 -83 -99 -169c0 -70 27 -97 64 -97c66 0 105 76 105 168c0 58 -26 98 -70 98zM367 210c-22 -20 -68 -46 -138 -46c-98 0 -180 65 -180 168c0 125 97 246 261 246c163 0 248 -106 248 -256c0 -215 -143 -417 -361 -417c-121 0 -199 59 -199 139
c0 49 29 98 94 98c52 0 83 -35 83 -76c0 -30 -13 -55 -36 -72c9 -8 22 -17 54 -17c88 0 150 99 174 233z" />
    <glyph glyph-name="dollar.osf" horiz-adv-x="559" 
d="M337 655l82 -9l-20 -80c93 -16 166 -61 166 -132c0 -46 -28 -85 -83 -85c-45 0 -81 29 -81 69c0 22 10 46 29 61c-8 7 -23 17 -48 24l-40 -163c110 -38 183 -78 183 -165c0 -115 -101 -191 -252 -191c-6 0 -13 1 -19 1l-22 -94l-82 9l22 93c-98 17 -175 62 -175 135
c0 46 29 85 85 85c44 0 81 -29 81 -69c0 -22 -10 -47 -30 -62c11 -10 30 -19 56 -25l41 165c-102 35 -169 73 -169 154c0 115 111 195 256 197zM378 124c0 37 -30 57 -75 74l-37 -150h1c84 0 111 34 111 76zM209 433c0 -35 19 -53 60 -69l36 145c-67 -6 -96 -39 -96 -76z
" />
    <glyph glyph-name="sterling.osf" horiz-adv-x="629" 
d="M475 239h-126c-7 -35 -24 -68 -48 -98c69 -19 116 -27 139 -27c46 0 64 21 95 93l60 -14c-35 -142 -81 -209 -180 -209c-63 0 -118 26 -180 74c-42 -52 -92 -74 -147 -74c-70 0 -110 36 -110 86c0 67 66 107 145 107c28 0 59 -4 91 -12c2 14 3 22 3 33c0 14 -2 28 -6 41
h-157l20 81h103c-10 23 -18 45 -18 70c0 113 125 188 265 188c147 0 211 -65 211 -122c0 -52 -37 -90 -88 -90s-81 27 -81 65s30 61 56 68c-14 7 -38 16 -86 16c-67 0 -98 -52 -98 -123c0 -25 5 -47 9 -72h148zM99 43c36 0 64 21 87 53c-23 14 -50 23 -75 23
c-29 0 -56 -15 -56 -43c0 -21 17 -33 44 -33z" />
    <glyph glyph-name="Euro.osf" horiz-adv-x="666" 
d="M428 297h-146c-4 -19 -6 -38 -7 -54h140l-20 -78h-114c19 -68 71 -84 113 -84c59 0 113 33 165 126l73 -47c-54 -103 -142 -176 -272 -176c-126 0 -224 61 -249 179h-103l20 80h77c1 18 3 36 6 54h-70l20 80h75c51 115 162 201 312 201c143 0 216 -81 216 -159
c0 -67 -42 -109 -95 -109c-50 0 -79 30 -79 72c0 47 29 75 54 86c-7 10 -33 29 -82 29c-84 0 -132 -57 -159 -122h145z" />
    <glyph glyph-name="yen.osf" horiz-adv-x="640" 
d="M107 355h90l-53 119h-82l22 89h323l-22 -87h-67l65 -166l144 166h-73l22 87h244l-22 -89h-67l-110 -119h87l-20 -78h-139l-46 -50h173l-20 -78h-174l-16 -64h83l-21 -85h-319l21 85h84l16 64h-175l20 78h174l2 6l-20 44h-144z" />
    <glyph glyph-name="space" unicode=" " horiz-adv-x="174" 
 />
    <glyph glyph-name="uni00A0" unicode="&#xa0;" horiz-adv-x="174" 
 />
    <glyph glyph-name="emspace" unicode="&#x2003;" horiz-adv-x="1000" 
 />
    <glyph glyph-name="enspace" unicode="&#x2002;" horiz-adv-x="500" 
 />
    <glyph glyph-name="threeperemspace" unicode="&#x2004;" horiz-adv-x="333" 
 />
    <glyph glyph-name="fourperemspace" unicode="&#x2005;" horiz-adv-x="250" 
 />
    <glyph glyph-name="thinspace" unicode="&#x2009;" horiz-adv-x="133" 
 />
    <glyph glyph-name="hairspace" unicode="&#x200a;" horiz-adv-x="75" 
 />
    <glyph glyph-name="hfjslug" horiz-adv-x="694" 
d="M644 -200h-208l-8 14h-163l-8 -14h-207v303c18 0 32 14 32 32c0 17 -14 32 -32 32v554h100l30 79h334l29 -79h101v-921zM400 563v-172h15v78h38v14h-38v66h43v14h-58zM184 563v-172h15v79h47v-79h15v172h-15v-79h-47v79h-15zM460 394c4 -2 15 -4 21 -4c20 0 31 11 31 36
v137h-16v-137c0 -16 -5 -22 -16 -22c-5 0 -15 3 -20 6v-16zM349 438l-16 31c13 12 23 26 23 42c0 15 -9 31 -27 31c-17 0 -28 -16 -28 -31s6 -24 14 -39c-15 -12 -23 -28 -23 -45c0 -22 13 -39 31 -39c13 0 22 12 27 24h1l12 -24l11 8l-16 30c5 12 10 25 13 39l-13 3
c-2 -9 -6 -21 -9 -30zM523 323v-46h8v13l7 7l16 -20h9l-19 26l18 20h-10l-21 -24v24h-8zM488 292l10 -15h9l-12 17c6 2 10 8 10 15c0 6 -6 14 -16 14h-21v-46h8v15h12zM426 276c15 0 24 11 24 24c0 12 -10 24 -24 24s-23 -12 -23 -24c0 -13 9 -24 23 -24zM370 301l-13 22h-9
l18 -29v-17h8v17l18 29h-9zM193 323v-46h33v7h-25v13h22v7h-22v12h25v7h-33zM132 323v-46h8v32l25 -32h7v46h-8v-32l-25 32h-7zM241 323l15 -47h8l10 34h1l11 -34h8l14 47h-8l-10 -35h-1l-10 35h-8l-11 -35h-1l-10 35h-8zM327 479c-7 13 -12 22 -12 32s6 19 14 19
s13 -9 13 -19c0 -12 -5 -21 -15 -32zM342 423c-3 -10 -11 -21 -18 -21c-10 0 -17 12 -17 27c0 11 6 24 15 33zM488 299h-12v17h11c6 0 10 -3 10 -8s-4 -9 -9 -9zM426 283c-9 0 -15 8 -15 17c0 8 6 17 15 17s16 -9 16 -17c0 -9 -7 -17 -16 -17z" />
    <glyph glyph-name="i.dot" horiz-adv-x="374" 
d="M359 642c0 -47 -37 -102 -106 -102c-49 0 -85 32 -85 83c0 47 37 102 106 102c49 0 85 -32 85 -83zM308 394c0 -83 -83 -237 -83 -284c0 -15 8 -19 16 -19c16 0 35 13 69 95l55 -20c-40 -111 -104 -177 -188 -177c-65 0 -111 40 -111 103c0 73 83 229 83 272
c0 14 -7 18 -14 18c-17 0 -39 -36 -65 -96l-55 20c48 114 106 178 192 178c59 0 101 -37 101 -90z" />
    <glyph glyph-name="acute" unicode="&#xb4;" horiz-adv-x="281" 
d="M280 595l-94 -59h-79l83 133c32 51 58 91 102 91s72 -34 72 -68c0 -45 -38 -68 -84 -97z" />
    <glyph glyph-name="hungarumlaut" unicode="&#x2dd;" horiz-adv-x="354" 
d="M212 595l-82 -59h-77l69 133c28 53 53 91 94 91c43 0 71 -33 71 -67c0 -45 -33 -68 -75 -98zM413 595l-82 -59h-79l71 133c28 53 53 91 94 91c43 0 71 -33 71 -67c0 -45 -33 -68 -75 -98z" />
    <glyph glyph-name="caron.alt" horiz-adv-x="238" 
d="M257 614l-61 -85h-60l29 163c13 71 37 103 85 103c34 0 68 -27 68 -65c0 -37 -22 -61 -61 -116z" />
    <glyph glyph-name="grave" unicode="`" horiz-adv-x="281" 
d="M293 648l29 -112h-70l-58 58c-42 42 -57 69 -57 98c0 32 26 69 73 69c54 0 67 -51 83 -113z" />
    <glyph glyph-name="circumflex" unicode="&#x2c6;" horiz-adv-x="373" 
d="M83 536l177 203h98l79 -203h-95l-55 83l-98 -83h-106z" />
    <glyph glyph-name="caron" unicode="&#x2c7;" horiz-adv-x="373" 
d="M459 739l-177 -203h-98l-79 203h95l55 -83l98 83h106z" />
    <glyph glyph-name="breve" unicode="&#x2d8;" horiz-adv-x="370" 
d="M270 530c-95 0 -158 60 -127 195h79c-7 -62 26 -84 66 -84c46 0 82 27 99 84h83c-25 -134 -98 -195 -200 -195z" />
    <glyph glyph-name="tilde" unicode="&#x2dc;" horiz-adv-x="431" 
d="M226 585c-24 0 -41 -16 -58 -55h-73c34 114 64 180 145 180c63 0 118 -54 157 -54c24 0 41 16 58 55h73c-34 -114 -64 -180 -145 -180c-63 0 -117 54 -157 54z" />
    <glyph glyph-name="macron" unicode="&#xaf;" horiz-adv-x="381" 
d="M105 536l27 107h319l-27 -107h-319z" />
    <glyph glyph-name="dieresis" unicode="&#xa8;" horiz-adv-x="412" 
d="M280 622c0 -42 -32 -92 -90 -92c-42 0 -73 29 -73 75c0 42 32 92 90 92c42 0 73 -29 73 -75zM482 622c0 -42 -32 -92 -90 -92c-42 0 -73 29 -73 75c0 42 32 92 90 92c42 0 73 -29 73 -75z" />
    <glyph glyph-name="dotaccent" unicode="&#x2d9;" horiz-adv-x="222" 
d="M296 625c0 -44 -35 -96 -100 -96c-47 0 -81 30 -81 79c0 44 35 96 100 96c47 0 81 -30 81 -79z" />
    <glyph glyph-name="ring" unicode="&#x2da;" horiz-adv-x="311" 
d="M393 662c0 -69 -55 -132 -144 -132c-80 0 -129 51 -129 112c0 69 55 132 144 132c80 0 129 -51 129 -112zM207 637c0 -24 11 -50 43 -50c29 0 56 30 56 80c0 24 -11 50 -43 50c-29 0 -56 -30 -56 -80z" />
    <glyph glyph-name="commaaccent" unicode="&#x326;" horiz-adv-x="275" 
d="M-83 -384l-17 57c78 21 129 57 148 99l-7 6c-8 -5 -18 -7 -28 -7c-45 0 -72 31 -72 72c0 52 38 100 96 100c60 0 101 -43 101 -113c0 -107 -93 -186 -221 -214z" />
    <glyph glyph-name="cedilla" unicode="&#xb8;" horiz-adv-x="361" 
d="M-65 -157c23 -13 60 -27 96 -27c27 0 43 10 43 27c0 21 -31 35 -92 31l-16 47l126 87h86l-80 -64l1 -4c65 -14 98 -45 98 -87c0 -63 -62 -105 -152 -105c-47 0 -106 15 -147 41z" />
    <glyph glyph-name="ogonek" unicode="&#x2db;" horiz-adv-x="317" 
d="M182 -215c-34 -21 -78 -38 -127 -38c-68 0 -132 28 -132 100c0 66 61 112 148 156l28 14h93l-41 -29c-72 -51 -99 -82 -99 -116c0 -22 14 -45 50 -45c19 0 37 4 60 17z" />
    </font>
</defs>
</svg>
