<?xml version="1.0" standalone="no"?>
<!DOCTYPE svg PUBLIC "-//W3C//DTD SVG 1.1//EN" "http://www.w3.org/Graphics/SVG/1.1/DTD/svg11.dtd" >
<svg xmlns="http://www.w3.org/2000/svg" xmlns:xlink="http://www.w3.org/1999/xlink" version="1.1">
<metadata>
Created by FontForge 20181014 at Fri Sep 14 16:35:27 2012
 By convertio
</metadata>
<defs>
<font id="MillerDisplaySemibold-Italic" horiz-adv-x="1439" >
  <font-face 
    font-family="MillerDisplaySemibold"
    font-weight="600"
    font-style="italic"
    font-stretch="normal"
    units-per-em="2048"
    panose-1="2 0 5 3 8 0 0 2 0 4"
    ascent="1565"
    descent="-483"
    x-height="943.996"
    cap-height="1399"
    bbox="-520 -489.001 2294 1911"
    underline-thickness="40"
    underline-position="-271"
    slope="-12"
    unicode-range="U+000D-FB04"
  />
<missing-glyph horiz-adv-x="748" 
d="M68 0v1365h544v-1365h-544zM136 68h408v1229h-408v-1229z" />
    <glyph glyph-name="uniFB01" unicode="fi" horiz-adv-x="1153" 
d="M-487 -307c0 31.333 11.5029 60.3311 34.5029 86.998s53.833 40 92.5 40c31.333 0 61 -9.66699 89 -29s42 -48.666 42 -87.999c0 -13.333 -3.16699 -25.833 -9.5 -37.5s-16.333 -25.667 -30 -42s-21.834 -26.833 -24.501 -31.5c4 -24.667 14.333 -36.667 31 -36
c70.667 0 126.167 31.667 166.5 95s85.833 177 136.5 341c30 98 58.667 197.833 86 299.5s56 214 86 337s48.333 197.5 55 223.5h-196l20 68h197l22 73c49.333 172 134.666 310 255.999 414c88.667 76.667 194 115 316 115c82 0 148.167 -19.833 198.5 -59.5
s75.5 -86.167 75.5 -139.5c0 -27.333 -12 -56.333 -36 -87s-56.333 -46 -97 -46c-38 0 -71 9.16699 -99 27.5s-42 48.166 -42 89.499c0 18 8.83301 43.333 26.5 76s27.167 54.334 28.5 65.001c-9.33301 22 -36.666 33 -81.999 33c-125.333 0 -226.333 -142 -303 -426
l-37 -135h561c-5.33301 -79.333 -38 -195.666 -98 -348.999l-121 -309c-38 -98 -57 -157.333 -57 -178c0 -36.667 20.333 -55 61 -55c82 0 158 90 228 270l36 -12c-40.667 -102.667 -83.5 -180 -128.5 -232s-101.167 -78 -168.5 -78c-60 0 -113.5 13.667 -160.5 41
s-70.5 69.666 -70.5 126.999c0 38 13 92 39 162l137 357c27.333 68 43 130.667 47 188h-323c-118.667 -456 -190.334 -723.667 -215.001 -803c-58.667 -188.667 -141.334 -326.667 -248.001 -414c-94 -79.333 -195.667 -118.666 -305 -117.999
c-74 0 -128.667 16.333 -164 49s-53 75 -53 127z" />
    <glyph glyph-name="uniFB02" unicode="fl" horiz-adv-x="1185" 
d="M-487 -307c0 31.333 11.5059 60.333 34.5059 87s53.833 40 92.5 40c30 0 59 -10 87 -30s42 -49 42 -87c0 -13.333 -2.83301 -25.833 -8.5 -37.5s-15.334 -25.667 -29.001 -42s-21.834 -26.833 -24.501 -31.5c2.66699 -24.667 13 -36.667 31 -36
c70.667 0 126.167 31.667 166.5 95s85.833 177 136.5 341c30 98 58.667 197.833 86 299.5s56 214 86 337s48.333 197.5 55 223.5h-196l20 68h197l22 73c49.333 173.333 132.666 311.333 249.999 414c87.333 76.667 190.333 115 309 115c75.333 0 136.333 -18.667 183 -56
l243 50l-401 -1258c-32.667 -98 -49 -156.667 -49 -176c0 -35.333 19 -53 57 -53c83.333 0 160 90 230 270l36 -12c-40.667 -102.667 -83.5 -180 -128.5 -232s-101.167 -78 -168.5 -78c-58.667 0 -111.5 13.667 -158.5 41s-70.5 69.666 -70.5 126.999c0 34 12.333 88 37 162
l303 963c-22 15.333 -36 35.833 -42 61.5s-7.66699 62.5 -5 110.5c-10.667 26 -41.334 39 -92.001 39c-58.667 0 -111.334 -34.167 -158.001 -102.5s-91 -176.166 -133 -323.499l-37 -135h223l-22 -68h-217c-112 -428.667 -184.333 -696.334 -217 -803.001
c-58.667 -188.667 -141.334 -326.667 -248.001 -414c-94 -79.333 -195.667 -118.666 -305 -117.999c-74 0 -128.667 16.333 -164 49s-53 75 -53 127z" />
    <glyph glyph-name="uniFB03" unicode="ffi" horiz-adv-x="1763" 
d="M-487 -307c0 30 11.1719 58.665 33.5049 85.998s52.833 41 91.5 41c31.333 0 60.666 -10 87.999 -30s41 -49 41 -87c0 -15.333 -2.83301 -28.666 -8.5 -39.999s-15.334 -24.833 -29.001 -40.5s-21.834 -25.834 -24.501 -30.501c4 -24.667 15 -36.667 33 -36
c70.667 0 126.167 31.667 166.5 95s85.833 177 136.5 341c30 98 58.667 197.833 86 299.5s56 214 86 337s48.333 197.5 55 223.5h-196l20 68h197l20 73c46.667 173.333 127.334 311.333 242.001 414c83.333 76.667 183.666 115 300.999 115
c76.667 0 137.167 -18.833 181.5 -56.5s66.5 -82.5 66.5 -134.5v-2c32.667 35.333 58.667 61.333 78 78c88.667 76.667 193.667 115 315 115c82 0 148.167 -19.833 198.5 -59.5s75.5 -86.167 75.5 -139.5c0 -27.333 -11.833 -56.333 -35.5 -87s-56.167 -46 -97.5 -46
c-38 0 -71 9.16699 -99 27.5s-42 48.166 -42 89.499c0 18 8.83301 43.333 26.5 76s27.167 54.334 28.5 65.001c-9.33301 22 -36.666 33 -81.999 33c-125.333 0 -226.333 -142 -303 -426l-37 -135h562c-5.33301 -79.333 -38.333 -195.666 -99 -348.999l-121 -309
c-38 -98 -57 -157.333 -57 -178c0 -36.667 20.667 -55 62 -55c82 0 157.667 90 227 270l37 -12c-40.667 -102.667 -83.667 -180 -129 -232s-101.333 -78 -168 -78c-60 0 -113.667 13.667 -161 41s-71 69.666 -71 126.999c0 38 13 92 39 162l137 357
c28.667 75.333 45.334 138 50.001 188h-324c-112 -428.667 -184.333 -696.334 -217 -803.001c-58.667 -188.667 -141.334 -326.667 -248.001 -414c-53.333 -45.333 -100.5 -76.333 -141.5 -93s-86.5 -25 -136.5 -25c-68 0 -118.833 16.333 -152.5 49s-50.5 75 -50.5 127
c0 31.333 11.5 60.333 34.5 87s53.833 40 92.5 40c31.333 0 60.333 -9.66699 87 -29s40 -48.666 40 -87.999c0 -19.333 -7.16699 -39.166 -21.5 -59.499s-27.833 -37.5 -40.5 -51.5v-14c1.33301 -15.333 5.66602 -22.666 12.999 -21.999c56 0 105.167 33.667 147.5 101
s87.166 179 134.499 335c30 98 58.667 197.833 86 299.5s56 214 86 337s48.667 197.5 56 223.5h-379c-112 -428.667 -184.333 -696.334 -217 -803.001c-58.667 -188.667 -141.334 -326.667 -248.001 -414c-94 -79.333 -195.667 -118.666 -305 -117.999
c-74 0 -128.667 16.333 -164 49s-53 75 -53 127zM516.005 919.998l382.999 -0.000976562l23 73c26 84.667 56.667 157 92 217c-35.333 0 -67.833 8.66699 -97.5 26s-44.5 44.333 -44.5 81c0 16.667 3.16699 41.334 9.5 74.001s9.5 51 9.5 55c-8 23.333 -29.333 35 -64 35
c-57.333 0 -107.166 -33.5 -149.499 -100.5s-83.833 -175.5 -124.5 -325.5z" />
    <glyph glyph-name="uniFB04" unicode="ffl" horiz-adv-x="1796" 
d="M-487 -307c0 30 11.1797 58.666 33.5127 85.999s52.833 41 91.5 41c31.333 0 60.666 -10 87.999 -30s41 -49 41 -87c0 -15.333 -2.83301 -28.666 -8.5 -39.999s-15.334 -24.833 -29.001 -40.5s-21.834 -25.834 -24.501 -30.501c4 -24.667 15 -36.667 33 -36
c70.667 0 126.167 31.667 166.5 95s85.833 177 136.5 341c30 98 58.667 197.833 86 299.5s56 214 86 337s48.333 197.5 55 223.5h-196l20 68h197l20 73c46.667 173.333 127.334 311.333 242.001 414c83.333 76.667 183.666 115 300.999 115
c75.333 0 135.166 -18.167 179.499 -54.5s67.166 -80.5 68.499 -132.5c30 32.667 53.667 56.667 71 72c87.333 76.667 190.666 115 309.999 115c75.333 0 136 -18.667 182 -56l244 50l-402 -1258c-32.667 -98 -49 -156.667 -49 -176c0 -35.333 19 -53 57 -53
c83.333 0 160 90 230 270l37 -12c-40.667 -102.667 -83.667 -180 -129 -232s-101.333 -78 -168 -78c-58.667 0 -111.667 13.667 -159 41s-71 69.666 -71 126.999c0 34 12.333 88 37 162l303 963c-22 15.333 -36 35.833 -42 61.5s-7.66699 62.5 -5 110.5
c-10.667 26 -41.334 39 -92.001 39c-58.667 0 -111.167 -34.167 -157.5 -102.5s-90.833 -176.166 -133.5 -323.499l-37 -135h224l-23 -68h-217c-112 -428.667 -184.333 -696.334 -217 -803.001c-58.667 -188.667 -141.334 -326.667 -248.001 -414
c-94 -79.333 -189 -118.666 -285 -117.999c-64 0 -112.667 16.667 -146 50s-50 75.333 -50 126c0 31.333 11.5 60.333 34.5 87s53.833 40 92.5 40c30 0 58.667 -10 86 -30s41 -49 41 -87c0 -13.333 -2.83301 -25.833 -8.5 -37.5s-15.334 -25.667 -29.001 -42
s-21.834 -26.833 -24.501 -31.5v-14c1.33301 -15.333 5.66602 -22.666 12.999 -21.999c56 0 105.167 33.667 147.5 101s87.166 179 134.499 335c30 98 58.667 197.833 86 299.5s56 214 86 337s48.667 197.5 56 223.5h-379c-112 -428.667 -184.333 -696.334 -217 -803.001
c-58.667 -188.667 -141.334 -326.667 -248.001 -414c-94 -79.333 -195.667 -118.666 -305 -117.999c-74 0 -128.667 16.333 -164 49s-53 75 -53 127zM516.013 919.999l382.999 0.00195312l23 73c23.333 83.333 52.666 155.666 87.999 216.999
c-35.333 1.33301 -67.166 10.666 -95.499 27.999s-42.5 43.666 -42.5 78.999c0 16.667 3.16699 41.334 9.5 74.001s9.5 51 9.5 55c-8 23.333 -29.333 35 -64 35c-57.333 0 -107.166 -33.5 -149.499 -100.5s-83.833 -175.5 -124.5 -325.5z" />
    <glyph glyph-name=".notdef" horiz-adv-x="748" 
d="M68 0v1365h544v-1365h-544zM136 68h408v1229h-408v-1229z" />
    <glyph glyph-name="glyph1" horiz-adv-x="0" 
 />
    <glyph glyph-name="glyph1" horiz-adv-x="0" 
 />
    <glyph glyph-name="uni000D" unicode="&#xd;" horiz-adv-x="681" 
 />
    <glyph glyph-name="space" unicode=" " horiz-adv-x="444" 
 />
    <glyph glyph-name="exclam" unicode="!" horiz-adv-x="727" 
d="M119 125c0 39.333 14 73 42 101s62.5 42 103.5 42s75.5 -14 103.5 -42s42 -61.667 42 -101c0 -40.667 -14 -74.667 -42 -102s-62.5 -41 -103.5 -41s-75.5 13.5 -103.5 40.5s-42 61.167 -42 102.5zM315 438c26 139.333 48.668 306.333 68.001 501s31.666 303 36.999 325
c12 49.333 33.667 88.833 65 118.5s68.333 44.5 111 44.5c38 0 68.333 -12.333 91 -37s34 -57.334 34 -98.001c0 -38 -46.833 -156.667 -140.5 -356s-165.5 -368.666 -215.5 -507.999z" />
    <glyph glyph-name="quotedbl" unicode="&#x22;" horiz-adv-x="792" 
d="M233 1348c0 107.333 41.6689 160.998 125.002 160.998c38 0 68.333 -11.167 91 -33.5s34 -51.166 34 -86.499c0 -19.333 -8.16699 -45.666 -24.5 -78.999s-42.833 -83.5 -79.5 -150.5s-69.334 -131.167 -98.001 -192.5h-41c1.33301 76.667 0.666016 159 -2.00098 247z
M639.002 1348c0 107.333 41.0029 160.999 123.003 160.999c39.333 0 70 -11.167 92 -33.5s33 -51.166 33 -86.499c0 -19.333 -7.83301 -45.333 -23.5 -78s-42.334 -82.834 -80.001 -150.501s-70.834 -132.167 -99.501 -193.5h-41c1.33301 74 1.66602 131 0.999023 171
s-1.66699 81.833 -3 125.5s-2 71.834 -2 84.501z" />
    <glyph glyph-name="numbersign" unicode="#" horiz-adv-x="1126" 
d="M98 215l58 234l235 55l49 194l-237 -57l59 233l238 58l88 352h53l-84 -340l250 60l70 280h53l-66 -268l242 57l-57 -233l-244 -58l-47 -192l241 57l-57 -233l-244 -58l-92 -370h-53l88 356l-250 -57l-74 -299h-53l70 284zM451 518l247 57l50 195l-250 -59z" />
    <glyph glyph-name="dollar" unicode="$" horiz-adv-x="1214" 
d="M76 276c0 57.333 17.001 108.002 51.001 152.002s75.667 66 125 66c32.667 0 58.5 -9 77.5 -27s28.5 -42.667 28.5 -74c0 -28.667 -8.16699 -51.5 -24.5 -68.5s-36.666 -32.333 -60.999 -46s-41.5 -25.834 -51.5 -36.501c-2.66699 -8 -4 -20.333 -4 -37
c0 -83.333 72.333 -134 217 -152l121 484l-37 10c-80.667 19.333 -145.167 54.833 -193.5 106.5s-72.5 118.5 -72.5 200.5c0 121.333 47.167 217.166 141.5 287.499s208.166 108.166 341.499 113.499l51 205h144l-53 -213c76.667 -13.333 142.167 -38.5 196.5 -75.5
s83.5 -87.5 87.5 -151.5c0 -52 -14 -98.5 -42 -139.5s-62.333 -61.5 -103 -61.5c-30 0 -55 7.83301 -75 23.5s-30 36.5 -30 62.5c0 39.333 22.167 75.833 66.5 109.5s69.5 55.834 75.5 66.501c-6.66699 57.333 -69 97 -187 119l-112 -452l39 -11
c100 -26 175.167 -62.5 225.5 -109.5s75.5 -110.833 75.5 -191.5c0 -112 -45.833 -211 -137.5 -297s-220.167 -132.333 -385.5 -139l-71 -291h-150l74 297c-96.667 13.333 -178.834 43 -246.501 89s-101.5 106.333 -101.5 181zM473.001 963.002
c0 -79.333 36.333 -134.667 109 -166c6.66699 -4 18 -8.33301 34 -13l107 424c-75.333 -4 -135.833 -26.5 -181.5 -67.5s-68.5 -100.167 -68.5 -177.5zM584.001 49.001c88.667 6.66699 159.668 32.668 213.001 78.001s80 106.666 80 183.999
c-0.666992 93.333 -49.334 155 -146.001 185l-37 8z" />
    <glyph glyph-name="percent" unicode="%" horiz-adv-x="1499" 
d="M137 1028c0 104 43.3311 197.001 129.998 279.001s183.334 123 290.001 123c80.667 0 149.334 -23.5 206.001 -70.5s85 -108.833 85 -185.5c0 -110.667 -44.667 -204.667 -134 -282s-186 -116 -290 -116c-78 0 -145.333 23.667 -202 71s-85 107.666 -85 180.999z
M155.998 23.001l1198 1390l59 -39l-1202 -1390zM321.998 977.001c0 -100 36 -150 108 -150c60 0 114 40.333 162 121s72 173.667 72 279c0 102.667 -35.667 153.667 -107 153c-62.667 0 -117.5 -43.667 -164.5 -131s-70.5 -178 -70.5 -272zM714.998 225.001
c0 104 43 197.001 129 279.001s182.333 123 289 123c80.667 0 149.167 -23.5 205.5 -70.5s84.5 -108.833 84.5 -185.5c0 -110.667 -44.667 -204.667 -134 -282s-186 -116 -290 -116c-78 0 -144.833 23.667 -200.5 71s-83.5 107.666 -83.5 180.999zM896.998 174.002
c0 -100 36.333 -149.666 109 -148.999c61.333 0 115.833 40.167 163.5 120.5s71.5 173.166 71.5 278.499c0 102.667 -36 154 -108 154c-62.667 0 -117.667 -43.833 -165 -131.5s-71 -178.5 -71 -272.5z" />
    <glyph glyph-name="ampersand" unicode="&#x26;" horiz-adv-x="1701" 
d="M152 430c0 75.333 19.001 135.171 57.001 179.504s91.333 84.833 160 121.5c-94 64 -141.333 148.667 -142 254c0 68 29.333 131.167 88 189.5s130.334 87.5 215.001 87.5c90 0 165.5 -23.333 226.5 -70s101.167 -107.334 120.5 -182.001l-33 -17
c-57.333 88.667 -138 133 -242 133c-72.667 0 -128.334 -21.5 -167.001 -64.5s-58 -98.5 -58 -166.5c0 -66.667 16.333 -113 49 -139c92.667 34 152 51 178 51c44 0 79.333 -9.5 106 -28.5s40 -42.833 40 -71.5c0 -24.667 -9 -45.667 -27 -63s-43.333 -26 -76 -26
c-24.667 0 -48.834 2.83301 -72.501 8.5s-44.5 13 -62.5 22s-36.167 18.5 -54.5 28.5s-34.166 20 -47.499 30c-16.667 -6.66699 -34.167 -24.834 -52.5 -54.501s-27.5 -64.834 -27.5 -105.501c0 -105.333 56.333 -195.833 169 -271.5s258.334 -113.5 437.001 -113.5
c180 0 317.833 43 413.5 129s143.5 192.333 143.5 319c0 92.667 -28.333 163.667 -85 213s-127.334 74 -212.001 74c-62.667 0 -114.5 -16.667 -155.5 -50s-61.5 -78 -61.5 -134l-78 22c0 105.333 34.833 183.166 104.5 233.499s150.167 75.5 241.5 75.5
c18 0 55 -1.66699 111 -5s91.333 -5 106 -5c54.667 0 97.334 17 128.001 51s46 73 46 117l70 -22c0 -92.667 -29.667 -163.334 -89 -212.001s-140.333 -74.334 -243 -77.001c126.667 -52 190.334 -152.333 191.001 -301c0 -53.333 -9.33301 -107.666 -28 -162.999
s-49.167 -111 -91.5 -167s-93.833 -105.5 -154.5 -148.5s-137.334 -78.167 -230.001 -105.5s-194.334 -41 -305.001 -41c-170.667 0 -314.334 44.333 -431.001 133s-175 199.334 -175 332.001z" />
    <glyph glyph-name="quotesingle" unicode="'" horiz-adv-x="362" 
d="M233 1348c0 108 41.6689 161.665 125.002 160.998c38 0 68.333 -11.167 91 -33.5s34 -51.166 34 -86.499c0 -19.333 -8.16699 -45.666 -24.5 -78.999s-42.833 -83.5 -79.5 -150.5s-69.334 -131.167 -98.001 -192.5h-41c1.33301 76.667 0.666016 159 -2.00098 247z" />
    <glyph glyph-name="parenleft" unicode="(" horiz-adv-x="727" 
d="M51 379c0 448 241.001 832.333 723.001 1153l29 -37c-98 -87.333 -182.333 -188.666 -253 -303.999s-123.334 -233.833 -158.001 -355.5s-59.5 -235.334 -74.5 -341.001s-22.5 -211.167 -22.5 -316.5c0 -237.333 43 -392.333 129 -465l-37 -41
c-224 203.333 -336 439 -336 707z" />
    <glyph glyph-name="parenright" unicode=")" horiz-adv-x="727" 
d="M-66 -291c98 87.333 182.332 188.666 252.999 303.999s123.334 233.833 158.001 355.5s59.5 235.334 74.5 341.001s22.5 211.167 22.5 316.5c0 237.333 -43 392.333 -129 465l37 41c224 -203.333 336 -439 336 -707c0 -448 -241 -832.333 -723 -1153z" />
    <glyph glyph-name="asterisk" unicode="*" horiz-adv-x="704" 
d="M207 1063c0 36.667 25.334 54.9971 76.001 54.9971c102.667 0 170.667 3.33301 204 10c-34 28.667 -71.5 53.334 -112.5 74.001s-70.333 36.5 -88 47.5s-26.5 24 -26.5 39s6.5 30.333 19.5 46s29.833 23.5 50.5 23.5c15.333 0 29.333 -9.16699 42 -27.5
s30.667 -46 54 -83s48 -69.167 74 -96.5c4 35.333 5 80.666 3 135.999s-1 85.666 3 90.999c8 32.667 26.333 49 55 49c46.667 0 70 -19.667 70 -59c0 -15.333 -14.667 -46.166 -44 -92.499s-51 -90.5 -65 -132.5c39.333 16.667 83.333 39.5 132 68.5s80 43.5 94 43.5
c15.333 0 28.666 -6.66699 39.999 -20s17 -29 17 -47c0 -39.333 -28.667 -59.333 -86 -60c-101.333 0 -166.333 -2.66699 -195 -8c32.667 -27.333 69.167 -51.5 109.5 -72.5s69 -37.333 86 -49s25.5 -25.167 25.5 -40.5c0 -19.333 -7.16699 -36 -21.5 -50s-29 -21 -44 -21
s-28.5 8.5 -40.5 25.5s-29.333 44.333 -52 82s-47.667 72.167 -75 103.5c-5.33301 -45.333 -7 -92.5 -5 -141.5s2.33301 -77.833 1 -86.5c-6.66699 -32.667 -26.334 -49 -59.001 -49c-20.667 0 -37.167 5.5 -49.5 16.5s-18.5 25.5 -18.5 43.5
c0 16.667 14.333 47.334 43 92.001s50.334 88.334 65.001 131.001c-42 -15.333 -87.5 -37.666 -136.5 -66.999s-79.833 -44 -92.5 -44c-15.333 0 -28 6.5 -38 19.5s-15 29.833 -15 50.5z" />
    <glyph glyph-name="plus" unicode="+" horiz-adv-x="1150" 
d="M119 565v99h442v444h103v-444h442v-99h-442v-444h-103v444h-442z" />
    <glyph glyph-name="comma" unicode="," horiz-adv-x="501" 
d="M-6 -287c64 35.333 118.833 78.6689 164.5 130.002s71.5 105 77.5 161h-48c-98 0 -147 40.333 -147 121c0 42 15.333 78.167 46 108.5s70 45.5 118 45.5c98 -0.666992 147 -59 147 -175c0 -96.667 -33.667 -181.834 -101 -255.501s-148.333 -133.834 -243 -180.501z" />
    <glyph glyph-name="hyphen" unicode="-" horiz-adv-x="665" 
d="M37 420l45 172h545l-45 -172h-545z" />
    <glyph glyph-name="period" unicode="." horiz-adv-x="501" 
d="M49 129c0 40.667 14.667 75.834 44 105.501s65.166 44.5 107.499 44.5s77.833 -14.833 106.5 -44.5s43 -64.834 43 -105.501c0 -42 -14.333 -77.333 -43 -106s-64.167 -43 -106.5 -43s-78.166 14.333 -107.499 43s-44 64 -44 106z" />
    <glyph glyph-name="slash" unicode="/" horiz-adv-x="839" 
d="M-260 -397l1210 1927l86 -49l-1212 -1927z" />
    <glyph glyph-name="zero" unicode="0" horiz-adv-x="1216" 
d="M74 455c0 140.667 34.5 286.001 103.5 436.001s161.5 276.833 277.5 380.5s235.333 155.5 358 155.5c146 0 257 -40.167 333 -120.5s114 -200.5 114 -360.5c0 -139.333 -37 -285.333 -111 -438s-169 -280.334 -285 -383.001s-230.667 -154 -344 -154
c-139.333 0 -248.5 44.5 -327.5 133.5s-118.5 205.833 -118.5 350.5zM328 326.001c0 -204.667 57.334 -307.334 172.001 -308.001c69.333 0 144.666 65.333 225.999 196s148.333 280.334 201 449.001s79 311 79 427c0 194 -56.667 290.667 -170 290
c-69.333 0 -144.833 -62 -226.5 -186s-149 -269 -202 -435s-79.5 -310.333 -79.5 -433z" />
    <glyph glyph-name="one" unicode="1" horiz-adv-x="858" 
d="M18 0l8.99902 41.001c40.667 2.66699 78 9.33398 112 20.001c44 15.333 73.333 49 88 101l297 1071h-205l15 47c176 0 328.333 46.333 457 139h43l-351 -1249c-4 -16.667 -6 -30.334 -6 -41.001c0 -26 12.333 -45.667 37 -59
c28.667 -16.667 64.334 -26.334 107.001 -29.001l-11 -41h-592z" />
    <glyph glyph-name="two" unicode="2" horiz-adv-x="1138" 
d="M-78 0l33.001 122.998l125 94c302 222.667 507.167 386.5 615.5 491.5s175.5 213.5 201.5 325.5c26 113.333 23.333 198.333 -8 255s-81.333 85 -150 85c-52 0 -100.5 -13.333 -145.5 -40s-72.833 -57.667 -83.5 -93c-2.66699 -19.333 1.16602 -43.333 11.499 -72
s15.5 -55 15.5 -79c0 -39.333 -14.333 -75.166 -43 -107.499s-67.667 -48.5 -117 -48.5c-36.667 0 -68 12 -94 36s-39 55.667 -39 95c0 92.667 51.5 176.667 154.5 252s223.5 113 361.5 113c135.333 0 239.5 -39.333 312.5 -118s99.833 -176.667 80.5 -294
c-13.333 -84.667 -51.833 -161.5 -115.5 -230.5s-132.334 -124.333 -206.001 -166s-171.667 -97.667 -294 -168s-225.166 -136.166 -308.499 -197.499l-79 -59h602c48 0 89.333 14 124 42s71 67.667 109 119l35 -18l-209 -340h-889z" />
    <glyph glyph-name="three" unicode="3" horiz-adv-x="1114" 
d="M-66 121c0 38 14.3291 74.501 42.9961 109.501s63.667 52.5 105 52.5c34 0 62.333 -13.333 85 -40s39.834 -55.667 51.501 -87s33.5 -60.333 65.5 -87s73.333 -40 124 -40c76.667 0 149 39.167 217 117.5s114.333 172.833 139 283.5
c20.667 91.333 15.167 163.666 -16.5 216.999s-86.834 80 -165.501 80c-30 0 -71 -4 -123 -12l4 63c118.667 18 214.5 58 287.5 120s117.833 138 134.5 228c15.333 79.333 8.5 140.833 -20.5 184.5s-77.5 65.5 -145.5 65.5c-54.667 0 -105.5 -11.833 -152.5 -35.5
s-74.167 -47.167 -81.5 -70.5c1.33301 -8 5.83301 -19.667 13.5 -35s13.5 -32.166 17.5 -50.499s4 -39.166 0 -62.499c-6.66699 -32.667 -22 -59.834 -46 -81.501s-53 -32.5 -87 -32.5c-39.333 0 -70 13.167 -92 39.5s-29 58.833 -21 97.5
c16.667 76.667 67.334 143.667 152.001 201s193.334 86 326.001 86c138 0 240.667 -32.833 308 -98.5s93.666 -142.834 78.999 -231.501c-12 -78 -55.333 -141.5 -130 -190.5s-190.667 -92.833 -348 -131.5c5.33301 0 12.833 0.333008 22.5 1s17.167 1 22.5 1
c110.667 0 195.334 -35.5 254.001 -106.5s77.334 -163.833 56.001 -278.5c-24.667 -122.667 -104 -226 -238 -310s-308 -126 -522 -126c-105.333 0 -184.666 15 -237.999 45s-80 68.333 -80 115z" />
    <glyph glyph-name="four" unicode="4" horiz-adv-x="1128" 
d="M-2 449l19.998 74.998l916 895h135l-238 -889h80c64 0 113.333 14.333 148 43c36.667 31.333 60.334 64.333 71.001 99h41l-100 -375h-39c2.66699 16.667 4 29.667 4 39c0 30 -6 54 -18 72c-13.333 27.333 -55.666 41 -126.999 41h-82l-74 -277
c-2.66699 -13.333 -4 -23.666 -4 -30.999c0 -31.333 11 -54.333 33 -69c26 -13.333 58 -21.666 96 -24.999l-12 -47h-569l12 47c52 2.66699 88.667 9 110 19c44 16.667 72.667 48.667 86 96l76 287h-565zM112.998 529.998h473l168 629z" />
    <glyph glyph-name="five" unicode="5" horiz-adv-x="1079" 
d="M-63 129c0 39.333 15.667 76.166 47 110.499s68.666 51.5 111.999 51.5c32.667 0 57.667 -13.667 75 -41s28.333 -57 33 -89s17.834 -61.667 39.501 -89s53.834 -41 96.501 -41c94 0 179 40.833 255 122.5s129 182.834 159 303.501
c28.667 117.333 24.5 203.333 -12.5 258s-95.833 82 -176.5 82c-64 0 -129.167 -15 -195.5 -45s-117.166 -68.333 -152.499 -115l-59 12l262 750h745l15 -316l-47 -16c-9.33301 46.667 -25 80.167 -47 100.5s-57.667 30.5 -107 30.5h-565l-158 -463
c104 84.667 222.667 127 356 127c151.333 0 261.166 -43.667 329.499 -131s89.166 -193 62.499 -317c-31.333 -140.667 -112.333 -250 -243 -328s-291.334 -117 -482.001 -117c-117.333 0 -203.666 14.667 -258.999 44s-83 68 -83 116z" />
    <glyph glyph-name="six" unicode="6" horiz-adv-x="1155" 
d="M84 403c0 160 45.002 320.501 135.002 481.501s204.667 292.833 344 395.5s277.333 154 414 154c94 0 167.333 -20.5 220 -61.5s79 -90.167 79 -147.5c0 -52 -11.333 -94 -34 -126s-55.667 -48 -99 -48c-78 0 -118.333 57.333 -121 172
c-1.33301 54.667 -11.833 93.5 -31.5 116.5s-48.834 34.5 -87.501 34.5c-84.667 0 -172.334 -59.667 -263.001 -179s-169.667 -274 -237 -464l7 -6c100 95.333 208.333 143 325 143c101.333 0 183.333 -32 246 -96s94 -147.333 94 -250c0 -62.667 -13 -126 -39 -190
s-62.167 -123 -108.5 -177s-106.333 -98.167 -180 -132.5s-154.167 -51.5 -241.5 -51.5c-126.667 0 -228.667 37.667 -306 113s-116 181.666 -116 318.999zM305.002 297.001c-1.33301 -84.667 13.333 -151.501 44 -200.501s74.667 -73.5 132 -73.5
c64 0 121.333 29.333 172 88s89 128.5 115 209.5s40.333 163.833 43 248.5c4 152.667 -54 229.334 -174 230.001c-82 0 -156.833 -47.833 -224.5 -143.5s-103.5 -215.167 -107.5 -358.5z" />
    <glyph glyph-name="seven" unicode="7" horiz-adv-x="1024" 
d="M109 0l407 520c270.667 348 455.667 574 555 678h-579c-46.667 0 -89.5 -15.333 -128.5 -46s-80.167 -76.667 -123.5 -138l-41 12l204 373h895l-14 -56c-101.333 -109.333 -239.333 -275.833 -414 -499.5s-324 -420.167 -448 -589.5l-186 -254h-127z" />
    <glyph glyph-name="eight" unicode="8" horiz-adv-x="1140" 
d="M49 287c0 90 34.8311 171.832 104.498 245.499s157.167 126.834 262.5 159.501v8c-101.333 64 -152 148 -152 252c0 122.667 51.833 231.5 155.5 326.5s234.834 142.5 393.501 142.5c102.667 0 190.5 -30.667 263.5 -92s109.5 -134.333 109.5 -219
c0 -82 -34.833 -155 -104.5 -219s-153.834 -109 -252.501 -135v-8c160 -87.333 240 -196 240 -326c0 -120 -53.167 -225.833 -159.5 -317.5s-238.166 -137.5 -395.499 -137.5c-147.333 0 -261.666 30 -342.999 90s-122 136.667 -122 230zM226.998 275.999
c0 -75.333 26.001 -136.833 78.001 -184.5s123 -71.5 213 -71.5c83.333 0 155.666 30.5 216.999 91.5s92 135.167 92 222.5c0 61.333 -25.833 118 -77.5 170s-145.167 108 -280.5 168c-75.333 -38 -134.5 -91.5 -177.5 -160.5s-64.5 -147.5 -64.5 -235.5zM495.999 1057
c0 -61.333 20 -112.5 60 -153.5s114.667 -84.167 224 -129.5c69.333 30 128 76.5 176 139.5s72 133.833 72 212.5c0 66.667 -21 123.667 -63 171s-99.333 71 -172 71c-74 0 -142 -30.667 -204 -92s-93 -134.333 -93 -219z" />
    <glyph glyph-name="nine" unicode="9" horiz-adv-x="1155" 
d="M-31 201c0 45.333 11.665 81.8359 34.998 109.503s54 41.5 92 41.5c42 0 73.333 -13 94 -39s32.334 -71.667 35.001 -137c1.33301 -56 9.16602 -95.167 23.499 -117.5s46.166 -33.5 95.499 -33.5c102.667 0 200.667 64.833 294 194.5s172 290.5 236 482.5l-8 7
c-35.333 -32.667 -64.666 -58.334 -87.999 -77.001s-56.833 -37.167 -100.5 -55.5s-88.5 -27.5 -134.5 -27.5c-104 0 -188.333 31.333 -253 94s-97 146.667 -97 252c0 148.667 55.5 277.667 166.5 387s247.167 164 408.5 164c118.667 0 217.334 -36.5 296.001 -109.5
s118 -177.167 118 -312.5c0 -170.667 -39.667 -336.834 -119 -498.501s-189 -295.167 -329 -400.5s-289 -158 -447 -158c-95.333 0 -172.166 21.167 -230.499 63.5s-87.5 99.166 -87.5 170.499zM456.998 852.003c0 -151.333 56.668 -227 170.001 -227
c87.333 0 165.166 52.167 233.499 156.5s102.5 221.5 102.5 351.5c0 80.667 -15.5 145.167 -46.5 193.5s-78.5 72.5 -142.5 72.5c-87.333 0 -162 -55.667 -224 -167s-93 -238 -93 -380z" />
    <glyph glyph-name="colon" unicode=":" horiz-adv-x="665" 
d="M86 129c0 40.667 14.667 75.834 44 105.501s65.166 44.5 107.499 44.5s77.833 -14.833 106.5 -44.5s43 -64.834 43 -105.501c0 -42 -14.333 -77.333 -43 -106s-64.167 -43 -106.5 -43s-78.166 14.333 -107.499 43s-44 64 -44 106zM274 778.5
c0 42.333 14.667 78.166 44 107.499s65.166 44 107.499 44s78.333 -14.667 108 -44s44.5 -65.166 44.5 -107.499s-14.833 -77.833 -44.5 -106.5s-65.667 -43 -108 -43s-78.166 14.333 -107.499 43s-44 64.167 -44 106.5z" />
    <glyph glyph-name="semicolon" unicode=";" horiz-adv-x="665" 
d="M35 -287c64 35.333 118.832 78.6689 164.499 130.002s71.167 105 76.5 161h-47c-98 0 -147 40.333 -147 121c0 42 15.333 78.167 46 108.5s69.334 45.5 116.001 45.5c99.333 -0.666992 149 -59 149 -175c0 -96.667 -33.833 -181.834 -101.5 -255.501
s-148.5 -133.834 -242.5 -180.501zM273.999 778.503c0 42.333 14.667 78.166 44 107.499s65.166 44 107.499 44s78.333 -14.667 108 -44s44.5 -65.166 44.5 -107.499s-14.833 -77.833 -44.5 -106.5s-65.667 -43 -108 -43s-78.166 14.333 -107.499 43s-44 64.167 -44 106.5z
" />
    <glyph glyph-name="less" unicode="&#x3c;" horiz-adv-x="1150" 
d="M145 571v86l906 420v-110l-770 -353l770 -352v-110z" />
    <glyph glyph-name="equal" unicode="=" horiz-adv-x="1150" 
d="M160 401v99h905v-99h-905zM160 729v98h905v-98h-905z" />
    <glyph glyph-name="greater" unicode="&#x3e;" horiz-adv-x="1150" 
d="M168 152v110l770 352l-770 353v110l905 -420v-86z" />
    <glyph glyph-name="question" unicode="?" horiz-adv-x="884" 
d="M135 122.5c0 41 14 75.5 42 103.5s62.5 42 103.5 42s75.5 -14 103.5 -42s42 -62.5 42 -103.5s-14 -74.667 -42 -101s-62.5 -39.5 -103.5 -39.5s-75.5 13.167 -103.5 39.5s-42 60 -42 101zM229 524c0 69.333 20.498 131.832 61.498 187.499s118.833 109.834 233.5 162.501
c94 44 160.5 88.167 199.5 132.5s58.5 100.833 58.5 169.5c0 56 -20 104.333 -60 145s-95.667 61 -167 61c-69.333 0 -126.333 -19 -171 -57s-67 -84.333 -67 -139c0 -40.667 12.667 -75.167 38 -103.5s59.333 -42.5 102 -42.5l6 -34c-54.667 0 -99 16 -133 48
s-51 75.333 -51 130c0 70.667 29 129.667 87 177s135.333 71 232 71c114.667 0 207.834 -31.167 279.501 -93.5s107.5 -138.5 107.5 -228.5c0 -174.667 -94.333 -297 -283 -367c-161.333 -60 -267.166 -109.667 -317.499 -149s-75.5 -86.333 -75.5 -141
c0 -41.333 13.667 -80.333 41 -117l-35 -8c-22 18 -41.833 46 -59.5 84s-26.5 75.333 -26.5 112z" />
    <glyph glyph-name="at" unicode="@" horiz-adv-x="2134" 
d="M197 358c0 166.667 42.6641 324.833 127.997 474.5s207.5 272.167 366.5 367.5s336.167 143 531.5 143c150 0 276.5 -31 379.5 -93s177 -140.833 222 -236.5s67.5 -202.834 67.5 -321.501c0 -164 -54.167 -309 -162.5 -435s-233.5 -189 -375.5 -189
c-60 0 -108.5 14.333 -145.5 43s-56.833 68.667 -59.5 120l-6 2c-72.667 -108 -143.667 -161.667 -213 -161c-62.667 0 -115.834 20.833 -159.501 62.5s-65.5 108.167 -65.5 199.5c0 65.333 19.667 139 59 221s97 155.333 173 220s155.667 97 239 97
c32.667 0 61.167 -10.833 85.5 -32.5s40.166 -51.5 47.499 -89.5h6l43 110h170l-201 -538c-18 -46.667 -27 -85 -27 -115c0 -56 24.667 -84 74 -84c114.667 0 219.834 55.333 315.501 166s143.5 249.334 143.5 416.001c0 170.667 -54 308.5 -162 413.5
s-259.333 157.5 -454 157.5c-217.333 0 -405.166 -86 -563.499 -258s-237.5 -388.333 -237.5 -649c0 -230.667 62.5 -408.5 187.5 -533.5s282.833 -187.5 473.5 -187.5c217.333 0 399.333 51.167 546 153.5s254.334 250.5 323.001 444.5l36 -13
c-64 -212.667 -179.667 -378 -347 -496s-355.333 -177 -564 -177c-114.667 0 -224.167 17.333 -328.5 52s-197.166 84.5 -278.499 149.5s-146.166 149 -194.499 252s-72.5 217.833 -72.5 344.5zM896.997 292.999c0 -104 21.999 -156 65.999 -156
c58.667 0 123.334 58 194.001 174l133 369c-13.333 100 -52 149.667 -116 149c-65.333 0 -127.833 -62.667 -187.5 -188s-89.5 -241.333 -89.5 -348z" />
    <glyph glyph-name="A" unicode="A" horiz-adv-x="1253" 
d="M-274 0l12.002 40.999c40.667 2.66699 87.667 16.334 141 41.001c56 26 119.667 80 191 162l940 1177h57v-1239c0 -61.333 15.667 -99.333 47 -114c27.333 -15.333 69 -24.333 125 -27l-12 -41h-652l11 41c70.667 4 124.667 13 162 27c45.333 18 67.666 54 66.999 108
v336h-444l-191 -248c-49.333 -66.667 -74 -109 -74 -127c0 -27.333 21.667 -49.5 65 -66.5s86.666 -26.833 129.999 -29.5l-12 -41h-563zM420.002 574.999h395v490c-4 -4 -135.667 -167.333 -395 -490z" />
    <glyph glyph-name="B" unicode="B" horiz-adv-x="1282" 
d="M-104 0l9.99805 40.999c72.667 4 123 10.667 151 20c44 15.333 73.333 49 88 101l295 1057c5.33301 24.667 8.33301 40.334 9 47.001c0 23.333 -13.667 41.666 -41 54.999c-39.333 20.667 -84.666 32.334 -135.999 35.001l11 43h659
c114.667 0 204.834 -21.833 270.501 -65.5s98.5 -108.5 98.5 -194.5c0 -178.667 -141.333 -304.334 -424 -377.001v-19c224 -39.333 336 -134.666 336 -285.999c0 -138 -61.5 -248.667 -184.5 -332s-286.833 -125 -491.5 -125h-651zM409.998 181.999
c-1.33301 -8.66699 -2.00098 -16.998 -2.00098 -24.998c0 -32.667 9.33301 -56.334 28 -71.001c22.667 -18.667 63.667 -28.334 123 -29.001c116 0 209.833 39.667 281.5 119s108.834 167.333 111.501 264v6c0 80.667 -25.333 145 -76 193c-52 49.333 -116.667 74 -194 74
c-32.667 0 -75 -1.33301 -127 -4zM570.997 768.001h68c116 0 211.833 35.5 287.5 106.5s113.5 153.5 113.5 247.5c0 70.667 -16.333 125.167 -49 163.5s-81 57.5 -145 57.5c-24.667 0 -63 -1.33301 -115 -4z" />
    <glyph glyph-name="C" unicode="C" horiz-adv-x="1257" 
d="M74 492c0 170.667 39.166 328.001 117.499 472.001s182.333 256.833 312 338.5s269.167 122.5 418.5 122.5c114.667 0 214.334 -34.667 299.001 -104l77 98h82l-98 -506h-47c-15.333 150 -46.833 263 -94.5 339s-128.834 114 -243.501 114
c-134 0 -256.167 -82 -366.5 -246s-167.833 -357 -172.5 -579v-19c0 -138.667 28 -250 84 -334c58.667 -88 146.334 -132.333 263.001 -133c95.333 0 178.5 27 249.5 81s144.167 137 219.5 249l45 -31c-38 -58.667 -73.167 -107.334 -105.5 -146.001
s-72 -78.167 -119 -118.5s-101 -70.5 -162 -90.5s-127.5 -30 -199.5 -30c-176 0 -313.167 48.167 -411.5 144.5s-147.5 222.5 -147.5 378.5z" />
    <glyph glyph-name="D" unicode="D" horiz-adv-x="1507" 
d="M-104 0l9.99805 40.999c72.667 4 123 10.667 151 20c44 15.333 73.333 49 88 101l295 1057c5.33301 24.667 8.33301 40.334 9 47.001c0 23.333 -13.667 41.666 -41 54.999c-39.333 20.667 -84.666 32.334 -135.999 35.001l11 43h620c76.667 0 148.167 -9.33301 214.5 -28
s129.5 -47.667 189.5 -87s107 -95.833 141 -169.5s51 -160.5 51 -260.5c-1.33301 -173.333 -48.666 -325.833 -141.999 -457.5s-213.5 -230.667 -360.5 -297s-307.167 -99.5 -480.5 -99.5h-620zM419.998 216.999c-5.33301 -20 -7.99902 -37.999 -7.99902 -53.999
c0 -25.333 6.66699 -46.333 20 -63c21.333 -27.333 57.666 -41 108.999 -41c195.333 0 357.5 77.667 486.5 233s193.5 336.666 193.5 543.999c0 164 -32.833 289.167 -98.5 375.5s-163.5 129.5 -293.5 129.5c-23.333 0 -55.333 -1.33301 -96 -4z" />
    <glyph glyph-name="E" unicode="E" horiz-adv-x="1275" 
d="M-123 0l14.001 40.998c66.667 0 123.334 8.33301 170.001 25c45.333 16.667 75 50.667 89 102l290 1049c5.33301 24.667 8.33301 41 9 49c0 24.667 -13.667 43 -41 55c-46.667 20.667 -97.334 32.334 -152.001 35.001l12 43h1110l-88 -320h-47v17
c0 60 -13.667 113.5 -41 160.5s-62.666 73.167 -105.999 78.5c-38 5.33301 -94 8 -168 8h-193l-166 -589h154c69.333 0 130.666 21.667 183.999 65c38 30 75.667 91.667 113 185h49l-160 -570h-45c4 24.667 6 55.334 6 92.001c0 53.333 -5.33301 89 -16 107
c-28.667 42 -77.667 63 -147 63h-152l-127 -452c-13.333 -45.333 -20 -78.333 -20 -99c0 -35.333 18.333 -58.833 55 -70.5s96 -17.5 178 -17.5c57.333 0 99.666 0.666992 126.999 2s56.333 5.5 87 12.5s55.667 17.833 75 32.5c42 34 87.667 81.833 137 143.5
s83.333 110.167 102 145.5h52l-134 -393h-1210z" />
    <glyph glyph-name="F" unicode="F" horiz-adv-x="1214" 
d="M-123 0l14.001 41c66.667 0 123.334 8.33301 170.001 25c45.333 16.667 75 50.667 89 102l290 1049c5.33301 24.667 8.33301 41 9 49c0 24.667 -13.667 43 -41 55c-46.667 20.667 -97.334 32.334 -152.001 35.001l12 43h1162l-89 -332h-47
c0 72.667 -12.833 133.834 -38.5 183.501s-64.5 77.834 -116.5 84.501c-42 5.33301 -98 8 -168 8h-238l-166 -593h168c78 0 145 21 201 63c18 13.333 38.167 38.166 60.5 74.499s41.166 73.5 56.499 111.5h51l-162 -575h-51c4.66699 25.333 7 57.666 7 96.999v15
c-0.666992 46.667 -5.66699 77 -15 91c-28.667 42 -83.334 63 -164.001 63h-168l-141 -508c-5.33301 -16.667 -8.33301 -33 -9 -49c0 -24.667 13.667 -43 41 -55c46.667 -20.667 97.334 -32.334 152.001 -35.001l-12 -43h-705z" />
    <glyph glyph-name="G" unicode="G" 
d="M74 500c0 158.667 38.165 308.5 114.498 449.5s182.833 255.5 319.5 343.5s286 132 448 132c126.667 0 233.334 -34.667 320.001 -104l86 98h78l-113 -491h-45c-19.333 292 -140.666 438 -363.999 438c-143.333 0 -271.833 -82.333 -385.5 -247
s-171.167 -365 -172.5 -601v-11c0 -148.667 26.667 -264 80 -346c54.667 -84 133.334 -126 236.001 -126c80.667 0 141.167 23.5 181.5 70.5s74.833 125.167 103.5 234.5l22 80c4 18 6 34 6 48c0 36.667 -14.333 61 -43 73c-36.667 16.667 -100 27.334 -190 32.001l10 45
h719l-10 -45c-76.667 -12 -124 -21.333 -142 -28c-49.333 -19.333 -79.333 -55 -90 -107l-129 -477l-27 -8l-96 125c-52 -22 -95.667 -40.833 -131 -56.5s-71.833 -28.334 -109.5 -38.001s-76.834 -14.5 -117.501 -14.5c-162.667 0 -296.5 44 -401.5 132
s-157.5 221 -157.5 399z" />
    <glyph glyph-name="H" unicode="H" horiz-adv-x="1617" 
d="M-104 0l9.99805 40.9961c72.667 4 123 10.667 151 20c44 15.333 73.333 49 88 101l295 1057c5.33301 24.667 8.33301 40.334 9 47.001c0 23.333 -13.667 41.666 -41 54.999c-48 20.667 -93.333 32.334 -136 35.001l11 43h680l-13 -43
c-53.333 -2.66699 -105.666 -11 -156.999 -25c-45.333 -13.333 -75.666 -47.333 -90.999 -102l-129 -467h598l127 457c5.33301 24.667 8.33301 41 9 49c0 20.667 -13.667 38.334 -41 53.001c-52 20.667 -100 32.334 -144 35.001l15 43h678l-15 -43
c-53.333 -2.66699 -103.666 -11 -150.999 -25c-44 -12 -73.333 -46 -88 -102l-297 -1059c-5.33301 -24.667 -8.33301 -39 -9 -43c0 -19.333 14.333 -37.666 43 -54.999c28.667 -16.667 75.334 -27 140.001 -31l-13 -41h-680l13 41c79.333 4 131.666 10.667 156.999 20
c45.333 15.333 75 49 89 101l151 534h-600l-149 -526c-4 -18 -6.33301 -31.667 -7 -41c0 -24.667 14.333 -43.667 43 -57c10.667 -5.33301 32.167 -11.5 64.5 -18.5s58.166 -11.167 77.499 -12.5l-11 -41h-677z" />
    <glyph glyph-name="I" unicode="I" horiz-adv-x="774" 
d="M-98 0l9.99902 40.999c72.667 4 123 10.667 151 20c44 15.333 73.667 49 89 101l294 1057c5.33301 24.667 8.33301 40.334 9 47.001c0 23.333 -13.667 41.666 -41 54.999c-48 20.667 -93 32.334 -135 35.001l10 43h680l-13 -43
c-53.333 -2.66699 -105.666 -11 -156.999 -25c-45.333 -13.333 -75.333 -47.333 -90 -102l-297 -1059c-4 -18 -6 -31.667 -6 -41c0 -24.667 14.333 -43.667 43 -57c10.667 -5.33301 32 -11.5 64 -18.5s57.667 -11.167 77 -12.5l-10 -41h-678z" />
    <glyph glyph-name="J" unicode="J" horiz-adv-x="1112" 
d="M-113 -147c0 36.667 13.6699 68.002 41.0029 94.002s59.666 39 96.999 39c46.667 0 81.834 -11.667 105.501 -35s35.5 -54 35.5 -92c0 -28.667 -17 -67 -51 -115c0 -15.333 5.83301 -28.333 17.5 -39s21.5 -16 29.5 -16c78 0 139.833 28.333 185.5 85s91.5 169 137.5 337
c22 79.333 64.333 260 127 542h-268l12 62l271 6c23.333 70.667 53.333 132 90 184s96 122.333 178 211c-84.667 -22 -160.334 -33 -227.001 -33c-50.667 0 -96.167 11.667 -136.5 35s-71.333 49 -93 77s-47.334 54.333 -77.001 79s-60.167 37.667 -91.5 39
c-30 0 -54.167 -7.5 -72.5 -22.5s-27.5 -33.5 -27.5 -55.5c0 -24.667 9.66699 -51.334 29 -80.001c45.333 -1.33301 81.833 -13.333 109.5 -36s41.5 -52.334 41.5 -89.001c0 -30 -10.5 -56.167 -31.5 -78.5s-50.167 -33.5 -87.5 -33.5c-40.667 0 -73.667 19 -99 57
s-38 89.667 -38 155c0 76.667 28.667 147.167 86 211.5s128.333 96.5 213 96.5c49.333 0 91.666 -8.16699 126.999 -24.5s64.333 -37.166 87 -62.499s44.667 -51 66 -77s47.666 -50.333 78.999 -73s68 -38 110 -46h70c23.333 27.333 46.5 53.666 69.5 78.999
s44.5 47.833 64.5 67.5s39.167 35.667 57.5 48s34.166 18.5 47.499 18.5c54.667 0 82 -24 82 -72c0 -23.333 -5 -43.5 -15 -60.5s-23.667 -30.5 -41 -40.5s-37.166 -19.167 -59.499 -27.5s-45.833 -14.833 -70.5 -19.5s-50 -9.66699 -76 -15
c-40.667 -96.667 -76 -230.667 -106 -402l264 6l-23 -78l-256 3c-4 -18 -14.167 -60.833 -30.5 -128.5s-32.666 -133.167 -48.999 -196.5s-34.833 -128 -55.5 -194c-49.333 -164 -128.5 -287.833 -237.5 -371.5s-222.833 -125.5 -341.5 -125.5
c-80.667 0 -145.667 19 -195 57s-74 88 -74 150z" />
    <glyph glyph-name="K" unicode="K" horiz-adv-x="1482" 
d="M-104 0l9.99902 41.001c72.667 4 123 10.667 151 20c44 15.333 73.333 49 88 101l295 1057c5.33301 24.667 8.33301 40.334 9 47.001c0 23.333 -13.667 41.666 -41 54.999c-48 20.667 -93.333 32.334 -136 35.001l11 43h680l-13 -43
c-53.333 -2.66699 -105.666 -11 -156.999 -25c-45.333 -13.333 -75.666 -47.333 -90.999 -102l-139 -504h25c172 114.667 320.5 224.167 445.5 328.5s194.167 180.5 207.5 228.5c0.666992 4 1 7.66699 1 11c0 35.333 -49.333 56.333 -148 63l10 43h582l-13 -43
c-134 -6.66699 -239 -42.334 -315 -107.001c-46.667 -38 -111 -92.167 -193 -162.5s-150.167 -127.333 -204.5 -171s-106.833 -82.5 -157.5 -116.5c84.667 -120 206.667 -317.333 366 -592c36.667 -66.667 79.667 -111.667 129 -135c34 -16.667 79.333 -26.334 136 -29.001
l-11 -43h-688l8 43c61.333 4 105.333 11.833 132 23.5s40 31.834 40 60.501c0 30 -35 104.667 -105 224s-143.333 231 -220 335h-37l-147 -516c-4 -16.667 -6.33301 -30.334 -7 -41.001c0 -24.667 14.333 -43.667 43 -57c10.667 -5.33301 32.167 -11.5 64.5 -18.5
s58.166 -11.167 77.499 -12.5l-11 -41h-677z" />
    <glyph glyph-name="L" unicode="L" horiz-adv-x="1249" 
d="M-123 0l13.998 41c66.667 0 123.334 8.33301 170.001 25c45.333 16.667 75 50.667 89 102l290 1049c5.33301 24.667 8.33301 41 9 49c0 24.667 -13.667 43 -41 55c-46.667 20.667 -97.334 32.334 -152.001 35.001l12 43h695l-13 -43
c-53.333 -2.66699 -105.666 -11 -156.999 -25c-45.333 -13.333 -75.666 -47.333 -90.999 -102l-274 -985c-12.667 -41.333 -19 -75 -19 -101c0 -24 5.33301 -41.333 16 -52c22.667 -22.667 88.667 -34 198 -34c158.667 0 259 16.333 301 49
c39.333 30 84.333 74.167 135 132.5s89.667 111.166 117 158.499h47l-138 -397h-1208z" />
    <glyph glyph-name="M" unicode="M" horiz-adv-x="1865" 
d="M-150 0l13 40.998c24.667 1.33301 60.167 7.83301 106.5 19.5s78.5 23.5 96.5 35.5c52 32.667 99 126.334 141 281.001l205 753c8 30.667 12 57.667 12 81c0 38 -10.333 67 -31 87c-35.333 35.333 -90.666 54.666 -165.999 57.999l11 43h479l180 -1012l551 836
c45.333 68 76.666 126.667 93.999 176h514l-12 -43c-64 -2.66699 -116.667 -11 -158 -25c-45.333 -13.333 -75.333 -47.333 -90 -102l-274 -1059c-4 -12 -6 -25.667 -6 -41c0 -24.667 14.333 -43.667 43 -57c34 -18 83 -28.333 147 -31l-8 -41h-676l10 41
c68 4 116 10.667 144 20c46.667 16.667 76 50.334 88 101.001l268 1063l-801 -1202h-39c-5.33301 108 -15.333 202.667 -30 284l-158 895l-217 -813c-22 -80.667 -33 -143.334 -33 -188.001c0 -44 9 -74.667 27 -92c13.333 -15.333 42.5 -30.166 87.5 -44.499
s79.167 -22.166 102.5 -23.499l-10 -41h-611z" />
    <glyph glyph-name="N" unicode="N" horiz-adv-x="1433" 
d="M-150 0l12.998 40.999c24.667 1.33301 59.834 7.83301 105.501 19.5s78.167 23.5 97.5 35.5c54.667 34 102.334 127.667 143.001 281l194 727c5.33301 22 8.33301 45.333 9 70c0 49.333 -13 86.666 -39 111.999c-42 42 -110.333 65.333 -205 70l12 43h477l439 -1010
l168 631c22 83.333 33 146.333 33 189c0 43.333 -9.66699 72.333 -29 87c-16.667 12 -46.5 25 -89.5 39s-76.833 21.667 -101.5 23l10 41h605l-11 -41c-22 -1.33301 -56.167 -7.5 -102.5 -18.5s-78.833 -21.833 -97.5 -32.5c-54.667 -30 -102 -121.667 -142 -275l-280 -1046
h-66l-504 1175l-204 -774c-22 -78 -33 -140.667 -33 -188c0 -44 9 -75 27 -93c13.333 -15.333 42.833 -29.666 88.5 -42.999s80.167 -20.666 103.5 -21.999l-10 -41h-611z" />
    <glyph glyph-name="O" unicode="O" 
d="M82 526c0 125.333 25.666 248.164 76.999 368.497s124 224.833 218 313.5c158.667 147.333 333.334 221.333 524.001 222c154 0 281.667 -48 383 -144c48 -45.333 87 -103.666 117 -174.999s45 -148 45 -230c0 -277.333 -96.333 -507.666 -289 -690.999
c-161.333 -148.667 -341 -223 -539 -223c-101.333 0 -193.833 23.167 -277.5 69.5s-148.167 112.833 -193.5 199.5c-44 84.667 -65.667 181.334 -65 290.001zM351.999 433.998v-17c0 -258.667 90.667 -388 272 -388h1c132.667 0 252.667 84 360 252
c56 88.667 101.5 192.667 136.5 312s53.167 241 54.5 365v17c0 262 -89.667 393 -269 393c-126.667 0 -239.334 -71 -338.001 -213c-62.667 -88.667 -114.167 -196.5 -154.5 -323.5s-61.166 -259.5 -62.499 -397.5z" />
    <glyph glyph-name="P" unicode="P" horiz-adv-x="1214" 
d="M-104 0l10.001 40.999c72.667 4 123 10.667 151 20c44 15.333 73.333 49 88 101l295 1057c5.33301 24.667 8.33301 40.334 9 47.001c0 23.333 -13.667 41.666 -41 54.999c-48 20.667 -93.333 32.334 -136 35.001l11 43h612c131.333 0 233.166 -25.167 305.499 -75.5
s108.5 -125.5 108.5 -225.5c0 -142 -63.167 -254 -189.5 -336s-291.166 -123 -494.499 -123h-88l-131 -471c-4 -13.333 -6.33301 -26.333 -7 -39c0 -24.667 14.333 -43.667 43 -57c10.667 -5.33301 32.167 -11.5 64.5 -18.5s58.166 -11.167 77.499 -12.5l-11 -41h-677z
M555.001 699.999h90c121.333 0 216.833 34.833 286.5 104.5s104.5 161.167 104.5 274.5c0 174.667 -76.333 262 -229 262h-74z" />
    <glyph glyph-name="Q" unicode="Q" horiz-adv-x="1347" 
d="M-57 100c0 35.333 24.833 67.167 74.5 95.5s110.834 42.5 183.501 42.5c91.333 0 208 -36.333 350 -109c52 20.667 106.667 54.834 164 102.501s113.333 107.667 168 180s100.667 161.833 138 268.5s58 219.334 62 338.001v25c0 97.333 -21.667 174.666 -65 231.999
c-48 62 -115.667 93 -203 93c-142 0 -258.667 -60.667 -350 -182s-140 -260 -146 -416v-16c0 -66.667 15.667 -123.334 47 -170.001c34.667 -49.333 83.334 -74 146.001 -74c74 0 134.167 23.5 180.5 70.5s70.833 122.5 73.5 226.5v12c0 42 -6.66699 81.333 -20 118
c-14 40 -34.667 62.333 -62 67c8 -27.333 12 -53.333 12 -78c-1.33301 -38 -12.5 -67.333 -33.5 -88s-47.833 -31 -80.5 -31c-66 0 -99 38 -99 114v11c1.33301 39.333 19.833 73.333 55.5 102s81.5 43 137.5 43c72.667 0 128.667 -23.667 168 -71
c36.667 -44.667 55 -97.667 55 -159v-13c-4 -110.667 -48.333 -202.5 -133 -275.5s-173.334 -109.5 -266.001 -109.5c-112 0 -202.5 35.833 -271.5 107.5s-103.5 164.167 -103.5 277.5c0 157.333 66.5 296 199.5 416s291.833 180 476.5 180
c168 0 301.167 -45.167 399.5 -135.5s147.5 -205.833 147.5 -346.5c0 -350.667 -248.667 -636 -746 -856c16.667 -9.33301 38.667 -23.666 66 -42.999c42 -28.667 109.833 -82.834 203.5 -162.501s176 -141 247 -184s139.167 -64.5 204.5 -64.5c53.333 0 89 0.666992 107 2
l-9 30c-28.667 4 -52.167 16.667 -70.5 38s-27.5 48.333 -27.5 81c0 38 14 70.333 42 97s63 40 105 40c38 0 67.667 -12.667 89 -38s32 -59 32 -101c0 -61.333 -39.167 -122.666 -117.5 -183.999s-165.5 -92 -261.5 -92c-57.333 0 -110.833 6.33301 -160.5 19
s-90.834 27 -123.501 43s-67.5 40.333 -104.5 73s-64 59.167 -81 79.5s-42 51.666 -75 93.999s-56.167 71.833 -69.5 88.5c-54.667 68 -91.667 111.667 -111 131c-108 -46.667 -201.333 -70 -280 -70c-78 0 -141.5 11 -190.5 33s-73.5 54.667 -73.5 98zM111 106.001
c24.667 -60 65.333 -90.002 122 -90.002c68.667 0.666992 142.667 21.334 222 62.001c-76.667 76.667 -160 115 -250 115c-23.333 0 -43.5 -9.66699 -60.5 -29s-28.167 -38.666 -33.5 -57.999z" />
    <glyph glyph-name="R" unicode="R" horiz-adv-x="1435" 
d="M-104 0l9.99902 40.9971c72.667 4 123 10.667 151 20c44 15.333 73.333 49 88 101l295 1057c5.33301 24.667 8.33301 40.334 9 47.001c0 23.333 -13.667 41.666 -41 54.999c-48 20.667 -93.333 32.334 -136 35.001l11 43h602c144.667 0 256.5 -23.667 335.5 -71
s118.5 -115.333 118.5 -204c0 -106.667 -41.167 -193.334 -123.5 -260.001s-188.5 -115 -318.5 -145v-17c65.333 -12 117.166 -39.5 155.499 -82.5s58.833 -99.167 61.5 -168.5c1.33301 -24.667 2.33301 -66.667 3 -126s2.33398 -102.666 5.00098 -129.999
c6.66699 -83.333 32 -125 76 -125c32.667 0 61.334 20.833 86.001 62.5s50 105.5 76 191.5l49 -13c-38 -118.667 -77.833 -204 -119.5 -256s-105.5 -78 -191.5 -78c-161.333 0 -242 91.667 -242 275v176c0 36.667 -0.666992 64.334 -2 83.001
s-6.16602 40.834 -14.499 66.501s-20.666 44.667 -36.999 57s-39.833 23 -70.5 32s-69.334 13.5 -116.001 13.5h-67l-143 -510c-4 -18 -6.33301 -31.667 -7 -41c0 -24.667 14.333 -43.667 43 -57c10.667 -5.33301 32.167 -11.5 64.5 -18.5s58.166 -11.167 77.499 -12.5
l-11 -41h-677zM564.999 738.997l74.001 -0.000976562c121.333 0 222.666 32.833 303.999 98.5s122 153.834 122 264.501c0 79.333 -20.833 139 -62.5 179s-100.167 60 -175.5 60h-92z" />
    <glyph glyph-name="S" unicode="S" horiz-adv-x="1087" 
d="M-76 -20l115 478.996h45c18 -131.333 59.667 -234.833 125 -310.5s157.333 -113.5 276 -113.5c82 0 150 27.333 204 82s81 120.667 81 198c0 64 -17 117.333 -51 160s-99 88.334 -195 137.001c-114.667 60 -195.167 118.333 -241.5 175s-69.5 131 -69.5 223
c0 114.667 51.167 212.5 153.5 293.5s227.166 121.5 374.499 121.5c57.333 0 114 -10.167 170 -30.5s97.667 -44.166 125 -71.499l97 96h67l-117 -465h-43c-27.333 273.333 -131.666 410 -312.999 410c-76.667 0 -141.834 -25.333 -195.501 -76s-80.5 -112 -80.5 -184
c0 -60 15.333 -108.5 46 -145.5s87 -76.5 169 -118.5c132.667 -69.333 224.834 -134.166 276.501 -194.499s77.5 -132.166 77.5 -215.499c0 -132.667 -55.333 -242 -166 -328s-246.667 -129 -408 -129c-70.667 0 -140.167 10.667 -208.5 32s-118.833 45 -151.5 71l-94 -96
h-68z" />
    <glyph glyph-name="T" unicode="T" horiz-adv-x="1296" 
d="M139 0l11 40.998c90 5.33301 150.667 13.666 182 24.999c46.667 16.667 76.667 50.667 90 102l323 1178h-75c-68 0 -124 -3 -168 -9c-42 -5.33301 -96.5 -42.5 -163.5 -111.5s-114.167 -130.167 -141.5 -183.5h-45l100 357h1280l-100 -357h-48
c0 78 -12.167 145.333 -36.5 202s-58.333 87.834 -102 93.501s-98.5 8.5 -164.5 8.5h-75l-320 -1168c-4 -12 -6 -27 -6 -45c0 -24.667 13.667 -43.667 41 -57c10.667 -5.33301 38.5 -12.166 83.5 -20.499s77.167 -13.166 96.5 -14.499l-10 -41h-752z" />
    <glyph glyph-name="U" unicode="U" horiz-adv-x="1562" 
d="M197 291c0 62.667 9.33691 127.33 28.0039 193.997l203 734c5.33301 24.667 8 40.334 8 47.001c0 23.333 -13.667 41.666 -41 54.999c-48 20.667 -93 32.334 -135 35.001l10 43h680l-12 -43c-53.333 -2.66699 -106 -11 -158 -25
c-45.333 -13.333 -75.333 -47.333 -90 -102l-194 -703c-26 -92.667 -39 -172.334 -39 -239.001c0 -154 90.667 -231.333 272 -232c125.333 0 225.666 35.833 300.999 107.5s134 177.834 176 318.501l154 541c22 80.667 33 143.334 33 188.001c0 42 -9.66699 70.667 -29 86
c-16.667 12 -46.834 25 -90.501 39s-77.834 21.667 -102.501 23l11 41h608l-12 -41c-22 -1.33301 -56.167 -7.5 -102.5 -18.5s-79.166 -21.833 -98.499 -32.5c-31.333 -18 -57.333 -48.5 -78 -91.5s-41.667 -103.5 -63 -181.5l-160 -561
c-50.667 -170.667 -123.834 -297.667 -219.501 -381s-227.167 -125 -394.5 -125c-148.667 0 -263.334 28.333 -344.001 85s-121 136.334 -121 239.001z" />
    <glyph glyph-name="V" unicode="V" horiz-adv-x="1275" 
d="M137 1358l13.001 41.001h649l-13 -41c-68 -4 -121 -13 -159 -27c-44 -16.667 -66 -52 -66 -106v-912l402 510c105.333 135.333 183.666 239.333 234.999 312c18 26 35.167 51.167 51.5 75.5s24.5 41.5 24.5 51.5c0 27.333 -23.5 49.5 -70.5 66.5
s-92.5 26.833 -136.5 29.5l10 41h561l-12 -41c-40.667 -2.66699 -87.667 -16.334 -141 -41.001c-50.667 -23.333 -110.667 -77.333 -180 -162l-922 -1178h-76v1242c0 58.667 -15.667 96 -47 112c-27.333 15.333 -68.333 24.333 -123 27z" />
    <glyph glyph-name="W" unicode="W" horiz-adv-x="1945" 
d="M137 1358l12.999 40.999h647l-13 -41c-66.667 -4 -119 -13 -157 -27c-44 -16.667 -66 -52 -66 -106v-881l533 786c10.667 30 16 66.333 16 109c0 45.333 -15.667 76 -47 92c-27.333 15.333 -69 24.333 -125 27l12 41h649l-12 -41c-66.667 -4 -119 -13 -157 -27
c-44 -16.667 -66 -52 -66 -106v-879l485 717c64 96.667 96.333 162.334 97 197.001c0 28.667 -21.167 50.834 -63.5 66.501s-91.5 25.5 -147.5 29.5l12 43h547l-13 -43c-39.333 -2.66699 -85.666 -16.334 -138.999 -41.001c-46.667 -23.333 -95.667 -74 -147 -152
l-807 -1179h-78v1058l-725 -1058h-78v1235c0 58.667 -15.667 96 -47 112c-27.333 15.333 -68.333 24.333 -123 27z" />
    <glyph glyph-name="X" unicode="X" horiz-adv-x="1486" 
d="M-152 0l13.0029 43.002c57.333 2.66699 107 12.334 149 29.001c61.333 23.333 129.666 69.666 204.999 138.999l465 440c-131.333 333.333 -202.333 512.333 -213 537c-26 69.333 -63 116.333 -111 141c-30 15.333 -77 24.333 -141 27l12 43h754l-12 -43
c-154 -8 -231.333 -43 -232 -105c0 -30 46.667 -164.333 140 -403c86 83.333 151.833 147.833 197.5 193.5s89.334 92.667 131.001 141s62.5 80.166 62.5 95.499c0 26 -13 44.833 -39 56.5s-71 18.834 -135 21.501l12 43h577l-12 -43
c-54.667 -2.66699 -103 -12.334 -145 -29.001c-65.333 -26 -134.333 -71.667 -207 -137c-66.667 -60 -206 -194.667 -418 -404l227 -575c23.333 -62.667 56.333 -109 99 -139c18 -12 67 -21.667 147 -29l-12 -43h-754l13 43c156.667 8 235 43.333 235 106
c0 40 -51.333 187.667 -154 443c-50.667 -49.333 -101.834 -99.5 -153.501 -150.5s-98.334 -97.667 -140.001 -140s-75.834 -79.666 -102.501 -111.999s-40 -53.833 -40 -64.5c0 -28.667 12.667 -48.834 38 -60.501s70 -18.834 134 -21.501l-12 -43h-578z" />
    <glyph glyph-name="Y" unicode="Y" horiz-adv-x="1345" 
d="M96 1081c36.667 106.667 89.167 190.334 157.5 251.001s146.166 91 233.499 91c108 0 193.833 -40.167 257.5 -120.5s95.5 -174.5 95.5 -282.5c0 -49.333 -6.33301 -115 -19 -197h17c74 194 161.333 342.833 262 446.5s205 155.5 313 155.5c48 0 86.333 -14 115 -42
s43 -61 43 -99c0 -53.333 -13.333 -93 -40 -119s-59.834 -39 -99.501 -39s-70 12 -91 36s-31.5 51 -31.5 81c0 23.333 13.667 54 41 92l-9 11c-39.333 -9.33301 -86.666 -40 -141.999 -92s-109.666 -115 -162.999 -189c-95.333 -136.667 -161.333 -278 -198 -424l-117 -471
c-4 -16.667 -6 -30.334 -6 -41.001c1.33301 -26 17 -45.667 47 -59c10.667 -5.33301 35.834 -11.5 75.501 -18.5s69.167 -10.5 88.5 -10.5l-11 -41h-696l10 41c69.333 4 118.666 10.667 147.999 20c44 15.333 72 49 84 101l123 504c13.333 53.333 20 140 20 260
c0 104 -19.5 187.667 -58.5 251s-96.5 95 -172.5 95c-53.333 0 -99.833 -17.833 -139.5 -53.5s-70.5 -86.167 -92.5 -151.5z" />
    <glyph glyph-name="Z" unicode="Z" horiz-adv-x="1200" 
d="M-156 0l6.00195 25l1190 1321h-262c-83.333 0 -142.666 -3.66699 -177.999 -11c-53.333 -9.33301 -114.833 -47.833 -184.5 -115.5s-124.834 -133.5 -165.501 -197.5h-45l139 377h1061l-8 -25l-1190 -1321h305c170.667 0 280 17.667 328 53
c49.333 38 100.166 87.5 152.499 148.5s94.166 116.167 125.499 165.5h45l-149 -420h-1170z" />
    <glyph glyph-name="bracketleft" unicode="[" horiz-adv-x="780" 
d="M-84 -326l483 1815h549l-14 -55h-291l-457 -1706h291l-14 -54h-547z" />
    <glyph glyph-name="backslash" unicode="\" horiz-adv-x="923" 
d="M279 1528l100 14l389 -1962l-98 -16z" />
    <glyph glyph-name="bracketright" unicode="]" horiz-adv-x="780" 
d="M-121 -326l15 54h288l457 1706h-291l14 55h549l-485 -1815h-547z" />
    <glyph glyph-name="asciicircum" unicode="^" horiz-adv-x="1368" 
d="M10 270c0 96.667 33.5039 184.001 100.504 262.001s178.833 157.333 335.5 238c-45.333 104 -67.666 193.333 -66.999 268c0 113.333 37.5 206.5 112.5 279.5s173.167 109.5 294.5 109.5c57.333 0 106.5 -18.833 147.5 -56.5s61.5 -89.834 61.5 -156.501
c0 -88.667 -29 -163 -87 -223s-135.333 -116 -232 -168c13.333 -28.667 43.666 -84.334 90.999 -167.001s84.666 -149 111.999 -199c30 57.333 53.833 101 71.5 131s41.5 65.5 71.5 106.5s60.667 70.667 92 89s64 27.5 98 27.5c54.667 0 96.334 -12.667 125.001 -38
s43 -55 43 -89c0 -27.333 -7.83301 -52.333 -23.5 -75s-38.5 -34 -68.5 -34c-39.333 0 -70 15.833 -92 47.5s-48.667 47.5 -80 47.5c-24.667 0 -53.334 -21.5 -86.001 -64.5s-73.667 -109.5 -123 -199.5c84.667 -152.667 127 -273.667 127 -363
c0 -151.333 -49.833 -276.5 -149.5 -375.5s-225.834 -148.5 -378.501 -148.5l-6 59c233.333 0 350 106.667 350 320c0 84.667 -28.667 184.334 -86 299.001c-66.667 -79.333 -131.834 -136.833 -195.501 -172.5s-139.834 -53.5 -228.501 -53.5c-94 0 -172.5 27 -235.5 81
s-94.5 126.667 -94.5 218zM248.004 356.001c0 -86 19.5 -154.5 58.5 -205.5s88.5 -76.5 148.5 -76.5c53.333 0 101.333 13.333 144 40s88 70.667 136 132c-12 22 -53.5 94.667 -124.5 218s-118.167 210.333 -141.5 261c-147.333 -83.333 -221 -206.333 -221 -369z
M596.004 1104c0 -66.667 19.001 -144.666 57.001 -233.999c165.333 93.333 248 202.666 248 327.999c0 52 -10.833 93 -32.5 123s-51.834 45 -90.501 45c-54.667 0 -98.667 -26 -132 -78s-50 -113.333 -50 -184z" />
    <glyph glyph-name="underscore" unicode="_" horiz-adv-x="1208" 
d="M-236 -225h1250v-92h-1250v92z" />
    <glyph glyph-name="grave" unicode="`" horiz-adv-x="1003" 
d="M485 1405c0 24.667 9.33301 46.167 28 64.5s41 27.5 67 27.5c53.333 0 98.333 -41.667 135 -125l123 -276l-31 -25c-54.667 52 -138.667 124.333 -252 217c-46.667 38 -70 77 -70 117z" />
    <glyph glyph-name="a" unicode="a" horiz-adv-x="1103" 
d="M27 295c0 90 25.168 185.502 75.501 286.502s121.333 188 213 261s187.167 109.5 286.5 109.5c39.333 0 74.5 -14.667 105.5 -44s49.833 -66.333 56.5 -111h6l47 143h234l-234 -678c-30 -82 -45 -140.667 -45 -176c0 -38 17.667 -57 53 -57c44 0 83.333 22.167 118 66.5
s70 112.166 106 203.499l41 -12c-42 -104 -84.667 -181.667 -128 -233s-98.333 -77 -165 -77c-140.667 0 -211 65 -211 195l-8 2c-86 -135.333 -181.667 -203 -287 -203c-72.667 0 -134.834 25.667 -186.501 77s-77.5 133.666 -77.5 246.999zM266.001 197.002
c0 -98 27.332 -147.333 81.999 -148c84.667 0 165.334 68.333 242.001 205l153 465c-22 121.333 -67 182 -135 182c-52 0 -105.167 -39.167 -159.5 -117.5s-98.333 -172.5 -132 -282.5s-50.5 -211.333 -50.5 -304z" />
    <glyph glyph-name="b" unicode="b" horiz-adv-x="1009" 
d="M68 252c0 58.667 9.33301 116.668 28 174.001l262 821c20.667 61.333 31 107 31 137c0 36.667 -27.333 58.667 -82 66c-26 2.66699 -67 5.33398 -123 8.00098v41l496 21l-240 -727l6 -2c92 107.333 181 161 267 161h2c76.667 0 141.834 -24.5 195.501 -73.5
s80.5 -130.167 80.5 -243.5c0 -44 -7.83301 -94.333 -23.5 -151s-40.167 -115.334 -73.5 -176.001s-72.833 -115.834 -118.5 -165.501s-102.334 -91 -170.001 -124s-139.167 -49.5 -214.5 -49.5c-86 0 -161.333 26 -226 78s-97 120.333 -97 205zM264 231.001
c0 -138.667 42.001 -208.002 126.001 -208.002h1c53.333 0 109 39.833 167 119.5s104.833 174.834 140.5 285.501s53.5 210.334 53.5 299.001c0 98 -31.667 147 -95 147c-80.667 0 -162.334 -61.333 -245.001 -184z" />
    <glyph glyph-name="c" unicode="c" horiz-adv-x="813" 
d="M27 295c0 61.333 13.666 129.166 40.999 203.499s64.5 145.666 111.5 213.999s108.333 125.333 184 171s155.834 68.5 240.501 68.5c61.333 0 112.833 -17.667 154.5 -53s62.5 -79 62.5 -131c0 -44 -10.5 -81 -31.5 -111s-50.833 -45 -89.5 -45c-34 0 -62.5 9 -85.5 27
s-34.5 44 -34.5 78c0 24.667 11.833 48.834 35.5 72.501s54.834 42.5 93.501 56.5c-10.667 48 -49 72 -115 72c-54.667 0 -108 -41.667 -160 -125s-92 -178.666 -120 -285.999s-42 -202.666 -42 -285.999c0 -61.333 9.33301 -107 28 -137s49.667 -45 93 -45
c130 0 244 91.333 342 274l39 -18c-114.667 -216 -252.667 -324 -414 -324c-92.667 0 -171.334 25.667 -236.001 77s-97 133.666 -97 246.999z" />
    <glyph glyph-name="d" unicode="d" horiz-adv-x="1114" 
d="M27 295c0 91.333 26.168 187.831 78.501 289.498s124.333 188.334 216 260.001s185.167 107.5 280.5 107.5c40.667 0 75.5 -12.167 104.5 -36.5s48.833 -57.833 59.5 -100.5h6l129 432c20.667 64 31 109.667 31 137c0 36.667 -28 58.667 -84 66
c-20.667 2.66699 -68.334 5.33398 -143.001 8.00098v41l514 21l-396 -1258c-27.333 -88.667 -41 -146.667 -41 -174c0 -39.333 17.333 -59 52 -59c45.333 0 84.5 21.833 117.5 65.5s68.167 111.834 105.5 204.501l41 -12c-42 -104 -84.667 -181.667 -128 -233
s-98.333 -77 -165 -77c-140.667 0 -211 61.667 -211 185l-8 2c-90 -128.667 -186.333 -193 -289 -193c-31.333 0 -62 5.16699 -92 15.5s-58.667 26.833 -86 49.5s-49.5 56.167 -66.5 100.5s-25.5 97.166 -25.5 158.499zM266.001 198.998c0 -100 29.334 -150 88.001 -150
c40.667 0 82.667 17.5 126 52.5s81.333 80.5 114 136.5l154 499c-25.333 109.333 -70 164 -134 164c-53.333 0 -107.833 -39.833 -163.5 -119.5s-100.334 -174.167 -134.001 -283.5s-50.5 -209 -50.5 -299z" />
    <glyph glyph-name="e" unicode="e" horiz-adv-x="815" 
d="M27 299c0 60 14 126.832 42 200.499s66.5 144.667 115.5 213s113.167 125.333 192.5 171s164 68.5 254 68.5c54.667 0 100 -13.333 136 -40s54 -63 54 -109c0 -94 -49.167 -172.833 -147.5 -236.5s-222.5 -106.5 -372.5 -128.5c-19.333 -88.667 -29 -161.667 -29 -219
c0 -61.333 9 -106.666 27 -135.999s49.333 -44 94 -44c130 0 244 91.333 342 274l37 -18c-113.333 -216 -250 -324 -410 -324c-94 0 -173.333 26.333 -238 79s-97 135.667 -97 249zM309 480.999c109.333 22 190 63 242 123s79.333 122.333 82 187v19
c0 67.333 -20.667 101 -62 101c-48 0 -96.5 -43 -145.5 -129s-87.833 -186.333 -116.5 -301z" />
    <glyph glyph-name="f" unicode="f" horiz-adv-x="610" 
d="M-487 -307c0 30 11.1709 58.668 33.5039 86.001s52.833 41 91.5 41c31.333 0 60.666 -10 87.999 -30s41 -49 41 -87c0 -15.333 -2.83301 -28.666 -8.5 -39.999s-15.334 -24.833 -29.001 -40.5s-21.834 -25.834 -24.501 -30.501c4 -24.667 15 -36.667 33 -36
c70.667 0 126.5 32 167.5 96s86.833 177.333 137.5 340c30 98 58.667 197.833 86 299.5s56 214 86 337s48.333 197.5 55 223.5h-196l20 68h197l20 73c48 174.667 128 312.667 240 414c83.333 76.667 183.666 115 300.999 115c76.667 0 137.167 -18.833 181.5 -56.5
s66.5 -82.5 66.5 -134.5c0 -26 -11.333 -52.667 -34 -80s-52.334 -41 -89.001 -41c-35.333 0 -66.666 8.66699 -93.999 26s-41 44.333 -41 81c0 15.333 7.83301 38.333 23.5 69s24.167 50.667 25.5 60c-8 23.333 -29.333 35 -64 35
c-57.333 0 -107.166 -33.5 -149.499 -100.5s-83.833 -175.5 -124.5 -325.5l-37 -135h242l-23 -68h-235c-112 -428.667 -184.333 -696.334 -217 -803.001c-58.667 -188.667 -141.334 -326.667 -248.001 -414c-93.333 -78.667 -194 -118 -302 -118h-3
c-74 0 -128.667 16.333 -164 49s-53 75 -53 127z" />
    <glyph glyph-name="g" unicode="g" horiz-adv-x="968" 
d="M-129 -258c0 66.667 29.666 123.33 88.999 169.997s145 77.334 257 92.001v14c-120 24.667 -180 75.334 -180 152.001c0 86 71 151 213 195v10c-49.333 22 -87.666 52.333 -114.999 91s-41 80.667 -41 126c0 102.667 40 188.334 120 257.001s181.333 103 304 103
c34 0 68.167 -2.66699 102.5 -8s67.833 -12.833 100.5 -22.5s49.667 -14.5 51 -14.5c28.667 22 50.5 37.833 65.5 47.5s34.833 18.5 59.5 26.5s48.667 12 72 12c31.333 0 57.5 -11.5 78.5 -34.5s31.5 -50.167 31.5 -81.5c0 -30 -10.5 -56 -31.5 -78s-45.167 -33 -72.5 -33
c-54.667 0 -89.667 48.333 -105 145c-31.333 -2.66699 -63.333 -15.667 -96 -39v-10c40.667 -40.667 61.334 -96 62.001 -166c0 -100 -40.333 -183 -121 -249s-176.334 -99 -287.001 -99h-141c-52 -24.667 -78 -53.334 -78 -86.001c0 -30 13.333 -50.5 40 -61.5
s83 -20.5 169 -28.5c94 -9.33301 164.333 -17.666 211 -24.999c65.333 -9.33301 119.5 -36.833 162.5 -82.5s64.5 -103.5 64.5 -173.5c0 -104 -49.167 -191.667 -147.5 -263s-247.833 -107 -448.5 -107c-122.667 0 -218.167 20.5 -286.5 61.5s-102.5 94.167 -102.5 159.5z
M95.999 -250.004c0 -52 18.167 -96.334 54.5 -133.001s89.833 -55 160.5 -55c104 0 185 25.833 243 77.5s87 118.5 87 200.5c0 66 -22 104.333 -66 115c-74 16.667 -179 27.667 -315 33c-109.333 -27.333 -164 -106.666 -164 -237.999zM323.999 566.995
c0 -53.333 8.16797 -97.667 24.501 -133s41.5 -53 75.5 -53c57.333 0 103.333 43.333 138 130s52 169.667 52 249c0 46.667 -9.16699 85 -27.5 115s-45.166 45 -80.499 45c-40.667 0 -75.834 -22.667 -105.501 -68s-49.834 -93.5 -60.501 -144.5s-16 -97.833 -16 -140.5z
" />
    <glyph glyph-name="h" unicode="h" horiz-adv-x="1105" 
d="M-18 0l393.001 1247c19.333 57.333 28.666 103 27.999 137c0 36.667 -26.333 58.667 -79 66c-27.333 2.66699 -68.333 5.33398 -123 8.00098v41l495 21l-247 -746l10 -2c91.333 120 185.333 180 282 180c65.333 0 121.333 -22.833 168 -68.5s70 -99.167 70 -160.5
c0 -31.333 -13.667 -82 -41 -152l-115 -309c-36.667 -94 -55 -155.333 -55 -184c0 -32.667 19.667 -49 59 -49c80.667 0 156 90 226 270l37 -12c-42 -104 -85 -181.667 -129 -233s-100.667 -77 -170 -77c-56 0 -108.333 14 -157 42s-73 70 -73 126c0 42 12.333 96 37 162
l125 328c32.667 84.667 49 138.667 49 162c0 54.667 -27.333 82 -82 82c-87.333 0 -182 -84.667 -284 -254l-195 -625h-229z" />
    <glyph glyph-name="i" unicode="i" horiz-adv-x="663" 
d="M33 641c42 105.333 84.1689 183.503 126.502 234.503s97.833 76.5 166.5 76.5c58.667 0 110.5 -16 155.5 -48s67.5 -76.667 67.5 -134c0 -28.667 -20 -95 -60 -199l-120 -309c-38 -98 -57.333 -158 -58 -180c0 -35.333 20 -53 60 -53c82 0 157.667 90 227 270l37 -12
c-40.667 -102.667 -83.334 -180 -128.001 -232s-100.334 -78 -167.001 -78c-60 0 -113.5 13.667 -160.5 41s-70.5 69.666 -70.5 126.999c0 38 12.667 92 38 162l142 357c35.333 91.333 53 152.666 53 183.999c0 36.667 -16.333 55 -49 55
c-42 0 -80.167 -22.833 -114.5 -68.5s-69.833 -114.834 -106.5 -207.501zM406.002 1305c0 46.667 14.999 86.333 44.999 119s69.333 49 118 49c32.667 0 59.334 -13.5 80.001 -40.5s31 -58.167 31 -93.5c0 -48 -13.667 -88.333 -41 -121s-65 -49 -113 -49
c-38 0 -67.5 12.667 -88.5 38s-31.5 58 -31.5 98z" />
    <glyph glyph-name="j" unicode="j" horiz-adv-x="598" 
d="M-403 -305c0 28.667 11.1729 56.668 33.5059 84.001s52.666 41 90.999 41s69.833 -10 94.5 -30s37 -49 37 -87c0 -18 -6.83301 -36.833 -20.5 -56.5s-26.834 -36.167 -39.501 -49.5c0 -27.333 9 -41 27 -41c69.333 0 124.833 32 166.5 96s86.5 176 134.5 336
c48 155.333 115.667 399.666 203 732.999c15.333 57.333 22.666 99.666 21.999 126.999c0 36.667 -15 55 -45 55c-45.333 0 -84.333 -22.167 -117 -66.5s-67.334 -114.166 -104.001 -209.499l-39 14c40.667 104 82.167 181.833 124.5 233.5s97.833 77.5 166.5 77.5
c60 0 112.5 -15.667 157.5 -47s67.5 -75.666 67.5 -132.999c0 -27.333 -9.66699 -75 -29 -143c-50.667 -196.667 -104.334 -391.334 -161.001 -584.001c-56 -184 -138.667 -321.333 -248 -412c-90.667 -77.333 -194.334 -116 -311.001 -116h-3
c-68 0 -119.667 16.667 -155 50s-53 76 -53 128zM406.006 1307c0 46.667 14.999 86.333 44.999 119s69.333 49 118 49c32.667 0 59.334 -13.5 80.001 -40.5s31 -58.167 31 -93.5c0 -48 -13.667 -88.333 -41 -121s-65 -49 -113 -49c-38 0 -67.5 12.667 -88.5 38
s-31.5 58 -31.5 98z" />
    <glyph glyph-name="k" unicode="k" horiz-adv-x="1069" 
d="M-18 0l395.002 1247c19.333 58.667 29 104.334 29 137.001c0 36.667 -26.667 58.667 -80 66c-27.333 2.66699 -68.333 5.33398 -123 8.00098v41l495 21l-309 -959c13.333 -1.33301 35.333 -2 66 -2c40.667 0 76 13.667 106 41s54.333 60.166 73 98.499
s38.167 76.5 58.5 114.5s48.5 70.667 84.5 98s80 41 132 41c113.333 0 170 -48.333 170 -145c0 -38 -13 -72.167 -39 -102.5s-58.667 -45.5 -98 -45.5c-26 0 -49.833 8 -71.5 24s-32.5 34.667 -32.5 56c0 38 8.83301 64.667 26.5 80s36 26 55 32s29.833 16.667 32.5 32
c-8 26 -28.333 39 -61 39c-30 0 -56.667 -16.5 -80 -49.5s-42.833 -70.333 -58.5 -112s-42.334 -84 -80.001 -127s-82.834 -72.5 -135.501 -88.5c142 -36.667 213 -100.334 213 -191.001c0 -36.667 -7.5 -86 -22.5 -148s-22.5 -102.667 -22.5 -122
c0 -22 4.33301 -36.667 13 -44s22.667 -11 42 -11c48 0 89.667 22.167 125 66.5s70 112.166 104 203.499l39 -12c-42 -104 -84.833 -181.667 -128.5 -233s-101.167 -77 -172.5 -77c-68 0 -124.667 13.667 -170 41s-68 69.666 -68 126.999
c0 31.333 8.33301 81.166 25 149.499s25 111.5 25 129.5c0 65.333 -35 98 -105 98c-8 0 -27 -1.33301 -57 -4l-166 -518h-229z" />
    <glyph glyph-name="l" unicode="l" horiz-adv-x="581" 
d="M39 145c0 26 12.335 79.999 37.002 161.999l297 940c19.333 58.667 28.666 104.334 27.999 137.001c0 36.667 -27.333 58.667 -82 66c-26 2.66699 -66.667 5.33398 -122 8.00098v41l497 21l-403 -1262c-32.667 -98 -49 -156.667 -49 -176c0 -35.333 19 -53 57 -53
c83.333 0 159.666 90 228.999 270l37 -12c-40.667 -102.667 -83.5 -180 -128.5 -232s-101.167 -78 -168.5 -78c-60 0 -113.167 13.667 -159.5 41s-69.5 69.666 -69.5 126.999z" />
    <glyph glyph-name="m" unicode="m" horiz-adv-x="1724" 
d="M41 641c42 105.333 84.5029 183.499 127.503 234.499s99.5 76.5 169.5 76.5c54.667 0 102.5 -14.333 143.5 -43s61.5 -77.667 61.5 -147l8 -2c92 128 186.333 192 283 192h2c69.333 0 125.166 -19.667 167.499 -59s64.833 -83.666 67.5 -132.999h8
c96 128 191.333 192 286 192h1c61.333 0 115.5 -22.167 162.5 -66.5s70.5 -97.833 70.5 -160.5c0 -30 -13.333 -81.333 -40 -154l-119 -309c-35.333 -92.667 -53.333 -151.334 -54 -176.001c0 -23.333 4.5 -38.666 13.5 -45.999s24.5 -11 46.5 -11
c80.667 0 155.667 90 225 270l39 -12c-42 -104 -84.833 -181.667 -128.5 -233s-99.834 -77 -168.501 -77c-58.667 0 -112.5 13.667 -161.5 41s-73.5 69.666 -73.5 126.999c0 32.667 13.667 86.667 41 162l120 320c34 90 51.333 147.333 52 172c0 53.333 -28 80 -84 80
c-70.667 0 -150.667 -69 -240 -207l-219 -672h-238l221 664c23.333 78 35 123 35 135c0 53.333 -28 80 -84 80c-44 0 -90.167 -24.667 -138.5 -74s-90.833 -106.666 -127.5 -171.999l-207 -633h-237l225 664c34 102.667 51 164.667 51 186c0 20.667 -3.33301 34.667 -10 42
s-18.334 11 -35.001 11c-44 0 -82.667 -22.5 -116 -67.5s-68.333 -114.5 -105 -208.5z" />
    <glyph glyph-name="n" unicode="n" horiz-adv-x="1196" 
d="M43 641c44 105.333 87.167 183.5 129.5 234.5s97.5 76.5 165.5 76.5c56 0 104.5 -14.667 145.5 -44s61.5 -78 61.5 -146l8 -2c92 128 186.333 192 283 192h2c64 0 119.5 -22.5 166.5 -67.5s70.5 -98.833 70.5 -161.5c0 -26 -13 -76.667 -39 -152l-118 -309
c-36.667 -95.333 -55.334 -156 -56.001 -182c0 -34 20.667 -51 62 -51c80.667 0 155.667 90 225 270l39 -12c-42 -104 -85.667 -181.667 -131 -233s-102.666 -77 -171.999 -77c-57.333 0 -110 14.333 -158 43s-72 70.334 -72 125.001c0 38 13.667 92 41 162l123 328
c31.333 79.333 47 134 47 164c0 53.333 -26 80 -78 80c-88.667 0 -178.667 -82 -270 -246l-209 -633h-235l225 664c32.667 101.333 49 163.333 49 186c0 35.333 -14.333 53 -43 53c-42 0 -80.167 -22.833 -114.5 -68.5s-69.833 -114.834 -106.5 -207.501z" />
    <glyph glyph-name="o" unicode="o" horiz-adv-x="974" 
d="M35 334c0 64 13.6699 131.5 41.0029 202.5s65.166 137.5 113.499 199.5s111.166 113.5 188.499 154.5s160.333 61.5 249 61.5c87.333 0 161.666 -31 222.999 -93s92 -152.333 92 -271c0 -64 -13.667 -131.5 -41 -202.5s-65.166 -137.667 -113.499 -200
s-110.833 -113.666 -187.5 -153.999s-159.334 -60.5 -248.001 -60.5c-84.667 0 -158.667 31.167 -222 93.5s-95 152.166 -95 269.499zM272.003 236l0.000976562 -15.001c0 -66 8.66699 -117 26 -153c18.667 -38.667 43 -58 73 -58c61.333 0 118.333 38.333 171 115
s92.667 166.834 120 270.501s41.666 203.834 42.999 300.501v14c0 69.333 -9.33301 120.666 -28 153.999c-20 36 -43.667 54 -71 54c-60 0 -116.333 -38 -169 -114s-93 -165.833 -121 -269.5s-42.667 -203.167 -44 -298.5z" />
    <glyph glyph-name="p" unicode="p" horiz-adv-x="1132" 
d="M-215 -479l10.001 39.002c70.667 0 119.334 15 146.001 45c22 23.333 47.667 80.666 77 171.999l281 887c31.333 102.667 47 162.667 47 180c0 39.333 -14.333 59 -43 59c-76.667 0 -150.334 -92 -221.001 -276l-41 14c42 104 84.5 181.833 127.5 233.5
s97.5 77.5 163.5 77.5c52 0 98 -17 138 -51s60 -82.333 60 -145l9 -2c48 62.667 95.5 111.334 142.5 146.001s99.167 52 156.5 52c74 0 137.5 -24.5 190.5 -73.5s79.5 -131.5 79.5 -247.5c0 -92.667 -26 -189.667 -78 -291s-124.333 -187.833 -217 -259.5
s-189.667 -107.5 -291 -107.5c-38 0 -72.667 12.667 -104 38s-52 56.333 -62 93h-8l-102 -331c-19.333 -65.333 -29 -111.333 -29 -138c0 -36.667 28 -58.334 84 -65.001c27.333 -2.66699 67.666 -5.33398 120.999 -8.00098l-10 -41h-627zM373.001 174.002
c26 -98 75.001 -147 147.001 -147c53.333 0 107.666 39.833 162.999 119.5s100 174.5 134 284.5s51 209.333 51 298c0 96.667 -30 145 -90 145c-75.333 0 -158 -64.667 -248 -194z" />
    <glyph glyph-name="q" unicode="q" horiz-adv-x="1036" 
d="M27 295c0 58.667 14 124.834 42 198.501s65.833 145 113.5 214s109 127 184 174s154.167 70.5 237.5 70.5c39.333 0 75.166 -11.833 107.499 -35.5s54.5 -55.5 66.5 -95.5h8l82 119h185l-373 -1167c-19.333 -61.333 -29 -107.333 -29 -138
c0 -36.667 27.333 -58.334 82 -65.001c32.667 -4 67 -6.66699 103 -8l-13 -41h-624l12 39c83.333 0 138 15 164 45s52 87.333 78 172l108 342l-8 2c-79.333 -98 -164.666 -147.333 -255.999 -148c-74 0 -137.5 24.667 -190.5 74s-79.5 132 -79.5 248zM264 199
c0 -98 29.3311 -147.334 87.998 -148.001c40.667 0 83.334 17.5 128.001 52.5s83.334 79.833 116.001 134.5l164 512c-27.333 100.667 -76.333 151 -147 151h-1c-53.333 0 -107.5 -39.5 -162.5 -118.5s-99.667 -173.167 -134 -282.5s-51.5 -209.666 -51.5 -300.999z" />
    <glyph glyph-name="r" unicode="r" horiz-adv-x="886" 
d="M41 641c42 105.333 84.501 183.503 127.501 234.503s98.833 76.5 167.5 76.5c50.667 0 95.667 -17.333 135 -52s59 -86.334 59 -155.001l9 -2c28.667 45.333 53.167 80.666 73.5 105.999s46.833 48.833 79.5 70.5s67.667 32.5 105 32.5c45.333 0 81.5 -14.333 108.5 -43
s40.5 -62.667 40.5 -102c0 -40.667 -10.833 -76.5 -32.5 -107.5s-52.5 -46.5 -92.5 -46.5c-79.333 0 -119 34.333 -119 103c0 20.667 9.66699 43.5 29 68.5s29.666 39.5 30.999 43.5c2.66699 15.333 -1.33301 23.666 -12 24.999c-61.333 0 -139.333 -86 -234 -258l-194 -635
h-234l209 664c34 109.333 51 170.666 51 183.999c0 36.667 -15 55 -45 55c-44 0 -83 -23.167 -117 -69.5s-68.667 -115.166 -104 -206.499z" />
    <glyph glyph-name="s" unicode="s" horiz-adv-x="806" 
d="M0 207c0 42 13.334 79.502 40.001 112.502s57 49.5 91 49.5c46.667 0 79.5 -11 98.5 -33s28.5 -46 28.5 -72s-8.5 -49.5 -25.5 -70.5s-43.833 -31.5 -80.5 -31.5h-27c-32.667 2.66699 -49 -4.33301 -49 -21c0 -31.333 22.167 -60.333 66.5 -87s93.833 -40 148.5 -40
c62.667 0 113.834 13.667 153.501 41s59.5 67.666 59.5 120.999c0 39.333 -12 75.5 -36 108.5s-52.667 62.5 -86 88.5s-66.833 52.333 -100.5 79s-62.334 58.667 -86.001 96s-35.5 79.333 -35.5 126c0 72.667 34.5 137.167 103.5 193.5s152.5 84.5 250.5 84.5
c87.333 0 153.166 -22.167 197.499 -66.5s66.5 -90.333 66.5 -138s-9.83301 -85.167 -29.5 -112.5s-46.667 -41 -81 -41s-62.333 8.16699 -84 24.5s-32.5 40.833 -32.5 73.5c0 27.333 11.667 49.833 35 67.5s47.5 31.167 72.5 40.5s38.167 16.333 39.5 21
c-2.66699 19.333 -19.334 39.166 -50.001 59.499s-74 30.5 -130 30.5c-38 0 -72.667 -13.667 -104 -41s-47 -67.333 -47 -120c0 -34 11.5 -66.5 34.5 -97.5s51.333 -58.833 85 -83.5s66.834 -50.5 99.501 -77.5s60.667 -60.333 84 -100s35 -83.5 35 -131.5
c0 -76.667 -37.667 -144 -113 -202s-168.333 -87 -279 -87c-100 0 -177.167 23.667 -231.5 71s-81.5 102.333 -81.5 165z" />
    <glyph glyph-name="t" unicode="t" horiz-adv-x="653" 
d="M55 143c0 23.333 7 60.333 21 111c18 68 77.333 267.333 178 598h-193l23 68h195l90 317h227l-94 -317h237l-22 -68h-236c-104 -348 -164 -555 -180 -621c-23.333 -82 -35 -131 -35 -147c0 -36.667 19.333 -55 58 -55c86 0 164.333 91.333 235 274l39 -12
c-40.667 -102.667 -84.667 -180.667 -132 -234s-105 -80 -173 -80c-58.667 0 -113 13.667 -163 41s-75 69 -75 125z" />
    <glyph glyph-name="u" unicode="u" horiz-adv-x="1185" 
d="M35 641c40.667 104 82.501 181.5 125.501 232.5s98.833 76.5 167.5 76.5c57.333 0 107.833 -15 151.5 -45s65.5 -71.667 65.5 -125c0 -42 -12.333 -96 -37 -162l-129 -327c-30 -80.667 -45 -135.334 -45 -164.001c0 -53.333 26.667 -80 80 -80
c45.333 0 90.666 20.167 135.999 60.5s85.333 90.5 120 150.5l211 664h237l-217 -660c-28.667 -83.333 -43 -140.666 -43 -171.999c0 -40.667 16.333 -61 49 -61c46.667 0 87 21.833 121 65.5s69 111.834 105 204.501l41 -12c-42 -104 -84.667 -181.667 -128 -233
s-98.333 -77 -165 -77c-146 0 -219 63.667 -219 191l-9 2c-91.333 -131.333 -187.333 -197 -288 -197c-68 0 -125 23 -171 69s-69 99.667 -69 161c0 34 13.667 84.333 41 151l121 310c36.667 100 55 162 55 186c0 35.333 -16.333 53 -49 53
c-42 0 -80.5 -22.833 -115.5 -68.5s-70.167 -114.834 -105.5 -207.501z" />
    <glyph glyph-name="v" unicode="v" horiz-adv-x="1032" 
d="M29 584l124.999 364.004h28c16.667 -34 42 -59.167 76 -75.5s67.333 -24.5 100 -24.5c91.333 0 179 36.667 263 110l32 -30c-74 -69.333 -138.833 -169.333 -194.5 -300s-83.5 -259.334 -83.5 -386.001c0 -62.667 12.667 -109.834 38 -141.501s56.333 -47.5 93 -47.5
c88.667 0 179.5 52.333 272.5 157s139.5 221.667 139.5 351c0 34 -8 63.333 -24 88s-33.5 43.167 -52.5 55.5s-36.333 29 -52 50s-23.5 45.833 -23.5 74.5c0 32.667 11.667 60 35 82s53.333 33 90 33h1c81.333 0 122 -64.667 122 -194c0 -203.333 -59.833 -384 -179.5 -542
s-259.167 -237 -418.5 -237c-79.333 0 -145.666 24 -198.999 72s-80 115 -80 201c0 95.333 31.833 190.166 95.5 284.499s155.5 194.5 275.5 300.5l-12 11c-110.667 -70.667 -194 -106.334 -250 -107.001c-52 0 -89.667 7.66699 -113 23l-65 -185z" />
    <glyph glyph-name="w" unicode="w" horiz-adv-x="1464" 
d="M33 594l121.002 354.001h28c34 -66.667 94 -100 180 -100c46.667 0 86.667 7.83301 120 23.5s74 44.5 122 86.5l31 -30c-75.333 -82 -138.166 -186.833 -188.499 -314.5s-75.5 -258.5 -75.5 -392.5c0 -57.333 8.16699 -100.666 24.5 -129.999s38.166 -44 65.499 -44
c48 0 104.667 35 170 105c-20.667 52 -31 105 -31 159c0 72.667 21.5 159.834 64.5 261.501s93.833 189.667 152.5 264s108.667 111.5 150 111.5c30 0 53.167 -15.333 69.5 -46s24.5 -70 24.5 -118c0 -65.333 -24.333 -148.833 -73 -250.5s-107.667 -196.834 -177 -285.501
c20.667 -122.667 74.667 -184.334 162 -185.001c90 0 174.667 52.667 254 158s119 217.333 119 336c0 28.667 -5.16699 53.334 -15.5 74.001s-23 37 -38 49s-30.333 24.167 -46 36.5s-28.667 27.833 -39 46.5s-15.5 40.667 -15.5 66c0 32.667 10.5 60 31.5 82
s48.833 33 83.5 33c86 0 129 -67 129 -201c0 -130 -25.667 -255 -77 -375s-120 -216.833 -206 -290.5s-176.667 -110.5 -272 -110.5c-96.667 0 -173.334 48.667 -230.001 146c-96.667 -92.667 -181.334 -139.334 -254.001 -140.001c-79.333 0 -142.833 23.667 -190.5 71
s-71.5 116 -71.5 206c0 95.333 30.667 189.833 92 283.5s150.333 192.167 267 295.5l-11 11c-108 -70.667 -187.667 -106.334 -239 -107.001c-49.333 0 -87 7.66699 -113 23l-59 -174zM801.002 385.001c0 -45.333 0.666992 -72.665 2 -81.998
c56 75.333 103.833 155.666 143.5 240.999s59.5 156.666 59.5 213.999c0 48 -21 72 -63 72h-1c-42.667 0 -72.667 -18 -90 -54c-34 -58.667 -51 -189 -51 -391z" />
    <glyph glyph-name="x" unicode="x" horiz-adv-x="1050" 
d="M-47 115c0 94 57.9971 189.996 173.997 287.996l27 -24c-38 -64 -57.333 -150 -58 -258c0 -61.333 14.333 -92 43 -92c34 0 66.833 14.667 98.5 44s60.334 71.333 86.001 126s45.334 101 59.001 139s29.5 85 47.5 141c46.667 150 70 250.333 70 301
c0 76.667 -26 115 -78 115c-98 0 -182.667 -92.333 -254 -277l-39 15c84.667 207.333 191.334 311 320.001 311c30 0 56.833 -2.66699 80.5 -8s48.5 -15.833 74.5 -31.5s46.5 -41.334 61.5 -77.001s22.5 -80.167 22.5 -133.5h10c24.667 64 59.834 121.667 105.501 173
s95.167 77 148.5 77c42 0 77.167 -11.833 105.5 -35.5s42.5 -61.5 42.5 -113.5c0 -79.333 -49.333 -163.333 -148 -252l-22 22c13.333 24.667 26.833 63 40.5 115s20.5 94.333 20.5 127c0 34 -3.33301 58.167 -10 72.5s-19.667 21.5 -39 21.5c-32.667 0 -65 -16.667 -97 -50
s-60.333 -76.666 -85 -129.999s-45.5 -103.5 -62.5 -150.5s-31.833 -92.5 -44.5 -136.5c-31.333 -116 -47 -202.667 -47 -260c0 -31.333 3.5 -57.666 10.5 -78.999s16.667 -35.666 29 -42.999s23.166 -12.333 32.499 -15s21 -4 35 -4c49.333 0 92.333 22.167 129 66.5
s72.667 111.5 108 201.5l37 -12c-40.667 -102.667 -84 -180.667 -130 -234s-104.333 -80 -175 -80c-27.333 0 -52 1.5 -74 4.5s-46.5 9.83301 -73.5 20.5s-49.833 25.334 -68.5 44.001s-34.167 45.334 -46.5 80.001s-18.5 76 -18.5 124h-12
c-74 -181.333 -164.667 -272.333 -272 -273c-109.333 0 -164 46.667 -164 140z" />
    <glyph glyph-name="y" unicode="y" horiz-adv-x="1089" 
d="M-100 -299c0 58.667 15.6631 101.668 46.9961 129.001s68.666 41 111.999 41c34 0 61 -11.333 81 -34s30 -44.667 30 -66c0 -58.667 -15.667 -96.334 -47 -113.001c-13.333 -6.66699 -35.166 -11 -65.499 -13s-48.166 -10 -53.499 -24
c6.66699 -48 52.334 -72 137.001 -72c109.333 0 205 47.5 287 142.5s157 247.833 225 458.5l-8 2c-91.333 -117.333 -184.666 -176.333 -279.999 -177c-68 0 -125 22.667 -171 68s-69 99.333 -69 162c0 35.333 13.667 86.333 41 153l121 306
c36.667 96.667 55 159.334 55 188.001c0 20.667 -3.83301 34.334 -11.5 41.001s-18.834 10 -33.501 10c-42 0 -80.833 -22.833 -116.5 -68.5s-71.167 -114.834 -106.5 -207.501l-37 14c40.667 104 82.5 181.833 125.5 233.5s98.833 77.5 167.5 77.5
c57.333 0 107.5 -15 150.5 -45s64.5 -71.667 64.5 -125c0 -40.667 -12.333 -95.334 -37 -164.001l-131 -323c-30 -78 -45 -132.667 -45 -164s6.83301 -52.833 20.5 -64.5s34.834 -17.5 63.501 -17.5c40.667 0 84.167 17.833 130.5 53.5s87.5 79.167 123.5 130.5l215 689h231
l-217 -705c-157.333 -470.667 -406.666 -706 -747.999 -706h-1c-88.667 0 -152.5 19.667 -191.5 59s-58.5 83 -58.5 131z" />
    <glyph glyph-name="z" unicode="z" horiz-adv-x="858" 
d="M-55 53c0 36.667 34.667 83.3311 104 139.998c216 176 422.333 333.667 619 473l-4 10c-44 1.33301 -107 11.5 -189 30.5s-135.333 28.5 -160 28.5c-64 0 -96 -21.167 -96 -63.5s38.333 -74.5 115 -96.5l-19 -32c-134.667 44 -202 105 -202 183
c0 60.667 18.667 112.834 56 156.501s82 65.5 134 65.5c40.667 0 80.5 -12.333 119.5 -37s70.833 -51.667 95.5 -81s51.334 -56.166 80.001 -80.499s54.667 -36.5 78 -36.5c56 0 84 43 84 129c0 72 25.667 108 77 108h1h2c57.333 0 86 -23.667 86 -71
c0 -27.333 -7.5 -52 -22.5 -74s-42.5 -49.333 -82.5 -82c-38 -30 -138.333 -106.833 -301 -230.5s-264.334 -201.167 -305.001 -232.5l2 -12c34 -2.66699 88.333 -14 163 -34s131 -30 169 -30c94 0 141 23.333 141 70c0 26 -6.5 44.833 -19.5 56.5
s-33.833 20.167 -62.5 25.5l13 37c108.667 -23.333 163 -83.666 163 -180.999c0 -57.333 -19.667 -107.833 -59 -151.5s-87.666 -65.5 -144.999 -65.5c-34 0 -70.5 12.333 -109.5 37s-73.167 51.667 -102.5 81s-60.833 56.666 -94.5 81.999s-62.167 38 -85.5 38
c-47.333 -13.333 -71 -61.333 -71 -144c0 -63.333 -34.333 -95.333 -103 -96c-16.667 0 -32.334 6.83301 -47.001 20.5s-22 33.5 -22 59.5z" />
    <glyph glyph-name="braceleft" unicode="{" horiz-adv-x="837" 
d="M41 535l27.001 108.002c146 13.333 244.5 44.333 295.5 93s82.167 148 93.5 298c12 178.667 59.333 305 142 379s221.667 111 417 111l-12 -47c-114.667 -8 -190.5 -35.333 -227.5 -82s-61.833 -140.334 -74.5 -281.001c-8 -86 -26 -159.333 -54 -220
s-66.167 -109.167 -114.5 -145.5s-97.833 -64.333 -148.5 -84s-111.334 -36.5 -182.001 -50.5l-13 -51c104 -22 181 -50.333 231 -85s75 -89 75 -163c0 -60 -18.167 -143.833 -54.5 -251.5s-54.5 -181.5 -54.5 -221.5c0 -49.333 12 -84.166 36 -104.499s70 -32.5 138 -36.5
l-12 -47c-140.667 0 -240 16.667 -298 50s-87 89.666 -87 168.999c0 64 21.5 148.333 64.5 253s64.5 180 64.5 226c0 64 -18.5 108.667 -55.5 134s-102.5 41.666 -196.5 48.999z" />
    <glyph glyph-name="bar" unicode="|" horiz-adv-x="657" 
d="M319 -424v1952h103v-1952h-103z" />
    <glyph glyph-name="braceright" unicode="}" horiz-adv-x="837" 
d="M-123 -346l12.0029 46.9971c117.333 8 197.666 36.333 240.999 85s71 141 83 277c8 86 27 159.5 57 220.5s71 109.5 123 145.5s104 64 156 84s114 36.667 186 50l13 51c-109.333 23.333 -191.333 52.5 -246 87.5s-82 88.5 -82 160.5c0 60 18 143.667 54 251
s54 181.333 54 222c0 50.667 -12.833 85.5 -38.5 104.5s-78.167 31.5 -157.5 37.5l12 47c143.333 0 247.166 -17.167 311.499 -51.5s96.5 -90.166 96.5 -167.499c0 -64 -21.5 -148.333 -64.5 -253s-64.5 -180.334 -64.5 -227.001c0 -62.667 20.667 -106.667 62 -132
s112 -42 212 -50l-27 -108c-150 -13.333 -253.333 -44.666 -310 -93.999s-90.334 -148.666 -101.001 -297.999c-12 -177.333 -62.5 -303.166 -151.5 -377.499s-232.5 -111.5 -430.5 -111.5z" />
    <glyph glyph-name="asciitilde" unicode="~" horiz-adv-x="1085" 
d="M102 367c18 68 53.999 130.668 107.999 188.001s112.333 86 175 86c52 0 120.333 -18.167 205 -54.5s140.667 -54.5 168 -54.5c46.667 0 82.834 8.66699 108.501 26s50.167 47.666 73.5 90.999l41 -14c-19.333 -69.333 -55.5 -132.5 -108.5 -189.5
s-111.167 -85.5 -174.5 -85.5c-54.667 0 -123.5 18.167 -206.5 54.5s-138.167 54.5 -165.5 54.5c-46.667 0 -83 -8.5 -109 -25.5s-50.667 -47.5 -74 -91.5z" />
    <glyph glyph-name="uni00A0" unicode="&#xa0;" horiz-adv-x="444" 
 />
    <glyph glyph-name="exclamdown" unicode="&#xa1;" horiz-adv-x="727" 
d="M111 113c0 38 46.667 156.668 140 356.001s165.333 368.666 216 507.999l49 -10c-27.333 -142 -50.5 -310.333 -69.5 -505s-30.5 -301.667 -34.5 -321c-12 -49.333 -33.5 -89 -64.5 -119s-68.167 -45 -111.5 -45c-38 0 -68.333 12.333 -91 37s-34 57.667 -34 99z
M424 1280c0 40.667 13.667 74.334 41 101.001s61.5 40 102.5 40s75.5 -13.333 103.5 -40s42 -60.334 42 -101.001s-14 -74.667 -42 -102s-62.5 -41 -103.5 -41s-75.167 13.667 -102.5 41s-41 61.333 -41 102z" />
    <glyph glyph-name="cent" unicode="&#xa2;" horiz-adv-x="931" 
d="M104 446c0 62.667 13.667 131 41 205s64.333 144.833 111 212.5s107.167 124.334 181.5 170.001s153.166 69.167 236.499 70.5h14l100 270l54 -18l-97 -256c53.333 -10.667 97.5 -32.834 132.5 -66.501s52.5 -71.5 52.5 -113.5c0 -44 -11 -81 -33 -111
s-49.333 -45 -82 -45c-64 0 -96 35.333 -96 106c0 24.667 8.83301 49 26.5 73s41.5 42.667 71.5 56c-6.66699 32.667 -34.667 54.667 -84 66l-319 -862c16.667 -8 36.334 -12.333 59.001 -13c130 0 244 91.667 342 275l39 -19c-114.667 -216 -252.667 -323.667 -414 -323
c-13.333 0 -31 1.33301 -53 4l-135 -365l-49 17l65 180c44 118.667 65.333 178 64 178c-151.333 38 -227.333 141 -228 309zM340 373c0 -52 10.333 -96.333 31 -133l305 829h-8c-54.667 -1.33301 -108 -42 -160 -122s-93 -173.5 -123 -280.5s-45 -204.833 -45 -293.5z" />
    <glyph glyph-name="sterling" unicode="&#xa3;" horiz-adv-x="1118" 
d="M-76 76c0 65.333 33.166 121.834 99.499 169.501s151.5 71.5 255.5 71.5h8c8 35.333 15 70.833 21 106.5s12.167 77 18.5 124s10.833 80.167 13.5 99.5h-207l35 127h197c4 15.333 6.66699 25 8 29c118.667 416.667 326.667 624.667 624 624
c188.667 0 283 -72.333 283 -217c0 -50.667 -14.667 -98.167 -44 -142.5s-69.333 -66.5 -120 -66.5c-35.333 0 -62.5 9.66699 -81.5 29s-28.5 42.666 -28.5 69.999c0 24.667 6 46.167 18 64.5s29.667 37 53 56s39.666 34.833 48.999 47.5c0 70.667 -42.333 106 -127 106
c-79.333 0 -143.5 -43 -192.5 -129s-96.5 -212.333 -142.5 -379c-5.33301 -20.667 -15 -51.334 -29 -92.001h231l-35 -127h-239c-45.333 -125.333 -98.666 -242.666 -159.999 -351.999c45.333 -13.333 109.333 -42.666 192 -87.999s146.334 -68 191.001 -68
c64 0 118.667 24 164 72l41 -37c-101.333 -139.333 -223 -209 -365 -209c-52 0 -99 10.333 -141 31s-75 44.167 -99 70.5s-51 53.166 -81 80.499c-94 -122.667 -189.667 -184 -287 -184c-82 0 -123 37.667 -123 113zM-2.00098 82.001c0 -35.333 21.001 -53 63.001 -53
c34 0 68.167 15.667 102.5 47s63.166 74.333 86.499 129c-24.667 9.33301 -48 14 -70 14c-44 0 -85.333 -11.5 -124 -34.5s-58 -57.167 -58 -102.5z" />
    <glyph glyph-name="currency" unicode="&#xa4;" horiz-adv-x="1247" 
d="M39 469l16.001 53.0029h148c4 39.333 14 89.333 30 150h-153l14 53h156c54.667 158.667 143.667 289.167 267 391.5s259.666 153.5 408.999 153.5c101.333 0 180.5 -21.833 237.5 -65.5s85.5 -97.834 85.5 -162.501c0 -57.333 -13.333 -102.333 -40 -135s-59 -49 -97 -49
c-35.333 0 -63.333 8.16699 -84 24.5s-31 38.166 -31 65.499c0 31.333 11.333 61 34 89s35.334 51.667 38.001 71c-2.66699 30 -18 56.333 -46 79s-66.667 34 -116 34c-82 0 -158.833 -45.833 -230.5 -137.5s-127.167 -211.167 -166.5 -358.5h410l-15 -53h-407
c-10.667 -42 -19.667 -92 -27 -150h328l-17 -53h-317c-2.66699 -38 -4 -67.333 -4 -88c0 -212.667 79 -319.334 237 -320.001c83.333 0 152.666 20.833 207.999 62.5s110.333 105.5 165 191.5l47 -28c-60 -100 -129.667 -177.667 -209 -233s-177 -83 -293 -83
c-132.667 0 -236 37.333 -310 112s-111 180.667 -111 318c0 30 0.666992 52.667 2 68h-158z" />
    <glyph glyph-name="yen" unicode="&#xa5;" horiz-adv-x="1202" 
d="M100 1356l12.999 42.998h624l-10 -43c-131.333 -9.33301 -197 -29.333 -197 -60c0 -13.333 18.167 -94.166 54.5 -242.499s72.833 -286.5 109.5 -414.5c134 148.667 258 290.334 372 425.001s171 208.667 171 222c0 38 -54 61.333 -162 70l10 43h463l-10 -43
c-32.667 -2.66699 -69.667 -13.667 -111 -33c-34 -18 -112.667 -91.5 -236 -220.5s-261 -286.833 -413 -473.5c-27.333 -32.667 -54.666 -76.334 -81.999 -131.001h217l-32 -127h-228l-102 -371h-242l105 371h-234l35 127h229c5.33301 27.333 8.33301 42.333 9 45
c0 15.333 -4.33301 43.333 -13 84c-50.667 207.333 -101.667 397 -153 569c-20.667 65.333 -48 109 -82 131c-23.333 16.667 -58.333 26.334 -105 29.001z" />
    <glyph glyph-name="brokenbar" unicode="&#xa6;" horiz-adv-x="667" 
d="M326 379h100v-803h-100v803zM326 745v783h100v-783h-100z" />
    <glyph glyph-name="section" unicode="&#xa7;" horiz-adv-x="1105" 
d="M29 -246c0 49.333 15.6699 91.3311 47.0029 125.998s71 52 119 52c35.333 0 63.5 -10.167 84.5 -30.5s31.5 -43.5 31.5 -69.5c0 -27.333 -6.16699 -49.833 -18.5 -67.5s-26.333 -30.334 -42 -38.001s-29.667 -17.667 -42 -30s-18.5 -27.166 -18.5 -44.499
c0 -46.667 36.333 -70 109 -70c57.333 0 105.5 25 144.5 75s58.5 109 58.5 177c0 40.667 -3.83301 74 -11.5 100s-25.834 70 -54.501 132c-16.667 34 -46.334 85.167 -89.001 153.5s-77 126.833 -103 175.5c-38 66.667 -62.833 116.167 -74.5 148.5s-17.5 69.5 -17.5 111.5
c0 80.667 31 150 93 208s148.333 92.667 259 104c-23.333 54.667 -35 110 -35 166c0 100 38.5 188 115.5 264s171.5 114 283.5 114c86 0 150.5 -22.167 193.5 -66.5s64.5 -90.833 64.5 -139.5c0 -54.667 -17 -99.5 -51 -134.5s-72 -52.5 -114 -52.5
c-35.333 0 -63.666 10 -84.999 30s-32 43.667 -32 71c0 28.667 6.5 52.167 19.5 70.5s27 30.833 42 37.5s29 16.167 42 28.5s19.5 27.5 19.5 45.5c0 40.667 -37.667 61 -113 61c-54.667 0 -101.167 -22.5 -139.5 -67.5s-57.5 -100.833 -57.5 -167.5
c0 -48 24 -123.333 72 -226c20.667 -42 52.167 -99.167 94.5 -171.5s72.833 -125.5 91.5 -159.5c62 -109.333 93 -194.666 93 -255.999c0 -94 -33.833 -166 -101.5 -216s-150.834 -82 -249.501 -96c26 -66.667 39 -126.667 39 -180
c0 -113.333 -39.833 -206.166 -119.5 -278.499s-174.834 -108.5 -285.501 -108.5c-83.333 0 -147.833 20.5 -193.5 61.5s-68.5 93.5 -68.5 157.5zM350.003 738.998c0 -52 18.667 -112.667 56 -182c22 -40.667 61.833 -108.5 119.5 -203.5s96.167 -163.833 115.5 -206.5
c110.667 33.333 166 96.333 166 189c0 49.333 -17.667 105.333 -53 168c-23.333 42 -63 112.833 -119 212.5s-93.667 168.834 -113 207.501c-54.667 -9.33301 -97 -30.833 -127 -64.5s-45 -73.834 -45 -120.501z" />
    <glyph glyph-name="dieresis" unicode="&#xa8;" horiz-adv-x="1003" 
d="M362 1290c0 40.667 14.833 76.501 44.5 107.501s67.5 46.5 113.5 46.5c31.333 0 57.666 -12.333 78.999 -37s32 -52 32 -82c0 -40.667 -14 -76.834 -42 -108.501s-64.667 -47.5 -110 -47.5c-35.333 0 -63.666 12 -84.999 36s-32 52.333 -32 85zM791 1290
c0 42 14.668 78.168 44.001 108.501s67.666 45.5 114.999 45.5c31.333 0 57 -12.333 77 -37s30 -52 30 -82c0 -40.667 -13.333 -76.834 -40 -108.501s-62.667 -47.5 -108 -47.5c-36.667 0 -65.5 12 -86.5 36s-31.5 52.333 -31.5 85z" />
    <glyph glyph-name="copyright" unicode="&#xa9;" horiz-adv-x="1925" 
d="M45 514c0 158.667 39.666 305.499 118.999 440.499s187.833 242.167 325.5 321.5s287.834 119 450.501 119c246 0 456 -86.5 630 -259.5s261 -380.167 261 -621.5c0 -160 -39.667 -307.833 -119 -443.5s-187.5 -243.167 -324.5 -322.5s-286.167 -119 -447.5 -119
c-247.333 0 -458.333 86.333 -633 259s-262 381.334 -262 626.001zM132.999 513.999c0 -226.667 78.167 -419.167 234.5 -577.5s347.166 -237.5 572.499 -237.5c224 0 413.833 79.167 569.5 237.5s233.5 350.833 233.5 577.5c0 224 -77.833 414.833 -233.5 572.5
s-345.5 236.5 -569.5 236.5c-225.333 0 -416.166 -78.833 -572.499 -236.5s-234.5 -348.5 -234.5 -572.5zM462.999 505.999c0 142 48.834 260.498 146.501 355.498s221.5 142.5 371.5 142.5c88.667 0 163 -21.333 223 -64l45 78h56l8 -371h-47
c-31.333 92.667 -70.333 165 -117 217s-115.667 78 -207 78c-78 0 -143.833 -36.167 -197.5 -108.5s-80.5 -178.166 -80.5 -317.499c0 -120 31 -216.5 93 -289.5s140.667 -109.5 236 -109.5c78 0 139.833 18.667 185.5 56s85.5 91 119.5 161l45 -21
c-86 -191.333 -216.333 -286.666 -391 -285.999c-148.667 0 -267.334 43.333 -356.001 130s-133 203 -133 349z" />
    <glyph glyph-name="ordfeminine" unicode="&#xaa;" horiz-adv-x="718" 
d="M152 696l16 60h461l-17 -60h-460zM201 1069c0 74 30.6699 150.832 92.0029 230.499s137.666 119.5 228.999 119.5c49.333 0 80.666 -23 93.999 -69h5l18 63h133l-123 -358c-13.333 -39.333 -20 -68.666 -20 -87.999s7.33301 -29 22 -29c40.667 0 77.667 46.333 111 139
l35 -10c-26 -58.667 -50.333 -102 -73 -130s-52.334 -42 -89.001 -42c-74 0 -113.667 30 -119 90h-6c-48 -62.667 -98 -94 -150 -94c-44 0 -81.5 14 -112.5 42s-46.5 73.333 -46.5 136zM344.003 1034c0 -62.667 17.6689 -94 53.002 -94c38 0 75.667 33.333 113 100l82 265
c-5.33301 28.667 -12.833 48.667 -22.5 60s-24.834 17 -45.501 17c-50.667 0 -93.334 -39.5 -128.001 -118.5s-52 -155.5 -52 -229.5z" />
    <glyph glyph-name="guillemotleft" unicode="&#xab;" horiz-adv-x="1118" 
d="M71.5 415.5c0.333008 13.667 5.5 35.167 15.5 64.5s24 50.333 42 63c16.667 9.33301 57.667 34.166 123 74.499s133.833 83.333 205.5 129s141.167 91.834 208.5 138.501l22 -25l-412 -416l189 -395l-29 -18l-330 329c-23.333 23.333 -34.833 41.833 -34.5 55.5z
M500 415.5c0 13.667 5 35.167 15 64.5s24 50.333 42 63c16.667 9.33301 57.667 34.166 123 74.499s133.833 83.333 205.5 129s141.167 91.834 208.5 138.501l22 -25l-411 -416l188 -395l-29 -18l-329 329c-23.333 23.333 -35 41.833 -35 55.5z" />
    <glyph glyph-name="logicalnot" unicode="&#xac;" horiz-adv-x="1150" 
d="M115 522v99h956v-541h-108v442h-848z" />
    <glyph glyph-name="uni00AD" unicode="&#xad;" horiz-adv-x="665" 
d="M37 420l45 172h545l-45 -172h-545z" />
    <glyph glyph-name="registered" unicode="&#xae;" horiz-adv-x="991" 
d="M260 1067c0 105.333 35.833 193.833 107.5 265.5s160.167 107.5 265.5 107.5s193.833 -35.833 265.5 -107.5s107.5 -160.167 107.5 -265.5s-35.833 -193.833 -107.5 -265.5s-160.167 -107.5 -265.5 -107.5s-193.833 35.833 -265.5 107.5s-107.5 160.167 -107.5 265.5z
M301 1067c0 -95.333 31.833 -175.833 95.5 -241.5s142.5 -98.5 236.5 -98.5s172.833 32.833 236.5 98.5s95.5 146.167 95.5 241.5s-31.833 175.833 -95.5 241.5s-142.5 98.5 -236.5 98.5s-172.833 -32.833 -236.5 -98.5s-95.5 -146.167 -95.5 -241.5zM442 872l0.00195312 23
c19.333 0 33 2 41 6c12 5.33301 18.333 15.666 19 30.999v301c0 16.667 -6.33301 27 -19 31c-16.667 5.33301 -30.334 8 -41.001 8v20h215c35.333 0 66.833 -7.83301 94.5 -23.5s41.5 -39.167 41.5 -70.5c0 -49.333 -39.667 -84.666 -119 -105.999v-7
c53.333 -8 84.666 -29.667 93.999 -65c2.66699 -9.33301 6 -24.333 10 -45s7.33301 -36.334 10 -47.001c5.33301 -18 15 -27 29 -27c18 0 27 17 27 51h20c0 -57.333 -25.167 -86 -75.5 -86s-79.833 35 -88.5 105c-8 66.667 -38 100 -90 100h-35v-139
c0 -15.333 6.33301 -25.666 19 -30.999c8 -4 21.667 -6 41 -6v-23h-193zM575.002 1096h33c67.333 0 101 30 101 90c0 56 -28 84 -84 84h-50v-174z" />
    <glyph glyph-name="macron" unicode="&#xaf;" horiz-adv-x="1003" 
d="M367 1192l41 156h675l-41 -156h-675z" />
    <glyph glyph-name="degree" unicode="&#xb0;" horiz-adv-x="753" 
d="M154 1135c0 90 32 165.333 96 226s141.667 91 233 91c79.333 0 150.5 -26.667 213.5 -80s94.5 -123 94.5 -209c0 -87.333 -31.167 -161.333 -93.5 -222s-137.833 -91 -226.5 -91c-84.667 0 -158.667 26 -222 78s-95 121 -95 207zM299 1108
c0 -60 14.3311 -107.502 42.998 -142.502s68.334 -52.5 119.001 -52.5c54.667 0 98.334 27.333 131.001 82s49.667 122.334 51 203.001c0 126.667 -53.333 190.334 -160 191.001c-60 0 -105.667 -29.167 -137 -87.5s-47 -122.833 -47 -193.5z" />
    <glyph glyph-name="plusminus" unicode="&#xb1;" horiz-adv-x="1796" 
d="M-487 -307c0 30 11.1797 58.666 33.5127 85.999s52.833 41 91.5 41c31.333 0 60.666 -10 87.999 -30s41 -49 41 -87c0 -15.333 -2.83301 -28.666 -8.5 -39.999s-15.334 -24.833 -29.001 -40.5s-21.834 -25.834 -24.501 -30.501c4 -24.667 15 -36.667 33 -36
c70.667 0 126.167 31.667 166.5 95s85.833 177 136.5 341c30 98 58.667 197.833 86 299.5s56 214 86 337s48.333 197.5 55 223.5h-196l20 68h197l20 73c46.667 173.333 127.334 311.333 242.001 414c83.333 76.667 183.666 115 300.999 115
c75.333 0 135.166 -18.167 179.499 -54.5s67.166 -80.5 68.499 -132.5c30 32.667 53.667 56.667 71 72c87.333 76.667 190.666 115 309.999 115c75.333 0 136 -18.667 182 -56l244 50l-402 -1258c-32.667 -98 -49 -156.667 -49 -176c0 -35.333 19 -53 57 -53
c83.333 0 160 90 230 270l37 -12c-40.667 -102.667 -83.667 -180 -129 -232s-101.333 -78 -168 -78c-58.667 0 -111.667 13.667 -159 41s-71 69.666 -71 126.999c0 34 12.333 88 37 162l303 963c-22 15.333 -36 35.833 -42 61.5s-7.66699 62.5 -5 110.5
c-10.667 26 -41.334 39 -92.001 39c-58.667 0 -111.167 -34.167 -157.5 -102.5s-90.833 -176.166 -133.5 -323.499l-37 -135h224l-23 -68h-217c-112 -428.667 -184.333 -696.334 -217 -803.001c-58.667 -188.667 -141.334 -326.667 -248.001 -414
c-94 -79.333 -189 -118.666 -285 -117.999c-64 0 -112.667 16.667 -146 50s-50 75.333 -50 126c0 31.333 11.5 60.333 34.5 87s53.833 40 92.5 40c30 0 58.667 -10 86 -30s41 -49 41 -87c0 -13.333 -2.83301 -25.833 -8.5 -37.5s-15.334 -25.667 -29.001 -42
s-21.834 -26.833 -24.501 -31.5v-14c1.33301 -15.333 5.66602 -22.666 12.999 -21.999c56 0 105.167 33.667 147.5 101s87.166 179 134.499 335c30 98 58.667 197.833 86 299.5s56 214 86 337s48.667 197.5 56 223.5h-379c-112 -428.667 -184.333 -696.334 -217 -803.001
c-58.667 -188.667 -141.334 -326.667 -248.001 -414c-94 -79.333 -195.667 -118.666 -305 -117.999c-74 0 -128.667 16.333 -164 49s-53 75 -53 127zM516.013 919.999l382.999 0.00195312l23 73c23.333 83.333 52.666 155.666 87.999 216.999
c-35.333 1.33301 -67.166 10.666 -95.499 27.999s-42.5 43.666 -42.5 78.999c0 16.667 3.16699 41.334 9.5 74.001s9.5 51 9.5 55c-8 23.333 -29.333 35 -64 35c-57.333 0 -107.166 -33.5 -149.499 -100.5s-83.833 -175.5 -124.5 -325.5z" />
    <glyph glyph-name="uni00B2" unicode="&#xb2;" horiz-adv-x="1243" 
d="M68 792.5c0 42.333 14.9961 79.1621 44.9961 110.495s66.667 47 110 47c61.333 0 107 -28.667 137 -86c5.33301 -9.33301 11.5 -25.666 18.5 -48.999s15 -44.833 24 -64.5s20.833 -37.167 35.5 -52.5l31 2c38 40.667 85 61.334 141 62.001l23 14c0 38 -11.667 80 -35 126
s-35 82 -35 108c0 44 15 79.833 45 107.5s66.833 41.5 110.5 41.5s79.834 -15.333 108.501 -46s43 -67 43 -109c0 -30 -6.83301 -55.667 -20.5 -77s-29 -37.166 -46 -47.499s-36.667 -25.666 -59 -45.999s-40.5 -42.833 -54.5 -67.5l8 -25
c52 -27.333 85 -66.666 99 -117.999l24 -13c31.333 10.667 68.5 37.334 111.5 80.001s86.5 64 130.5 64c40.667 0 75.667 -15.333 105 -46s44 -68 44 -112c0 -42 -14.667 -77.833 -44 -107.5s-65.666 -44.5 -108.999 -44.5c-32.667 0 -71.167 15.833 -115.5 47.5
s-85.166 50.167 -122.499 55.5l-18 -17c-8 -48 -34.667 -88.667 -80 -122l-2 -21c20.667 -27.333 56.667 -54 108 -80c75.333 -35.333 113 -87 113 -155c0 -40.667 -15.667 -76.834 -47 -108.501s-69 -47.5 -113 -47.5c-42 0 -78 14.667 -108 44s-45 66 -45 110
c0 19.333 6.16699 48.666 18.5 87.999s18.5 74 18.5 104v23l-15 10c-9.33301 -1.33301 -23 -2 -41 -2c-40.667 0 -78.667 12.333 -114 37l-27 -2c-20.667 -30 -35 -71.667 -43 -125c-19.333 -113.333 -72.666 -170 -159.999 -170c-42 0 -78.667 15.333 -110 46
s-47 67.834 -47 111.501s16.333 80.167 49 109.5s73 44 121 44c66.667 0 117 9 151 27l6 28c-13.333 30 -20 59.333 -20 88c0 18 2 35 6 51l-10 27c-12 4 -30.667 6 -56 6c-20.667 0 -44.5 -2.33301 -71.5 -7s-46.833 -7 -59.5 -7c-45.333 0 -82.833 15.333 -112.5 46
s-44.5 67.167 -44.5 109.5zM472.996 569.496c0 -39.667 13.334 -73.499 40.001 -101.499s59 -42 97 -42c39.333 0 72.166 13.667 98.499 41s39.5 61.333 39.5 102c0 39.333 -13 72.5 -39 99.5s-59 40.5 -99 40.5c-38 0 -70.333 -13.333 -97 -40s-40 -59.834 -40 -99.501z
" />
    <glyph glyph-name="uni00B3" unicode="&#xb3;" horiz-adv-x="1243" 
d="M68 792.5c0 42.333 14.9961 79.1621 44.9961 110.495s66.667 47 110 47c61.333 0 107 -28.667 137 -86c5.33301 -9.33301 11.5 -25.666 18.5 -48.999s15 -44.833 24 -64.5s20.833 -37.167 35.5 -52.5l31 2c38 40.667 85 61.334 141 62.001l23 14c0 38 -11.667 80 -35 126
s-35 82 -35 108c0 44 15 79.833 45 107.5s66.833 41.5 110.5 41.5s79.834 -15.333 108.501 -46s43 -67 43 -109c0 -30 -6.83301 -55.667 -20.5 -77s-29 -37.166 -46 -47.499s-36.667 -25.666 -59 -45.999s-40.5 -42.833 -54.5 -67.5l8 -25
c52 -27.333 85 -66.666 99 -117.999l24 -13c31.333 10.667 68.5 37.334 111.5 80.001s86.5 64 130.5 64c40.667 0 75.667 -15.333 105 -46s44 -68 44 -112c0 -42 -14.667 -77.833 -44 -107.5s-65.666 -44.5 -108.999 -44.5c-32.667 0 -71.167 15.833 -115.5 47.5
s-85.166 50.167 -122.499 55.5l-18 -17c-8 -48 -34.667 -88.667 -80 -122l-2 -21c20.667 -27.333 56.667 -54 108 -80c75.333 -35.333 113 -87 113 -155c0 -40.667 -15.667 -76.834 -47 -108.501s-69 -47.5 -113 -47.5c-42 0 -78 14.667 -108 44s-45 66 -45 110
c0 19.333 6.16699 48.666 18.5 87.999s18.5 74 18.5 104v23l-15 10c-9.33301 -1.33301 -23 -2 -41 -2c-40.667 0 -78.667 12.333 -114 37l-27 -2c-20.667 -30 -35 -71.667 -43 -125c-19.333 -113.333 -72.666 -170 -159.999 -170c-42 0 -78.667 15.333 -110 46
s-47 67.834 -47 111.501s16.333 80.167 49 109.5s73 44 121 44c66.667 0 117 9 151 27l6 28c-13.333 30 -20 59.333 -20 88c0 18 2 35 6 51l-10 27c-12 4 -30.667 6 -56 6c-20.667 0 -44.5 -2.33301 -71.5 -7s-46.833 -7 -59.5 -7c-45.333 0 -82.833 15.333 -112.5 46
s-44.5 67.167 -44.5 109.5zM472.996 569.496c0 -39.667 13.334 -73.499 40.001 -101.499s59 -42 97 -42c39.333 0 72.166 13.667 98.499 41s39.5 61.333 39.5 102c0 39.333 -13 72.5 -39 99.5s-59 40.5 -99 40.5c-38 0 -70.333 -13.333 -97 -40s-40 -59.834 -40 -99.501z
" />
    <glyph glyph-name="acute" unicode="&#xb4;" horiz-adv-x="1003" 
d="M422 1104c101.333 116 177.001 205.997 227.001 269.997c35.333 46.667 62.666 76.834 81.999 90.501s42.666 20.5 69.999 20.5c22 0 42.167 -8.5 60.5 -25.5s27.5 -35.833 27.5 -56.5c0 -31.333 -8.5 -57.666 -25.5 -78.999s-48.833 -45.666 -95.5 -72.999
c-13.333 -8 -56.666 -30.833 -129.999 -68.5s-137.333 -74.167 -192 -109.5z" />
    <glyph glyph-name="uni00B5" unicode="&#xb5;" horiz-adv-x="1214" 
d="M-113 -373c0 27.333 21.334 84.667 64.001 172l61 129c22 54.667 45.333 121.667 70 201l240 793h233l-186 -619c-16.667 -52 -25 -97.667 -25 -137c0 -78 33.333 -117 100 -117c49.333 0 98.666 24 147.999 72s85.333 93.667 108 137l199 664h234l-205 -664
c-26 -86 -39 -142 -39 -168c0 -40.667 17 -61 51 -61s65 13.667 93 41s50.833 57.666 68.5 90.999s38.167 79.333 61.5 138l41 -12c-40.667 -105.333 -83.167 -183.333 -127.5 -234s-100.833 -76 -169.5 -76c-62.667 0 -114.167 15.167 -154.5 45.5
s-60.5 78.833 -60.5 145.5h-8c-22 -30 -40.167 -53.167 -54.5 -69.5s-34.833 -35.833 -61.5 -58.5s-56.334 -39.167 -89.001 -49.5s-68.667 -15.5 -108 -15.5c-45.333 0 -88.5 12 -129.5 36s-69.5 58 -85.5 102h-4l-19 -80
c-13.333 -61.333 -18.666 -138.666 -15.999 -231.999c0 -66.667 -4.33301 -115.667 -13 -147c-20.667 -78 -62 -117 -124 -117c-61.333 0 -92.333 30 -93 90z" />
    <glyph glyph-name="paragraph" unicode="&#xb6;" horiz-adv-x="1218" 
d="M193 1008c0 102.667 42.667 193.5 128 272.5s203 118.5 353 118.5h717l-11 -45h-280l-402 -1610h-57l401 1610h-188l-401 -1610h-58l238 956h-21c-131.333 0 -234 28 -308 84s-111 130.667 -111 224z" />
    <glyph glyph-name="periodcentered" unicode="&#xb7;" horiz-adv-x="546" 
d="M147 557c0 40.667 15.167 75.834 45.5 105.501s65.833 44.5 106.5 44.5c42 0 77.833 -14.833 107.5 -44.5s44.5 -64.834 44.5 -105.501c0 -42 -14.833 -77.333 -44.5 -106s-65.5 -43 -107.5 -43c-40.667 0 -76.167 14.667 -106.5 44s-45.5 64.333 -45.5 105z" />
    <glyph glyph-name="cedilla" unicode="&#xb8;" horiz-adv-x="1003" 
d="M37 -465l12 46.998c102.667 2.66699 178.834 13.334 228.501 32.001s74.5 48.334 74.5 89.001c0 26 -10.833 43.833 -32.5 53.5s-59.834 14.5 -114.501 14.5l80 245h57l-39 -120c154.667 -0.666992 232 -48 232 -142c0 -146 -166 -219 -498 -219z" />
    <glyph glyph-name="uni00B9" unicode="&#xb9;" horiz-adv-x="1243" 
d="M68 792.5c0 42.333 14.9961 79.1621 44.9961 110.495s66.667 47 110 47c61.333 0 107 -28.667 137 -86c5.33301 -9.33301 11.5 -25.666 18.5 -48.999s15 -44.833 24 -64.5s20.833 -37.167 35.5 -52.5l31 2c38 40.667 85 61.334 141 62.001l23 14c0 38 -11.667 80 -35 126
s-35 82 -35 108c0 44 15 79.833 45 107.5s66.833 41.5 110.5 41.5s79.834 -15.333 108.501 -46s43 -67 43 -109c0 -30 -6.83301 -55.667 -20.5 -77s-29 -37.166 -46 -47.499s-36.667 -25.666 -59 -45.999s-40.5 -42.833 -54.5 -67.5l8 -25
c52 -27.333 85 -66.666 99 -117.999l24 -13c31.333 10.667 68.5 37.334 111.5 80.001s86.5 64 130.5 64c40.667 0 75.667 -15.333 105 -46s44 -68 44 -112c0 -42 -14.667 -77.833 -44 -107.5s-65.666 -44.5 -108.999 -44.5c-32.667 0 -71.167 15.833 -115.5 47.5
s-85.166 50.167 -122.499 55.5l-18 -17c-8 -48 -34.667 -88.667 -80 -122l-2 -21c20.667 -27.333 56.667 -54 108 -80c75.333 -35.333 113 -87 113 -155c0 -40.667 -15.667 -76.834 -47 -108.501s-69 -47.5 -113 -47.5c-42 0 -78 14.667 -108 44s-45 66 -45 110
c0 19.333 6.16699 48.666 18.5 87.999s18.5 74 18.5 104v23l-15 10c-9.33301 -1.33301 -23 -2 -41 -2c-40.667 0 -78.667 12.333 -114 37l-27 -2c-20.667 -30 -35 -71.667 -43 -125c-19.333 -113.333 -72.666 -170 -159.999 -170c-42 0 -78.667 15.333 -110 46
s-47 67.834 -47 111.501s16.333 80.167 49 109.5s73 44 121 44c66.667 0 117 9 151 27l6 28c-13.333 30 -20 59.333 -20 88c0 18 2 35 6 51l-10 27c-12 4 -30.667 6 -56 6c-20.667 0 -44.5 -2.33301 -71.5 -7s-46.833 -7 -59.5 -7c-45.333 0 -82.833 15.333 -112.5 46
s-44.5 67.167 -44.5 109.5zM472.996 569.496c0 -39.667 13.334 -73.499 40.001 -101.499s59 -42 97 -42c39.333 0 72.166 13.667 98.499 41s39.5 61.333 39.5 102c0 39.333 -13 72.5 -39 99.5s-59 40.5 -99 40.5c-38 0 -70.333 -13.333 -97 -40s-40 -59.834 -40 -99.501z
" />
    <glyph glyph-name="ordmasculine" unicode="&#xba;" horiz-adv-x="630" 
d="M137 696l15 60h460l-14 -60h-461zM201 1087c0 72.667 30.3311 146.167 90.998 220.5s139.334 111.5 236.001 111.5c44 0 84.833 -16.333 122.5 -49s56.5 -81.667 56.5 -147c0 -74 -30.5 -147.833 -91.5 -221.5s-139.167 -110.5 -234.5 -110.5
c-45.333 0 -86.666 16.333 -123.999 49s-56 81.667 -56 147zM339.998 1057c0 -86 19.668 -129 59.001 -129c49.333 0 89.666 36.333 120.999 109s47 146 47 220c0 84.667 -18.333 127 -55 127c-48 0 -88.667 -36.5 -122 -109.5s-50 -145.5 -50 -217.5z" />
    <glyph glyph-name="guillemotright" unicode="&#xbb;" horiz-adv-x="1118" 
d="M10 55l412 416.001l-189 395l29 19l328 -330c24.667 -23.333 37 -41.833 37 -55.5s-5.16699 -35.167 -15.5 -64.5s-24.5 -49.333 -42.5 -60c-5.33301 -2.66699 -73.5 -45.334 -204.5 -128.001s-241.5 -154.667 -331.5 -216zM438 55.001l412 416.001l-188 395l28 19
l328 -330c24.667 -23.333 37 -41.833 37 -55.5s-5.16699 -35.167 -15.5 -64.5s-24.5 -49.333 -42.5 -60c-5.33301 -2.66699 -73.5 -45.334 -204.5 -128.001s-241.5 -154.667 -331.5 -216z" />
    <glyph glyph-name="onequarter" unicode="&#xbc;" horiz-adv-x="1179" 
d="M66 487l22 84h1008l-23 -84h-1007zM125 -221l17.998 71.0029l613 517h114l-139 -517h49c30 0 52 5.66699 66 17c31.333 19.333 53 50.666 65 93.999h47l-81 -299h-46c2.66699 9.33301 4.33398 24.333 5.00098 45c0 27.333 -5.66699 46.333 -17 57
c-9.33301 9.33301 -27.666 14.333 -54.999 15h-51l-33 -121c-2.66699 -10.667 -4 -18.334 -4 -23.001c0 -19.333 8 -32 24 -38c9.33301 -5.33301 38 -10.333 86 -15l-12 -47h-442l12 47c53.333 5.33301 84 8.66602 92 9.99902c27.333 8 46 27.333 56 58l34 129h-401z
M216.998 -149.997h328l94 351zM396.998 694.003l13.002 49.001c64 4 100 7.66699 108 11c31.333 9.33301 51.333 28.333 60 57l151 563h-158l11 43c69.333 0 138.166 9.33301 206.499 28s116.166 43 143.499 73h29l-187 -701c-2.66699 -10.667 -4 -18 -4 -22
c0 -16.667 7 -28.334 21 -35.001c10.667 -5.33301 42 -11 94 -17l-13 -49h-475z" />
    <glyph glyph-name="onehalf" unicode="&#xbd;" horiz-adv-x="1179" 
d="M66 487l22 84h1008l-23 -84h-1007zM94 -465l20.998 76.001l80 59c18 13.333 63 45.333 135 96s128.167 92.167 168.5 124.5s80 75 119 128s58.5 104.167 58.5 153.5c0 45.333 -10.333 79.5 -31 102.5s-48 34.5 -82 34.5c-27.333 0 -51.166 -6.83301 -71.499 -20.5
s-33.166 -31.167 -38.499 -52.5c0 -8 2.66699 -20.333 8 -37s8 -31.667 8 -45c0 -28.667 -11.667 -54.334 -35 -77.001s-52 -34 -86 -34c-58.667 0 -88 29.333 -88 88c0 64 30 119 90 165s140.667 69 242 69c80.667 0 146.167 -23 196.5 -69s75.5 -96.333 75.5 -151
c0 -66.667 -28.667 -123.5 -86 -170.5s-137.5 -94.833 -240.5 -143.5s-176.5 -90 -220.5 -124l-45 -35h344c40.667 0 92 45 154 135l43 -16l-160 -256h-559zM394.998 694.001l15.002 49.001c62.667 4 98.667 7.66699 108 11c31.333 9.33301 51.333 28.333 60 57l149 563
h-158l13 43c69.333 0 138.166 9.33301 206.499 28s116.166 43 143.499 73h29l-187 -701c-2.66699 -10.667 -4 -18 -4 -22c0 -16.667 7 -28.334 21 -35.001c10.667 -5.33301 42 -11 94 -17l-15 -49h-475z" />
    <glyph glyph-name="threequarters" unicode="&#xbe;" horiz-adv-x="1179" 
d="M49 487l23 84h1007l-22 -84h-1008zM84 -221l17.999 71.0029l613 517h114l-139 -517h49c30 0 52 5.66699 66 17c31.333 19.333 53 50.666 65 93.999h48l-82 -299h-45c2.66699 9.33301 4 24.333 4 45c0 27.333 -5.66699 46.333 -17 57
c-9.33301 9.33301 -27.666 14.333 -54.999 15h-51l-33 -121c-2.66699 -10.667 -4 -18.334 -4 -23.001c0 -19.333 8 -32 24 -38c9.33301 -5.33301 38 -10.333 86 -15l-12 -47h-442l12 47c53.333 5.33301 84 8.66602 92 9.99902c27.333 8 46 27.333 56 58l34 129h-401z
M175.999 -149.997h328l94 351zM368.999 835.503c0 45 15.668 83.8291 47.001 116.496s68.666 49 111.999 49c52 0 78 -19.667 78 -59c0 -27.333 -8.16699 -47.833 -24.5 -61.5s-33 -25.667 -50 -36s-25.5 -24.166 -25.5 -41.499c0 -20.667 9.16699 -38.167 27.5 -52.5
s43.166 -21.5 74.499 -21.5c79.333 0 142.833 31.5 190.5 94.5s71.5 129.833 71.5 200.5c0 62.667 -34 94 -102 94c-31.333 0 -64.666 -7.33301 -99.999 -22l-2 49c69.333 15.333 131.333 44.666 186 87.999s82 98.666 82 165.999c0 27.333 -8.5 48.833 -25.5 64.5
s-41.333 23.5 -73 23.5s-59 -6.5 -82 -19.5s-37.167 -27.167 -42.5 -42.5c0 -2.66699 3.66699 -11.167 11 -25.5s11 -28.166 11 -41.499c0 -31.333 -11.5 -57.666 -34.5 -78.999s-51.833 -32 -86.5 -32c-24.667 0 -43.667 6.83301 -57 20.5s-20 30.834 -20 51.501
c0 48 31 95.167 93 141.5s145 69.5 249 69.5c74 0 132.333 -12.667 175 -38s64 -59.666 64 -102.999c0 -112 -96.333 -184.667 -289 -218l-24 -18c166.667 0 250 -51.333 250 -154c0 -95.333 -47.5 -171.666 -142.5 -228.999s-197.167 -86 -306.5 -86
c-75.333 0 -133.333 14 -174 42s-61 64.5 -61 109.5z" />
    <glyph glyph-name="questiondown" unicode="&#xbf;" horiz-adv-x="884" 
d="M-14 299c0 -90 35.832 -166.168 107.499 -228.501s164.834 -93.5 279.501 -93.5c96.667 0 174 23.667 232 71s87 106.333 87 177c0 54.667 -17 98 -51 130s-78.333 48 -133 48l6 -34c42 0 75.667 -14 101 -42s38 -62.667 38 -104c0 -54.667 -22.167 -101 -66.5 -139
s-101.166 -57 -170.499 -57c-70.667 0 -126.334 20.5 -167.001 61.5s-61 89.167 -61 144.5c0 68 19.5 124.333 58.5 169s105.5 89 199.5 133c114.667 53.333 192.5 107.5 233.5 162.5s61.5 117.5 61.5 187.5c0 36.667 -8.83301 74 -26.5 112s-37.5 66 -59.5 84l-34 -8
c27.333 -36.667 41 -75.667 41 -117c0 -54.667 -25.333 -101.667 -76 -141s-156.667 -89 -318 -149c-188.667 -69.333 -282.667 -191.666 -282 -366.999zM544.999 1286.5c0 41 14 74.667 42 101s62.5 39.5 103.5 39.5s75.5 -13.167 103.5 -39.5s42 -60 42 -101
s-14 -75.5 -42 -103.5s-62.5 -42 -103.5 -42s-75.5 14 -103.5 42s-42 62.5 -42 103.5z" />
    <glyph glyph-name="Agrave" unicode="&#xc0;" horiz-adv-x="1253" 
d="M-274 0l12.002 40.999c40.667 2.66699 87.667 16.334 141 41.001c56 26 119.667 80 191 162l940 1177h57v-1239c0 -61.333 15.667 -99.333 47 -114c27.333 -15.333 69 -24.333 125 -27l-12 -41h-652l11 41c70.667 4 124.667 13 162 27c45.333 18 67.666 54 66.999 108
v336h-444l-191 -248c-49.333 -66.667 -74 -109 -74 -127c0 -27.333 21.667 -49.5 65 -66.5s86.666 -26.833 129.999 -29.5l-12 -41h-563zM420.002 574.999h395v490c-4 -4 -135.667 -167.333 -395 -490zM748.002 1819c0 24.667 9.16699 46.167 27.5 64.5s40.5 27.5 66.5 27.5
c53.333 0 98.333 -41.667 135 -125l123 -277l-31 -24c-54.667 52 -138.667 124.333 -252 217c-46.667 38 -69.667 77 -69 117z" />
    <glyph glyph-name="Aacute" unicode="&#xc1;" horiz-adv-x="1253" 
d="M-274 0l12.002 40.999c40.667 2.66699 87.667 16.334 141 41.001c56 26 119.667 80 191 162l940 1177h57v-1239c0 -61.333 15.667 -99.333 47 -114c27.333 -15.333 69 -24.333 125 -27l-12 -41h-652l11 41c70.667 4 124.667 13 162 27c45.333 18 67.666 54 66.999 108
v336h-444l-191 -248c-49.333 -66.667 -74 -109 -74 -127c0 -27.333 21.667 -49.5 65 -66.5s86.666 -26.833 129.999 -29.5l-12 -41h-563zM420.002 574.999h395v490c-4 -4 -135.667 -167.333 -395 -490zM893.002 1495c101.333 116 177.001 205.997 227.001 269.997
c35.333 46.667 62.666 76.834 81.999 90.501s42.666 20.5 69.999 20.5c22 0 42.167 -8.5 60.5 -25.5s27.5 -35.833 27.5 -56.5c0 -31.333 -8.5 -57.666 -25.5 -78.999s-48.833 -45.666 -95.5 -72.999c-13.333 -8 -56.666 -30.667 -129.999 -68s-137 -74 -191 -110z" />
    <glyph glyph-name="Acircumflex" unicode="&#xc2;" horiz-adv-x="1253" 
d="M-274 0l12.002 40.999c40.667 2.66699 87.667 16.334 141 41.001c56 26 119.667 80 191 162l940 1177h57v-1239c0 -61.333 15.667 -99.333 47 -114c27.333 -15.333 69 -24.333 125 -27l-12 -41h-652l11 41c70.667 4 124.667 13 162 27c45.333 18 67.666 54 66.999 108
v336h-444l-191 -248c-49.333 -66.667 -74 -109 -74 -127c0 -27.333 21.667 -49.5 65 -66.5s86.666 -26.833 129.999 -29.5l-12 -41h-563zM420.002 574.999h395v490c-4 -4 -135.667 -167.333 -395 -490zM688.002 1454l311.002 342c20.667 23.333 37.167 37.666 49.5 42.999
s34.833 8 67.5 8c28.667 0 47.5 -2.66699 56.5 -8s17.5 -18.333 25.5 -39c5.33301 -15.333 24.666 -66.166 57.999 -152.499s59.666 -152.833 78.999 -199.5l-32 -16l-218 258l-372 -258z" />
    <glyph glyph-name="Atilde" unicode="&#xc3;" horiz-adv-x="1253" 
d="M-274 0l12.002 40.999c40.667 2.66699 87.667 16.334 141 41.001c56 26 119.667 80 191 162l940 1177h57v-1239c0 -61.333 15.667 -99.333 47 -114c27.333 -15.333 69 -24.333 125 -27l-12 -41h-652l11 41c70.667 4 124.667 13 162 27c45.333 18 67.666 54 66.999 108
v336h-444l-191 -248c-49.333 -66.667 -74 -109 -74 -127c0 -27.333 21.667 -49.5 65 -66.5s86.666 -26.833 129.999 -29.5l-12 -41h-563zM420.002 574.999h395v490c-4 -4 -135.667 -167.333 -395 -490zM684.002 1524c101.333 186 196.331 278.666 284.998 277.999
c48 0 99 -21 153 -63c12 -9.33301 24.333 -18.5 37 -27.5s24.334 -16.667 35.001 -23s21.834 -11.5 33.501 -15.5s23.167 -6 34.5 -6c35.333 0 67 12.333 95 37s59 62.334 93 113.001l37 -19c-96.667 -186 -190.334 -278.667 -281.001 -278c-45.333 0 -97 20.333 -155 61
c-66.667 49.333 -114 74 -142 74c-35.333 0 -66.666 -12 -93.999 -36s-58 -62 -92 -114z" />
    <glyph glyph-name="Adieresis" unicode="&#xc4;" horiz-adv-x="1253" 
d="M-274 0l12.002 40.999c40.667 2.66699 87.667 16.334 141 41.001c56 26 119.667 80 191 162l940 1177h57v-1239c0 -61.333 15.667 -99.333 47 -114c27.333 -15.333 69 -24.333 125 -27l-12 -41h-652l11 41c70.667 4 124.667 13 162 27c45.333 18 67.666 54 66.999 108
v336h-444l-191 -248c-49.333 -66.667 -74 -109 -74 -127c0 -27.333 21.667 -49.5 65 -66.5s86.666 -26.833 129.999 -29.5l-12 -41h-563zM420.002 574.999h395v490c-4 -4 -135.667 -167.333 -395 -490zM725.002 1649c0 40.667 14.666 76.333 43.999 107s67.333 46 114 46
c31.333 0 57.5 -12.333 78.5 -37s31.5 -52 31.5 -82c0 -40.667 -14 -76.667 -42 -108s-64.333 -47 -109 -47c-35.333 0 -63.666 11.833 -84.999 35.5s-32 52.167 -32 85.5zM1153 1649c0 42 14.668 78 44.001 108s68 45 116 45c31.333 0 56.833 -12.333 76.5 -37
s29.5 -52 29.5 -82c0 -40.667 -13.333 -76.667 -40 -108s-62.334 -47 -107.001 -47c-36.667 0 -65.667 11.833 -87 35.5s-32 52.167 -32 85.5z" />
    <glyph glyph-name="Aring" unicode="&#xc5;" horiz-adv-x="1253" 
d="M-274 0l12.002 40.999c40.667 2.66699 87.667 16.334 141 41.001c56 26 119.667 80 191 162l940 1177h57v-1239c0 -61.333 15.667 -99.333 47 -114c27.333 -15.333 69 -24.333 125 -27l-12 -41h-652l11 41c70.667 4 124.667 13 162 27c45.333 18 67.666 54 66.999 108
v336h-444l-191 -248c-49.333 -66.667 -74 -109 -74 -127c0 -27.333 21.667 -49.5 65 -66.5s86.666 -26.833 129.999 -29.5l-12 -41h-563zM420.002 574.999h395v490c-4 -4 -135.667 -167.333 -395 -490zM829.002 1686c0 60 23.668 111.167 71.001 153.5
s104.333 63.5 171 63.5c65.333 0 122.666 -20.833 171.999 -62.5s74 -92.667 74 -153s-22.833 -110.5 -68.5 -150.5s-102.167 -60 -169.5 -60c-68 0 -126.667 19 -176 57s-74 88.667 -74 152zM954.003 1669c0 -96.667 37.667 -145.001 113 -145.001
c40.667 0 71.667 18.333 93 55s32 79 32 127c0 45.333 -9.5 81.5 -28.5 108.5s-47.167 40.5 -84.5 40.5c-38 0 -68.333 -18.667 -91 -56s-34 -80.666 -34 -129.999z" />
    <glyph glyph-name="AE" unicode="&#xc6;" horiz-adv-x="1921" 
d="M-270 0l11.999 43c57.333 2.66699 111.333 15.667 162 39c54.667 26 116.667 79.333 186 160l916 1077c-46.667 20.667 -111 33 -193 37l8 43h1204l-88 -320h-51v17c0 61.333 -13 115.5 -39 162.5s-60.667 73.167 -104 78.5c-38 5.33301 -91.333 8.33301 -160 9h-201
l-165 -594h141c79.333 0 144 21.667 194 65c36.667 28.667 74.334 91 113.001 187h51l-157 -570h-50c4 24.667 6.33301 55.334 7 92.001c0 53.333 -5.66699 89 -17 107c-28.667 42 -80.667 63 -156 63h-141l-129 -454c-13.333 -45.333 -20 -78.333 -20 -99
c0 -36.667 14.667 -60.5 44 -71.5s83.666 -16.5 162.999 -16.5c60 0 104.667 0.666992 134 2s62 5.5 98 12.5s63.667 17.833 83 32.5c42 34 88 82.167 138 144.5s84.667 111.166 104 146.499h51l-133 -393h-1211l13 41c68 0 125.333 8.33301 172 25
c45.333 16.667 74.666 50.667 87.999 102l110 393h-461c-125.333 -146 -205.666 -243.667 -240.999 -293c-53.333 -74 -80 -119.667 -80 -137c0 -26 20.833 -46.5 62.5 -61.5s82.834 -23.833 123.501 -26.5l-10 -43h-571zM499.999 625h424l182 692h-25z" />
    <glyph glyph-name="Ccedilla" unicode="&#xc7;" horiz-adv-x="1257" 
d="M74 492c0 170.667 39.166 327.998 117.499 471.998s182.333 256.833 312 338.5s269.167 122.5 418.5 122.5c114.667 0 214.334 -34.667 299.001 -104l77 98h82l-98 -506h-47c-15.333 150 -46.833 263 -94.5 339s-128.834 114 -243.501 114
c-134 0 -256.167 -82 -366.5 -246s-167.833 -357 -172.5 -579c-2.66699 -147.333 25.333 -265.166 84 -353.499s146.334 -132.5 263.001 -132.5c95.333 0 178.5 27 249.5 81s144.167 137 219.5 249l45 -31c-38 -58.667 -73.167 -107.334 -105.5 -146.001
s-72 -78.167 -119 -118.5s-101 -70.5 -162 -90.5s-127.5 -30 -199.5 -30h-43l-25 -73c154 0 231.333 -47.333 232 -142c0 -146 -166 -219 -498 -219l12 47c102.667 2.66699 178.5 13.334 227.5 32.001s73.5 48.334 73.5 89.001c0 26 -10.5 43.833 -31.5 53.5
s-58.833 14.5 -113.5 14.5l65 202c-147.333 18 -260.5 73.5 -339.5 166.5s-118.5 210.5 -118.5 352.5z" />
    <glyph glyph-name="Egrave" unicode="&#xc8;" horiz-adv-x="1275" 
d="M-123 0l14.001 40.998c66.667 0 123.334 8.33301 170.001 25c45.333 16.667 75 50.667 89 102l290 1049c5.33301 24.667 8.33301 41 9 49c0 24.667 -13.667 43 -41 55c-46.667 20.667 -97.334 32.334 -152.001 35.001l12 43h1110l-88 -320h-47v17
c0 60 -13.667 113.5 -41 160.5s-62.666 73.167 -105.999 78.5c-38 5.33301 -94 8 -168 8h-193l-166 -589h154c69.333 0 130.666 21.667 183.999 65c38 30 75.667 91.667 113 185h49l-160 -570h-45c4 24.667 6 55.334 6 92.001c0 53.333 -5.33301 89 -16 107
c-28.667 42 -77.667 63 -147 63h-152l-127 -452c-13.333 -45.333 -20 -78.333 -20 -99c0 -35.333 18.333 -58.833 55 -70.5s96 -17.5 178 -17.5c57.333 0 99.666 0.666992 126.999 2s56.333 5.5 87 12.5s55.667 17.833 75 32.5c42 34 87.667 81.833 137 143.5
s83.333 110.167 102 145.5h52l-134 -393h-1210zM588.001 1796c0 23.333 9.16699 44.5 27.5 63.5s40.5 28.5 66.5 28.5c53.333 0 98.333 -41.667 135 -125l123 -276l-31 -25c-54.667 52 -138.667 124.333 -252 217c-46.667 38 -69.667 77 -69 117z" />
    <glyph glyph-name="Eacute" unicode="&#xc9;" horiz-adv-x="1275" 
d="M-123 0l14.001 40.998c66.667 0 123.334 8.33301 170.001 25c45.333 16.667 75 50.667 89 102l290 1049c5.33301 24.667 8.33301 41 9 49c0 24.667 -13.667 43 -41 55c-46.667 20.667 -97.334 32.334 -152.001 35.001l12 43h1110l-88 -320h-47v17
c0 60 -13.667 113.5 -41 160.5s-62.666 73.167 -105.999 78.5c-38 5.33301 -94 8 -168 8h-193l-166 -589h154c69.333 0 130.666 21.667 183.999 65c38 30 75.667 91.667 113 185h49l-160 -570h-45c4 24.667 6 55.334 6 92.001c0 53.333 -5.33301 89 -16 107
c-28.667 42 -77.667 63 -147 63h-152l-127 -452c-13.333 -45.333 -20 -78.333 -20 -99c0 -35.333 18.333 -58.833 55 -70.5s96 -17.5 178 -17.5c57.333 0 99.666 0.666992 126.999 2s56.333 5.5 87 12.5s55.667 17.833 75 32.5c42 34 87.667 81.833 137 143.5
s83.333 110.167 102 145.5h52l-134 -393h-1210zM780.001 1495c101.333 116 177.333 205.997 228 269.997c35.333 46.667 62.5 76.834 81.5 90.501s42.167 20.5 69.5 20.5c22 0 42.167 -8.5 60.5 -25.5s27.5 -35.833 27.5 -56.5c0 -31.333 -8.5 -57.666 -25.5 -78.999
s-48.833 -45.666 -95.5 -72.999c-13.333 -8 -56.5 -30.667 -129.5 -68s-136.833 -74 -191.5 -110z" />
    <glyph glyph-name="Ecircumflex" unicode="&#xca;" horiz-adv-x="1275" 
d="M-123 0l14.001 40.998c66.667 0 123.334 8.33301 170.001 25c45.333 16.667 75 50.667 89 102l290 1049c5.33301 24.667 8.33301 41 9 49c0 24.667 -13.667 43 -41 55c-46.667 20.667 -97.334 32.334 -152.001 35.001l12 43h1110l-88 -320h-47v17
c0 60 -13.667 113.5 -41 160.5s-62.666 73.167 -105.999 78.5c-38 5.33301 -94 8 -168 8h-193l-166 -589h154c69.333 0 130.666 21.667 183.999 65c38 30 75.667 91.667 113 185h49l-160 -570h-45c4 24.667 6 55.334 6 92.001c0 53.333 -5.33301 89 -16 107
c-28.667 42 -77.667 63 -147 63h-152l-127 -452c-13.333 -45.333 -20 -78.333 -20 -99c0 -35.333 18.333 -58.833 55 -70.5s96 -17.5 178 -17.5c57.333 0 99.666 0.666992 126.999 2s56.333 5.5 87 12.5s55.667 17.833 75 32.5c42 34 87.667 81.833 137 143.5
s83.333 110.167 102 145.5h52l-134 -393h-1210zM573.001 1499l312 342c20.667 23.333 37 37.666 49 42.999s34.333 8 67 8c28.667 0 47.5 -2.66699 56.5 -8s17.5 -18.333 25.5 -39c5.33301 -15.333 24.833 -66.166 58.5 -152.499s60.167 -152.833 79.5 -199.5l-33 -16
l-217 258l-373 -258z" />
    <glyph glyph-name="Edieresis" unicode="&#xcb;" horiz-adv-x="1275" 
d="M-123 0l14.001 40.998c66.667 0 123.334 8.33301 170.001 25c45.333 16.667 75 50.667 89 102l290 1049c5.33301 24.667 8.33301 41 9 49c0 24.667 -13.667 43 -41 55c-46.667 20.667 -97.334 32.334 -152.001 35.001l12 43h1110l-88 -320h-47v17
c0 60 -13.667 113.5 -41 160.5s-62.666 73.167 -105.999 78.5c-38 5.33301 -94 8 -168 8h-193l-166 -589h154c69.333 0 130.666 21.667 183.999 65c38 30 75.667 91.667 113 185h49l-160 -570h-45c4 24.667 6 55.334 6 92.001c0 53.333 -5.33301 89 -16 107
c-28.667 42 -77.667 63 -147 63h-152l-127 -452c-13.333 -45.333 -20 -78.333 -20 -99c0 -35.333 18.333 -58.833 55 -70.5s96 -17.5 178 -17.5c57.333 0 99.666 0.666992 126.999 2s56.333 5.5 87 12.5s55.667 17.833 75 32.5c42 34 87.667 81.833 137 143.5
s83.333 110.167 102 145.5h52l-134 -393h-1210zM573.001 1661c0 40.667 14.833 76.501 44.5 107.501s67.5 46.5 113.5 46.5c31.333 0 57.666 -12.333 78.999 -37s32 -52 32 -82c0 -40.667 -14 -76.834 -42 -108.501s-64.667 -47.5 -110 -47.5
c-35.333 0 -63.666 12 -84.999 36s-32 52.333 -32 85zM1001 1661c0 42 14.833 78.168 44.5 108.501s68.167 45.5 115.5 45.5c31.333 0 57 -12.333 77 -37s30 -52 30 -82c0 -40.667 -13.333 -76.834 -40 -108.501s-62.667 -47.5 -108 -47.5c-36.667 0 -65.667 12 -87 36
s-32 52.333 -32 85z" />
    <glyph glyph-name="Igrave" unicode="&#xcc;" horiz-adv-x="774" 
d="M-98 0l9.99902 40.999c72.667 4 123 10.667 151 20c44 15.333 73.667 49 89 101l294 1057c5.33301 24.667 8.33301 40.334 9 47.001c0 23.333 -13.667 41.666 -41 54.999c-48 20.667 -93 32.334 -135 35.001l10 43h680l-13 -43
c-53.333 -2.66699 -105.666 -11 -156.999 -25c-45.333 -13.333 -75.333 -47.333 -90 -102l-297 -1059c-4 -18 -6 -31.667 -6 -41c0 -24.667 14.333 -43.667 43 -57c10.667 -5.33301 32 -11.5 64 -18.5s57.667 -11.167 77 -12.5l-10 -41h-678zM351.999 1796
c0 23.333 9.66797 44.5 29.001 63.5s41 28.5 65 28.5c53.333 0 98.666 -41.667 135.999 -125l123 -276l-31 -25c-54.667 52 -138.667 124.333 -252 217c-46.667 38 -70 77 -70 117z" />
    <glyph glyph-name="Iacute" unicode="&#xcd;" horiz-adv-x="774" 
d="M-98 0l9.99902 40.999c72.667 4 123 10.667 151 20c44 15.333 73.667 49 89 101l294 1057c5.33301 24.667 8.33301 40.334 9 47.001c0 23.333 -13.667 41.666 -41 54.999c-48 20.667 -93 32.334 -135 35.001l10 43h680l-13 -43
c-53.333 -2.66699 -105.666 -11 -156.999 -25c-45.333 -13.333 -75.333 -47.333 -90 -102l-297 -1059c-4 -18 -6 -31.667 -6 -41c0 -24.667 14.333 -43.667 43 -57c10.667 -5.33301 32 -11.5 64 -18.5s57.667 -11.167 77 -12.5l-10 -41h-678zM550.999 1495
c101.333 116 177.001 205.997 227.001 269.997c35.333 46.667 62.666 76.834 81.999 90.501s42.666 20.5 69.999 20.5c22 0 42.167 -8.5 60.5 -25.5s27.5 -35.833 27.5 -56.5c0 -31.333 -8.5 -57.666 -25.5 -78.999s-48.833 -45.666 -95.5 -72.999
c-13.333 -8 -56.666 -30.667 -129.999 -68s-137.333 -74 -192 -110z" />
    <glyph glyph-name="Icircumflex" unicode="&#xce;" horiz-adv-x="774" 
d="M-98 0l9.99902 40.999c72.667 4 123 10.667 151 20c44 15.333 73.667 49 89 101l294 1057c5.33301 24.667 8.33301 40.334 9 47.001c0 23.333 -13.667 41.666 -41 54.999c-48 20.667 -93 32.334 -135 35.001l10 43h680l-13 -43
c-53.333 -2.66699 -105.666 -11 -156.999 -25c-45.333 -13.333 -75.333 -47.333 -90 -102l-297 -1059c-4 -18 -6 -31.667 -6 -41c0 -24.667 14.333 -43.667 43 -57c10.667 -5.33301 32 -11.5 64 -18.5s57.667 -11.167 77 -12.5l-10 -41h-678zM314.999 1499l312 342
c20.667 23.333 37 37.666 49 42.999s34.333 8 67 8c28.667 0 47.5 -2.66699 56.5 -8s17.5 -18.333 25.5 -39c5.33301 -15.333 24.833 -66.166 58.5 -152.499s60.167 -152.833 79.5 -199.5l-33 -16l-217 258l-373 -258z" />
    <glyph glyph-name="Idieresis" unicode="&#xcf;" horiz-adv-x="774" 
d="M-98 0l9.99902 40.999c72.667 4 123 10.667 151 20c44 15.333 73.667 49 89 101l294 1057c5.33301 24.667 8.33301 40.334 9 47.001c0 23.333 -13.667 41.666 -41 54.999c-48 20.667 -93 32.334 -135 35.001l10 43h680l-13 -43
c-53.333 -2.66699 -105.666 -11 -156.999 -25c-45.333 -13.333 -75.333 -47.333 -90 -102l-297 -1059c-4 -18 -6 -31.667 -6 -41c0 -24.667 14.333 -43.667 43 -57c10.667 -5.33301 32 -11.5 64 -18.5s57.667 -11.167 77 -12.5l-10 -41h-678zM327.999 1661
c0 40.667 14.668 76.501 44.001 107.501s67 46.5 113 46.5c31.333 0 57.666 -12.333 78.999 -37s32 -52 32 -82c0 -40.667 -14 -76.834 -42 -108.501s-64.667 -47.5 -110 -47.5c-35.333 0 -63.5 12 -84.5 36s-31.5 52.333 -31.5 85zM756 1661
c0 42 14.668 78.168 44.001 108.501s67.666 45.5 114.999 45.5c31.333 0 57 -12.333 77 -37s30 -52 30 -82c0 -40.667 -13.333 -76.834 -40 -108.501s-62.667 -47.5 -108 -47.5c-36.667 0 -65.5 12 -86.5 36s-31.5 52.333 -31.5 85z" />
    <glyph glyph-name="Eth" unicode="&#xd0;" horiz-adv-x="1519" 
d="M-98 0l8.00098 41.001c72.667 4 123 10.667 151 20c44 15.333 73.667 49 89 101l149 532h-207l19 68h206l127 457c5.33301 16.667 8.33301 32.334 9 47.001c0 23.333 -13.667 41.666 -41 54.999c-36.667 19.333 -82 31 -136 35l13 43h618
c76.667 0 148.167 -9.33301 214.5 -28s129.5 -47.667 189.5 -87s107 -95.833 141 -169.5s51 -160.5 51 -260.5c-1.33301 -130 -29.333 -249.167 -84 -357.5s-127.334 -198.333 -218.001 -270s-194.667 -127.334 -312 -167.001s-240.333 -59.5 -369 -59.5h-618z
M424.001 217.001c-13.333 -50.667 -9.50293 -89.667 11.4971 -117s57.5 -41 109.5 -41c130 0 247.833 37 353.5 111s186.834 170 243.501 288s85 244 85 378c0 164 -33.167 289.167 -99.5 375.5s-164.166 129.5 -293.499 129.5c-23.333 0 -55.666 -1.33301 -96.999 -4
l-162 -575h269l-19 -68h-268z" />
    <glyph glyph-name="Ntilde" unicode="&#xd1;" horiz-adv-x="1433" 
d="M-150 0l12.998 40.999c24.667 1.33301 59.834 7.83301 105.501 19.5s78.167 23.5 97.5 35.5c54.667 34 102.334 127.667 143.001 281l194 727c5.33301 22 8.33301 45.333 9 70c0 49.333 -13 86.666 -39 111.999c-42 42 -110.333 65.333 -205 70l12 43h477l439 -1010
l168 631c22 84.667 32.833 148.167 32.5 190.5s-9.83301 70.833 -28.5 85.5c-16.667 12 -46.5 25 -89.5 39s-76.833 21.667 -101.5 23l10 41h605l-11 -41c-22 -1.33301 -56.167 -7.5 -102.5 -18.5s-78.833 -21.833 -97.5 -32.5c-54.667 -30 -102 -121.667 -142 -275
l-280 -1046h-66l-504 1175l-204 -774c-22 -78 -33 -140.667 -33 -188c0 -44 9 -75 27 -93c13.333 -15.333 42.833 -29.666 88.5 -42.999s80.167 -20.666 103.5 -21.999l-10 -41h-611zM650.998 1550c101.333 186 196.334 279.001 285.001 279.001
c48 0 99.333 -21.333 154 -64c12 -9.33301 24.167 -18.5 36.5 -27.5s24 -16.5 35 -22.5s22.167 -11 33.5 -15s22.666 -6 33.999 -6c35.333 0 67 12.167 95 36.5s59 61.833 93 112.5l37 -18c-96.667 -186 -190 -279 -280 -279c-45.333 0 -97.333 20.667 -156 62
c-66.667 49.333 -113.667 73.666 -141 72.999c-35.333 0 -66.833 -11.833 -94.5 -35.5s-58.5 -61.5 -92.5 -113.5z" />
    <glyph glyph-name="Ograve" unicode="&#xd2;" 
d="M82 526c0 125.333 25.666 248.164 76.999 368.497s124 224.833 218 313.5c158.667 147.333 333.334 221.333 524.001 222c154 0 281.667 -48 383 -144c48 -45.333 87 -103.666 117 -174.999s45 -148 45 -230c0 -277.333 -96.333 -507.666 -289 -690.999
c-161.333 -148.667 -341 -223 -539 -223c-101.333 0 -193.833 23.167 -277.5 69.5s-148.167 112.833 -193.5 199.5c-44 84.667 -65.667 181.334 -65 290.001zM351.999 433.998c-4 -270.667 87 -405.667 273 -405c132.667 0 252.667 84 360 252
c56 88.667 101.5 192.667 136.5 312s53.167 241 54.5 365c4 273.333 -85.667 410 -269 410c-126.667 0 -239.334 -71 -338.001 -213c-62.667 -88.667 -114.167 -196.5 -154.5 -323.5s-61.166 -259.5 -62.499 -397.5zM644.999 1796c0 23.333 9.16699 44.5 27.5 63.5
s40.5 28.5 66.5 28.5c53.333 0 98.333 -41.667 135 -125l123 -276l-30 -25c-54.667 52 -138.667 124.333 -252 217c-46.667 38 -70 77 -70 117z" />
    <glyph glyph-name="Oacute" unicode="&#xd3;" 
d="M82 526c0 125.333 25.666 248.164 76.999 368.497s124 224.833 218 313.5c158.667 147.333 333.334 221.333 524.001 222c154 0 281.667 -48 383 -144c48 -45.333 87 -103.666 117 -174.999s45 -148 45 -230c0 -277.333 -96.333 -507.666 -289 -690.999
c-161.333 -148.667 -341 -223 -539 -223c-101.333 0 -193.833 23.167 -277.5 69.5s-148.167 112.833 -193.5 199.5c-44 84.667 -65.667 181.334 -65 290.001zM351.999 433.998c-4 -270.667 87 -405.667 273 -405c132.667 0 252.667 84 360 252
c56 88.667 101.5 192.667 136.5 312s53.167 241 54.5 365c4 273.333 -85.667 410 -269 410c-126.667 0 -239.334 -71 -338.001 -213c-62.667 -88.667 -114.167 -196.5 -154.5 -323.5s-61.166 -259.5 -62.499 -397.5zM800.999 1495
c101.333 116 177.001 205.997 227.001 269.997c35.333 46.667 62.666 76.834 81.999 90.501s42.666 20.5 69.999 20.5c22 0 42.167 -8.5 60.5 -25.5s27.5 -35.833 27.5 -56.5c0 -31.333 -8.5 -57.666 -25.5 -78.999s-48.833 -45.666 -95.5 -72.999
c-13.333 -8 -56.666 -30.667 -129.999 -68s-137.333 -74 -192 -110z" />
    <glyph glyph-name="Ocircumflex" unicode="&#xd4;" 
d="M82 526c0 125.333 25.666 248.164 76.999 368.497s124 224.833 218 313.5c158.667 147.333 333.334 221.333 524.001 222c154 0 281.667 -48 383 -144c48 -45.333 87 -103.666 117 -174.999s45 -148 45 -230c0 -277.333 -96.333 -507.666 -289 -690.999
c-161.333 -148.667 -341 -223 -539 -223c-101.333 0 -193.833 23.167 -277.5 69.5s-148.167 112.833 -193.5 199.5c-44 84.667 -65.667 181.334 -65 290.001zM351.999 433.998c-4 -270.667 87 -405.667 273 -405c132.667 0 252.667 84 360 252
c56 88.667 101.5 192.667 136.5 312s53.167 241 54.5 365c4 273.333 -85.667 410 -269 410c-126.667 0 -239.334 -71 -338.001 -213c-62.667 -88.667 -114.167 -196.5 -154.5 -323.5s-61.166 -259.5 -62.499 -397.5zM599.999 1499l311.002 342
c20.667 23.333 37.167 37.666 49.5 42.999s34.833 8 67.5 8c28.667 0 47.5 -2.66699 56.5 -8s17.5 -18.333 25.5 -39c5.33301 -15.333 24.666 -66.166 57.999 -152.499s59.666 -152.833 78.999 -199.5l-33 -16l-217 258l-372 -258z" />
    <glyph glyph-name="Otilde" unicode="&#xd5;" 
d="M82 526c0 125.333 25.666 248.164 76.999 368.497s124 224.833 218 313.5c158.667 147.333 333.334 221.333 524.001 222c154 0 281.667 -48 383 -144c48 -45.333 87 -103.666 117 -174.999s45 -148 45 -230c0 -277.333 -96.333 -507.666 -289 -690.999
c-161.333 -148.667 -341 -223 -539 -223c-101.333 0 -193.833 23.167 -277.5 69.5s-148.167 112.833 -193.5 199.5c-44 84.667 -65.667 181.334 -65 290.001zM351.999 433.998c-4 -270.667 87 -405.667 273 -405c132.667 0 252.667 84 360 252
c56 88.667 101.5 192.667 136.5 312s53.167 241 54.5 365c4 273.333 -85.667 410 -269 410c-126.667 0 -239.334 -71 -338.001 -213c-62.667 -88.667 -114.167 -196.5 -154.5 -323.5s-61.166 -259.5 -62.499 -397.5zM597.999 1561c101.333 186 196.331 278.667 284.998 278
c48 0 99 -21 153 -63c12 -9.33301 24.333 -18.5 37 -27.5s24.334 -16.667 35.001 -23s21.834 -11.5 33.501 -15.5s23.167 -6 34.5 -6c35.333 0 67 12.333 95 37s59 62 93 112l37 -18c-96.667 -186 -190.334 -279 -281.001 -279c-45.333 0 -97 20.667 -155 62
c-66.667 49.333 -114 74 -142 74c-35.333 0 -66.666 -12 -93.999 -36s-58 -62 -92 -114z" />
    <glyph glyph-name="Odieresis" unicode="&#xd6;" 
d="M82 526c0 125.333 25.666 248.164 76.999 368.497s124 224.833 218 313.5c158.667 147.333 333.334 221.333 524.001 222c154 0 281.667 -48 383 -144c48 -45.333 87 -103.666 117 -174.999s45 -148 45 -230c0 -277.333 -96.333 -507.666 -289 -690.999
c-161.333 -148.667 -341 -223 -539 -223c-101.333 0 -193.833 23.167 -277.5 69.5s-148.167 112.833 -193.5 199.5c-44 84.667 -65.667 181.334 -65 290.001zM351.999 433.998c-4 -270.667 87 -405.667 273 -405c132.667 0 252.667 84 360 252
c56 88.667 101.5 192.667 136.5 312s53.167 241 54.5 365c4 273.333 -85.667 410 -269 410c-126.667 0 -239.334 -71 -338.001 -213c-62.667 -88.667 -114.167 -196.5 -154.5 -323.5s-61.166 -259.5 -62.499 -397.5zM626.999 1661c0 40.667 14.668 76.501 44.001 107.501
s67 46.5 113 46.5c31.333 0 57.666 -12.333 78.999 -37s32 -52 32 -82c0 -40.667 -14 -76.834 -42 -108.501s-64.667 -47.5 -110 -47.5c-35.333 0 -63.5 12 -84.5 36s-31.5 52.333 -31.5 85zM1055 1661c0 42 14.6689 78.168 44.002 108.501s67.666 45.5 114.999 45.5
c31.333 0 57 -12.333 77 -37s30 -52 30 -82c0 -40.667 -13.333 -76.834 -40 -108.501s-62.334 -47.5 -107.001 -47.5c-36.667 0 -65.667 12 -87 36s-32 52.333 -32 85z" />
    <glyph glyph-name="multiply" unicode="&#xd7;" horiz-adv-x="1150" 
d="M145 219l398 397l-396 396l72 73l395 -397l396 397l71 -71l-395 -396l395 -395l-71 -71l-396 395l-397 -400z" />
    <glyph glyph-name="Oslash" unicode="&#xd8;" 
d="M-84 -41l256.001 242.001c-60 94 -90 202.333 -90 325c0 125.333 25.667 248.166 77 368.499s124 224.833 218 313.5c158 148 332.667 222 524 222c151.333 0 279 -48 383 -144c8 -8 14.333 -14.667 19 -20l229 215l45 -43l-234 -219
c68 -88.667 102.333 -201.334 103 -338.001c0 -277.333 -96.333 -507.666 -289 -690.999c-161.333 -148.667 -341 -223 -539 -223c-152.667 0 -279.334 50.667 -380.001 152c-13.333 13.333 -23 24.333 -29 33l-250 -234zM352.001 479.001c0 -52 0.667969 -88 2.00098 -108
l803 759c-28.667 158.667 -112 238 -250 238c-126.667 0 -239.334 -71 -338.001 -213c-130 -182.667 -202.333 -408 -217 -676zM362.002 291.001c26 -174.667 113.666 -262 262.999 -262c132.667 0 252.667 84 360 252c112 176 174 377.333 186 604
c2.66699 68 1.33398 124.667 -3.99902 170z" />
    <glyph glyph-name="Ugrave" unicode="&#xd9;" horiz-adv-x="1562" 
d="M197 291c0 62.667 9.33691 127.33 28.0039 193.997l203 734c5.33301 24.667 8 40.334 8 47.001c0 23.333 -13.667 41.666 -41 54.999c-48 20.667 -93 32.334 -135 35.001l10 43h680l-12 -43c-53.333 -2.66699 -106 -11 -158 -25
c-45.333 -13.333 -75.333 -47.333 -90 -102l-194 -703c-26 -92.667 -39 -172.334 -39 -239.001c0 -154 90.667 -231.333 272 -232c125.333 0 225.666 35.833 300.999 107.5s134 177.834 176 318.501l154 541c22 80.667 33 143.334 33 188.001c0 42 -9.66699 70.667 -29 86
c-16.667 12 -46.834 25 -90.501 39s-77.834 21.667 -102.501 23l11 41h608l-12 -41c-22 -1.33301 -56.167 -7.5 -102.5 -18.5s-79.166 -21.833 -98.499 -32.5c-31.333 -18 -57.333 -48.5 -78 -91.5s-41.667 -103.5 -63 -181.5l-160 -561
c-50.667 -170.667 -123.834 -297.667 -219.501 -381s-227.167 -125 -394.5 -125c-148.667 0 -263.334 28.333 -344.001 85s-121 136.334 -121 239.001zM750.004 1796c0 23.333 9.5 44.5 28.5 63.5s40.833 28.5 65.5 28.5c53.333 0 98.333 -41.667 135 -125l123 -276l-31 -25
c-54.667 52 -138.667 124.333 -252 217c-46.667 38 -69.667 77 -69 117z" />
    <glyph glyph-name="Uacute" unicode="&#xda;" horiz-adv-x="1562" 
d="M197 291c0 62.667 9.33691 127.33 28.0039 193.997l203 734c5.33301 24.667 8 40.334 8 47.001c0 23.333 -13.667 41.666 -41 54.999c-48 20.667 -93 32.334 -135 35.001l10 43h680l-12 -43c-53.333 -2.66699 -106 -11 -158 -25
c-45.333 -13.333 -75.333 -47.333 -90 -102l-194 -703c-26 -92.667 -39 -172.334 -39 -239.001c0 -154 90.667 -231.333 272 -232c125.333 0 225.666 35.833 300.999 107.5s134 177.834 176 318.501l154 541c22 80.667 33 143.334 33 188.001c0 42 -9.66699 70.667 -29 86
c-16.667 12 -46.834 25 -90.501 39s-77.834 21.667 -102.501 23l11 41h608l-12 -41c-22 -1.33301 -56.167 -7.5 -102.5 -18.5s-79.166 -21.833 -98.499 -32.5c-31.333 -18 -57.333 -48.5 -78 -91.5s-41.667 -103.5 -63 -181.5l-160 -561
c-50.667 -170.667 -123.834 -297.667 -219.501 -381s-227.167 -125 -394.5 -125c-148.667 0 -263.334 28.333 -344.001 85s-121 136.334 -121 239.001zM965.004 1495c101.333 116 177 205.997 227 269.997c35.333 46.667 62.666 76.834 81.999 90.501s42.333 20.5 69 20.5
c22 0 42.333 -8.5 61 -25.5s28 -35.833 28 -56.5c0 -31.333 -8.66699 -57.666 -26 -78.999s-49 -45.666 -95 -72.999c-13.333 -8 -56.666 -30.667 -129.999 -68s-137.333 -74 -192 -110z" />
    <glyph glyph-name="Ucircumflex" unicode="&#xdb;" horiz-adv-x="1562" 
d="M197 291c0 62.667 9.33691 127.33 28.0039 193.997l203 734c5.33301 24.667 8 40.334 8 47.001c0 23.333 -13.667 41.666 -41 54.999c-48 20.667 -93 32.334 -135 35.001l10 43h680l-12 -43c-53.333 -2.66699 -106 -11 -158 -25
c-45.333 -13.333 -75.333 -47.333 -90 -102l-194 -703c-26 -92.667 -39 -172.334 -39 -239.001c0 -154 90.667 -231.333 272 -232c125.333 0 225.666 35.833 300.999 107.5s134 177.834 176 318.501l154 541c22 80.667 33 143.334 33 188.001c0 42 -9.66699 70.667 -29 86
c-16.667 12 -46.834 25 -90.501 39s-77.834 21.667 -102.501 23l11 41h608l-12 -41c-22 -1.33301 -56.167 -7.5 -102.5 -18.5s-79.166 -21.833 -98.499 -32.5c-31.333 -18 -57.333 -48.5 -78 -91.5s-41.667 -103.5 -63 -181.5l-160 -561
c-50.667 -170.667 -123.834 -297.667 -219.501 -381s-227.167 -125 -394.5 -125c-148.667 0 -263.334 28.333 -344.001 85s-121 136.334 -121 239.001zM750.004 1499l311 342c20.667 23.333 37 37.666 49 42.999s34.667 8 68 8c28.667 0 47.334 -2.66699 56.001 -8
s17.334 -18.333 26.001 -39c5.33301 -15.333 24.666 -66.166 57.999 -152.499s59.666 -152.833 78.999 -199.5l-33 -16l-217 258l-373 -258z" />
    <glyph glyph-name="Udieresis" unicode="&#xdc;" horiz-adv-x="1562" 
d="M197 291c0 62.667 9.33691 127.33 28.0039 193.997l203 734c5.33301 24.667 8 40.334 8 47.001c0 23.333 -13.667 41.666 -41 54.999c-48 20.667 -93 32.334 -135 35.001l10 43h680l-12 -43c-53.333 -2.66699 -106 -11 -158 -25
c-45.333 -13.333 -75.333 -47.333 -90 -102l-194 -703c-26 -92.667 -39 -172.334 -39 -239.001c0 -154 90.667 -231.333 272 -232c125.333 0 225.666 35.833 300.999 107.5s134 177.834 176 318.501l154 541c22 80.667 33 143.334 33 188.001c0 42 -9.66699 70.667 -29 86
c-16.667 12 -46.834 25 -90.501 39s-77.834 21.667 -102.501 23l11 41h608l-12 -41c-22 -1.33301 -56.167 -7.5 -102.5 -18.5s-79.166 -21.833 -98.499 -32.5c-31.333 -18 -57.333 -48.5 -78 -91.5s-41.667 -103.5 -63 -181.5l-160 -561
c-50.667 -170.667 -123.834 -297.667 -219.501 -381s-227.167 -125 -394.5 -125c-148.667 0 -263.334 28.333 -344.001 85s-121 136.334 -121 239.001zM754.004 1661c0 40.667 14.668 76.501 44.001 107.501s67 46.5 113 46.5c31.333 0 57.666 -12.333 78.999 -37
s32 -52 32 -82c0 -40.667 -14 -76.834 -42 -108.501s-64.667 -47.5 -110 -47.5c-35.333 0 -63.5 12 -84.5 36s-31.5 52.333 -31.5 85zM1182 1661c0 42 14.668 78.168 44.001 108.501s67.666 45.5 114.999 45.5c31.333 0 57 -12.333 77 -37s30 -52 30 -82
c0 -40.667 -13.333 -76.834 -40 -108.501s-62.667 -47.5 -108 -47.5c-36.667 0 -65.5 12 -86.5 36s-31.5 52.333 -31.5 85z" />
    <glyph glyph-name="Yacute" unicode="&#xdd;" horiz-adv-x="1345" 
d="M96 1081c36.667 106.667 89.167 190.334 157.5 251.001s146.166 91 233.499 91c108 0 193.833 -40.167 257.5 -120.5s95.5 -174.5 95.5 -282.5c0 -49.333 -6.33301 -115 -19 -197h17c74 194 161.333 342.833 262 446.5s205 155.5 313 155.5c48 0 86.333 -14 115 -42
s43 -61 43 -99c0 -53.333 -13.333 -93 -40 -119s-59.834 -39 -99.501 -39s-70 12 -91 36s-31.5 51 -31.5 81c0 23.333 13.667 54 41 92l-9 11c-39.333 -9.33301 -86.666 -40 -141.999 -92s-109.666 -115 -162.999 -189c-95.333 -136.667 -161.333 -278 -198 -424l-117 -471
c-4 -16.667 -6 -30.334 -6 -41.001c1.33301 -26 17 -45.667 47 -59c10.667 -5.33301 35.834 -11.5 75.501 -18.5s69.167 -10.5 88.5 -10.5l-11 -41h-696l10 41c69.333 4 118.666 10.667 147.999 20c44 15.333 72 49 84 101l123 504c13.333 53.333 20 140 20 260
c0 104 -19.5 187.667 -58.5 251s-96.5 95 -172.5 95c-53.333 0 -99.833 -17.833 -139.5 -53.5s-70.5 -86.167 -92.5 -151.5zM813 1495c101.333 116 177.002 205.997 227.002 269.997c35.333 46.667 62.666 76.834 81.999 90.501s42.666 20.5 69.999 20.5
c22 0 42.167 -8.5 60.5 -25.5s27.5 -35.833 27.5 -56.5c0 -31.333 -8.5 -57.666 -25.5 -78.999s-48.833 -45.666 -95.5 -72.999c-13.333 -8 -56.5 -30.667 -129.5 -68s-136.833 -74 -191.5 -110z" />
    <glyph glyph-name="Thorn" unicode="&#xde;" horiz-adv-x="1208" 
d="M-104 0l10.001 40.998c72.667 4 123 10.667 151 20c42 15.333 71.333 49 88 101l295 1057c5.33301 24.667 8.33301 40.334 9 47.001c0 23.333 -13.667 41.666 -41 54.999c-48 20.667 -93.333 32.334 -136 35.001l11 43h675l-10 -41c-65.333 -4 -117 -11.667 -155 -23
c-44 -15.333 -73.333 -48.666 -88 -99.999l-39 -137h147c124 0 224 -25.667 300 -77s114 -126 114 -224c0 -142 -63.5 -254 -190.5 -336s-291.5 -123 -493.5 -123h-88l-49 -170c-4 -13.333 -6.33301 -26.333 -7 -39c0 -24.667 14.333 -43.667 43 -57
c10.667 -5.33301 32.167 -11.5 64.5 -18.5s58.166 -11.167 77.499 -12.5l-11 -41h-677zM473.001 398.998h90c121.333 0 216.833 34.833 286.5 104.5s104.5 161.167 104.5 274.5c0 174.667 -76.333 262 -229 262h-74z" />
    <glyph glyph-name="germandbls" unicode="&#xdf;" horiz-adv-x="1101" 
d="M-520 -307c0 31.333 11.1611 60.3271 33.4941 86.9941s52.833 40 91.5 40c34 0 64.333 -9.66699 91 -29s40 -48.666 40 -87.999c0 -30 -22 -67 -66 -111c4 -24.667 22 -36.667 54 -36c70.667 0 126.167 31.667 166.5 95s85.833 177 136.5 341
c36.667 120 82 290.333 136 511s96 384 126 490c50.667 186 136.667 326.667 258 422c86 70.667 189 106.334 309 107.001c88.667 0 162.334 -22.333 221.001 -67s88 -101 88 -169c0 -86 -18.333 -163.667 -55 -233c-173.333 -52 -260 -123 -260 -213
c0 -75.333 31.333 -163.666 94 -264.999c10.667 -16.667 20.834 -32.667 30.501 -48s19 -31.5 28 -48.5s16.833 -33.333 23.5 -49s11.834 -32.5 15.501 -50.5s4.5 -35.667 2.5 -53c-2.66699 -113.333 -43.167 -200.833 -121.5 -262.5s-161.833 -92.5 -250.5 -92.5
c-75.333 0 -135.833 20.833 -181.5 62.5s-68.5 90.5 -68.5 146.5c0 44 11.667 81.667 35 113s55.333 47 96 47c82 0 123 -33.333 123 -100c0 -39.333 -11.333 -67 -34 -83s-45.167 -26.333 -67.5 -31s-33.5 -13.334 -33.5 -26.001c0 -27.333 15 -49.166 45 -65.499
s62.667 -24.5 98 -24.5c44 0 80 15.333 108 46s42.667 73.334 44 128.001c2.66699 80.667 -27.666 170.334 -90.999 269.001c-12 18 -24.167 37.167 -36.5 57.5s-23.166 40 -32.499 59s-16.833 40.167 -22.5 63.5s-8.5 46.333 -8.5 69c1.33301 60 21.833 113.667 61.5 161
s87.5 85.333 143.5 114c36.667 30 67.334 71.333 92.001 124s37 106.334 37 161.001c0 68 -13.333 121.5 -40 160.5s-66 58.5 -118 58.5c-62.667 0 -115.5 -33.833 -158.5 -101.5s-86.5 -175.834 -130.5 -324.501c-22 -72.667 -63 -228.5 -123 -467.5
s-108.333 -418.5 -145 -538.5c-58.667 -191.333 -140 -329.333 -244 -414c-94 -79.333 -195.667 -118.666 -305 -117.999c-76.667 0 -135 16.667 -175 50s-60 75.333 -60 126z" />
    <glyph glyph-name="agrave" unicode="&#xe0;" horiz-adv-x="1103" 
d="M27 295c0 90 25.168 185.502 75.501 286.502s121.333 188 213 261s187.167 109.5 286.5 109.5c39.333 0 74.5 -14.667 105.5 -44s49.833 -66.333 56.5 -111h6l47 143h234l-234 -678c-30 -82 -45 -140.667 -45 -176c0 -38 17.667 -57 53 -57c44 0 83.333 22.167 118 66.5
s70 112.166 106 203.499l41 -12c-42 -104 -84.667 -181.667 -128 -233s-98.333 -77 -165 -77c-140.667 0 -211 65 -211 195l-8 2c-86 -135.333 -181.667 -203 -287 -203c-72.667 0 -134.834 25.667 -186.501 77s-77.5 133.666 -77.5 246.999zM266.001 197.002
c0 -98 27.332 -147.333 81.999 -148c84.667 0 165.334 68.333 242.001 205l153 465c-22 121.333 -67 182 -135 182c-52 0 -105.167 -39.167 -159.5 -117.5s-98.333 -172.5 -132 -282.5s-50.5 -211.333 -50.5 -304zM377 1405c0 24.667 9.5 46.167 28.5 64.5
s40.833 27.5 65.5 27.5c53.333 0 98.333 -41.667 135 -125l123 -276l-31 -25c-54.667 52 -138.667 124.333 -252 217c-46.667 38 -69.667 77 -69 117z" />
    <glyph glyph-name="aacute" unicode="&#xe1;" horiz-adv-x="1103" 
d="M27 295c0 90 25.168 185.502 75.501 286.502s121.333 188 213 261s187.167 109.5 286.5 109.5c39.333 0 74.5 -14.667 105.5 -44s49.833 -66.333 56.5 -111h6l47 143h234l-234 -678c-30 -82 -45 -140.667 -45 -176c0 -38 17.667 -57 53 -57c44 0 83.333 22.167 118 66.5
s70 112.166 106 203.499l41 -12c-42 -104 -84.667 -181.667 -128 -233s-98.333 -77 -165 -77c-140.667 0 -211 65 -211 195l-8 2c-86 -135.333 -181.667 -203 -287 -203c-72.667 0 -134.834 25.667 -186.501 77s-77.5 133.666 -77.5 246.999zM266.001 197.002
c0 -98 27.332 -147.333 81.999 -148c84.667 0 165.334 68.333 242.001 205l153 465c-22 121.333 -67 182 -135 182c-52 0 -105.167 -39.167 -159.5 -117.5s-98.333 -172.5 -132 -282.5s-50.5 -211.333 -50.5 -304zM545 1104c101.333 116 177.001 205.997 227.001 269.997
c35.333 46.667 62.666 76.834 81.999 90.501s42.666 20.5 69.999 20.5c22 0 42.167 -8.5 60.5 -25.5s27.5 -35.833 27.5 -56.5c0 -31.333 -8.5 -57.666 -25.5 -78.999s-48.833 -45.666 -95.5 -72.999c-13.333 -8 -56.666 -30.833 -129.999 -68.5
s-137.333 -74.167 -192 -109.5z" />
    <glyph glyph-name="acircumflex" unicode="&#xe2;" horiz-adv-x="1103" 
d="M27 295c0 90 25.168 185.502 75.501 286.502s121.333 188 213 261s187.167 109.5 286.5 109.5c39.333 0 74.5 -14.667 105.5 -44s49.833 -66.333 56.5 -111h6l47 143h234l-234 -678c-30 -82 -45 -140.667 -45 -176c0 -38 17.667 -57 53 -57c44 0 83.333 22.167 118 66.5
s70 112.166 106 203.499l41 -12c-42 -104 -84.667 -181.667 -128 -233s-98.333 -77 -165 -77c-140.667 0 -211 65 -211 195l-8 2c-86 -135.333 -181.667 -203 -287 -203c-72.667 0 -134.834 25.667 -186.501 77s-77.5 133.666 -77.5 246.999zM266.001 197.002
c0 -98 27.332 -147.333 81.999 -148c84.667 0 165.334 68.333 242.001 205l153 465c-22 121.333 -67 182 -135 182c-52 0 -105.167 -39.167 -159.5 -117.5s-98.333 -172.5 -132 -282.5s-50.5 -211.333 -50.5 -304zM350 1108l312.002 342c20.667 23.333 37 37.666 49 42.999
s34.333 8 67 8c28.667 0 47.5 -2.66699 56.5 -8s17.5 -18.333 25.5 -39c5.33301 -15.333 24.666 -66.166 57.999 -152.499s59.666 -152.833 78.999 -199.5l-32 -17l-217 258l-373 -258z" />
    <glyph glyph-name="atilde" unicode="&#xe3;" horiz-adv-x="1103" 
d="M27 295c0 90 25.168 185.502 75.501 286.502s121.333 188 213 261s187.167 109.5 286.5 109.5c39.333 0 74.5 -14.667 105.5 -44s49.833 -66.333 56.5 -111h6l47 143h234l-234 -678c-30 -82 -45 -140.667 -45 -176c0 -38 17.667 -57 53 -57c44 0 83.333 22.167 118 66.5
s70 112.166 106 203.499l41 -12c-42 -104 -84.667 -181.667 -128 -233s-98.333 -77 -165 -77c-140.667 0 -211 65 -211 195l-8 2c-86 -135.333 -181.667 -203 -287 -203c-72.667 0 -134.834 25.667 -186.501 77s-77.5 133.666 -77.5 246.999zM266.001 197.002
c0 -98 27.332 -147.333 81.999 -148c84.667 0 165.334 68.333 242.001 205l153 465c-22 121.333 -67 182 -135 182c-52 0 -105.167 -39.167 -159.5 -117.5s-98.333 -172.5 -132 -282.5s-50.5 -211.333 -50.5 -304zM313 1139c101.333 186 196.334 278.666 285.001 277.999
c48 0 99.333 -21 154 -63c12 -9.33301 24.167 -18.5 36.5 -27.5s24 -16.667 35 -23s22.167 -11.5 33.5 -15.5s22.666 -6 33.999 -6c35.333 0 67 12.333 95 37s59 62.334 93 113.001l37 -19c-96.667 -186 -190 -278.667 -280 -278c-45.333 0 -97.333 20.333 -156 61
c-66.667 49.333 -113.667 74 -141 74c-35.333 0 -66.833 -12 -94.5 -36s-58.5 -62 -92.5 -114z" />
    <glyph glyph-name="adieresis" unicode="&#xe4;" horiz-adv-x="1103" 
d="M27 295c0 90 25.168 185.502 75.501 286.502s121.333 188 213 261s187.167 109.5 286.5 109.5c39.333 0 74.5 -14.667 105.5 -44s49.833 -66.333 56.5 -111h6l47 143h234l-234 -678c-30 -82 -45 -140.667 -45 -176c0 -38 17.667 -57 53 -57c44 0 83.333 22.167 118 66.5
s70 112.166 106 203.499l41 -12c-42 -104 -84.667 -181.667 -128 -233s-98.333 -77 -165 -77c-140.667 0 -211 65 -211 195l-8 2c-86 -135.333 -181.667 -203 -287 -203c-72.667 0 -134.834 25.667 -186.501 77s-77.5 133.666 -77.5 246.999zM266.001 197.002
c0 -98 27.332 -147.333 81.999 -148c84.667 0 165.334 68.333 242.001 205l153 465c-22 121.333 -67 182 -135 182c-52 0 -105.167 -39.167 -159.5 -117.5s-98.333 -172.5 -132 -282.5s-50.5 -211.333 -50.5 -304zM375 1290c0 40.667 14.667 76.501 44 107.501
s67 46.5 113 46.5c31.333 0 57.666 -12.333 78.999 -37s32 -52 32 -82c0 -40.667 -14 -76.834 -42 -108.501s-64.333 -47.5 -109 -47.5c-35.333 0 -63.666 12 -84.999 36s-32 52.333 -32 85zM803 1290c0 42 14.668 78.168 44.001 108.501s68 45.5 116 45.5
c31.333 0 56.833 -12.333 76.5 -37s29.5 -52 29.5 -82c0 -40.667 -13.333 -76.834 -40 -108.501s-62.334 -47.5 -107.001 -47.5c-36.667 0 -65.667 12 -87 36s-32 52.333 -32 85z" />
    <glyph glyph-name="aring" unicode="&#xe5;" horiz-adv-x="1103" 
d="M27 295c0 90 25.168 185.502 75.501 286.502s121.333 188 213 261s187.167 109.5 286.5 109.5c39.333 0 74.5 -14.667 105.5 -44s49.833 -66.333 56.5 -111h6l47 143h234l-234 -678c-30 -82 -45 -140.667 -45 -176c0 -38 17.667 -57 53 -57c44 0 83.333 22.167 118 66.5
s70 112.166 106 203.499l41 -12c-42 -104 -84.667 -181.667 -128 -233s-98.333 -77 -165 -77c-140.667 0 -211 65 -211 195l-8 2c-86 -135.333 -181.667 -203 -287 -203c-72.667 0 -134.834 25.667 -186.501 77s-77.5 133.666 -77.5 246.999zM266.001 197.002
c0 -98 27.332 -147.333 81.999 -148c84.667 0 165.334 68.333 242.001 205l153 465c-22 121.333 -67 182 -135 182c-52 0 -105.167 -39.167 -159.5 -117.5s-98.333 -172.5 -132 -282.5s-50.5 -211.333 -50.5 -304zM463 1294c0 60 23.501 111.167 70.501 153.5
s104.167 63.5 171.5 63.5c65.333 0 122.5 -20.833 171.5 -62.5s73.5 -92.5 73.5 -152.5s-22.833 -110.167 -68.5 -150.5s-101.834 -60.5 -168.501 -60.5c-68 0 -126.667 19.167 -176 57.5s-74 88.833 -74 151.5zM588.001 1278c0 -96.667 37.333 -145.001 112 -145.001
c40.667 0 71.667 18.333 93 55s32 79 32 127c0 45.333 -9.5 81.5 -28.5 108.5s-46.833 40.5 -83.5 40.5c-38 0 -68.333 -18.667 -91 -56s-34 -80.666 -34 -129.999z" />
    <glyph glyph-name="ae" unicode="&#xe6;" horiz-adv-x="1390" 
d="M27 295c0 90 25.1709 185.5 75.5039 286.5s121.166 188 212.499 261s187 109.5 287 109.5c39.333 0 74.5 -14.667 105.5 -44s49.833 -66.333 56.5 -111h6l47 143h127l-53 -152c100 109.333 204.333 164 313 164c56 0 102.167 -13.333 138.5 -40s54.5 -63 54.5 -109
c0 -94 -49.167 -172.833 -147.5 -236.5s-222.5 -106.5 -372.5 -128.5c-20.667 -94 -31 -167 -31 -219c0 -61.333 9.16699 -106.666 27.5 -135.999s50.166 -44 95.499 -44c130 0 244 91.333 342 274l37 -18c-113.333 -216 -250 -324 -410 -324c-78 0 -146 18.833 -204 56.5
s-96.667 96.834 -116 177.501h-6c-44 -70.667 -93.833 -127.334 -149.5 -170.001s-112.834 -64 -171.501 -64c-72.667 0 -134.834 25.667 -186.501 77s-77.5 133.666 -77.5 246.999zM266.004 197c0 -98 27.332 -147.333 81.999 -148c84.667 0 165.334 68.333 242.001 205
l153 465c-22 121.333 -67 182 -135 182c-52 0 -105.167 -39.167 -159.5 -117.5s-98.333 -172.5 -132 -282.5s-50.5 -211.333 -50.5 -304zM885.003 481c109.333 22 189.834 63.167 241.501 123.5s78.834 122.5 81.501 186.5c1.33301 80.667 -19 120.667 -61 120
c-46.667 0 -94.834 -43.333 -144.501 -130s-88.834 -186.667 -117.501 -300z" />
    <glyph glyph-name="ccedilla" unicode="&#xe7;" horiz-adv-x="813" 
d="M27 295c0 61.333 13.665 129.164 40.998 203.497s64.5 145.666 111.5 213.999s108.333 125.333 184 171s155.834 68.5 240.501 68.5c61.333 0 112.833 -17.667 154.5 -53s62.5 -79 62.5 -131c0 -44 -10.5 -81 -31.5 -111s-50.833 -45 -89.5 -45c-34 0 -62.5 9 -85.5 27
s-34.5 44 -34.5 78c0 24.667 11.833 48.834 35.5 72.501s54.834 42.5 93.501 56.5c-10.667 48 -49 72 -115 72c-54.667 0 -108 -41.667 -160 -125s-92 -178.666 -120 -285.999s-42 -202.666 -42 -285.999c0 -61.333 9.33301 -107 28 -137s49.667 -45 93 -45
c130 0 244 91.333 342 274l39 -18c-114.667 -216 -252.667 -324 -414 -324h-32l-25 -75c154 0 231.333 -47.333 232 -142c0 -146 -166 -219 -498 -219l12 47c102.667 2.66699 178.834 13.334 228.501 32.001s74.5 48.334 74.5 89.001c0 26 -10.833 43.833 -32.5 53.5
s-59.834 14.5 -114.501 14.5l67 209c-72.667 13.333 -131.667 45.666 -177 96.999s-68 124 -68 218z" />
    <glyph glyph-name="egrave" unicode="&#xe8;" horiz-adv-x="815" 
d="M27 299c0 60 14 126.832 42 200.499s66.5 144.667 115.5 213s113.167 125.333 192.5 171s164 68.5 254 68.5c54.667 0 100 -13.333 136 -40s54 -63 54 -109c0 -94 -49.167 -172.833 -147.5 -236.5s-222.5 -106.5 -372.5 -128.5c-19.333 -88.667 -29 -161.667 -29 -219
c0 -61.333 9 -106.666 27 -135.999s49.333 -44 94 -44c130 0 244 91.333 342 274l37 -18c-113.333 -216 -250 -324 -410 -324c-94 0 -173.333 26.333 -238 79s-97 135.667 -97 249zM297 1405c0 24.667 9.16797 46.167 27.501 64.5s40.5 27.5 66.5 27.5
c53.333 0 98.333 -41.667 135 -125l123 -276l-31 -25c-54.667 52 -138.334 124.333 -251.001 217c-46.667 38 -70 77 -70 117zM309.001 480.999c109.333 22 190 63 242 123s79.333 122.333 82 187c4 80 -16.667 120 -62 120c-48 0 -96.5 -43 -145.5 -129
s-87.833 -186.333 -116.5 -301z" />
    <glyph glyph-name="eacute" unicode="&#xe9;" horiz-adv-x="815" 
d="M27 299c0 60 14 126.832 42 200.499s66.5 144.667 115.5 213s113.167 125.333 192.5 171s164 68.5 254 68.5c54.667 0 100 -13.333 136 -40s54 -63 54 -109c0 -94 -49.167 -172.833 -147.5 -236.5s-222.5 -106.5 -372.5 -128.5c-19.333 -88.667 -29 -161.667 -29 -219
c0 -61.333 9 -106.666 27 -135.999s49.333 -44 94 -44c130 0 244 91.333 342 274l37 -18c-113.333 -216 -250 -324 -410 -324c-94 0 -173.333 26.333 -238 79s-97 135.667 -97 249zM309 480.999c109.333 22 190 63 242 123s79.333 122.333 82 187c4 80 -16.667 120 -62 120
c-48 0 -96.5 -43 -145.5 -129s-87.833 -186.333 -116.5 -301zM465 1104c101.333 116 177.001 205.997 227.001 269.997c35.333 46.667 62.666 76.834 81.999 90.501s42.666 20.5 69.999 20.5c22 0 42.167 -8.5 60.5 -25.5s27.5 -35.833 27.5 -56.5
c0 -31.333 -8.5 -57.666 -25.5 -78.999s-48.833 -45.666 -95.5 -72.999c-13.333 -8 -56.666 -30.833 -129.999 -68.5s-137.333 -74.167 -192 -109.5z" />
    <glyph glyph-name="ecircumflex" unicode="&#xea;" horiz-adv-x="815" 
d="M27 299c0 60 14 126.832 42 200.499s66.5 144.667 115.5 213s113.167 125.333 192.5 171s164 68.5 254 68.5c54.667 0 100 -13.333 136 -40s54 -63 54 -109c0 -94 -49.167 -172.833 -147.5 -236.5s-222.5 -106.5 -372.5 -128.5c-19.333 -88.667 -29 -161.667 -29 -219
c0 -61.333 9 -106.666 27 -135.999s49.333 -44 94 -44c130 0 244 91.333 342 274l37 -18c-113.333 -216 -250 -324 -410 -324c-94 0 -173.333 26.333 -238 79s-97 135.667 -97 249zM258 1077l311.002 342c20.667 23.333 37.167 37.666 49.5 42.999s34.833 8 67.5 8
c28.667 0 47.5 -2.66699 56.5 -8s17.5 -18.333 25.5 -39c5.33301 -15.333 24.666 -66.166 57.999 -152.499s59.666 -152.833 78.999 -199.5l-33 -16l-217 258l-372 -258zM309.002 480.999c109.333 22 190 63 242 123s79.333 122.333 82 187c4 80 -16.667 120 -62 120
c-48 0 -96.5 -43 -145.5 -129s-87.833 -186.333 -116.5 -301z" />
    <glyph glyph-name="edieresis" unicode="&#xeb;" horiz-adv-x="815" 
d="M27 299c0 60 14 126.832 42 200.499s66.5 144.667 115.5 213s113.167 125.333 192.5 171s164 68.5 254 68.5c54.667 0 100 -13.333 136 -40s54 -63 54 -109c0 -94 -49.167 -172.833 -147.5 -236.5s-222.5 -106.5 -372.5 -128.5c-19.333 -88.667 -29 -161.667 -29 -219
c0 -61.333 9 -106.666 27 -135.999s49.333 -44 94 -44c130 0 244 91.333 342 274l37 -18c-113.333 -216 -250 -324 -410 -324c-94 0 -173.333 26.333 -238 79s-97 135.667 -97 249zM270 1290c0 40.667 14.667 76.501 44 107.501s67.333 46.5 114 46.5
c31.333 0 57.666 -12.333 78.999 -37s32 -52 32 -82c0 -40.667 -14 -76.834 -42 -108.501s-64.667 -47.5 -110 -47.5c-35.333 0 -63.666 12 -84.999 36s-32 52.333 -32 85zM309 481c109.333 22 190 63 242 123s79.333 122.333 82 187c4 80 -16.667 120 -62 120
c-48 0 -96.5 -43 -145.5 -129s-87.833 -186.333 -116.5 -301zM698 1290c0 42 14.667 78.168 44 108.501s68 45.5 116 45.5c31.333 0 57 -12.333 77 -37s30 -52 30 -82c0 -40.667 -13.333 -76.834 -40 -108.501s-62.667 -47.5 -108 -47.5c-36.667 0 -65.667 12 -87 36
s-32 52.333 -32 85z" />
    <glyph glyph-name="igrave" unicode="&#xec;" horiz-adv-x="663" 
d="M33 641c42 105.333 84.1689 183.503 126.502 234.503s97.833 76.5 166.5 76.5c58.667 0 110.5 -16 155.5 -48s67.5 -76.667 67.5 -134c0 -28.667 -20 -95 -60 -199l-120 -309c-38 -98 -57.333 -158 -58 -180c0 -35.333 20 -53 60 -53c82 0 157.667 90 227 270l37 -12
c-40.667 -102.667 -83.334 -180 -128.001 -232s-100.334 -78 -167.001 -78c-60 0 -113.5 13.667 -160.5 41s-70.5 69.666 -70.5 126.999c0 38 12.667 92 38 162l142 357c35.333 91.333 53 152.666 53 183.999c0 36.667 -16.333 55 -49 55
c-42 0 -80.167 -22.833 -114.5 -68.5s-69.833 -114.834 -106.5 -207.501zM170.002 1405c0 24.667 9.16699 46.167 27.5 64.5s40.5 27.5 66.5 27.5c53.333 0 98.333 -41.667 135 -125l123 -276l-30 -25c-54.667 52 -138.667 124.333 -252 217c-46.667 38 -70 77 -70 117z" />
    <glyph glyph-name="iacute" unicode="&#xed;" horiz-adv-x="663" 
d="M33 641c42 105.333 84.1689 183.503 126.502 234.503s97.833 76.5 166.5 76.5c58.667 0 110.5 -16 155.5 -48s67.5 -76.667 67.5 -134c0 -28.667 -20 -95 -60 -199l-120 -309c-38 -98 -57.333 -158 -58 -180c0 -35.333 20 -53 60 -53c82 0 157.667 90 227 270l37 -12
c-40.667 -102.667 -83.334 -180 -128.001 -232s-100.334 -78 -167.001 -78c-60 0 -113.5 13.667 -160.5 41s-70.5 69.666 -70.5 126.999c0 38 12.667 92 38 162l142 357c35.333 91.333 53 152.666 53 183.999c0 36.667 -16.333 55 -49 55
c-42 0 -80.167 -22.833 -114.5 -68.5s-69.833 -114.834 -106.5 -207.501zM301.002 1104c101.333 116 177.002 205.997 227.002 269.997c35.333 46.667 62.666 76.834 81.999 90.501s42.666 20.5 69.999 20.5c22 0 42.167 -8.5 60.5 -25.5s27.5 -35.833 27.5 -56.5
c0 -31.333 -8.5 -57.666 -25.5 -78.999s-48.833 -45.666 -95.5 -72.999c-13.333 -8 -56.5 -30.833 -129.5 -68.5s-136.833 -74.167 -191.5 -109.5z" />
    <glyph glyph-name="icircumflex" unicode="&#xee;" horiz-adv-x="663" 
d="M33 641c42 105.333 84.1689 183.503 126.502 234.503s97.833 76.5 166.5 76.5c58.667 0 110.5 -16 155.5 -48s67.5 -76.667 67.5 -134c0 -28.667 -20 -95 -60 -199l-120 -309c-38 -98 -57.333 -158 -58 -180c0 -35.333 20 -53 60 -53c82 0 157.667 90 227 270l37 -12
c-40.667 -102.667 -83.334 -180 -128.001 -232s-100.334 -78 -167.001 -78c-60 0 -113.5 13.667 -160.5 41s-70.5 69.666 -70.5 126.999c0 38 12.667 92 38 162l142 357c35.333 91.333 53 152.666 53 183.999c0 36.667 -16.333 55 -49 55
c-42 0 -80.167 -22.833 -114.5 -68.5s-69.833 -114.834 -106.5 -207.501zM152.002 1106c39.333 46.667 93.501 114.666 162.501 203.999s105.5 136 109.5 140c19.333 24.667 33.333 39.334 42 44.001s29.334 7 62.001 7c30 0 48.167 -2.33301 54.5 -7s12.833 -18 19.5 -40
c5.33301 -19.333 19.166 -73 41.499 -161s41.166 -152.333 56.499 -193l-34 -17l-177 256l-311 -254z" />
    <glyph glyph-name="idieresis" unicode="&#xef;" horiz-adv-x="663" 
d="M33 641c42 105.333 84.1689 183.503 126.502 234.503s97.833 76.5 166.5 76.5c58.667 0 110.5 -16 155.5 -48s67.5 -76.667 67.5 -134c0 -28.667 -20 -95 -60 -199l-120 -309c-38 -98 -57.333 -158 -58 -180c0 -35.333 20 -53 60 -53c82 0 157.667 90 227 270l37 -12
c-40.667 -102.667 -83.334 -180 -128.001 -232s-100.334 -78 -167.001 -78c-60 0 -113.5 13.667 -160.5 41s-70.5 69.666 -70.5 126.999c0 38 12.667 92 38 162l142 357c35.333 91.333 53 152.666 53 183.999c0 36.667 -16.333 55 -49 55
c-42 0 -80.167 -22.833 -114.5 -68.5s-69.833 -114.834 -106.5 -207.501zM162.002 1317c0 39.333 13.666 73.332 40.999 101.999s62 43 104 43c34 0 63 -12.667 87 -38s36 -53.666 36 -84.999c0 -40.667 -13.667 -75.667 -41 -105s-62 -44 -104 -44
c-35.333 0 -64.666 12.667 -87.999 38s-35 55 -35 89zM547.001 1317c0 39.333 14 73.335 42 102.002s63 43 105 43c34 0 62.333 -12.333 85 -37s34 -53.334 34 -86.001c0 -40.667 -13 -75.334 -39 -104.001s-60 -43 -102 -43c-36.667 0 -66.667 12.333 -90 37s-35 54 -35 88
z" />
    <glyph glyph-name="eth" unicode="&#xf0;" horiz-adv-x="980" 
d="M35 336c0 62.667 13.6689 129.168 41.002 199.501s64.166 136.833 110.499 199.5s106.333 114.5 180 155.5s151.5 61.5 233.5 61.5c68 0 119.333 -29.333 154 -88h8c6.66699 38 10 72.333 10 103c0 128.667 -23.333 238.334 -70 329.001l-241 -163l-29 43l246 165
c-36.667 61.333 -84.334 113.333 -143.001 156l34 37c78 -39.333 144.333 -82.333 199 -129l195 133l26 -47l-90 -61c-60 -40.667 -90.667 -61.334 -92 -62.001c136.667 -134 205 -298.667 205 -494c0 -155.333 -26 -301.333 -78 -438s-128.5 -248.334 -229.5 -335.001
s-215.833 -130 -344.5 -130c-91.333 0 -168.333 30.833 -231 92.5s-94 152.5 -94 272.5zM272.002 236.001c0 -150 34.332 -225.332 102.999 -225.999c61.333 0 118.666 40.333 171.999 121s93.333 173.167 120 277.5s40 201.5 40 291.5c0 66.667 -9.66699 119.667 -29 159
s-43.333 59 -72 59c-61.333 0 -118.666 -40.333 -171.999 -121s-93.666 -172.834 -120.999 -276.501s-41 -198.5 -41 -284.5z" />
    <glyph glyph-name="ntilde" unicode="&#xf1;" horiz-adv-x="1196" 
d="M43 641c44 105.333 87.167 183.5 129.5 234.5s97.5 76.5 165.5 76.5c56 0 104.5 -14.667 145.5 -44s61.5 -78 61.5 -146l8 -2c92.667 128.667 187.667 192.667 285 192c64 0 119.5 -22.5 166.5 -67.5s70.5 -98.833 70.5 -161.5c0 -26 -13 -76.667 -39 -152l-118 -309
c-36.667 -95.333 -55.334 -156 -56.001 -182c0 -34 20.667 -51 62 -51c80.667 0 155.667 90 225 270l39 -12c-42 -104 -85.667 -181.667 -131 -233s-102.666 -77 -171.999 -77c-57.333 0 -110 14.333 -158 43s-72 70.334 -72 125.001c0 38 13.667 92 41 162l123 328
c31.333 79.333 47 134 47 164c0 53.333 -26 80 -78 80c-88.667 0 -178.667 -82 -270 -246l-209 -633h-235l225 664c32.667 101.333 49 163.333 49 186c0 35.333 -14.333 53 -43 53c-42 0 -80.167 -22.833 -114.5 -68.5s-69.833 -114.834 -106.5 -207.501zM381 1139
c101.333 186 196.333 278.666 285 277.999c48 0 99 -21 153 -63c12 -9.33301 24.167 -18.5 36.5 -27.5s24 -16.667 35 -23s22.333 -11.5 34 -15.5s22.834 -6 33.501 -6c35.333 0 67.166 12.333 95.499 37s59.5 62.334 93.5 113.001l37 -19
c-96.667 -186 -190.334 -278.667 -281.001 -278c-45.333 0 -97 20.333 -155 61c-66.667 49.333 -114 74 -142 74c-35.333 0 -66.666 -12 -93.999 -36s-58 -62 -92 -114z" />
    <glyph glyph-name="ograve" unicode="&#xf2;" horiz-adv-x="974" 
d="M35 334c0 64 13.6699 131.5 41.0029 202.5s65.166 137.5 113.499 199.5s111.166 113.5 188.499 154.5s160.333 61.5 249 61.5c87.333 0 161.666 -31 222.999 -93s92 -152.333 92 -271c0 -64 -13.667 -131.5 -41 -202.5s-65.166 -137.667 -113.499 -200
s-110.833 -113.666 -187.5 -153.999s-159.334 -60.5 -248.001 -60.5c-84.667 0 -158.667 31.167 -222 93.5s-95 152.166 -95 269.499zM272.003 236c-1.33301 -74 7.33398 -130.168 26.001 -168.501s43 -57.5 73 -57.5c61.333 0 118.333 38.333 171 115
s92.667 166.834 120 270.501s41.666 203.834 42.999 300.501c1.33301 75.333 -8 131.166 -28 167.499s-43.667 54.5 -71 54.5c-60 0 -116.333 -38 -169 -114s-93 -165.833 -121 -269.5s-42.667 -203.167 -44 -298.5zM354.003 1405c0 24.667 9.33301 46.167 28 64.5
s41 27.5 67 27.5c53.333 0 98.333 -41.667 135 -125l123 -276l-31 -25c-54.667 52 -138.667 124.333 -252 217c-46.667 38 -70 77 -70 117z" />
    <glyph glyph-name="oacute" unicode="&#xf3;" horiz-adv-x="974" 
d="M35 334c0 64 13.6699 131.5 41.0029 202.5s65.166 137.5 113.499 199.5s111.166 113.5 188.499 154.5s160.333 61.5 249 61.5c87.333 0 161.666 -31 222.999 -93s92 -152.333 92 -271c0 -64 -13.667 -131.5 -41 -202.5s-65.166 -137.667 -113.499 -200
s-110.833 -113.666 -187.5 -153.999s-159.334 -60.5 -248.001 -60.5c-84.667 0 -158.667 31.167 -222 93.5s-95 152.166 -95 269.499zM272.003 236c-1.33301 -74 7.33398 -130.168 26.001 -168.501s43 -57.5 73 -57.5c61.333 0 118.333 38.333 171 115
s92.667 166.834 120 270.501s41.666 203.834 42.999 300.501c1.33301 75.333 -8 131.166 -28 167.499s-43.667 54.5 -71 54.5c-60 0 -116.333 -38 -169 -114s-93 -165.833 -121 -269.5s-42.667 -203.167 -44 -298.5zM479.003 1104c101.333 116 177.333 205.997 228 269.997
c35.333 46.667 62.5 76.834 81.5 90.501s42.167 20.5 69.5 20.5c22 0 42.167 -8.5 60.5 -25.5s27.5 -35.833 27.5 -56.5c0 -31.333 -8.5 -57.666 -25.5 -78.999s-48.833 -45.666 -95.5 -72.999c-13.333 -8 -56.5 -30.833 -129.5 -68.5s-136.833 -74.167 -191.5 -109.5z" />
    <glyph glyph-name="ocircumflex" unicode="&#xf4;" horiz-adv-x="974" 
d="M35 334c0 64 13.6699 131.5 41.0029 202.5s65.166 137.5 113.499 199.5s111.166 113.5 188.499 154.5s160.333 61.5 249 61.5c87.333 0 161.666 -31 222.999 -93s92 -152.333 92 -271c0 -64 -13.667 -131.5 -41 -202.5s-65.166 -137.667 -113.499 -200
s-110.833 -113.666 -187.5 -153.999s-159.334 -60.5 -248.001 -60.5c-84.667 0 -158.667 31.167 -222 93.5s-95 152.166 -95 269.499zM272.003 236c-1.33301 -74 7.33398 -130.168 26.001 -168.501s43 -57.5 73 -57.5c61.333 0 118.333 38.333 171 115
s92.667 166.834 120 270.501s41.666 203.834 42.999 300.501c1.33301 75.333 -8 131.166 -28 167.499s-43.667 54.5 -71 54.5c-60 0 -116.333 -38 -169 -114s-93 -165.833 -121 -269.5s-42.667 -203.167 -44 -298.5zM301.003 1108l311.002 342
c20.667 23.333 37.167 37.666 49.5 42.999s34.833 8 67.5 8c28.667 0 47.5 -2.66699 56.5 -8s17.5 -18.333 25.5 -39c5.33301 -15.333 24.666 -66.166 57.999 -152.499s59.666 -152.833 78.999 -199.5l-33 -17l-217 258l-372 -258z" />
    <glyph glyph-name="otilde" unicode="&#xf5;" horiz-adv-x="974" 
d="M35 334c0 64 13.6699 131.5 41.0029 202.5s65.166 137.5 113.499 199.5s111.166 113.5 188.499 154.5s160.333 61.5 249 61.5c87.333 0 161.666 -31 222.999 -93s92 -152.333 92 -271c0 -64 -13.667 -131.5 -41 -202.5s-65.166 -137.667 -113.499 -200
s-110.833 -113.666 -187.5 -153.999s-159.334 -60.5 -248.001 -60.5c-84.667 0 -158.667 31.167 -222 93.5s-95 152.166 -95 269.499zM254.003 1139c101.333 186 196.331 278.666 284.998 277.999c48 0 99 -21 153 -63c12 -9.33301 24.333 -18.5 37 -27.5
s24.334 -16.667 35.001 -23s21.834 -11.5 33.501 -15.5s22.834 -6 33.501 -6c35.333 0 67.166 12.333 95.499 37s59.5 62.334 93.5 113.001l37 -19c-96.667 -186 -190.334 -278.667 -281.001 -278c-45.333 0 -97 20.333 -155 61c-66.667 49.333 -114 74 -142 74
c-35.333 0 -66.666 -12 -93.999 -36s-58 -62 -92 -114zM272.001 235.999c-1.33301 -74 7.33398 -130.168 26.001 -168.501s43 -57.5 73 -57.5c61.333 0 118.333 38.333 171 115s92.667 166.834 120 270.501s41.666 203.834 42.999 300.501
c1.33301 75.333 -8 131.166 -28 167.499s-43.667 54.5 -71 54.5c-60 0 -116.333 -38 -169 -114s-93 -165.833 -121 -269.5s-42.667 -203.167 -44 -298.5z" />
    <glyph glyph-name="odieresis" unicode="&#xf6;" horiz-adv-x="974" 
d="M35 334c0 64 13.6699 131.5 41.0029 202.5s65.166 137.5 113.499 199.5s111.166 113.5 188.499 154.5s160.333 61.5 249 61.5c87.333 0 161.666 -31 222.999 -93s92 -152.333 92 -271c0 -64 -13.667 -131.5 -41 -202.5s-65.166 -137.667 -113.499 -200
s-110.833 -113.666 -187.5 -153.999s-159.334 -60.5 -248.001 -60.5c-84.667 0 -158.667 31.167 -222 93.5s-95 152.166 -95 269.499zM272.003 236c-1.33301 -74 7.33398 -130.168 26.001 -168.501s43 -57.5 73 -57.5c61.333 0 118.333 38.333 171 115
s92.667 166.834 120 270.501s41.666 203.834 42.999 300.501c1.33301 75.333 -8 131.166 -28 167.499s-43.667 54.5 -71 54.5c-60 0 -116.333 -38 -169 -114s-93 -165.833 -121 -269.5s-42.667 -203.167 -44 -298.5zM330.003 1290c0 40.667 14.668 76.501 44.001 107.501
s67 46.5 113 46.5c31.333 0 57.666 -12.333 78.999 -37s32 -52 32 -82c0 -40.667 -14 -76.834 -42 -108.501s-64.667 -47.5 -110 -47.5c-35.333 0 -63.5 12 -84.5 36s-31.5 52.333 -31.5 85zM758.004 1290c0 42 14.668 78.168 44.001 108.501s68 45.5 116 45.5
c31.333 0 56.833 -12.333 76.5 -37s29.5 -52 29.5 -82c0 -40.667 -13.333 -76.834 -40 -108.501s-62.334 -47.5 -107.001 -47.5c-36.667 0 -65.667 12 -87 36s-32 52.333 -32 85z" />
    <glyph glyph-name="divide" unicode="&#xf7;" horiz-adv-x="1150" 
d="M123 565v99h981v-99h-981zM477 244c0 38 13.334 70.333 40.001 97s58.334 40 95.001 40c38 0 70.5 -13.333 97.5 -40s40.5 -59 40.5 -97c0 -36.667 -13.333 -68 -40 -94s-59.334 -39 -98.001 -39c-36.667 0 -68.334 12.833 -95.001 38.5s-40 57.167 -40 94.5z
M477.001 983c0 36.667 13.334 68 40.001 94s58.334 39 95.001 39c38 0 70.5 -13 97.5 -39s40.5 -57.333 40.5 -94c0 -38 -13.333 -70.333 -40 -97s-59.334 -40 -98.001 -40c-36.667 0 -68.334 13.333 -95.001 40s-40 59 -40 97z" />
    <glyph glyph-name="oslash" unicode="&#xf8;" horiz-adv-x="974" 
d="M-74 -43l162.002 159.999c-35.333 60 -53 132.333 -53 217c0 64 13.667 131.5 41 202.5s65.166 137.5 113.499 199.5s111.166 113.5 188.499 154.5s160.333 61.5 249 61.5c90 0 162.333 -29.333 217 -88l141 140l39 -33l-147 -146c44 -64 65.667 -143 65 -237
c0 -64 -13.667 -131.5 -41 -202.5s-65.166 -137.667 -113.499 -200s-110.833 -113.666 -187.5 -153.999s-159.334 -60.5 -248.001 -60.5c-94 0 -171.667 35 -233 105l-154 -152zM276.002 228.999c0 -30 2.33398 -58.667 7.00098 -86c10.667 -88.667 40 -133 88 -133
c83.333 0 155.666 62.5 216.999 187.5s97.333 259.833 108 404.5c0 5.33301 0.333008 13.5 1 24.5s1 19.167 1 24.5zM279.003 300.999l419 422.001c0 1.33301 -2 24.666 -6 69.999c-9.33301 83.333 -38 125 -86 125c-54.667 0 -106.167 -31.167 -154.5 -93.5
s-86.5 -136.5 -114.5 -222.5s-46 -172.667 -54 -260c0 -4 -0.333008 -10.833 -1 -20.5s-1.66699 -16.5 -3 -20.5z" />
    <glyph glyph-name="ugrave" unicode="&#xf9;" horiz-adv-x="1185" 
d="M35 641c40.667 104 82.501 181.5 125.501 232.5s98.833 76.5 167.5 76.5c57.333 0 107.833 -15 151.5 -45s65.5 -71.667 65.5 -125c0 -42 -12.333 -96 -37 -162l-129 -327c-30 -80.667 -45 -135.334 -45 -164.001c0 -53.333 26.667 -80 80 -80
c45.333 0 90.666 20.167 135.999 60.5s85.333 90.5 120 150.5l211 664h237l-217 -660c-28.667 -83.333 -43 -140.666 -43 -171.999c0 -40.667 16.333 -61 49 -61c46.667 0 87 21.833 121 65.5s69 111.834 105 204.501l41 -12c-42 -104 -84.667 -181.667 -128 -233
s-98.333 -77 -165 -77c-146 0 -219 63.667 -219 191l-9 2c-91.333 -131.333 -187.333 -197 -288 -197c-68 0 -125 23 -171 69s-69 99.667 -69 161c0 34 13.667 84.333 41 151l121 310c36.667 100 55 162 55 186c0 35.333 -16.333 53 -49 53
c-42 0 -80.5 -22.833 -115.5 -68.5s-70.167 -114.834 -105.5 -207.501zM403.001 1405c0 24.667 9.33301 46.167 28 64.5s41 27.5 67 27.5c53.333 0 98.333 -41.667 135 -125l123 -276l-31 -25c-54.667 52 -138.667 124.333 -252 217c-46.667 38 -70 77 -70 117z" />
    <glyph glyph-name="uacute" unicode="&#xfa;" horiz-adv-x="1185" 
d="M35 641c40.667 104 82.501 181.5 125.501 232.5s98.833 76.5 167.5 76.5c57.333 0 107.833 -15 151.5 -45s65.5 -71.667 65.5 -125c0 -42 -12.333 -96 -37 -162l-129 -327c-30 -80.667 -45 -135.334 -45 -164.001c0 -53.333 26.667 -80 80 -80
c45.333 0 90.666 20.167 135.999 60.5s85.333 90.5 120 150.5l211 664h237l-217 -660c-28.667 -83.333 -43 -140.666 -43 -171.999c0 -40.667 16.333 -61 49 -61c46.667 0 87 21.833 121 65.5s69 111.834 105 204.501l41 -12c-42 -104 -84.667 -181.667 -128 -233
s-98.333 -77 -165 -77c-146 0 -219 63.667 -219 191l-9 2c-91.333 -131.333 -187.333 -197 -288 -197c-68 0 -125 23 -171 69s-69 99.667 -69 161c0 34 13.667 84.333 41 151l121 310c36.667 100 55 162 55 186c0 35.333 -16.333 53 -49 53
c-42 0 -80.5 -22.833 -115.5 -68.5s-70.167 -114.834 -105.5 -207.501zM633.001 1104c101.333 116 177.001 205.997 227.001 269.997c35.333 46.667 62.666 76.834 81.999 90.501s42.666 20.5 69.999 20.5c22 0 42.167 -8.5 60.5 -25.5s27.5 -35.833 27.5 -56.5
c0 -31.333 -8.5 -57.666 -25.5 -78.999s-48.833 -45.666 -95.5 -72.999c-13.333 -8 -56.666 -30.833 -129.999 -68.5s-137.333 -74.167 -192 -109.5z" />
    <glyph glyph-name="ucircumflex" unicode="&#xfb;" horiz-adv-x="1185" 
d="M35 641c40.667 104 82.501 181.5 125.501 232.5s98.833 76.5 167.5 76.5c57.333 0 107.833 -15 151.5 -45s65.5 -71.667 65.5 -125c0 -42 -12.333 -96 -37 -162l-129 -327c-30 -80.667 -45 -135.334 -45 -164.001c0 -53.333 26.667 -80 80 -80
c45.333 0 90.666 20.167 135.999 60.5s85.333 90.5 120 150.5l211 664h237l-217 -660c-28.667 -83.333 -43 -140.666 -43 -171.999c0 -40.667 16.333 -61 49 -61c46.667 0 87 21.833 121 65.5s69 111.834 105 204.501l41 -12c-42 -104 -84.667 -181.667 -128 -233
s-98.333 -77 -165 -77c-146 0 -219 63.667 -219 191l-9 2c-91.333 -131.333 -187.333 -197 -288 -197c-68 0 -125 23 -171 69s-69 99.667 -69 161c0 34 13.667 84.333 41 151l121 310c36.667 100 55 162 55 186c0 35.333 -16.333 53 -49 53
c-42 0 -80.5 -22.833 -115.5 -68.5s-70.167 -114.834 -105.5 -207.501zM397.001 1108l312.002 342c20.667 23.333 37 37.666 49 42.999s34.333 8 67 8c28.667 0 47.5 -2.66699 56.5 -8s17.5 -18.333 25.5 -39c5.33301 -15.333 24.666 -66.166 57.999 -152.499
s59.666 -152.833 78.999 -199.5l-32 -17l-217 258l-373 -258z" />
    <glyph glyph-name="udieresis" unicode="&#xfc;" horiz-adv-x="1185" 
d="M35 641c40.667 104 82.501 181.5 125.501 232.5s98.833 76.5 167.5 76.5c57.333 0 107.833 -15 151.5 -45s65.5 -71.667 65.5 -125c0 -42 -12.333 -96 -37 -162l-129 -327c-30 -80.667 -45 -135.334 -45 -164.001c0 -53.333 26.667 -80 80 -80
c45.333 0 90.666 20.167 135.999 60.5s85.333 90.5 120 150.5l211 664h237l-217 -660c-28.667 -83.333 -43 -140.666 -43 -171.999c0 -40.667 16.333 -61 49 -61c46.667 0 87 21.833 121 65.5s69 111.834 105 204.501l41 -12c-42 -104 -84.667 -181.667 -128 -233
s-98.333 -77 -165 -77c-146 0 -219 63.667 -219 191l-9 2c-91.333 -131.333 -187.333 -197 -288 -197c-68 0 -125 23 -171 69s-69 99.667 -69 161c0 34 13.667 84.333 41 151l121 310c36.667 100 55 162 55 186c0 35.333 -16.333 53 -49 53
c-42 0 -80.5 -22.833 -115.5 -68.5s-70.167 -114.834 -105.5 -207.501zM424.001 1290c0 40.667 14.666 76.501 43.999 107.501s67.333 46.5 114 46.5c31.333 0 57.5 -12.333 78.5 -37s31.5 -52 31.5 -82c0 -40.667 -14 -76.834 -42 -108.501s-64.333 -47.5 -109 -47.5
c-35.333 0 -63.666 12 -84.999 36s-32 52.333 -32 85zM852 1290c0 42 14.668 78.168 44.001 108.501s68 45.5 116 45.5c31.333 0 56.833 -12.333 76.5 -37s29.5 -52 29.5 -82c0 -40.667 -13.333 -76.834 -40 -108.501s-62.334 -47.5 -107.001 -47.5
c-36.667 0 -65.667 12 -87 36s-32 52.333 -32 85z" />
    <glyph glyph-name="yacute" unicode="&#xfd;" horiz-adv-x="1089" 
d="M-100 -299c0 58.667 15.6641 101.667 46.9971 129s68.666 41 111.999 41c34 0 61 -11.333 81 -34s30 -44.667 30 -66c0 -58.667 -15.667 -96.334 -47 -113.001c-13.333 -6.66699 -35.166 -11 -65.499 -13s-48.166 -10 -53.499 -24c6.66699 -48 52.334 -72 137.001 -72
c109.333 0 205 47.5 287 142.5s157 247.833 225 458.5l-8 2c-91.333 -117.333 -184.666 -176.333 -279.999 -177c-68 0 -125 22.667 -171 68s-69 99.333 -69 162c0 35.333 13.667 86.333 41 153l121 306c36.667 96.667 55 159.334 55 188.001
c0 20.667 -3.83301 34.334 -11.5 41.001s-18.834 10 -33.501 10c-42 0 -80.833 -22.833 -116.5 -68.5s-71.167 -114.834 -106.5 -207.501l-37 14c40.667 104 82.5 181.833 125.5 233.5s98.833 77.5 167.5 77.5c57.333 0 107.5 -15 150.5 -45s64.5 -71.667 64.5 -125
c0 -40.667 -12.333 -95.334 -37 -164.001l-131 -323c-30 -78 -45 -132.667 -45 -164s6.83301 -52.833 20.5 -64.5s34.834 -17.5 63.501 -17.5c40.667 0 84.167 17.833 130.5 53.5s87.5 79.167 123.5 130.5l215 689h231l-217 -705
c-157.333 -471.333 -407 -706.666 -749 -705.999c-88.667 0 -152.5 19.667 -191.5 59s-58.5 83 -58.5 131zM626.997 1104c101.333 116 177.001 205.997 227.001 269.997c35.333 46.667 62.666 76.834 81.999 90.501s42.666 20.5 69.999 20.5c22 0 42.167 -8.5 60.5 -25.5
s27.5 -35.833 27.5 -56.5c0 -31.333 -8.66699 -57.666 -26 -78.999s-49 -45.666 -95 -72.999c-13.333 -8 -56.666 -30.833 -129.999 -68.5s-137.333 -74.167 -192 -109.5z" />
    <glyph glyph-name="thorn" unicode="&#xfe;" horiz-adv-x="1009" 
d="M-338 -479l4 39.002c75.333 0 126 15 152 45c22 23.333 48 80.666 78 171.999l460 1470c20.667 65.333 31 111 31 137c0 36.667 -27.333 58.667 -82 66c-26 2.66699 -67 5.33398 -123 8.00098v41l494 21l-236 -727l6 -2c92.667 108 183 161.667 271 161
c75.333 0 139.5 -24.5 192.5 -73.5s79.5 -131.5 79.5 -247.5c0 -92.667 -26.333 -189.667 -79 -291s-125.667 -187.833 -219 -259.5s-190.666 -107.5 -291.999 -107.5c-42 0 -78.333 13 -109 39s-50.334 56.667 -59.001 92h-8l-100 -331
c-19.333 -58.667 -29 -104.667 -29 -138c0 -36.667 28 -58.334 84 -65.001c28.667 -2.66699 67.667 -5.33398 117 -8.00098l-6 -41h-627zM250 178.002c18 -101.333 66.333 -151.667 145 -151c53.333 0 108 39.833 164 119.5s101.833 174.5 137.5 284.5
s53.5 209.333 53.5 298c0 96.667 -31 145 -93 145c-76.667 0 -159.667 -63.333 -249 -190z" />
    <glyph glyph-name="ydieresis" unicode="&#xff;" horiz-adv-x="1089" 
d="M-100 -299c0 58.667 15.6641 101.667 46.9971 129s68.666 41 111.999 41c34 0 61 -11.333 81 -34s30 -44.667 30 -66c0 -58.667 -15.667 -96.334 -47 -113.001c-13.333 -6.66699 -35.166 -11 -65.499 -13s-48.166 -10 -53.499 -24c6.66699 -48 52.334 -72 137.001 -72
c109.333 0 205 47.5 287 142.5s157 247.833 225 458.5l-8 2c-91.333 -117.333 -184.666 -176.333 -279.999 -177c-68 0 -125 22.667 -171 68s-69 99.333 -69 162c0 35.333 13.667 86.333 41 153l121 306c36.667 96.667 55 159.334 55 188.001
c0 20.667 -3.83301 34.334 -11.5 41.001s-18.834 10 -33.501 10c-42 0 -80.833 -22.833 -116.5 -68.5s-71.167 -114.834 -106.5 -207.501l-37 14c40.667 104 82.5 181.833 125.5 233.5s98.833 77.5 167.5 77.5c57.333 0 107.5 -15 150.5 -45s64.5 -71.667 64.5 -125
c0 -40.667 -12.333 -95.334 -37 -164.001l-131 -323c-30 -78 -45 -132.667 -45 -164s6.83301 -52.833 20.5 -64.5s34.834 -17.5 63.501 -17.5c40.667 0 84.167 17.833 130.5 53.5s87.5 79.167 123.5 130.5l215 689h231l-217 -705
c-157.333 -471.333 -407 -706.666 -749 -705.999c-88.667 0 -152.5 19.667 -191.5 59s-58.5 83 -58.5 131zM429.997 1290c0 40.667 14.666 76.501 43.999 107.501s67.333 46.5 114 46.5c31.333 0 57.5 -12.333 78.5 -37s31.5 -52 31.5 -82
c0 -40.667 -14 -76.834 -42 -108.501s-64.333 -47.5 -109 -47.5c-35.333 0 -63.666 12 -84.999 36s-32 52.333 -32 85zM857.996 1290c0 42 14.668 78.168 44.001 108.501s68 45.5 116 45.5c31.333 0 56.833 -12.333 76.5 -37s29.5 -52 29.5 -82
c0 -40.667 -13.333 -76.834 -40 -108.501s-62.334 -47.5 -107.001 -47.5c-36.667 0 -65.667 12 -87 36s-32 52.333 -32 85z" />
    <glyph glyph-name="OE" unicode="&#x152;" horiz-adv-x="2004" 
d="M82 539c0 131.333 33.832 258.664 101.499 381.997s158.167 225.333 271.5 306c147.333 110.667 313 168 497 172h344h850l-88 -320h-49v17c0 60 -13.333 113.5 -40 160.5s-61.667 73.167 -105 78.5c-38 5.33301 -95.333 8 -172 8h-191l-166 -591h144
c79.333 0 144 21.667 194 65c36.667 28.667 74.334 91 113.001 187h51l-160 -570h-47c4 24.667 6 55.334 6 92.001c0 53.333 -5.33301 89 -16 107c-28.667 42 -80.667 63 -156 63h-141l-129 -452c-13.333 -54.667 -20 -87.667 -20 -99c0 -34 14.333 -57.167 43 -69.5
s73 -18.5 133 -18.5c114.667 0 194.5 2.5 239.5 7.5s81.167 18.167 108.5 39.5c42 34 87.667 81.833 137 143.5s83.333 110.167 102 145.5h52l-134 -393h-981c-136.667 0 -237 1.33301 -301 4c-151.333 6.66699 -271 59.834 -359 159.501s-132 224.834 -132 375.501z
M361.999 515.998c0 -146 26.999 -258.999 80.999 -338.999s122 -120 204 -120c84.667 0 154.334 27.333 209.001 82c24.667 23.333 50.667 68.166 78 134.499s49.5 127.5 66.5 183.5s40.5 137.667 70.5 245c64 233.333 96 386.333 96 459c0 121.333 -68.667 182 -206 182
c-157.333 0 -296.5 -82.5 -417.5 -247.5s-181.5 -358.167 -181.5 -579.5z" />
    <glyph glyph-name="oe" unicode="&#x153;" horiz-adv-x="1435" 
d="M35 334c0 64 13.6699 131.5 41.0029 202.5s65.166 137.5 113.499 199.5s111.166 113.5 188.499 154.5s160.333 61.5 249 61.5c118.667 0 204 -60 256 -180c108.667 120 231.334 180 368.001 180c54.667 0 100.167 -13.333 136.5 -40s54.5 -63 54.5 -109
c0 -94 -48.833 -172.833 -146.5 -236.5s-222.167 -106.5 -373.5 -128.5c-19.333 -101.333 -29 -174.333 -29 -219c0 -61.333 9.16699 -106.666 27.5 -135.999s50.166 -44 95.499 -44c126.667 0 240.667 91.333 342 274l37 -18c-114.667 -216 -251.334 -324 -410.001 -324
c-120 0 -212 54 -276 162c-110.667 -108 -229.667 -162 -357 -162c-84.667 0 -158.667 31.167 -222 93.5s-95 152.166 -95 269.499zM274.003 236c0 -74 9.33301 -130.17 28 -168.503s43 -57.5 73 -57.5c61.333 0 118 38.333 170 115s91.167 166.834 117.5 270.501
s39.5 203.834 39.5 300.501c0 76.667 -9.5 132.834 -28.5 168.501s-42.833 53.5 -71.5 53.5c-58.667 0 -114 -38 -166 -114s-92 -165.833 -120 -269.5s-42 -203.167 -42 -298.5zM932.003 480.997c109.333 22 189.832 63 241.499 123s78.834 122.333 81.501 187
c1.33301 80 -19 120 -61 120c-48 0 -96.5 -42.667 -145.5 -128s-87.833 -186 -116.5 -302z" />
    <glyph glyph-name="Ydieresis" unicode="&#x178;" horiz-adv-x="1345" 
d="M96 1081c36.667 106.667 89.167 190.334 157.5 251.001s146.166 91 233.499 91c108 0 193.833 -40.167 257.5 -120.5s95.5 -174.5 95.5 -282.5c0 -49.333 -6.33301 -115 -19 -197h17c74 194 161.333 342.833 262 446.5s205 155.5 313 155.5c48 0 86.333 -14 115 -42
s43 -61 43 -99c0 -53.333 -13.333 -93 -40 -119s-59.834 -39 -99.501 -39s-70 12 -91 36s-31.5 51 -31.5 81c0 23.333 13.667 54 41 92l-9 11c-39.333 -9.33301 -86.666 -40 -141.999 -92s-109.666 -115 -162.999 -189c-95.333 -136.667 -161.333 -278 -198 -424l-117 -471
c-4 -16.667 -6 -30.334 -6 -41.001c1.33301 -26 17 -45.667 47 -59c10.667 -5.33301 35.834 -11.5 75.501 -18.5s69.167 -10.5 88.5 -10.5l-11 -41h-696l10 41c69.333 4 118.666 10.667 147.999 20c44 15.333 72 49 84 101l123 504c13.333 53.333 20 140 20 260
c0 104 -19.5 187.667 -58.5 251s-96.5 95 -172.5 95c-53.333 0 -99.833 -17.833 -139.5 -53.5s-70.5 -86.167 -92.5 -151.5zM618 1640c0 40.667 14.833 76.499 44.5 107.499s67.5 46.5 113.5 46.5c31.333 0 57.666 -12.333 78.999 -37s32 -52 32 -82
c0 -40.667 -14 -76.667 -42 -108s-64.667 -47 -110 -47c-35.333 0 -63.666 11.833 -84.999 35.5s-32 51.834 -32 84.501zM1047 1640c0 42 14.668 78.166 44.001 108.499s67.666 45.5 114.999 45.5c31.333 0 57 -12.333 77 -37s30 -52 30 -82
c0 -40.667 -13.333 -76.667 -40 -108s-62.667 -47 -108 -47c-36.667 0 -65.5 11.833 -86.5 35.5s-31.5 51.834 -31.5 84.501z" />
    <glyph glyph-name="circumflex" unicode="&#x2c6;" horiz-adv-x="1003" 
d="M332 1108l311 342c20.667 23.333 37.167 37.666 49.5 42.999s34.833 8 67.5 8c28.667 0 47.334 -2.66699 56.001 -8s17.334 -18.333 26.001 -39c5.33301 -15.333 24.666 -66.166 57.999 -152.499s59.666 -152.833 78.999 -199.5l-33 -17l-217 258l-373 -258z" />
    <glyph glyph-name="tilde" unicode="&#x2dc;" horiz-adv-x="1003" 
d="M281 1139c101.333 186 195.998 278.666 283.998 277.999c48 0 99.333 -21 154 -63c12 -9.33301 24.167 -18.5 36.5 -27.5s24 -16.667 35 -23s22.333 -11.5 34 -15.5s22.834 -6 33.501 -6c35.333 0 67 12.333 95 37s59.333 62.334 94 113.001l36 -19
c-96.667 -186 -190 -278.667 -280 -278c-45.333 0 -97.333 20.333 -156 61c-66.667 49.333 -113.667 74 -141 74c-35.333 0 -66.666 -12 -93.999 -36s-58.333 -62 -93 -114z" />
    <glyph glyph-name="uni2000" unicode="&#x2000;" horiz-adv-x="955" 
 />
    <glyph glyph-name="uni2001" unicode="&#x2001;" horiz-adv-x="1911" 
 />
    <glyph glyph-name="uni2002" unicode="&#x2002;" horiz-adv-x="955" 
 />
    <glyph glyph-name="uni2003" unicode="&#x2003;" horiz-adv-x="1911" 
 />
    <glyph glyph-name="uni2004" unicode="&#x2004;" horiz-adv-x="637" 
 />
    <glyph glyph-name="uni2005" unicode="&#x2005;" horiz-adv-x="477" 
 />
    <glyph glyph-name="uni2006" unicode="&#x2006;" horiz-adv-x="318" 
 />
    <glyph glyph-name="uni2007" unicode="&#x2007;" horiz-adv-x="318" 
 />
    <glyph glyph-name="uni2008" unicode="&#x2008;" horiz-adv-x="238" 
 />
    <glyph glyph-name="uni2009" unicode="&#x2009;" horiz-adv-x="382" 
 />
    <glyph glyph-name="uni200A" unicode="&#x200a;" horiz-adv-x="106" 
 />
    <glyph glyph-name="uni2010" unicode="&#x2010;" horiz-adv-x="665" 
d="M37 420l45 172h545l-45 -172h-545z" />
    <glyph glyph-name="uni2011" unicode="&#x2011;" horiz-adv-x="665" 
d="M37 420l45 172h545l-45 -172h-545z" />
    <glyph glyph-name="figuredash" unicode="&#x2012;" horiz-adv-x="665" 
d="M37 420l45 172h545l-45 -172h-545z" />
    <glyph glyph-name="endash" unicode="&#x2013;" horiz-adv-x="954" 
d="M117 477l37 137h796l-37 -137h-796z" />
    <glyph glyph-name="emdash" unicode="&#x2014;" horiz-adv-x="1818" 
d="M168 449l37 139h1550l-39 -139h-1548z" />
    <glyph glyph-name="quoteleft" unicode="&#x2018;" horiz-adv-x="395" 
d="M227 1124c0 139.333 110.667 267.001 332 383.001l21 -47c-139.333 -76.667 -217.333 -160 -234 -250h43c48 0 84.667 -10.833 110 -32.5s38 -50.167 38 -85.5c0 -36.667 -15.167 -70.834 -45.5 -102.501s-68.5 -47.5 -114.5 -47.5c-44 0 -80 15.333 -108 46
s-42 76 -42 136z" />
    <glyph glyph-name="quoteright" unicode="&#x2019;" horiz-adv-x="395" 
d="M233 991c139.333 76.667 217.333 160.001 234 250.001h-43c-48 0 -84.667 11 -110 33s-38 50.667 -38 86c0 36.667 15 70.667 45 102s69 47 117 47c44 0 79.667 -15.333 107 -46s41 -75.334 41 -134.001c0 -140.667 -110.667 -269 -332 -385z" />
    <glyph glyph-name="quotesinglbase" unicode="&#x201a;" horiz-adv-x="522" 
d="M-47 -248c139.333 76.667 217 160 233 250h-43c-48 0 -84.5 11 -109.5 33s-37.5 50.667 -37.5 86c0 36.667 15 70.667 45 102s68.333 47 115 47c44 0 79.833 -15.333 107.5 -46s41.5 -76 41.5 -136c0 -139.333 -110.667 -267 -332 -383z" />
    <glyph glyph-name="quotedblleft" unicode="&#x201c;" horiz-adv-x="768" 
d="M227 1118c0 144.667 111.333 273.669 334 387.002l19 -45c-68 -38 -122 -76.5 -162 -115.5s-64.667 -85.167 -74 -138.5h43c48 0 84.167 -10.833 108.5 -32.5s36.5 -50.334 36.5 -86.001s-14.667 -68.834 -44 -99.501s-67 -46 -113 -46c-44 0 -79.667 15.333 -107 46
s-41 74 -41 130zM600 1118c0 144.667 111.333 273.669 334 387.002l18 -45c-68 -38 -121.833 -76.5 -161.5 -115.5s-64.167 -85.167 -73.5 -138.5h43c48 0 84.167 -10.833 108.5 -32.5s36.5 -50.334 36.5 -86.001s-14.667 -68.834 -44 -99.501s-67 -46 -113 -46
c-44 0 -79.667 15.333 -107 46s-41 74 -41 130z" />
    <glyph glyph-name="quotedblright" unicode="&#x201d;" horiz-adv-x="768" 
d="M233 991c140.667 76.667 219.333 161.333 236 254h-41c-48 0 -84.167 11.333 -108.5 34s-36.5 51.667 -36.5 87s14.167 68 42.5 98s65.833 45 112.5 45c45.333 0 81.333 -15 108 -45s40 -73.667 40 -131c0 -143.333 -110.667 -272.333 -332 -387zM605.999 990.999
c140.667 76.667 219.333 161.333 236 254h-41c-48 0 -84.333 11.333 -109 34s-37 51.667 -37 87s14.333 68 43 98s66.334 45 113.001 45c45.333 0 81.166 -15 107.499 -45s39.5 -73.667 39.5 -131c0 -143.333 -110.333 -272.333 -331 -387z" />
    <glyph glyph-name="quotedblbase" unicode="&#x201e;" horiz-adv-x="897" 
d="M-51 -252c139.333 78 217 162.667 233 254h-41c-48 0 -84.167 11.333 -108.5 34s-36.5 51.667 -36.5 87s14.333 68 43 98s67 45 115 45c44 0 79.5 -15 106.5 -45s40.5 -73 40.5 -129c0 -143.333 -111.333 -273 -334 -389zM322 -252c139.333 78 217 162.667 233 254h-41
c-48 0 -84.167 11.333 -108.5 34s-36.5 51.667 -36.5 87s14.333 68 43 98s66.667 45 114 45c44 0 79.667 -15 107 -45s41 -73 41 -129c0 -143.333 -111.333 -273 -334 -389z" />
    <glyph glyph-name="bullet" unicode="&#x2022;" horiz-adv-x="825" 
d="M168 665.5c0 75 27.333 140.167 82 195.5s120.167 83 196.5 83s141.833 -27.667 196.5 -83s82 -120.5 82 -195.5s-27.333 -139.5 -82 -193.5s-120.167 -81 -196.5 -81s-141.833 27 -196.5 81s-82 118.5 -82 193.5z" />
    <glyph glyph-name="ellipsis" unicode="&#x2026;" horiz-adv-x="1679" 
d="M55 129c0 40.667 14.667 75.834 44 105.501s64.5 44.5 105.5 44.5s76.167 -14.833 105.5 -44.5s44 -64.834 44 -105.501c0 -42 -14.667 -77.333 -44 -106s-64.5 -43 -105.5 -43s-76.167 14.333 -105.5 43s-44 64 -44 106zM641 129c0 40.667 14.667 75.834 44 105.501
s64.5 44.5 105.5 44.5s76.167 -14.833 105.5 -44.5s44 -64.834 44 -105.501c0 -42 -14.667 -77.333 -44 -106s-64.5 -43 -105.5 -43s-76.167 14.333 -105.5 43s-44 64 -44 106zM1227 129c0 40.667 14.668 75.834 44.001 105.501s64.333 44.5 105 44.5
c42 0 77.5 -14.833 106.5 -44.5s43.5 -64.834 43.5 -105.501c0 -42 -14.333 -77.333 -43 -106s-64.334 -43 -107.001 -43c-40.667 0 -75.667 14.333 -105 43s-44 64 -44 106z" />
    <glyph glyph-name="uni202F" unicode="&#x202f;" horiz-adv-x="382" 
 />
    <glyph glyph-name="guilsinglleft" unicode="&#x2039;" horiz-adv-x="690" 
d="M71.5 415.5c0.333008 13.667 5.5 35.167 15.5 64.5s24 50.333 42 63c16.667 9.33301 57.667 34.166 123 74.499s133.833 83.333 205.5 129s141.167 91.834 208.5 138.501l22 -25l-412 -416l189 -395l-29 -18l-330 329c-23.333 23.333 -34.833 41.833 -34.5 55.5z" />
    <glyph glyph-name="guilsinglright" unicode="&#x203a;" horiz-adv-x="690" 
d="M10 55l412 416.001l-189 395l29 19l328 -330c24.667 -23.333 37 -41.833 37 -55.5s-5.16699 -35.167 -15.5 -64.5s-24.5 -49.333 -42.5 -60c-5.33301 -2.66699 -73.5 -45.334 -204.5 -128.001s-241.5 -154.667 -331.5 -216z" />
    <glyph glyph-name="uni205F" unicode="&#x205f;" horiz-adv-x="477" 
 />
    <glyph glyph-name="Euro" unicode="&#x20ac;" horiz-adv-x="1198" 
d="M57 481l31.001 117h145c1.33301 6.66699 5.16602 22.334 11.499 47.001s9.5 37.667 9.5 39c10.667 35.333 16.667 55 18 59h-147l31 117h159c70.667 162.667 170 298.667 298 408s269 164 423 164c100 0 177 -21.5 231 -64.5s81 -96.833 81 -161.5
c0 -54.667 -16.167 -103.5 -48.5 -146.5s-75.833 -64.5 -130.5 -64.5c-32.667 0 -58.5 9.66699 -77.5 29s-28.5 44.666 -28.5 75.999c0 28.667 5.83301 52.5 17.5 71.5s28.667 37.333 51 55s37.833 32.167 46.5 43.5c0 24.667 -12.333 49.167 -37 73.5
s-63.667 36.5 -117 36.5c-84.667 0 -166.667 -46.667 -246 -140s-147 -220 -203 -380h424l-30 -117h-430c-8 -24.667 -20.333 -73 -37 -145h346l-31 -117h-334c-6.66699 -39.333 -10 -83 -10 -131c0 -180 65.667 -270 197 -270c140.667 0 271.667 79.667 393 239l45 -24
c-154 -214.667 -328 -322 -522 -322c-126.667 0 -220.5 37.667 -281.5 113s-91.5 178.333 -91.5 309c0 19.333 1.33301 48 4 86h-160z" />
    <glyph glyph-name="trademark" unicode="&#x2122;" horiz-adv-x="1376" 
d="M250 1247l-0.000976562 151.999h491v-152h-24c-8 23.333 -18.833 47.333 -32.5 72s-28.167 37.667 -43.5 39c-12 1.33301 -31.667 2 -59 2h-29v-399c0 -16.667 7.33301 -28.334 22 -35.001c34 -6.66699 56 -11 66 -13v-26h-291v26c44 6.66699 66.667 10.334 68 11.001
c16.667 6.66699 24.667 17.334 24 32.001v404h-30c-27.333 0 -47.333 -0.666992 -60 -2c-15.333 -1.33301 -30.666 -15 -45.999 -41s-26 -49.333 -32 -70h-24zM783.999 886.999l-0.000976562 25.998c42 6.66699 67.333 13 76 19c16.667 12 25 45.333 25 100v254
c0 28.667 -7.66699 49.334 -23 62.001c-24.667 15.333 -48.334 22.666 -71.001 21.999v29h221l149 -363l119 295c8 18 13.333 40.667 16 68h226v-29c-13.333 0 -34.666 -4 -63.999 -12c-13.333 -5.33301 -20 -17 -20 -35v-360c0 -18 6.66699 -29.667 20 -35
c6.66699 -4 28.667 -9 66 -15v-26h-289v26l76 13c13.333 8 20 20.333 20 37v356h-12l-180 -426h-35l-19.5 52c-9 24 -15.5 42 -19.5 54l-125 310h-12v-271c0 -53.333 8 -86.666 24 -99.999c10.667 -9.33301 37.334 -17.666 80.001 -24.999v-26h-248z" />
    <glyph glyph-name="uniE000" unicode="&#xe000;" horiz-adv-x="942" 
d="M0 0v942h942v-942h-942z" />
    </font>
</defs>
</svg>
