<svg id="Layer_1" data-name="Layer 1" xmlns="http://www.w3.org/2000/svg" viewBox="0 0 50 50"><defs><style>.cls-1{fill:#fff;}.cls-2{fill:#161109;}</style></defs><title>calender_black</title><circle class="cls-1" cx="25" cy="25" r="25"/><g id="Calendar"><path class="cls-2" d="M11,36.64V16a2.32,2.32,0,0,1,2.35-2.35h3.76V11.88a.89.89,0,0,1,.25-.63A.85.85,0,0,1,18,11a.82.82,0,0,1,.87.87v1.75h5.25V11.88a.89.89,0,0,1,.25-.63A.85.85,0,0,1,25,11a.82.82,0,0,1,.87.87v1.75h5.25V11.88a.89.89,0,1,1,1.78,0v1.75h3.76A2.32,2.32,0,0,1,39,16V36.64a2.29,2.29,0,0,1-.68,1.67,2.27,2.27,0,0,1-1.67.68H13.35a2.27,2.27,0,0,1-1.67-.68A2.29,2.29,0,0,1,11,36.64Zm1.75,0a.6.6,0,0,0,.17.44.58.58,0,0,0,.44.16H36.65a.6.6,0,0,0,.44-.16.58.58,0,0,0,.16-.44V16a.6.6,0,0,0-.16-.44.64.64,0,0,0-.44-.16H32.86v1.75a.85.85,0,0,1-.24.63A.89.89,0,0,1,32,18a.85.85,0,0,1-.88-.88V15.38H25.86v1.75a.85.85,0,0,1-.24.63A.89.89,0,0,1,25,18a.85.85,0,0,1-.88-.88V15.38H18.86v1.75a.85.85,0,0,1-.24.63A.89.89,0,0,1,18,18a.85.85,0,0,1-.88-.88V15.38H13.35a.64.64,0,0,0-.44.16.6.6,0,0,0-.16.44V36.64Zm4.36-3.76V30.27h3.5v2.61Zm0-4.39V25.88h3.5v2.61Zm0-4.36V21.52h3.5v2.61Zm6.14,8.75V30.27h3.5v2.61Zm0-4.39V25.88h3.5v2.61Zm0-4.36V21.52h3.5v2.61Zm6.11,8.75V30.27h3.5v2.61Zm0-4.39V25.88h3.5v2.61Zm0-4.36V21.52h3.5v2.61Z"/></g></svg>