<svg id="Layer_1" data-name="Layer 1" xmlns="http://www.w3.org/2000/svg" viewBox="0 0 51 51"><defs><style>.cls-1{opacity:0.5;}.cls-2{fill:#161109;stroke:#ffc565;stroke-miterlimit:10;}.cls-3{fill:#ffc565;}</style></defs><title>external_link</title><g class="cls-1"><circle class="cls-2" cx="25.5" cy="25.5" r="25"/><g id="Expand_photo" data-name="Expand photo"><path class="cls-3" d="M18,34.82a1.78,1.78,0,0,1-1.77-1.77V18A1.77,1.77,0,0,1,18,16.22h5.79a.61.61,0,1,1,0,1.21H18a.56.56,0,0,0-.56.55V33.05a.56.56,0,0,0,.56.56H33a.56.56,0,0,0,.55-.56V27.26a.61.61,0,1,1,1.21,0v5.79A1.77,1.77,0,0,1,33,34.82ZM34.82,16.76v5.31a.58.58,0,0,1-1.16,0V18.19l-9,9.18a.54.54,0,0,1-.41.17.59.59,0,0,1-.41-.16.58.58,0,0,1,0-.82l9-9.22h-4a.58.58,0,1,1,0-1.16h5.34a.4.4,0,0,1,.15,0h0a.31.31,0,0,1,.13.06h0a.52.52,0,0,1,.11.1l0,0a.65.65,0,0,1,.12.28v0S34.82,16.75,34.82,16.76Z"/></g></g></svg>