<svg id="Layer_1" data-name="Layer 1" xmlns="http://www.w3.org/2000/svg" viewBox="0 0 76 76"><defs><style>.cls-1{fill:#161109;}.cls-2{fill:#fff;}</style></defs><title>full_screen_white</title><circle class="cls-1" cx="37.5" cy="37.5" r="35"/><path class="cls-2" d="M37.5,0A37.5,37.5,0,1,0,75,37.5,37.54,37.54,0,0,0,37.5,0Zm0,72.12A34.62,34.62,0,1,1,72.12,37.5,34.66,34.66,0,0,1,37.5,72.12Z"/><path class="cls-2" d="M50,38.2A1.83,1.83,0,0,0,48.18,40v8.2H26.77V26.82H35a1.84,1.84,0,0,0,0-3.67H26.61a3.51,3.51,0,0,0-3.51,3.51V48.39a3.52,3.52,0,0,0,3.51,3.51H48.34a3.51,3.51,0,0,0,3.51-3.51V40A1.83,1.83,0,0,0,50,38.2Z"/><path class="cls-2" d="M51.89,24.79v-.13a1.76,1.76,0,0,0-.36-.85l-.07-.1a2.3,2.3,0,0,0-.37-.32,1.55,1.55,0,0,0-.41-.19l-.09,0a1.64,1.64,0,0,0-.48-.07H42.41a1.8,1.8,0,1,0,0,3.6h3.42L34.44,38.35a1.77,1.77,0,0,0-.51,1.28,1.81,1.81,0,0,0,1.79,1.78A1.78,1.78,0,0,0,37,40.87L48.3,29.31v3.24a1.8,1.8,0,1,0,3.6,0V24.9a.8.8,0,0,0,0-.11Z"/></svg>