<svg id="Layer_1" data-name="Layer 1" xmlns="http://www.w3.org/2000/svg" viewBox="0 0 50 49.09"><defs><style>.cls-1{fill:#fff;}</style></defs><title>fullscreen_white_icon</title><path class="cls-1" d="M1.82,21.82A1.82,1.82,0,0,1,0,20V0H20a1.82,1.82,0,1,1,0,3.64H3.64V20A1.83,1.83,0,0,1,1.82,21.82Zm20,25.45A1.83,1.83,0,0,0,20,45.45H3.64V29.09a1.82,1.82,0,0,0-3.64,0v20H20A1.82,1.82,0,0,0,21.82,47.27ZM50,29.09a1.82,1.82,0,0,0-3.64,0V45.45H30a1.82,1.82,0,0,0,0,3.64H50ZM50,20V0H30a1.82,1.82,0,0,0,0,3.64H46.36V20A1.82,1.82,0,0,0,50,20Z"/></svg>