<svg id="Layer_1" data-name="Layer 1" xmlns="http://www.w3.org/2000/svg" viewBox="0 0 50 49.09"><defs><style>.cls-1{fill:#fff;}</style></defs><path class="cls-1" d="M20.19,0H1a1,1,0,0,0-1,1V20.17a2.71,2.71,0,0,0,5.42,0V5.4H20.19a2.71,2.71,0,0,0,0-5.42Z"/><path class="cls-1" d="M20.19,43.69H5.42V28.92a2.71,2.71,0,0,0-5.42,0V48.15a1,1,0,0,0,1,1H20.19a2.71,2.71,0,0,0,0-5.42Z"/><path class="cls-1" d="M49,0H29.81a2.71,2.71,0,1,0,0,5.42H44.58V20.18a2.71,2.71,0,0,0,5.42,0V1A1,1,0,0,0,49,0Z"/><path class="cls-1" d="M47.29,26.21a2.71,2.71,0,0,0-2.71,2.71V43.69H29.81a2.71,2.71,0,1,0,0,5.42H49a1,1,0,0,0,1-1V28.92A2.71,2.71,0,0,0,47.29,26.21Z"/></svg>