<svg id="Layer_1" data-name="Layer 1" xmlns="http://www.w3.org/2000/svg" viewBox="0 0 42.14 30"><defs><style>.cls-1{fill:#fff;}</style></defs><title>hamburger_menu</title><g id="Hamburger_Menu" data-name="Hamburger Menu"><path class="cls-1" d="M40.88,2.86H1.26A1.93,1.93,0,0,1,0,1.26,1.27,1.27,0,0,1,1.26,0H40.88a1.26,1.26,0,0,1,1.26,1.26A1.92,1.92,0,0,1,40.88,2.86Z"/><path class="cls-1" d="M40.88,15.71H13.49a.92.92,0,0,1-1.27-1c0-.7.57-1.26,1.27-1.89H40.88c.7.63,1.26,1.19,1.26,1.89S41.58,16,40.88,15.71Z"/><path class="cls-1" d="M40.88,30H27a2.41,2.41,0,0,1-1.26-1.76A1,1,0,0,1,27,27.14H40.88a1,1,0,0,1,1.26,1.1A2.41,2.41,0,0,1,40.88,30Z"/></g></svg>