<?xml version="1.0" encoding="utf-8"?>
<!-- Generator: Adobe Illustrator 23.0.1, SVG Export Plug-In . SVG Version: 6.00 Build 0)  -->
<svg version="1.1" id="Layer_1" xmlns="http://www.w3.org/2000/svg" xmlns:xlink="http://www.w3.org/1999/xlink" x="0px" y="0px"
	 viewBox="0 0 25 39.8" style="enable-background:new 0 0 25 39.8;" xml:space="preserve">
<style type="text/css">
	.st0{fill:#161109;}
</style>
<title>map_marker_blue</title>
<g id="Map_Pin">
	<path class="st0" d="M12.5,0L12.5,0C5.6,0,0,5.6,0,12.5C0,17,2,22.9,6.1,30.1c1.8,3.3,3.9,6.5,6.1,9.5c0.1,0.1,0.2,0.2,0.4,0.2l0,0
		c0.1,0,0.3-0.1,0.4-0.2c0,0,3.1-4.6,6-10.2c4.1-7.5,6.1-13.2,6.1-17C25,5.6,19.4,0,12.5,0z M18.3,12.8c0,3.2-2.6,5.8-5.8,5.8
		S6.7,16,6.7,12.8C6.7,9.6,9.3,7,12.5,7c0,0,0,0,0,0C15.7,7,18.3,9.6,18.3,12.8z"/>
</g>
</svg>
