<svg id="Layer_1" data-name="Layer 1" xmlns="http://www.w3.org/2000/svg" viewBox="0 0 25 39.82"><defs><style>.cls-1{fill:#3c5766;}</style></defs><title>map_marker_blue</title><g id="Map_Pin" data-name="Map Pin"><path class="cls-1" d="M12.53,0h-.06A12.48,12.48,0,0,0,0,12.47C0,17,2.05,22.92,6.1,30.14a98.05,98.05,0,0,0,6.07,9.5.47.47,0,0,0,.36.18h0a.45.45,0,0,0,.37-.2S16,35,18.94,29.43C23,21.9,25,16.19,25,12.47A12.48,12.48,0,0,0,12.53,0Zm5.76,12.77A5.79,5.79,0,1,1,12.5,7,5.8,5.8,0,0,1,18.29,12.77Z"/></g></svg>