<svg id="Layer_1" data-name="Layer 1" xmlns="http://www.w3.org/2000/svg" viewBox="0 0 50 50"><defs><style>.cls-1{fill:#fff;}.cls-2{fill:#161109;}</style></defs><title>map_marker</title><circle class="cls-1" cx="25" cy="25" r="25"/><g id="Map_Pin" data-name="Map Pin"><path class="cls-2" d="M25,7H25A11.26,11.26,0,0,0,13.72,18.28c0,4.07,1.85,9.44,5.51,15.95a87.31,87.31,0,0,0,5.48,8.57A.39.39,0,0,0,25,43h0a.41.41,0,0,0,.33-.18s2.75-4.15,5.44-9.19c3.63-6.79,5.47-11.94,5.47-15.31A11.26,11.26,0,0,0,25,7Zm5.19,11.52A5.22,5.22,0,1,1,25,13.34,5.22,5.22,0,0,1,30.22,18.56Z"/></g></svg>