<svg xmlns="http://www.w3.org/2000/svg" viewBox="0 0 92.82 103.16"><defs><style>.cls-1{isolation:isolate;}.cls-2{opacity:0.6;mix-blend-mode:multiply;}.cls-3{fill:#fff;}</style></defs><g class="cls-1"><g id="Layer_1" data-name="Layer 1"><g class="cls-2"><path d="M11.12,100.17C6.11,100.16,3,96,3,89.32V13.85C3,7.16,6.11,3,11.12,3a14.21,14.21,0,0,1,7,2.15L83.43,42.88c4.12,2.38,6.39,5.47,6.39,8.7s-2.27,6.32-6.39,8.7L18.07,98a14.32,14.32,0,0,1-6.94,2.15Z"/><path class="cls-3" d="M11.12,4.5a12.74,12.74,0,0,1,6.2,2L82.68,44.18c3.64,2.1,5.64,4.73,5.64,7.4s-2,5.3-5.64,7.4L17.32,96.72a12.82,12.82,0,0,1-6.19,1.94C7,98.66,4.5,95.17,4.5,89.32V13.85C4.5,8,7,4.5,11.12,4.5m0-3C5.43,1.5,1.5,6,1.5,13.85V89.32c0,7.81,3.93,12.34,9.63,12.34a15.62,15.62,0,0,0,7.69-2.34L84.18,61.58c9.53-5.5,9.53-14.5,0-20L18.82,3.85a15.54,15.54,0,0,0-7.7-2.35Z"/></g></g></g></svg>