<svg id="Layer_1" data-name="Layer 1" xmlns="http://www.w3.org/2000/svg" viewBox="0 0 100 72.78"><defs><style>.cls-1{fill:#d84f37;}</style></defs><path class="cls-1" d="M0,63.61c22-10.4,30.28-20.8,32.42-33L31.19,30a13.42,13.42,0,0,1-7,1.83c-7.65,0-13.76-6.42-13.76-15C10.4,8,17.13,0,26.91,0,38.84,0,46.18,9.18,46.18,22.33c0,20.79-11.62,37-41.59,50.45Zm53.82,0c22-10.4,30.58-20.8,32.72-33L85.32,30a15.14,15.14,0,0,1-7,1.83c-7.65,0-14.07-6.42-14.07-15A16.7,16.7,0,0,1,80.73,0C93,0,100,9.18,100,22.33c0,20.79-11.31,37-41.28,50.45Z"/></svg>