<svg id="Layer_1" data-name="Layer 1" xmlns="http://www.w3.org/2000/svg" viewBox="0 0 50 52.04"><defs><style>.cls-1{fill:#b9b8b5;}</style></defs><title>search</title><g id="search"><path id="search-2" data-name="search" class="cls-1" d="M49.37,45.29,39,35A2.15,2.15,0,0,0,36,35l-6.21-6.27a17.65,17.65,0,0,0,4.68-11.47,17.22,17.22,0,1,0-17.22,17.2,17.94,17.94,0,0,0,9.49-2.88L32.91,38a2.14,2.14,0,0,0,0,3L43.25,51.41a2.16,2.16,0,0,0,3,0l3.06-3.06A2.16,2.16,0,0,0,49.37,45.29ZM17.07,28.38a11.51,11.51,0,0,1,0-23A11.65,11.65,0,0,1,28.75,16.82,11.75,11.75,0,0,1,17.07,28.38Z"/></g></svg>