<svg id="Layer_1" data-name="Layer 1" xmlns="http://www.w3.org/2000/svg" viewBox="0 0 51 51"><defs><style>.cls-1{fill:#fff;stroke:#3c5766;stroke-miterlimit:10;}.cls-2{fill:#3c5766;}</style></defs><title>sound_blue</title><circle class="cls-1" cx="25.5" cy="25.5" r="25"/><path class="cls-2" d="M26,15.31V35a.94.94,0,0,1-.49.83.94.94,0,0,1-1,0L16,30.28H12.81a.94.94,0,0,1-1-1V21a1,1,0,0,1,1-1H16l8.54-5.54a.94.94,0,0,1,1,0A1,1,0,0,1,26,15.31Zm2.65,16.58a.69.69,0,0,0,.24-.05c2.17-.84,3.63-3.45,3.63-6.49,0-2.69-1.18-5.12-3-6.19a.66.66,0,0,0-.91.23.68.68,0,0,0,.23.92,5.78,5.78,0,0,1,2.36,5c0,2.45-1.14,4.61-2.78,5.25a.67.67,0,0,0,.24,1.29Zm1.73,2.77a.69.69,0,0,0,.25,0c3.05-1.19,5.18-5,5.18-9.33,0-3.88-1.69-7.37-4.31-8.91a.66.66,0,0,0-.91.24.67.67,0,0,0,.23.91c2.23,1.3,3.66,4.35,3.66,7.76,0,3.77-1.78,7.1-4.34,8.09a.67.67,0,0,0-.38.86A.68.68,0,0,0,30.34,34.66Zm2,2.61c4-1.55,6.76-6.5,6.76-12,0-5-2.2-9.46-5.6-11.46a.67.67,0,1,0-.68,1.16c3,1.76,4.94,5.8,4.94,10.3,0,5-2.43,9.42-5.91,10.77a.67.67,0,0,0,.24,1.3A.69.69,0,0,0,32.38,37.27Z"/></svg>