<svg id="Layer_1" data-name="Layer 1" xmlns="http://www.w3.org/2000/svg" viewBox="0 0 25.22 21.83"><defs><style>.cls-1{fill:#fdfcf9;}</style></defs><title>sound</title><path class="cls-1" d="M12.58.73a.88.88,0,0,0-.9,0L3.79,5.89H.88A.87.87,0,0,0,0,6.77v7.69a.87.87,0,0,0,.88.87H3.79l7.89,5.13a.92.92,0,0,0,.48.14.91.91,0,0,0,.42-.11.88.88,0,0,0,.46-.77V1.5A.88.88,0,0,0,12.58.73Z"/><path class="cls-1" d="M15.48,16.82a.85.85,0,0,0,.22,0c2-.78,3.36-3.2,3.36-6a6.59,6.59,0,0,0-2.79-5.73.61.61,0,1,0-.62,1.06,5.36,5.36,0,0,1,2.18,4.67c0,2.26-1.06,4.26-2.57,4.85a.62.62,0,0,0,.22,1.19Z"/><path class="cls-1" d="M17.09,19.38a.57.57,0,0,0,.22,0c2.82-1.09,4.79-4.64,4.79-8.62,0-3.58-1.56-6.81-4-8.23a.61.61,0,0,0-.84.22.62.62,0,0,0,.22.84c2.06,1.2,3.38,4,3.38,7.17,0,3.48-1.65,6.56-4,7.47a.62.62,0,0,0,.23,1.19Z"/><path class="cls-1" d="M18.74,21.83a.62.62,0,0,1-.58-.4.62.62,0,0,1,.35-.8C21.73,19.38,24,15.29,24,10.68c0-4.16-1.79-7.9-4.56-9.52a.61.61,0,0,1-.22-.85A.61.61,0,0,1,20,.09c3.14,1.84,5.18,6,5.18,10.59,0,5.11-2.57,9.68-6.26,11.11A.57.57,0,0,1,18.74,21.83Z"/></svg>