<svg id="Layer_1" data-name="Layer 1" xmlns="http://www.w3.org/2000/svg" viewBox="0 0 50 43.28"><defs><style>.cls-1{fill:#ffc565;}</style></defs><title>sound_fire</title><path class="cls-1" d="M24.94,1.45a1.73,1.73,0,0,0-1.78.07L7.52,11.68H1.74A1.74,1.74,0,0,0,0,13.42V28.66A1.74,1.74,0,0,0,1.74,30.4H7.52L23.16,40.56a1.73,1.73,0,0,0,.95.28,1.74,1.74,0,0,0,1.74-1.74V3A1.74,1.74,0,0,0,24.94,1.45Z"/><path class="cls-1" d="M30.69,33.35a1.12,1.12,0,0,0,.44-.09c4-1.54,6.67-6.33,6.67-11.89,0-4.93-2.17-9.38-5.53-11.35A1.22,1.22,0,0,0,31,12.12c2.63,1.54,4.33,5.17,4.33,9.25,0,4.49-2.1,8.45-5.11,9.62a1.22,1.22,0,0,0,.44,2.36Z"/><path class="cls-1" d="M33.88,38.43a1.17,1.17,0,0,0,.44-.08c5.6-2.17,9.5-9.2,9.5-17.1,0-7.1-3.1-13.5-7.91-16.32A1.22,1.22,0,0,0,34.68,7c4.07,2.38,6.7,8,6.7,14.21,0,6.91-3.26,13-8,14.83a1.22,1.22,0,0,0,.45,2.35Z"/><path class="cls-1" d="M37.16,43.28a1.23,1.23,0,0,1-.45-2.38c6.37-2.47,10.82-10.59,10.82-19.73,0-8.24-3.55-15.65-9.05-18.87A1.23,1.23,0,1,1,39.73.17C46,3.82,50,12.07,50,21.17c0,10.14-5.1,19.19-12.4,22A1.11,1.11,0,0,1,37.16,43.28Z"/></svg>