<?xml version="1.0" standalone="no"?>
<!DOCTYPE svg PUBLIC "-//W3C//DTD SVG 1.1//EN" "http://www.w3.org/Graphics/SVG/1.1/DTD/svg11.dtd" >
<svg xmlns="http://www.w3.org/2000/svg" xmlns:xlink="http://www.w3.org/1999/xlink" version="1.1">
<metadata>
Created by FontForge 20181214 at Fri Sep 14 16:31:48 2012
 By convertio
</metadata>
<defs>
<font id="MillerDisplay-Light" horiz-adv-x="1118" >
  <font-face 
    font-family="MillerDisplay"
    font-weight="300"
    font-stretch="normal"
    units-per-em="2048"
    panose-1="2 0 5 3 9 0 0 2 0 4"
    ascent="1565"
    descent="-483"
    x-height="924.001"
    cap-height="1399"
    bbox="-176 -467 2046 1915"
    underline-thickness="40"
    underline-position="-271"
    unicode-range="U+000D-FB04"
  />
<missing-glyph horiz-adv-x="748" 
d="M68 0v1365h544v-1365h-544zM136 68h408v1229h-408v-1229z" />
    <glyph glyph-name="uniFB01" unicode="fi" 
d="M-2 866l-0.000976562 53.9961h211v65c0 165.333 49.667 302 149 410c82 90 180.333 135 295 135c92.667 0 165 -20.833 217 -62.5s78 -93.167 78 -154.5c0 -27.333 -8.16699 -53.666 -24.5 -78.999s-40.833 -38 -73.5 -38c-24.667 0 -47.5 7.5 -68.5 22.5
s-31.5 38.167 -31.5 69.5c0 28.667 4.33301 53.334 13 74.001s15 32.334 19 35.001c-4 64 -51 96 -141 96c-79.333 0 -147.333 -37.5 -204 -112.5s-85 -186.167 -85 -333.5v-127h363l207 16l14 -14v-783c0 -49.333 18.333 -80.666 55 -93.999
c38 -15.333 68 -23.666 90 -24.999v-20h-432v20c40.667 2.66699 69.334 7 86.001 13c39.333 12 59.333 42.667 60 92v639c-4 45.333 -13.667 79.333 -29 102h-414v-725c0 -48 18.667 -79.333 56 -94c30 -12 73 -19.333 129 -22v-25h-474v25
c35.333 1.33301 62 4.66602 80 9.99902c44 12 66 43.333 66 94v737h-211z" />
    <glyph glyph-name="uniFB02" unicode="fl" horiz-adv-x="1124" 
d="M-2 866l-0.000976562 53.999h211v67c0 182.667 45.667 324 137 424c74 79.333 174.333 119 301 119c60 0 116 -13 168 -39l111 37l14 -15v-1374c0 -48 18.333 -80 55 -96c28.667 -13.333 58.667 -21 90 -23v-20h-434v20c44 2.66699 74 7 90 13
c36.667 12 55.334 43.333 56.001 94v1268c-19.333 26 -46.333 48.833 -81 68.5s-70 29.5 -106 29.5c-83.333 0 -145.5 -33.5 -186.5 -100.5s-64.167 -179.5 -69.5 -337.5c-1.33301 -20.667 -2 -65.667 -2 -135h256v-54h-256v-725c0 -49.333 18 -80.666 54 -93.999
c30 -12 73.667 -19.333 131 -22v-25h-474v25c44 2.66699 74.333 6.66699 91 12c36.667 12 55 43.333 55 94v735h-211z" />
    <glyph glyph-name="uniFB03" unicode="ffi" horiz-adv-x="1716" 
d="M-2 866v53.9932h211v55c0 162.667 49 299 147 409c30 34 74 64.5 132 91.5s114.333 40.5 169 40.5c134 0 223 -52.667 267 -158c39.333 52 88 93.667 146 125s118.333 47 181 47c92.667 0 165 -20.833 217 -62.5s78 -93.167 78 -154.5
c0 -27.333 -8.16699 -53.666 -24.5 -78.999s-40.833 -38 -73.5 -38c-24.667 0 -47.5 7.5 -68.5 22.5s-31.5 38.167 -31.5 69.5c0 28.667 4.33301 53.334 13 74.001s15 32.334 19 35.001c-4 64 -51 96 -141 96c-79.333 0 -147.333 -37.5 -204 -112.5s-85 -186.167 -85 -333.5
v-127h361l209 16l14 -14v-783c0 -49.333 18.333 -80.666 55 -93.999c38 -15.333 68 -23.666 90 -24.999v-20h-434v20c40.667 2.66699 69.334 7 86.001 13c39.333 12 59.333 42.667 60 92v639c0 38 -9.66699 72 -29 102h-412v-725c0 -48 18.667 -79.333 56 -94
c30 -12 73 -19.333 129 -22v-25h-473v25c39.333 2.66699 69.333 7.33398 90 14.001c36.667 12 55 42.667 55 92v735h-455v-725c0 -48 18.667 -78.667 56 -92c32.667 -13.333 77 -21.333 133 -24v-25h-478v25c39.333 2.66699 69.666 7.33398 90.999 14.001
c36.667 12 55 42.667 55 92v735h-211zM350 919.993h457v61c0 91.333 12.333 167.666 37 228.999c-27.333 0 -49.5 7.16699 -66.5 21.5s-25.5 33.166 -25.5 56.499c0 20.667 3 37.834 9 51.501s12.833 24.834 20.5 33.501s12.167 14.667 13.5 18
c-2.66699 20.667 -16 40.5 -40 59.5s-61.333 28.5 -112 28.5c-72.667 0 -139.667 -37.333 -201 -112s-92 -185 -92 -331v-116z" />
    <glyph glyph-name="uniFB04" unicode="ffl" horiz-adv-x="1714" 
d="M-2 866l-0.000976562 53.998h211v53c0 168 49 304.333 147 409c82 88.667 181.667 133.334 299 134.001c128.667 0 214 -45.333 256 -136c4 5.33301 12.333 15.666 25 30.999c74 79.333 174.333 119 301 119c60 0 116 -13 168 -39l111 37l14 -15v-1374
c0 -48 18.333 -80 55 -96c28.667 -13.333 58.667 -21 90 -23v-20h-434v20c44 2.66699 74 7 90 13c36.667 12 55 43.333 55 94v1268c-20.667 26 -48 48.833 -82 68.5s-68.667 29.5 -104 29.5c-83.333 0 -145.5 -33.5 -186.5 -100.5s-64.167 -179.5 -69.5 -337.5
c-1.33301 -20.667 -2 -65.667 -2 -135h256v-54h-256v-725c0 -49.333 17.667 -80.666 53 -93.999c30 -12 73.667 -19.333 131 -22v-25h-473v25c44 2.66699 74 6.66699 90 12c36.667 12 55.334 43.333 56.001 94v735h-447v-725c0 -49.333 18 -80.666 54 -93.999
c30 -12 73.667 -19.333 131 -22v-25h-474v25c44 2.66699 74.333 6.66699 91 12c36.667 12 55 43.333 55 94v735h-211zM351.999 919.998l447 -0.000976562v67c-0.666992 86 8.66602 160.333 27.999 223c-56 2.66699 -84 28.667 -84 78c0 20.667 2.83301 37.834 8.5 51.501
s12.5 24.5 20.5 32.5s12.667 15 14 21c-15.333 57.333 -63.666 86 -144.999 86c-75.333 0 -141 -35.5 -197 -106.5s-86.667 -181.833 -92 -332.5v-120z" />
    <glyph glyph-name=".notdef" horiz-adv-x="748" 
d="M68 0v1365h544v-1365h-544zM136 68h408v1229h-408v-1229z" />
    <glyph glyph-name="glyph1" horiz-adv-x="0" 
 />
    <glyph glyph-name="glyph1" horiz-adv-x="0" 
 />
    <glyph glyph-name="uni000D" unicode="&#xd;" horiz-adv-x="681" 
 />
    <glyph glyph-name="space" unicode=" " horiz-adv-x="491" 
 />
    <glyph glyph-name="exclam" unicode="!" horiz-adv-x="714" 
d="M246 102.5c0 33 11.167 61 33.5 84s50 34.5 83 34.5s61 -11.5 84 -34.5s34.5 -51 34.5 -84s-11.5 -60.667 -34.5 -83s-51 -33.5 -84 -33.5s-60.667 11.167 -83 33.5s-33.5 50 -33.5 83zM258 1313c0 34 9.83105 63.333 29.498 88s45.334 37 77.001 37
s57.334 -12.333 77.001 -37s29.5 -54 29.5 -88c0 -15.333 -13.333 -132.833 -40 -352.5s-44 -398.5 -52 -536.5h-33c-5.33301 139.333 -21.333 319.5 -48 540.5s-40 337.167 -40 348.5z" />
    <glyph glyph-name="quotedbl" unicode="&#x22;" horiz-adv-x="733" 
d="M80 1413c0 66.667 30 100.001 90 100.001s90 -33.333 90 -100c0 -12 -8.5 -55.333 -25.5 -130s-34.5 -164.334 -52.5 -269.001h-22c-16.667 110.667 -34.167 202.5 -52.5 275.5s-27.5 114.167 -27.5 123.5zM473 1413c0 66.667 29.999 100.002 89.999 100.002
s90 -33.333 90 -100c0 -12 -8.5 -55.333 -25.5 -130s-34.5 -164.334 -52.5 -269.001h-30c-15.333 109.333 -31.166 200.166 -47.499 272.499s-24.5 114.5 -24.5 126.5z" />
    <glyph glyph-name="numbersign" unicode="#" horiz-adv-x="1150" 
d="M207 385v152l233 57v221l-233 -57v149l233 58v444h27v-434l240 59v375h28v-365l234 58v-152l-234 -57v-221l234 57v-149l-234 -58v-536h-28v526l-240 -59v-467h-27v456zM467 602l240 62v221l-240 -62v-221z" />
    <glyph glyph-name="dollar" unicode="$" horiz-adv-x="1202" 
d="M147 336c0 48 10.6699 86.668 32.0029 116.001s48.333 44 81 44c27.333 0 48.166 -9.33301 62.499 -28s21.5 -43 21.5 -73c0 -35.333 -11.667 -64.666 -35 -87.999c-19.333 -19.333 -31 -33 -35 -41c-1.33301 -58.667 26.667 -103.667 84 -135s126.333 -48.333 207 -51
v543c-52 6.66699 -98 15.834 -138 27.501s-80.833 28.667 -122.5 51s-74.167 54.666 -97.5 96.999s-35 92.166 -35 149.499c0 108 36.833 196.167 110.5 264.5s167.834 107.166 282.501 116.499v193h70v-191c57.333 -2.66699 112.666 -11.834 165.999 -27.501
s101.166 -42.667 143.499 -81s63.5 -84.833 63.5 -139.5c0 -46.667 -9.66699 -81.834 -29 -105.501s-42 -35.5 -68 -35.5c-22 0 -41.167 8.16699 -57.5 24.5s-24.5 38.166 -24.5 65.499s11.667 54.333 35 81s37.666 49 42.999 67c-30 72.667 -120.667 112 -272 118v-505
c139.333 -12 243.833 -43.667 313.5 -95s104.5 -135.333 104.5 -252c0 -102.667 -37 -192.167 -111 -268.5s-176.333 -119.166 -307 -128.499v-278h-70v276c-105.333 2.66699 -201.333 31.334 -288 86.001s-130 122.334 -130 203.001zM289.003 1063
c0 -79.333 22.168 -139 66.501 -179s114.166 -67.667 209.499 -83v495c-78 -6.66699 -143.5 -29.167 -196.5 -67.5s-79.5 -93.5 -79.5 -165.5zM635.004 82.001c95.333 6.66699 170.333 32.5 225 77.5s82 107.167 82 186.5c0 83.333 -28.333 146.833 -85 190.5
s-130.667 69.5 -222 77.5v-532z" />
    <glyph glyph-name="percent" unicode="%" horiz-adv-x="1579" 
d="M131 1094c0 91.333 32.5 168.333 97.5 231s134.167 94 207.5 94c87.333 0 162.833 -27.167 226.5 -81.5s95.5 -135.5 95.5 -243.5c0 -84.667 -33.167 -157.5 -99.5 -218.5s-140.5 -91.5 -222.5 -91.5s-153.333 27.333 -214 82s-91 130.667 -91 228zM258 1102
c0 -86 15.334 -154.667 46.001 -206s78 -77 142 -77c53.333 0 97.166 24.667 131.499 74s51.5 115.666 51.5 198.999c0 92.667 -16.167 164.834 -48.5 216.501s-78.5 77.5 -138.5 77.5c-61.333 0 -107.333 -26.167 -138 -78.5s-46 -120.833 -46 -205.5zM383.001 12l772 1393
l41 -21l-774 -1392zM821.001 279c0 91.333 32.833 168.667 98.5 232s134.5 95 206.5 95c87.333 0 162.833 -26.833 226.5 -80.5s95.5 -135.167 95.5 -244.5c0 -86 -33.167 -159.167 -99.5 -219.5s-140.5 -90.5 -222.5 -90.5c-83.333 0 -155 27.333 -215 82s-90 130 -90 226z
M948.001 287.001c0 -83.333 15.668 -151.333 47.001 -204s78.666 -79 141.999 -79c50.667 0 93.667 25.5 129 76.5s53 116.167 53 195.5c0 90 -16 161.667 -48 215s-78 80 -138 80c-61.333 0 -107.5 -26.5 -138.5 -79.5s-46.5 -121.167 -46.5 -204.5z" />
    <glyph glyph-name="ampersand" unicode="&#x26;" horiz-adv-x="1413" 
d="M63 317c0 87.333 27.667 165.499 83 234.499s142 140.5 260 214.5c-56 87.333 -94.333 154.5 -115 201.5s-31 95.833 -31 146.5c0 88.667 33.833 163.5 101.5 224.5s144.5 91.5 230.5 91.5c84.667 0 148.834 -26.667 192.501 -80s65.5 -116.333 65.5 -189
c0 -122.667 -96.333 -240.667 -289 -354c92.667 -139.333 210.667 -296.333 354 -471c62.667 82 109.834 161.5 141.501 238.5s47.5 136.833 47.5 179.5c0 50.667 -46.333 85.334 -139 104.001v25h469v-25c-108 -12 -182 -45.333 -222 -100
c-5.33301 -6.66699 -22 -37.334 -50 -92.001s-62.5 -116.5 -103.5 -185.5s-79.833 -127.5 -116.5 -175.5c102.667 -121.333 169.667 -191.666 201 -210.999c66.667 -42 141.667 -65 225 -69v-25h-377c-20.667 28.667 -71 93 -151 193
c-78 -79.333 -146.333 -136.833 -205 -172.5s-124.334 -53.5 -197.001 -53.5c-106.667 0 -195.834 30.833 -267.501 92.5s-107.5 147.5 -107.5 257.5zM233 378.999c0 -86 24.334 -157.333 73.001 -214s114.667 -85 198 -85c112 0 216.333 47 313 141
c-144.667 177.333 -274.334 349.333 -389.001 516c-130 -76.667 -195 -196 -195 -358zM408.001 1157c0 -92.667 45.001 -199 135.001 -319c148.667 77.333 223 183 223 317c0 70.667 -15.333 126.834 -46 168.501s-73.334 62.5 -128.001 62.5c-48 0 -87 -16.667 -117 -50
s-48.667 -65.333 -56 -96s-11 -58.334 -11 -83.001z" />
    <glyph glyph-name="quotesingle" unicode="'" horiz-adv-x="339" 
d="M80 1413c0 66.667 29.999 100.002 89.999 100.002s90 -33.333 90 -100c0 -12 -8.5 -55.333 -25.5 -130s-34.5 -164.334 -52.5 -269.001h-30c-15.333 109.333 -31.166 200.166 -47.499 272.499s-24.5 114.5 -24.5 126.5z" />
    <glyph glyph-name="parenleft" unicode="(" horiz-adv-x="706" 
d="M74 604c0 113.333 13.667 218.5 41 315.5s66.166 183 116.499 258s101.833 139.167 154.5 192.5s114.334 107.333 185.001 162l39 -45c-118.667 -95.333 -210 -213 -274 -353s-96 -316.5 -96 -529.5s32 -389.5 96 -529.5s155.333 -258 274 -354l-39 -45
c-70.667 54.667 -132.334 108.667 -185.001 162s-104.167 117.5 -154.5 192.5s-89.166 161 -116.499 258s-41 202.167 -41 315.5z" />
    <glyph glyph-name="parenright" unicode=")" horiz-adv-x="706" 
d="M96 -279c118.667 95.333 210.164 213.167 274.497 353.5s96.5 317 96.5 530s-32.167 389.333 -96.5 529s-155.833 257.5 -274.5 353.5l39 45c70.667 -54.667 132.334 -108.667 185.001 -162s104.334 -117.5 155.001 -192.5s89.667 -161 117 -258s41 -202.167 41 -315.5
s-13.667 -218.5 -41 -315.5s-66.333 -183 -117 -258s-102.167 -139.167 -154.5 -192.5s-114.166 -107.333 -185.499 -162z" />
    <glyph glyph-name="asterisk" unicode="*" horiz-adv-x="776" 
d="M113 987c0 13.333 9.16797 25.498 27.501 36.498s53.166 25.833 104.499 44.5s94 35.334 128 50.001c-28.667 12 -62.167 25.333 -100.5 40s-67 25.667 -86 33s-36 16.5 -51 27.5s-22.5 22 -22.5 33s4 21.167 12 30.5s17.667 14 29 14c12 0 45 -21.833 99 -65.5
s95.333 -74.167 124 -91.5c-2.66699 20.667 -7.16699 51 -13.5 91s-11.5 73.333 -15.5 100s-6 44.667 -6 54c0 28.667 14.333 43 43 43c30 0 45 -14.333 45 -43c0 -8 -5.16699 -43 -15.5 -105s-17.5 -108.667 -21.5 -140c26 18 56.833 41.167 92.5 69.5s63.667 50 84 65
s35.166 22.5 44.499 22.5c10.667 0 20.167 -4.33301 28.5 -13s12.5 -19.334 12.5 -32.001c0 -15.333 -9.16699 -28.333 -27.5 -39s-53.166 -25.5 -104.499 -44.5s-92.666 -35.5 -123.999 -49.5c26 -10.667 58.167 -23.167 96.5 -37.5s67 -25.333 86 -33s36 -17 51 -28
s22.5 -21.833 22.5 -32.5c0 -15.333 -4.33301 -27 -13 -35s-19.334 -12 -32.001 -12c-8 0 -39 21.5 -93 64.5s-94.667 74.167 -122 93.5c4 -31.333 10.833 -78.166 20.5 -140.499s14.5 -97.5 14.5 -105.5c0 -12 -4 -22.167 -12 -30.5s-19 -12.5 -33 -12.5
c-28.667 0 -43 14.333 -43 43c0 10.667 5.16699 47.834 15.5 111.501s16.833 108.5 19.5 134.5c-30 -19.333 -72.333 -50.5 -127 -93.5s-86 -64.5 -94 -64.5c-10.667 0 -20.5 4.83301 -29.5 14.5s-13.5 20.5 -13.5 32.5z" />
    <glyph glyph-name="plus" unicode="+" 
d="M66 502v59h464v465h58v-465h465v-59h-465v-463h-58v463h-464z" />
    <glyph glyph-name="comma" unicode="," horiz-adv-x="446" 
d="M70 -291c128.667 79.333 196.001 179.001 202.001 299.001h-65c-39.333 0 -68.666 10.667 -87.999 32s-29 47.666 -29 78.999c0 26 10.667 49.833 32 71.5s48.333 32.5 81 32.5c99.333 0 149 -63.333 149 -190c0 -36.667 -8.16699 -73.5 -24.5 -110.5
s-33 -66.833 -50 -89.5s-41.833 -47.667 -74.5 -75s-53.834 -44 -63.501 -50s-26.834 -17.333 -51.501 -34z" />
    <glyph glyph-name="hyphen" unicode="-" horiz-adv-x="772" 
d="M72 455v110h630v-110h-630z" />
    <glyph glyph-name="period" unicode="." horiz-adv-x="446" 
d="M109 102.5c0 33 11.167 61 33.5 84s49.833 34.5 82.5 34.5s60.667 -11.5 84 -34.5s35 -51 35 -84s-11.667 -60.667 -35 -83s-51.333 -33.5 -84 -33.5s-60.167 11.167 -82.5 33.5s-33.5 50 -33.5 83z" />
    <glyph glyph-name="slash" unicode="/" horiz-adv-x="802" 
d="M45 -410l641 1950l59 -16l-641 -1950z" />
    <glyph glyph-name="zero" unicode="0" horiz-adv-x="1216" 
d="M98 672c0 236 52.333 421.333 157 556s225.667 202 363 202c148.667 0 269.167 -66 361.5 -198s138.5 -299.667 138.5 -503c0 -236 -52.167 -421.333 -156.5 -556s-225.5 -202 -363.5 -202c-148.667 0 -269.167 66.333 -361.5 199s-138.5 300 -138.5 502zM266 698
c0 -207.333 28.333 -374.832 85 -502.499s141 -191.5 253 -191.5c100 0 182.667 64.167 248 192.5s98 296.833 98 505.5c0 131.333 -11.5 247.833 -34.5 349.5s-60.5 184.667 -112.5 249s-115.667 96.5 -191 96.5c-100 0 -182.667 -63.833 -248 -191.5
s-98 -296.834 -98 -507.501z" />
    <glyph glyph-name="one" unicode="1" horiz-adv-x="817" 
d="M158 1255v25c78 5.33301 141.167 19.333 189.5 42s90.833 55 127.5 97h47v-1269c0 -48 20 -81 60 -99c31.333 -15.333 75.666 -24 132.999 -26v-25h-537v25c58.667 4 100.334 10 125.001 18c49.333 16.667 74 48.667 74 96v1116h-219z" />
    <glyph glyph-name="two" unicode="2" horiz-adv-x="1095" 
d="M102 0v96.002c104 98 182 172.667 234 224s110 110.5 174 177.5s109.333 119.667 136 158s53.667 82.333 81 132s44.333 95.334 51 137.001s8.66699 87.167 6 136.5c-5.33301 105.333 -31.833 185.5 -79.5 240.5s-107.667 85.333 -180 91s-132.833 -14.333 -181.5 -60
s-69.334 -91.834 -62.001 -138.501c1.33301 -5.33301 11.166 -19.333 29.499 -42s28.833 -45 31.5 -67c8 -69.333 -19.333 -109.333 -82 -120c-31.333 -5.33301 -58.333 2.16699 -81 22.5s-36 44.833 -40 73.5c-5.33301 35.333 -0.833008 73.5 13.5 114.5
s37.166 81 68.499 120s76.333 71.167 135 96.5s125 38 199 38c122.667 0 218.834 -38.667 288.501 -116s104.5 -174.666 104.5 -291.999c0 -66.667 -11.5 -128.334 -34.5 -185.001s-59.5 -111.334 -109.5 -164.001s-100.167 -100.5 -150.5 -143.5
s-117.166 -99.333 -200.499 -169s-156.666 -135.167 -219.999 -196.5l-53 -60h578c32.667 0 63 12 91 36s48.833 47.667 62.5 71s30.167 54.666 49.5 93.999l26 -16l-98 -289h-787z" />
    <glyph glyph-name="three" unicode="3" horiz-adv-x="1099" 
d="M123 113c0 24.667 7.49609 45.5059 22.4961 62.5059s36.167 25.5 63.5 25.5c24.667 0 46.167 -10.333 64.5 -31s33.333 -42.834 45 -66.501s29.834 -45.834 54.501 -66.501s55.334 -31 92.001 -31c79.333 0 147 22.167 203 66.5s96.167 98 120.5 161
s37.833 131.167 40.5 204.5c2.66699 80.667 -15.666 148 -54.999 202s-98 81 -176 81c-44 0 -95.333 -7.66699 -154 -23l-10 47c112 13.333 194.333 55.666 247 126.999s79 157.333 79 258c0 70.667 -22.167 132.834 -66.5 186.501s-108.166 80.5 -191.499 80.5
c-62.667 0 -115.167 -14.667 -157.5 -44s-64.166 -55 -65.499 -77c2.66699 -5.33301 9.66699 -15.5 21 -30.5s20.833 -32.167 28.5 -51.5s11.5 -40.5 11.5 -63.5s-9.5 -42.667 -28.5 -59s-41.5 -24.5 -67.5 -24.5c-30 0 -53.667 11.833 -71 35.5s-26 50.5 -26 80.5
c0 65.333 33.833 126.166 101.5 182.499s163.167 84.5 286.5 84.5c120 0 212 -31.833 276 -95.5s96 -133.167 96 -208.5c0 -32.667 -3.33301 -63.334 -10 -92.001s-16.167 -53.167 -28.5 -73.5s-27 -39.833 -44 -58.5s-35.167 -34.334 -54.5 -47.001
s-39.166 -24.834 -59.499 -36.501s-40.833 -21.667 -61.5 -30s-40.334 -17.166 -59.001 -26.499c121.333 -1.33301 217.166 -31 287.499 -89s105.5 -147 105.5 -267c0 -114.667 -47 -215.834 -141 -303.501s-223.667 -131.5 -389 -131.5c-220 0 -330 47.333 -330 142z" />
    <glyph glyph-name="four" unicode="4" horiz-adv-x="1165" 
d="M49 469l-0.00195312 48.999l692 901h37v-905h19c122.667 0 194.334 9 215.001 27c27.333 23.333 42.333 61.333 45 114h24v-338h-20c-1.33301 34 -4.83301 60.333 -10.5 79s-18 35.5 -37 50.5s-92.5 22.5 -220.5 22.5h-15v-324c0 -49.333 18.667 -82 56 -98
c28.667 -12 68 -19.333 118 -22v-25h-487v25c58.667 2.66699 98.334 7.33398 119.001 14.001c38 12 57 43.333 57 94v336h-592zM99.998 513.999h541v700z" />
    <glyph glyph-name="five" unicode="5" horiz-adv-x="1015" 
d="M70 127c0 26 7.16797 47.168 21.501 63.501s35.166 24.5 62.499 24.5c24.667 0 47.167 -10.5 67.5 -31.5s38 -44.167 53 -69.5s38.5 -48.666 70.5 -69.999s70 -32 114 -32c109.333 0 194.666 43 255.999 129s92 191.333 92 316c0 120 -28.667 211.667 -86 275
s-130.333 95 -219 95c-58.667 0 -113.667 -18.333 -165 -55s-89.333 -80.334 -114 -131.001l-59 12l119 746h643l47 -230l-25 -8c-22 45.333 -45.167 76.5 -69.5 93.5s-61.833 25.5 -112.5 25.5h-453l-94 -567c80.667 101.333 188.667 151.666 324 150.999
c110.667 0 208 -35.5 292 -106.5s126 -177.5 126 -319.5c0 -131.333 -46.167 -241 -138.5 -329s-221.166 -132 -386.499 -132c-124 0 -216 14 -276 42s-90 64 -90 108z" />
    <glyph glyph-name="six" unicode="6" horiz-adv-x="1144" 
d="M131 598c0 244.667 63.166 446.166 189.499 604.499s267.833 237.5 424.5 237.5c75.333 0 135.5 -16.833 180.5 -50.5s67.5 -76.834 67.5 -129.501c0 -34 -9.16699 -59.667 -27.5 -77s-42.5 -26 -72.5 -26c-49.333 0 -81.333 57.333 -96 172
c-2.66699 16.667 -15.667 30.834 -39 42.501s-53.333 17.5 -90 17.5c-102.667 0 -191.5 -69 -266.5 -207s-117.5 -323 -127.5 -555l11 -2c24.667 62.667 70.334 118.5 137.001 167.5s145 73.5 235 73.5c102.667 0 191.834 -36.5 267.501 -109.5s113.5 -176.5 113.5 -310.5
c0 -131.333 -44.333 -243.666 -133 -336.999s-192.334 -140 -311.001 -140c-139.333 0 -251.333 52.667 -336 158s-127 262.333 -127 471zM284.999 431.999c0 -109.333 26.666 -208.667 79.999 -298s127 -134 221 -134c91.333 0 164 44.667 218 134s81 186 81 290
c0 105.333 -27 195.833 -81 271.5s-124 113.5 -210 113.5c-75.333 0 -145.666 -34.167 -210.999 -102.5s-98 -159.833 -98 -274.5z" />
    <glyph glyph-name="seven" unicode="7" horiz-adv-x="1015" 
d="M82 1069l88.001 329.998h870v-29c-66.667 -86 -213.334 -314 -440.001 -684s-358.334 -598.667 -395.001 -686h-90c40.667 72.667 180.834 296.334 420.501 671.001s371.834 577.667 396.501 609h-586c-61.333 0 -111.833 -23.167 -151.5 -69.5
s-66.834 -96.166 -81.501 -149.499z" />
    <glyph glyph-name="eight" unicode="8" horiz-adv-x="1155" 
d="M123 330c0 83.333 29.001 159.17 87.001 227.503s125.333 120.833 202 157.5c-164 75.333 -246 181 -246 317c0 121.333 43.667 216.5 131 285.5s185 103.5 293 103.5c112 0 205.5 -29.667 280.5 -89s112.5 -140 112.5 -242c0 -74 -24.833 -141.333 -74.5 -202
s-112.834 -108.334 -189.501 -143.001c208.667 -84.667 313 -203.334 313 -356.001c0 -126.667 -47.333 -228.334 -142 -305.001s-209.667 -115 -345 -115c-121.333 0 -222 31.833 -302 95.5s-120 152.167 -120 265.5zM225.001 324.004
c0 -92.667 30.834 -169.164 92.501 -229.497s143.5 -90.5 245.5 -90.5c88.667 0 167.834 30 237.501 90s104.5 142 104.5 246c0 30 -3.66699 57 -11 81s-22.333 46.833 -45 68.5s-42.834 39.667 -60.501 54s-49.334 32.166 -95.001 53.499s-82 37.333 -109 48
s-73.167 29 -138.5 55c-62.667 -36.667 -115.167 -90.834 -157.5 -162.501s-63.5 -142.834 -63.5 -213.501zM285.002 1094.01c0 -79.333 28.667 -141.168 86 -185.501s161.666 -93.833 312.999 -148.5c62.667 38 111.834 88.833 147.501 152.5s53.5 128.834 53.5 195.501
c0 83.333 -27.667 151 -83 203s-125.333 78 -210 78c-87.333 0 -160.333 -29.167 -219 -87.5s-88 -127.5 -88 -207.5z" />
    <glyph glyph-name="nine" unicode="9" horiz-adv-x="1144" 
d="M106 969c0 131.333 44.502 243.667 133.502 337s192.833 140 311.5 140c139.333 0 251.333 -52.667 336 -158s127 -262.333 127 -471c0 -244.667 -63.167 -446.167 -189.5 -604.5s-268.166 -237.5 -425.499 -237.5c-75.333 0 -135.333 16.833 -180 50.5
s-67 77.167 -67 130.5c0 34 9.16699 59.5 27.5 76.5s42.5 25.5 72.5 25.5c50.667 0 82.667 -57.333 96 -172c2.66699 -16.667 15.667 -30.667 39 -42s53.333 -17 90 -17c102.667 0 191.5 68.833 266.5 206.5s117.167 322.5 126.5 554.5l-10 3
c-24.667 -62.667 -70.334 -118.667 -137.001 -168s-145.334 -74 -236.001 -74c-102.667 0 -191.834 36.5 -267.501 109.5s-113.5 176.5 -113.5 310.5zM260.002 991.001c0 -105.333 27.001 -195.832 81.001 -271.499s124 -113.5 210 -113.5
c75.333 0 145.666 34.167 210.999 102.5s98 159.833 98 274.5c0 109.333 -26.667 208.666 -80 297.999s-127 134 -221 134c-91.333 0 -164 -44.667 -218 -134s-81 -186 -81 -290z" />
    <glyph glyph-name="colon" unicode=":" horiz-adv-x="649" 
d="M205 106.5c0 34.333 11.5 63 34.5 86s51.167 34.5 84.5 34.5c34 0 62.5 -11.5 85.5 -34.5s34.5 -51.667 34.5 -86s-11.5 -62.666 -34.5 -84.999s-51.5 -33.5 -85.5 -33.5c-32.667 0 -60.667 11.167 -84 33.5s-35 50.666 -35 84.999zM205 801c0 32.667 11.5 61 34.5 85
s51.167 36 84.5 36c34 0 62.5 -12 85.5 -36s34.5 -52.333 34.5 -85s-11.5 -60.334 -34.5 -83.001s-51.5 -34 -85.5 -34c-32.667 0 -60.667 11.333 -84 34s-35 50.334 -35 83.001z" />
    <glyph glyph-name="semicolon" unicode=";" horiz-adv-x="649" 
d="M168 -291c128.667 79.333 196.334 179.001 203.001 299.001h-66c-39.333 0 -68.666 10.667 -87.999 32s-29 47.666 -29 78.999c0 26 10.667 49.833 32 71.5s48.333 32.5 81 32.5c100 0 150 -63.333 150 -190c0 -36.667 -8.33301 -73.5 -25 -110.5
s-33.5 -66.833 -50.5 -89.5s-41.833 -47.667 -74.5 -75s-53.834 -44 -63.501 -50s-26.834 -17.333 -51.501 -34zM211 801.001c0 32.667 11.335 61 34.002 85s49 36 79 36c31.333 0 58.166 -12 80.499 -36s33.5 -52.333 33.5 -85s-11.167 -60.334 -33.5 -83.001
s-49.333 -34 -81 -34s-58.334 11.333 -80.001 34s-32.5 50.334 -32.5 83.001z" />
    <glyph glyph-name="less" unicode="&#x3c;" 
d="M98 512v41l906 440v-59l-830 -402l830 -401v-59z" />
    <glyph glyph-name="equal" unicode="=" 
d="M106 326v55h906v-55h-906zM106 684v55h906v-55h-906z" />
    <glyph glyph-name="greater" unicode="&#x3e;" 
d="M115 72v59l829 401l-829 402v59l905 -440v-41z" />
    <glyph glyph-name="question" unicode="?" horiz-adv-x="917" 
d="M104 1245c0 49.333 26.6631 92.8311 79.9961 130.498s128 56.5 224 56.5c142 0 247.667 -34.5 317 -103.5s104 -159.5 104 -271.5c0 -56 -10.833 -106.5 -32.5 -151.5s-49.167 -80.833 -82.5 -107.5s-69.166 -54 -107.499 -82s-74.166 -53.667 -107.499 -77
s-61 -54.166 -83 -92.499s-33 -80.5 -33 -126.5l4 -51h-35l-8 41c-4 28.667 -6 64 -6 106c0 52 11.333 98.833 34 140.5s50.334 76.834 83.001 105.501l98 90l82 104l35 138c0 105.333 -24 182.833 -72 232.5s-111.333 74.5 -190 74.5c-68 0 -112.667 -13 -134 -39
c10.667 -65.333 12.334 -115.333 5.00098 -150c-15.333 -40.667 -46.333 -61 -93 -61c-26 0 -46.167 8.83301 -60.5 26.5s-21.5 40.167 -21.5 67.5zM241.996 102.498c0 33 11.5 61 34.5 84s51 34.5 84 34.5s61 -11.5 84 -34.5s34.5 -51 34.5 -84s-11.5 -60.667 -34.5 -83
s-51 -33.5 -84 -33.5s-61 11.167 -84 33.5s-34.5 50 -34.5 83z" />
    <glyph glyph-name="at" unicode="@" horiz-adv-x="1990" 
d="M168 367c0 165.333 41.334 322.336 124.001 471.003s200.334 270 353.001 364s322 141 508 141c108 0 205.333 -18.333 292 -55s156.667 -86.5 210 -149.5s94.333 -133.333 123 -211s43 -158.834 43 -243.501c0 -165.333 -53 -309.333 -159 -432s-224.333 -184 -355 -184
c-50.667 0 -92.834 16 -126.501 48s-49.5 77.333 -47.5 136l-7 2c-27.333 -49.333 -64.166 -92 -110.499 -128s-91.833 -54 -136.5 -54c-52 0 -100.167 20.5 -144.5 61.5s-66.5 111.167 -66.5 210.5c0 39.333 10.167 87.666 30.5 144.999s48.333 115.5 84 174.5
s83.5 108.5 143.5 148.5s124 60 192 60c39.333 0 74.5 -11.833 105.5 -35.5s49.167 -56.834 54.5 -99.501h6l47 123h99l-189 -538c-15.333 -39.333 -22.833 -76.833 -22.5 -112.5s9.33301 -64.5 27 -86.5s40.167 -33 67.5 -33c116 0 225.167 57 327.5 171
s153.5 259 153.5 435c0 172 -60 316.833 -180 434.5s-275 176.5 -465 176.5c-100 0 -199 -21.5 -297 -64.5s-187 -102.833 -267 -179.5s-144.667 -174.667 -194 -294s-74 -250 -74 -392c0 -229.333 69.333 -414 208 -554s305 -210 499 -210c216 0 402.167 56 558.5 168
s267.166 266.333 332.499 463l16 -4c-60 -206 -174.333 -370.833 -343 -494.5s-355.334 -185.5 -560.001 -185.5c-105.333 0 -207.833 17 -307.5 51s-191 83.167 -274 147.5s-150.167 149 -201.5 254s-77 223.167 -77 354.5zM776.001 315.003
c0 -76.667 11.335 -129.501 34.002 -158.501s47 -43.5 73 -43.5c101.333 0 190.666 73 267.999 219l117 354c-9.33301 58.667 -27 100.334 -53 125.001s-63 37 -111 37c-56 0 -110.333 -32.167 -163 -96.5s-93.334 -137.333 -122.001 -219s-43 -154.167 -43 -217.5z" />
    <glyph glyph-name="A" unicode="A" horiz-adv-x="1359" 
d="M-63 0l0.000976562 24.9971c53.333 2.66699 99.666 15.334 138.999 38.001c57.333 32.667 101 86 131 160l481 1198h29l493 -1259c19.333 -46.667 47.333 -81 84 -103c34 -20.667 77 -32 129 -34v-25h-594v25c49.333 2.66699 97.5 10.5 144.5 23.5s70.5 30.833 70.5 53.5
c0 20.667 -2.66699 37.334 -8 50.001l-143 360h-516c-49.333 -122.667 -81.333 -210 -96 -262c-16.667 -53.333 -25 -91.666 -25 -114.999c0 -32.667 26.333 -58.5 79 -77.5s107.667 -29.833 165 -32.5v-25h-563zM393.001 554.997h484l-242 616z" />
    <glyph glyph-name="B" unicode="B" horiz-adv-x="1300" 
d="M92 0v24.998c61.333 2.66699 110.666 11.334 147.999 26.001c42 16.667 63 48.667 63 96v1092c0 50.667 -21 84.667 -63 102c-48 19.333 -93.333 30.333 -136 33v25h680c50.667 0 101 -7.83301 151 -23.5s96.167 -46.5 138.5 -92.5s63.5 -102.333 63.5 -169
c0 -104 -29.333 -180.5 -88 -229.5s-147 -91.167 -265 -126.5v-10c36.667 -4 76.334 -13 119.001 -27s88.5 -34.167 137.5 -60.5s89.5 -65.166 121.5 -116.499s48 -110.333 48 -177c0 -58.667 -15.667 -113 -47 -163s-69.5 -89 -114.5 -117s-89.333 -49.5 -133 -64.5
s-81.167 -22.5 -112.5 -22.5h-711zM471 181.998c8 -56 26.667 -94.166 56 -114.499s79 -30.5 149 -30.5c220 0 330 126.333 330 379c0 83.333 -29.167 154.666 -87.5 213.999s-137.833 89 -238.5 89c-79.333 0 -149 -1.33301 -209 -4v-533zM471 761.999
l159.999 -0.000976562c109.333 0 187.833 30.333 235.5 91s71.5 140.834 71.5 240.501s-26.667 170 -80 211s-116 61.5 -188 61.5c-53.333 0 -119.666 -1.33301 -198.999 -4v-600z" />
    <glyph glyph-name="C" unicode="C" horiz-adv-x="1267" 
d="M70 682c0 206 67.501 380.667 202.501 524s302.167 215 501.5 215c54.667 0 112.334 -10.833 173.001 -32.5s113.667 -52.5 159 -92.5l63 125h39l9 -503h-27c-18 58.667 -40.667 112.834 -68 162.501s-61 97 -101 142s-89.167 80.5 -147.5 106.5s-122.166 39 -191.499 39
c-110.667 0 -208.334 -56.333 -293.001 -169s-127 -282.334 -127 -509.001c0 -194 49.5 -350.333 148.5 -469s221.5 -178 367.5 -178c217.333 0 367.666 111.333 450.999 334l41 -23c-109.333 -256.667 -290.333 -385 -543 -385c-200.667 0 -360.334 64.833 -479.001 194.5
s-178 302.5 -178 518.5z" />
    <glyph glyph-name="D" unicode="D" horiz-adv-x="1548" 
d="M88 0l-0.000976562 24.998c69.333 0 120 6 152 18c42 16.667 63 50 63 100v1096c0 52 -21.167 86.833 -63.5 104.5s-90.166 27.834 -143.499 30.501v25h635c58.667 0 119.167 -6.5 181.5 -19.5s127.833 -36.167 196.5 -69.5s129.667 -75.666 183 -126.999
s97.5 -119.666 132.5 -204.999s52.5 -181.333 52.5 -288c0 -114.667 -23 -217.334 -69 -308.001s-106.833 -163 -182.5 -217s-159.167 -95 -250.5 -123s-186.333 -42 -285 -42h-602zM468.999 202.998c8 -56 29.832 -97.332 65.499 -123.999s93.834 -40 174.501 -40
c188.667 0 330.667 59 426 177s143 276 143 474c0 195.333 -57 356.166 -171 482.499s-263.333 189.5 -448 189.5c-78 0 -141.333 -2 -190 -6v-1153z" />
    <glyph glyph-name="E" unicode="E" horiz-adv-x="1306" 
d="M78 0l0.00195312 24.999c82 4 136 11.333 162 22c42 16.667 63 50 63 100v1092c0 50.667 -21 84 -63 100c-48 20.667 -102 32.334 -162 35.001v25h1081v-309h-35c-12 50.667 -38.833 106 -80.5 166s-82.167 92.667 -121.5 98c-44 5.33301 -100.667 8 -170 8h-283v-614
h199c35.333 0 66 4.66699 92 14s41.667 16 47 20l31 33c27.333 27.333 46.333 89.333 57 186h35v-563h-35c-2.66699 31.333 -9.83398 68.833 -21.501 112.5s-23.5 71.834 -35.5 84.501c-13.333 13.333 -24.166 23.833 -32.499 31.5s-24.833 15.5 -49.5 23.5s-54 12 -88 12
h-199v-473c0 -82 14.667 -133.5 44 -154.5s96.666 -31.5 201.999 -31.5c23.333 -0.666992 47.666 -1 72.999 -1h38c38.667 0.666992 74.5 2 107.5 4s62.5 6.5 88.5 13.5s45 16.5 57 28.5c27.333 28.667 57.5 75.167 90.5 139.5s56.167 116.166 69.5 155.499h31l-27 -383
h-1165z" />
    <glyph glyph-name="F" unicode="F" horiz-adv-x="1193" 
d="M78 0l-0.000976562 25.001c90 5.33301 144 11.333 162 18c42 16.667 63 49.334 63 98.001v1098c0 50.667 -21 84 -63 100c-48 20.667 -102 32.334 -162 35.001v25h1091v-326h-34c-10.667 49.333 -38.667 107.166 -84 173.499s-87.666 102.166 -126.999 107.499
c-32.667 5.33301 -93 8 -181 8h-274v-619h225c65.333 0 120 23.333 164 70c28.667 31.333 47.667 92.666 57 183.999h35v-569h-35c-2.66699 31.333 -9.66699 68.166 -21 110.499s-23.333 71.833 -36 88.5c-34.667 47.333 -88.334 71 -161.001 71h-3h-225v-544
c0 -49.333 21 -83 63 -101c36.667 -15.333 89.334 -24.666 158.001 -27.999v-25h-612z" />
    <glyph glyph-name="G" unicode="G" horiz-adv-x="1466" 
d="M66 662c0 204.667 72.0029 382.328 216.003 532.995s308.667 226 494 226c151.333 0 288.666 -41.667 411.999 -125l69 125h35l13 -489h-29c-15.333 50.667 -37.333 100.167 -66 148.5s-64.5 95.666 -107.5 141.999s-95.833 83.5 -158.5 111.5s-130.334 42 -203.001 42
c-131.333 0 -244 -63.167 -338 -189.5s-141 -299.166 -141 -518.499c0 -181.333 48.833 -334.666 146.5 -459.999s214.167 -188 349.5 -188c121.333 0 214.833 28.333 280.5 85s98.5 123.334 98.5 200.001v115c0 72.667 -22.667 116.334 -68 131.001
c-39.333 13.333 -115 23.666 -227 30.999v30h661v-30c-5.33301 -1.33301 -20 -3.5 -44 -6.5s-45.5 -6.16699 -64.5 -9.5s-33.833 -7.66602 -44.5 -12.999c-40.667 -20.667 -61.334 -57 -62.001 -109v-491l-20 -6l-107 125c-178.667 -68 -343.667 -102.333 -495 -103
c-68 0 -137 15.667 -207 47s-134.333 75.333 -193 132s-106.667 129.834 -144 219.501s-56 187.834 -56 294.501z" />
    <glyph glyph-name="H" unicode="H" horiz-adv-x="1695" 
d="M96 0v25c74 4 122 10 144 18c42 16.667 63 50 63 100v1096c0 49.333 -21 82.666 -63 99.999c-50.667 20.667 -98.667 32.334 -144 35.001v25h584v-25c-58.667 -2.66699 -108 -10.667 -148 -24c-42 -13.333 -63 -47 -63 -101v-495h758v485
c0 49.333 -21.333 82.666 -64 99.999c-49.333 20.667 -98.333 32.334 -147 35.001v25h583v-25c-56 -2.66699 -103.667 -10.667 -143 -24c-42 -13.333 -63 -47 -63 -101v-1095c0 -46.667 21 -80.334 63 -101.001c31.333 -15.333 79 -24.666 143 -27.999v-25h-583v25
c78 4 127 10 147 18c42 16.667 63.333 50 64 100v566h-758v-555c0 -49.333 21 -83 63 -101c38 -16.667 87.333 -26 148 -28v-25h-584z" />
    <glyph glyph-name="I" unicode="I" horiz-adv-x="780" 
d="M94 0v24.9971c79.333 4 129.333 10 150 18c42 16.667 63 49.334 63 98.001v1100c0 49.333 -21 82 -63 98c-53.333 20.667 -103.333 32.334 -150 35.001v25h592v-25c-60 -2.66699 -109.667 -10.667 -149 -24c-42 -13.333 -63.333 -46.333 -64 -99v-1099
c0 -48 21.333 -81 64 -99c38 -15.333 87.667 -24.666 149 -27.999v-25h-592z" />
    <glyph glyph-name="J" unicode="J" horiz-adv-x="923" 
d="M-18 139c0 32.667 11.498 62.001 34.498 88.001s51.5 39 85.5 39c35.333 0 63.333 -10.833 84 -32.5s31 -49.5 31 -83.5c0 -66.667 -26.667 -113.334 -80 -140.001v-6c8 -4 19 -6 33 -6c44 0 83 5.5 117 16.5s62.333 24 85 39s41.5 36.833 56.5 65.5
s26.167 53.834 33.5 75.501s13 52 17 91s6.33301 69.167 7 90.5s1 52.333 1 93v770c0 45.333 -21 78.666 -63 99.999c-36.667 19.333 -94 31 -172 35v25h625v-25c-68 -4 -121.333 -12 -160 -24c-42 -13.333 -63.333 -47 -64 -101v-858
c0 -36.667 -8.16699 -77.5 -24.5 -122.5s-40.166 -90.833 -71.499 -137.5s-76 -85.667 -134 -117s-124 -47 -198 -47c-87.333 0 -149.666 18.833 -186.999 56.5s-56 76.167 -56 115.5z" />
    <glyph glyph-name="K" unicode="K" horiz-adv-x="1421" 
d="M96 0l0.000976562 24.999c74 4 122 10 144 18c42 16.667 63 50 63 100v1096c0 49.333 -21 82.666 -63 99.999c-46.667 20.667 -94.667 32.334 -144 35.001v25h584v-25c-58.667 -2.66699 -108 -10.667 -148 -24c-42 -13.333 -63 -47 -63 -101v-526h16
c146 114.667 271 226.667 375 336s156 189 156 239c0 28.667 -20.667 48.667 -62 60c-45.333 10.667 -87 16 -125 16v25h574v-25c-139.333 0 -237 -32 -293 -96c-191.333 -222.667 -351.666 -387.334 -480.999 -494.001c82 -80.667 153.667 -151.667 215 -213
s122.666 -124.666 183.999 -189.999s118.666 -130.333 171.999 -195c56 -68 109.333 -112.333 160 -133c34 -15.333 86.667 -24.666 158 -27.999v-25h-730v25c48 0 95.333 4 142 12c65.333 12 98 35.833 98 71.5s-70 126.167 -210 271.5s-246 250 -318 314h-31v-540
c0 -49.333 21 -83 63 -101c12 -5.33301 37 -11.333 75 -18s65.667 -10 83 -10v-25h-594z" />
    <glyph glyph-name="L" unicode="L" horiz-adv-x="1230" 
d="M98 0l0.000976562 24.999c68 4 115.333 10.667 142 20c42 16.667 63 50.667 63 102v1086c0 49.333 -21 83.333 -63 102c-53.333 23.333 -100.666 36.333 -141.999 39v25h584v-25c-50.667 -2.66699 -100.667 -12 -150 -28c-42 -13.333 -63 -47.666 -63 -102.999v-1018
c0 -87.333 12.667 -140.5 38 -159.5s94.666 -28.5 207.999 -28.5c186 0 295 18.333 327 55c26 30 60.167 79.5 102.5 148.5s67.166 117.833 74.499 146.5h28l-33 -387h-1116z" />
    <glyph glyph-name="M" unicode="M" horiz-adv-x="1900" 
d="M33 0l-0.000976562 25c96.667 10.667 160 27 190 49c45.333 31.333 68 126 68 284v793c0 76.667 -21.333 132 -64 166c-45.333 35.333 -106.666 54.333 -183.999 57v25h381l530 -1120l437 946c26 57.333 41 115.333 45 174h376v-25c-62.667 -4 -113 -12 -151 -24
c-42 -13.333 -63.333 -47 -64 -101v-1095c0 -46.667 21.333 -80.334 64 -101.001c30 -15.333 81.333 -24.666 154 -27.999v-25h-627v25c98 5.33301 158 13.333 180 24c44 23.333 66 58.333 66 105v1058l-549 -1189h-17c-30 91.333 -67.333 186 -112 284l-418 895v-833
c0 -150 23.333 -244.333 70 -283c15.333 -12 49.833 -24.833 103.5 -38.5s92.167 -21.167 115.5 -22.5v-25h-594z" />
    <glyph glyph-name="N" unicode="N" horiz-adv-x="1556" 
d="M-2 1376l-0.00195312 23.001h362l922 -1166v807c0 155.333 -23.333 247 -70 275c-19.333 12 -53.833 24.5 -103.5 37.5s-88.167 20.167 -115.5 21.5v25h590v-25c-18 0 -49.5 -6.16699 -94.5 -18.5s-74.167 -22.5 -87.5 -30.5c-48 -28.667 -72 -119.334 -72 -272.001
v-1071h-51l-940 1189v-800c0 -147.333 24.667 -241 74 -281c16.667 -12 51.5 -25.5 104.5 -40.5s91.167 -23.167 114.5 -24.5v-25h-598v25c19.333 2.66699 51.833 10.5 97.5 23.5s74.5 22.833 86.5 29.5c49.333 27.333 74 121.333 74 282v766c0 72.667 -22 126.667 -66 162
c-23.333 19.333 -58.166 37.833 -104.499 55.5s-87.166 28.5 -122.499 32.5z" />
    <glyph glyph-name="O" unicode="O" horiz-adv-x="1536" 
d="M72 684c0 222.667 68.001 403.666 204.001 542.999c132.667 135.333 296.667 203 492 203s365.333 -72 510 -216c57.333 -57.333 102.666 -131.666 135.999 -222.999s50 -185.333 50 -282c0 -222.667 -68 -402.334 -204 -539.001c-134 -134 -300.667 -201 -500 -201
c-182.667 0 -341.667 65.667 -477 197c-140.667 136.667 -211 309.334 -211 518.001zM264.001 679.999c0 -196.667 44.332 -357.5 132.999 -482.5s212.334 -187.5 371.001 -187.5c161.333 0 285.666 63.167 372.999 189.5s131 293.833 131 502.5
c0 216 -46.5 384.5 -139.5 505.5s-214.5 181.5 -364.5 181.5c-151.333 0 -273.166 -61.5 -365.499 -184.5s-138.5 -297.833 -138.5 -524.5z" />
    <glyph glyph-name="P" unicode="P" horiz-adv-x="1206" 
d="M86 1374v25.001h657c104 0 196.667 -30.5 278 -91.5s122 -139.833 122 -236.5c0 -128.667 -48.167 -227.334 -144.5 -296.001s-211.5 -103 -345.5 -103h-184v-527c0 -52 21 -86 63 -102c26 -9.33301 81.333 -15.333 166 -18v-25h-600v25c68 4 115.333 10.667 142 20
c42 16.667 63 50.667 63 102v1098c0 57.333 -21 92.333 -63 105c-46.667 13.333 -98 21.333 -154 24zM469 711.001h124.999c60 0 112.833 8.5 158.5 25.5s79.834 37.5 102.501 61.5s41.167 51.667 55.5 83s22.833 57.5 25.5 78.5s4 41.167 4 60.5
c0 39.333 -4.83301 77.833 -14.5 115.5s-25 74.167 -46 109.5s-52.667 64 -95 86s-92.833 33 -151.5 33h-164v-653z" />
    <glyph glyph-name="Q" unicode="Q" horiz-adv-x="1544" 
d="M68 684c0 232 68.832 414.333 206.499 547s300.834 199 489.501 199c195.333 0 366 -72.667 512 -218c57.333 -57.333 102.333 -131.333 135 -222s49 -184.334 49 -281.001c0 -126.667 -30.333 -243.167 -91 -349.5s-143.667 -192.833 -249 -259.5
c35.333 -170.667 145.333 -256 330 -256c88.667 0 168.667 55.333 240 166l24 -18c-34 -54.667 -87.5 -108.334 -160.5 -161.001s-153.833 -79 -242.5 -79c-45.333 0 -89.833 6.16699 -133.5 18.5s-88 39.333 -133 81s-72.833 95.834 -83.5 162.501
c-66.667 -27.333 -135 -41 -205 -41c-194 0 -358.667 68.333 -494 205c-130 132.667 -194.667 301.334 -194 506.001zM259.999 694c0 -236 51.333 -413.333 154 -532c31.333 94 80 161.5 146 202.5s134 61.5 204 61.5c82 0 156 -29.667 222 -89s108.667 -129.333 128 -210
c101.333 109.333 152 301 152 575c0 87.333 -9.33301 170.333 -28 249s-47 151.5 -85 218.5s-90.5 120.333 -157.5 160s-144.167 59.5 -231.5 59.5c-154 0 -276.5 -62.833 -367.5 -188.5s-136.5 -294.5 -136.5 -506.5zM439.999 133
c82 -80.667 189.998 -121.001 323.998 -121.001c78.667 0 142.667 9.66699 192 29c-23.333 221.333 -111.333 332 -264 332c-13.333 0 -29 -2.5 -47 -7.5s-40.167 -14.667 -66.5 -29s-52.166 -39.166 -77.499 -74.499s-45.666 -78.333 -60.999 -129z" />
    <glyph glyph-name="R" unicode="R" horiz-adv-x="1425" 
d="M98 0l0.00195312 25.001c68 4 115.333 10.667 142 20c42 16.667 63 50.667 63 102v1100c0 56 -21 90.333 -63 103c-46.667 13.333 -94 21.333 -142 24v25h690c94 0 183.167 -27.333 267.5 -82s126.5 -132.667 126.5 -234c0 -166.667 -126.333 -285.334 -379 -356.001v-14
c58.667 -4 120 -24.5 184 -61.5s105 -87.5 123 -151.5c9.33301 -36.667 21.166 -90.667 35.499 -162s26.5 -124 36.5 -158c20.667 -73.333 57.667 -110 111 -110h1c65.333 0 98.333 64.667 99 194v43h34v-43c0 -100 -16.333 -172.833 -49 -218.5s-88.667 -68.5 -168 -68.5
c-72.667 0 -127.667 28.333 -165 85s-64.666 145.334 -81.999 266.001c-6.66699 49.333 -14.834 90.666 -24.501 123.999s-24.834 70.833 -45.501 112.5s-50.5 73.667 -89.5 96s-85.5 33.5 -139.5 33.5h-195v-549c0 -52 21 -86 63 -102c22 -8 73.333 -14 154 -18v-25h-588z
M469.002 739.001h164c101.333 0 184.333 25.333 249 76s97 130 97 238c0 112 -27.333 191.833 -82 239.5s-123.667 71.5 -207 71.5h-221v-625z" />
    <glyph glyph-name="S" unicode="S" horiz-adv-x="1048" 
d="M90 446l29.0029 0.00195312c53.333 -143.333 115.5 -250.5 186.5 -321.5s162.5 -106.5 274.5 -106.5c92.667 0 163.167 25.333 211.5 76s72.5 117.667 72.5 201c0 130 -64.667 222 -194 276c-160 68 -260.333 111.667 -301 131
c-79.333 36.667 -138.5 82.834 -177.5 138.501s-58.5 128.5 -58.5 218.5c0 106.667 34.167 193.667 102.5 261s152.833 101 253.5 101c57.333 0 116.166 -12.5 176.499 -37.5s110.166 -54.167 149.499 -87.5l70 125h35l10 -463h-31
c-46.667 140.667 -102 245.834 -166 315.501s-150.667 104.5 -260 104.5c-70.667 0 -127.834 -20.833 -171.501 -62.5s-65.5 -92.5 -65.5 -152.5c0 -62.667 13.167 -113.834 39.5 -153.501s69.833 -75.834 130.5 -108.501c39.333 -20.667 89.333 -43.834 150 -69.501
s104.667 -45.5 132 -59.5c104 -49.333 179.167 -99.5 225.5 -150.5s69.5 -126.5 69.5 -226.5c0 -126.667 -40.667 -228.334 -122 -305.001s-178 -115 -290 -115c-120 0 -240.667 43 -362 129l-70 -124h-35z" />
    <glyph glyph-name="T" unicode="T" horiz-adv-x="1267" 
d="M4 1049l-0.00195312 350h1260v-350h-25c-13.333 54.667 -43.666 117.834 -90.999 189.501s-90.666 110.167 -129.999 115.5c-44 5.33301 -100.667 8 -170 8h-129v-1202c0 -50.667 21 -85 63 -103c44 -18 100 -28.667 168 -32v-25h-631v25c84.667 4 140.667 11.333 168 22
c42 16.667 63.333 51 64 103v1212h-131c-68 0 -124 -2.66699 -168 -8c-39.333 -5.33301 -83 -44.333 -131 -117s-78 -135.334 -90 -188.001h-27z" />
    <glyph glyph-name="U" unicode="U" horiz-adv-x="1558" 
d="M70 1374v25.002h585v-25c-54.667 -2.66699 -103.667 -11.334 -147 -26.001c-42 -13.333 -63.333 -47 -64 -101v-870c0 -100 32.5 -181 97.5 -243s160.167 -93 285.5 -93c136.667 0 241.834 31.667 315.501 95s110.5 144.333 110.5 243v665c0 157.333 -23 249 -69 275
c-58.667 32.667 -133 51 -223 55v25h593v-25c-20.667 0 -52.334 -5.16699 -95.001 -15.5s-73 -20.833 -91 -31.5c-45.333 -26 -68 -116 -68 -270v-676c0 -118.667 -46.333 -217.334 -139 -296.001s-219 -118 -379 -118c-155.333 0 -278.5 35.833 -369.5 107.5
s-136.5 155.5 -136.5 251.5v911c0 46.667 -21 80.667 -63 102c-39.333 19.333 -87 31 -143 35z" />
    <glyph glyph-name="V" unicode="V" horiz-adv-x="1329" 
d="M-57 1374l0.000976562 24.999h583v-25c-4.66699 0.666992 -9.33398 1 -14.001 1c-25.333 -0.666992 -60 -6.33398 -104 -17.001c-52 -13.333 -78 -31.666 -78 -54.999c0 -10.667 3.33301 -28.667 10 -54c49.333 -143.333 172.333 -481 369 -1013l362 851
c30 72.667 45 131.667 45 177c0 30 -26.667 55.167 -80 75.5s-106.333 32.5 -159 36.5v23h524v-23c-38 -1.33301 -82.333 -15 -133 -41c-35.333 -19.333 -70.333 -68.333 -105 -147l-510 -1204h-37l-460 1265c-12 36.667 -38 67.334 -78 92.001c-30 18 -75 29 -135 33z" />
    <glyph glyph-name="W" unicode="W" horiz-adv-x="1898" 
d="M-53 1374l0.00292969 25h588v-25c-49.333 -2.66699 -99 -10.5 -149 -23.5s-75 -30.5 -75 -52.5c0 -18 2.66699 -35 8 -51l293 -964l299 839c5.33301 19.333 8.33301 36.666 9 51.999c0 70.667 -30.333 125 -91 163c-32.667 20.667 -83 33 -151 37v25h584v-25
c-46.667 -2.66699 -91.834 -10.834 -135.501 -24.501s-65.5 -31.5 -65.5 -53.5c0 -15.333 2.66699 -32.333 8 -51l303 -952c122.667 353.333 206 608 250 764c28.667 98 43 167 43 207c0 32.667 -25.333 58.167 -76 76.5s-105.334 29.5 -164.001 33.5v25h539v-25
c-50.667 -2.66699 -95 -15.667 -133 -39c-50.667 -31.333 -85.667 -74.333 -105 -129l-409 -1222h-35c-91.333 319.333 -203.333 687 -336 1103l-391 -1103h-37l-364 1257c-10.667 40.667 -35.334 73.334 -74.001 98.001c-32.667 20.667 -77 32.334 -133 35.001z" />
    <glyph glyph-name="X" unicode="X" horiz-adv-x="1507" 
d="M-18 0l0.00292969 25.002c61.333 4 107 12.667 137 26c69.333 30 125.333 72.333 168 127l389 492c-236 315.333 -375.333 499 -418 551c-12 18 -29 39.167 -51 63.5s-49.333 45.5 -82 63.5c-10.667 6.66699 -32.834 12.667 -66.501 18s-57.834 8 -72.501 8v25h688v-25
c-74 -4 -124 -9.33301 -150 -16c-47.333 -12 -71 -32.333 -71 -61c0 -24 19 -66.333 57 -127s126.667 -184.334 266 -371.001c79.333 96.667 136.666 167.5 171.999 212.5s71.833 96.833 109.5 155.5s56.5 101 56.5 127c0 35.333 -32 59.333 -96 72
c-28.667 5.33301 -73 8 -133 8v25h581v-25c-66.667 -4 -115 -12.667 -145 -26c-56 -24.667 -108 -67 -156 -127l-358 -461c262 -341.333 411.333 -534.666 448 -579.999c53.333 -62.667 98 -106.334 134 -131.001c20.667 -13.333 67 -21.333 139 -24v-25h-688v25
c87.333 5.33301 143.333 11.333 168 18c36.667 10.667 55 29 55 55c0 30 -27.5 86 -82.5 168s-146.833 205.667 -275.5 371c-34 -42 -72.333 -90.333 -115 -145s-82.667 -107 -120 -157s-69 -95.833 -95 -137.5s-39 -69.834 -39 -84.501c0 -58.667 75.667 -88 227 -88v-25
h-581z" />
    <glyph glyph-name="Y" unicode="Y" horiz-adv-x="1179" 
d="M-80 1374v24.999h598v-25c-144.667 -8 -217 -31 -217 -69c0 -19.333 110 -231.666 330 -636.999c234.667 367.333 352 570 352 608c0 28.667 -26.667 51.167 -80 67.5s-110.666 26.5 -171.999 30.5v25h533v-25c-26 0 -59.667 -8 -101 -24
c-42 -15.333 -82.333 -50.333 -121 -105c-84.667 -116 -196.334 -303.667 -335.001 -563c-36.667 -68 -55.334 -137.667 -56.001 -209v-313c0 -50.667 21.333 -85 64 -103c44 -18 100 -28.667 168 -32v-25h-631v25c84.667 4 140.667 11.333 168 22c42 16.667 63 51 63 103
v409c0 8 -15.667 50.333 -47 127c-94 191.333 -184.667 363.333 -272 516c-38 66.667 -79 113 -123 139c-31.333 19.333 -71.666 30.333 -120.999 33z" />
    <glyph glyph-name="Z" unicode="Z" horiz-adv-x="1212" 
d="M-4 0v11.999l981 1350h-406c-69.333 0 -117.666 -1.33301 -144.999 -4c-61.333 -10.667 -125.833 -55 -193.5 -133s-106.834 -142.333 -117.501 -193h-35l43 367h1059v-13l-981 -1349h450c52 0 108.333 4.33301 169 13s101.334 21.334 122.001 38.001
c46.667 38 91.167 87.167 133.5 147.5s74.166 118.5 95.499 174.5h37l-47 -410h-1165z" />
    <glyph glyph-name="bracketleft" unicode="[" horiz-adv-x="714" 
d="M129 -326v1815h479v-51h-311v-1712h311v-52h-479z" />
    <glyph glyph-name="backslash" unicode="\" horiz-adv-x="802" 
d="M45 1524l59 16l641 -1950l-59 -16z" />
    <glyph glyph-name="bracketright" unicode="]" horiz-adv-x="714" 
d="M106 -274h312v1712h-312v51h480v-1815h-480v52z" />
    <glyph glyph-name="asciicircum" unicode="^" horiz-adv-x="1751" 
d="M113 444c0 80.667 19.332 143.497 57.999 188.497s93.667 86.833 165 125.5c-45.333 31.333 -81 66.166 -107 104.499s-39 89.5 -39 153.5c0 65.333 31.167 129 93.5 191s132.5 93 210.5 93c92.667 0 168.334 -25.167 227.001 -75.5s98.334 -115.166 119.001 -194.499
l-15 -6c-75.333 120 -161.333 180 -258 180c-68 0 -126.333 -25.5 -175 -76.5s-73 -112.167 -73 -183.5c0 -91.333 16 -149.333 48 -174c91.333 32.667 152 49 182 49c79.333 0 119 -26.667 119 -80c0 -50.667 -26 -75.667 -78 -75c-79.333 0 -159.333 24.333 -240 73
c-13.333 -5.33301 -27.5 -13.5 -42.5 -24.5s-31.833 -31.833 -50.5 -62.5s-28 -65.667 -28 -105c0 -117.333 57.667 -219.333 173 -306s283.666 -130 504.999 -130c184 0 331 52.833 441 158.5s165 225.5 165 359.5c0 113.333 -31.667 200 -95 260s-138 90 -224 90
c-64 0 -119.667 -19.5 -167 -58.5s-71 -87.167 -71 -144.5c0 -61.333 16.5 -107 49.5 -137s75.5 -45 127.5 -45c40.667 0 77.334 10.333 110.001 31c-12 5.33301 -23.5 10 -34.5 14s-21.667 9.16699 -32 15.5s-19.5 12.833 -27.5 19.5s-14.5 15.834 -19.5 27.501
s-7.5 24.167 -7.5 37.5c0 31.333 9.33301 55.666 28 72.999s36.667 26 54 26c31.333 0 59.333 -9.66699 84 -29s37 -51.333 37 -96c0 -40.667 -16 -76.5 -48 -107.5s-73.333 -46.5 -124 -46.5c-64 0 -121 20.833 -171 62.5s-75 101.5 -75 179.5c0 52 11.667 97.333 35 136
s53 68 89 88s72.167 34.333 108.5 43s72.166 13 107.499 13c18 0 56 -1.66699 114 -5s94.333 -5 109 -5c56 0 102.5 15.333 139.5 46s55.5 68.667 55.5 114c0 60 -16 104 -48 132s-70.667 42 -116 42c-26 0 -46.167 -6.5 -60.5 -19.5s-21.5 -26.5 -21.5 -40.5
c2.66699 -4 11.5 -9.33301 26.5 -16s28 -15.5 39 -26.5s16.5 -26.167 16.5 -45.5c0 -60 -26 -90 -78 -90c-26 0 -49.5 10.333 -70.5 31s-31.5 51.334 -31.5 92.001c0 35.333 16.333 67.833 49 97.5s74.334 44.5 125.001 44.5c61.333 0 111.833 -18.5 151.5 -55.5
s59.5 -88.833 59.5 -155.5c0 -79.333 -30 -140.833 -90 -184.5s-143.333 -65.5 -250 -65.5c130 -56 195 -173.667 195 -353c0 -52 -10.667 -106.833 -32 -164.5s-54.5 -115.667 -99.5 -174s-99.333 -110.666 -163 -156.999s-141.834 -84.166 -234.501 -113.499
s-193 -44 -301 -44c-160 0 -303 47.167 -429 141.5s-189 207.5 -189 339.5z" />
    <glyph glyph-name="underscore" unicode="_" horiz-adv-x="1200" 
d="M-25 -225h1250v-62h-1250v62z" />
    <glyph glyph-name="grave" unicode="`" horiz-adv-x="1003" 
d="M287 1423c0 20.667 6.5 38.165 19.5 52.498s30.167 21.5 51.5 21.5c46.667 0 87 -29.333 121 -88c49.333 -83.333 117 -187 203 -311l-20 -19l-300 234c-22 18 -36.667 30.333 -44 37s-14.333 16.334 -21 29.001s-10 27.334 -10 44.001z" />
    <glyph glyph-name="a" unicode="a" horiz-adv-x="927" 
d="M66 186c0 53.333 10.499 98.1689 31.499 134.502s44.167 62.666 69.5 78.999s58.333 31.833 99 46.5c26 9.33301 64 22.666 114 39.999s93.667 33.166 131 47.499s69 29.166 95 44.499v139c0 60 -16 109.167 -48 147.5s-81.333 57.5 -148 57.5
c-60 0 -105.333 -22.667 -136 -68c0 -10.667 2.5 -33.5 7.5 -68.5s7.5 -58.5 7.5 -70.5c0 -22 -9.66699 -40.5 -29 -55.5s-43.333 -22.5 -72 -22.5c-46 0 -69 31 -69 93c0 60.667 31.667 112.5 95 155.5s134 64.5 212 64.5c108 0 189.667 -20.5 245 -61.5
s83 -121.5 83 -241.5c0 -68 -1.83301 -158 -5.5 -270s-5.5 -175 -5.5 -189c0 -81.333 29 -122 87 -122h1c28.667 0 50.334 13.5 65.001 40.5s24.667 70.167 30 129.5h26c-8 -91.333 -26.333 -156.166 -55 -194.499s-69 -57.5 -121 -57.5c-86 0 -142 45.667 -168 137h-6
c-36.667 -45.333 -82.667 -80.166 -138 -104.499s-110.333 -36.5 -165 -36.5c-70.667 0 -127.167 18.333 -169.5 55s-63.5 87 -63.5 151zM220.999 211.003c0 -116 50.668 -174 152.001 -174c83.333 0 159 41.667 227 125l8 366
c-132.667 -38 -230.334 -78.833 -293.001 -122.5s-94 -108.5 -94 -194.5z" />
    <glyph glyph-name="b" unicode="b" horiz-adv-x="1075" 
d="M-25 1483v24l318 21l14 -15v-684l6 -2c28.667 31.333 67.667 59.666 117 84.999s103.333 38 162 38c121.333 0 223 -45.333 305 -136s123 -209 123 -355c0 -135.333 -46.833 -250.166 -140.5 -344.499s-199.834 -141.5 -318.501 -141.5c-46.667 0 -100 10 -160 30
s-109.667 41.667 -149 65l-76 -115l-18 4c5.33301 72.667 8 199 8 379v997c0 54.667 -18.333 93.667 -55 117c-31.333 19.333 -76.666 30.333 -135.999 33zM307 205c18 -49.333 47.5 -95.166 88.5 -137.499s94.833 -63.5 161.5 -63.5c87.333 0 159.333 40.667 216 122
s85 193 85 335c0 117.333 -26.667 217.666 -80 300.999s-132.333 125 -237 125c-94 0 -172 -34.333 -234 -103v-579z" />
    <glyph glyph-name="c" unicode="c" horiz-adv-x="841" 
d="M55 467c0 131.333 40 244.666 120 339.999s184.667 143 314 143c94 0 168.5 -23.5 223.5 -70.5s82.5 -102.5 82.5 -166.5c0 -69.333 -31 -104.333 -93 -105c-23.333 0 -45.166 7.16699 -65.499 21.5s-30.5 37.833 -30.5 70.5c0 34 4.16699 61.667 12.5 83
s12.5 36 12.5 44c-12 64 -60 96.333 -144 97c-76.667 0 -141.167 -37 -193.5 -111s-78.5 -184 -78.5 -330c0 -125.333 26.333 -230.333 79 -315s124 -127 214 -127c65.333 0 119.5 13.333 162.5 40s87.167 75.334 132.5 146.001l22 -14
c-76.667 -155.333 -195.334 -233 -356.001 -233c-130 0 -231.5 45 -304.5 135s-109.5 207.333 -109.5 352z" />
    <glyph glyph-name="d" unicode="d" horiz-adv-x="1101" 
d="M55 475c0 135.333 47.168 248.332 141.501 338.999s204.166 136 329.499 136c76.667 0 159.334 -18.333 248.001 -55v426c0 53.333 -17.667 93 -53 119c-34 23.333 -94 38.333 -180 45v22l362 21l15 -15v-1347c0 -42 17.667 -75.333 53 -100
c19.333 -13.333 59.666 -21.666 120.999 -24.999v-25l-301 -18l-15 14v88l-8 2c-80.667 -84.667 -172 -127 -274 -127c-125.333 0 -229.833 45.833 -313.5 137.5s-125.5 212.5 -125.5 362.5zM217.001 450.999c0 -116 28 -214.333 84 -295s138 -121 246 -121
c77.333 0 153 38.333 227 115v591c-15.333 46.667 -44.333 88.5 -87 125.5s-99 55.5 -169 55.5c-87.333 0 -159.333 -43 -216 -129s-85 -200 -85 -342z" />
    <glyph glyph-name="e" unicode="e" horiz-adv-x="870" 
d="M55 471c0 128.667 37.332 240.667 111.999 336s173.334 143 296.001 143c125.333 0 217.333 -37.167 276 -111.5s88 -174.166 88 -299.499v-15h-614v-20c0 -140.667 25.333 -253 76 -337s128.334 -126 233.001 -126c75.333 0 133.166 14.667 173.499 44
s82.166 78.666 125.499 147.999l25 -14c-35.333 -75.333 -84.166 -134 -146.499 -176s-133.833 -63 -214.5 -63c-140.667 0 -247.5 46.333 -320.5 139s-109.5 210 -109.5 352zM212.999 561l460.999 4.00098c0 109.333 -14.667 196.166 -44 260.499
s-83.666 96.5 -162.999 96.5c-72.667 0 -132.5 -32.167 -179.5 -96.5s-71.833 -152.5 -74.5 -264.5z" />
    <glyph glyph-name="f" unicode="f" horiz-adv-x="598" 
d="M-2 866l-0.00195312 53.999h211v67c0 182.667 45.667 324 137 424c74 79.333 164 119 270 119c61.333 0 106.833 -15.667 136.5 -47s44.5 -69 44.5 -113c0 -18 -8.66699 -36.5 -26 -55.5s-38.666 -28.5 -63.999 -28.5c-27.333 0 -49.666 8.83301 -66.999 26.5
s-26 40.167 -26 67.5c0 16.667 4.33301 44.667 13 84c-12 19.333 -31.333 29 -58 29c-68 0 -119.5 -33.5 -154.5 -100.5s-55.167 -179.5 -60.5 -337.5c-1.33301 -20.667 -2 -65.667 -2 -135h256v-54h-256v-725c0 -49.333 18 -80.666 54 -93.999
c30 -12 73.667 -19.333 131 -22v-25h-474v25c44 2.66699 74.333 6.66699 91 12c36.667 12 55 43.333 55 94v735h-211z" />
    <glyph glyph-name="g" unicode="g" horiz-adv-x="991" 
d="M27 -213c0 61.333 27.668 112.831 83.001 154.498s134.666 67.834 237.999 78.501v11c-36.667 9.33301 -67.334 18.833 -92.001 28.5s-51 27.834 -79 54.501s-42 58.334 -42 95.001c0 18 3.83301 34.5 11.5 49.5s17.667 27.5 30 37.5s26 19.833 41 29.5s30 17.5 45 23.5
s28.5 12 40.5 18v6c-144.667 64 -217 156.667 -217 278c0 91.333 32.5 164 97.5 218s145.833 81 242.5 81c68 0 159.333 -21.667 274 -65c74 36.667 139 55 195 55c78 0 117 -29.333 117 -88c0 -65.333 -26 -98 -78 -98c-59.333 0 -89 41.333 -89 124
c0 9.33301 0.333008 19.666 1 30.999c-18 0 -42.333 -6.16699 -73 -18.5s-57 -28.5 -79 -48.5v-11c44 -60 66 -123.333 66 -190c0 -84.667 -33.5 -154.334 -100.5 -209.001s-140.167 -82 -219.5 -82h-108c-62.667 -20.667 -94 -52.667 -94 -96
c0 -18 3.33301 -33.167 10 -45.5s15.834 -22.166 27.501 -29.499s25 -13.333 40 -18s30.667 -7.66699 47 -9s33 -2.83301 50 -4.5s33.833 -2.5 50.5 -2.5l205 -10c76.667 -4 142.167 -30.5 196.5 -79.5s81.5 -113.167 81.5 -192.5c0 -94 -43.667 -171.5 -131 -232.5
s-207.333 -91.5 -360 -91.5c-285.333 0 -428 82.667 -428 248zM158.001 -217.002c0 -142 108.999 -213 326.999 -213c225.333 0 338 85.333 338 256c0 79.333 -36 132 -108 158c-74 9.33301 -180.667 14 -320 14c-87.333 -10.667 -148.666 -33.167 -183.999 -67.5
s-53 -83.5 -53 -147.5zM238 652.998c0 -78 17.333 -142.499 52 -193.499s78.667 -76.5 132 -76.5c61.333 0 108 25.167 140 75.5s48 113.166 48 188.499c0 79.333 -15.333 145 -46 197s-78.667 78 -144 78c-121.333 0 -182 -89.667 -182 -269z" />
    <glyph glyph-name="h" unicode="h" horiz-adv-x="1124" 
d="M-2 1483l0.00390625 23.999l319 21l15 -15v-731h4c12 12 25.167 25 39.5 39s28.666 27.167 42.999 39.5s30.5 23.833 48.5 34.5s36.833 20.167 56.5 28.5s42.167 14.833 67.5 19.5s52.333 7 81 7c91.333 0 159.5 -28.667 204.5 -86s67.5 -136.333 67.5 -237v-488
c0 -46.667 18.333 -78 55 -94c27.333 -12 57.666 -18.667 90.999 -20v-25h-459v25c48 2.66699 82.667 6.66699 104 12c42 12 63.333 43.333 64 94v524c0 68 -18.833 122.333 -56.5 163s-81.834 61 -132.501 61c-70.667 0 -130.334 -16.5 -179.001 -49.5
s-81.667 -66.5 -99 -100.5v-588c0 -45.333 19.667 -76.666 59 -93.999c30 -12 65 -19.333 105 -22v-25h-453v25c44 2.66699 74 6.66699 90 12c36.667 12 55 43.333 55 94v1202c0 53.333 -18.333 93 -55 119c-26 16.667 -71 27 -135 31z" />
    <glyph glyph-name="i" unicode="i" horiz-adv-x="532" 
d="M33 897v16l303 23l14 -14v-783c0 -46.667 18.667 -78.667 56 -96c36.667 -13.333 66.667 -21 90 -23v-20h-433v20c44 2.66699 74.333 7 91 13c36.667 12 55 43.333 55 94v629c0 42 -19 76 -57 102c-35.333 23.333 -75 36.333 -119 39zM158 1343
c0 28.667 10.167 54.332 30.5 76.999s44.833 34 73.5 34c31.333 0 57.333 -9.83301 78 -29.5s31 -42.5 31 -68.5c0 -31.333 -10.333 -58.666 -31 -81.999s-46.667 -35 -78 -35c-28.667 0 -53.167 10.667 -73.5 32s-30.5 45.333 -30.5 72z" />
    <glyph glyph-name="j" unicode="j" horiz-adv-x="540" 
d="M-176 -326c0 23.333 10.168 44.998 30.501 64.998s44.833 30 73.5 30s53 -7.5 73 -22.5s30 -37.833 30 -68.5c0 -10.667 -3.16699 -26.167 -9.5 -46.5s-8.83301 -34.166 -7.5 -41.499c16.667 -5.33301 34 -8 52 -8c64 0 108.667 32.167 134 96.5s38 179.166 38 344.499
v722c0 48 -18.667 84.333 -56 109c-10.667 8 -36.167 16.5 -76.5 25.5s-70.833 14.167 -91.5 15.5v18l351 23l14 -14v-842c0 -195.333 -43 -336.666 -129 -423.999c-44 -44 -83.333 -74.5 -118 -91.5s-75.334 -25.5 -122.001 -25.5c-52 0 -96 12.333 -132 37
s-54 57.334 -54 98.001zM180.001 1343c0 28.667 10.667 54.332 32 76.999s45.666 34 72.999 34c31.333 0 57.166 -9.83301 77.499 -29.5s30.5 -42.5 30.5 -68.5c0 -31.333 -10.167 -58.666 -30.5 -81.999s-46.166 -35 -77.499 -35c-27.333 0 -51.666 10.667 -72.999 32
s-32 45.333 -32 72z" />
    <glyph glyph-name="k" unicode="k" horiz-adv-x="1032" 
d="M-2 1487l0.000976562 20l319 21l15 -15v-1054c126.667 113.333 243.334 228 350.001 344c16.667 19.333 25 33.666 25 42.999c0 26 -50 44.333 -150 55v23h399v-21c-62.667 -19.333 -108.334 -35.333 -137.001 -48s-60.667 -35.667 -96 -69
c-54.667 -49.333 -123.667 -115.333 -207 -198c64 -30 120 -70 168 -120s87.667 -104.667 119 -164s68 -127.333 110 -204c10.667 -20.667 36.667 -41 78 -61c24.667 -12 47.334 -18.333 68.001 -19v-20h-277c-31.333 102.667 -80.833 204.834 -148.5 306.501
s-135.5 152.5 -203.5 152.5c-36.667 0 -69.334 -12.333 -98.001 -37v-285c0 -46.667 19 -77.334 57 -92.001c39.333 -15.333 72.666 -23.666 99.999 -24.999v-20h-446v20c44 2.66699 74 7 90 13c36.667 12 55 43.333 55 94v1208c0 53.333 -18.333 93 -55 119
c-27.333 18 -72.333 29 -135 33z" />
    <glyph glyph-name="l" unicode="l" horiz-adv-x="518" 
d="M-6 1487l-0.000976562 20.001l325 21l15 -15v-1374c0 -48 18.333 -80 55 -96c28.667 -13.333 58.667 -21 90 -23v-20h-434v20c44 2.66699 74 7 90 13c36.667 12 55 43.333 55 94v1204c0 52 -18.333 91 -55 117c-12 8 -33.667 16.167 -65 24.5
s-56.666 13.166 -75.999 14.499z" />
    <glyph glyph-name="m" unicode="m" horiz-adv-x="1732" 
d="M45 893l0.000976562 20.0029l287 23l14 -14v-144h6c30 27.333 57.667 53.666 83 78.999s59.5 47.166 102.5 65.499s91.833 27.5 146.5 27.5c117.333 0 204.666 -59.333 261.999 -178c31.333 28.667 60 56 86 82s60.5 48.5 103.5 67.5s91.833 28.5 146.5 28.5
c91.333 0 158.833 -30.333 202.5 -91s65.5 -142.334 65.5 -245.001v-473c0 -48 18.667 -80 56 -96c27.333 -10.667 60.666 -17.334 99.999 -20.001v-25h-457v25c38 1.33301 68.667 5.33301 92 12c44 12 66 43.333 66 94v528c0 66.667 -18.5 120 -55.5 160
s-80.5 60 -130.5 60c-117.333 0 -208.333 -49.333 -273 -148v-590c0 -48 20 -80 60 -96c27.333 -12 60 -18.667 98 -20v-25h-451v25c32.667 1.33301 61.334 5.33301 86.001 12c44 12 66 43.333 66 94v528c0 66.667 -18.5 120 -55.5 160s-80.5 60 -130.5 60
c-112 0 -203 -50 -273 -150v-586c0 -46.667 20.667 -78.667 62 -96c30 -13.333 64 -20.666 102 -21.999v-25h-453v25c44 2.66699 74.333 6.66699 91 12c38 12 57 43.333 57 94v627c0 38 -18.333 70 -55 96c-35.333 24.667 -71 37.667 -107 39z" />
    <glyph glyph-name="n" unicode="n" horiz-adv-x="1142" 
d="M51 893l0.000976562 19.999l283 23l14 -14v-140h4c16.667 15.333 32.5 30.833 47.5 46.5s32.333 31 52 46s40.167 28 61.5 39s46.666 19.833 75.999 26.5s61 10 95 10c92.667 0 162 -28.667 208 -86s69 -136.333 69 -237v-488c0 -46.667 18.333 -78 55 -94
c27.333 -12 57.333 -18.667 90 -20v-25h-457v25c48 2.66699 83 6.66699 105 12c42 12 63 43.333 63 94v524c0 68 -18.667 122.333 -56 163s-82 61 -134 61c-70.667 0 -130.334 -16.5 -179.001 -49.5s-82 -66.5 -100 -100.5v-588c0 -45.333 20.667 -76.666 62 -93.999
c28.667 -12 63.334 -19.333 104.001 -22v-25h-455v25c44 2.66699 74.333 6.66699 91 12c38 12 57 43.333 57 94v621c0 46.667 -18.333 82.667 -55 108c-30 19.333 -63.667 30.333 -101 33z" />
    <glyph glyph-name="o" unicode="o" horiz-adv-x="1007" 
d="M53 457c0 146 41.999 264.668 125.999 356.001s194.333 137 331 137c132.667 0 239.834 -45.333 321.501 -136s122.5 -204.334 122.5 -341.001c0 -140.667 -41.5 -259.167 -124.5 -355.5s-195.5 -144.5 -337.5 -144.5c-120 0 -223.167 44.833 -309.5 134.5
s-129.5 206.167 -129.5 349.5zM210.999 475.001c0 -136.667 24.5 -249.666 73.5 -338.999s122.833 -134 221.5 -134c94 0 166 44.667 216 134s75 201 75 335c0 79.333 -9 151.333 -27 216s-49.5 120 -94.5 166s-101.5 69 -169.5 69c-72.667 0 -132.167 -24.333 -178.5 -73
s-77.333 -104.334 -93 -167.001s-23.5 -131.667 -23.5 -207z" />
    <glyph glyph-name="p" unicode="p" horiz-adv-x="1099" 
d="M23 893l-0.00292969 19.9971l290 23l15 -12v-105l8 -2c82 88.667 174.667 133 278 133c121.333 0 223.333 -45.667 306 -137s124 -210.666 124 -357.999c0 -138 -46.667 -252.5 -140 -343.5s-203 -136.5 -329 -136.5c-100 0 -178.333 21.333 -235 64h-8v-350
c0 -50.667 19 -83.667 57 -99c40.667 -16.667 86.334 -26 137.001 -28v-25h-501v25c50.667 2.66699 87.334 8 110.001 16c35.333 10.667 53 46.334 53 107.001v1071c0 44 -17.667 78 -53 102c-31.333 20.667 -68.666 32.334 -111.999 35.001zM331.997 173.997
c13.333 -42 41.5 -81.167 84.5 -117.5s97.5 -54.5 163.5 -54.5c88.667 0 161 40.333 217 121s84 192 84 334c0 118.667 -26.333 220 -79 304s-131.667 126 -237 126c-90 0 -167.667 -37 -233 -111v-602z" />
    <glyph glyph-name="q" unicode="q" horiz-adv-x="1073" 
d="M55 475c0 134 47.4971 246.665 142.497 337.998s201.833 137 320.5 137c38 0 75.5 -4.66699 112.5 -14s65 -18.833 84 -28.5s38.833 -21 59.5 -34s31.667 -20.167 33 -21.5l111 125l16 -6c-10.667 -218.667 -16 -343 -16 -373v-905c0 -52 18.333 -86.333 55 -103
c28.667 -13.333 68.334 -22.666 119.001 -27.999v-25h-486v25c46.667 2.66699 84.334 8 113.001 16c36.667 10.667 55 43.334 55 98.001v414l-6 2c-75.333 -78 -166.666 -117 -273.999 -117c-122.667 0 -226.5 46.167 -311.5 138.5s-127.5 212.833 -127.5 361.5z
M216.997 448.998c0 -114.667 28 -211.999 84 -291.999s138 -120 246 -120c83.333 0 159 32.667 227 98v610c-15.333 45.333 -44.333 86.166 -87 122.499s-99 54.5 -169 54.5c-87.333 0 -159.333 -43.333 -216 -130s-85 -201 -85 -343z" />
    <glyph glyph-name="r" unicode="r" horiz-adv-x="727" 
d="M51 893l-0.000976562 20l283 23l14 -14v-142h4c86 110.667 178.333 166 277 166c27.333 0 52.5 -9.83301 75.5 -29.5s34.5 -43.834 34.5 -72.501c0 -31.333 -8.16699 -57.666 -24.5 -78.999s-39.5 -32 -69.5 -32c-61.333 0 -92 28.667 -92 86c0 18 4.66699 37.333 14 58
c-48 0 -91.667 -16.167 -131 -48.5s-68.666 -65.5 -87.999 -99.5v-588c0 -48 18.333 -79.333 55 -94c28.667 -12 72.667 -19.333 132 -22v-25h-476v25c44 2.66699 74.333 6.66699 91 12c38 12 57 43.333 57 94v621c0 46.667 -18.333 82.667 -55 108
c-30 19.333 -63.667 30.333 -101 33z" />
    <glyph glyph-name="s" unicode="s" horiz-adv-x="763" 
d="M59 299l25.002 -0.00195312c20.667 -86 57.5 -156 110.5 -210s117.167 -81 192.5 -81c150 0 225 65.667 225 197c0 50.667 -18.333 89.167 -55 115.5s-100.667 53.833 -192 82.5c-92.667 28.667 -162.667 63.834 -210 105.501s-71 102.167 -71 181.5
c0 76.667 25.667 139.167 77 187.5s120 72.5 206 72.5c80.667 0 151.667 -20.333 213 -61l38 63h23l14 -272h-24c-16.667 68 -49.834 125 -99.501 171s-108.167 69 -175.5 69c-61.333 0 -107.333 -15.5 -138 -46.5s-46 -70.833 -46 -119.5c0 -20.667 1.33301 -38.5 4 -53.5
s10.5 -29 23.5 -42s23.333 -23 31 -30s25.167 -15.5 52.5 -25.5s46.666 -17.167 57.999 -21.5s38.333 -13.166 81 -26.499c92.667 -30 162.167 -67.5 208.5 -112.5s69.5 -107.167 69.5 -186.5c0 -84.667 -30.667 -153 -92 -205s-137.666 -78 -228.999 -78
c-84.667 0 -167.334 27.333 -248.001 82l-39 -63h-22z" />
    <glyph glyph-name="t" unicode="t" horiz-adv-x="661" 
d="M-10 862l0.00195312 58.001h205v321h137v-321h280v-58h-278v-590c0 -72.667 10.167 -126.334 30.5 -161.001s57.833 -52 112.5 -52c79.333 0 130 61.667 152 185h33c-24.667 -173.333 -105.334 -260 -242.001 -260c-152.667 0 -229.334 92 -230.001 276v602h-200z" />
    <glyph glyph-name="u" unicode="u" horiz-adv-x="1105" 
d="M27 889v21.9971l282 25l17 -14v-664c0 -69.333 16.667 -123.166 50 -161.499s76 -57.5 128 -57.5c116 0 206 48.333 270 145v578c0 45.333 -18.333 79.333 -55 102c-20.667 13.333 -67.667 21.666 -141 24.999v22l325 25l15 -14v-758
c0 -40.667 17.667 -73.334 53 -98.001c20.667 -13.333 52.667 -21.666 96 -24.999v-25l-276 -18l-15 14v125h-6c-12 -12 -24.833 -24.5 -38.5 -37.5s-27 -25.667 -40 -38s-28.5 -23.666 -46.5 -33.999s-36.167 -19.166 -54.5 -26.499s-39.833 -13.166 -64.5 -17.499
s-51.334 -6.5 -80.001 -6.5c-91.333 0 -158.5 30.167 -201.5 90.5s-64.5 141.5 -64.5 243.5v445c0 44 -17.667 78 -53 102c-27.333 18 -60.666 28.333 -99.999 31z" />
    <glyph glyph-name="v" unicode="v" horiz-adv-x="911" 
d="M-39 899l-0.000976562 25.001h408v-27c-75.333 -2.66699 -113 -18.334 -113 -47.001c0 -4 4.66699 -18.333 14 -43l242 -621h6l238 582c6.66699 20.667 10 39.667 10 57c0 20.667 -17.333 37.167 -52 49.5s-67.334 20.5 -98.001 24.5v25h351v-23
c-26 -4 -55.5 -16.167 -88.5 -36.5s-56.167 -46.5 -69.5 -78.5l-246 -581c-39.333 -95.333 -66.666 -169 -81.999 -221h-37l-329 813c-23.333 57.333 -74.666 91.333 -153.999 102z" />
    <glyph glyph-name="w" unicode="w" horiz-adv-x="1431" 
d="M-27 899v25h404v-27c-76.667 -2.66699 -115 -18.334 -115 -47.001c0 -9.33301 4 -23.666 12 -42.999l238 -596h4c113.333 294.667 181.666 474.334 204.999 539.001l-27 63c-15.333 30 -33.166 51.167 -53.499 63.5s-47.5 19.833 -81.5 22.5v25h367v-25
c-68 -2.66699 -102.333 -17 -103 -43c0 -18 5.66699 -39.667 17 -65l221 -584h6c122.667 324.667 193 515.667 211 573c6.66699 20.667 10 37.667 10 51c0 22 -18.667 39 -56 51c-34 11.333 -63.667 17 -89 17h-8v25h360v-25c-36.667 -2.66699 -71.5 -16 -104.5 -40
s-56.167 -53 -69.5 -87l-217 -573c-20.667 -50.667 -46.667 -122.334 -78 -215.001h-22c-34 95.333 -85.667 233.833 -155 415.5s-106 277.167 -110 286.5c-34 -80.667 -96 -243 -186 -487l-80 -215h-22l-332 811c-12 28.667 -31.833 52.5 -59.5 71.5
s-56.5 29.833 -86.5 32.5z" />
    <glyph glyph-name="x" unicode="x" horiz-adv-x="890" 
d="M-10 0l-0.000976562 23c79.333 28.667 139.333 68.667 180 120l219 297l-248 367c-40.667 61.333 -86.334 92 -137.001 92v25h367v-25c-22 0 -45 -3 -69 -9s-36 -13.333 -36 -22c0 -9.33301 6.33301 -23.666 19 -42.999c5.33301 -9.33301 68 -102 188 -278
c26 35.333 84.667 121.333 176 258c5.33301 6.66699 8 18.334 8 35.001c0 22 -40.667 42.333 -122 61v23h339v-23c-90 -27.333 -150.667 -62 -182 -104c-9.33301 -13.333 -37.166 -53.333 -83.499 -120s-84.5 -120.334 -114.5 -161.001l262 -385
c18 -24.667 31.333 -42.5 40 -53.5s21.834 -21.5 39.501 -31.5s40.167 -17 67.5 -21v-25h-393v25c80.667 6.66699 121 21 121 43c0 12 -9.66699 33 -29 63c-1.33301 1.33301 -65.333 95 -192 281l-197 -277c-13.333 -19.333 -20 -35 -20 -47c0 -18 17.333 -32.333 52 -43
s63.667 -17.334 87 -20.001v-25h-342z" />
    <glyph glyph-name="y" unicode="y" horiz-adv-x="897" 
d="M-37 899l-0.000976562 25h402v-27c-28.667 -1.33301 -54.667 -6.16602 -78 -14.499s-35 -19.166 -35 -32.499l14 -43c13.333 -38 50.5 -134.5 111.5 -289.5s104.5 -266.833 130.5 -335.5h2c101.333 243.333 180.666 438.666 237.999 585.999c9.33301 26 14 45 14 57
c0 16.667 -19.5 32.5 -58.5 47.5s-72.167 23.833 -99.5 26.5v25h350v-23c-20.667 -2.66699 -48 -15.334 -82 -38.001s-57 -48.334 -69 -77.001l-248 -589c-15.333 -36.667 -33.166 -81 -53.499 -133s-33.166 -83.667 -38.499 -95c-74 -170.667 -135.833 -285 -185.5 -343
s-106.834 -87 -171.501 -87c-31.333 0 -62 10.333 -92 31s-45 51.334 -45 92.001c0 26 10 50 30 72s45 33 75 33c24.667 0 46.167 -6.83301 64.5 -20.5s27.5 -37.167 27.5 -70.5v-69c39.333 9.33301 83 49.833 131 121.5s91.667 157.5 131 257.5l-317 811
c-23.333 57.333 -72.666 91.333 -147.999 102z" />
    <glyph glyph-name="z" unicode="z" horiz-adv-x="847" 
d="M43 0l0.000976562 27.001l584 868c-244.667 0 -384 -7 -418 -21c-38 -16.667 -70 -86 -96 -208h-33v258h719v-13l-590 -882c49.333 -1.33301 109.333 -2 180 -2c68 0 147.333 2 238 6c39.333 1.33301 68.666 29.333 87.999 84c32.667 87.333 53 148.666 61 183.999h27
v-301h-760z" />
    <glyph glyph-name="braceleft" unicode="{" horiz-adv-x="819" 
d="M53 535l0.00390625 108.001c113.333 9.33301 196.666 31.166 249.999 65.499s80 101.166 80 200.499c0 28.667 -5.5 73.167 -16.5 133.5s-16.5 104.166 -16.5 131.499c0 139.333 32.833 232.5 98.5 279.5s174.834 70.5 327.501 70.5v-27
c-28.667 -1.33301 -52.834 -3.33301 -72.501 -6s-43.5 -9.16699 -71.5 -19.5s-50.5 -24.333 -67.5 -42s-31.667 -42.834 -44 -75.501s-18.5 -72.334 -18.5 -119.001c0 -27.333 3 -66.333 9 -117s9 -89.667 9 -117c0 -68 -8.5 -125.167 -25.5 -171.5
s-44.333 -82.5 -82 -108.5s-72.834 -44.833 -105.501 -56.5s-77.667 -23.5 -135 -35.5v-80c45.333 -9.33301 81.166 -18.166 107.499 -26.499s57 -21.333 92 -39s61.667 -38.834 80 -63.501s34.333 -57.5 48 -98.5s20.5 -89.5 20.5 -145.5c0 -27.333 -3 -66.166 -9 -116.499
s-9 -89.166 -9 -116.499c0 -46.667 6.5 -86.667 19.5 -120s27.667 -58.666 44 -75.999s38.833 -31 67.5 -41s52.167 -16.333 70.5 -19s42.5 -4.66699 72.5 -6v-27c-152.667 0 -261.834 23.5 -327.501 70.5s-98.5 140.167 -98.5 279.5c0 27.333 5.5 71 16.5 131
s16.5 104.333 16.5 133c0 100 -27 167.333 -81 202s-137 56.334 -249 65.001z" />
    <glyph glyph-name="bar" unicode="|" horiz-adv-x="577" 
d="M258 -424v1952h61v-1952h-61z" />
    <glyph glyph-name="braceright" unicode="}" horiz-adv-x="819" 
d="M43 -319c30 1.33301 54.165 3.33301 72.498 6s41.833 9 70.5 19s51.334 23.667 68.001 41s31.334 42.666 44.001 75.999s19 73.333 19 120c0 27.333 -3 66.166 -9 116.499s-9 89.166 -9 116.499c0 56 6.83301 104.5 20.5 145.5s29.667 73.833 48 98.5
s45 45.834 80 63.501s65.833 30.667 92.5 39s62.334 17.166 107.001 26.499v80c-45.333 9.33301 -81.166 18.166 -107.499 26.499s-57 21.333 -92 39s-61.667 38.834 -80 63.501s-34.333 57.5 -48 98.5s-20.5 89.167 -20.5 144.5c0 27.333 3 66.333 9 117s9 89.667 9 117
c0 46.667 -6 86.334 -18 119.001s-26.667 57.834 -44 75.501s-40 31.667 -68 42s-51.833 16.833 -71.5 19.5s-43.834 4.66699 -72.501 6v27c152.667 0 261.834 -23.667 327.501 -71s98.5 -140.333 98.5 -279c0 -27.333 -5.5 -71.166 -16.5 -131.499
s-16.5 -104.833 -16.5 -133.5c0 -100 26.667 -167 80 -201s136.666 -55.667 249.999 -65v-108c-112 -8 -195 -29.5 -249 -64.5s-81 -102.5 -81 -202.5c0 -28.667 5.5 -73 16.5 -133s16.5 -103.667 16.5 -131c0 -139.333 -32.833 -232.5 -98.5 -279.5
s-174.834 -70.5 -327.501 -70.5v27z" />
    <glyph glyph-name="asciitilde" unicode="~" horiz-adv-x="1044" 
d="M94 397c18 62.667 53.668 117.667 107.001 165s112 71 176 71c54.667 0 119.5 -15 194.5 -45s128.167 -45 159.5 -45c49.333 0 88.666 10.833 117.999 32.5s57 56.5 83 104.5l18 -6c-18 -65.333 -50.167 -122.333 -96.5 -171s-100.833 -73 -163.5 -73
c-60 0 -126.5 15 -199.5 45s-124.5 45 -154.5 45c-102.667 0 -177 -43 -223 -129z" />
    <glyph glyph-name="uni00A0" unicode="&#xa0;" horiz-adv-x="491" 
 />
    <glyph glyph-name="exclamdown" unicode="&#xa1;" horiz-adv-x="714" 
d="M246 1321c0 32.667 11.5 60.334 34.5 83.001s51 34 84 34s60.667 -11.333 83 -34s33.5 -50.334 33.5 -83.001s-11.167 -60.667 -33.5 -84s-50 -35 -83 -35s-61 11.667 -84 35s-34.5 51.333 -34.5 84zM256 111c0 15.333 13.335 132.833 40.002 352.5s44 398.167 52 535.5
h33c5.33301 -139.333 21.333 -319.5 48 -540.5s40 -336.833 40 -347.5c0 -34 -9.83301 -63.333 -29.5 -88s-45.334 -37 -77.001 -37s-57.334 12.333 -77.001 37s-29.5 54 -29.5 88z" />
    <glyph glyph-name="cent" unicode="&#xa2;" horiz-adv-x="925" 
d="M100 621c0 131.333 40.001 244.665 120.001 339.998s185 143 315 143c13.333 0 32.333 -1.33301 57 -4l63 272l27 -6l-64 -270c66.667 -13.333 118.5 -41.666 155.5 -84.999s55.5 -91.666 55.5 -144.999c0 -69.333 -30.667 -104 -92 -104c-22 0 -43.5 7.16699 -64.5 21.5
s-31.5 37.833 -31.5 70.5c0 34 4.16699 61.667 12.5 83s12.5 36 12.5 44c-8 39.333 -26.667 66 -56 80l-194 -823c42 -28.667 87.667 -43 137 -43c65.333 0 119.5 13.167 162.5 39.5s87.167 75.166 132.5 146.499l22 -14c-76.667 -155.333 -195.334 -233.333 -356.001 -234
c-37.333 0 -77 4.66699 -119 14l-90 -378l-24 6l90 381c-86 30 -152.667 86.333 -200 169s-71 181.334 -71 296.001zM258.001 636.999c0 -172 45 -299 135 -381l193 815c-16.667 4 -34.667 6 -54 6c-78 0 -143.167 -37.167 -195.5 -111.5s-78.5 -183.833 -78.5 -328.5z" />
    <glyph glyph-name="sterling" unicode="&#xa3;" horiz-adv-x="1101" 
d="M59 104c0 50.667 20.501 91.3379 61.501 122.005s101.167 47.334 180.5 50.001v396h-197v69h197c2.66699 75.333 8 143.666 16 204.999c24.667 170.667 70.167 293.167 136.5 367.5s158.166 111.5 275.499 111.5c56 0 104.5 -8.16699 145.5 -24.5
s71.667 -37.833 92 -64.5s35 -54.334 44 -83.001s13.5 -58.667 13.5 -90c0 -30 -8.83301 -57.333 -26.5 -82s-41.5 -37 -71.5 -37c-26 0 -49 8.33301 -69 25s-30 37 -30 61c0 23.333 4.16699 44.666 12.5 63.999s18.333 36.833 30 52.5s18.834 26.167 21.501 31.5
c-1.33301 26 -14.333 51.667 -39 77s-65.667 38 -123 38c-88.667 0 -150.667 -24.667 -186 -74c-49.333 -66.667 -74 -200.334 -74 -401.001c0 -30 -2.66699 -89 -8 -177h244v-69h-252c-15.333 -152.667 -39.333 -285.334 -72 -398.001
c64 -6.66699 148.333 -37.334 253 -92.001s193 -82 265 -82c61.333 0 112 12.333 152 37l18 -31c-92.667 -74 -194.334 -110.667 -305.001 -110c-53.333 0 -104.166 12.667 -152.499 38s-95.833 56 -142.5 92s-84.334 60.333 -113.001 73
c-53.333 -139.333 -115.333 -209 -186 -209c-74 0 -111 38 -111 114zM94.001 102.004c0 -24.667 6.83203 -44 20.499 -58s31.5 -21 53.5 -21c32.667 0 61.334 19.667 86.001 59s39.667 84.333 45 135c-2.66699 0 -7.16699 0.333008 -13.5 1s-10.833 1 -13.5 1
c-58.667 0 -103 -10.5 -133 -31.5s-45 -49.5 -45 -85.5z" />
    <glyph glyph-name="currency" unicode="&#xa4;" horiz-adv-x="1198" 
d="M53 496l0.00488281 26h150c0 8 -0.333008 21.333 -1 40s-1 32.667 -1 42c0 22 1.33301 53.333 4 94h-152v27h156c20.667 157.333 76.667 287.5 168 390.5s208 154.5 350 154.5c106.667 0 190.334 -24 251.001 -72s91 -104 91 -168c0 -42 -8.83301 -75.333 -26.5 -100
s-38.834 -37 -63.501 -37c-30 0 -52.833 9.16699 -68.5 27.5s-23.5 41.833 -23.5 70.5c0 20.667 6.83301 42.334 20.5 65.001s20.5 44 20.5 64c-5.33301 35.333 -27.5 63.333 -66.5 84s-86.5 31 -142.5 31c-98 0 -177.167 -45 -237.5 -135s-95.833 -215 -106.5 -375h481v-27
h-483c0 -9.33301 -0.333008 -23.5 -1 -42.5s-1 -33.333 -1 -43s0.333008 -24.667 1 -45s1 -35.5 1 -45.5h401v-26h-397c13.333 -135.333 49 -245.333 107 -330s139.667 -127 245 -127c83.333 0 150.666 23.167 201.999 69.5s96.666 111.833 135.999 196.5l23 -12
c-45.333 -102.667 -99.833 -182 -163.5 -238s-147.834 -84 -252.501 -84c-132.667 0 -240.334 45.167 -323.001 135.5s-131.334 220.166 -146.001 389.499h-2h-2h-2h-2h-2h-2h-3h-2h-2h-2h-2h-2h-2h-2h-2h-2h-4h-2h-2h-2h-2h-4h-2h-2h-5h-2h-2h-4h-2h-4h-2h-4h-2h-4h-2h-4
h-2h-4h-5h-2h-4h-4h-2h-4h-4h-2h-4h-4h-4h-17z" />
    <glyph glyph-name="yen" unicode="&#xa5;" horiz-adv-x="1138" 
d="M-59 1374v25.0039h557v-25c-117.333 -6.66699 -176 -29.667 -176 -69c0 -16.667 32.667 -96.334 98 -239.001s131.333 -275.334 198 -398.001c74 114.667 145.833 238.5 215.5 371.5s104.5 211.833 104.5 236.5c0 31.333 -16.667 54.166 -50 68.499
s-87 24.166 -161 29.499v25h492v-25c-26 0 -59.667 -8 -101 -24c-42 -15.333 -82.333 -50.333 -121 -105c-28.667 -39.333 -60 -90.833 -94 -154.5s-71.833 -137.5 -113.5 -221.5s-73.5 -146.333 -95.5 -187c-36.667 -68 -55 -137.667 -55 -209v-55h213v-70h-213v-348h-168
v348h-219v70h219v141c0 8 -15.667 50.333 -47 127c-23.333 46.667 -61.333 130.667 -114 252s-94.667 209.333 -126 264c-38 66.667 -79 113 -123 139c-31.333 19.333 -71.333 30.333 -120 33z" />
    <glyph glyph-name="brokenbar" unicode="&#xa6;" horiz-adv-x="577" 
d="M258 379h61v-803h-61v803zM258 743v785h61v-785h-61z" />
    <glyph glyph-name="section" unicode="&#xa7;" horiz-adv-x="1110" 
d="M145 694c0 76.667 26.667 137.501 80 182.501s115.666 72.167 186.999 81.5c-54.667 82 -82 165.333 -82 250c0 79.333 31.667 149.666 95 210.999s136 92 218 92c68 0 122.5 -22.833 163.5 -68.5s61.5 -90.834 61.5 -135.501c0 -44 -9.83301 -78.333 -29.5 -103
s-45.834 -37 -78.501 -37c-24.667 0 -45.834 8.33301 -63.501 25s-26.5 40.667 -26.5 72c0 28.667 14.333 51.834 43 69.501s43 33.167 43 46.5c0 65.333 -44.333 98.333 -133 99c-52 0 -96.167 -21.167 -132.5 -63.5s-54.5 -97.166 -54.5 -164.499
c0 -32.667 5.16699 -63 15.5 -91s21.666 -51.167 33.999 -69.5s34.833 -49.5 67.5 -93.5c30 -39.333 75 -92.833 135 -160.5s102.333 -115.834 127 -144.501c58.667 -69.333 100.334 -127 125.001 -173s37 -98.333 37 -157c0 -139.333 -90.667 -223 -272 -251
c60 -90 90 -180.333 90 -271c0 -79.333 -31.5 -150 -94.5 -212s-134.833 -93 -215.5 -93c-70.667 0 -128.167 23.167 -172.5 69.5s-66.5 92.166 -66.5 137.499c0 44 9.83301 78.167 29.5 102.5s45.834 36.5 78.501 36.5c24.667 0 45.834 -8.16699 63.501 -24.5
s26.5 -40.166 26.5 -71.499c0 -26 -8.83301 -47.833 -26.5 -65.5s-26.5 -34.834 -26.5 -51.501c0 -30 9.66699 -54.5 29 -73.5s46 -28.5 80 -28.5c58.667 0 103.334 22.167 134.001 66.5s46 104.166 46 179.499c0 46.667 -7.83301 86.667 -23.5 120s-44.834 78 -87.501 134
c-28.667 36.667 -71.667 85.667 -129 147s-103.666 113.333 -138.999 156c-56 66.667 -96 122.834 -120 168.501s-36 97.834 -36 156.501zM244 739.001c0 -54.667 33.334 -122.002 100.001 -202.002c35.333 -42 93.666 -108.5 174.999 -199.5s137 -157.833 167 -200.5
c60 15.333 105.667 36.5 137 63.5s47 65.833 47 116.5c0 58.667 -32 126.334 -96 203.001c-35.333 42 -94.333 111.167 -177 207.5s-139 164.5 -169 204.5c-122.667 -23.333 -184 -87.666 -184 -192.999z" />
    <glyph glyph-name="dieresis" unicode="&#xa8;" horiz-adv-x="1003" 
d="M180 1309c0 28.667 10.333 53.167 31 73.5s44.667 30.5 72 30.5c30 0 55.167 -9.5 75.5 -28.5s30.5 -41.5 30.5 -67.5c0 -30 -10.167 -55.667 -30.5 -77s-45.5 -32 -75.5 -32c-27.333 0 -51.333 10 -72 30s-31 43.667 -31 71zM614 1309c0 28.667 10 53.167 30 73.5
s44.333 30.5 73 30.5c30 0 54.833 -9.5 74.5 -28.5s29.5 -41.5 29.5 -67.5c0 -30 -9.83301 -55.667 -29.5 -77s-44.5 -32 -74.5 -32c-28.667 0 -53 10 -73 30s-30 43.667 -30 71z" />
    <glyph glyph-name="copyright" unicode="&#xa9;" horiz-adv-x="1902" 
d="M72 514c0 240 87.334 446.833 262.001 620.5s380.667 260.5 618 260.5c114.667 0 226 -23.667 334 -71s202 -110.166 282 -188.499s143.833 -171.833 191.5 -280.5s71.5 -222.334 71.5 -341.001c0 -241.333 -87.333 -449.166 -262 -623.499
s-380.334 -261.5 -617.001 -261.5c-237.333 0 -443.333 87.167 -618 261.5s-262 382.166 -262 623.499zM125.001 514c0 -150 37.833 -289.5 113.5 -418.5s177 -230.833 304 -305.5s263.5 -112 409.5 -112c222.667 0 416 82 580 246s246 360.667 246 590
c0 226.667 -82 422 -246 586s-357.333 246 -580 246c-224 0 -417.833 -81.667 -581.5 -245s-245.5 -359 -245.5 -587zM489.001 506c0 142 47.8311 260.501 143.498 355.501s215.834 142.5 360.501 142.5c36.667 0 79.334 -6.5 128.001 -19.5s85.334 -27.833 110.001 -44.5
l45 78h29l8 -371h-21c-15.333 44 -31 82.667 -47 116s-37 66.666 -63 99.999s-58.5 59 -97.5 77s-82.5 27 -130.5 27c-78 0 -145.833 -38.667 -203.5 -116s-86.5 -189 -86.5 -335c0 -124 33 -225.667 99 -305s147 -119 243 -119c134 0 240.333 80.667 319 242l23 -10
c-88.667 -198 -216.334 -297 -383.001 -297c-142 0 -256.833 43.333 -344.5 130s-131.5 203 -131.5 349z" />
    <glyph glyph-name="ordfeminine" unicode="&#xaa;" horiz-adv-x="671" 
d="M96 977c0 45.333 10.665 79.168 31.998 101.501s50.333 41.833 87 58.5c19.333 8 52.166 19.167 98.499 33.5s78.5 26.166 96.5 35.499v60c0 19.333 -2.16699 37.5 -6.5 54.5s-14.666 34 -30.999 51s-38.166 25.5 -65.499 25.5c-28.667 0 -52.334 -11.667 -71.001 -35
c0 -6.66699 1.66699 -20.334 5 -41.001s5 -35 5 -43c0 -36.667 -19.833 -55 -59.5 -55s-59.5 21.667 -59.5 65c0 35.333 19.833 66 59.5 92s81.834 39 126.501 39c64 0 113.833 -11.5 149.5 -34.5s53.5 -71.5 53.5 -145.5c0 -39.333 -1.33301 -91.166 -4 -155.499
s-4 -99.833 -4 -106.5c0 -8 1 -16.5 3 -25.5s7.83301 -18.667 17.5 -29s21.167 -15.5 34.5 -15.5c28.667 0 45 35 49 105h19c-8 -109.333 -48.333 -164 -121 -164c-46.667 0 -78.667 28 -96 84c-49.333 -57.333 -109.666 -86 -180.999 -86c-40.667 0 -73.667 12 -99 36
s-38 55.667 -38 95zM105.998 651.002v29h494v-29h-494zM208.998 997.002c0 -31.333 7.5 -56.5 22.5 -75.5s34.167 -28.5 57.5 -28.5c46.667 0 84.667 19 114 57l7 228c-64 -23.333 -113.5 -48.333 -148.5 -75s-52.5 -62 -52.5 -106z" />
    <glyph glyph-name="guillemotleft" unicode="&#xab;" horiz-adv-x="1087" 
d="M82 459c0 26 13.667 49.667 41 71c207.333 170.667 343 287 407 349l17 -15l-314 -409l314 -404l-17 -14l-403 346c-30 26 -45 51.333 -45 76zM510 459c0 26 13.667 49.667 41 71c207.333 170.667 343 287 407 349l17 -15l-313 -409l313 -404l-17 -14l-403 346
c-30 26 -45 51.333 -45 76z" />
    <glyph glyph-name="logicalnot" unicode="&#xac;" 
d="M76 526v58h919v-504h-65v446h-854z" />
    <glyph glyph-name="uni00AD" unicode="&#xad;" horiz-adv-x="772" 
d="M72 455v110h630v-110h-630z" />
    <glyph glyph-name="registered" unicode="&#xae;" horiz-adv-x="937" 
d="M102 1067c0 105.333 35.833 193.833 107.5 265.5s158.167 107.5 259.5 107.5s187.833 -35.833 259.5 -107.5s107.5 -160.167 107.5 -265.5s-35.833 -193.833 -107.5 -265.5s-158.167 -107.5 -259.5 -107.5s-187.833 35.833 -259.5 107.5s-107.5 160.167 -107.5 265.5z
M129 1067c0 -98 33.167 -180.833 99.5 -248.5s146.5 -101.5 240.5 -101.5s174.167 33.833 240.5 101.5s99.5 150.5 99.5 248.5s-33.167 180.833 -99.5 248.5s-146.5 101.5 -240.5 101.5s-174.167 -33.833 -240.5 -101.5s-99.5 -150.5 -99.5 -248.5zM285 872v15.001
c19.333 0 33 2 41 6c12 5.33301 18 15.666 18 30.999v317c0 16.667 -6 27 -18 31c-16.667 5.33301 -30.334 8 -41.001 8v12h209c34 0 64 -7.83301 90 -23.5s39 -39.167 39 -70.5c0 -46.667 -39.667 -80.667 -119 -102v-6c19.333 -2.66699 38.5 -9.83398 57.5 -21.501
s31.167 -27.834 36.5 -48.501c2.66699 -9.33301 6.66699 -25.666 12 -48.999s9.66602 -40.333 12.999 -51c5.33301 -18 15.333 -27 30 -27c22 0 33 19.667 33 59h8c0 -31.333 -4.66699 -53.5 -14 -66.5s-27.666 -19.5 -54.999 -19.5c-46.667 0 -74 35 -82 105
c-9.33301 72.667 -41.666 108.667 -96.999 108h-40v-155c0 -15.333 6 -25.666 18 -30.999c8 -4 21.667 -6 41 -6v-15h-180zM406 1096h38c71.333 0 107 30 107 90c0 61.333 -30 92 -90 92h-55v-182z" />
    <glyph glyph-name="macron" unicode="&#xaf;" horiz-adv-x="1003" 
d="M164 1233v100h676v-100h-676z" />
    <glyph glyph-name="degree" unicode="&#xb0;" horiz-adv-x="811" 
d="M109 1145c0 87.333 30 160.666 90 219.999s127.333 89 202 89c84.667 0 156 -26.167 214 -78.5s87 -128.5 87 -228.5c0 -82 -30.333 -152.333 -91 -211s-130.667 -88 -210 -88c-83.333 0 -152.833 26.333 -208.5 79s-83.5 125.334 -83.5 218.001zM217 1153
c0 -78 16.335 -142.5 49.002 -193.5s80 -76.5 142 -76.5c52 0 95.667 24.833 131 74.5s53 111.5 53 185.5c0 82 -16.333 148.5 -49 199.5s-79.334 76.5 -140.001 76.5c-58.667 0 -104.334 -25.5 -137.001 -76.5s-49 -114.167 -49 -189.5z" />
    <glyph glyph-name="plusminus" unicode="&#xb1;" horiz-adv-x="1714" 
d="M-2 866l-0.000976562 53.998h211v53c0 168 49 304.333 147 409c82 88.667 181.667 133.334 299 134.001c128.667 0 214 -45.333 256 -136c4 5.33301 12.333 15.666 25 30.999c74 79.333 174.333 119 301 119c60 0 116 -13 168 -39l111 37l14 -15v-1374
c0 -48 18.333 -80 55 -96c28.667 -13.333 58.667 -21 90 -23v-20h-434v20c44 2.66699 74 7 90 13c36.667 12 55 43.333 55 94v1268c-20.667 26 -48 48.833 -82 68.5s-68.667 29.5 -104 29.5c-83.333 0 -145.5 -33.5 -186.5 -100.5s-64.167 -179.5 -69.5 -337.5
c-1.33301 -20.667 -2 -65.667 -2 -135h256v-54h-256v-725c0 -49.333 17.667 -80.666 53 -93.999c30 -12 73.667 -19.333 131 -22v-25h-473v25c44 2.66699 74 6.66699 90 12c36.667 12 55.334 43.333 56.001 94v735h-447v-725c0 -49.333 18 -80.666 54 -93.999
c30 -12 73.667 -19.333 131 -22v-25h-474v25c44 2.66699 74.333 6.66699 91 12c36.667 12 55 43.333 55 94v735h-211zM351.999 919.998l447 -0.000976562v67c-0.666992 86 8.66602 160.333 27.999 223c-56 2.66699 -84 28.667 -84 78c0 20.667 2.83301 37.834 8.5 51.501
s12.5 24.5 20.5 32.5s12.667 15 14 21c-15.333 57.333 -63.666 86 -144.999 86c-75.333 0 -141 -35.5 -197 -106.5s-86.667 -181.833 -92 -332.5v-120z" />
    <glyph glyph-name="uni00B2" unicode="&#xb2;" horiz-adv-x="1234" 
d="M63 792.5c0 42.333 15.165 79.1621 45.498 110.495s67.166 47 110.499 47c62.667 0 108.334 -28.667 137.001 -86c5.33301 -9.33301 11.5 -25.666 18.5 -48.999s15 -44.833 24 -64.5s20.833 -37.167 35.5 -52.5l31 2c38 40.667 85 61.334 141 62.001l23 14
c0 38 -11.667 80 -35 126s-35 82 -35 108c0 44 15 79.833 45 107.5s66.833 41.5 110.5 41.5s79.834 -15.333 108.501 -46s43 -67 43 -109c0 -30 -6.83301 -55.667 -20.5 -77s-29 -37.166 -46 -47.499s-36.667 -25.666 -59 -45.999s-40.5 -42.833 -54.5 -67.5l8 -25
c52 -27.333 85 -66.666 99 -117.999l24 -13c31.333 10.667 68.5 37.334 111.5 80.001s86.5 64 130.5 64c40.667 0 75.667 -15.333 105 -46s44 -68 44 -112c0 -42 -14.667 -77.833 -44 -107.5s-65.666 -44.5 -108.999 -44.5c-32.667 0 -71.334 15.833 -116.001 47.5
s-85.334 50.167 -122.001 55.5l-18 -17c-8 -48 -34.667 -88.667 -80 -122l-2 -21c24.667 -31.333 60.667 -58 108 -80c75.333 -35.333 113 -87 113 -155c0 -40.667 -15.667 -76.834 -47 -108.501s-69 -47.5 -113 -47.5c-42 0 -78 14.667 -108 44s-45 66 -45 110
c0 19.333 6.16699 48.666 18.5 87.999s18.5 74 18.5 104v23l-15 10c-9.33301 -1.33301 -23 -2 -41 -2c-40.667 0 -78.667 12.333 -114 37l-27 -2c-20.667 -30 -35 -71.667 -43 -125c-19.333 -113.333 -72.666 -170 -159.999 -170c-42 0 -78.833 15.333 -110.5 46
s-47.5 67.834 -47.5 111.501s16.5 80.167 49.5 109.5s73.167 44 120.5 44c66.667 0 117.334 9 152.001 27l6 28c-13.333 30 -20 59.333 -20 88c0 18 2 35 6 51l-10 27c-12 4 -30.667 6 -56 6c-20.667 0 -44.5 -2.33301 -71.5 -7s-46.833 -7 -59.5 -7
c-45.333 0 -83 15.333 -113 46s-45 67.167 -45 109.5zM468.998 569.496c0 -39.667 13.333 -73.499 40 -101.499s59 -42 97 -42c39.333 0 72 13.667 98 41s39 61.333 39 102c0 39.333 -12.833 72.5 -38.5 99.5s-58.5 40.5 -98.5 40.5c-38 0 -70.333 -13.333 -97 -40
s-40 -59.834 -40 -99.501z" />
    <glyph glyph-name="uni00B3" unicode="&#xb3;" horiz-adv-x="1234" 
d="M63 792.5c0 42.333 15.165 79.1621 45.498 110.495s67.166 47 110.499 47c62.667 0 108.334 -28.667 137.001 -86c5.33301 -9.33301 11.5 -25.666 18.5 -48.999s15 -44.833 24 -64.5s20.833 -37.167 35.5 -52.5l31 2c38 40.667 85 61.334 141 62.001l23 14
c0 38 -11.667 80 -35 126s-35 82 -35 108c0 44 15 79.833 45 107.5s66.833 41.5 110.5 41.5s79.834 -15.333 108.501 -46s43 -67 43 -109c0 -30 -6.83301 -55.667 -20.5 -77s-29 -37.166 -46 -47.499s-36.667 -25.666 -59 -45.999s-40.5 -42.833 -54.5 -67.5l8 -25
c52 -27.333 85 -66.666 99 -117.999l24 -13c31.333 10.667 68.5 37.334 111.5 80.001s86.5 64 130.5 64c40.667 0 75.667 -15.333 105 -46s44 -68 44 -112c0 -42 -14.667 -77.833 -44 -107.5s-65.666 -44.5 -108.999 -44.5c-32.667 0 -71.334 15.833 -116.001 47.5
s-85.334 50.167 -122.001 55.5l-18 -17c-8 -48 -34.667 -88.667 -80 -122l-2 -21c24.667 -31.333 60.667 -58 108 -80c75.333 -35.333 113 -87 113 -155c0 -40.667 -15.667 -76.834 -47 -108.501s-69 -47.5 -113 -47.5c-42 0 -78 14.667 -108 44s-45 66 -45 110
c0 19.333 6.16699 48.666 18.5 87.999s18.5 74 18.5 104v23l-15 10c-9.33301 -1.33301 -23 -2 -41 -2c-40.667 0 -78.667 12.333 -114 37l-27 -2c-20.667 -30 -35 -71.667 -43 -125c-19.333 -113.333 -72.666 -170 -159.999 -170c-42 0 -78.833 15.333 -110.5 46
s-47.5 67.834 -47.5 111.501s16.5 80.167 49.5 109.5s73.167 44 120.5 44c66.667 0 117.334 9 152.001 27l6 28c-13.333 30 -20 59.333 -20 88c0 18 2 35 6 51l-10 27c-12 4 -30.667 6 -56 6c-20.667 0 -44.5 -2.33301 -71.5 -7s-46.833 -7 -59.5 -7
c-45.333 0 -83 15.333 -113 46s-45 67.167 -45 109.5zM468.998 569.496c0 -39.667 13.333 -73.499 40 -101.499s59 -42 97 -42c39.333 0 72 13.667 98 41s39 61.333 39 102c0 39.333 -12.833 72.5 -38.5 99.5s-58.5 40.5 -98.5 40.5c-38 0 -70.333 -13.333 -97 -40
s-40 -59.834 -40 -99.501z" />
    <glyph glyph-name="acute" unicode="&#xb4;" horiz-adv-x="1003" 
d="M319 1098c86 124 153.667 227.668 203 311.001c34 58.667 74.333 88 121 88c22 0 39.5 -7.16699 52.5 -21.5s19.5 -31.833 19.5 -52.5c0 -23.333 -5.16699 -41.333 -15.5 -54s-30.5 -31.334 -60.5 -56.001l-299 -234z" />
    <glyph glyph-name="uni00B5" unicode="&#xb5;" horiz-adv-x="1112" 
d="M121 -362c0 20.667 2.33496 49.6699 7.00195 87.0029s10.834 77.166 18.501 119.499s12.167 70.166 13.5 83.499c6.66699 54.667 10 121.667 10 201v797h143v-643c0 -66.667 20.167 -121.334 60.5 -164.001s89.166 -64 146.499 -64c122.667 0 206 36.333 250 109v762h143
v-731c0 -24.667 10.333 -48.667 31 -72s48.667 -35 84 -35c60 0 94 52 102 156h19c-5.33301 -95.333 -22.333 -162.833 -51 -202.5s-75.334 -59.5 -140.001 -59.5c-90 0 -150.667 48.333 -182 145h-6c-80.667 -98 -184.334 -147 -311.001 -147c-42 0 -86.667 11.5 -134 34.5
s-82.666 52.167 -105.999 87.5h-4v-116c0 -45.333 11.667 -105.833 35 -181.5s35 -129.167 35 -160.5c0 -32.667 -9.33301 -58.667 -28 -78s-39.334 -29 -62.001 -29c-20.667 0 -38.167 9.5 -52.5 28.5s-21.5 43.167 -21.5 72.5z" />
    <glyph glyph-name="paragraph" unicode="&#xb6;" horiz-adv-x="1210" 
d="M111 1049c0 39.333 6.83301 78.5 20.5 117.5s34.5 76.5 62.5 112.5s67.5 65 118.5 87s110.833 33 179.5 33h706v-29h-291v-1626h-28v1626h-226v-1626h-28v973h-62c-166.667 0 -283.667 31.667 -351 95s-101 142.333 -101 237z" />
    <glyph glyph-name="periodcentered" unicode="&#xb7;" horiz-adv-x="446" 
d="M109 557c0 32.667 11.167 60.667 33.5 84s49.833 35 82.5 35s60.667 -11.667 84 -35s35 -51.333 35 -84s-11.667 -60.334 -35 -83.001s-51.333 -34 -84 -34s-60.167 11.333 -82.5 34s-33.5 50.334 -33.5 83.001z" />
    <glyph glyph-name="cedilla" unicode="&#xb8;" horiz-adv-x="1003" 
d="M360 -428h50l49 2l45 4l43 6l39 15l28 20l17 29l8 41c0 57.333 -58 86 -174 86v241h45v-135c69.333 0 129.333 -11.833 180 -35.5s76 -63.5 76 -119.5c0 -39.333 -10.667 -72.833 -32 -100.5s-52.333 -47.667 -93 -60s-82.5 -20.833 -125.5 -25.5s-94.833 -7 -155.5 -7
v39z" />
    <glyph glyph-name="uni00B9" unicode="&#xb9;" horiz-adv-x="1234" 
d="M63 792.5c0 42.333 15.165 79.1621 45.498 110.495s67.166 47 110.499 47c62.667 0 108.334 -28.667 137.001 -86c5.33301 -9.33301 11.5 -25.666 18.5 -48.999s15 -44.833 24 -64.5s20.833 -37.167 35.5 -52.5l31 2c38 40.667 85 61.334 141 62.001l23 14
c0 38 -11.667 80 -35 126s-35 82 -35 108c0 44 15 79.833 45 107.5s66.833 41.5 110.5 41.5s79.834 -15.333 108.501 -46s43 -67 43 -109c0 -30 -6.83301 -55.667 -20.5 -77s-29 -37.166 -46 -47.499s-36.667 -25.666 -59 -45.999s-40.5 -42.833 -54.5 -67.5l8 -25
c52 -27.333 85 -66.666 99 -117.999l24 -13c31.333 10.667 68.5 37.334 111.5 80.001s86.5 64 130.5 64c40.667 0 75.667 -15.333 105 -46s44 -68 44 -112c0 -42 -14.667 -77.833 -44 -107.5s-65.666 -44.5 -108.999 -44.5c-32.667 0 -71.334 15.833 -116.001 47.5
s-85.334 50.167 -122.001 55.5l-18 -17c-8 -48 -34.667 -88.667 -80 -122l-2 -21c24.667 -31.333 60.667 -58 108 -80c75.333 -35.333 113 -87 113 -155c0 -40.667 -15.667 -76.834 -47 -108.501s-69 -47.5 -113 -47.5c-42 0 -78 14.667 -108 44s-45 66 -45 110
c0 19.333 6.16699 48.666 18.5 87.999s18.5 74 18.5 104v23l-15 10c-9.33301 -1.33301 -23 -2 -41 -2c-40.667 0 -78.667 12.333 -114 37l-27 -2c-20.667 -30 -35 -71.667 -43 -125c-19.333 -113.333 -72.666 -170 -159.999 -170c-42 0 -78.833 15.333 -110.5 46
s-47.5 67.834 -47.5 111.501s16.5 80.167 49.5 109.5s73.167 44 120.5 44c66.667 0 117.334 9 152.001 27l6 28c-13.333 30 -20 59.333 -20 88c0 18 2 35 6 51l-10 27c-12 4 -30.667 6 -56 6c-20.667 0 -44.5 -2.33301 -71.5 -7s-46.833 -7 -59.5 -7
c-45.333 0 -83 15.333 -113 46s-45 67.167 -45 109.5zM468.998 569.496c0 -39.667 13.333 -73.499 40 -101.499s59 -42 97 -42c39.333 0 72 13.667 98 41s39 61.333 39 102c0 39.333 -12.833 72.5 -38.5 99.5s-58.5 40.5 -98.5 40.5c-38 0 -70.333 -13.333 -97 -40
s-40 -59.834 -40 -99.501z" />
    <glyph glyph-name="ordmasculine" unicode="&#xba;" horiz-adv-x="712" 
d="M86 1126c0 86 25.999 156.332 77.999 210.999s116.833 82 194.5 82s141.834 -26.833 192.501 -80.5s76 -121.5 76 -203.5c0 -83.333 -25.667 -153.666 -77 -210.999s-117.333 -86 -198 -86c-70.667 0 -132.667 26.5 -186 79.5s-80 122.5 -80 208.5zM108.999 650.999v29
h493v-29h-493zM204.999 1135c0 -74 12.6689 -136.999 38.002 -188.999s63.666 -78 114.999 -78c50.667 0 88 25.333 112 76s36 113.667 36 189c0 69.333 -11.667 129.666 -35 180.999s-61 77 -113 77c-54.667 0 -93.834 -26 -117.501 -78s-35.5 -111.333 -35.5 -178z" />
    <glyph glyph-name="guillemotright" unicode="&#xbb;" horiz-adv-x="1087" 
d="M113 51l313 403.999l-313 409l16 15c64 -61.333 200 -177.666 408 -348.999c27.333 -22 41 -45.667 41 -71c0 -24.667 -15.333 -50 -46 -76l-403 -346zM541 50.999l313 403.999l-313 409l16 15c64 -61.333 200 -177.666 408 -348.999c27.333 -22 41 -45.667 41 -71
c0 -24.667 -15 -50 -45 -76l-404 -346z" />
    <glyph glyph-name="onequarter" unicode="&#xbc;" horiz-adv-x="1169" 
d="M115 508v43h952v-43h-952zM207 -131l450.001 508h52v-506c83.333 0 133.666 6 150.999 18c27.333 20.667 41 54.334 41 101.001h19v-301h-17c-2.66699 52 -17.667 88.667 -45 110c-6.66699 5.33301 -16.167 9.16602 -28.5 11.499s-28.166 3.5 -47.499 3.5h-73v-172
c0 -32.667 13.667 -54 41 -64c23.333 -9.33301 57.333 -15.333 102 -18v-25h-418v25c57.333 4 91.666 8 102.999 12c28.667 8 43 28.333 43 61v181h-373v55zM250.001 -129h330v371zM379.001 694v24.999c69.333 4 108.333 7.33301 117 10c28.667 10.667 43 29.667 43 57v627
h-160v25c136.667 6.66699 226 33.334 268 80.001h27v-725c0 -28.667 11.667 -48 35 -58c18 -8 52 -13.333 102 -16v-25h-432z" />
    <glyph glyph-name="onehalf" unicode="&#xbd;" horiz-adv-x="1140" 
d="M111 508v43h952v-43h-952zM319 -389c100 94 181.333 170.334 244 229.001s107.667 111.667 135 159s39.666 98.333 36.999 153c-4 58.667 -20.667 102.667 -50 132s-66 46 -110 50c-44 2.66699 -81.167 -7.33301 -111.5 -30s-43.5 -48.334 -39.5 -77.001
c1.33301 -2.66699 7.83301 -11.5 19.5 -26.5s18.834 -29.833 21.501 -44.5c8 -46.667 -10.333 -74 -55 -82c-20.667 -4 -38.167 1.16699 -52.5 15.5s-23.5 30.833 -27.5 49.5c-9.33301 50.667 11.167 101 61.5 151s117.833 75 202.5 75c72.667 0 135.5 -23.333 188.5 -70
s79.5 -102 79.5 -166c0 -49.333 -17.667 -97.5 -53 -144.5s-75.5 -85.833 -120.5 -116.5s-97.667 -67.167 -158 -109.5s-105.5 -77.833 -135.5 -106.5l-30 -35h376c28.667 0 51.667 11 69 33s38 60 62 114l25 -6l-70 -223h-508v76zM375 694.001v24.999
c69.333 4 108.333 7.33301 117 10c28.667 10.667 43 29.667 43 57v627h-160v25c136.667 6.66699 226 33.334 268 80.001h27v-725c0 -28.667 11.667 -48 35 -58c18 -8 52 -13.333 102 -16v-25h-432z" />
    <glyph glyph-name="threequarters" unicode="&#xbe;" horiz-adv-x="1169" 
d="M115 508v43h952v-43h-952zM207 -131l450.001 508h52v-506c83.333 0 133.666 6 150.999 18c27.333 20.667 41 54.334 41 101.001h19v-301h-17c-2.66699 52 -17.667 88.667 -45 110c-6.66699 5.33301 -16.167 9.16602 -28.5 11.499s-28.166 3.5 -47.499 3.5h-73v-172
c0 -32.667 13.667 -54 41 -64c23.333 -9.33301 57.333 -15.333 102 -18v-25h-418v25c57.333 4 91.666 8 102.999 12c28.667 8 43 28.333 43 61v181h-373v55zM250.001 -129h330v371zM336.001 874c0 32.667 7.83301 59.665 23.5 80.998s35.834 32 60.501 32
c20.667 0 37 -5.5 49 -16.5s18 -25.167 18 -42.5c0 -22 -12.167 -38.833 -36.5 -50.5s-36.5 -27.167 -36.5 -46.5c0 -34 15 -62.167 45 -84.5s71 -33.5 123 -33.5c66.667 0 118.5 23.833 155.5 71.5s55.5 104.167 55.5 169.5c0 49.333 -13.667 89.333 -41 120
s-64.333 46 -111 46c-28.667 0 -58.667 -7.33301 -90 -22l-10 35c140.667 45.333 211 119.666 211 222.999c0 39.333 -12.667 73 -38 101s-62.666 42 -111.999 42c-38 0 -73.5 -8.5 -106.5 -25.5s-49.5 -32.5 -49.5 -46.5c1.33301 -2.66699 6.16602 -9.66699 14.499 -21
s15.166 -23.166 20.499 -35.499s8 -26.166 8 -41.499c0 -16.667 -6.33301 -30.667 -19 -42s-28 -17 -46 -17c-20.667 0 -37.5 8.16699 -50.5 24.5s-19.5 34.833 -19.5 55.5c0 42 26 82.167 78 120.5s115 57.5 189 57.5c75.333 0 135.333 -16.333 180 -49
s67 -74.334 67 -125.001c0 -42 -13.667 -77.833 -41 -107.5s-55.666 -48.5 -84.999 -56.5s-53.333 -16.333 -72 -25l-21 -18c70.667 -1.33301 132 -18.333 184 -51s78 -86.667 78 -162c0 -69.333 -32.167 -128.666 -96.5 -177.999s-144.833 -74 -241.5 -74
c-66.667 0 -122.834 19.833 -168.501 59.5s-68.5 83.834 -68.5 132.501z" />
    <glyph glyph-name="questiondown" unicode="&#xbf;" horiz-adv-x="917" 
d="M104 360c0 56 11.0029 106.67 33.0029 152.003s49.667 81.166 83 107.499s69.166 53.5 107.499 81.5s74.166 53.667 107.499 77s61 54.166 83 92.499s33 80.5 33 126.5l-4 52h35l8 -41c4 -28.667 6 -64.334 6 -107.001c0 -52 -11.333 -98.833 -34 -140.5
s-50.334 -76.834 -83.001 -105.501l-98 -90l-82 -104l-35 -137c0 -105.333 24 -183 72 -233s111.333 -75 190 -75c68 0 112.333 13 133 39c-10.667 65.333 -12 115.333 -4 150c15.333 40.667 46.333 61 93 61c26 0 46 -8.83301 60 -26.5s21 -40.167 21 -67.5
c0 -49.333 -26.5 -92.666 -79.5 -129.999s-127.5 -56 -223.5 -56c-142 0 -247.833 34.333 -317.5 103s-104.5 159 -104.5 271zM455.003 1315c0 32.667 11.5 60.334 34.5 83.001s51 34 84 34s61 -11.333 84 -34s34.5 -50.334 34.5 -83.001s-11.5 -60.667 -34.5 -84
s-51 -35 -84 -35s-61 11.667 -84 35s-34.5 51.333 -34.5 84z" />
    <glyph glyph-name="Agrave" unicode="&#xc0;" horiz-adv-x="1359" 
d="M-63 0l0.000976562 24.9971c53.333 2.66699 99.666 15.334 138.999 38.001c57.333 32.667 101 86 131 160l481 1198h29l493 -1259c19.333 -46.667 47.333 -81 84 -103c34 -20.667 77 -32 129 -34v-25h-594v25c49.333 2.66699 97.5 10.5 144.5 23.5s70.5 30.833 70.5 53.5
c0 20.667 -2.66699 37.334 -8 50.001l-143 360h-516c-49.333 -122.667 -81.333 -210 -96 -262c-16.667 -53.333 -25 -91.666 -25 -114.999c0 -32.667 26.333 -58.5 79 -77.5s107.667 -29.833 165 -32.5v-25h-563zM393.001 554.997h484l-242 616zM485.001 1837
c0 20.667 6.5 38.166 19.5 52.499s30.5 21.5 52.5 21.5c46.667 0 87 -29.333 121 -88c49.333 -83.333 117 -187.333 203 -312l-21 -18l-299 233c-22 18 -36.667 30.5 -44 37.5s-14.5 16.833 -21.5 29.5s-10.5 27.334 -10.5 44.001z" />
    <glyph glyph-name="Aacute" unicode="&#xc1;" horiz-adv-x="1359" 
d="M-63 0l0.000976562 24.9971c53.333 2.66699 99.666 15.334 138.999 38.001c57.333 32.667 101 86 131 160l481 1198h29l493 -1259c19.333 -46.667 47.333 -81 84 -103c34 -20.667 77 -32 129 -34v-25h-594v25c49.333 2.66699 97.5 10.5 144.5 23.5s70.5 30.833 70.5 53.5
c0 20.667 -2.66699 37.334 -8 50.001l-143 360h-516c-49.333 -122.667 -81.333 -210 -96 -262c-16.667 -53.333 -25 -91.666 -25 -114.999c0 -32.667 26.333 -58.5 79 -77.5s107.667 -29.833 165 -32.5v-25h-563zM393.001 554.997h484l-242 616zM518.001 1511
c86 124 153.667 228 203 312c34 58.667 74.333 88 121 88c22 0 39.333 -7.16699 52 -21.5s19 -31.833 19 -52.5c0 -23.333 -5 -41.5 -15 -54.5s-30 -31.833 -60 -56.5l-299 -233z" />
    <glyph glyph-name="Acircumflex" unicode="&#xc2;" horiz-adv-x="1359" 
d="M-63 0l0.000976562 24.9971c53.333 2.66699 99.666 15.334 138.999 38.001c57.333 32.667 101 86 131 160l481 1198h29l493 -1259c19.333 -46.667 47.333 -81 84 -103c34 -20.667 77 -32 129 -34v-25h-594v25c49.333 2.66699 97.5 10.5 144.5 23.5s70.5 30.833 70.5 53.5
c0 20.667 -2.66699 37.334 -8 50.001l-143 360h-516c-49.333 -122.667 -81.333 -210 -96 -262c-16.667 -53.333 -25 -91.666 -25 -114.999c0 -32.667 26.333 -58.5 79 -77.5s107.667 -29.833 165 -32.5v-25h-563zM389.001 1511c31.333 46.667 62 93.501 92 140.501
s57.667 91 83 132s43.333 69.833 54 86.5c13.333 19.333 25 31.666 35 36.999s26.333 8 49 8c22 0 38.167 -2.83301 48.5 -8.5s20.833 -16.5 31.5 -32.5c13.333 -19.333 44.833 -70 94.5 -152s94.167 -152.333 133.5 -211l-21 -18l-287 285l-292 -285zM393.001 554.998h484
l-242 616z" />
    <glyph glyph-name="Atilde" unicode="&#xc3;" horiz-adv-x="1359" 
d="M-63 0l0.000976562 24.9971c53.333 2.66699 99.666 15.334 138.999 38.001c57.333 32.667 101 86 131 160l481 1198h29l493 -1259c19.333 -46.667 47.333 -81 84 -103c34 -20.667 77 -32 129 -34v-25h-594v25c49.333 2.66699 97.5 10.5 144.5 23.5s70.5 30.833 70.5 53.5
c0 20.667 -2.66699 37.334 -8 50.001l-143 360h-516c-49.333 -122.667 -81.333 -210 -96 -262c-16.667 -53.333 -25 -91.666 -25 -114.999c0 -32.667 26.333 -58.5 79 -77.5s107.667 -29.833 165 -32.5v-25h-563zM319.001 1559c22 64 53.835 120.167 95.502 168.5
s91.834 72.5 150.501 72.5c56 0 113 -18.333 171 -55s101.333 -55 130 -55c30 0 55 2.66699 75 8s37.5 16.833 52.5 34.5s25.167 31.667 30.5 42s15.666 30.5 30.999 60.5l22 -8c-18 -65.333 -48.333 -122 -91 -170s-96.334 -72 -161.001 -72c-48 0 -90.333 9.5 -127 28.5
s-69.334 37.833 -98.001 56.5s-57.334 28 -86.001 28c-27.333 0 -51.5 -7.16699 -72.5 -21.5s-36.667 -29.333 -47 -45s-27.166 -43.5 -50.499 -83.5zM393.003 554.997h484l-242 616z" />
    <glyph glyph-name="Adieresis" unicode="&#xc4;" horiz-adv-x="1359" 
d="M-63 0l0.000976562 24.9971c53.333 2.66699 99.666 15.334 138.999 38.001c57.333 32.667 101 86 131 160l481 1198h29l493 -1259c19.333 -46.667 47.333 -81 84 -103c34 -20.667 77 -32 129 -34v-25h-594v25c49.333 2.66699 97.5 10.5 144.5 23.5s70.5 30.833 70.5 53.5
c0 20.667 -2.66699 37.334 -8 50.001l-143 360h-516c-49.333 -122.667 -81.333 -210 -96 -262c-16.667 -53.333 -25 -91.666 -25 -114.999c0 -32.667 26.333 -58.5 79 -77.5s107.667 -29.833 165 -32.5v-25h-563zM379.001 1681c0 28.667 10.167 53.333 30.5 74
s44.166 31 71.499 31c30 0 55.333 -9.5 76 -28.5s31 -41.5 31 -67.5c0 -30 -10.333 -55.667 -31 -77s-46 -32 -76 -32c-27.333 0 -51.166 9.83301 -71.499 29.5s-30.5 43.167 -30.5 70.5zM393.001 554.996h484l-242 616zM813.001 1681c0 28.667 9.83398 53.333 29.501 74
s43.834 31 72.501 31c30 0 55 -9.5 75 -28.5s30 -41.5 30 -67.5c0 -30 -9.83301 -55.667 -29.5 -77s-44.834 -32 -75.501 -32c-28.667 0 -52.834 9.83301 -72.501 29.5s-29.5 43.167 -29.5 70.5z" />
    <glyph glyph-name="Aring" unicode="&#xc5;" horiz-adv-x="1359" 
d="M-63 0l0.000976562 24.9971c53.333 2.66699 99.666 15.334 138.999 38.001c57.333 32.667 101 86 131 160l481 1198h29l493 -1259c19.333 -46.667 47.333 -81 84 -103c34 -20.667 77 -32 129 -34v-25h-594v25c49.333 2.66699 97.5 10.5 144.5 23.5s70.5 30.833 70.5 53.5
c0 20.667 -2.66699 37.334 -8 50.001l-143 360h-516c-49.333 -122.667 -81.333 -210 -96 -262c-16.667 -53.333 -25 -91.666 -25 -114.999c0 -32.667 26.333 -58.5 79 -77.5s107.667 -29.833 165 -32.5v-25h-563zM393.001 554.997h484l-242 616zM477.001 1702
c0 58.667 21.167 106.834 63.5 144.501s95.5 56.5 159.5 56.5c66.667 0 120.667 -18.5 162 -55.5s62 -85.5 62 -145.5s-20.167 -108.5 -60.5 -145.5s-94.833 -55.5 -163.5 -55.5c-69.333 0 -123.833 18.167 -163.5 54.5s-59.5 85.166 -59.5 146.499zM571.001 1702
c0 -49.333 10.668 -90 32.001 -122s53.666 -48 96.999 -48c86 0 129 56.667 129 170c0 49.333 -10.5 90 -31.5 122s-53.5 48 -97.5 48c-42 0 -74 -15.667 -96 -47s-33 -72.333 -33 -123z" />
    <glyph glyph-name="AE" unicode="&#xc6;" horiz-adv-x="1949" 
d="M-63 0l0.000976562 24.998c53.333 2.66699 99.666 15.334 138.999 38.001c46.667 26 94.334 79.333 143.001 160c147.333 237.333 361 609.333 641 1116c-58.667 19.333 -120 31 -184 35v25h1126v-309h-35c-12 50.667 -38.833 106 -80.5 166s-82.167 92.667 -121.5 98
c-44 5.33301 -100.667 8 -170 8h-283v-614h199c35.333 0 66 4.66699 92 14s41.667 16 47 20l31 33c27.333 27.333 46.333 89.333 57 186h35v-563h-35c-2.66699 31.333 -9.83398 68.833 -21.501 112.5s-23.5 71.834 -35.5 84.501c-13.333 13.333 -24.166 23.833 -32.499 31.5
s-24.833 15.5 -49.5 23.5s-54 12 -88 12h-199v-473c0 -82 14.667 -133.5 44 -154.5s96.666 -31.5 201.999 -31.5c35.333 -1.33301 72.5 -1.66602 111.5 -0.999023s74.833 2 107.5 4s62 6.5 88 13.5s45 16.5 57 28.5c27.333 28.667 57.5 75.167 90.5 139.5
s56.167 116.166 69.5 155.499h31l-27 -383h-1165v25c82 4 136 11.333 162 22c42 16.667 63 50 63 100v422h-467c-102.667 -181.333 -162 -287.666 -178 -318.999c-26 -52 -39 -92.333 -39 -121c0 -27.333 25 -50.833 75 -70.5s102.333 -30.834 157 -33.501v-25h-557z
M504.001 613.998h442v725h-35z" />
    <glyph glyph-name="Ccedilla" unicode="&#xc7;" horiz-adv-x="1267" 
d="M70 682c0 206 67.501 380.667 202.501 524s302.167 215 501.5 215c54.667 0 112.334 -10.833 173.001 -32.5s113.667 -52.5 159 -92.5l63 125h39l9 -503h-27c-18 58.667 -40.667 112.834 -68 162.501s-61 97 -101 142s-89.167 80.5 -147.5 106.5s-122.166 39 -191.499 39
c-110.667 0 -208.334 -56.333 -293.001 -169s-127 -282.334 -127 -509.001c0 -194 49.5 -350.333 148.5 -469s221.5 -178 367.5 -178c217.333 0 367.666 111.333 450.999 334l41 -23c-109.333 -256.667 -290.333 -385 -543 -385c-200.667 0 -360.334 64.833 -479.001 194.5
s-178 302.5 -178 518.5zM492.001 -428h49l49 2l45 4l43 6l39 15l28 20l17 29l8 41c0 57.333 -58 86 -174 86v241h45v-135c69.333 0 129.333 -11.833 180 -35.5s76 -63.5 76 -119.5c0 -39.333 -10.5 -72.833 -31.5 -100.5s-52 -47.667 -93 -60s-83 -20.833 -126 -25.5
s-94.5 -7 -154.5 -7v39z" />
    <glyph glyph-name="Egrave" unicode="&#xc8;" horiz-adv-x="1306" 
d="M78 0l0.000976562 24.998c82 4 136 11.333 162 22c42 16.667 63 50 63 100v1092c0 50.667 -21 84 -63 100c-48 20.667 -102 32.334 -162 35.001v25h1081v-309h-35c-12 50.667 -38.833 106 -80.5 166s-82.167 92.667 -121.5 98c-44 5.33301 -100.667 8 -170 8h-283v-614
h199c35.333 0 66 4.66699 92 14s41.667 16 47 20l31 33c27.333 27.333 46.333 89.333 57 186h35v-563h-35c-2.66699 31.333 -9.83398 68.833 -21.501 112.5s-23.5 71.834 -35.5 84.501c-13.333 13.333 -24.166 23.833 -32.499 31.5s-24.833 15.5 -49.5 23.5s-54 12 -88 12
h-199v-473c0 -82 14.667 -133.5 44 -154.5s96.666 -31.5 201.999 -31.5c35.333 -1.33301 72.5 -1.66602 111.5 -0.999023s74.833 2 107.5 4s62 6.5 88 13.5s45 16.5 57 28.5c27.333 28.667 57.5 75.167 90.5 139.5s56.167 116.166 69.5 155.499h31l-27 -383h-1165z
M438.001 1837c0 20.667 6.5 38.166 19.5 52.499s30.5 21.5 52.5 21.5c46.667 0 87 -29.333 121 -88c49.333 -83.333 117 -187.333 203 -312l-21 -18l-299 233c-22 18 -36.667 30.5 -44 37.5s-14.5 16.833 -21.5 29.5s-10.5 27.334 -10.5 44.001z" />
    <glyph glyph-name="Eacute" unicode="&#xc9;" horiz-adv-x="1306" 
d="M78 0l0.000976562 24.998c82 4 136 11.333 162 22c42 16.667 63 50 63 100v1092c0 50.667 -21 84 -63 100c-48 20.667 -102 32.334 -162 35.001v25h1081v-309h-35c-12 50.667 -38.833 106 -80.5 166s-82.167 92.667 -121.5 98c-44 5.33301 -100.667 8 -170 8h-283v-614
h199c35.333 0 66 4.66699 92 14s41.667 16 47 20l31 33c27.333 27.333 46.333 89.333 57 186h35v-563h-35c-2.66699 31.333 -9.83398 68.833 -21.501 112.5s-23.5 71.834 -35.5 84.501c-13.333 13.333 -24.166 23.833 -32.499 31.5s-24.833 15.5 -49.5 23.5s-54 12 -88 12
h-199v-473c0 -82 14.667 -133.5 44 -154.5s96.666 -31.5 201.999 -31.5c35.333 -1.33301 72.5 -1.66602 111.5 -0.999023s74.833 2 107.5 4s62 6.5 88 13.5s45 16.5 57 28.5c27.333 28.667 57.5 75.167 90.5 139.5s56.167 116.166 69.5 155.499h31l-27 -383h-1165z
M471.001 1511c86 124 153.667 228 203 312c34 58.667 74.333 88 121 88c22 0 39.333 -7.16699 52 -21.5s19 -31.833 19 -52.5c0 -23.333 -5 -41.5 -15 -54.5s-30 -31.833 -60 -56.5l-299 -233z" />
    <glyph glyph-name="Ecircumflex" unicode="&#xca;" horiz-adv-x="1306" 
d="M78 0l0.000976562 24.998c82 4 136 11.333 162 22c42 16.667 63 50 63 100v1092c0 50.667 -21 84 -63 100c-48 20.667 -102 32.334 -162 35.001v25h1081v-309h-35c-12 50.667 -38.833 106 -80.5 166s-82.167 92.667 -121.5 98c-44 5.33301 -100.667 8 -170 8h-283v-614
h199c35.333 0 66 4.66699 92 14s41.667 16 47 20l31 33c27.333 27.333 46.333 89.333 57 186h35v-563h-35c-2.66699 31.333 -9.83398 68.833 -21.501 112.5s-23.5 71.834 -35.5 84.501c-13.333 13.333 -24.166 23.833 -32.499 31.5s-24.833 15.5 -49.5 23.5s-54 12 -88 12
h-199v-473c0 -82 14.667 -133.5 44 -154.5s96.666 -31.5 201.999 -31.5c35.333 -1.33301 72.5 -1.66602 111.5 -0.999023s74.833 2 107.5 4s62 6.5 88 13.5s45 16.5 57 28.5c27.333 28.667 57.5 75.167 90.5 139.5s56.167 116.166 69.5 155.499h31l-27 -383h-1165z
M342.001 1511c31.333 46.667 62 93.501 92 140.501s57.667 91 83 132s43.333 69.833 54 86.5c13.333 19.333 25 31.666 35 36.999s26.333 8 49 8c22 0 38.167 -2.83301 48.5 -8.5s20.833 -16.5 31.5 -32.5c13.333 -19.333 44.833 -70 94.5 -152s94.167 -152.333 133.5 -211
l-21 -18l-287 285l-293 -285z" />
    <glyph glyph-name="Edieresis" unicode="&#xcb;" horiz-adv-x="1306" 
d="M78 0l0.000976562 24.998c82 4 136 11.333 162 22c42 16.667 63 50 63 100v1092c0 50.667 -21 84 -63 100c-48 20.667 -102 32.334 -162 35.001v25h1081v-309h-35c-12 50.667 -38.833 106 -80.5 166s-82.167 92.667 -121.5 98c-44 5.33301 -100.667 8 -170 8h-283v-614
h199c35.333 0 66 4.66699 92 14s41.667 16 47 20l31 33c27.333 27.333 46.333 89.333 57 186h35v-563h-35c-2.66699 31.333 -9.83398 68.833 -21.501 112.5s-23.5 71.834 -35.5 84.501c-13.333 13.333 -24.166 23.833 -32.499 31.5s-24.833 15.5 -49.5 23.5s-54 12 -88 12
h-199v-473c0 -82 14.667 -133.5 44 -154.5s96.666 -31.5 201.999 -31.5c35.333 -1.33301 72.5 -1.66602 111.5 -0.999023s74.833 2 107.5 4s62 6.5 88 13.5s45 16.5 57 28.5c27.333 28.667 57.5 75.167 90.5 139.5s56.167 116.166 69.5 155.499h31l-27 -383h-1165z
M332.001 1702c0 28.667 10.167 53.167 30.5 73.5s44.166 30.5 71.499 30.5c30 0 55.333 -9.5 76 -28.5s31 -41.5 31 -67.5c0 -30 -10.333 -55.5 -31 -76.5s-46 -31.5 -76 -31.5c-27.333 0 -51.166 9.83301 -71.499 29.5s-30.5 43.167 -30.5 70.5zM766.001 1702
c0 28.667 9.83301 53.167 29.5 73.5s43.834 30.5 72.501 30.5c30 0 55 -9.5 75 -28.5s30 -41.5 30 -67.5c0 -30 -10 -55.5 -30 -76.5s-45 -31.5 -75 -31.5c-28.667 0 -52.834 9.83301 -72.501 29.5s-29.5 43.167 -29.5 70.5z" />
    <glyph glyph-name="Igrave" unicode="&#xcc;" horiz-adv-x="780" 
d="M94 0v24.9971c79.333 4 129.333 10 150 18c42 16.667 63 49.334 63 98.001v1100c0 49.333 -21 82 -63 98c-53.333 20.667 -103.333 32.334 -150 35.001v25h592v-25c-60 -2.66699 -109.667 -10.667 -149 -24c-42 -13.333 -63.333 -46.333 -64 -99v-1099
c0 -48 21.333 -81 64 -99c38 -15.333 87.667 -24.666 149 -27.999v-25h-592zM174 1837c0 20.667 6.50098 38.166 19.501 52.499s30.5 21.5 52.5 21.5c46.667 0 87 -29.333 121 -88c49.333 -83.333 116.666 -187.333 201.999 -312l-20 -18l-299 233
c-22 18 -36.667 30.5 -44 37.5s-14.5 16.833 -21.5 29.5s-10.5 27.334 -10.5 44.001z" />
    <glyph glyph-name="Iacute" unicode="&#xcd;" horiz-adv-x="780" 
d="M94 0v24.9971c79.333 4 129.333 10 150 18c42 16.667 63 49.334 63 98.001v1100c0 49.333 -21 82 -63 98c-53.333 20.667 -103.333 32.334 -150 35.001v25h592v-25c-60 -2.66699 -109.667 -10.667 -149 -24c-42 -13.333 -63.333 -46.333 -64 -99v-1099
c0 -48 21.333 -81 64 -99c38 -15.333 87.667 -24.666 149 -27.999v-25h-592zM207 1511c86 124 153.667 228 203 312c34 58.667 74 88 120 88c22 0 39.5 -7.16699 52.5 -21.5s19.5 -31.833 19.5 -52.5c0 -23.333 -5.16699 -41.5 -15.5 -54.5s-30.5 -31.833 -60.5 -56.5
l-299 -233z" />
    <glyph glyph-name="Icircumflex" unicode="&#xce;" horiz-adv-x="780" 
d="M78 1511c31.333 46.667 62.002 93.501 92.002 140.501s57.667 91 83 132s43.333 69.833 54 86.5c13.333 19.333 24.833 31.666 34.5 36.999s26.167 8 49.5 8c22 0 38.167 -2.83301 48.5 -8.5s20.833 -16.5 31.5 -32.5c13.333 -19.333 44.666 -70 93.999 -152
s93.666 -152.333 132.999 -211l-20 -18l-287 285l-293 -285zM94.002 0.000976562v24.9971c79.333 4 129.333 10 150 18c42 16.667 63 49.334 63 98.001v1100c0 49.333 -21 82 -63 98c-53.333 20.667 -103.333 32.334 -150 35.001v25h592v-25
c-60 -2.66699 -109.667 -10.667 -149 -24c-42 -13.333 -63.333 -46.333 -64 -99v-1099c0 -48 21.333 -81 64 -99c38 -15.333 87.667 -24.666 149 -27.999v-25h-592z" />
    <glyph glyph-name="Idieresis" unicode="&#xcf;" horiz-adv-x="780" 
d="M68 1692c0 28.667 10.167 53.167 30.5 73.5s44.166 30.5 71.499 30.5c30 0 55.167 -9.5 75.5 -28.5s30.5 -41.5 30.5 -67.5c0 -30 -10.167 -55.667 -30.5 -77s-45.5 -32 -75.5 -32c-27.333 0 -51.166 10 -71.499 30s-30.5 43.667 -30.5 71zM94 0v24.9971
c79.333 4 129.333 10 150 18c42 16.667 63 49.334 63 98.001v1100c0 49.333 -21 82 -63 98c-53.333 20.667 -103.333 32.334 -150 35.001v25h592v-25c-60 -2.66699 -109.667 -10.667 -149 -24c-42 -13.333 -63.333 -46.333 -64 -99v-1099c0 -48 21.333 -81 64 -99
c38 -15.333 87.667 -24.666 149 -27.999v-25h-592zM502 1692c0 28.667 9.83301 53.167 29.5 73.5s43.834 30.5 72.501 30.5c30 0 55 -9.5 75 -28.5s30 -41.5 30 -67.5c0 -30 -10 -55.667 -30 -77s-45 -32 -75 -32c-28.667 0 -52.834 10 -72.501 30s-29.5 43.667 -29.5 71z
" />
    <glyph glyph-name="Eth" unicode="&#xd0;" horiz-adv-x="1548" 
d="M84 725l-0.000976562 36.998h219v477c0 52 -21.167 86.833 -63.5 104.5s-90.166 27.834 -143.499 30.501v25h635c58.667 0 119.167 -6.5 181.5 -19.5s127.833 -36.167 196.5 -69.5s129.667 -75.666 183 -126.999s97.5 -119.666 132.5 -204.999s52.5 -181.333 52.5 -288
c0 -114.667 -23 -217.334 -69 -308.001s-106.833 -163 -182.5 -217s-159.167 -95 -250.5 -123s-186.333 -42 -285 -42h-602v25c69.333 0 120 6 152 18c42 16.667 63 50 63 100v582h-219zM468.999 198.998c8 -56 29.832 -97.333 65.499 -124s93.834 -40 174.501 -40
c187.333 0 329 59.667 425 179s144 278 144 476c0 195.333 -57 356.833 -171 484.5s-263.333 191.5 -448 191.5c-78 0 -141.333 -2 -190 -6v-598h322v-37h-322v-526z" />
    <glyph glyph-name="Ntilde" unicode="&#xd1;" horiz-adv-x="1556" 
d="M-2 1376l-0.00195312 23.001h362l922 -1166v807c0 155.333 -23.333 247 -70 275c-19.333 12 -53.833 24.5 -103.5 37.5s-88.167 20.167 -115.5 21.5v25h590v-25c-18 0 -49.5 -6.16699 -94.5 -18.5s-74.167 -22.5 -87.5 -30.5c-48 -28.667 -72 -119.334 -72 -272.001
v-1071h-51l-940 1189v-800c0 -147.333 24.667 -241 74 -281c16.667 -12 51.5 -25.5 104.5 -40.5s91.167 -23.167 114.5 -24.5v-25h-598v25c19.333 2.66699 51.833 10.5 97.5 23.5s74.5 22.833 86.5 29.5c49.333 27.333 74 121.333 74 282v766c0 72.667 -22 126.667 -66 162
c-23.333 19.333 -58.166 37.833 -104.499 55.5s-87.166 28.5 -122.499 32.5zM396.998 1559c22 64 53.834 120.167 95.501 168.5s91.834 72.5 150.501 72.5c56 0 113 -18.333 171 -55s101.333 -55 130 -55c30 0 55 2.66699 75 8s37.5 16.833 52.5 34.5s25.167 31.667 30.5 42
s15.666 30.5 30.999 60.5l22 -8c-18 -65.333 -48.5 -122 -91.5 -170s-96.5 -72 -160.5 -72c-48 0 -90.333 9.5 -127 28.5s-69.334 37.833 -98.001 56.5s-57.334 28 -86.001 28c-27.333 0 -51.666 -7.16699 -72.999 -21.5s-37 -29.333 -47 -45s-26.667 -43.5 -50 -83.5z" />
    <glyph glyph-name="Ograve" unicode="&#xd2;" horiz-adv-x="1536" 
d="M72 684c0 222.667 68.001 403.666 204.001 542.999c132.667 135.333 296.667 203 492 203s365.333 -72 510 -216c57.333 -57.333 102.666 -131.666 135.999 -222.999s50 -185.333 50 -282c0 -222.667 -68 -402.334 -204 -539.001c-134 -134 -300.667 -201 -500 -201
c-182.667 0 -341.667 65.667 -477 197c-140.667 136.667 -211 309.334 -211 518.001zM264.001 679.999c0 -196.667 44.332 -357.5 132.999 -482.5s212.334 -187.5 371.001 -187.5c161.333 0 285.666 63.167 372.999 189.5s131 293.833 131 502.5
c0 216 -46.5 384.5 -139.5 505.5s-214.5 181.5 -364.5 181.5c-151.333 0 -273.166 -61.5 -365.499 -184.5s-138.5 -297.833 -138.5 -524.5zM553 1837c0 20.667 6.50098 38.166 19.501 52.499s30.5 21.5 52.5 21.5c46.667 0 86.667 -29.333 120 -88
c49.333 -83.333 117 -187.333 203 -312l-20 -18l-299 233c-22 18 -36.833 30.5 -44.5 37.5s-14.834 16.833 -21.501 29.5s-10 27.334 -10 44.001z" />
    <glyph glyph-name="Oacute" unicode="&#xd3;" horiz-adv-x="1536" 
d="M72 684c0 222.667 68.001 403.666 204.001 542.999c132.667 135.333 296.667 203 492 203s365.333 -72 510 -216c57.333 -57.333 102.666 -131.666 135.999 -222.999s50 -185.333 50 -282c0 -222.667 -68 -402.334 -204 -539.001c-134 -134 -300.667 -201 -500 -201
c-182.667 0 -341.667 65.667 -477 197c-140.667 136.667 -211 309.334 -211 518.001zM264.001 679.999c0 -196.667 44.332 -357.5 132.999 -482.5s212.334 -187.5 371.001 -187.5c161.333 0 285.666 63.167 372.999 189.5s131 293.833 131 502.5
c0 216 -46.5 384.5 -139.5 505.5s-214.5 181.5 -364.5 181.5c-151.333 0 -273.166 -61.5 -365.499 -184.5s-138.5 -297.833 -138.5 -524.5zM586 1511c86 124 153.333 228 202 312c34 58.667 74.333 88 121 88c22 0 39.5 -7.16699 52.5 -21.5s19.5 -31.833 19.5 -52.5
c0 -23.333 -5.16699 -41.5 -15.5 -54.5s-30.5 -31.833 -60.5 -56.5l-299 -233z" />
    <glyph glyph-name="Ocircumflex" unicode="&#xd4;" horiz-adv-x="1536" 
d="M72 684c0 222.667 68.001 403.666 204.001 542.999c132.667 135.333 296.667 203 492 203s365.333 -72 510 -216c57.333 -57.333 102.666 -131.666 135.999 -222.999s50 -185.333 50 -282c0 -222.667 -68 -402.334 -204 -539.001c-134 -134 -300.667 -201 -500 -201
c-182.667 0 -341.667 65.667 -477 197c-140.667 136.667 -211 309.334 -211 518.001zM264.001 679.999c0 -196.667 44.332 -357.5 132.999 -482.5s212.334 -187.5 371.001 -187.5c161.333 0 285.666 63.167 372.999 189.5s131 293.833 131 502.5
c0 216 -46.5 384.5 -139.5 505.5s-214.5 181.5 -364.5 181.5c-151.333 0 -273.166 -61.5 -365.499 -184.5s-138.5 -297.833 -138.5 -524.5zM457 1511c31.333 46.667 62.002 93.501 92.002 140.501s57.667 91 83 132s43.333 69.833 54 86.5
c13.333 19.333 24.833 31.666 34.5 36.999s26.167 8 49.5 8c22 0 38.167 -2.83301 48.5 -8.5s20.833 -16.5 31.5 -32.5c13.333 -19.333 44.666 -70 93.999 -152s93.666 -152.333 132.999 -211l-20 -18l-287 285l-293 -285z" />
    <glyph glyph-name="Otilde" unicode="&#xd5;" horiz-adv-x="1536" 
d="M72 684c0 222.667 68.001 403.666 204.001 542.999c132.667 135.333 296.667 203 492 203s365.333 -72 510 -216c57.333 -57.333 102.666 -131.666 135.999 -222.999s50 -185.333 50 -282c0 -222.667 -68 -402.334 -204 -539.001c-134 -134 -300.667 -201 -500 -201
c-182.667 0 -341.667 65.667 -477 197c-140.667 136.667 -211 309.334 -211 518.001zM264.001 679.999c0 -196.667 44.332 -357.5 132.999 -482.5s212.334 -187.5 371.001 -187.5c161.333 0 285.666 63.167 372.999 189.5s131 293.833 131 502.5
c0 216 -46.5 384.5 -139.5 505.5s-214.5 181.5 -364.5 181.5c-151.333 0 -273.166 -61.5 -365.499 -184.5s-138.5 -297.833 -138.5 -524.5zM387 1559c22 64 53.8311 120.167 95.498 168.5s91.834 72.5 150.501 72.5c56 0 113 -18.333 171 -55s101.333 -55 130 -55
c30 0 54.833 2.66699 74.5 8s37 16.833 52 34.5s25.333 31.667 31 42s15.834 30.5 30.501 60.5l23 -8c-18 -65.333 -48.5 -122 -91.5 -170s-96.5 -72 -160.5 -72c-48 0 -90.333 9.5 -127 28.5s-69.334 37.833 -98.001 56.5s-57.334 28 -86.001 28
c-27.333 0 -51.666 -7.16699 -72.999 -21.5s-37.166 -29.333 -47.499 -45s-26.833 -43.5 -49.5 -83.5z" />
    <glyph glyph-name="Odieresis" unicode="&#xd6;" horiz-adv-x="1536" 
d="M72 684c0 222.667 68.001 403.666 204.001 542.999c132.667 135.333 296.667 203 492 203s365.333 -72 510 -216c57.333 -57.333 102.666 -131.666 135.999 -222.999s50 -185.333 50 -282c0 -222.667 -68 -402.334 -204 -539.001c-134 -134 -300.667 -201 -500 -201
c-182.667 0 -341.667 65.667 -477 197c-140.667 136.667 -211 309.334 -211 518.001zM264.001 679.999c0 -196.667 44.332 -357.5 132.999 -482.5s212.334 -187.5 371.001 -187.5c161.333 0 285.666 63.167 372.999 189.5s131 293.833 131 502.5
c0 216 -46.5 384.5 -139.5 505.5s-214.5 181.5 -364.5 181.5c-151.333 0 -273.166 -61.5 -365.499 -184.5s-138.5 -297.833 -138.5 -524.5zM446 1702c0 28.667 10.333 53.167 31 73.5s44.667 30.5 72 30.5c30 0 55.167 -9.5 75.5 -28.5s30.5 -41.5 30.5 -67.5
c0 -30 -10.167 -55.5 -30.5 -76.5s-45.5 -31.5 -75.5 -31.5c-27.333 0 -51.333 9.83301 -72 29.5s-31 43.167 -31 70.5zM881 1702c0 28.667 9.83301 53.167 29.5 73.5s43.834 30.5 72.501 30.5c30 0 54.833 -9.5 74.5 -28.5s29.5 -41.5 29.5 -67.5
c0 -30 -9.83301 -55.5 -29.5 -76.5s-44.5 -31.5 -74.5 -31.5c-28.667 0 -52.834 9.83301 -72.501 29.5s-29.5 43.167 -29.5 70.5z" />
    <glyph glyph-name="multiply" unicode="&#xd7;" 
d="M102 119l414 413l-414 414l43 41l412 -412l416 416l47 -47l-416 -416l412 -411l-41 -43l-414 413l-414 -413z" />
    <glyph glyph-name="Oslash" unicode="&#xd8;" horiz-adv-x="1536" 
d="M72 684c0 226.667 62.668 403.334 188.001 530.001c140.667 143.333 310 215.333 508 216c177.333 0 333 -59 467 -177l190 217l39 -30l-192 -219l6 -7c57.333 -60 102.666 -135.333 135.999 -226s50 -183.667 50 -279c0 -222.667 -68 -402.334 -204 -539.001
c-134 -134 -300.667 -201 -500 -201c-169.333 0 -318.333 56 -447 168l-192 -217l-37 29l195 221c-138 134 -207 305.333 -207 514zM264.001 694c0 -172 31.3311 -316.667 93.998 -434l801 909c-87.333 146 -217.666 219.333 -390.999 220
c-155.333 0 -278.166 -61.5 -368.499 -184.5s-135.5 -293.167 -135.5 -510.5zM382.999 217c91.333 -138 219.667 -207 385 -207c164 0 289 63.833 375 191.5s129 294.5 129 500.5c0 165.333 -28.667 306 -86 422z" />
    <glyph glyph-name="Ugrave" unicode="&#xd9;" horiz-adv-x="1558" 
d="M70 1374v25.002h585v-25c-54.667 -2.66699 -103.667 -11.334 -147 -26.001c-42 -13.333 -63.333 -47 -64 -101v-870c0 -100 32.5 -181 97.5 -243s160.167 -93 285.5 -93c136.667 0 241.834 31.667 315.501 95s110.5 144.333 110.5 243v665c0 157.333 -23 249 -69 275
c-58.667 32.667 -133 51 -223 55v25h593v-25c-20.667 0 -52.334 -5.16699 -95.001 -15.5s-73 -20.833 -91 -31.5c-45.333 -26 -68 -116 -68 -270v-676c0 -118.667 -46.333 -217.334 -139 -296.001s-219 -118 -379 -118c-155.333 0 -278.5 35.833 -369.5 107.5
s-136.5 155.5 -136.5 251.5v911c0 46.667 -21 80.667 -63 102c-39.333 19.333 -87 31 -143 35zM563 1837c0 20.667 6.50098 38.166 19.501 52.499s30.5 21.5 52.5 21.5c46.667 0 87 -29.333 121 -88c49.333 -83.333 116.666 -187.333 201.999 -312l-20 -18l-299 233
c-22 18 -36.667 30.5 -44 37.5s-14.5 16.833 -21.5 29.5s-10.5 27.334 -10.5 44.001z" />
    <glyph glyph-name="Uacute" unicode="&#xda;" horiz-adv-x="1558" 
d="M70 1374v25.002h585v-25c-54.667 -2.66699 -103.667 -11.334 -147 -26.001c-42 -13.333 -63.333 -47 -64 -101v-870c0 -100 32.5 -181 97.5 -243s160.167 -93 285.5 -93c136.667 0 241.834 31.667 315.501 95s110.5 144.333 110.5 243v665c0 157.333 -23 249 -69 275
c-58.667 32.667 -133 51 -223 55v25h593v-25c-20.667 0 -52.334 -5.16699 -95.001 -15.5s-73 -20.833 -91 -31.5c-45.333 -26 -68 -116 -68 -270v-676c0 -118.667 -46.333 -217.334 -139 -296.001s-219 -118 -379 -118c-155.333 0 -278.5 35.833 -369.5 107.5
s-136.5 155.5 -136.5 251.5v911c0 46.667 -21 80.667 -63 102c-39.333 19.333 -87 31 -143 35zM596 1511c86 124 153.667 228 203 312c34 58.667 74.333 88 121 88c22 0 39.333 -7.16699 52 -21.5s19 -31.833 19 -52.5c0 -23.333 -5 -41.5 -15 -54.5
s-30.333 -31.833 -61 -56.5l-299 -233z" />
    <glyph glyph-name="Ucircumflex" unicode="&#xdb;" horiz-adv-x="1558" 
d="M70 1374v25.002h585v-25c-54.667 -2.66699 -103.667 -11.334 -147 -26.001c-42 -13.333 -63.333 -47 -64 -101v-870c0 -100 32.5 -181 97.5 -243s160.167 -93 285.5 -93c136.667 0 241.834 31.667 315.501 95s110.5 144.333 110.5 243v665c0 157.333 -23 249 -69 275
c-58.667 32.667 -133 51 -223 55v25h593v-25c-20.667 0 -52.334 -5.16699 -95.001 -15.5s-73 -20.833 -91 -31.5c-45.333 -26 -68 -116 -68 -270v-676c0 -118.667 -46.333 -217.334 -139 -296.001s-219 -118 -379 -118c-155.333 0 -278.5 35.833 -369.5 107.5
s-136.5 155.5 -136.5 251.5v911c0 46.667 -21 80.667 -63 102c-39.333 19.333 -87 31 -143 35zM467 1511c31.333 46.667 62.002 93.501 92.002 140.501s57.667 91 83 132s43.333 69.833 54 86.5c13.333 19.333 24.833 31.666 34.5 36.999s26.167 8 49.5 8
c22 0 38.167 -2.83301 48.5 -8.5s20.833 -16.5 31.5 -32.5c13.333 -19.333 44.666 -70 93.999 -152s93.666 -152.333 132.999 -211l-20 -18l-287 285l-293 -285z" />
    <glyph glyph-name="Udieresis" unicode="&#xdc;" horiz-adv-x="1558" 
d="M70 1374v25.002h585v-25c-54.667 -2.66699 -103.667 -11.334 -147 -26.001c-42 -13.333 -63.333 -47 -64 -101v-870c0 -100 32.5 -181 97.5 -243s160.167 -93 285.5 -93c136.667 0 241.834 31.667 315.501 95s110.5 144.333 110.5 243v665c0 157.333 -23 249 -69 275
c-58.667 32.667 -133 51 -223 55v25h593v-25c-20.667 0 -52.334 -5.16699 -95.001 -15.5s-73 -20.833 -91 -31.5c-45.333 -26 -68 -116 -68 -270v-676c0 -118.667 -46.333 -217.334 -139 -296.001s-219 -118 -379 -118c-155.333 0 -278.5 35.833 -369.5 107.5
s-136.5 155.5 -136.5 251.5v911c0 46.667 -21 80.667 -63 102c-39.333 19.333 -87 31 -143 35zM457 1702c0 28.667 10.167 53.167 30.5 73.5s44.166 30.5 71.499 30.5c30 0 55.333 -9.5 76 -28.5s31 -41.5 31 -67.5c0 -30 -10.333 -55.5 -31 -76.5s-46 -31.5 -76 -31.5
c-27.333 0 -51.166 9.83301 -71.499 29.5s-30.5 43.167 -30.5 70.5zM891 1702c0 28.667 9.83301 53.167 29.5 73.5s43.834 30.5 72.501 30.5c30 0 55 -9.5 75 -28.5s30 -41.5 30 -67.5c0 -30 -10 -55.5 -30 -76.5s-45 -31.5 -75 -31.5
c-28.667 0 -52.834 9.83301 -72.501 29.5s-29.5 43.167 -29.5 70.5z" />
    <glyph glyph-name="Yacute" unicode="&#xdd;" horiz-adv-x="1179" 
d="M-80 1374v24.999h598v-25c-144.667 -8 -217 -31 -217 -69c0 -19.333 110 -231.666 330 -636.999c234.667 367.333 352 570 352 608c0 28.667 -26.667 51.167 -80 67.5s-110.666 26.5 -171.999 30.5v25h533v-25c-26 0 -59.667 -8 -101 -24
c-42 -15.333 -82.333 -50.333 -121 -105c-84.667 -116 -196.334 -303.667 -335.001 -563c-36.667 -68 -55.334 -137.667 -56.001 -209v-313c0 -50.667 21.333 -85 64 -103c44 -18 100 -28.667 168 -32v-25h-631v25c84.667 4 140.667 11.333 168 22c42 16.667 63 51 63 103
v409c0 8 -15.667 50.333 -47 127c-94 191.333 -184.667 363.333 -272 516c-38 66.667 -79 113 -123 139c-31.333 19.333 -71.666 30.333 -120.999 33zM408 1511c86 124 153.333 228 202 312c34 58.667 74.333 88 121 88c22 0 39.5 -7.16699 52.5 -21.5
s19.5 -31.833 19.5 -52.5c0 -23.333 -5.16699 -41.5 -15.5 -54.5s-30.5 -31.833 -60.5 -56.5l-299 -233z" />
    <glyph glyph-name="Thorn" unicode="&#xde;" horiz-adv-x="1206" 
d="M90 1374v25h592v-25c-60 -2.66699 -110 -10.667 -150 -24c-42 -13.333 -63 -46.333 -63 -99v-155h274c104 0 196.667 -30.5 278 -91.5s122 -139.833 122 -236.5c0 -128.667 -48.167 -227.334 -144.5 -296.001s-211.5 -103 -345.5 -103h-184v-224c0 -52 21 -86 63 -102
c26 -9.33301 81.333 -15.333 166 -18v-25h-600v25c68 4 115.333 10.667 142 20c42 16.667 63 50.667 63 102v1094c0 49.333 -21 82 -63 98c-53.333 20.667 -103.333 32.334 -150 35.001zM469 408l124.997 -0.000976562c61.333 0 114.833 8.83301 160.5 26.5
s79.834 38.334 102.501 62.001s40.834 51.667 54.501 84s21.834 58.333 24.501 78s4 39.167 4 58.5c0 40.667 -4.83301 79.5 -14.5 116.5s-25 73.5 -46 109.5s-52.667 64.667 -95 86s-92.833 32 -151.5 32h-164v-653z" />
    <glyph glyph-name="germandbls" unicode="&#xdf;" horiz-adv-x="1159" 
d="M6 866v54.0039h211v65c0 186 44.333 326 133 420c78 83.333 172.333 125 283 125c86 0 158.333 -24 217 -72s88 -112.667 88 -194c0 -58.667 -12 -111.334 -36 -158.001s-50 -81.167 -78 -103.5s-53.833 -45.5 -77.5 -69.5s-35.5 -47 -35.5 -69
c0 -23.333 3 -43.166 9 -59.499s23.667 -40.833 53 -73.5s72.666 -72.334 129.999 -119.001c79.333 -64 133.333 -116.833 162 -158.5s43 -97.834 43 -168.501c0 -84.667 -28.333 -158.167 -85 -220.5s-127.334 -93.5 -212.001 -93.5c-83.333 0 -148.5 20.167 -195.5 60.5
s-70.5 90.5 -70.5 150.5c0 80.667 30.667 121 92 121c48 0 72 -30 72 -90c0 -18 -5.83301 -36.833 -17.5 -56.5s-17.5 -35.5 -17.5 -47.5c0 -23.333 13.333 -46 40 -68s63 -33 109 -33c60 0 107.167 18.167 141.5 54.5s51.5 80.5 51.5 132.5
c0 46.667 -12.667 87.667 -38 123s-79.666 85.666 -162.999 150.999c-131.333 101.333 -197 195 -197 281c0 39.333 11.333 76.666 34 111.999s47.334 65.333 74.001 90s51.334 59.5 74.001 104.5s34 96.167 34 153.5c0 94 -20.5 164.667 -61.5 212s-96.5 71 -166.5 71
c-84.667 0 -145.334 -34.833 -182.001 -104.5s-58 -183.5 -64 -341.5c0 -9.33301 -0.333008 -26 -1 -50s-1 -42.333 -1 -55v-942h-286v25c44 2.66699 74 6.66699 90 12c36.667 12 55 43.333 55 94v735h-211z" />
    <glyph glyph-name="agrave" unicode="&#xe0;" horiz-adv-x="927" 
d="M66 186c0 53.333 10.499 98.1689 31.499 134.502s44.167 62.666 69.5 78.999s58.333 31.833 99 46.5c26 9.33301 64 22.666 114 39.999s93.667 33.166 131 47.499s69 29.166 95 44.499v139c0 60 -16 109.167 -48 147.5s-81.333 57.5 -148 57.5
c-60 0 -105.333 -22.667 -136 -68c0 -10.667 2.5 -33.5 7.5 -68.5s7.5 -58.5 7.5 -70.5c0 -22 -9.66699 -40.5 -29 -55.5s-43.333 -22.5 -72 -22.5c-46.667 0 -69.667 32 -69 96c0 58.667 31.667 109.5 95 152.5s134 64.5 212 64.5c108 0 189.667 -20.5 245 -61.5
s83 -121.5 83 -241.5c0 -68 -1.83301 -158 -5.5 -270s-5.5 -175 -5.5 -189c0 -82 29.333 -122.667 88 -122c28.667 0 50.334 13.5 65.001 40.5s24.667 70.167 30 129.5h26c-8 -91.333 -26.333 -156.166 -55 -194.499s-69 -57.5 -121 -57.5c-86 0 -142 45.667 -168 137h-6
c-36.667 -45.333 -82.667 -80.166 -138 -104.499s-110.333 -36.5 -165 -36.5c-70.667 0 -127.167 18.333 -169.5 55s-63.5 87 -63.5 151zM220.999 211.003c0 -116 50.668 -174 152.001 -174c83.333 0 159 41.667 227 125l8 366
c-132.667 -38 -230.334 -78.833 -293.001 -122.5s-94 -108.5 -94 -194.5zM248 1423c0 20.667 6.50098 38.165 19.501 52.498s30.167 21.5 51.5 21.5c46.667 0 87 -29.333 121 -88c49.333 -83.333 117 -187 203 -311l-20 -19l-299 234c-22 18 -36.833 30.333 -44.5 37
s-14.834 16.334 -21.501 29.001s-10 27.334 -10 44.001z" />
    <glyph glyph-name="aacute" unicode="&#xe1;" horiz-adv-x="927" 
d="M66 186c0 53.333 10.499 98.1689 31.499 134.502s44.167 62.666 69.5 78.999s58.333 31.833 99 46.5c26 9.33301 64 22.666 114 39.999s93.667 33.166 131 47.499s69 29.166 95 44.499v139c0 60 -16 109.167 -48 147.5s-81.333 57.5 -148 57.5
c-60 0 -105.333 -22.667 -136 -68c0 -10.667 2.5 -33.5 7.5 -68.5s7.5 -58.5 7.5 -70.5c0 -22 -9.66699 -40.5 -29 -55.5s-43.333 -22.5 -72 -22.5c-46.667 0 -69.667 32 -69 96c0 58.667 31.667 109.5 95 152.5s134 64.5 212 64.5c108 0 189.667 -20.5 245 -61.5
s83 -121.5 83 -241.5c0 -68 -1.83301 -158 -5.5 -270s-5.5 -175 -5.5 -189c0 -82 29.333 -122.667 88 -122c28.667 0 50.334 13.5 65.001 40.5s24.667 70.167 30 129.5h26c-8 -91.333 -26.333 -156.166 -55 -194.499s-69 -57.5 -121 -57.5c-86 0 -142 45.667 -168 137h-6
c-36.667 -45.333 -82.667 -80.166 -138 -104.499s-110.333 -36.5 -165 -36.5c-70.667 0 -127.167 18.333 -169.5 55s-63.5 87 -63.5 151zM220.999 211.003c0 -116 50.668 -174 152.001 -174c83.333 0 159 41.667 227 125l8 366
c-132.667 -38 -230.334 -78.833 -293.001 -122.5s-94 -108.5 -94 -194.5zM281 1098c86 124 153.333 227.668 202 311.001c34 58.667 74.333 88 121 88c22 0 39.5 -7.16699 52.5 -21.5s19.5 -31.833 19.5 -52.5c0 -23.333 -5.16699 -41.333 -15.5 -54
s-30.5 -31.334 -60.5 -56.001l-299 -234z" />
    <glyph glyph-name="acircumflex" unicode="&#xe2;" horiz-adv-x="927" 
d="M66 186c0 53.333 10.499 98.1689 31.499 134.502s44.167 62.666 69.5 78.999s58.333 31.833 99 46.5c26 9.33301 64 22.666 114 39.999s93.667 33.166 131 47.499s69 29.166 95 44.499v139c0 60 -16 109.167 -48 147.5s-81.333 57.5 -148 57.5
c-60 0 -105.333 -22.667 -136 -68c0 -10.667 2.5 -33.5 7.5 -68.5s7.5 -58.5 7.5 -70.5c0 -22 -9.66699 -40.5 -29 -55.5s-43.333 -22.5 -72 -22.5c-46.667 0 -69.667 32 -69 96c0 58.667 31.667 109.5 95 152.5s134 64.5 212 64.5c108 0 189.667 -20.5 245 -61.5
s83 -121.5 83 -241.5c0 -68 -1.83301 -158 -5.5 -270s-5.5 -175 -5.5 -189c0 -82 29.333 -122.667 88 -122c28.667 0 50.334 13.5 65.001 40.5s24.667 70.167 30 129.5h26c-8 -91.333 -26.333 -156.166 -55 -194.499s-69 -57.5 -121 -57.5c-86 0 -142 45.667 -168 137h-6
c-36.667 -45.333 -82.667 -80.166 -138 -104.499s-110.333 -36.5 -165 -36.5c-70.667 0 -127.167 18.333 -169.5 55s-63.5 87 -63.5 151zM151.999 1098c31.333 46.667 62.002 93.502 92.002 140.502s57.667 91 83 132s43.333 69.5 54 85.5
c13.333 19.333 24.833 31.666 34.5 36.999s26.167 8 49.5 8c22 0 38 -2.66699 48 -8s20.667 -16.333 32 -33c13.333 -19.333 44.666 -69.833 93.999 -151.5s93.666 -151.834 132.999 -210.501l-20 -19l-287 285l-293 -285zM221.001 211.005c0 -116 50.668 -174 152.001 -174
c83.333 0 159 41.667 227 125l8 366c-132.667 -38 -230.334 -78.833 -293.001 -122.5s-94 -108.5 -94 -194.5z" />
    <glyph glyph-name="atilde" unicode="&#xe3;" horiz-adv-x="927" 
d="M66 186c0 53.333 10.499 98.1689 31.499 134.502s44.167 62.666 69.5 78.999s58.333 31.833 99 46.5c26 9.33301 64 22.666 114 39.999s93.667 33.166 131 47.499s69 29.166 95 44.499v139c0 60 -16 109.167 -48 147.5s-81.333 57.5 -148 57.5
c-60 0 -105.333 -22.667 -136 -68c0 -10.667 2.5 -33.5 7.5 -68.5s7.5 -58.5 7.5 -70.5c0 -22 -9.66699 -40.5 -29 -55.5s-43.333 -22.5 -72 -22.5c-46.667 0 -69.667 32 -69 96c0 58.667 31.667 109.5 95 152.5s134 64.5 212 64.5c108 0 189.667 -20.5 245 -61.5
s83 -121.5 83 -241.5c0 -68 -1.83301 -158 -5.5 -270s-5.5 -175 -5.5 -189c0 -82 29.333 -122.667 88 -122c28.667 0 50.334 13.5 65.001 40.5s24.667 70.167 30 129.5h26c-8 -91.333 -26.333 -156.166 -55 -194.499s-69 -57.5 -121 -57.5c-86 0 -142 45.667 -168 137h-6
c-36.667 -45.333 -82.667 -80.166 -138 -104.499s-110.333 -36.5 -165 -36.5c-70.667 0 -127.167 18.333 -169.5 55s-63.5 87 -63.5 151zM81.999 1145c22 64 53.8301 120.168 95.4971 168.501s91.834 72.5 150.501 72.5c56 0 113 -18.333 171 -55s101.333 -55 130 -55
c30 0 54.833 2.66699 74.5 8s37 17 52 35s25.333 32 31 42s15.834 30 30.501 60l23 -8c-18 -65.333 -48.5 -122 -91.5 -170s-96.5 -72 -160.5 -72c-48 0 -90.333 9.66699 -127 29s-69.5 38.166 -98.5 56.499s-57.833 27.5 -86.5 27.5c-27.333 0 -51.5 -7.16699 -72.5 -21.5
s-36.667 -29.333 -47 -45s-27.166 -43.167 -50.499 -82.5zM220.996 211.004c0 -116 50.668 -174 152.001 -174c83.333 0 159 41.667 227 125l8 366c-132.667 -38 -230.334 -78.833 -293.001 -122.5s-94 -108.5 -94 -194.5z" />
    <glyph glyph-name="adieresis" unicode="&#xe4;" horiz-adv-x="927" 
d="M66 186c0 53.333 10.499 98.1689 31.499 134.502s44.167 62.666 69.5 78.999s58.333 31.833 99 46.5c26 9.33301 64 22.666 114 39.999s93.667 33.166 131 47.499s69 29.166 95 44.499v139c0 60 -16 109.167 -48 147.5s-81.333 57.5 -148 57.5
c-60 0 -105.333 -22.667 -136 -68c0 -10.667 2.5 -33.5 7.5 -68.5s7.5 -58.5 7.5 -70.5c0 -22 -9.66699 -40.5 -29 -55.5s-43.333 -22.5 -72 -22.5c-46.667 0 -69.667 32 -69 96c0 58.667 31.667 109.5 95 152.5s134 64.5 212 64.5c108 0 189.667 -20.5 245 -61.5
s83 -121.5 83 -241.5c0 -68 -1.83301 -158 -5.5 -270s-5.5 -175 -5.5 -189c0 -82 29.333 -122.667 88 -122c28.667 0 50.334 13.5 65.001 40.5s24.667 70.167 30 129.5h26c-8 -91.333 -26.333 -156.166 -55 -194.499s-69 -57.5 -121 -57.5c-86 0 -142 45.667 -168 137h-6
c-36.667 -45.333 -82.667 -80.166 -138 -104.499s-110.333 -36.5 -165 -36.5c-70.667 0 -127.167 18.333 -169.5 55s-63.5 87 -63.5 151zM140.999 1309c0 28.667 10.333 53.167 31 73.5s44.667 30.5 72 30.5c30 0 55.167 -9.5 75.5 -28.5s30.5 -41.5 30.5 -67.5
c0 -30 -10.167 -55.667 -30.5 -77s-45.5 -32 -75.5 -32c-27.333 0 -51.333 10 -72 30s-31 43.667 -31 71zM220.999 211.003c0 -116 50.668 -174 152.001 -174c83.333 0 159 41.667 227 125l8 366c-132.667 -38 -230.334 -78.833 -293.001 -122.5s-94 -108.5 -94 -194.5z
M575 1309c0 28.667 10 53.167 30 73.5s44.333 30.5 73 30.5c30 0 54.833 -9.5 74.5 -28.5s29.5 -41.5 29.5 -67.5c0 -30 -9.83301 -55.667 -29.5 -77s-44.5 -32 -74.5 -32c-28.667 0 -53 10 -73 30s-30 43.667 -30 71z" />
    <glyph glyph-name="aring" unicode="&#xe5;" horiz-adv-x="927" 
d="M66 186c0 53.333 10.499 98.1689 31.499 134.502s44.167 62.666 69.5 78.999s58.333 31.833 99 46.5c26 9.33301 64 22.666 114 39.999s93.667 33.166 131 47.499s69 29.166 95 44.499v139c0 60 -16 109.167 -48 147.5s-81.333 57.5 -148 57.5
c-60 0 -105.333 -22.667 -136 -68c0 -10.667 2.5 -33.5 7.5 -68.5s7.5 -58.5 7.5 -70.5c0 -22 -9.66699 -40.5 -29 -55.5s-43.333 -22.5 -72 -22.5c-46.667 0 -69.667 32 -69 96c0 58.667 31.667 109.5 95 152.5s134 64.5 212 64.5c108 0 189.667 -20.5 245 -61.5
s83 -121.5 83 -241.5c0 -68 -1.83301 -158 -5.5 -270s-5.5 -175 -5.5 -189c0 -82 29.333 -122.667 88 -122c28.667 0 50.334 13.5 65.001 40.5s24.667 70.167 30 129.5h26c-8 -91.333 -26.333 -156.166 -55 -194.499s-69 -57.5 -121 -57.5c-86 0 -142 45.667 -168 137h-6
c-36.667 -45.333 -82.667 -80.166 -138 -104.499s-110.333 -36.5 -165 -36.5c-70.667 0 -127.167 18.333 -169.5 55s-63.5 87 -63.5 151zM220.999 211.003c0 -116 50.668 -174 152.001 -174c83.333 0 159 41.667 227 125l8 366
c-132.667 -38 -230.334 -78.833 -293.001 -122.5s-94 -108.5 -94 -194.5zM240 1288c0 58.667 21.167 106.834 63.5 144.501s95.5 56.5 159.5 56.5c66.667 0 120.5 -18.5 161.5 -55.5s61.5 -85.5 61.5 -145.5s-20.167 -108.5 -60.5 -145.5s-94.5 -55.5 -162.5 -55.5
c-69.333 0 -123.833 18.167 -163.5 54.5s-59.5 85.166 -59.5 146.499zM334 1288c0 -49.333 10.499 -90 31.499 -122s53.5 -48 97.5 -48c86 0 129 56.667 129 170c0 49.333 -10.667 90 -32 122s-53.666 48 -96.999 48c-42 0 -74 -15.667 -96 -47s-33 -72.333 -33 -123z" />
    <glyph glyph-name="ae" unicode="&#xe6;" horiz-adv-x="1411" 
d="M66 186c0 53.333 10.4971 98.1699 31.4971 134.503s44.167 62.666 69.5 78.999s58.333 31.833 99 46.5c26 9.33301 64 22.666 114 39.999s93.667 33.166 131 47.499s69 29.166 95 44.499v139c0 60 -16 109.167 -48 147.5s-81.333 57.5 -148 57.5
c-61.333 0 -106.666 -22 -135.999 -66c0 -9.33301 2.5 -32.166 7.5 -68.499s7.5 -60.5 7.5 -72.5c0 -22 -9.66699 -40.5 -29 -55.5s-43.333 -22.5 -72 -22.5c-46.667 0 -69.667 32 -69 96c0 58.667 31.333 109.5 94 152.5s132.334 64.5 209.001 64.5
s139.167 -8.5 187.5 -25.5s85.5 -50.833 111.5 -101.5c74 84.667 168.333 127 283 127c125.333 0 217.333 -36.833 276 -110.5s88 -172.5 88 -296.5v-19h-614c0 -322 103 -483 309 -483c75.333 0 133 14.667 173 44s82 78.666 126 147.999l24 -14
c-35.333 -75.333 -84 -134 -146 -176s-133.333 -63 -214 -63c-166.667 0 -289.667 69.333 -369 208c-83.333 -139.333 -202.666 -208.666 -357.999 -207.999c-70.667 0 -127.167 18.333 -169.5 55s-63.5 87 -63.5 151zM220.997 211.004c0 -116 50.668 -174 152.001 -174
c83.333 0 159 41.667 227 125l8 366c-132.667 -38 -230.334 -78.833 -293.001 -122.5s-94 -108.5 -94 -194.5zM753.998 561.004l460 4.00098c0 109.333 -14.667 196.166 -44 260.499s-83.333 96.5 -162 96.5c-74 0 -134.167 -32.167 -180.5 -96.5
s-70.833 -152.5 -73.5 -264.5z" />
    <glyph glyph-name="ccedilla" unicode="&#xe7;" horiz-adv-x="841" 
d="M55 467c0 131.333 40 244.666 120 339.999s184.667 143 314 143c94 0 168.5 -23.5 223.5 -70.5s82.5 -102.5 82.5 -166.5c0 -69.333 -31 -104.333 -93 -105c-23.333 0 -45.166 7.16699 -65.499 21.5s-30.5 37.833 -30.5 70.5c0 34 4.16699 61.667 12.5 83
s12.5 36 12.5 44c-12 64 -60 96.333 -144 97c-76.667 0 -141.167 -37 -193.5 -111s-78.5 -184 -78.5 -330c0 -125.333 26.333 -230.333 79 -315s124 -127 214 -127c65.333 0 119.5 13.333 162.5 40s87.167 75.334 132.5 146.001l22 -14
c-76.667 -155.333 -195.334 -233 -356.001 -233c-130 0 -231.5 45 -304.5 135s-109.5 207.333 -109.5 352zM279 -428h49l49 2l45 4l43 6l39 15l28 20l17 29l8 41c0 57.333 -58 86 -174 86v241h45v-135c69.333 0 129.333 -11.833 180 -35.5s76 -63.5 76 -119.5
c0 -39.333 -10.5 -72.833 -31.5 -100.5s-52 -47.667 -93 -60s-83 -20.833 -126 -25.5s-94.5 -7 -154.5 -7v39z" />
    <glyph glyph-name="egrave" unicode="&#xe8;" horiz-adv-x="870" 
d="M55 471c0 128.667 37.332 240.667 111.999 336s173.334 143 296.001 143c125.333 0 217.333 -37.167 276 -111.5s88 -174.166 88 -299.499v-15h-614v-20c0 -140.667 25.333 -253 76 -337s128.334 -126 233.001 -126c75.333 0 133.166 14.667 173.499 44
s82.166 78.666 125.499 147.999l25 -14c-35.333 -75.333 -84.166 -134 -146.499 -176s-133.833 -63 -214.5 -63c-140.667 0 -247.5 46.333 -320.5 139s-109.5 210 -109.5 352zM212.999 561l460.999 4.00098c0 109.333 -14.667 196.166 -44 260.499
s-83.666 96.5 -162.999 96.5c-72.667 0 -132.5 -32.167 -179.5 -96.5s-71.833 -152.5 -74.5 -264.5zM218.998 1423c0 20.667 6.50098 38.165 19.501 52.498s30.5 21.5 52.5 21.5c46.667 0 87 -29.333 121 -88c49.333 -83.333 116.666 -187 201.999 -311l-20 -19l-299 234
c-22 18 -36.667 30.333 -44 37s-14.5 16.334 -21.5 29.001s-10.5 27.334 -10.5 44.001z" />
    <glyph glyph-name="eacute" unicode="&#xe9;" horiz-adv-x="870" 
d="M55 471c0 128.667 37.332 240.667 111.999 336s173.334 143 296.001 143c125.333 0 217.333 -37.167 276 -111.5s88 -174.166 88 -299.499v-15h-614v-20c0 -140.667 25.333 -253 76 -337s128.334 -126 233.001 -126c75.333 0 133.166 14.667 173.499 44
s82.166 78.666 125.499 147.999l25 -14c-35.333 -75.333 -84.166 -134 -146.499 -176s-133.833 -63 -214.5 -63c-140.667 0 -247.5 46.333 -320.5 139s-109.5 210 -109.5 352zM212.999 561l460.999 4.00098c0 109.333 -14.667 196.166 -44 260.499
s-83.666 96.5 -162.999 96.5c-72.667 0 -132.5 -32.167 -179.5 -96.5s-71.833 -152.5 -74.5 -264.5zM251.998 1098c86 124 153.667 227.668 203 311.001c34 58.667 74 88 120 88c22 0 39.5 -7.16699 52.5 -21.5s19.5 -31.833 19.5 -52.5
c0 -23.333 -5.16699 -41.333 -15.5 -54s-30.5 -31.334 -60.5 -56.001l-299 -234z" />
    <glyph glyph-name="ecircumflex" unicode="&#xea;" horiz-adv-x="870" 
d="M55 471c0 128.667 37.332 240.667 111.999 336s173.334 143 296.001 143c125.333 0 217.333 -37.167 276 -111.5s88 -174.166 88 -299.499v-15h-614v-20c0 -140.667 25.333 -253 76 -337s128.334 -126 233.001 -126c75.333 0 133.166 14.667 173.499 44
s82.166 78.666 125.499 147.999l25 -14c-35.333 -75.333 -84.166 -134 -146.499 -176s-133.833 -63 -214.5 -63c-140.667 0 -247.5 46.333 -320.5 139s-109.5 210 -109.5 352zM122.999 1098c31.333 46.667 62.002 93.502 92.002 140.502s57.667 91 83 132
s43.333 69.5 54 85.5c13.333 19.333 24.833 31.666 34.5 36.999s26.167 8 49.5 8c22 0 38.167 -2.66699 48.5 -8s20.833 -16.333 31.5 -33c13.333 -19.333 44.666 -69.833 93.999 -151.5s93.666 -151.834 132.999 -210.501l-20 -19l-287 285l-293 -285zM213.001 561.002
l460.999 4.00098c0 109.333 -14.667 196.166 -44 260.499s-83.666 96.5 -162.999 96.5c-72.667 0 -132.5 -32.167 -179.5 -96.5s-71.833 -152.5 -74.5 -264.5z" />
    <glyph glyph-name="edieresis" unicode="&#xeb;" horiz-adv-x="870" 
d="M55 471c0 128.667 37.332 240.667 111.999 336s173.334 143 296.001 143c125.333 0 217.333 -37.167 276 -111.5s88 -174.166 88 -299.499v-15h-614v-20c0 -140.667 25.333 -253 76 -337s128.334 -126 233.001 -126c75.333 0 133.166 14.667 173.499 44
s82.166 78.666 125.499 147.999l25 -14c-35.333 -75.333 -84.166 -134 -146.499 -176s-133.833 -63 -214.5 -63c-140.667 0 -247.5 46.333 -320.5 139s-109.5 210 -109.5 352zM124.999 1309c0 28.667 10.167 53.167 30.5 73.5s44.166 30.5 71.499 30.5
c30 0 55.333 -9.5 76 -28.5s31 -41.5 31 -67.5c0 -30 -10.333 -55.667 -31 -77s-46 -32 -76 -32c-27.333 0 -51.166 10 -71.499 30s-30.5 43.667 -30.5 71zM212.999 561l460.999 4.00098c0 109.333 -14.667 196.166 -44 260.499s-83.666 96.5 -162.999 96.5
c-72.667 0 -132.5 -32.167 -179.5 -96.5s-71.833 -152.5 -74.5 -264.5zM558.998 1309c0 28.667 9.83301 53.167 29.5 73.5s44.167 30.5 73.5 30.5c30 0 54.833 -9.5 74.5 -28.5s29.5 -41.5 29.5 -67.5c0 -30 -9.83301 -55.667 -29.5 -77s-44.5 -32 -74.5 -32
c-28.667 0 -53 10 -73 30s-30 43.667 -30 71z" />
    <glyph glyph-name="igrave" unicode="&#xec;" horiz-adv-x="532" 
d="M33 897v16l303 23l14 -14v-783c0 -46.667 18.667 -78.667 56 -96c36.667 -13.333 66.667 -21 90 -23v-20h-433v20c44 2.66699 74.333 7 91 13c36.667 12 55 43.333 55 94v629c0 42 -19 76 -57 102c-35.333 23.333 -75 36.333 -119 39zM51 1423
c0 20.667 6.50098 38.165 19.501 52.498s30.5 21.5 52.5 21.5c46.667 0 87 -29.333 121 -88c49.333 -83.333 116.666 -187 201.999 -311l-20 -19l-299 234c-22 18 -36.667 30.333 -44 37s-14.5 16.334 -21.5 29.001s-10.5 27.334 -10.5 44.001z" />
    <glyph glyph-name="iacute" unicode="&#xed;" horiz-adv-x="532" 
d="M33 897v16l303 23l14 -14v-783c0 -46.667 18.667 -78.667 56 -96c36.667 -13.333 66.667 -21 90 -23v-20h-433v20c44 2.66699 74.333 7 91 13c36.667 12 55 43.333 55 94v629c0 42 -19 76 -57 102c-35.333 23.333 -75 36.333 -119 39zM84 1098
c86 124 153.667 227.668 203 311.001c34 58.667 74.333 88 121 88c22 0 39.333 -7.16699 52 -21.5s19 -31.833 19 -52.5c0 -23.333 -5 -41.333 -15 -54s-30.333 -31.334 -61 -56.001l-299 -234z" />
    <glyph glyph-name="icircumflex" unicode="&#xee;" horiz-adv-x="532" 
d="M2 1094l182 361.999c9.33301 20.667 19.166 33.334 29.499 38.001s28.5 7 54.5 7c40.667 0 67.334 -13.667 80.001 -41l180 -366l-22 -15l-240 287l-241 -287zM33 896.999v16l303 23l14 -14v-783c0 -46.667 18.667 -78.667 56 -96c36.667 -13.333 66.667 -21 90 -23v-20
h-433v20c44 2.66699 74.333 7 91 13c36.667 12 55 43.333 55 94v629c0 42 -19 76 -57 102c-35.333 23.333 -75 36.333 -119 39z" />
    <glyph glyph-name="idieresis" unicode="&#xef;" horiz-adv-x="532" 
d="M-29 1321c0 28.667 10.333 53.167 31 73.5s44.667 30.5 72 30.5c30 0 55.167 -9.5 75.5 -28.5s30.5 -41.5 30.5 -67.5c0 -30 -10.167 -55.5 -30.5 -76.5s-45.5 -31.5 -75.5 -31.5c-27.333 0 -51.333 9.83301 -72 29.5s-31 43.167 -31 70.5zM33 897v16l303 23l14 -14v-783
c0 -46.667 18.667 -78.667 56 -96c36.667 -13.333 66.667 -21 90 -23v-20h-433v20c44 2.66699 74.333 7 91 13c36.667 12 55 43.333 55 94v629c0 42 -19 76 -57 102c-35.333 23.333 -75 36.333 -119 39zM352 1321c0 28.667 10 53.167 30 73.5s44.333 30.5 73 30.5
c30 0 54.833 -9.5 74.5 -28.5s29.5 -41.5 29.5 -67.5c0 -30 -9.83301 -55.5 -29.5 -76.5s-44.5 -31.5 -74.5 -31.5c-28.667 0 -53 9.83301 -73 29.5s-30 43.167 -30 70.5z" />
    <glyph glyph-name="eth" unicode="&#xf0;" horiz-adv-x="1054" 
d="M51 471c0 143.333 42.3311 259.333 126.998 348s194 133 328 133c58.667 0 112.167 -13 160.5 -39s84.833 -58 109.5 -96l8 2c-24 207.333 -88.667 377.333 -194 510l-228 -151l-18 30l221 148c-44 53.333 -97 100.333 -159 141l8 29
c70.667 -35.333 137.334 -81 200.001 -137l183 122l18 -30l-174 -117c204.667 -194 307 -451.333 307 -772c0 -109.333 -13.667 -209 -41 -299s-74.666 -166.167 -141.999 -228.5s-151 -93.5 -251 -93.5c-130 0 -239.667 42.667 -329 128s-134 209.333 -134 372z
M206.998 481c0 -148.667 26.333 -265.666 79 -350.999s124.667 -128 216 -128c92.667 0 163.167 46.167 211.5 138.5s72.5 210.166 72.5 353.499c0 128.667 -25.167 232.5 -75.5 311.5s-118.5 118.5 -204.5 118.5c-100 0 -174.833 -41.333 -224.5 -124
s-74.5 -189 -74.5 -319z" />
    <glyph glyph-name="ntilde" unicode="&#xf1;" horiz-adv-x="1142" 
d="M51 893l0.000976562 19.999l283 23l14 -14v-140h4c16.667 15.333 32.5 30.833 47.5 46.5s32.333 31 52 46s40.167 28 61.5 39s46.666 19.833 75.999 26.5s61 10 95 10c92.667 0 162 -28.667 208 -86s69 -136.333 69 -237v-488c0 -46.667 18.333 -78 55 -94
c27.333 -12 57.333 -18.667 90 -20v-25h-457v25c48 2.66699 83 6.66699 105 12c42 12 63 43.333 63 94v524c0 68 -18.667 122.333 -56 163s-82 61 -134 61c-70.667 0 -130.334 -16.5 -179.001 -49.5s-82 -66.5 -100 -100.5v-588c0 -45.333 20.667 -76.666 62 -93.999
c28.667 -12 63.334 -19.333 104.001 -22v-25h-455v25c44 2.66699 74.333 6.66699 91 12c38 12 57 43.333 57 94v621c0 46.667 -18.333 82.667 -55 108c-30 19.333 -63.667 30.333 -101 33zM190.001 1145c22 64 53.835 120.168 95.502 168.501s91.834 72.5 150.501 72.5
c56 0 113 -18.333 171 -55s101.333 -55 130 -55c30 0 55 2.66699 75 8s37.5 17 52.5 35s25.167 32 30.5 42s15.666 30 30.999 60l22 -8c-18 -65.333 -48.333 -122 -91 -170s-96.334 -72 -161.001 -72c-48 0 -90.333 9.66699 -127 29s-69.334 38.166 -98.001 56.499
s-57.334 27.5 -86.001 27.5c-27.333 0 -51.5 -7.16699 -72.5 -21.5s-36.667 -29.333 -47 -45s-27.166 -43.167 -50.499 -82.5z" />
    <glyph glyph-name="ograve" unicode="&#xf2;" horiz-adv-x="1007" 
d="M53 457c0 146 41.999 264.668 125.999 356.001s194.333 137 331 137c132.667 0 239.834 -45.333 321.501 -136s122.5 -204.334 122.5 -341.001c0 -140.667 -41.5 -259.167 -124.5 -355.5s-195.5 -144.5 -337.5 -144.5c-120 0 -223.167 44.833 -309.5 134.5
s-129.5 206.167 -129.5 349.5zM210.999 475.001c0 -136.667 24.5 -249.666 73.5 -338.999s122.833 -134 221.5 -134c94 0 166 44.667 216 134s75 201 75 335c0 79.333 -9 151.333 -27 216s-49.5 120 -94.5 166s-101.5 69 -169.5 69c-72.667 0 -132.167 -24.333 -178.5 -73
s-77.333 -104.334 -93 -167.001s-23.5 -131.667 -23.5 -207zM288.999 1423c0 20.667 6.50098 38.165 19.501 52.498s30.167 21.5 51.5 21.5c46.667 0 87 -29.333 121 -88c49.333 -83.333 117 -187 203 -311l-20 -19l-299 234c-22 18 -36.833 30.333 -44.5 37
s-14.834 16.334 -21.501 29.001s-10 27.334 -10 44.001z" />
    <glyph glyph-name="oacute" unicode="&#xf3;" horiz-adv-x="1007" 
d="M53 457c0 146 41.999 264.668 125.999 356.001s194.333 137 331 137c132.667 0 239.834 -45.333 321.501 -136s122.5 -204.334 122.5 -341.001c0 -140.667 -41.5 -259.167 -124.5 -355.5s-195.5 -144.5 -337.5 -144.5c-120 0 -223.167 44.833 -309.5 134.5
s-129.5 206.167 -129.5 349.5zM210.999 475.001c0 -136.667 24.5 -249.666 73.5 -338.999s122.833 -134 221.5 -134c94 0 166 44.667 216 134s75 201 75 335c0 79.333 -9 151.333 -27 216s-49.5 120 -94.5 166s-101.5 69 -169.5 69c-72.667 0 -132.167 -24.333 -178.5 -73
s-77.333 -104.334 -93 -167.001s-23.5 -131.667 -23.5 -207zM321.999 1098c86 124 153.333 227.668 202 311.001c34 58.667 74.333 88 121 88c22 0 39.5 -7.16699 52.5 -21.5s19.5 -31.833 19.5 -52.5c0 -23.333 -5.16699 -41.333 -15.5 -54s-30.5 -31.334 -60.5 -56.001
l-299 -234z" />
    <glyph glyph-name="ocircumflex" unicode="&#xf4;" horiz-adv-x="1007" 
d="M53 457c0 146 41.999 264.668 125.999 356.001s194.333 137 331 137c132.667 0 239.834 -45.333 321.501 -136s122.5 -204.334 122.5 -341.001c0 -140.667 -41.5 -259.167 -124.5 -355.5s-195.5 -144.5 -337.5 -144.5c-120 0 -223.167 44.833 -309.5 134.5
s-129.5 206.167 -129.5 349.5zM192.999 1098c31.333 46.667 62.002 93.502 92.002 140.502s57.667 91 83 132s43.333 69.5 54 85.5c13.333 19.333 24.833 31.666 34.5 36.999s26.167 8 49.5 8c22 0 38 -2.66699 48 -8s20.667 -16.333 32 -33
c13.333 -19.333 44.666 -69.833 93.999 -151.5s93.666 -151.834 132.999 -210.501l-20 -19l-287 285l-293 -285zM211.001 475.003c0 -136.667 24.5 -249.666 73.5 -338.999s122.833 -134 221.5 -134c94 0 166 44.667 216 134s75 201 75 335c0 79.333 -9 151.333 -27 216
s-49.5 120 -94.5 166s-101.5 69 -169.5 69c-72.667 0 -132.167 -24.333 -178.5 -73s-77.333 -104.334 -93 -167.001s-23.5 -131.667 -23.5 -207z" />
    <glyph glyph-name="otilde" unicode="&#xf5;" horiz-adv-x="1007" 
d="M53 457c0 146 41.999 264.668 125.999 356.001s194.333 137 331 137c132.667 0 239.834 -45.333 321.501 -136s122.5 -204.334 122.5 -341.001c0 -140.667 -41.5 -259.167 -124.5 -355.5s-195.5 -144.5 -337.5 -144.5c-120 0 -223.167 44.833 -309.5 134.5
s-129.5 206.167 -129.5 349.5zM122.999 1145c22 64 53.8311 120.168 95.498 168.501s91.834 72.5 150.501 72.5c56 0 113 -18.333 171 -55s101.333 -55 130 -55c30 0 54.833 2.66699 74.5 8s37 17 52 35s25.333 32 31 42s15.834 30 30.501 60l23 -8
c-18 -65.333 -48.5 -122 -91.5 -170s-96.5 -72 -160.5 -72c-48 0 -90.5 9.66699 -127.5 29s-69.833 38.166 -98.5 56.499s-57.334 27.5 -86.001 27.5c-27.333 0 -51.5 -7.16699 -72.5 -21.5s-36.667 -29.333 -47 -45s-27.166 -43.167 -50.499 -82.5zM210.997 475.002
c0 -136.667 24.5 -249.666 73.5 -338.999s122.833 -134 221.5 -134c94 0 166 44.667 216 134s75 201 75 335c0 79.333 -9 151.333 -27 216s-49.5 120 -94.5 166s-101.5 69 -169.5 69c-72.667 0 -132.167 -24.333 -178.5 -73s-77.333 -104.334 -93 -167.001
s-23.5 -131.667 -23.5 -207z" />
    <glyph glyph-name="odieresis" unicode="&#xf6;" horiz-adv-x="1007" 
d="M53 457c0 146 41.999 264.668 125.999 356.001s194.333 137 331 137c132.667 0 239.834 -45.333 321.501 -136s122.5 -204.334 122.5 -341.001c0 -140.667 -41.5 -259.167 -124.5 -355.5s-195.5 -144.5 -337.5 -144.5c-120 0 -223.167 44.833 -309.5 134.5
s-129.5 206.167 -129.5 349.5zM181.999 1309c0 28.667 10.333 53.167 31 73.5s44.667 30.5 72 30.5c30 0 55.167 -9.5 75.5 -28.5s30.5 -41.5 30.5 -67.5c0 -30 -10.167 -55.667 -30.5 -77s-45.5 -32 -75.5 -32c-27.333 0 -51.333 10 -72 30s-31 43.667 -31 71z
M210.999 475.001c0 -136.667 24.5 -249.666 73.5 -338.999s122.833 -134 221.5 -134c94 0 166 44.667 216 134s75 201 75 335c0 79.333 -9 151.333 -27 216s-49.5 120 -94.5 166s-101.5 69 -169.5 69c-72.667 0 -132.167 -24.333 -178.5 -73s-77.333 -104.334 -93 -167.001
s-23.5 -131.667 -23.5 -207zM615.999 1309c0 28.667 10 53.167 30 73.5s44.333 30.5 73 30.5c30 0 54.833 -9.5 74.5 -28.5s29.5 -41.5 29.5 -67.5c0 -30 -9.83301 -55.667 -29.5 -77s-44.5 -32 -74.5 -32c-28.667 0 -53 10 -73 30s-30 43.667 -30 71z" />
    <glyph glyph-name="divide" unicode="&#xf7;" 
d="M66 502v59h987v-59h-987zM442 153.5c0 33 11.333 61 34 84s50.334 34.5 83.001 34.5s60.667 -11.5 84 -34.5s35 -51 35 -84s-11.667 -60.667 -35 -83s-51.333 -33.5 -84 -33.5s-60.334 11.167 -83.001 33.5s-34 50 -34 83zM442 907c0 32.667 11.333 60.667 34 84
s50.334 35 83.001 35s60.667 -11.667 84 -35s35 -51.333 35 -84s-11.667 -60.167 -35 -82.5s-51.333 -33.5 -84 -33.5s-60.334 11.167 -83.001 33.5s-34 49.833 -34 82.5z" />
    <glyph glyph-name="oslash" unicode="&#xf8;" horiz-adv-x="1007" 
d="M53 457c0 146 42 264.667 126 356s194.333 137 331 137c118.667 0 217.667 -37.333 297 -112l147 178l25 -21l-150 -178c83.333 -90 125 -204.667 125 -344c0 -140.667 -41.5 -259.167 -124.5 -355.5s-195.5 -144.5 -337.5 -144.5c-108 0 -201.667 35.667 -281 107
l-113 -135l-22 18l112 137c-90 92.667 -135 211.667 -135 357zM211 475c0 -112 16.333 -208.999 49 -290.999l481 576c-52 108 -130.333 162 -235 162c-72.667 0 -132.167 -24.333 -178.5 -73s-77.333 -104.334 -93 -167.001s-23.5 -131.667 -23.5 -207zM274 154.001
c54.667 -101.333 132 -152 232 -152c94 0 166 44.667 216 134s75 201 75 335c0 98 -13.667 183.333 -41 256z" />
    <glyph glyph-name="ugrave" unicode="&#xf9;" horiz-adv-x="1105" 
d="M27 889v21.9971l282 25l17 -14v-664c0 -69.333 16.667 -123.166 50 -161.499s76 -57.5 128 -57.5c116 0 206 48.333 270 145v578c0 45.333 -18.333 79.333 -55 102c-20.667 13.333 -67.667 21.666 -141 24.999v22l325 25l15 -14v-758
c0 -40.667 17.667 -73.334 53 -98.001c20.667 -13.333 52.667 -21.666 96 -24.999v-25l-276 -18l-15 14v125h-6c-12 -12 -24.833 -24.5 -38.5 -37.5s-27 -25.667 -40 -38s-28.5 -23.666 -46.5 -33.999s-36.167 -19.166 -54.5 -26.499s-39.833 -13.166 -64.5 -17.499
s-51.334 -6.5 -80.001 -6.5c-91.333 0 -158.5 30.167 -201.5 90.5s-64.5 141.5 -64.5 243.5v445c0 44 -17.667 78 -53 102c-27.333 18 -60.666 28.333 -99.999 31zM338 1423c0 20.667 6.50098 38.165 19.501 52.498s30.5 21.5 52.5 21.5c46.667 0 86.667 -29.333 120 -88
c49.333 -83.333 117 -187 203 -311l-20 -19l-299 234c-22 18 -36.833 30.333 -44.5 37s-14.834 16.334 -21.501 29.001s-10 27.334 -10 44.001z" />
    <glyph glyph-name="uacute" unicode="&#xfa;" horiz-adv-x="1105" 
d="M27 889v21.9971l282 25l17 -14v-664c0 -69.333 16.667 -123.166 50 -161.499s76 -57.5 128 -57.5c116 0 206 48.333 270 145v578c0 45.333 -18.333 79.333 -55 102c-20.667 13.333 -67.667 21.666 -141 24.999v22l325 25l15 -14v-758
c0 -40.667 17.667 -73.334 53 -98.001c20.667 -13.333 52.667 -21.666 96 -24.999v-25l-276 -18l-15 14v125h-6c-12 -12 -24.833 -24.5 -38.5 -37.5s-27 -25.667 -40 -38s-28.5 -23.666 -46.5 -33.999s-36.167 -19.166 -54.5 -26.499s-39.833 -13.166 -64.5 -17.499
s-51.334 -6.5 -80.001 -6.5c-91.333 0 -158.5 30.167 -201.5 90.5s-64.5 141.5 -64.5 243.5v445c0 44 -17.667 78 -53 102c-27.333 18 -60.666 28.333 -99.999 31zM371 1098c86 124 153.333 227.668 202 311.001c34 58.667 74.333 88 121 88c22 0 39.5 -7.16699 52.5 -21.5
s19.5 -31.833 19.5 -52.5c0 -23.333 -5.16699 -41.333 -15.5 -54s-30.5 -31.334 -60.5 -56.001l-299 -234z" />
    <glyph glyph-name="ucircumflex" unicode="&#xfb;" horiz-adv-x="1105" 
d="M27 889v21.9971l282 25l17 -14v-664c0 -69.333 16.667 -123.166 50 -161.499s76 -57.5 128 -57.5c116 0 206 48.333 270 145v578c0 45.333 -18.333 79.333 -55 102c-20.667 13.333 -67.667 21.666 -141 24.999v22l325 25l15 -14v-758
c0 -40.667 17.667 -73.334 53 -98.001c20.667 -13.333 52.667 -21.666 96 -24.999v-25l-276 -18l-15 14v125h-6c-12 -12 -24.833 -24.5 -38.5 -37.5s-27 -25.667 -40 -38s-28.5 -23.666 -46.5 -33.999s-36.167 -19.166 -54.5 -26.499s-39.833 -13.166 -64.5 -17.499
s-51.334 -6.5 -80.001 -6.5c-91.333 0 -158.5 30.167 -201.5 90.5s-64.5 141.5 -64.5 243.5v445c0 44 -17.667 78 -53 102c-27.333 18 -60.666 28.333 -99.999 31zM242 1098c31.333 46.667 62.002 93.502 92.002 140.502s57.667 91 83 132s43.333 69.5 54 85.5
c13.333 19.333 24.833 31.666 34.5 36.999s26.167 8 49.5 8c22 0 38 -2.66699 48 -8s20.667 -16.333 32 -33c13.333 -19.333 44.666 -69.833 93.999 -151.5s93.666 -151.834 132.999 -210.501l-20 -19l-287 285l-293 -285z" />
    <glyph glyph-name="udieresis" unicode="&#xfc;" horiz-adv-x="1105" 
d="M27 889v21.9971l282 25l17 -14v-664c0 -69.333 16.667 -123.166 50 -161.499s76 -57.5 128 -57.5c116 0 206 48.333 270 145v578c0 45.333 -18.333 79.333 -55 102c-20.667 13.333 -67.667 21.666 -141 24.999v22l325 25l15 -14v-758
c0 -40.667 17.667 -73.334 53 -98.001c20.667 -13.333 52.667 -21.666 96 -24.999v-25l-276 -18l-15 14v125h-6c-12 -12 -24.833 -24.5 -38.5 -37.5s-27 -25.667 -40 -38s-28.5 -23.666 -46.5 -33.999s-36.167 -19.166 -54.5 -26.499s-39.833 -13.166 -64.5 -17.499
s-51.334 -6.5 -80.001 -6.5c-91.333 0 -158.5 30.167 -201.5 90.5s-64.5 141.5 -64.5 243.5v445c0 44 -17.667 78 -53 102c-27.333 18 -60.666 28.333 -99.999 31zM223 1309c0 28.667 10.333 53.167 31 73.5s44.667 30.5 72 30.5c30 0 55.167 -9.5 75.5 -28.5
s30.5 -41.5 30.5 -67.5c0 -30 -10.167 -55.667 -30.5 -77s-45.5 -32 -75.5 -32c-27.333 0 -51.333 10 -72 30s-31 43.667 -31 71zM657 1309c0 28.667 10 53.167 30 73.5s44.333 30.5 73 30.5c30 0 54.833 -9.5 74.5 -28.5s29.5 -41.5 29.5 -67.5
c0 -30 -9.83301 -55.667 -29.5 -77s-44.5 -32 -74.5 -32c-28.667 0 -53 10 -73 30s-30 43.667 -30 71z" />
    <glyph glyph-name="yacute" unicode="&#xfd;" horiz-adv-x="897" 
d="M-37 899l-0.000976562 25h402v-27c-28.667 -1.33301 -54.667 -6.16602 -78 -14.499s-35 -19.166 -35 -32.499l14 -43c13.333 -38 50.5 -134.5 111.5 -289.5s104.5 -266.833 130.5 -335.5h2c101.333 243.333 180.666 438.666 237.999 585.999c9.33301 26 14 45 14 57
c0 16.667 -19.5 32.5 -58.5 47.5s-72.167 23.833 -99.5 26.5v25h350v-23c-20.667 -2.66699 -48 -15.334 -82 -38.001s-57 -48.334 -69 -77.001l-248 -589c-15.333 -36.667 -33.166 -81 -53.499 -133s-33.166 -83.667 -38.499 -95c-74 -170.667 -135.833 -285 -185.5 -343
s-106.834 -87 -171.501 -87c-31.333 0 -62 10.333 -92 31s-45 51.334 -45 92.001c0 26 10 50 30 72s45 33 75 33c24.667 0 46.167 -6.83301 64.5 -20.5s27.5 -37.167 27.5 -70.5v-69c39.333 9.33301 83 49.833 131 121.5s91.667 157.5 131 257.5l-317 811
c-23.333 57.333 -72.666 91.333 -147.999 102zM265.999 1098c86 124 153.667 227.668 203 311.001c34 58.667 74.333 88 121 88c22 0 39.5 -7.16699 52.5 -21.5s19.5 -31.833 19.5 -52.5c0 -23.333 -5.16699 -41.333 -15.5 -54s-30.5 -31.334 -60.5 -56.001l-299 -234z" />
    <glyph glyph-name="thorn" unicode="&#xfe;" horiz-adv-x="1099" 
d="M23 1485l-0.00292969 19.999l290 23l15 -12v-697l8 -2c82 88.667 174 133 276 133c120 0 222 -46 306 -138s126 -211 126 -357c0 -138 -46.667 -252.5 -140 -343.5s-203 -136.5 -329 -136.5c-100 0 -178.333 21.333 -235 64h-8v2v-2v-2v-2v-2v-2v-2v-2v-2v-2v-3v-2v-2v-2
v-2v-2v-2v-2v-2v-2v-2v-2v-2v-2v-2v-2v-2v-2v-2v-2v-5v-2v-2v-2v-2v-2v-2v-4v-2v-2v-2v-4v-2v-2v-2v-4v-2v-2v-5v-2v-2v-4v-2v-4v-2v-2v-4v-2v-4v-2v-4v-2v-5v-2v-4v-2v-4v-2v-4v-4v-2v-4v-2v-4v-4v-3v-4v-4v-2v-4v-4v-4v-2v-4v-4v-4v-2v-5v-4v-4v-4v-4v-2v-4v-4v-4v-4v-4
v-5v-4v-4v-4v-4v-4v-4v-4v-4v-4v-7v-4v-4v-4v-20c0 -50.667 19 -83.667 57 -99c40.667 -16.667 86.334 -26 137.001 -28v-25h-501v25c50.667 2.66699 87.334 8 110.001 16c15.333 5.33301 33 38 53 98v-2v2v2v3v2v2v2v2v2v2v2v2v2v2v2v2v2v2v2v2v2v2v2v2v3v2v2v2v2v2v2v2v2
v2v2v2v2v2v2v2v2v2v2v2v2v3v2v2v2v2v2v2v2v2v2v2v2v2v2v2v2v2v2v2v2v2v3v2v2v2v2v2v2v2v2v2v2v2v2v2v2v2v2v2v2v2v2v3v2v2v2v2v2v2v2v2v2v2v2v2v2v2v2v2v2v2v2v3v2v2v2v2v2v2v2v2v2v2v2v2v2v2v2v2v2v2v2v2v3v2v2v2v2v2v2v2v2v2v2v2v2v2v2v2v2v4v2v2v3v2v2v2v2v2v2v2v4v2v2v2
v2v2v2v2v2v4v2v3v2v2v2v2v4v2v2v2v2v2v4v2v2v2v2v2v4v3v2v2v2v4v2v2v2v2v4v2v2v2v2v4v2v2v2v5v2v2v2v2v4v2v2v2v4v2v2v4v2v2v2v5v2v2v2v4v2v2v4v2v2v2v4v2v2v4v2v3v4v2v2v4v2v2v4v2v2v2v4v2v4v2v2v5v2v2v4v2v2v4v2v2v4v2v4v2v2v4v3v2v4v2v4v2v2v4v2v4v2v2v4v2v4v3v2v4v2v4v2
v4v2v2v4v2v4v2v4v2v5v2v4v2v2v4v2v4v2v4v2v4v2v5v2v4v2v4v2v4v2v4v2v4v2v4v2v5v2v4v2v4v2v4v2v4v2v4v2v4v2v5v2v4v4v2v4v2v4v2v4v2v4v4v2v5v2v4v2v4v4v2v4v2v4v2v4v4v3v4v2v4v4v2v4v2v4v4v2v4v2v5v4v2v4v4v2v4v4v2v4v2v4v5v2v4v4v2v4v4v2v4v4v2v4v4v3v4v4v2v4v4v2v4v4v2v4v4
v5v2v4v4v2v4v4v2v4v4v4v2v4v5v4v2v4v4v2v4v4v4v2v4v4v5v2v4v4v4v2v4v4v4v4v2v4v5v4v2v4v4v4v4v2v4v4v4v5v2v4v4v4v4v2v4v4v4v4v5v2v4v4v4v4v4v4v2v4v4v4v5v4v4v2v4v4v4v4v4v4v4v3v4v4v4v4v4v4v4v4v4v4v3v4v4v4v4v4v4v4v4v4v4v5v4v4v4v4v4v4v4v4v4v5v4v4v4v4v4v4v4v4v4v5v4v4
v4v4v4v4v6v4v4v5v4v4v4v6v4v4v4v4v6v5v4v4v6v4v6v19c-4 46.667 -21.667 80.667 -53 102c-31.333 20.667 -68.666 32.334 -111.999 35.001zM331.997 173.999c13.333 -42 41.5 -81.167 84.5 -117.5s97.5 -54.5 163.5 -54.5c88.667 0 161 40.333 217 121s84 192 84 334
c0 118.667 -26.333 220 -79 304s-131.667 126 -237 126c-90 0 -167.667 -37 -233 -111v-602z" />
    <glyph glyph-name="ydieresis" unicode="&#xff;" horiz-adv-x="897" 
d="M-37 899l-0.000976562 25h402v-27c-28.667 -1.33301 -54.667 -6.16602 -78 -14.499s-35 -19.166 -35 -32.499l14 -43c13.333 -38 50.5 -134.5 111.5 -289.5s104.5 -266.833 130.5 -335.5h2c101.333 243.333 180.666 438.666 237.999 585.999c9.33301 26 14 45 14 57
c0 16.667 -19.5 32.5 -58.5 47.5s-72.167 23.833 -99.5 26.5v25h350v-23c-20.667 -2.66699 -48 -15.334 -82 -38.001s-57 -48.334 -69 -77.001l-248 -589c-15.333 -36.667 -33.166 -81 -53.499 -133s-33.166 -83.667 -38.499 -95c-74 -170.667 -135.833 -285 -185.5 -343
s-106.834 -87 -171.501 -87c-31.333 0 -62 10.333 -92 31s-45 51.334 -45 92.001c0 26 10 50 30 72s45 33 75 33c24.667 0 46.167 -6.83301 64.5 -20.5s27.5 -37.167 27.5 -70.5v-69c39.333 9.33301 83 49.833 131 121.5s91.667 157.5 131 257.5l-317 811
c-23.333 57.333 -72.666 91.333 -147.999 102zM126.999 1309c0 28.667 10.167 53.167 30.5 73.5s44.166 30.5 71.499 30.5c30 0 55.333 -9.5 76 -28.5s31 -41.5 31 -67.5c0 -30 -10.333 -55.667 -31 -77s-46 -32 -76 -32c-27.333 0 -51.166 10 -71.499 30
s-30.5 43.667 -30.5 71zM560.999 1309c0 28.667 10 53.167 30 73.5s44.333 30.5 73 30.5c30 0 54.833 -9.5 74.5 -28.5s29.5 -41.5 29.5 -67.5c0 -30 -9.83301 -55.667 -29.5 -77s-44.5 -32 -74.5 -32c-28.667 0 -53 10 -73 30s-30 43.667 -30 71z" />
    <glyph glyph-name="OE" unicode="&#x152;" horiz-adv-x="2082" 
d="M72 709c0 114.667 22.832 217.334 68.499 308.001s106.334 163 182.001 217s159.334 95 251.001 123s186.5 42 284.5 42h1077v-309h-34c-12 50.667 -39 106 -81 166s-82.667 92.667 -122 98c-44 5.33301 -100.667 8 -170 8h-283v-614h199c35.333 0 66 4.66699 92 14
s41 16 45 20l33 33c27.333 27.333 46.333 89.333 57 186h35v-563h-35c-2.66699 31.333 -9.83398 68.833 -21.501 112.5s-23.5 71.834 -35.5 84.501c-13.333 13.333 -24.166 23.833 -32.499 31.5s-24.833 15.5 -49.5 23.5s-54 12 -88 12h-199v-473
c0 -82 14.667 -133.5 44 -154.5s96.666 -31.5 201.999 -31.5c35.333 -1.33301 72.5 -1.66602 111.5 -0.999023s74.833 2 107.5 4s62 6.5 88 13.5s45 16.5 57 28.5c27.333 28.667 57.5 75.167 90.5 139.5s56.167 116.166 69.5 155.499h31l-27 -383h-1202
c-58.667 0 -119 6.5 -181 19.5s-127.5 36.167 -196.5 69.5s-130.167 75.666 -183.5 126.999s-97.333 119.666 -132 204.999s-52 181.333 -52 288zM269.999 709c0 -195.333 56.999 -356.5 170.999 -483.5s263.333 -190.5 448 -190.5c79.333 0 130.833 9.83301 154.5 29.5
s35.5 48.167 35.5 85.5v1028c0 122.667 -79.667 184 -239 184c-187.333 0 -329.166 -59.333 -425.499 -178s-144.5 -277 -144.5 -475z" />
    <glyph glyph-name="oe" unicode="&#x153;" horiz-adv-x="1609" 
d="M53 457c0 146 42 264.669 126 356.002s194.333 137 331 137c154 0 274.667 -66.667 362 -200c83.333 134 193.333 200.667 330 200c125.333 0 217.5 -37.167 276.5 -111.5s88.5 -172.833 88.5 -295.5v-19h-615v-20c0 -140.667 25.333 -253 76 -337s128.667 -126 234 -126
c75.333 0 133 14.667 173 44s82 78.666 126 147.999l24 -14c-35.333 -75.333 -84 -134 -146 -176s-133.333 -63 -214 -63c-158.667 -0.666992 -277 66.666 -355 201.999c-91.333 -139.333 -217.333 -209 -378 -209c-120 0 -223.167 44.833 -309.5 134.5
s-129.5 206.167 -129.5 349.5zM211 475.002c0 -136.667 24.5 -249.666 73.5 -338.999s122.833 -134 221.5 -134c94 0 166 44.667 216 134s75 201 75 335c0 79.333 -9 151.333 -27 216s-49.5 120 -94.5 166s-101.5 69 -169.5 69c-72.667 0 -132.167 -24.333 -178.5 -73
s-77.333 -104.334 -93 -167.001s-23.5 -131.667 -23.5 -207zM952 561.003l460.999 4.00098c0 109.333 -14.667 196.166 -44 260.499s-83.666 96.5 -162.999 96.5c-72.667 0 -132.5 -32.5 -179.5 -97.5s-71.833 -152.833 -74.5 -263.5z" />
    <glyph glyph-name="Ydieresis" unicode="&#x178;" horiz-adv-x="1179" 
d="M-80 1374v24.999h598v-25c-144.667 -8 -217 -31 -217 -69c0 -19.333 110 -231.666 330 -636.999c234.667 367.333 352 570 352 608c0 28.667 -26.667 51.167 -80 67.5s-110.666 26.5 -171.999 30.5v25h533v-25c-26 0 -59.667 -8 -101 -24
c-42 -15.333 -82.333 -50.333 -121 -105c-84.667 -116 -196.334 -303.667 -335.001 -563c-36.667 -68 -55.334 -137.667 -56.001 -209v-313c0 -50.667 21.333 -85 64 -103c44 -18 100 -28.667 168 -32v-25h-631v25c84.667 4 140.667 11.333 168 22c42 16.667 63 51 63 103
v409c0 8 -15.667 50.333 -47 127c-94 191.333 -184.667 363.333 -272 516c-38 66.667 -79 113 -123 139c-31.333 19.333 -71.666 30.333 -120.999 33zM268 1722c0 28.667 10.333 53.333 31 74s44.667 31 72 31c30 0 55.167 -9.5 75.5 -28.5s30.5 -41.5 30.5 -67.5
c0 -30 -10.167 -55.667 -30.5 -77s-45.5 -32 -75.5 -32c-27.333 0 -51.333 9.83301 -72 29.5s-31 43.167 -31 70.5zM702 1722c0 28.667 10 53.333 30 74s44.333 31 73 31c30 0 54.833 -9.5 74.5 -28.5s29.5 -41.5 29.5 -67.5c0 -30 -9.83301 -55.667 -29.5 -77
s-44.5 -32 -74.5 -32c-28.667 0 -53 9.83301 -73 29.5s-30 43.167 -30 70.5z" />
    <glyph glyph-name="circumflex" unicode="&#x2c6;" horiz-adv-x="1003" 
d="M190 1098c31.333 46.667 62.1689 93.502 92.502 140.502s58 91 83 132s43.167 69.5 54.5 85.5c13.333 19.333 24.833 31.666 34.5 36.999s26.167 8 49.5 8c22 0 38 -2.66699 48 -8s20.667 -16.333 32 -33c13.333 -19.333 44.666 -69.833 93.999 -151.5
s93.666 -151.834 132.999 -210.501l-20 -19l-287 285l-293 -285z" />
    <glyph glyph-name="tilde" unicode="&#x2dc;" horiz-adv-x="1003" 
d="M121 1145c22 64 53.8311 120.168 95.498 168.501s91.834 72.5 150.501 72.5c56 0 113 -18.333 171 -55s101.333 -55 130 -55c30 0 54.833 2.66699 74.5 8s37 17 52 35s25.333 32 31 42s15.834 30 30.501 60l23 -8c-18 -65.333 -48.5 -122 -91.5 -170
s-96.5 -72 -160.5 -72c-48 0 -90.5 9.66699 -127.5 29s-69.833 38.166 -98.5 56.499s-57.334 27.5 -86.001 27.5c-27.333 0 -51.5 -7.16699 -72.5 -21.5s-36.667 -29.333 -47 -45s-27.166 -43.167 -50.499 -82.5z" />
    <glyph glyph-name="uni2000" unicode="&#x2000;" horiz-adv-x="957" 
 />
    <glyph glyph-name="uni2001" unicode="&#x2001;" horiz-adv-x="1915" 
 />
    <glyph glyph-name="uni2002" unicode="&#x2002;" horiz-adv-x="957" 
 />
    <glyph glyph-name="uni2003" unicode="&#x2003;" horiz-adv-x="1915" 
 />
    <glyph glyph-name="uni2004" unicode="&#x2004;" horiz-adv-x="638" 
 />
    <glyph glyph-name="uni2005" unicode="&#x2005;" horiz-adv-x="478" 
 />
    <glyph glyph-name="uni2006" unicode="&#x2006;" horiz-adv-x="319" 
 />
    <glyph glyph-name="uni2007" unicode="&#x2007;" horiz-adv-x="319" 
 />
    <glyph glyph-name="uni2008" unicode="&#x2008;" horiz-adv-x="239" 
 />
    <glyph glyph-name="uni2009" unicode="&#x2009;" horiz-adv-x="383" 
 />
    <glyph glyph-name="uni200A" unicode="&#x200a;" horiz-adv-x="106" 
 />
    <glyph glyph-name="uni2010" unicode="&#x2010;" horiz-adv-x="772" 
d="M72 455v110h630v-110h-630z" />
    <glyph glyph-name="uni2011" unicode="&#x2011;" horiz-adv-x="772" 
d="M72 455v110h630v-110h-630z" />
    <glyph glyph-name="figuredash" unicode="&#x2012;" horiz-adv-x="772" 
d="M72 455v110h630v-110h-630z" />
    <glyph glyph-name="endash" unicode="&#x2013;" horiz-adv-x="1093" 
d="M94 498v90h905v-90h-905z" />
    <glyph glyph-name="emdash" unicode="&#x2014;" horiz-adv-x="1892" 
d="M145 477v88h1602v-88h-1602z" />
    <glyph glyph-name="quoteleft" unicode="&#x2018;" horiz-adv-x="319" 
d="M14 1159c0 54.667 21.832 112.331 65.499 172.998s103.834 110.334 180.501 149.001l19 -31c-126.667 -75.333 -193.667 -162.666 -201 -261.999h61c39.333 0 69 -10.667 89 -32s30 -47 30 -77c0 -26 -10.167 -49.833 -30.5 -71.5s-42.833 -32.5 -67.5 -32.5
c-53.333 0 -91 15.333 -113 46s-33 76.667 -33 138z" />
    <glyph glyph-name="quoteright" unicode="&#x2019;" horiz-adv-x="319" 
d="M41 1034c126.667 75.333 193.667 162.668 201 262.001h-62c-39.333 0 -69 10.667 -89 32s-30 47 -30 77c0 26 10.333 49.833 31 71.5s43.334 32.5 68.001 32.5c53.333 0 90.833 -15.333 112.5 -46s32.5 -76.667 32.5 -138c0 -54.667 -21.833 -112.334 -65.5 -173.001
s-103.834 -110 -180.501 -148z" />
    <glyph glyph-name="quotesinglbase" unicode="&#x201a;" horiz-adv-x="325" 
d="M16 -248c126.667 75.333 193.667 159.334 201 252.001h-61c-40.667 0 -71.667 11 -93 33s-32 49.333 -32 82c0 27.333 10.833 52.166 32.5 74.499s45.5 33.5 71.5 33.5c54.667 0 93.667 -16.333 117 -49s35 -81 35 -145c0 -56 -22.5 -112 -67.5 -168
s-106.5 -104 -184.5 -144z" />
    <glyph glyph-name="quotedblleft" unicode="&#x201c;" horiz-adv-x="667" 
d="M14 1159c0 54.667 21.832 112.331 65.499 172.998s103.834 110.334 180.501 149.001l19 -31c-126.667 -75.333 -193.667 -162.666 -201 -261.999h61c39.333 0 69 -10.667 89 -32s30 -47 30 -77c0 -26 -10.167 -49.833 -30.5 -71.5s-42.833 -32.5 -67.5 -32.5
c-53.333 0 -91 15.333 -113 46s-33 76.667 -33 138zM361.999 1159c0 54.667 22 112.331 66 172.998s104 110.334 180 149.001l19 -31c-126.667 -75.333 -193.667 -162.666 -201 -261.999h61c39.333 0 69 -10.667 89 -32s30 -47 30 -77c0 -26 -10.167 -49.833 -30.5 -71.5
s-42.833 -32.5 -67.5 -32.5c-53.333 0 -91 15.333 -113 46s-33 76.667 -33 138z" />
    <glyph glyph-name="quotedblright" unicode="&#x201d;" horiz-adv-x="667" 
d="M41 1034c126.667 75.333 193.667 162.668 201 262.001h-62c-39.333 0 -69 10.667 -89 32s-30 47 -30 77c0 26 10.333 49.833 31 71.5s43.334 32.5 68.001 32.5c53.333 0 90.833 -15.333 112.5 -46s32.5 -76.667 32.5 -138c0 -54.667 -21.833 -112.334 -65.5 -173.001
s-103.834 -110 -180.501 -148zM389 1034c126.667 75.333 193.667 162.668 201 262.001h-62c-39.333 0 -68.833 10.667 -88.5 32s-29.5 47 -29.5 77c0 26 10.167 49.833 30.5 71.5s42.833 32.5 67.5 32.5c53.333 0 90.833 -15.333 112.5 -46s32.5 -76.667 32.5 -138
c0 -54.667 -21.833 -112.334 -65.5 -173.001s-103.5 -110 -179.5 -148z" />
    <glyph glyph-name="quotedblbase" unicode="&#x201e;" horiz-adv-x="671" 
d="M14 -248c126.667 75.333 193.667 159.334 201 252.001h-61c-40.667 0 -71.667 11 -93 33s-32 49.333 -32 82c0 27.333 10.833 52.166 32.5 74.499s45.5 33.5 71.5 33.5c54.667 0 93.667 -16.333 117 -49s35 -81 35 -145c0 -56 -22.5 -112 -67.5 -168
s-106.5 -104 -184.5 -144zM362 -247.999c126.667 75.333 193.667 159.334 201 252.001h-61c-40.667 0 -71.667 11 -93 33s-32 49.333 -32 82c0 27.333 10.833 52.166 32.5 74.499s45.5 33.5 71.5 33.5c54.667 0 93.667 -16.333 117 -49s35 -81 35 -145
c0 -56 -22.5 -112 -67.5 -168s-106.5 -104 -184.5 -144z" />
    <glyph glyph-name="bullet" unicode="&#x2022;" horiz-adv-x="798" 
d="M135 665.5c0 73.667 27.667 138.5 83 194.5s115.833 84 181.5 84s126.167 -28 181.5 -84s83 -120.833 83 -194.5s-27.333 -137.834 -82 -192.501s-115.5 -82 -182.5 -82s-127.833 27.333 -182.5 82s-82 118.834 -82 192.501z" />
    <glyph glyph-name="ellipsis" unicode="&#x2026;" horiz-adv-x="1574" 
d="M115 102c0 31.333 10.833 58 32.5 80s47.5 33 77.5 33s56.333 -11.333 79 -34s34 -49 34 -79s-11 -55.833 -33 -77.5s-48.667 -32.5 -80 -32.5c-30 0 -55.833 10.833 -77.5 32.5s-32.5 47.5 -32.5 77.5zM676 102c0 31.333 10.833 58 32.5 80s47.5 33 77.5 33
s56.333 -11.333 79 -34s34 -49 34 -79s-10.833 -55.833 -32.5 -77.5s-48.5 -32.5 -80.5 -32.5c-30 0 -55.833 10.833 -77.5 32.5s-32.5 47.5 -32.5 77.5zM1237 102c0 31.333 11 58 33 80s48 33 78 33s56.167 -11.333 78.5 -34s33.5 -49 33.5 -79
s-10.833 -55.833 -32.5 -77.5s-48.167 -32.5 -79.5 -32.5c-30 0 -56 10.833 -78 32.5s-33 47.5 -33 77.5z" />
    <glyph glyph-name="uni202F" unicode="&#x202f;" horiz-adv-x="383" 
 />
    <glyph glyph-name="guilsinglleft" unicode="&#x2039;" horiz-adv-x="659" 
d="M82 459c0 26 13.667 49.667 41 71c207.333 170.667 343 287 407 349l17 -15l-314 -409l314 -404l-17 -14l-403 346c-30 26 -45 51.333 -45 76z" />
    <glyph glyph-name="guilsinglright" unicode="&#x203a;" horiz-adv-x="659" 
d="M113 51l313 403.999l-313 409l16 15c64 -61.333 200 -177.666 408 -348.999c27.333 -22 41 -45.667 41 -71c0 -24.667 -15.333 -50 -46 -76l-403 -346z" />
    <glyph glyph-name="uni205F" unicode="&#x205f;" horiz-adv-x="478" 
 />
    <glyph glyph-name="Euro" unicode="&#x20ac;" horiz-adv-x="1198" 
d="M53 578l0.00292969 25.999h158v27c0 57.333 2.66699 107 8 149h-166v27h170c26 188.667 87.5 340.334 184.5 455.001s210.5 172 340.5 172c112 0 197 -23.667 255 -71s87 -100.333 87 -159c0 -48 -8.66699 -84.5 -26 -109.5s-39 -37.5 -65 -37.5
c-30 0 -52.833 9.16699 -68.5 27.5s-23.5 41.833 -23.5 70.5c0 20.667 8.5 42.167 25.5 64.5s25.5 43.833 25.5 64.5c-5.33301 34 -28.833 61.667 -70.5 83s-89.834 32 -144.501 32c-96.667 0 -177.834 -49.5 -243.501 -148.5s-104.5 -246.833 -116.5 -443.5h473v-27h-475
c-1.33301 -26 -2 -68.333 -2 -127c0 -22 0.666992 -38.333 2 -49h393v-26h-393c12 -184 53.5 -319.167 124.5 -405.5s152.5 -129.5 244.5 -129.5c138 0 250.333 87.333 337 262l23 -12c-40.667 -98 -94.834 -176.167 -162.501 -234.5s-161.5 -87.5 -281.5 -87.5
c-131.333 0 -238 57.667 -320 173s-127 260 -135 434h-158z" />
    <glyph glyph-name="trademark" unicode="&#x2122;" horiz-adv-x="1267" 
d="M55 1247l-0.00195312 152h461v-152h-8c-27.333 80.667 -52.666 122.334 -75.999 125.001c-12 1.33301 -31.667 2 -59 2h-45v-424c0 -16.667 7.33301 -28.334 22 -35.001c34 -6.66699 56 -10.667 66 -12v-16h-260v16c44 6.66699 66.333 10 67 10
c16.667 5.33301 25 16.333 25 33v428h-31c-38 0 -63.333 -0.666992 -76 -2c-15.333 -1.33301 -30.666 -17 -45.999 -47s-26 -56 -32 -78h-8zM589.998 887l-0.00195312 15.999c42 6.66699 67.333 13 76 19c16.667 10.667 24.667 44 24 100v274c0 31.333 -7.33301 52 -22 62
c-24.667 15.333 -48.667 22.666 -72 21.999v19h174l156 -379l112 311c8 23.333 13.667 46 17 68h180v-19c-13.333 0 -34.666 -4 -63.999 -12c-13.333 -5.33301 -20 -17 -20 -35v-381c0 -18 6.66699 -29.333 20 -34c6.66699 -4 28.667 -9 66 -15v-16h-260v16l76 12
c13.333 8 20 20.333 20 37v367h-12l-160 -426h-8c-9.33301 30 -22.333 65.333 -39 106l-125 310h-12v-281c0 -53.333 8 -86.666 24 -99.999c10.667 -9.33301 37.334 -17.666 80.001 -24.999v-16h-231z" />
    <glyph glyph-name="uniE000" unicode="&#xe000;" horiz-adv-x="921" 
d="M0 0v922h922v-922h-922z" />
    </font>
</defs>
</svg>
