<?xml version="1.0" standalone="no"?>
<!DOCTYPE svg PUBLIC "-//W3C//DTD SVG 1.1//EN" "http://www.w3.org/Graphics/SVG/1.1/DTD/svg11.dtd" >
<svg xmlns="http://www.w3.org/2000/svg" xmlns:xlink="http://www.w3.org/1999/xlink" version="1.1">
<metadata>
Created by FontForge 20190801 at Mon Dec  8 15:37:17 2008
 By Jimmy Wärting
Copyright (C) 2004, 2009 Hoefler &#38; Frere-Jones. http://www.typography.com
</metadata>
<defs>
<font id="Sentinel-MediumItalic" horiz-adv-x="541" >
  <font-face 
    font-family="Sentinel Medium"
    font-weight="350"
    font-style="italic"
    font-stretch="normal"
    units-per-em="1000"
    panose-1="0 0 0 0 0 0 0 0 0 0"
    ascent="800"
    descent="-200"
    x-height="465"
    cap-height="658"
    bbox="-128 -317 1091 1095"
    underline-thickness="50"
    underline-position="-100"
    slope="-12"
    stemh="66"
    stemv="109"
    unicode-range="U+0020-FB04"
  />
<missing-glyph horiz-adv-x="500" 
d="M0 -200v1000h500v-1000h-500zM71 750l179 -390l179 390h-358zM50 -76l172 376l-172 376v-752zM450 676l-172 -376l172 -376v752zM250 240l-179 -390h358z" />
    <glyph glyph-name="f_b" unicode="fb" horiz-adv-x="783" 
d="M567 692l-97 -332l7 -3c37 69 95 109 148 109c80 0 126 -73 126 -161c0 -183 -145 -314 -268 -314c-102 0 -147 62 -147 147c0 39 14 100 28 150l29 104h-159l-67 -320c-39 -183 -124 -239 -196 -239c-55 0 -79 29 -79 62c0 34 26 66 62 66c34 0 47 -25 47 -44
c0 -18 -5 -33 -13 -40c33 0 48 15 80 167l73 348h-95l14 54h93l1 5c26 123 105 241 232 241c31 0 55 -7 73 -16zM595 398c-86 0 -163 -160 -163 -253c0 -66 22 -95 69 -95c99 0 152 178 152 256c0 58 -17 92 -58 92zM252 477l-7 -31h163l22 79c-23 4 -38 21 -38 49
c0 19 9 42 24 58c-6 6 -21 12 -39 12c-68 0 -101 -54 -125 -167z" />
    <glyph glyph-name="f_f" unicode="ff" horiz-adv-x="622" 
d="M252 -167c-55 0 -79 29 -79 62c0 34 26 66 62 66c34 0 47 -25 47 -44c0 -18 -5 -33 -13 -40c33 0 48 15 80 167l73 348h-188l-67 -320c-39 -183 -124 -239 -196 -239c-55 0 -79 29 -79 62c0 34 26 66 62 66c34 0 47 -25 47 -44c0 -18 -5 -33 -13 -40c33 0 48 15 80 167
l73 348h-95l14 54h93c34 162 130 246 234 246c82 0 116 -42 122 -77c38 46 88 77 153 77c78 0 108 -44 108 -83c0 -46 -30 -85 -68 -85c-29 0 -49 18 -49 50c0 19 9 47 28 63c-6 4 -16 7 -27 7c-72 0 -98 -58 -121 -169l-6 -29h130l-15 -54h-127l-67 -320
c-38 -183 -124 -239 -196 -239zM252 475l-6 -29h188l1 5c5 25 13 50 22 74c-4 -1 -8 -1 -12 -1c-29 0 -49 18 -49 50c0 19 8 42 23 58c-6 6 -22 12 -40 12c-70 0 -103 -55 -127 -169z" />
    <glyph glyph-name="f_h" unicode="fh" horiz-adv-x="826" 
d="M578 692l-128 -435l6 -3c63 135 143 212 211 212c53 0 84 -47 84 -106c0 -81 -71 -206 -71 -275c0 -14 5 -22 18 -22c23 0 45 40 68 103l44 -13c-40 -125 -92 -162 -138 -162s-81 31 -81 90c0 107 66 199 66 274c0 26 -10 35 -26 35c-50 0 -153 -96 -232 -390h-99
l104 392h-170l-67 -320c-39 -183 -124 -239 -196 -239c-55 0 -79 29 -79 62c0 34 26 66 62 66c34 0 47 -25 47 -44c0 -18 -5 -33 -13 -40c33 0 48 15 80 167l73 348h-95l14 54h93l1 5c26 123 105 241 232 241c32 0 57 -7 75 -17zM252 477l-7 -31h174l21 78
c-28 1 -48 18 -48 50c0 19 9 42 24 58c-6 6 -21 12 -39 12c-68 0 -101 -54 -125 -167z" />
    <glyph glyph-name="fi" unicode="fi" horiz-adv-x="564" 
d="M392 392h-158l-67 -320c-39 -183 -124 -239 -196 -239c-55 0 -79 29 -79 62c0 34 26 66 62 66c34 0 47 -25 47 -44c0 -18 -5 -33 -13 -40c33 0 48 15 80 167l73 348h-95l14 54h93c28 132 111 246 239 246c96 0 137 -50 137 -98c0 -40 -27 -80 -69 -80
c-30 0 -51 19 -51 53c0 20 10 47 26 63c-11 8 -29 14 -52 14c-70 0 -106 -52 -131 -169l-6 -29h253l-80 -293c-7 -25 -12 -48 -12 -64c0 -19 9 -26 23 -26c24 0 44 30 71 103l44 -13c-40 -125 -89 -162 -142 -162c-56 0 -85 34 -85 90c0 36 13 93 33 164z" />
    <glyph glyph-name="f_j" unicode="fj" horiz-adv-x="531" 
d="M412 392h-178l-67 -320c-39 -183 -124 -239 -196 -239c-55 0 -79 29 -79 62c0 34 26 66 62 66c34 0 47 -25 47 -44c0 -18 -5 -33 -13 -40c33 0 48 15 80 167l73 348h-95l14 54h93c28 132 111 246 239 246c96 0 137 -50 137 -98c0 -40 -27 -80 -69 -80
c-30 0 -51 19 -51 53c0 20 10 47 26 63c-11 8 -29 14 -52 14c-70 0 -106 -52 -131 -169l-6 -29h273l-104 -393c-43 -158 -117 -220 -192 -220c-53 0 -77 30 -77 62c0 33 22 64 57 64c33 0 47 -24 47 -45c0 -16 -6 -31 -17 -40c36 0 50 10 89 163z" />
    <glyph glyph-name="f_k" unicode="fk" horiz-adv-x="787" 
d="M547 254c67 -5 90 -35 90 -82c0 -29 -8 -61 -8 -79c0 -22 7 -30 20 -30c23 0 44 40 66 103l44 -13c-37 -125 -89 -162 -135 -162c-44 0 -83 30 -83 101c0 25 10 67 10 88c0 39 -18 48 -90 48h-10l-61 -228h-90l104 392h-170l-67 -320c-39 -183 -124 -239 -196 -239
c-55 0 -79 29 -79 62c0 34 26 66 62 66c34 0 47 -25 47 -44c0 -18 -5 -33 -13 -40c33 0 48 15 80 167l73 348h-95l14 54h93l1 5c26 123 105 241 232 241c32 0 57 -7 75 -17l116 17l-115 -424h7c52 0 73 30 114 97c36 59 68 101 127 101c43 0 67 -27 67 -68
c0 -40 -27 -79 -62 -79c-38 0 -58 35 -41 75c-16 -2 -33 -22 -58 -64c-23 -40 -37 -60 -69 -76zM252 477l-7 -31h174l21 78c-28 1 -48 18 -48 50c0 19 9 42 24 58c-6 6 -21 12 -39 12c-68 0 -101 -54 -125 -167z" />
    <glyph glyph-name="fl" unicode="fl" horiz-adv-x="567" 
d="M386 692c31 0 55 -7 73 -16l108 16l-145 -539c-7 -25 -12 -47 -12 -63c0 -19 8 -27 23 -27c24 0 44 30 71 103l44 -13c-40 -125 -89 -162 -142 -162c-56 0 -85 34 -85 90c0 36 14 93 33 164l39 147h-159l-67 -320c-39 -183 -124 -239 -196 -239c-55 0 -79 29 -79 62
c0 34 26 66 62 66c34 0 47 -25 47 -44c0 -18 -5 -33 -13 -40c33 0 48 15 80 167l73 348h-95l14 54h93l1 5c26 123 105 241 232 241zM252 477l-7 -31h163l21 79c-22 4 -37 22 -37 49c0 19 9 42 24 58c-6 6 -21 12 -39 12c-68 0 -101 -54 -125 -167z" />
    <glyph glyph-name="f_f_b" unicode="ffb" horiz-adv-x="1064" 
d="M252 -167c-55 0 -79 29 -79 62c0 34 26 66 62 66c34 0 47 -25 47 -44c0 -18 -5 -33 -13 -40c33 0 48 15 80 167l73 348h-188l-67 -320c-39 -183 -124 -239 -196 -239c-55 0 -79 29 -79 62c0 34 26 66 62 66c34 0 47 -25 47 -44c0 -18 -5 -33 -13 -40c33 0 48 15 80 167
l73 348h-95l14 54h93c34 162 130 246 234 246c85 0 117 -45 123 -78c39 47 92 78 157 78c31 0 55 -7 73 -16l108 16l-97 -332l7 -3c37 69 95 109 148 109c80 0 126 -73 126 -161c0 -183 -145 -314 -268 -314c-102 0 -147 62 -147 147c0 39 14 100 28 150l29 104h-159
l-67 -320c-39 -183 -124 -239 -196 -239zM876 398c-86 0 -163 -160 -163 -253c0 -66 22 -95 69 -95c99 0 152 178 152 256c0 58 -17 92 -58 92zM252 475l-6 -29h188l1 5c5 25 13 50 23 74c-4 -1 -9 -1 -13 -1c-29 0 -49 18 -49 50c0 19 8 42 23 58c-6 6 -22 12 -40 12
c-70 0 -103 -55 -127 -169zM533 477l-7 -31h163l22 79c-23 4 -38 21 -38 49c0 19 9 42 24 58c-6 6 -21 12 -39 12c-68 0 -101 -54 -125 -167z" />
    <glyph glyph-name="f_f_h" unicode="ffh" horiz-adv-x="1107" 
d="M252 -167c-55 0 -79 29 -79 62c0 34 26 66 62 66c34 0 47 -25 47 -44c0 -18 -5 -33 -13 -40c33 0 48 15 80 167l73 348h-188l-67 -320c-39 -183 -124 -239 -196 -239c-55 0 -79 29 -79 62c0 34 26 66 62 66c34 0 47 -25 47 -44c0 -18 -5 -33 -13 -40c33 0 48 15 80 167
l73 348h-95l14 54h93c34 162 130 246 234 246c85 0 117 -45 123 -78c39 47 92 78 157 78c32 0 57 -7 75 -17l117 17l-128 -435l6 -3c63 135 143 212 211 212c53 0 84 -47 84 -106c0 -81 -71 -206 -71 -275c0 -14 5 -22 18 -22c23 0 45 40 68 103l44 -13
c-40 -125 -92 -162 -138 -162s-81 31 -81 90c0 107 66 199 66 274c0 26 -10 35 -26 35c-50 0 -153 -96 -232 -390h-99l104 392h-170l-67 -320c-39 -183 -124 -239 -196 -239zM252 475l-6 -29h188l1 5c5 25 13 50 23 74c-4 -1 -9 -1 -13 -1c-29 0 -49 18 -49 50
c0 19 8 42 23 58c-6 6 -22 12 -40 12c-70 0 -103 -55 -127 -169zM533 477l-7 -31h174l21 78c-28 1 -48 18 -48 50c0 19 9 42 24 58c-6 6 -21 12 -39 12c-68 0 -101 -54 -125 -167z" />
    <glyph glyph-name="f_f_i" unicode="ffi" horiz-adv-x="844" 
d="M387 692c78 0 117 -46 123 -79c41 48 95 79 162 79c96 0 137 -50 137 -98c0 -40 -27 -80 -69 -80c-30 0 -51 19 -51 53c0 20 10 47 26 63c-11 8 -29 14 -52 14c-70 0 -106 -52 -131 -169l-6 -29h253l-80 -293c-7 -25 -12 -48 -12 -64c0 -19 9 -26 23 -26
c24 0 44 30 71 103l44 -13c-40 -125 -89 -162 -142 -162c-56 0 -85 34 -85 90c0 36 13 93 33 164l41 147h-158l-67 -320c-39 -183 -124 -239 -196 -239c-55 0 -79 29 -79 62c0 34 26 66 62 66c34 0 47 -25 47 -44c0 -18 -5 -33 -13 -40c33 0 48 15 80 167l73 348h-187
l-67 -320c-39 -183 -124 -239 -196 -239c-55 0 -79 29 -79 62c0 34 26 66 62 66c34 0 47 -25 47 -44c0 -18 -5 -33 -13 -40c33 0 48 15 80 167l73 348h-95l14 54h93c34 162 130 246 234 246zM252 475l-6 -29h187c6 27 14 54 24 79c-4 -1 -8 -1 -12 -1c-29 0 -49 18 -49 50
c0 19 8 42 23 58c-6 6 -22 12 -40 12c-70 0 -103 -55 -127 -169z" />
    <glyph glyph-name="f_f_j" unicode="ffj" horiz-adv-x="811" 
d="M387 692c78 0 117 -46 123 -79c41 48 95 79 162 79c96 0 137 -50 137 -98c0 -40 -27 -80 -69 -80c-30 0 -51 19 -51 53c0 20 10 47 26 63c-11 8 -29 14 -52 14c-70 0 -106 -52 -131 -169l-6 -29h273l-104 -393c-43 -158 -117 -220 -192 -220c-53 0 -77 30 -77 62
c0 33 22 64 57 64c33 0 47 -24 47 -45c0 -16 -6 -31 -17 -40c36 0 50 10 89 163l90 355h-178l-67 -320c-39 -183 -124 -239 -196 -239c-55 0 -79 29 -79 62c0 34 26 66 62 66c34 0 47 -25 47 -44c0 -18 -5 -33 -13 -40c33 0 48 15 80 167l73 348h-187l-67 -320
c-39 -183 -124 -239 -196 -239c-55 0 -79 29 -79 62c0 34 26 66 62 66c34 0 47 -25 47 -44c0 -18 -5 -33 -13 -40c33 0 48 15 80 167l73 348h-95l14 54h93c34 162 130 246 234 246zM252 475l-6 -29h187c6 27 14 54 24 79c-4 -1 -8 -1 -12 -1c-29 0 -49 18 -49 50
c0 19 8 42 23 58c-6 6 -22 12 -40 12c-70 0 -103 -55 -127 -169z" />
    <glyph glyph-name="f_f_k" unicode="ffk" horiz-adv-x="1068" 
d="M252 -167c-55 0 -79 29 -79 62c0 34 26 66 62 66c34 0 47 -25 47 -44c0 -18 -5 -33 -13 -40c33 0 48 15 80 167l73 348h-188l-67 -320c-39 -183 -124 -239 -196 -239c-55 0 -79 29 -79 62c0 34 26 66 62 66c34 0 47 -25 47 -44c0 -18 -5 -33 -13 -40c33 0 48 15 80 167
l73 348h-95l14 54h93c34 162 130 246 234 246c85 0 117 -45 123 -78c39 47 92 78 157 78c32 0 57 -7 75 -17l116 17l-115 -424h7c52 0 73 30 114 97c36 59 68 101 127 101c43 0 67 -27 67 -68c0 -40 -27 -79 -62 -79c-38 0 -58 35 -41 75c-16 -2 -33 -22 -58 -64
c-23 -40 -37 -60 -69 -76c67 -5 90 -35 90 -82c0 -29 -8 -61 -8 -79c0 -22 7 -30 20 -30c23 0 44 40 66 103l44 -13c-37 -125 -89 -162 -135 -162c-44 0 -83 30 -83 101c0 25 10 67 10 88c0 39 -18 48 -90 48h-10l-61 -228h-90l104 392h-170l-67 -320
c-39 -183 -124 -239 -196 -239zM252 475l-6 -29h188l1 5c5 25 13 50 23 74c-4 -1 -9 -1 -13 -1c-29 0 -49 18 -49 50c0 19 8 42 23 58c-6 6 -22 12 -40 12c-70 0 -103 -55 -127 -169zM533 477l-7 -31h174l21 78c-28 1 -48 18 -48 50c0 19 9 42 24 58c-6 6 -21 12 -39 12
c-68 0 -101 -54 -125 -167z" />
    <glyph glyph-name="f_f_l" unicode="ffl" horiz-adv-x="848" 
d="M252 -167c-55 0 -79 29 -79 62c0 34 26 66 62 66c34 0 47 -25 47 -44c0 -18 -5 -33 -13 -40c33 0 48 15 80 167l73 348h-188l-67 -320c-39 -183 -124 -239 -196 -239c-55 0 -79 29 -79 62c0 34 26 66 62 66c34 0 47 -25 47 -44c0 -18 -5 -33 -13 -40c33 0 48 15 80 167
l73 348h-95l14 54h93c34 162 130 246 234 246c85 0 117 -45 123 -78c39 47 92 78 157 78c31 0 55 -7 73 -16l108 16l-145 -539c-7 -25 -12 -47 -12 -63c0 -19 8 -27 23 -27c24 0 44 30 71 103l44 -13c-40 -125 -89 -162 -142 -162c-56 0 -85 34 -85 90c0 36 14 93 33 164
l39 147h-159l-67 -320c-39 -183 -124 -239 -196 -239zM252 475l-6 -29h188l1 5c5 25 13 50 23 74c-4 -1 -9 -1 -13 -1c-29 0 -49 18 -49 50c0 19 8 42 23 58c-6 6 -22 12 -40 12c-70 0 -103 -55 -127 -169zM533 477l-7 -31h163l21 79c-22 4 -37 22 -37 49c0 19 9 42 24 58
c-6 6 -21 12 -39 12c-68 0 -101 -54 -125 -167z" />
    <glyph glyph-name=".notdef" horiz-adv-x="500" 
d="M0 -200v1000h500v-1000h-500zM71 750l179 -390l179 390h-358zM50 -76l172 376l-172 376v-752zM450 676l-172 -376l172 -376v752zM250 240l-179 -390h358z" />
    <glyph glyph-name="A" unicode="A" horiz-adv-x="655" 
d="M347 66h104l-14 165h-230l-98 -165h83l-16 -66h-238l16 66h71l368 596h101l62 -596h91l-16 -66h-300zM241 289h191l-24 276h-4z" />
    <glyph glyph-name="B" unicode="B" horiz-adv-x="629" 
d="M-24 0l15 66h110l131 526h-112l16 66h275c172 0 222 -72 222 -142c0 -73 -49 -160 -205 -170l-1 -5c107 -19 159 -74 159 -145c0 -49 -22 -93 -49 -120c-49 -49 -126 -76 -263 -76h-298zM281 375h84c124 0 162 82 162 133c0 53 -30 84 -120 84h-72zM204 66h88
c149 0 190 74 190 148c0 58 -40 103 -149 103h-66z" />
    <glyph glyph-name="C" unicode="C" horiz-adv-x="674" 
d="M332 -16c-187 0 -267 121 -267 277c0 216 163 413 372 413c82 0 144 -30 177 -79l37 76h67l-64 -258h-59c-13 152 -76 195 -162 195c-190 0 -257 -231 -257 -352c0 -132 64 -202 165 -202c110 0 179 87 232 209l62 -24c-50 -139 -146 -255 -303 -255z" />
    <glyph glyph-name="D" unicode="D" horiz-adv-x="708" 
d="M-24 0l15 66h110l131 526h-112l16 66h265c197 0 307 -109 307 -253c0 -93 -42 -204 -119 -281c-76 -76 -191 -124 -337 -124h-276zM204 66h58c99 0 169 21 223 75c62 62 106 186 106 282c0 110 -66 169 -195 169h-61z" />
    <glyph glyph-name="E" unicode="E" horiz-adv-x="666" 
d="M136 658h572l-53 -214h-46c-7 118 -14 148 -94 148h-180l-56 -226h55c75 0 89 10 130 101h54l-65 -262h-52c7 92 -2 105 -73 105h-63l-61 -244h186c85 0 100 31 171 168h50l-58 -234h-577l15 66h110l131 526h-112z" />
    <glyph glyph-name="F" unicode="F" horiz-adv-x="630" 
d="M276 355h47c74 0 93 17 127 102h53l-66 -266h-53c11 98 2 108 -75 108h-47l-58 -233h122l-15 -66h-335l15 66h110l131 526h-112l16 66h558l-55 -219h-46c-9 128 -25 153 -104 153h-154z" />
    <glyph glyph-name="G" unicode="G" horiz-adv-x="704" 
d="M326 54c88 0 162 72 190 183l7 28h-122l17 66h312l-17 -66h-87l-70 -272h-64l-6 87c-44 -61 -110 -96 -184 -96c-154 0 -237 124 -237 277c0 216 163 413 372 413c82 0 144 -30 177 -79l37 76h67l-64 -258h-59c-13 152 -76 195 -162 195c-190 0 -257 -231 -257 -346
c0 -153 74 -208 150 -208z" />
    <glyph glyph-name="H" unicode="H" horiz-adv-x="779" 
d="M-24 0l15 66h110l131 526h-112l16 66h306l-16 -66h-91l-55 -222h289l55 222h-93l16 66h306l-16 -66h-110l-131 -526h112l-15 -66h-306l15 66h91l62 246h-289l-62 -246h93l-15 -66h-306z" />
    <glyph glyph-name="I" unicode="I" horiz-adv-x="407" 
d="M-14 0l15 66h110l131 526h-112l16 66h325l-16 -66h-110l-131 -526h112l-15 -66h-325z" />
    <glyph glyph-name="J" unicode="J" horiz-adv-x="549" 
d="M522 592l-105 -422c-30 -117 -108 -186 -229 -186c-120 0 -182 72 -182 143c0 56 35 107 92 107c43 0 65 -32 65 -65c0 -36 -23 -64 -64 -76c8 -22 45 -46 93 -46c69 0 104 49 128 146l99 399h-111l16 66h318l-16 -66h-104z" />
    <glyph glyph-name="K" unicode="K" horiz-adv-x="706" 
d="M689 592l-263 -214l149 -312h91l-16 -66h-292l16 66h88l-112 250l-105 -86l-41 -164h93l-15 -66h-306l15 66h110l131 526h-112l16 66h306l-16 -66h-91l-68 -274l322 274h-84l16 66h262l-16 -66h-78z" />
    <glyph glyph-name="L" unicode="L" horiz-adv-x="596" 
d="M136 658h325l-16 -66h-110l-131 -526h134c88 0 109 35 178 168h50l-58 -234h-532l15 66h110l131 526h-112z" />
    <glyph glyph-name="M" unicode="M" horiz-adv-x="933" 
d="M-18 0l15 66h100l131 526h-102l16 66h261l41 -492h3l285 492h272l-16 -66h-105l-131 -526h107l-15 -66h-294l15 66h84l129 518h-11l-351 -584h-50l-58 584h-9l-129 -518h92l-15 -66h-265z" />
    <glyph glyph-name="N" unicode="N" horiz-adv-x="772" 
d="M524 -16l-229 548h-9l-116 -466h102l-15 -66h-275l15 66h99l131 526h-101l16 66h211l204 -484h9l104 418h-102l16 66h276l-16 -66h-100l-152 -608h-68z" />
    <glyph glyph-name="O" unicode="O" horiz-adv-x="709" 
d="M65 271c0 209 160 403 362 403c158 0 270 -117 270 -287c0 -209 -160 -403 -362 -403c-158 0 -270 117 -270 287zM419 608c-172 0 -243 -235 -243 -372c0 -123 62 -186 167 -186c172 0 243 235 243 372c0 123 -62 186 -167 186z" />
    <glyph glyph-name="P" unicode="P" horiz-adv-x="605" 
d="M255 270l-51 -204h120l-15 -66h-333l15 66h110l131 526h-112l16 66h268c172 0 242 -79 242 -165c0 -93 -64 -223 -313 -223h-78zM270 330h71c133 0 187 75 187 161c0 58 -34 101 -145 101h-48z" />
    <glyph glyph-name="Q" unicode="Q" horiz-adv-x="709" 
d="M335 -16c-158 0 -270 117 -270 287c0 209 160 403 362 403c158 0 270 -117 270 -287c0 -144 -76 -281 -189 -352c11 -35 26 -59 56 -59c32 0 49 13 79 83l49 -17c-29 -92 -78 -149 -145 -149c-72 0 -102 48 -121 105c-29 -9 -60 -14 -91 -14zM194 142
c21 63 63 102 139 102c96 0 131 -63 151 -128c71 81 102 215 102 306c0 123 -62 186 -167 186c-172 0 -243 -235 -243 -372c0 -35 7 -77 18 -94zM343 48c23 0 45 4 65 12c-17 63 -36 119 -96 119c-41 0 -68 -32 -68 -63c0 -39 44 -68 99 -68z" />
    <glyph glyph-name="R" unicode="R" horiz-adv-x="676" 
d="M-24 0l15 66h110l131 526h-112l16 66h312c166 0 212 -77 212 -150c0 -87 -57 -172 -203 -186l-3 -9c78 -20 103 -54 103 -118c0 -32 -9 -71 -9 -101c0 -32 14 -40 41 -40c15 0 33 5 55 15l16 -44c-32 -22 -77 -36 -117 -36c-65 0 -106 28 -106 88c0 43 21 103 21 152
c0 38 -19 61 -92 61h-106l-56 -224h106l-15 -66h-319zM275 350h94c63 0 105 15 131 41c27 27 44 77 44 119c-1 49 -31 82 -110 82h-99z" />
    <glyph glyph-name="S" unicode="S" horiz-adv-x="570" 
d="M-8 -13l60 243h59c24 -125 91 -184 176 -184c89 0 136 61 136 114c0 62 -67 92 -138 126c-80 38 -166 81 -166 181c0 101 96 207 231 207c69 0 134 -29 163 -75l40 72h66l-59 -234h-58c-27 132 -73 176 -159 176c-70 0 -118 -55 -118 -110c0 -68 68 -96 140 -128
c79 -35 163 -75 163 -178c0 -115 -108 -213 -246 -213c-83 0 -146 32 -180 77l-44 -74h-66z" />
    <glyph glyph-name="T" unicode="T" horiz-adv-x="663" 
d="M107 0l15 66h113l134 536h-41c-82 0 -106 -26 -196 -178h-48l59 234h583l-59 -234h-46c-9 146 -22 178 -106 178h-43l-134 -536h115l-15 -66h-331z" />
    <glyph glyph-name="U" unicode="U" horiz-adv-x="739" 
d="M361 -17c-165 0 -250 80 -250 183c0 27 4 57 11 85l85 341h-97l16 66h294l-16 -66h-94l-86 -345c-6 -25 -8 -48 -8 -71c0 -79 61 -123 154 -123c46 0 90 15 120 45c26 26 46 66 58 116l94 378h-101l16 66h268l-16 -66h-93l-101 -406c-12 -48 -29 -96 -71 -138
c-37 -37 -96 -65 -183 -65z" />
    <glyph glyph-name="V" unicode="V" horiz-adv-x="655" 
d="M262 592l48 -492h4l294 492h-83l16 66h238l-16 -66h-71l-373 -596h-94l-68 596h-91l16 66h300l-16 -66h-104z" />
    <glyph glyph-name="W" unicode="W" horiz-adv-x="952" 
d="M553 -4l-17 423l-244 -423h-96l-41 596h-89l16 66h292l-16 -66h-98l24 -485h4l243 422l-2 63h-94l16 66h298l-16 -66h-104l12 -485h4l262 485h-84l16 66h237l-16 -66h-69l-342 -596h-96z" />
    <glyph glyph-name="X" unicode="X" horiz-adv-x="667" 
d="M397 592h-90l81 -201l188 201h-81l16 66h247l-16 -66h-78l-245 -255l114 -271h90l-16 -66h-288l16 66h93l-87 217l-207 -217h83l-16 -66h-247l16 66h78l262 271l-110 255h-90l16 66h287z" />
    <glyph glyph-name="Y" unicode="Y" horiz-adv-x="626" 
d="M367 334l209 258h-80l16 66h226l-16 -66h-73l-271 -324l-50 -202h102l-15 -66h-305l15 66h100l54 215l-97 311h-80l16 66h282l-16 -66h-92z" />
    <glyph glyph-name="Z" unicode="Z" horiz-adv-x="605" 
d="M-15 0l13 51l520 541h-176c-79 0 -99 -10 -188 -172h-46l59 238h502l-13 -51l-517 -541h196c79 0 99 17 188 179h46l-61 -245h-523z" />
    <glyph glyph-name="a" unicode="a" 
d="M486 460l-83 -307c-8 -29 -12 -49 -12 -64c0 -16 7 -26 24 -26c25 0 47 40 70 103l44 -13c-40 -125 -91 -162 -143 -162c-42 0 -74 28 -74 82c0 7 0 11 1 21l-7 3c-37 -69 -95 -106 -148 -106c-77 0 -126 67 -126 155c0 101 40 185 93 238c49 49 108 82 163 82
c53 0 81 -36 87 -78l19 72h92zM195 62c86 0 154 184 154 265c0 53 -21 83 -59 83c-98 0 -160 -171 -160 -249c0 -62 21 -99 65 -99z" />
    <glyph glyph-name="b" unicode="b" horiz-adv-x="499" 
d="M311 398c-86 0 -163 -160 -163 -253c0 -66 22 -95 69 -95c99 0 152 178 152 256c0 58 -17 92 -58 92zM282 687l-96 -327l7 -3c37 69 95 109 148 109c80 0 126 -73 126 -161c0 -183 -145 -314 -268 -314c-102 0 -147 62 -147 147c0 39 14 100 28 150l91 327h-91l19 72h183
z" />
    <glyph glyph-name="c" unicode="c" horiz-adv-x="452" 
d="M299 466c82 0 134 -50 134 -109c0 -35 -21 -77 -61 -77c-32 0 -53 22 -53 49c0 22 10 45 34 66c-8 10 -26 21 -56 21c-108 0 -168 -173 -168 -252c0 -83 43 -113 91 -113c47 0 92 37 131 103l41 -24c-43 -80 -96 -139 -187 -139c-103 0 -173 75 -173 180
c0 150 131 295 267 295z" />
    <glyph glyph-name="d" unicode="d" 
d="M195 62c86 0 155 180 155 273c0 49 -16 75 -58 75c-103 0 -162 -171 -162 -249c0 -62 21 -99 65 -99zM485 166l44 -13c-40 -125 -91 -162 -143 -162c-42 0 -74 29 -74 83c0 5 0 9 1 20l-7 3c-37 -69 -95 -106 -148 -106c-77 0 -126 67 -126 155c0 101 40 185 93 238
c49 49 108 82 163 82c52 0 78 -27 89 -70l59 219h-91l19 72h183l-144 -534c-8 -29 -12 -49 -12 -64c0 -16 7 -26 24 -26c25 0 47 40 70 103z" />
    <glyph glyph-name="e" unicode="e" horiz-adv-x="454" 
d="M432 369c0 -87 -95 -167 -302 -184c-1 -12 -2 -23 -2 -33c0 -78 41 -105 92 -105c52 0 104 40 143 100l41 -24c-49 -77 -109 -132 -213 -132c-92 0 -160 71 -160 178c0 152 136 297 282 297c77 0 119 -40 119 -97zM297 416c-75 0 -133 -98 -157 -186
c147 19 206 70 206 137c0 26 -16 49 -49 49z" />
    <glyph glyph-name="f" unicode="f" horiz-adv-x="341" 
d="M-29 -167c-55 0 -79 29 -79 62c0 34 26 66 62 66c34 0 47 -25 47 -44c0 -18 -5 -33 -13 -40c33 0 48 15 80 167l74 348h-96l14 54h93c34 162 124 246 228 246c78 0 108 -44 108 -83c0 -46 -30 -85 -68 -85c-29 0 -49 18 -49 50c0 19 9 47 28 63c-6 4 -16 7 -27 7
c-72 0 -98 -58 -121 -169l-6 -29h130l-15 -54h-126l-68 -320c-38 -183 -124 -239 -196 -239z" />
    <glyph glyph-name="g" unicode="g" horiz-adv-x="496" 
d="M78 -103c13 -6 36 -11 64 -11c39 0 67 12 91 37c30 31 51 84 69 163l-7 3c-32 -42 -84 -68 -133 -68c-82 0 -130 66 -130 143c0 90 34 173 94 233c45 45 93 69 148 69c51 0 88 -32 99 -76l17 70h92l-87 -367c-43 -183 -121 -260 -256 -260c-75 0 -154 20 -154 91
c0 32 22 73 63 73c35 0 51 -24 51 -51c0 -18 -11 -39 -21 -49zM197 87c80 0 152 124 152 234c0 53 -34 89 -70 89c-90 0 -149 -139 -149 -238c0 -56 22 -85 67 -85z" />
    <glyph glyph-name="h" unicode="h" horiz-adv-x="543" 
d="M389 -9c-46 0 -81 31 -81 90c0 107 66 199 66 274c0 26 -10 35 -26 35c-50 0 -153 -96 -232 -390h-99l164 615h-91l19 72h183l-125 -430l6 -3c63 135 143 212 211 212c53 0 84 -47 84 -106c0 -81 -71 -206 -71 -275c0 -14 5 -22 18 -22c23 0 45 40 68 103l44 -13
c-40 -125 -92 -162 -138 -162z" />
    <glyph glyph-name="i" unicode="i" horiz-adv-x="333" 
d="M310 623c0 -37 -31 -81 -77 -81c-29 0 -52 20 -52 55c0 38 29 82 74 82c33 0 55 -21 55 -56zM256 360c0 -76 -80 -209 -80 -272c0 -17 7 -25 22 -25c21 0 44 32 72 103l44 -13c-39 -121 -92 -162 -147 -162c-46 0 -81 31 -81 90c0 104 83 229 83 299c0 17 -5 23 -16 23
c-32 0 -58 -46 -88 -108l-44 20c41 94 91 151 152 151c49 0 83 -38 83 -106z" />
    <glyph glyph-name="j" unicode="j" horiz-adv-x="297" 
d="M311 623c0 -37 -31 -81 -77 -81c-29 0 -52 20 -52 55c0 38 29 82 74 82c33 0 55 -21 55 -56zM257 369c0 -21 -4 -46 -13 -80l-60 -227c-43 -161 -120 -229 -202 -229c-64 0 -89 29 -89 62c0 34 26 66 62 66c34 0 47 -25 47 -44c0 -18 -6 -34 -14 -43c45 0 61 25 101 178
l70 265c5 18 10 42 10 61c0 20 -8 25 -18 25c-27 0 -55 -45 -85 -108l-44 20c41 94 91 151 154 151c47 0 81 -40 81 -97z" />
    <glyph glyph-name="k" unicode="k" horiz-adv-x="504" 
d="M346 93c0 -22 7 -30 20 -30c23 0 44 40 66 103l44 -13c-37 -125 -89 -162 -135 -162c-44 0 -83 30 -83 101c0 25 10 67 10 88c0 39 -18 48 -90 48h-10l-61 -228h-90l164 615h-91l19 72h183l-113 -419h7c52 0 73 30 114 97c36 59 68 101 127 101c43 0 67 -27 67 -68
c0 -40 -27 -79 -62 -79c-38 0 -58 35 -41 75c-16 -2 -33 -22 -58 -64c-23 -40 -37 -60 -69 -76c67 -5 90 -35 90 -82c0 -29 -8 -61 -8 -79z" />
    <glyph glyph-name="l" unicode="l" horiz-adv-x="291" 
d="M45 81c0 36 14 93 33 164l101 370h-91l19 72h183l-144 -534c-8 -29 -12 -51 -12 -65c0 -19 11 -25 22 -25c28 0 49 40 72 103l44 -13c-40 -125 -89 -162 -142 -162c-56 0 -85 34 -85 90z" />
    <glyph glyph-name="m" unicode="m" horiz-adv-x="839" 
d="M685 -9c-46 0 -81 31 -81 90c0 107 66 199 66 274c0 26 -10 35 -26 35c-50 0 -143 -96 -222 -390h-97l72 271c6 22 11 48 11 70c0 26 -7 49 -30 49c-50 0 -143 -96 -222 -390h-99l87 327c15 57 14 76 -8 76c-26 0 -53 -46 -83 -108l-44 20c41 94 88 149 149 149
c42 0 69 -30 69 -92c0 -30 -7 -68 -23 -111l7 -3c63 135 135 208 203 208c53 0 80 -39 80 -98c0 -30 -8 -64 -24 -107l7 -3c63 135 135 208 203 208c53 0 84 -47 84 -106c0 -81 -71 -206 -71 -275c0 -14 5 -22 18 -22c23 0 45 40 68 103l44 -13c-40 -125 -92 -162 -138 -162
z" />
    <glyph glyph-name="n" unicode="n" horiz-adv-x="573" 
d="M427 85c0 -14 5 -22 18 -22c23 0 45 40 68 103l44 -13c-40 -125 -92 -162 -138 -162s-81 31 -81 90c0 107 66 199 66 274c0 26 -10 35 -26 35c-50 0 -143 -96 -222 -390h-99l87 327c15 57 14 76 -8 76c-26 0 -53 -46 -83 -108l-44 20c41 94 88 149 149 149
c42 0 69 -30 69 -92c0 -30 -7 -68 -23 -111l7 -3c63 135 135 208 203 208c53 0 84 -47 84 -106c0 -81 -71 -206 -71 -275z" />
    <glyph glyph-name="o" unicode="o" horiz-adv-x="491" 
d="M282 466c110 0 177 -80 177 -192c0 -152 -116 -283 -250 -283c-110 0 -177 80 -177 192c0 152 116 283 250 283zM362 316c0 66 -28 100 -80 100c-96 0 -153 -168 -153 -275c0 -66 28 -100 80 -100c96 0 153 168 153 275z" />
    <glyph glyph-name="p" unicode="p" horiz-adv-x="540" 
d="M352 398c-86 0 -163 -172 -163 -255c0 -52 22 -89 72 -89c99 0 149 176 149 254c0 58 -17 90 -58 90zM140 311c15 55 12 81 -9 81c-26 0 -43 -28 -78 -97l-44 20c48 107 94 149 152 149c40 0 68 -29 68 -80c0 -7 -1 -17 -2 -24l7 -3c37 69 95 109 148 109
c77 0 126 -69 126 -159c0 -173 -123 -308 -235 -308c-52 0 -92 27 -109 60l-39 -147h99l-18 -66h-263l18 66h72z" />
    <glyph glyph-name="q" unicode="q" horiz-adv-x="495" 
d="M488 460l-148 -548h76l-18 -66h-263l18 66h95l51 175l-7 3c-34 -59 -88 -90 -134 -90c-80 0 -126 74 -126 162c0 93 38 168 91 221c49 49 112 83 166 83s82 -36 88 -78l19 72h92zM188 68c91 0 163 171 163 259c0 53 -21 83 -60 83c-102 0 -161 -171 -161 -249
c0 -58 17 -93 58 -93z" />
    <glyph glyph-name="r" unicode="r" horiz-adv-x="443" 
d="M57 0l87 327c15 57 14 76 -8 76c-26 0 -53 -46 -83 -108l-44 20c41 94 88 149 149 149c42 0 69 -30 69 -92c0 -30 -7 -68 -23 -111l9 -3c58 132 107 208 172 208c37 0 65 -25 65 -67c0 -45 -29 -83 -64 -83c-31 0 -52 20 -52 57c-34 -15 -111 -126 -178 -373h-99z" />
    <glyph glyph-name="s" unicode="s" horiz-adv-x="422" 
d="M365 147c0 -102 -83 -156 -176 -156c-77 0 -178 34 -178 113c0 35 22 69 60 69c32 0 50 -25 50 -50c0 -26 -13 -46 -24 -54c19 -19 57 -30 92 -30c51 0 87 24 87 76c0 38 -39 57 -94 81c-53 24 -109 51 -109 117c0 105 98 153 175 153c94 0 159 -42 159 -100
c0 -37 -21 -70 -58 -70c-28 0 -49 20 -49 48c0 19 11 42 26 53c-10 11 -44 22 -77 22c-47 0 -87 -23 -87 -71c0 -39 38 -58 95 -83c53 -24 108 -50 108 -118z" />
    <glyph glyph-name="t" unicode="t" horiz-adv-x="373" 
d="M370 392h-139l-63 -228c-8 -30 -13 -53 -13 -66c0 -25 11 -35 33 -35c37 0 68 50 98 111l45 -13c-53 -145 -128 -170 -169 -170c-63 0 -101 31 -101 90c0 33 13 78 20 106l56 205h-91l14 54h91l33 121l97 10l-36 -131h140z" />
    <glyph glyph-name="u" unicode="u" horiz-adv-x="568" 
d="M424 -9c-48 0 -78 26 -78 91c0 25 7 67 23 112l-7 3c-63 -135 -132 -206 -200 -206c-53 0 -84 46 -84 105c0 81 70 213 70 276c0 13 -5 22 -15 22c-24 0 -41 -26 -77 -98l-44 20c41 94 90 150 152 150c46 0 74 -31 74 -90c0 -98 -66 -200 -66 -269c0 -31 10 -41 26 -41
c50 0 140 93 221 394h99l-82 -307c-8 -30 -12 -50 -12 -64c0 -17 9 -26 24 -26c26 0 47 40 70 103l44 -13c-40 -125 -92 -162 -138 -162z" />
    <glyph glyph-name="v" unicode="v" horiz-adv-x="480" 
d="M169 465c51 0 75 -33 75 -85c0 -97 -75 -207 -75 -268c0 -34 23 -49 60 -49c94 0 166 155 177 277c-6 -3 -17 -5 -23 -5c-31 0 -53 21 -53 57c0 39 29 76 66 76c43 0 68 -28 68 -97c0 -134 -105 -383 -267 -383c-73 0 -121 44 -121 107c0 79 78 223 78 274
c0 16 -4 24 -16 24c-26 0 -42 -26 -78 -98l-44 20c41 94 89 150 153 150z" />
    <glyph glyph-name="w" unicode="w" horiz-adv-x="713" 
d="M173 465c51 0 75 -32 75 -86c0 -102 -81 -203 -81 -275c0 -27 14 -41 37 -41c50 0 129 99 198 397h89l-58 -245c-9 -38 -13 -67 -13 -89c0 -49 20 -63 48 -63c86 0 157 149 169 276c-6 -2 -16 -4 -21 -4c-31 0 -53 21 -53 57c0 39 29 76 66 76c43 0 68 -32 68 -86
c0 -139 -95 -394 -257 -394c-65 0 -103 42 -102 123c0 11 0 23 3 42l-7 2c-39 -105 -89 -167 -161 -167c-57 0 -100 35 -100 103c0 87 85 217 85 280c0 13 -4 22 -16 22c-26 0 -42 -26 -78 -98l-44 20c41 94 89 150 153 150z" />
    <glyph glyph-name="x" unicode="x" horiz-adv-x="530" 
d="M306 152c0 -68 18 -94 46 -94c32 0 57 38 84 106l45 -20c-30 -88 -79 -154 -152 -154c-68 0 -97 54 -95 151l-6 -1c-41 -105 -101 -152 -153 -152c-47 0 -71 30 -71 70c0 39 25 73 56 73c32 0 51 -23 48 -67c65 20 113 162 113 240c0 68 -18 94 -46 94
c-32 0 -57 -38 -84 -106l-45 20c30 88 79 154 152 154c68 0 97 -54 95 -151h6c41 105 101 153 153 153c47 0 71 -30 71 -70c0 -39 -25 -73 -56 -73c-32 0 -51 23 -48 67c-65 -20 -113 -162 -113 -240z" />
    <glyph glyph-name="y" unicode="y" horiz-adv-x="535" 
d="M166 465c46 0 74 -31 74 -85c0 -98 -58 -183 -58 -245c0 -28 10 -38 34 -38c61 0 137 78 211 363h94l-87 -367c-43 -183 -133 -260 -262 -260c-79 0 -140 23 -140 86c0 28 23 69 64 69c35 0 53 -25 50 -57c-1 -11 -8 -28 -17 -38c14 -4 31 -7 48 -7c79 0 139 70 176 225
l14 59l-6 3c-58 -106 -122 -152 -179 -152c-63 0 -94 47 -94 105c0 76 62 187 62 245c0 13 -5 22 -14 22c-26 0 -53 -44 -78 -98l-44 20c41 94 94 150 152 150z" />
    <glyph glyph-name="z" unicode="z" horiz-adv-x="437" 
d="M115 127c49 -6 99 -45 147 -45c54 0 65 23 105 104l41 -18c-43 -116 -83 -178 -174 -178c-52 0 -87 25 -121 80l-21 34l-9 -2c-10 -83 -34 -112 -65 -112c-27 0 -43 19 -43 40c0 36 29 67 80 88c70 87 187 176 261 211c-49 6 -99 45 -144 45c-51 0 -62 -23 -102 -104
l-41 18c43 116 83 178 171 178c49 0 84 -25 118 -80l21 -34l9 2c10 83 34 112 65 112c27 0 43 -19 43 -40c0 -36 -29 -67 -80 -88c-70 -87 -187 -176 -261 -211z" />
    <glyph glyph-name="Aacute" unicode="&#xc1;" horiz-adv-x="655" 
d="M347 66h104l-14 165h-230l-98 -165h83l-16 -66h-238l16 66h71l368 596h101l62 -596h91l-16 -66h-300zM241 289h191l-24 276h-4zM556 822l-92 -81h-50l83 135c25 41 42 63 70 63c25 0 42 -23 42 -43c0 -23 -8 -34 -53 -74z" />
    <glyph glyph-name="aacute" unicode="&#xe1;" 
d="M486 460l-83 -307c-8 -29 -12 -49 -12 -64c0 -16 7 -26 24 -26c25 0 47 40 70 103l44 -13c-40 -125 -91 -162 -143 -162c-42 0 -74 28 -74 82c0 7 0 11 1 21l-7 3c-37 -69 -95 -106 -148 -106c-77 0 -126 67 -126 155c0 101 40 185 93 238c49 49 108 82 163 82
c53 0 81 -36 87 -78l19 72h92zM195 62c86 0 154 184 154 265c0 53 -21 83 -59 83c-98 0 -160 -171 -160 -249c0 -62 21 -99 65 -99zM422 614l-92 -81h-50l83 135c25 41 42 63 70 63c25 0 42 -23 42 -43c0 -23 -8 -34 -53 -74z" />
    <glyph glyph-name="Abreve" unicode="&#x102;" horiz-adv-x="655" 
d="M347 66h104l-14 165h-230l-98 -165h83l-16 -66h-238l16 66h71l368 596h101l62 -596h91l-16 -66h-300zM241 289h191l-24 276h-4zM462 748c-84 0 -130 58 -110 157h40c2 -54 23 -87 81 -87c48 0 83 33 113 87h42c-26 -98 -91 -157 -166 -157z" />
    <glyph glyph-name="abreve" unicode="&#x103;" 
d="M486 460l-83 -307c-8 -29 -12 -49 -12 -64c0 -16 7 -26 24 -26c25 0 47 40 70 103l44 -13c-40 -125 -91 -162 -143 -162c-42 0 -74 28 -74 82c0 7 0 11 1 21l-7 3c-37 -69 -95 -106 -148 -106c-77 0 -126 67 -126 155c0 101 40 185 93 238c49 49 108 82 163 82
c53 0 81 -36 87 -78l19 72h92zM195 62c86 0 154 184 154 265c0 53 -21 83 -59 83c-98 0 -160 -171 -160 -249c0 -62 21 -99 65 -99zM329 540c-84 0 -130 58 -110 157h40c2 -54 23 -87 81 -87c48 0 83 33 113 87h42c-26 -98 -91 -157 -166 -157z" />
    <glyph glyph-name="Acircumflex" unicode="&#xc2;" horiz-adv-x="655" 
d="M347 66h104l-14 165h-230l-98 -165h83l-16 -66h-238l16 66h71l368 596h101l62 -596h91l-16 -66h-300zM241 289h191l-24 276h-4zM324 742l158 183h41l64 -183h-47l-53 93l-112 -93h-51z" />
    <glyph glyph-name="acircumflex" unicode="&#xe2;" 
d="M486 460l-83 -307c-8 -29 -12 -49 -12 -64c0 -16 7 -26 24 -26c25 0 47 40 70 103l44 -13c-40 -125 -91 -162 -143 -162c-42 0 -74 28 -74 82c0 7 0 11 1 21l-7 3c-37 -69 -95 -106 -148 -106c-77 0 -126 67 -126 155c0 101 40 185 93 238c49 49 108 82 163 82
c53 0 81 -36 87 -78l19 72h92zM195 62c86 0 154 184 154 265c0 53 -21 83 -59 83c-98 0 -160 -171 -160 -249c0 -62 21 -99 65 -99zM190 534l158 183h41l64 -183h-47l-53 93l-112 -93h-51z" />
    <glyph glyph-name="Adieresis" unicode="&#xc4;" horiz-adv-x="655" 
d="M347 66h104l-14 165h-230l-98 -165h83l-16 -66h-238l16 66h71l368 596h101l62 -596h91l-16 -66h-300zM241 289h191l-24 276h-4zM453 839c0 -34 -29 -75 -71 -75c-27 0 -48 19 -48 51c0 35 27 75 68 75c30 0 51 -19 51 -51zM635 839c0 -34 -29 -75 -71 -75
c-27 0 -48 19 -48 51c0 35 27 75 68 75c30 0 51 -19 51 -51z" />
    <glyph glyph-name="adieresis" unicode="&#xe4;" 
d="M486 460l-83 -307c-8 -29 -12 -49 -12 -64c0 -16 7 -26 24 -26c25 0 47 40 70 103l44 -13c-40 -125 -91 -162 -143 -162c-42 0 -74 28 -74 82c0 7 0 11 1 21l-7 3c-37 -69 -95 -106 -148 -106c-77 0 -126 67 -126 155c0 101 40 185 93 238c49 49 108 82 163 82
c53 0 81 -36 87 -78l19 72h92zM195 62c86 0 154 184 154 265c0 53 -21 83 -59 83c-98 0 -160 -171 -160 -249c0 -62 21 -99 65 -99zM319 631c0 -34 -29 -75 -71 -75c-27 0 -48 19 -48 51c0 35 27 75 68 75c30 0 51 -19 51 -51zM501 631c0 -34 -29 -75 -71 -75
c-27 0 -48 19 -48 51c0 35 27 75 68 75c30 0 51 -19 51 -51z" />
    <glyph glyph-name="AE" unicode="&#xc6;" horiz-adv-x="992" 
d="M317 66h110l44 175h-215l-146 -175h86l-15 -66h-255l15 66h75l450 526h-98l15 66h651l-53 -214h-46c-7 118 -14 148 -94 148h-180l-56 -226h55c75 0 89 10 130 101h54l-65 -262h-52c7 92 -2 105 -73 105h-63l-61 -244h186c85 0 100 31 171 168h50l-58 -234h-577zM304 299
h181l74 297h-8z" />
    <glyph glyph-name="ae" unicode="&#xe6;" horiz-adv-x="702" 
d="M561 466c77 0 119 -40 119 -97c0 -87 -95 -167 -302 -184c-1 -12 -2 -23 -2 -33c0 -78 41 -105 92 -105c52 0 104 40 143 100l41 -24c-49 -77 -109 -132 -203 -132c-77 0 -126 38 -146 98c-35 -56 -94 -93 -172 -93c-80 0 -120 43 -120 103c0 90 94 161 303 170
c11 33 19 62 19 76c0 46 -35 73 -89 73c-21 0 -40 -4 -59 -11c10 -9 16 -24 16 -40c0 -30 -18 -62 -64 -62c-29 0 -51 21 -51 55c0 43 46 105 172 105c68 0 117 -24 139 -65c47 42 104 66 164 66zM293 154c0 24 2 50 7 74c-138 -19 -187 -59 -187 -121c0 -27 20 -53 57 -53
c39 0 78 20 124 77c-1 7 -1 15 -1 23zM545 416c-75 0 -133 -98 -157 -186c147 19 206 70 206 137c0 26 -16 49 -49 49z" />
    <glyph glyph-name="AEacute" unicode="&#x1fc;" horiz-adv-x="992" 
d="M317 66h110l44 175h-215l-146 -175h86l-15 -66h-255l15 66h75l450 526h-98l15 66h651l-53 -214h-46c-7 118 -14 148 -94 148h-180l-56 -226h55c75 0 89 10 130 101h54l-65 -262h-52c7 92 -2 105 -73 105h-63l-61 -244h186c85 0 100 31 171 168h50l-58 -234h-577zM304 299
h181l74 297h-8zM781 822l-92 -81h-50l83 135c25 41 42 63 70 63c25 0 42 -23 42 -43c0 -23 -8 -34 -53 -74z" />
    <glyph glyph-name="aeacute" unicode="&#x1fd;" horiz-adv-x="702" 
d="M561 466c77 0 119 -40 119 -97c0 -87 -95 -167 -302 -184c-1 -12 -2 -23 -2 -33c0 -78 41 -105 92 -105c52 0 104 40 143 100l41 -24c-49 -77 -109 -132 -203 -132c-77 0 -126 38 -146 98c-35 -56 -94 -93 -172 -93c-80 0 -120 43 -120 103c0 90 94 161 303 170
c11 33 19 62 19 76c0 46 -35 73 -89 73c-21 0 -40 -4 -59 -11c10 -9 16 -24 16 -40c0 -30 -18 -62 -64 -62c-29 0 -51 21 -51 55c0 43 46 105 172 105c68 0 117 -24 139 -65c47 42 104 66 164 66zM293 154c0 24 2 50 7 74c-138 -19 -187 -59 -187 -121c0 -27 20 -53 57 -53
c39 0 78 20 124 77c-1 7 -1 15 -1 23zM545 416c-75 0 -133 -98 -157 -186c147 19 206 70 206 137c0 26 -16 49 -49 49zM545 614l-92 -81h-50l83 135c25 41 42 63 70 63c25 0 42 -23 42 -43c0 -23 -8 -34 -53 -74z" />
    <glyph glyph-name="Agrave" unicode="&#xc0;" horiz-adv-x="655" 
d="M347 66h104l-14 165h-230l-98 -165h83l-16 -66h-238l16 66h71l368 596h101l62 -596h91l-16 -66h-300zM241 289h191l-24 276h-4zM464 850l16 -109h-46l-44 82c-20 38 -25 54 -25 72c0 23 19 43 41 43c42 0 50 -35 58 -88z" />
    <glyph glyph-name="agrave" unicode="&#xe0;" 
d="M486 460l-83 -307c-8 -29 -12 -49 -12 -64c0 -16 7 -26 24 -26c25 0 47 40 70 103l44 -13c-40 -125 -91 -162 -143 -162c-42 0 -74 28 -74 82c0 7 0 11 1 21l-7 3c-37 -69 -95 -106 -148 -106c-77 0 -126 67 -126 155c0 101 40 185 93 238c49 49 108 82 163 82
c53 0 81 -36 87 -78l19 72h92zM195 62c86 0 154 184 154 265c0 53 -21 83 -59 83c-98 0 -160 -171 -160 -249c0 -62 21 -99 65 -99zM330 642l16 -109h-46l-44 82c-20 38 -25 54 -25 72c0 23 19 43 41 43c42 0 50 -35 58 -88z" />
    <glyph glyph-name="Amacron" unicode="&#x100;" horiz-adv-x="655" 
d="M347 66h104l-14 165h-230l-98 -165h83l-16 -66h-238l16 66h71l368 596h101l62 -596h91l-16 -66h-300zM241 289h191l-24 276h-4zM341 758l19 75h251l-19 -75h-251z" />
    <glyph glyph-name="amacron" unicode="&#x101;" 
d="M486 460l-83 -307c-8 -29 -12 -49 -12 -64c0 -16 7 -26 24 -26c25 0 47 40 70 103l44 -13c-40 -125 -91 -162 -143 -162c-42 0 -74 28 -74 82c0 7 0 11 1 21l-7 3c-37 -69 -95 -106 -148 -106c-77 0 -126 67 -126 155c0 101 40 185 93 238c49 49 108 82 163 82
c53 0 81 -36 87 -78l19 72h92zM195 62c86 0 154 184 154 265c0 53 -21 83 -59 83c-98 0 -160 -171 -160 -249c0 -62 21 -99 65 -99zM207 550l19 75h251l-19 -75h-251z" />
    <glyph glyph-name="Aogonek" unicode="&#x104;" horiz-adv-x="655" 
d="M544 -206c-30 -22 -65 -37 -104 -37c-62 0 -104 33 -104 86c0 51 33 90 135 157h-140l16 66h104l-14 165h-230l-98 -165h83l-16 -66h-238l16 66h71l368 596h101l62 -596h91l-16 -66h-97l-1 -1c-105 -84 -121 -114 -121 -145c0 -23 14 -44 52 -44c20 0 42 10 60 21z
M241 289h191l-24 276h-4z" />
    <glyph glyph-name="aogonek" unicode="&#x105;" 
d="M375 388l19 72h92l-83 -307c-8 -29 -12 -49 -12 -64c0 -16 7 -26 24 -26c25 0 47 40 70 103l44 -13c-24 -71 -43 -112 -98 -157c-98 -80 -113 -114 -113 -142c0 -23 14 -44 52 -44c20 0 42 10 60 21l20 -37c-30 -22 -65 -37 -104 -37c-62 0 -104 33 -104 86
c0 48 30 86 125 150c-23 4 -55 26 -55 80c0 7 0 11 1 21l-7 3c-37 -69 -95 -106 -148 -106c-77 0 -126 67 -126 155c0 101 40 185 93 238c49 49 108 82 163 82c53 0 81 -36 87 -78zM195 62c86 0 154 184 154 265c0 53 -21 83 -59 83c-98 0 -160 -171 -160 -249
c0 -62 21 -99 65 -99z" />
    <glyph glyph-name="Aring" unicode="&#xc5;" horiz-adv-x="655" 
d="M564 770c0 -49 -27 -91 -70 -109l62 -595h91l-16 -66h-300l16 66h104l-14 165h-230l-98 -165h83l-16 -66h-238l16 66h71l371 601c-25 16 -38 44 -38 73c0 64 47 117 113 117c62 0 93 -41 93 -87zM241 289h191l-24 276h-4zM406 740c0 -33 19 -52 49 -52c44 0 61 54 61 83
c0 33 -19 51 -49 51c-44 0 -61 -53 -61 -82z" />
    <glyph glyph-name="aring" unicode="&#xe5;" 
d="M486 460l-83 -307c-8 -29 -12 -49 -12 -64c0 -16 7 -26 24 -26c25 0 47 40 70 103l44 -13c-40 -125 -91 -162 -143 -162c-42 0 -74 28 -74 82c0 7 0 11 1 21l-7 3c-37 -69 -95 -106 -148 -106c-77 0 -126 67 -126 155c0 101 40 185 93 238c49 49 108 82 163 82
c53 0 81 -36 87 -78l19 72h92zM195 62c86 0 154 184 154 265c0 53 -21 83 -59 83c-98 0 -160 -171 -160 -249c0 -62 21 -99 65 -99zM455 644c0 -64 -47 -117 -113 -117c-62 0 -93 42 -93 87c0 64 47 117 113 117c62 0 93 -41 93 -87zM297 614c0 -33 19 -52 49 -52
c44 0 61 54 61 83c0 33 -19 51 -49 51c-44 0 -61 -53 -61 -82z" />
    <glyph glyph-name="Aringacute" unicode="&#x1fa;" horiz-adv-x="655" 
d="M564 770c0 -49 -27 -91 -70 -109l62 -595h91l-16 -66h-300l16 66h104l-14 165h-230l-98 -165h83l-16 -66h-238l16 66h71l371 601c-25 16 -38 44 -38 73c0 64 47 117 113 117c62 0 93 -41 93 -87zM241 289h191l-24 276h-4zM406 740c0 -33 19 -52 49 -52c44 0 61 54 61 83
c0 33 -19 51 -49 51c-44 0 -61 -53 -61 -82zM600 978l-92 -81h-50l83 135c25 41 42 63 70 63c25 0 42 -23 42 -43c0 -23 -8 -34 -53 -74z" />
    <glyph glyph-name="aringacute" unicode="&#x1fb;" 
d="M486 460l-83 -307c-8 -29 -12 -49 -12 -64c0 -16 7 -26 24 -26c25 0 47 40 70 103l44 -13c-40 -125 -91 -162 -143 -162c-42 0 -74 28 -74 82c0 7 0 11 1 21l-7 3c-37 -69 -95 -106 -148 -106c-77 0 -126 67 -126 155c0 101 40 185 93 238c49 49 108 82 163 82
c53 0 81 -36 87 -78l19 72h92zM195 62c86 0 154 184 154 265c0 53 -21 83 -59 83c-98 0 -160 -171 -160 -249c0 -62 21 -99 65 -99zM455 644c0 -64 -47 -117 -113 -117c-62 0 -93 42 -93 87c0 64 47 117 113 117c62 0 93 -41 93 -87zM297 614c0 -33 19 -52 49 -52
c44 0 61 54 61 83c0 33 -19 51 -49 51c-44 0 -61 -53 -61 -82zM481 852l-92 -81h-50l83 135c25 41 42 63 70 63c25 0 42 -23 42 -43c0 -23 -8 -34 -53 -74z" />
    <glyph glyph-name="Atilde" unicode="&#xc3;" horiz-adv-x="655" 
d="M347 66h104l-14 165h-230l-98 -165h83l-16 -66h-238l16 66h71l368 596h101l62 -596h91l-16 -66h-300zM241 289h191l-24 276h-4zM412 805c-18 0 -31 -15 -54 -60h-50c29 78 66 127 121 127c67 0 88 -54 119 -54c18 0 31 15 54 60h50c-29 -78 -66 -127 -121 -127
c-67 0 -88 54 -119 54z" />
    <glyph glyph-name="atilde" unicode="&#xe3;" 
d="M486 460l-83 -307c-8 -29 -12 -49 -12 -64c0 -16 7 -26 24 -26c25 0 47 40 70 103l44 -13c-40 -125 -91 -162 -143 -162c-42 0 -74 28 -74 82c0 7 0 11 1 21l-7 3c-37 -69 -95 -106 -148 -106c-77 0 -126 67 -126 155c0 101 40 185 93 238c49 49 108 82 163 82
c53 0 81 -36 87 -78l19 72h92zM195 62c86 0 154 184 154 265c0 53 -21 83 -59 83c-98 0 -160 -171 -160 -249c0 -62 21 -99 65 -99zM278 597c-18 0 -31 -15 -54 -60h-50c29 78 66 127 121 127c67 0 88 -54 119 -54c18 0 31 15 54 60h50c-29 -78 -66 -127 -121 -127
c-67 0 -88 54 -119 54z" />
    <glyph glyph-name="Cacute" unicode="&#x106;" horiz-adv-x="674" 
d="M332 -16c-187 0 -267 121 -267 277c0 216 163 413 372 413c82 0 144 -30 177 -79l37 76h67l-64 -258h-59c-13 152 -76 195 -162 195c-190 0 -257 -231 -257 -352c0 -132 64 -202 165 -202c110 0 179 87 232 209l62 -24c-50 -139 -146 -255 -303 -255zM566 822l-92 -81
h-50l83 135c25 41 42 63 70 63c25 0 42 -23 42 -43c0 -23 -8 -34 -53 -74z" />
    <glyph glyph-name="cacute" unicode="&#x107;" horiz-adv-x="452" 
d="M299 466c82 0 134 -50 134 -109c0 -35 -21 -77 -61 -77c-32 0 -53 22 -53 49c0 22 10 45 34 66c-8 10 -26 21 -56 21c-108 0 -168 -173 -168 -252c0 -83 43 -113 91 -113c47 0 92 37 131 103l41 -24c-43 -80 -96 -139 -187 -139c-103 0 -173 75 -173 180
c0 150 131 295 267 295zM415 614l-92 -81h-50l83 135c25 41 42 63 70 63c25 0 42 -23 42 -43c0 -23 -8 -34 -53 -74z" />
    <glyph glyph-name="Ccaron" unicode="&#x10c;" horiz-adv-x="674" 
d="M332 -16c-187 0 -267 121 -267 277c0 216 163 413 372 413c82 0 144 -30 177 -79l37 76h67l-64 -258h-59c-13 152 -76 195 -162 195c-190 0 -257 -231 -257 -352c0 -132 64 -202 165 -202c110 0 179 87 232 209l62 -24c-50 -139 -146 -255 -303 -255zM636 934l-158 -183
h-41l-64 183h47l53 -93l112 93h51z" />
    <glyph glyph-name="ccaron" unicode="&#x10d;" horiz-adv-x="452" 
d="M299 466c82 0 134 -50 134 -109c0 -35 -21 -77 -61 -77c-32 0 -53 22 -53 49c0 22 10 45 34 66c-8 10 -26 21 -56 21c-108 0 -168 -173 -168 -252c0 -83 43 -113 91 -113c47 0 92 37 131 103l41 -24c-43 -80 -96 -139 -187 -139c-103 0 -173 75 -173 180
c0 150 131 295 267 295zM485 726l-158 -183h-41l-64 183h47l53 -93l112 93h51z" />
    <glyph glyph-name="Ccedilla" unicode="&#xc7;" horiz-adv-x="674" 
d="M168 -167c26 -19 46 -28 77 -28c28 0 48 15 48 40c0 33 -42 45 -87 41l-11 23l88 78c-152 19 -218 132 -218 274c0 216 163 413 372 413c82 0 144 -30 177 -79l37 76h67l-64 -258h-59c-13 152 -76 195 -162 195c-190 0 -257 -231 -257 -352c0 -132 64 -202 165 -202
c110 0 179 87 232 209l62 -24c-49 -137 -143 -251 -296 -255l-57 -50v-4c43 -7 79 -34 79 -78c0 -46 -32 -95 -112 -95c-36 0 -79 14 -109 42z" />
    <glyph glyph-name="ccedilla" unicode="&#xe7;" horiz-adv-x="452" 
d="M52 -167c26 -19 46 -28 77 -28c28 0 48 15 48 40c0 33 -42 45 -87 41l-11 23l95 84c-86 13 -142 83 -142 178c0 150 131 295 267 295c82 0 134 -50 134 -109c0 -35 -21 -77 -61 -77c-32 0 -53 22 -53 49c0 22 10 45 34 66c-8 10 -26 21 -56 21
c-108 0 -168 -173 -168 -252c0 -83 43 -113 91 -113c47 0 92 37 131 103l41 -24c-38 -71 -85 -126 -158 -137l-68 -59v-4c43 -7 79 -34 79 -78c0 -46 -32 -95 -112 -95c-36 0 -79 14 -109 42z" />
    <glyph glyph-name="Cdotaccent" unicode="&#x10a;" horiz-adv-x="674" 
d="M332 -16c-187 0 -267 121 -267 277c0 216 163 413 372 413c82 0 144 -30 177 -79l37 76h67l-64 -258h-59c-13 152 -76 195 -162 195c-190 0 -257 -231 -257 -352c0 -132 64 -202 165 -202c110 0 179 87 232 209l62 -24c-50 -139 -146 -255 -303 -255zM552 822
c0 -35 -29 -77 -74 -77c-27 0 -49 19 -49 53c0 36 27 78 71 78c31 0 52 -20 52 -54z" />
    <glyph glyph-name="cdotaccent" unicode="&#x10b;" horiz-adv-x="452" 
d="M299 466c82 0 134 -50 134 -109c0 -35 -21 -77 -61 -77c-32 0 -53 22 -53 49c0 22 10 45 34 66c-8 10 -26 21 -56 21c-108 0 -168 -173 -168 -252c0 -83 43 -113 91 -113c47 0 92 37 131 103l41 -24c-43 -80 -96 -139 -187 -139c-103 0 -173 75 -173 180
c0 150 131 295 267 295zM401 614c0 -35 -29 -77 -74 -77c-27 0 -49 19 -49 53c0 36 27 78 71 78c31 0 52 -20 52 -54z" />
    <glyph glyph-name="Dcaron" unicode="&#x10e;" horiz-adv-x="708" 
d="M-24 0l15 66h110l131 526h-112l16 66h265c197 0 307 -109 307 -253c0 -93 -42 -204 -119 -281c-76 -76 -191 -124 -337 -124h-276zM204 66h58c99 0 169 21 223 75c62 62 106 186 106 282c0 110 -66 169 -195 169h-61zM646 934l-158 -183h-41l-64 183h47l53 -93l112 93h51
z" />
    <glyph glyph-name="dcaron" unicode="&#x10f;" 
d="M195 62c86 0 155 180 155 273c0 49 -16 75 -58 75c-103 0 -162 -171 -162 -249c0 -62 21 -99 65 -99zM485 166l44 -13c-40 -125 -91 -162 -143 -162c-42 0 -74 29 -74 83c0 5 0 9 1 20l-7 3c-37 -69 -95 -106 -148 -106c-77 0 -126 67 -126 155c0 101 40 185 93 238
c49 49 108 82 163 82c52 0 78 -27 89 -70l59 219h-91l19 72h183l-144 -534c-8 -29 -12 -49 -12 -64c0 -16 7 -26 24 -26c25 0 47 40 70 103zM685 635l-64 -112h-41l36 159c11 49 28 69 55 69c26 0 43 -20 43 -43c0 -21 -9 -38 -29 -73z" />
    <glyph glyph-name="Dcroat" unicode="&#x110;" horiz-adv-x="708" 
d="M-24 0l15 66h110l61 244h-111l17 66h110l54 216h-112l16 66h265c197 0 307 -109 307 -253c0 -93 -42 -204 -119 -281c-76 -76 -191 -124 -337 -124h-276zM204 66h58c99 0 169 21 223 75c62 62 106 186 106 282c0 110 -66 169 -195 169h-61l-54 -216h137l-17 -66h-136z
" />
    <glyph glyph-name="dcroat" unicode="&#x111;" 
d="M364 687h183l-34 -127h70l-15 -56h-70l-95 -351c-8 -29 -12 -49 -12 -64c0 -16 7 -26 24 -26c25 0 47 40 70 103l44 -13c-40 -125 -91 -162 -143 -162c-42 0 -74 29 -74 83c0 5 0 9 1 20l-7 3c-37 -69 -95 -106 -148 -106c-77 0 -126 67 -126 155c0 101 40 185 93 238
c49 49 108 82 163 82c52 0 78 -27 89 -70l29 108h-128l15 56h128l15 55h-91zM195 62c86 0 155 180 155 273c0 49 -16 75 -58 75c-103 0 -162 -171 -162 -249c0 -62 21 -99 65 -99z" />
    <glyph glyph-name="Eacute" unicode="&#xc9;" horiz-adv-x="666" 
d="M136 658h572l-53 -214h-46c-7 118 -14 148 -94 148h-180l-56 -226h55c75 0 89 10 130 101h54l-65 -262h-52c7 92 -2 105 -73 105h-63l-61 -244h186c85 0 100 31 171 168h50l-58 -234h-577l15 66h110l131 526h-112zM561 822l-92 -81h-50l83 135c25 41 42 63 70 63
c25 0 42 -23 42 -43c0 -23 -8 -34 -53 -74z" />
    <glyph glyph-name="eacute" unicode="&#xe9;" horiz-adv-x="454" 
d="M432 369c0 -87 -95 -167 -302 -184c-1 -12 -2 -23 -2 -33c0 -78 41 -105 92 -105c52 0 104 40 143 100l41 -24c-49 -77 -109 -132 -213 -132c-92 0 -160 71 -160 178c0 152 136 297 282 297c77 0 119 -40 119 -97zM297 416c-75 0 -133 -98 -157 -186
c147 19 206 70 206 137c0 26 -16 49 -49 49zM410 614l-92 -81h-50l83 135c25 41 42 63 70 63c25 0 42 -23 42 -43c0 -23 -8 -34 -53 -74z" />
    <glyph glyph-name="Ebreve" unicode="&#x114;" horiz-adv-x="666" 
d="M136 658h572l-53 -214h-46c-7 118 -14 148 -94 148h-180l-56 -226h55c75 0 89 10 130 101h54l-65 -262h-52c7 92 -2 105 -73 105h-63l-61 -244h186c85 0 100 31 171 168h50l-58 -234h-577l15 66h110l131 526h-112zM468 748c-84 0 -130 58 -110 157h40
c2 -54 23 -87 81 -87c48 0 83 33 113 87h42c-26 -98 -91 -157 -166 -157z" />
    <glyph glyph-name="ebreve" unicode="&#x115;" horiz-adv-x="454" 
d="M432 369c0 -87 -95 -167 -302 -184c-1 -12 -2 -23 -2 -33c0 -78 41 -105 92 -105c52 0 104 40 143 100l41 -24c-49 -77 -109 -132 -213 -132c-92 0 -160 71 -160 178c0 152 136 297 282 297c77 0 119 -40 119 -97zM297 416c-75 0 -133 -98 -157 -186
c147 19 206 70 206 137c0 26 -16 49 -49 49zM317 540c-84 0 -130 58 -110 157h40c2 -54 23 -87 81 -87c48 0 83 33 113 87h42c-26 -98 -91 -157 -166 -157z" />
    <glyph glyph-name="Ecaron" unicode="&#x11a;" horiz-adv-x="666" 
d="M136 658h572l-53 -214h-46c-7 118 -14 148 -94 148h-180l-56 -226h55c75 0 89 10 130 101h54l-65 -262h-52c7 92 -2 105 -73 105h-63l-61 -244h186c85 0 100 31 171 168h50l-58 -234h-577l15 66h110l131 526h-112zM631 934l-158 -183h-41l-64 183h47l53 -93l112 93h51z
" />
    <glyph glyph-name="ecaron" unicode="&#x11b;" horiz-adv-x="454" 
d="M432 369c0 -87 -95 -167 -302 -184c-1 -12 -2 -23 -2 -33c0 -78 41 -105 92 -105c52 0 104 40 143 100l41 -24c-49 -77 -109 -132 -213 -132c-92 0 -160 71 -160 178c0 152 136 297 282 297c77 0 119 -40 119 -97zM297 416c-75 0 -133 -98 -157 -186
c147 19 206 70 206 137c0 26 -16 49 -49 49zM480 726l-158 -183h-41l-64 183h47l53 -93l112 93h51z" />
    <glyph glyph-name="Ecircumflex" unicode="&#xca;" horiz-adv-x="666" 
d="M136 658h572l-53 -214h-46c-7 118 -14 148 -94 148h-180l-56 -226h55c75 0 89 10 130 101h54l-65 -262h-52c7 92 -2 105 -73 105h-63l-61 -244h186c85 0 100 31 171 168h50l-58 -234h-577l15 66h110l131 526h-112zM330 742l158 183h41l64 -183h-47l-53 93l-112 -93h-51z
" />
    <glyph glyph-name="ecircumflex" unicode="&#xea;" horiz-adv-x="454" 
d="M432 369c0 -87 -95 -167 -302 -184c-1 -12 -2 -23 -2 -33c0 -78 41 -105 92 -105c52 0 104 40 143 100l41 -24c-49 -77 -109 -132 -213 -132c-92 0 -160 71 -160 178c0 152 136 297 282 297c77 0 119 -40 119 -97zM297 416c-75 0 -133 -98 -157 -186
c147 19 206 70 206 137c0 26 -16 49 -49 49zM178 534l158 183h41l64 -183h-47l-53 93l-112 -93h-51z" />
    <glyph glyph-name="Edieresis" unicode="&#xcb;" horiz-adv-x="666" 
d="M136 658h572l-53 -214h-46c-7 118 -14 148 -94 148h-180l-56 -226h55c75 0 89 10 130 101h54l-65 -262h-52c7 92 -2 105 -73 105h-63l-61 -244h186c85 0 100 31 171 168h50l-58 -234h-577l15 66h110l131 526h-112zM458 839c0 -34 -29 -75 -71 -75c-27 0 -48 19 -48 51
c0 35 27 75 68 75c30 0 51 -19 51 -51zM640 839c0 -34 -29 -75 -71 -75c-27 0 -48 19 -48 51c0 35 27 75 68 75c30 0 51 -19 51 -51z" />
    <glyph glyph-name="edieresis" unicode="&#xeb;" horiz-adv-x="454" 
d="M432 369c0 -87 -95 -167 -302 -184c-1 -12 -2 -23 -2 -33c0 -78 41 -105 92 -105c52 0 104 40 143 100l41 -24c-49 -77 -109 -132 -213 -132c-92 0 -160 71 -160 178c0 152 136 297 282 297c77 0 119 -40 119 -97zM297 416c-75 0 -133 -98 -157 -186
c147 19 206 70 206 137c0 26 -16 49 -49 49zM307 631c0 -34 -29 -75 -71 -75c-27 0 -48 19 -48 51c0 35 27 75 68 75c30 0 51 -19 51 -51zM489 631c0 -34 -29 -75 -71 -75c-27 0 -48 19 -48 51c0 35 27 75 68 75c30 0 51 -19 51 -51z" />
    <glyph glyph-name="Edotaccent" unicode="&#x116;" horiz-adv-x="666" 
d="M136 658h572l-53 -214h-46c-7 118 -14 148 -94 148h-180l-56 -226h55c75 0 89 10 130 101h54l-65 -262h-52c7 92 -2 105 -73 105h-63l-61 -244h186c85 0 100 31 171 168h50l-58 -234h-577l15 66h110l131 526h-112zM547 822c0 -35 -29 -77 -74 -77c-27 0 -49 19 -49 53
c0 36 27 78 71 78c31 0 52 -20 52 -54z" />
    <glyph glyph-name="edotaccent" unicode="&#x117;" horiz-adv-x="454" 
d="M432 369c0 -87 -95 -167 -302 -184c-1 -12 -2 -23 -2 -33c0 -78 41 -105 92 -105c52 0 104 40 143 100l41 -24c-49 -77 -109 -132 -213 -132c-92 0 -160 71 -160 178c0 152 136 297 282 297c77 0 119 -40 119 -97zM297 416c-75 0 -133 -98 -157 -186
c147 19 206 70 206 137c0 26 -16 49 -49 49zM396 614c0 -35 -29 -77 -74 -77c-27 0 -49 19 -49 53c0 36 27 78 71 78c31 0 52 -20 52 -54z" />
    <glyph glyph-name="Egrave" unicode="&#xc8;" horiz-adv-x="666" 
d="M136 658h572l-53 -214h-46c-7 118 -14 148 -94 148h-180l-56 -226h55c75 0 89 10 130 101h54l-65 -262h-52c7 92 -2 105 -73 105h-63l-61 -244h186c85 0 100 31 171 168h50l-58 -234h-577l15 66h110l131 526h-112zM469 850l16 -109h-46l-44 82c-20 38 -25 54 -25 72
c0 23 19 43 41 43c42 0 50 -35 58 -88z" />
    <glyph glyph-name="egrave" unicode="&#xe8;" horiz-adv-x="454" 
d="M432 369c0 -87 -95 -167 -302 -184c-1 -12 -2 -23 -2 -33c0 -78 41 -105 92 -105c52 0 104 40 143 100l41 -24c-49 -77 -109 -132 -213 -132c-92 0 -160 71 -160 178c0 152 136 297 282 297c77 0 119 -40 119 -97zM297 416c-75 0 -133 -98 -157 -186
c147 19 206 70 206 137c0 26 -16 49 -49 49zM318 642l16 -109h-46l-44 82c-20 38 -25 54 -25 72c0 23 19 43 41 43c42 0 50 -35 58 -88z" />
    <glyph glyph-name="Emacron" unicode="&#x112;" horiz-adv-x="666" 
d="M136 658h572l-53 -214h-46c-7 118 -14 148 -94 148h-180l-56 -226h55c75 0 89 10 130 101h54l-65 -262h-52c7 92 -2 105 -73 105h-63l-61 -244h186c85 0 100 31 171 168h50l-58 -234h-577l15 66h110l131 526h-112zM346 758l19 75h251l-19 -75h-251z" />
    <glyph glyph-name="emacron" unicode="&#x113;" horiz-adv-x="454" 
d="M432 369c0 -87 -95 -167 -302 -184c-1 -12 -2 -23 -2 -33c0 -78 41 -105 92 -105c52 0 104 40 143 100l41 -24c-49 -77 -109 -132 -213 -132c-92 0 -160 71 -160 178c0 152 136 297 282 297c77 0 119 -40 119 -97zM297 416c-75 0 -133 -98 -157 -186
c147 19 206 70 206 137c0 26 -16 49 -49 49zM195 550l19 75h251l-19 -75h-251z" />
    <glyph glyph-name="Eogonek" unicode="&#x118;" horiz-adv-x="666" 
d="M512 -206c-30 -22 -65 -37 -104 -37c-62 0 -104 33 -104 86c0 51 33 90 135 157h-463l15 66h110l131 526h-112l16 66h572l-53 -214h-46c-7 118 -14 148 -94 148h-180l-56 -226h55c75 0 89 10 130 101h54l-65 -262h-52c7 92 -2 105 -73 105h-63l-61 -244h186
c85 0 100 31 171 168h50l-58 -234h-51l-1 -1c-105 -84 -121 -114 -121 -145c0 -23 14 -44 52 -44c20 0 42 10 60 21z" />
    <glyph glyph-name="eogonek" unicode="&#x119;" horiz-adv-x="454" 
d="M363 147l41 -24c-27 -41 -44 -62 -82 -93l-39 -31c-105 -84 -121 -114 -121 -145c0 -23 14 -44 52 -44c20 0 42 10 60 21l20 -37c-30 -22 -65 -37 -104 -37c-62 0 -104 33 -104 86c0 47 26 83 122 148h-17c-92 0 -160 71 -160 178c0 152 136 297 282 297
c77 0 119 -40 119 -97c0 -87 -95 -167 -302 -184c-1 -12 -2 -23 -2 -33c0 -78 41 -105 92 -105c52 0 104 40 143 100zM297 416c-75 0 -133 -98 -157 -186c147 19 206 70 206 137c0 26 -16 49 -49 49z" />
    <glyph glyph-name="Eth" unicode="&#xd0;" horiz-adv-x="708" 
d="M-24 0l15 66h110l61 244h-111l17 66h110l54 216h-112l16 66h265c197 0 307 -109 307 -253c0 -93 -42 -204 -119 -281c-76 -76 -191 -124 -337 -124h-276zM204 66h58c99 0 169 21 223 75c62 62 106 186 106 282c0 110 -66 169 -195 169h-61l-54 -216h137l-17 -66h-136z
" />
    <glyph glyph-name="eth" unicode="&#xf0;" horiz-adv-x="502" 
d="M516 615l-97 -34c35 -71 54 -146 54 -242c0 -187 -96 -348 -265 -348c-107 0 -177 77 -177 192c0 155 124 278 245 278c58 0 94 -25 110 -60c-4 49 -16 99 -40 154l-117 -40l-17 48l112 39c-12 23 -26 46 -41 72l70 18c15 -23 30 -44 42 -65l104 36zM366 311
c0 65 -32 94 -86 94c-100 0 -152 -157 -152 -264c0 -66 28 -100 80 -100c103 0 158 168 158 270z" />
    <glyph glyph-name="Gbreve" unicode="&#x11e;" horiz-adv-x="704" 
d="M326 54c88 0 162 72 190 183l7 28h-122l17 66h312l-17 -66h-87l-70 -272h-64l-6 87c-44 -61 -110 -96 -184 -96c-154 0 -237 124 -237 277c0 216 163 413 372 413c82 0 144 -30 177 -79l37 76h67l-64 -258h-59c-13 152 -76 195 -162 195c-190 0 -257 -231 -257 -346
c0 -153 74 -208 150 -208zM473 748c-84 0 -130 58 -110 157h40c2 -54 23 -87 81 -87c48 0 83 33 113 87h42c-26 -98 -91 -157 -166 -157z" />
    <glyph glyph-name="gbreve" unicode="&#x11f;" horiz-adv-x="496" 
d="M78 -103c13 -6 36 -11 64 -11c39 0 67 12 91 37c30 31 51 84 69 163l-7 3c-32 -42 -84 -68 -133 -68c-82 0 -130 66 -130 143c0 90 34 173 94 233c45 45 93 69 148 69c51 0 88 -32 99 -76l17 70h92l-87 -367c-43 -183 -121 -260 -256 -260c-75 0 -154 20 -154 91
c0 32 22 73 63 73c35 0 51 -24 51 -51c0 -18 -11 -39 -21 -49zM197 87c80 0 152 124 152 234c0 53 -34 89 -70 89c-90 0 -149 -139 -149 -238c0 -56 22 -85 67 -85zM321 540c-84 0 -130 58 -110 157h40c2 -54 23 -87 81 -87c48 0 83 33 113 87h42
c-26 -98 -91 -157 -166 -157z" />
    <glyph glyph-name="Gcommaaccent" unicode="&#x122;" horiz-adv-x="704" 
d="M326 54c88 0 162 72 190 183l7 28h-122l17 66h312l-17 -66h-87l-70 -272h-64l-6 87c-44 -61 -110 -96 -184 -96c-154 0 -237 124 -237 277c0 216 163 413 372 413c82 0 144 -30 177 -79l37 76h67l-64 -258h-59c-13 152 -76 195 -162 195c-190 0 -257 -231 -257 -346
c0 -153 74 -208 150 -208zM166 -317l-13 35c60 25 95 51 109 88l-5 3c-5 -2 -11 -4 -19 -4c-22 0 -44 16 -44 48s24 70 65 70c44 0 66 -36 66 -74c0 -62 -45 -128 -159 -166z" />
    <glyph glyph-name="gcommaaccent" unicode="&#x123;" horiz-adv-x="496" 
d="M78 -103c13 -6 36 -11 64 -11c39 0 67 12 91 37c30 31 51 84 69 163l-7 3c-32 -42 -84 -68 -133 -68c-82 0 -130 66 -130 143c0 90 34 173 94 233c45 45 93 69 148 69c51 0 88 -32 99 -76l17 70h92l-87 -367c-43 -183 -121 -260 -256 -260c-75 0 -154 20 -154 91
c0 32 22 73 63 73c35 0 51 -24 51 -51c0 -18 -11 -39 -21 -49zM197 87c80 0 152 124 152 234c0 53 -34 89 -70 89c-90 0 -149 -139 -149 -238c0 -56 22 -85 67 -85zM420 777l13 -35c-60 -25 -95 -51 -109 -88l5 -3c5 2 11 4 19 4c22 0 44 -16 44 -48s-24 -70 -65 -70
c-44 0 -66 36 -66 74c0 62 45 128 159 166z" />
    <glyph glyph-name="Gdotaccent" unicode="&#x120;" horiz-adv-x="704" 
d="M326 54c88 0 162 72 190 183l7 28h-122l17 66h312l-17 -66h-87l-70 -272h-64l-6 87c-44 -61 -110 -96 -184 -96c-154 0 -237 124 -237 277c0 216 163 413 372 413c82 0 144 -30 177 -79l37 76h67l-64 -258h-59c-13 152 -76 195 -162 195c-190 0 -257 -231 -257 -346
c0 -153 74 -208 150 -208zM552 822c0 -35 -29 -77 -74 -77c-27 0 -49 19 -49 53c0 36 27 78 71 78c31 0 52 -20 52 -54z" />
    <glyph glyph-name="gdotaccent" unicode="&#x121;" horiz-adv-x="496" 
d="M78 -103c13 -6 36 -11 64 -11c39 0 67 12 91 37c30 31 51 84 69 163l-7 3c-32 -42 -84 -68 -133 -68c-82 0 -130 66 -130 143c0 90 34 173 94 233c45 45 93 69 148 69c51 0 88 -32 99 -76l17 70h92l-87 -367c-43 -183 -121 -260 -256 -260c-75 0 -154 20 -154 91
c0 32 22 73 63 73c35 0 51 -24 51 -51c0 -18 -11 -39 -21 -49zM197 87c80 0 152 124 152 234c0 53 -34 89 -70 89c-90 0 -149 -139 -149 -238c0 -56 22 -85 67 -85zM400 614c0 -35 -29 -77 -74 -77c-27 0 -49 19 -49 53c0 36 27 78 71 78c31 0 52 -20 52 -54z" />
    <glyph glyph-name="Hbar" unicode="&#x126;" horiz-adv-x="779" 
d="M85 447l14 58h111l22 87h-112l16 66h306l-16 -66h-91l-22 -87h289l22 87h-93l16 66h306l-16 -66h-110l-22 -87h111l-14 -58h-111l-95 -381h112l-15 -66h-306l15 66h91l60 236h-289l-60 -236h93l-15 -66h-306l15 66h110l95 381h-111zM278 360h289l21 87h-289z" />
    <glyph glyph-name="hbar" unicode="&#x127;" horiz-adv-x="543" 
d="M389 -9c-46 0 -81 31 -81 90c0 107 66 199 66 274c0 26 -10 35 -26 35c-50 0 -153 -96 -232 -390h-99l134 504h-72l15 56h72l15 55h-91l19 72h183l-37 -127h129l-15 -56h-130l-72 -247l6 -3c63 135 143 212 211 212c53 0 84 -47 84 -106c0 -81 -71 -206 -71 -275
c0 -14 5 -22 18 -22c23 0 45 40 68 103l44 -13c-40 -125 -92 -162 -138 -162z" />
    <glyph glyph-name="Iacute" unicode="&#xcd;" horiz-adv-x="407" 
d="M-14 0l15 66h110l131 526h-112l16 66h325l-16 -66h-110l-131 -526h112l-15 -66h-325zM424 822l-92 -81h-50l83 135c25 41 42 63 70 63c25 0 42 -23 42 -43c0 -23 -8 -34 -53 -74z" />
    <glyph glyph-name="iacute" unicode="&#xed;" horiz-adv-x="333" 
d="M256 360c0 -76 -80 -209 -80 -272c0 -17 7 -25 22 -25c21 0 44 32 72 103l44 -13c-39 -121 -92 -162 -147 -162c-46 0 -81 31 -81 90c0 104 83 229 83 299c0 17 -5 23 -16 23c-32 0 -58 -46 -88 -108l-44 20c41 94 91 151 152 151c49 0 83 -38 83 -106zM283 614l-92 -81
h-50l83 135c25 41 42 63 70 63c25 0 42 -23 42 -43c0 -23 -8 -34 -53 -74z" />
    <glyph glyph-name="Ibreve" unicode="&#x12c;" horiz-adv-x="407" 
d="M-14 0l15 66h110l131 526h-112l16 66h325l-16 -66h-110l-131 -526h112l-15 -66h-325zM331 748c-84 0 -130 58 -110 157h40c2 -54 23 -87 81 -87c48 0 83 33 113 87h42c-26 -98 -91 -157 -166 -157z" />
    <glyph glyph-name="ibreve" unicode="&#x12d;" horiz-adv-x="333" 
d="M256 360c0 -76 -80 -209 -80 -272c0 -17 7 -25 22 -25c21 0 44 32 72 103l44 -13c-39 -121 -92 -162 -147 -162c-46 0 -81 31 -81 90c0 104 83 229 83 299c0 17 -5 23 -16 23c-32 0 -58 -46 -88 -108l-44 20c41 94 91 151 152 151c49 0 83 -38 83 -106zM190 540
c-84 0 -130 58 -110 157h40c2 -54 23 -87 81 -87c48 0 83 33 113 87h42c-26 -98 -91 -157 -166 -157z" />
    <glyph glyph-name="Icircumflex" unicode="&#xce;" horiz-adv-x="407" 
d="M-14 0l15 66h110l131 526h-112l16 66h325l-16 -66h-110l-131 -526h112l-15 -66h-325zM193 742l158 183h41l64 -183h-47l-53 93l-112 -93h-51z" />
    <glyph glyph-name="icircumflex" unicode="&#xee;" horiz-adv-x="333" 
d="M256 360c0 -76 -80 -209 -80 -272c0 -17 7 -25 22 -25c21 0 44 32 72 103l44 -13c-39 -121 -92 -162 -147 -162c-46 0 -81 31 -81 90c0 104 83 229 83 299c0 17 -5 23 -16 23c-32 0 -58 -46 -88 -108l-44 20c41 94 91 151 152 151c49 0 83 -38 83 -106zM51 534l158 183
h41l64 -183h-47l-53 93l-112 -93h-51z" />
    <glyph glyph-name="Idieresis" unicode="&#xcf;" horiz-adv-x="407" 
d="M-14 0l15 66h110l131 526h-112l16 66h325l-16 -66h-110l-131 -526h112l-15 -66h-325zM321 839c0 -34 -29 -75 -71 -75c-27 0 -48 19 -48 51c0 35 27 75 68 75c30 0 51 -19 51 -51zM503 839c0 -34 -29 -75 -71 -75c-27 0 -48 19 -48 51c0 35 27 75 68 75
c30 0 51 -19 51 -51z" />
    <glyph glyph-name="idieresis" unicode="&#xef;" horiz-adv-x="333" 
d="M256 360c0 -76 -80 -209 -80 -272c0 -17 7 -25 22 -25c21 0 44 32 72 103l44 -13c-39 -121 -92 -162 -147 -162c-46 0 -81 31 -81 90c0 104 83 229 83 299c0 17 -5 23 -16 23c-32 0 -58 -46 -88 -108l-44 20c41 94 91 151 152 151c49 0 83 -38 83 -106zM180 631
c0 -34 -29 -75 -71 -75c-27 0 -48 19 -48 51c0 35 27 75 68 75c30 0 51 -19 51 -51zM362 631c0 -34 -29 -75 -71 -75c-27 0 -48 19 -48 51c0 35 27 75 68 75c30 0 51 -19 51 -51z" />
    <glyph glyph-name="Idotaccent" unicode="&#x130;" horiz-adv-x="407" 
d="M-14 0l15 66h110l131 526h-112l16 66h325l-16 -66h-110l-131 -526h112l-15 -66h-325zM410 822c0 -35 -29 -77 -74 -77c-27 0 -49 19 -49 53c0 36 27 78 71 78c31 0 52 -20 52 -54z" />
    <glyph glyph-name="dotlessi" unicode="&#x131;" horiz-adv-x="333" 
d="M256 360c0 -76 -80 -209 -80 -272c0 -17 7 -25 22 -25c21 0 44 32 72 103l44 -13c-39 -121 -92 -162 -147 -162c-46 0 -81 31 -81 90c0 104 83 229 83 299c0 17 -5 23 -16 23c-32 0 -58 -46 -88 -108l-44 20c41 94 91 151 152 151c49 0 83 -38 83 -106z" />
    <glyph glyph-name="Igrave" unicode="&#xcc;" horiz-adv-x="407" 
d="M-14 0l15 66h110l131 526h-112l16 66h325l-16 -66h-110l-131 -526h112l-15 -66h-325zM332 850l16 -109h-46l-44 82c-20 38 -25 54 -25 72c0 23 19 43 41 43c42 0 50 -35 58 -88z" />
    <glyph glyph-name="igrave" unicode="&#xec;" horiz-adv-x="333" 
d="M256 360c0 -76 -80 -209 -80 -272c0 -17 7 -25 22 -25c21 0 44 32 72 103l44 -13c-39 -121 -92 -162 -147 -162c-46 0 -81 31 -81 90c0 104 83 229 83 299c0 17 -5 23 -16 23c-32 0 -58 -46 -88 -108l-44 20c41 94 91 151 152 151c49 0 83 -38 83 -106zM191 642l16 -109
h-46l-44 82c-20 38 -25 54 -25 72c0 23 19 43 41 43c42 0 50 -35 58 -88z" />
    <glyph glyph-name="Imacron" unicode="&#x12a;" horiz-adv-x="407" 
d="M-14 0l15 66h110l131 526h-112l16 66h325l-16 -66h-110l-131 -526h112l-15 -66h-325zM209 758l19 75h251l-19 -75h-251z" />
    <glyph glyph-name="imacron" unicode="&#x12b;" horiz-adv-x="333" 
d="M256 360c0 -76 -80 -209 -80 -272c0 -17 7 -25 22 -25c21 0 44 32 72 103l44 -13c-39 -121 -92 -162 -147 -162c-46 0 -81 31 -81 90c0 104 83 229 83 299c0 17 -5 23 -16 23c-32 0 -58 -46 -88 -108l-44 20c41 94 91 151 152 151c49 0 83 -38 83 -106zM68 550l19 75h251
l-19 -75h-251z" />
    <glyph glyph-name="Iogonek" unicode="&#x12e;" horiz-adv-x="407" 
d="M-14 0l15 66h110l131 526h-112l16 66h325l-16 -66h-110l-131 -526h112l-15 -66h-115l-1 -1c-105 -84 -121 -114 -121 -145c0 -23 14 -44 52 -44c20 0 42 10 60 21l20 -37c-30 -22 -65 -37 -104 -37c-62 0 -104 33 -104 86c0 51 33 90 135 157h-147z" />
    <glyph glyph-name="iogonek" unicode="&#x12f;" horiz-adv-x="333" 
d="M269 166l44 -13c-24 -71 -45 -112 -100 -157c-102 -83 -111 -114 -111 -142c0 -23 14 -44 52 -44c20 0 42 10 60 21l20 -37c-30 -22 -65 -37 -104 -37c-62 0 -104 33 -104 86c0 48 29 88 121 150c-30 6 -62 31 -62 88c0 104 83 229 83 299c0 17 -5 23 -16 23
c-32 0 -58 -46 -88 -108l-44 20c41 94 91 151 152 151c49 0 83 -38 83 -106c0 -76 -80 -209 -80 -272c0 -17 7 -25 22 -25c21 0 44 32 72 103zM309 623c0 -37 -31 -81 -77 -81c-29 0 -52 20 -52 55c0 38 29 82 74 82c33 0 55 -21 55 -56z" />
    <glyph glyph-name="Kcommaaccent" unicode="&#x136;" horiz-adv-x="706" 
d="M689 592l-263 -214l149 -312h91l-16 -66h-292l16 66h88l-112 250l-105 -86l-41 -164h93l-15 -66h-306l15 66h110l131 526h-112l16 66h306l-16 -66h-91l-68 -274l322 274h-84l16 66h262l-16 -66h-78zM191 -317l-13 35c60 25 95 51 109 88l-5 3c-5 -2 -11 -4 -19 -4
c-22 0 -44 16 -44 48s24 70 65 70c44 0 66 -36 66 -74c0 -62 -45 -128 -159 -166z" />
    <glyph glyph-name="kcommaaccent" unicode="&#x137;" horiz-adv-x="504" 
d="M346 93c0 -22 7 -30 20 -30c23 0 44 40 66 103l44 -13c-37 -125 -89 -162 -135 -162c-44 0 -83 30 -83 101c0 25 10 67 10 88c0 39 -18 48 -90 48h-10l-61 -228h-90l164 615h-91l19 72h183l-113 -419h7c52 0 73 30 114 97c36 59 68 101 127 101c43 0 67 -27 67 -68
c0 -40 -27 -79 -62 -79c-38 0 -58 35 -41 75c-16 -2 -33 -22 -58 -64c-23 -40 -37 -60 -69 -76c67 -5 90 -35 90 -82c0 -29 -8 -61 -8 -79zM79 -317l-13 35c60 25 95 51 109 88l-5 3c-5 -2 -11 -4 -19 -4c-22 0 -44 16 -44 48s24 70 65 70c44 0 66 -36 66 -74
c0 -62 -45 -128 -159 -166z" />
    <glyph glyph-name="Lacute" unicode="&#x139;" horiz-adv-x="596" 
d="M136 658h325l-16 -66h-110l-131 -526h134c88 0 109 35 178 168h50l-58 -234h-532l15 66h110l131 526h-112zM414 822l-92 -81h-50l83 135c25 41 42 63 70 63c25 0 42 -23 42 -43c0 -23 -8 -34 -53 -74z" />
    <glyph glyph-name="lacute" unicode="&#x13a;" horiz-adv-x="291" 
d="M45 81c0 36 14 93 33 164l101 370h-91l19 72h183l-144 -534c-8 -29 -12 -51 -12 -65c0 -19 11 -25 22 -25c28 0 49 40 72 103l44 -13c-40 -125 -89 -162 -142 -162c-56 0 -85 34 -85 90zM329 843l-92 -81h-50l83 135c25 41 42 63 70 63c25 0 42 -23 42 -43
c0 -23 -8 -34 -53 -74z" />
    <glyph glyph-name="Lcaron" unicode="&#x13d;" horiz-adv-x="596" 
d="M136 658h325l-16 -66h-110l-131 -526h134c88 0 109 35 178 168h50l-58 -234h-532l15 66h110l131 526h-112zM595 606l-64 -112h-41l36 159c11 49 28 69 55 69c26 0 43 -20 43 -43c0 -21 -9 -38 -29 -73z" />
    <glyph glyph-name="lcaron" unicode="&#x13e;" horiz-adv-x="291" 
d="M45 81c0 36 14 93 33 164l101 370h-91l19 72h183l-144 -534c-8 -29 -12 -51 -12 -65c0 -19 11 -25 22 -25c28 0 49 40 72 103l44 -13c-40 -125 -89 -162 -142 -162c-56 0 -85 34 -85 90zM428 635l-64 -112h-41l36 159c11 49 28 69 55 69c26 0 43 -20 43 -43
c0 -21 -9 -38 -29 -73z" />
    <glyph glyph-name="Lcommaaccent" unicode="&#x13b;" horiz-adv-x="596" 
d="M136 658h325l-16 -66h-110l-131 -526h134c88 0 109 35 178 168h50l-58 -234h-532l15 66h110l131 526h-112zM151 -317l-13 35c60 25 95 51 109 88l-5 3c-5 -2 -11 -4 -19 -4c-22 0 -44 16 -44 48s24 70 65 70c44 0 66 -36 66 -74c0 -62 -45 -128 -159 -166z" />
    <glyph glyph-name="lcommaaccent" unicode="&#x13c;" horiz-adv-x="291" 
d="M45 81c0 36 14 93 33 164l101 370h-91l19 72h183l-144 -534c-8 -29 -12 -51 -12 -65c0 -19 11 -25 22 -25c28 0 49 40 72 103l44 -13c-40 -125 -89 -162 -142 -162c-56 0 -85 34 -85 90zM6 -317l-13 35c60 25 95 51 109 88l-5 3c-5 -2 -11 -4 -19 -4c-22 0 -44 16 -44 48
s24 70 65 70c44 0 66 -36 66 -74c0 -62 -45 -128 -159 -166z" />
    <glyph glyph-name="Ldot" unicode="&#x13f;" horiz-adv-x="596" 
d="M136 658h325l-16 -66h-110l-131 -526h134c88 0 108 35 177 163h50l-57 -229h-532l15 66h110l131 526h-112zM484 297c-27 0 -49 19 -49 53c0 36 27 78 71 78c31 0 52 -20 52 -54c0 -35 -29 -77 -74 -77z" />
    <glyph glyph-name="ldot" unicode="&#x140;" horiz-adv-x="346" 
d="M385 360c0 -34 -28 -75 -72 -75c-26 0 -47 18 -47 51c0 35 26 76 69 76c30 0 50 -19 50 -52zM45 81c0 36 14 93 33 164l101 370h-91l19 72h183l-144 -534c-8 -29 -12 -51 -12 -65c0 -19 11 -25 22 -25c28 0 49 40 72 103l44 -13c-40 -125 -89 -162 -142 -162
c-56 0 -85 34 -85 90z" />
    <glyph glyph-name="Lslash" unicode="&#x141;" horiz-adv-x="596" 
d="M136 658h325l-16 -66h-110l-54 -214l182 56l-15 -64l-183 -57l-61 -247h134c88 0 109 35 178 168h50l-58 -234h-532l15 66h110l53 212l-94 -29l16 66l94 29l62 248h-112z" />
    <glyph glyph-name="lslash" unicode="&#x142;" horiz-adv-x="331" 
d="M65 81c0 36 14 93 33 164l16 60l-96 -30l15 60l98 30l68 250h-91l19 72h183l-78 -290l103 32l-15 -60l-105 -33l-49 -183c-8 -29 -12 -51 -12 -65c0 -19 11 -25 22 -25c28 0 49 40 72 103l44 -13c-40 -125 -89 -162 -142 -162c-56 0 -85 34 -85 90z" />
    <glyph glyph-name="Nacute" unicode="&#x143;" horiz-adv-x="772" 
d="M524 -16l-229 548h-9l-116 -466h102l-15 -66h-275l15 66h99l131 526h-101l16 66h211l204 -484h9l104 418h-102l16 66h276l-16 -66h-100l-152 -608h-68zM603 822l-92 -81h-50l83 135c25 41 42 63 70 63c25 0 42 -23 42 -43c0 -23 -8 -34 -53 -74z" />
    <glyph glyph-name="nacute" unicode="&#x144;" horiz-adv-x="573" 
d="M427 85c0 -14 5 -22 18 -22c23 0 45 40 68 103l44 -13c-40 -125 -92 -162 -138 -162s-81 31 -81 90c0 107 66 199 66 274c0 26 -10 35 -26 35c-50 0 -143 -96 -222 -390h-99l87 327c15 57 14 76 -8 76c-26 0 -53 -46 -83 -108l-44 20c41 94 88 149 149 149
c42 0 69 -30 69 -92c0 -30 -7 -68 -23 -111l7 -3c63 135 135 208 203 208c53 0 84 -47 84 -106c0 -81 -71 -206 -71 -275zM455 614l-92 -81h-50l83 135c25 41 42 63 70 63c25 0 42 -23 42 -43c0 -23 -8 -34 -53 -74z" />
    <glyph glyph-name="Ncaron" unicode="&#x147;" horiz-adv-x="772" 
d="M524 -16l-229 548h-9l-116 -466h102l-15 -66h-275l15 66h99l131 526h-101l16 66h211l204 -484h9l104 418h-102l16 66h276l-16 -66h-100l-152 -608h-68zM673 934l-158 -183h-41l-64 183h47l53 -93l112 93h51z" />
    <glyph glyph-name="ncaron" unicode="&#x148;" horiz-adv-x="573" 
d="M427 85c0 -14 5 -22 18 -22c23 0 45 40 68 103l44 -13c-40 -125 -92 -162 -138 -162s-81 31 -81 90c0 107 66 199 66 274c0 26 -10 35 -26 35c-50 0 -143 -96 -222 -390h-99l87 327c15 57 14 76 -8 76c-26 0 -53 -46 -83 -108l-44 20c41 94 88 149 149 149
c42 0 69 -30 69 -92c0 -30 -7 -68 -23 -111l7 -3c63 135 135 208 203 208c53 0 84 -47 84 -106c0 -81 -71 -206 -71 -275zM525 726l-158 -183h-41l-64 183h47l53 -93l112 93h51z" />
    <glyph glyph-name="Ncommaaccent" unicode="&#x145;" horiz-adv-x="772" 
d="M524 -16l-229 548h-9l-116 -466h102l-15 -66h-275l15 66h99l131 526h-101l16 66h211l204 -484h9l104 418h-102l16 66h276l-16 -66h-100l-152 -608h-68zM228 -317l-13 35c60 25 95 51 109 88l-5 3c-5 -2 -11 -4 -19 -4c-22 0 -44 16 -44 48s24 70 65 70
c44 0 66 -36 66 -74c0 -62 -45 -128 -159 -166z" />
    <glyph glyph-name="ncommaaccent" unicode="&#x146;" horiz-adv-x="573" 
d="M427 85c0 -14 5 -22 18 -22c23 0 45 40 68 103l44 -13c-40 -125 -92 -162 -138 -162s-81 31 -81 90c0 107 66 199 66 274c0 26 -10 35 -26 35c-50 0 -143 -96 -222 -390h-99l87 327c15 57 14 76 -8 76c-26 0 -53 -46 -83 -108l-44 20c41 94 88 149 149 149
c42 0 69 -30 69 -92c0 -30 -7 -68 -23 -111l7 -3c63 135 135 208 203 208c53 0 84 -47 84 -106c0 -81 -71 -206 -71 -275zM137 -317l-13 35c60 25 95 51 109 88l-5 3c-5 -2 -11 -4 -19 -4c-22 0 -44 16 -44 48s24 70 65 70c44 0 66 -36 66 -74c0 -62 -45 -128 -159 -166z
" />
    <glyph glyph-name="Ntilde" unicode="&#xd1;" horiz-adv-x="772" 
d="M524 -16l-229 548h-9l-116 -466h102l-15 -66h-275l15 66h99l131 526h-101l16 66h211l204 -484h9l104 418h-102l16 66h276l-16 -66h-100l-152 -608h-68zM459 805c-18 0 -31 -15 -54 -60h-50c29 78 66 127 121 127c67 0 88 -54 119 -54c18 0 31 15 54 60h50
c-29 -78 -66 -127 -121 -127c-67 0 -88 54 -119 54z" />
    <glyph glyph-name="ntilde" unicode="&#xf1;" horiz-adv-x="573" 
d="M427 85c0 -14 5 -22 18 -22c23 0 45 40 68 103l44 -13c-40 -125 -92 -162 -138 -162s-81 31 -81 90c0 107 66 199 66 274c0 26 -10 35 -26 35c-50 0 -143 -96 -222 -390h-99l87 327c15 57 14 76 -8 76c-26 0 -53 -46 -83 -108l-44 20c41 94 88 149 149 149
c42 0 69 -30 69 -92c0 -30 -7 -68 -23 -111l7 -3c63 135 135 208 203 208c53 0 84 -47 84 -106c0 -81 -71 -206 -71 -275zM311 597c-18 0 -31 -15 -54 -60h-50c29 78 66 127 121 127c67 0 88 -54 119 -54c18 0 31 15 54 60h50c-29 -78 -66 -127 -121 -127
c-67 0 -88 54 -119 54z" />
    <glyph glyph-name="Oacute" unicode="&#xd3;" horiz-adv-x="709" 
d="M65 271c0 209 160 403 362 403c158 0 270 -117 270 -287c0 -209 -160 -403 -362 -403c-158 0 -270 117 -270 287zM419 608c-172 0 -243 -235 -243 -372c0 -123 62 -186 167 -186c172 0 243 235 243 372c0 123 -62 186 -167 186zM571 822l-92 -81h-50l83 135
c25 41 42 63 70 63c25 0 42 -23 42 -43c0 -23 -8 -34 -53 -74z" />
    <glyph glyph-name="oacute" unicode="&#xf3;" horiz-adv-x="491" 
d="M282 466c110 0 177 -80 177 -192c0 -152 -116 -283 -250 -283c-110 0 -177 80 -177 192c0 152 116 283 250 283zM362 316c0 66 -28 100 -80 100c-96 0 -153 -168 -153 -275c0 -66 28 -100 80 -100c96 0 153 168 153 275zM407 614l-92 -81h-50l83 135c25 41 42 63 70 63
c25 0 42 -23 42 -43c0 -23 -8 -34 -53 -74z" />
    <glyph glyph-name="Obreve" unicode="&#x14e;" horiz-adv-x="709" 
d="M65 271c0 209 160 403 362 403c158 0 270 -117 270 -287c0 -209 -160 -403 -362 -403c-158 0 -270 117 -270 287zM419 608c-172 0 -243 -235 -243 -372c0 -123 62 -186 167 -186c172 0 243 235 243 372c0 123 -62 186 -167 186zM478 748c-84 0 -130 58 -110 157h40
c2 -54 23 -87 81 -87c48 0 83 33 113 87h42c-26 -98 -91 -157 -166 -157z" />
    <glyph glyph-name="obreve" unicode="&#x14f;" horiz-adv-x="491" 
d="M282 466c110 0 177 -80 177 -192c0 -152 -116 -283 -250 -283c-110 0 -177 80 -177 192c0 152 116 283 250 283zM362 316c0 66 -28 100 -80 100c-96 0 -153 -168 -153 -275c0 -66 28 -100 80 -100c96 0 153 168 153 275zM314 540c-84 0 -130 58 -110 157h40
c2 -54 23 -87 81 -87c48 0 83 33 113 87h42c-26 -98 -91 -157 -166 -157z" />
    <glyph glyph-name="Ocircumflex" unicode="&#xd4;" horiz-adv-x="709" 
d="M65 271c0 209 160 403 362 403c158 0 270 -117 270 -287c0 -209 -160 -403 -362 -403c-158 0 -270 117 -270 287zM419 608c-172 0 -243 -235 -243 -372c0 -123 62 -186 167 -186c172 0 243 235 243 372c0 123 -62 186 -167 186zM340 742l158 183h41l64 -183h-47l-53 93
l-112 -93h-51z" />
    <glyph glyph-name="ocircumflex" unicode="&#xf4;" horiz-adv-x="491" 
d="M282 466c110 0 177 -80 177 -192c0 -152 -116 -283 -250 -283c-110 0 -177 80 -177 192c0 152 116 283 250 283zM362 316c0 66 -28 100 -80 100c-96 0 -153 -168 -153 -275c0 -66 28 -100 80 -100c96 0 153 168 153 275zM175 534l158 183h41l64 -183h-47l-53 93l-112 -93
h-51z" />
    <glyph glyph-name="Odieresis" unicode="&#xd6;" horiz-adv-x="709" 
d="M65 271c0 209 160 403 362 403c158 0 270 -117 270 -287c0 -209 -160 -403 -362 -403c-158 0 -270 117 -270 287zM419 608c-172 0 -243 -235 -243 -372c0 -123 62 -186 167 -186c172 0 243 235 243 372c0 123 -62 186 -167 186zM468 839c0 -34 -29 -75 -71 -75
c-27 0 -48 19 -48 51c0 35 27 75 68 75c30 0 51 -19 51 -51zM650 839c0 -34 -29 -75 -71 -75c-27 0 -48 19 -48 51c0 35 27 75 68 75c30 0 51 -19 51 -51z" />
    <glyph glyph-name="odieresis" unicode="&#xf6;" horiz-adv-x="491" 
d="M282 466c110 0 177 -80 177 -192c0 -152 -116 -283 -250 -283c-110 0 -177 80 -177 192c0 152 116 283 250 283zM362 316c0 66 -28 100 -80 100c-96 0 -153 -168 -153 -275c0 -66 28 -100 80 -100c96 0 153 168 153 275zM304 631c0 -34 -29 -75 -71 -75
c-27 0 -48 19 -48 51c0 35 27 75 68 75c30 0 51 -19 51 -51zM486 631c0 -34 -29 -75 -71 -75c-27 0 -48 19 -48 51c0 35 27 75 68 75c30 0 51 -19 51 -51z" />
    <glyph glyph-name="OE" unicode="&#x152;" horiz-adv-x="989" 
d="M507 658h524l-53 -214h-46c-7 118 -14 148 -94 148h-180l-56 -226h55c75 0 89 10 130 101h54l-65 -262h-52c7 92 -2 105 -73 105h-63l-61 -244h186c85 0 100 31 171 168h50l-58 -234h-518c-197 0 -307 109 -307 253c0 93 42 204 119 281c76 76 191 124 337 124zM555 592
h-58c-99 0 -169 -21 -223 -75c-62 -62 -106 -186 -106 -282c0 -110 66 -169 195 -169h61z" />
    <glyph glyph-name="oe" unicode="&#x153;" horiz-adv-x="763" 
d="M672 147l41 -24c-49 -77 -109 -132 -203 -132c-64 0 -114 28 -138 85c-44 -56 -104 -85 -168 -85c-103 0 -172 80 -172 192c0 152 116 283 250 283c70 0 124 -33 150 -94c50 59 119 94 190 94c77 0 119 -40 119 -97c0 -87 -95 -167 -302 -184c-1 -12 -2 -23 -2 -33
c0 -78 41 -105 92 -105c52 0 104 40 143 100zM362 316c0 66 -28 100 -80 100c-96 0 -153 -168 -153 -275c0 -66 28 -100 80 -100c96 0 153 168 153 275zM606 416c-75 0 -133 -98 -157 -186c147 19 206 70 206 137c0 26 -16 49 -49 49z" />
    <glyph glyph-name="Ograve" unicode="&#xd2;" horiz-adv-x="709" 
d="M65 271c0 209 160 403 362 403c158 0 270 -117 270 -287c0 -209 -160 -403 -362 -403c-158 0 -270 117 -270 287zM419 608c-172 0 -243 -235 -243 -372c0 -123 62 -186 167 -186c172 0 243 235 243 372c0 123 -62 186 -167 186zM479 850l16 -109h-46l-44 82
c-20 38 -25 54 -25 72c0 23 19 43 41 43c42 0 50 -35 58 -88z" />
    <glyph glyph-name="ograve" unicode="&#xf2;" horiz-adv-x="491" 
d="M282 466c110 0 177 -80 177 -192c0 -152 -116 -283 -250 -283c-110 0 -177 80 -177 192c0 152 116 283 250 283zM362 316c0 66 -28 100 -80 100c-96 0 -153 -168 -153 -275c0 -66 28 -100 80 -100c96 0 153 168 153 275zM315 642l16 -109h-46l-44 82
c-20 38 -25 54 -25 72c0 23 19 43 41 43c42 0 50 -35 58 -88z" />
    <glyph glyph-name="Ohungarumlaut" unicode="&#x150;" horiz-adv-x="709" 
d="M65 271c0 209 160 403 362 403c158 0 270 -117 270 -287c0 -209 -160 -403 -362 -403c-158 0 -270 117 -270 287zM419 608c-172 0 -243 -235 -243 -372c0 -123 62 -186 167 -186c172 0 243 235 243 372c0 123 -62 186 -167 186zM505 822l-89 -81h-50l79 135
c24 41 39 63 67 63c25 0 44 -24 44 -44c0 -23 -7 -33 -51 -73zM662 822l-95 -81h-50l87 135c26 41 45 63 73 63c25 0 40 -22 40 -42c0 -23 -9 -35 -55 -75z" />
    <glyph glyph-name="ohungarumlaut" unicode="&#x151;" horiz-adv-x="491" 
d="M282 466c110 0 177 -80 177 -192c0 -152 -116 -283 -250 -283c-110 0 -177 80 -177 192c0 152 116 283 250 283zM362 316c0 66 -28 100 -80 100c-96 0 -153 -168 -153 -275c0 -66 28 -100 80 -100c96 0 153 168 153 275zM341 614l-89 -81h-50l79 135c24 41 39 63 67 63
c25 0 44 -24 44 -44c0 -23 -7 -33 -51 -73zM498 614l-95 -81h-50l87 135c26 41 45 63 73 63c25 0 40 -22 40 -42c0 -23 -9 -35 -55 -75z" />
    <glyph glyph-name="Omacron" unicode="&#x14c;" horiz-adv-x="709" 
d="M65 271c0 209 160 403 362 403c158 0 270 -117 270 -287c0 -209 -160 -403 -362 -403c-158 0 -270 117 -270 287zM419 608c-172 0 -243 -235 -243 -372c0 -123 62 -186 167 -186c172 0 243 235 243 372c0 123 -62 186 -167 186zM356 758l19 75h251l-19 -75h-251z" />
    <glyph glyph-name="omacron" unicode="&#x14d;" horiz-adv-x="491" 
d="M282 466c110 0 177 -80 177 -192c0 -152 -116 -283 -250 -283c-110 0 -177 80 -177 192c0 152 116 283 250 283zM362 316c0 66 -28 100 -80 100c-96 0 -153 -168 -153 -275c0 -66 28 -100 80 -100c96 0 153 168 153 275zM192 550l19 75h251l-19 -75h-251z" />
    <glyph glyph-name="Oslash" unicode="&#xd8;" horiz-adv-x="709" 
d="M65 271c0 209 160 403 362 403c72 0 135 -25 181 -67l97 104l45 -39l-104 -109c32 -47 51 -107 51 -176c0 -209 -160 -403 -362 -403c-72 0 -135 24 -182 67l-96 -104l-45 39l103 109c-32 47 -50 107 -50 176zM586 422c0 28 -3 54 -10 76l-366 -390
c29 -39 74 -58 133 -58c172 0 243 235 243 372zM419 608c-172 0 -243 -235 -243 -372c0 -29 3 -54 9 -76l366 390c-29 38 -74 58 -132 58z" />
    <glyph glyph-name="oslash" unicode="&#xf8;" horiz-adv-x="491" 
d="M29 -45l-35 34l70 76c-21 32 -32 72 -32 118c0 152 116 283 250 283c45 0 83 -14 112 -37l68 73l35 -34l-70 -76c20 -32 32 -72 32 -118c0 -152 -116 -283 -250 -283c-45 0 -83 13 -112 37zM210 41c102 0 160 181 155 291l-228 -259c13 -23 36 -32 73 -32zM281 416
c-103 0 -161 -181 -156 -291l228 259c-12 23 -36 32 -72 32z" />
    <glyph glyph-name="Oslashacute" unicode="&#x1fe;" horiz-adv-x="709" 
d="M65 271c0 209 160 403 362 403c72 0 135 -25 181 -67l97 104l45 -39l-104 -109c32 -47 51 -107 51 -176c0 -209 -160 -403 -362 -403c-72 0 -135 24 -182 67l-96 -104l-45 39l103 109c-32 47 -50 107 -50 176zM586 422c0 28 -3 54 -10 76l-366 -390
c29 -39 74 -58 133 -58c172 0 243 235 243 372zM419 608c-172 0 -243 -235 -243 -372c0 -29 3 -54 9 -76l366 390c-29 38 -74 58 -132 58zM570 822l-92 -81h-50l83 135c25 41 42 63 70 63c25 0 42 -23 42 -43c0 -23 -8 -34 -53 -74z" />
    <glyph glyph-name="oslashacute" unicode="&#x1ff;" horiz-adv-x="498" 
d="M32 -45l-35 34l70 76c-21 32 -32 72 -32 118c0 152 116 283 250 283c45 0 83 -14 112 -37l68 73l35 -34l-70 -76c20 -32 32 -72 32 -118c0 -152 -116 -283 -250 -283c-45 0 -83 13 -112 37zM213 41c102 0 160 181 155 291l-228 -259c13 -23 36 -32 73 -32zM284 416
c-103 0 -161 -181 -156 -291l228 259c-12 23 -36 32 -72 32zM409 614l-92 -81h-50l83 135c25 41 42 63 70 63c25 0 42 -23 42 -43c0 -23 -8 -34 -53 -74z" />
    <glyph glyph-name="Otilde" unicode="&#xd5;" horiz-adv-x="709" 
d="M65 271c0 209 160 403 362 403c158 0 270 -117 270 -287c0 -209 -160 -403 -362 -403c-158 0 -270 117 -270 287zM419 608c-172 0 -243 -235 -243 -372c0 -123 62 -186 167 -186c172 0 243 235 243 372c0 123 -62 186 -167 186zM427 805c-18 0 -31 -15 -54 -60h-50
c29 78 66 127 121 127c67 0 88 -54 119 -54c18 0 31 15 54 60h50c-29 -78 -66 -127 -121 -127c-67 0 -88 54 -119 54z" />
    <glyph glyph-name="otilde" unicode="&#xf5;" horiz-adv-x="491" 
d="M282 466c110 0 177 -80 177 -192c0 -152 -116 -283 -250 -283c-110 0 -177 80 -177 192c0 152 116 283 250 283zM362 316c0 66 -28 100 -80 100c-96 0 -153 -168 -153 -275c0 -66 28 -100 80 -100c96 0 153 168 153 275zM263 597c-18 0 -31 -15 -54 -60h-50
c29 78 66 127 121 127c67 0 88 -54 119 -54c18 0 31 15 54 60h50c-29 -78 -66 -127 -121 -127c-67 0 -88 54 -119 54z" />
    <glyph glyph-name="Racute" unicode="&#x154;" horiz-adv-x="676" 
d="M-24 0l15 66h110l131 526h-112l16 66h312c166 0 212 -77 212 -150c0 -87 -57 -172 -203 -186l-3 -9c78 -20 103 -54 103 -118c0 -32 -9 -71 -9 -101c0 -32 14 -40 41 -40c15 0 33 5 55 15l16 -44c-32 -22 -77 -36 -117 -36c-65 0 -106 28 -106 88c0 43 21 103 21 152
c0 38 -19 61 -92 61h-106l-56 -224h106l-15 -66h-319zM275 350h94c63 0 105 15 131 41c27 27 44 77 44 119c-1 49 -31 82 -110 82h-99zM563 822l-92 -81h-50l83 135c25 41 42 63 70 63c25 0 42 -23 42 -43c0 -23 -8 -34 -53 -74z" />
    <glyph glyph-name="racute" unicode="&#x155;" horiz-adv-x="443" 
d="M57 0l87 327c15 57 14 76 -8 76c-26 0 -53 -46 -83 -108l-44 20c41 94 88 149 149 149c42 0 69 -30 69 -92c0 -30 -7 -68 -23 -111l9 -3c58 132 107 208 172 208c37 0 65 -25 65 -67c0 -45 -29 -83 -64 -83c-31 0 -52 20 -52 57c-34 -15 -111 -126 -178 -373h-99z
M389 614l-92 -81h-50l83 135c25 41 42 63 70 63c25 0 42 -23 42 -43c0 -23 -8 -34 -53 -74z" />
    <glyph glyph-name="Rcaron" unicode="&#x158;" horiz-adv-x="676" 
d="M-24 0l15 66h110l131 526h-112l16 66h312c166 0 212 -77 212 -150c0 -87 -57 -172 -203 -186l-3 -9c78 -20 103 -54 103 -118c0 -32 -9 -71 -9 -101c0 -32 14 -40 41 -40c15 0 33 5 55 15l16 -44c-32 -22 -77 -36 -117 -36c-65 0 -106 28 -106 88c0 43 21 103 21 152
c0 38 -19 61 -92 61h-106l-56 -224h106l-15 -66h-319zM275 350h94c63 0 105 15 131 41c27 27 44 77 44 119c-1 49 -31 82 -110 82h-99zM632 934l-158 -183h-41l-64 183h47l53 -93l112 93h51z" />
    <glyph glyph-name="rcaron" unicode="&#x159;" horiz-adv-x="443" 
d="M57 0l87 327c15 57 14 76 -8 76c-26 0 -53 -46 -83 -108l-44 20c41 94 88 149 149 149c42 0 69 -30 69 -92c0 -30 -7 -68 -23 -111l9 -3c58 132 107 208 172 208c37 0 65 -25 65 -67c0 -45 -29 -83 -64 -83c-31 0 -52 20 -52 57c-34 -15 -111 -126 -178 -373h-99z
M458 726l-158 -183h-41l-64 183h47l53 -93l112 93h51z" />
    <glyph glyph-name="Rcommaaccent" unicode="&#x156;" horiz-adv-x="676" 
d="M-24 0l15 66h110l131 526h-112l16 66h312c166 0 212 -77 212 -150c0 -87 -57 -172 -203 -186l-3 -9c78 -20 103 -54 103 -118c0 -32 -9 -71 -9 -101c0 -32 14 -40 41 -40c15 0 33 5 55 15l16 -44c-32 -22 -77 -36 -117 -36c-65 0 -106 28 -106 88c0 43 21 103 21 152
c0 38 -19 61 -92 61h-106l-56 -224h106l-15 -66h-319zM275 350h94c63 0 105 15 131 41c27 27 44 77 44 119c-1 49 -31 82 -110 82h-99zM207 -317l-13 35c60 25 95 51 109 88l-5 3c-5 -2 -11 -4 -19 -4c-22 0 -44 16 -44 48s24 70 65 70c44 0 66 -36 66 -74
c0 -62 -45 -128 -159 -166z" />
    <glyph glyph-name="rcommaaccent" unicode="&#x157;" horiz-adv-x="443" 
d="M57 0l87 327c15 57 14 76 -8 76c-26 0 -53 -46 -83 -108l-44 20c41 94 88 149 149 149c42 0 69 -30 69 -92c0 -30 -7 -68 -23 -111l9 -3c58 132 107 208 172 208c37 0 65 -25 65 -67c0 -45 -29 -83 -64 -83c-31 0 -52 20 -52 57c-34 -15 -111 -126 -178 -373h-99z
M-5 -317l-13 35c60 25 95 51 109 88l-5 3c-5 -2 -11 -4 -19 -4c-22 0 -44 16 -44 48s24 70 65 70c44 0 66 -36 66 -74c0 -62 -45 -128 -159 -166z" />
    <glyph glyph-name="Sacute" unicode="&#x15a;" horiz-adv-x="570" 
d="M-8 -13l60 243h59c24 -125 91 -184 176 -184c89 0 136 61 136 114c0 62 -67 92 -138 126c-80 38 -166 81 -166 181c0 101 96 207 231 207c69 0 134 -29 163 -75l40 72h66l-59 -234h-58c-27 132 -73 176 -159 176c-70 0 -118 -55 -118 -110c0 -68 68 -96 140 -128
c79 -35 163 -75 163 -178c0 -115 -108 -213 -246 -213c-83 0 -146 32 -180 77l-44 -74h-66zM516 822l-92 -81h-50l83 135c25 41 42 63 70 63c25 0 42 -23 42 -43c0 -23 -8 -34 -53 -74z" />
    <glyph glyph-name="sacute" unicode="&#x15b;" horiz-adv-x="422" 
d="M365 147c0 -102 -83 -156 -176 -156c-77 0 -178 34 -178 113c0 35 22 69 60 69c32 0 50 -25 50 -50c0 -26 -13 -46 -24 -54c19 -19 57 -30 92 -30c51 0 87 24 87 76c0 38 -39 57 -94 81c-53 24 -109 51 -109 117c0 105 98 153 175 153c94 0 159 -42 159 -100
c0 -37 -21 -70 -58 -70c-28 0 -49 20 -49 48c0 19 11 42 26 53c-10 11 -44 22 -77 22c-47 0 -87 -23 -87 -71c0 -39 38 -58 95 -83c53 -24 108 -50 108 -118zM390 614l-92 -81h-50l83 135c25 41 42 63 70 63c25 0 42 -23 42 -43c0 -23 -8 -34 -53 -74z" />
    <glyph glyph-name="Scaron" unicode="&#x160;" horiz-adv-x="570" 
d="M-8 -13l60 243h59c24 -125 91 -184 176 -184c89 0 136 61 136 114c0 62 -67 92 -138 126c-80 38 -166 81 -166 181c0 101 96 207 231 207c69 0 134 -29 163 -75l40 72h66l-59 -234h-58c-27 132 -73 176 -159 176c-70 0 -118 -55 -118 -110c0 -68 68 -96 140 -128
c79 -35 163 -75 163 -178c0 -115 -108 -213 -246 -213c-83 0 -146 32 -180 77l-44 -74h-66zM586 934l-158 -183h-41l-64 183h47l53 -93l112 93h51z" />
    <glyph glyph-name="scaron" unicode="&#x161;" horiz-adv-x="422" 
d="M365 147c0 -102 -83 -156 -176 -156c-77 0 -178 34 -178 113c0 35 22 69 60 69c32 0 50 -25 50 -50c0 -26 -13 -46 -24 -54c19 -19 57 -30 92 -30c51 0 87 24 87 76c0 38 -39 57 -94 81c-53 24 -109 51 -109 117c0 105 98 153 175 153c94 0 159 -42 159 -100
c0 -37 -21 -70 -58 -70c-28 0 -49 20 -49 48c0 19 11 42 26 53c-10 11 -44 22 -77 22c-47 0 -87 -23 -87 -71c0 -39 38 -58 95 -83c53 -24 108 -50 108 -118zM460 726l-158 -183h-41l-64 183h47l53 -93l112 93h51z" />
    <glyph glyph-name="Scedilla" unicode="&#x15e;" horiz-adv-x="570" 
d="M132 -167c26 -19 46 -28 77 -28c28 0 48 15 48 40c0 33 -42 45 -87 41l-11 23l87 77c-65 8 -115 36 -144 75l-44 -74h-66l60 243h59c24 -125 91 -184 176 -184c89 0 136 61 136 114c0 62 -67 92 -138 126c-80 38 -166 81 -166 181c0 101 96 207 231 207
c69 0 134 -29 163 -75l40 72h66l-59 -234h-58c-27 132 -73 176 -159 176c-70 0 -118 -55 -118 -110c0 -68 68 -96 140 -128c79 -35 163 -75 163 -178c0 -109 -97 -202 -224 -212l-58 -51v-4c43 -7 79 -34 79 -78c0 -46 -32 -95 -112 -95c-36 0 -79 14 -109 42z" />
    <glyph glyph-name="scedilla" unicode="&#x15f;" horiz-adv-x="422" 
d="M42 -167c26 -19 46 -28 77 -28c28 0 48 15 48 40c0 33 -42 45 -87 41l-11 23l94 83c-72 7 -152 41 -152 112c0 35 22 69 60 69c32 0 50 -25 50 -50c0 -26 -13 -46 -24 -54c19 -19 57 -30 92 -30c51 0 87 24 87 76c0 38 -39 57 -94 81c-53 24 -109 51 -109 117
c0 105 98 153 175 153c94 0 159 -42 159 -100c0 -37 -21 -70 -58 -70c-28 0 -49 20 -49 48c0 19 11 42 26 53c-10 11 -44 22 -77 22c-47 0 -87 -23 -87 -71c0 -39 38 -58 95 -83c53 -24 108 -50 108 -118c0 -89 -63 -142 -140 -153l-69 -60v-4c43 -7 79 -34 79 -78
c0 -46 -32 -95 -112 -95c-36 0 -79 14 -109 42z" />
    <glyph glyph-name="Scommaaccent" unicode="&#x218;" horiz-adv-x="570" 
d="M-8 -13l60 243h59c24 -125 91 -184 176 -184c89 0 136 61 136 114c0 62 -67 92 -138 126c-80 38 -166 81 -166 181c0 101 96 207 231 207c69 0 134 -29 163 -75l40 72h66l-59 -234h-58c-27 132 -73 176 -159 176c-70 0 -118 -55 -118 -110c0 -68 68 -96 140 -128
c79 -35 163 -75 163 -178c0 -115 -108 -213 -246 -213c-83 0 -146 32 -180 77l-44 -74h-66zM116 -317l-13 35c60 25 95 51 109 88l-5 3c-5 -2 -11 -4 -19 -4c-22 0 -44 16 -44 48s24 70 65 70c44 0 66 -36 66 -74c0 -62 -45 -128 -159 -166z" />
    <glyph glyph-name="scommaaccent" unicode="&#x219;" horiz-adv-x="422" 
d="M365 147c0 -102 -83 -156 -176 -156c-77 0 -178 34 -178 113c0 35 22 69 60 69c32 0 50 -25 50 -50c0 -26 -13 -46 -24 -54c19 -19 57 -30 92 -30c51 0 87 24 87 76c0 38 -39 57 -94 81c-53 24 -109 51 -109 117c0 105 98 153 175 153c94 0 159 -42 159 -100
c0 -37 -21 -70 -58 -70c-28 0 -49 20 -49 48c0 19 11 42 26 53c-10 11 -44 22 -77 22c-47 0 -87 -23 -87 -71c0 -39 38 -58 95 -83c53 -24 108 -50 108 -118zM42 -317l-13 35c60 25 95 51 109 88l-5 3c-5 -2 -11 -4 -19 -4c-22 0 -44 16 -44 48s24 70 65 70
c44 0 66 -36 66 -74c0 -62 -45 -128 -159 -166z" />
    <glyph glyph-name="Tcaron" unicode="&#x164;" horiz-adv-x="663" 
d="M107 0l15 66h113l134 536h-41c-82 0 -106 -26 -196 -178h-48l59 234h583l-59 -234h-46c-9 146 -22 178 -106 178h-43l-134 -536h115l-15 -66h-331zM619 934l-158 -183h-41l-64 183h47l53 -93l112 93h51z" />
    <glyph glyph-name="tcaron" unicode="&#x165;" horiz-adv-x="373" 
d="M370 392h-139l-63 -228c-8 -30 -13 -53 -13 -66c0 -25 11 -35 33 -35c37 0 68 50 98 111l45 -13c-53 -145 -128 -170 -169 -170c-63 0 -101 31 -101 90c0 33 13 78 20 106l56 205h-91l14 54h91l33 121l97 10l-36 -131h140zM434 635l-64 -112h-41l36 159
c11 49 28 69 55 69c26 0 43 -20 43 -43c0 -21 -9 -38 -29 -73z" />
    <glyph glyph-name="Tcommaaccent" unicode="&#x162;" horiz-adv-x="663" 
d="M107 0l15 66h113l134 536h-41c-82 0 -106 -26 -196 -178h-48l59 234h583l-59 -234h-46c-9 146 -22 178 -106 178h-43l-134 -536h115l-15 -66h-331zM149 -317l-13 35c60 25 95 51 109 88l-5 3c-5 -2 -11 -4 -19 -4c-22 0 -44 16 -44 48s24 70 65 70c44 0 66 -36 66 -74
c0 -62 -45 -128 -159 -166z" />
    <glyph glyph-name="tcommaaccent" unicode="&#x163;" horiz-adv-x="373" 
d="M370 392h-139l-63 -228c-8 -30 -13 -53 -13 -66c0 -25 11 -35 33 -35c37 0 68 50 98 111l45 -13c-53 -145 -128 -170 -169 -170c-63 0 -101 31 -101 90c0 33 13 78 20 106l56 205h-91l14 54h91l33 121l97 10l-36 -131h140zM42 -317l-13 35c60 25 95 51 109 88l-5 3
c-5 -2 -11 -4 -19 -4c-22 0 -44 16 -44 48s24 70 65 70c44 0 66 -36 66 -74c0 -62 -45 -128 -159 -166z" />
    <glyph glyph-name="Thorn" unicode="&#xde;" horiz-adv-x="605" 
d="M-24 0l15 66h110l131 526h-112l16 66h319l-16 -66h-104l-16 -65h60c167 0 236 -70 236 -167c0 -77 -57 -205 -304 -205h-85l-22 -89h106l-15 -66h-319zM358 464h-55l-61 -246h77c131 0 178 70 178 143c0 66 -33 103 -139 103z" />
    <glyph glyph-name="thorn" unicode="&#xfe;" horiz-adv-x="500" 
d="M312 398c-86 0 -163 -162 -163 -255c0 -52 22 -88 72 -88c99 0 149 176 149 254c0 58 -17 89 -58 89zM286 687l-85 -305l7 -3c37 57 87 87 134 87c77 0 126 -68 126 -158c0 -173 -123 -308 -235 -308c-52 0 -90 26 -107 57l-36 -145h99l-18 -66h-263l18 66h72l178 703
h-91l19 72h182z" />
    <glyph glyph-name="Uacute" unicode="&#xda;" horiz-adv-x="739" 
d="M361 -17c-165 0 -250 80 -250 183c0 27 4 57 11 85l85 341h-97l16 66h294l-16 -66h-94l-86 -345c-6 -25 -8 -48 -8 -71c0 -79 61 -123 154 -123c46 0 90 15 120 45c26 26 46 66 58 116l94 378h-101l16 66h268l-16 -66h-93l-101 -406c-12 -48 -29 -96 -71 -138
c-37 -37 -96 -65 -183 -65zM584 822l-92 -81h-50l83 135c25 41 42 63 70 63c25 0 42 -23 42 -43c0 -23 -8 -34 -53 -74z" />
    <glyph glyph-name="uacute" unicode="&#xfa;" horiz-adv-x="568" 
d="M424 -9c-48 0 -78 26 -78 91c0 25 7 67 23 112l-7 3c-63 -135 -132 -206 -200 -206c-53 0 -84 46 -84 105c0 81 70 213 70 276c0 13 -5 22 -15 22c-24 0 -41 -26 -77 -98l-44 20c41 94 90 150 152 150c46 0 74 -31 74 -90c0 -98 -66 -200 -66 -269c0 -31 10 -41 26 -41
c50 0 140 93 221 394h99l-82 -307c-8 -30 -12 -50 -12 -64c0 -17 9 -26 24 -26c26 0 47 40 70 103l44 -13c-40 -125 -92 -162 -138 -162zM423 614l-92 -81h-50l83 135c25 41 42 63 70 63c25 0 42 -23 42 -43c0 -23 -8 -34 -53 -74z" />
    <glyph glyph-name="Ubreve" unicode="&#x16c;" horiz-adv-x="739" 
d="M361 -17c-165 0 -250 80 -250 183c0 27 4 57 11 85l85 341h-97l16 66h294l-16 -66h-94l-86 -345c-6 -25 -8 -48 -8 -71c0 -79 61 -123 154 -123c46 0 90 15 120 45c26 26 46 66 58 116l94 378h-101l16 66h268l-16 -66h-93l-101 -406c-12 -48 -29 -96 -71 -138
c-37 -37 -96 -65 -183 -65zM490 748c-84 0 -130 58 -110 157h40c2 -54 23 -87 81 -87c48 0 83 33 113 87h42c-26 -98 -91 -157 -166 -157z" />
    <glyph glyph-name="ubreve" unicode="&#x16d;" horiz-adv-x="568" 
d="M424 -9c-48 0 -78 26 -78 91c0 25 7 67 23 112l-7 3c-63 -135 -132 -206 -200 -206c-53 0 -84 46 -84 105c0 81 70 213 70 276c0 13 -5 22 -15 22c-24 0 -41 -26 -77 -98l-44 20c41 94 90 150 152 150c46 0 74 -31 74 -90c0 -98 -66 -200 -66 -269c0 -31 10 -41 26 -41
c50 0 140 93 221 394h99l-82 -307c-8 -30 -12 -50 -12 -64c0 -17 9 -26 24 -26c26 0 47 40 70 103l44 -13c-40 -125 -92 -162 -138 -162zM330 540c-84 0 -130 58 -110 157h40c2 -54 23 -87 81 -87c48 0 83 33 113 87h42c-26 -98 -91 -157 -166 -157z" />
    <glyph glyph-name="Ucircumflex" unicode="&#xdb;" horiz-adv-x="739" 
d="M361 -17c-165 0 -250 80 -250 183c0 27 4 57 11 85l85 341h-97l16 66h294l-16 -66h-94l-86 -345c-6 -25 -8 -48 -8 -71c0 -79 61 -123 154 -123c46 0 90 15 120 45c26 26 46 66 58 116l94 378h-101l16 66h268l-16 -66h-93l-101 -406c-12 -48 -29 -96 -71 -138
c-37 -37 -96 -65 -183 -65zM352 742l158 183h41l64 -183h-47l-53 93l-112 -93h-51z" />
    <glyph glyph-name="ucircumflex" unicode="&#xfb;" horiz-adv-x="568" 
d="M424 -9c-48 0 -78 26 -78 91c0 25 7 67 23 112l-7 3c-63 -135 -132 -206 -200 -206c-53 0 -84 46 -84 105c0 81 70 213 70 276c0 13 -5 22 -15 22c-24 0 -41 -26 -77 -98l-44 20c41 94 90 150 152 150c46 0 74 -31 74 -90c0 -98 -66 -200 -66 -269c0 -31 10 -41 26 -41
c50 0 140 93 221 394h99l-82 -307c-8 -30 -12 -50 -12 -64c0 -17 9 -26 24 -26c26 0 47 40 70 103l44 -13c-40 -125 -92 -162 -138 -162zM192 534l158 183h41l64 -183h-47l-53 93l-112 -93h-51z" />
    <glyph glyph-name="Udieresis" unicode="&#xdc;" horiz-adv-x="739" 
d="M361 -17c-165 0 -250 80 -250 183c0 27 4 57 11 85l85 341h-97l16 66h294l-16 -66h-94l-86 -345c-6 -25 -8 -48 -8 -71c0 -79 61 -123 154 -123c46 0 90 15 120 45c26 26 46 66 58 116l94 378h-101l16 66h268l-16 -66h-93l-101 -406c-12 -48 -29 -96 -71 -138
c-37 -37 -96 -65 -183 -65zM480 839c0 -34 -29 -75 -71 -75c-27 0 -48 19 -48 51c0 35 27 75 68 75c30 0 51 -19 51 -51zM662 839c0 -34 -29 -75 -71 -75c-27 0 -48 19 -48 51c0 35 27 75 68 75c30 0 51 -19 51 -51z" />
    <glyph glyph-name="udieresis" unicode="&#xfc;" horiz-adv-x="568" 
d="M424 -9c-48 0 -78 26 -78 91c0 25 7 67 23 112l-7 3c-63 -135 -132 -206 -200 -206c-53 0 -84 46 -84 105c0 81 70 213 70 276c0 13 -5 22 -15 22c-24 0 -41 -26 -77 -98l-44 20c41 94 90 150 152 150c46 0 74 -31 74 -90c0 -98 -66 -200 -66 -269c0 -31 10 -41 26 -41
c50 0 140 93 221 394h99l-82 -307c-8 -30 -12 -50 -12 -64c0 -17 9 -26 24 -26c26 0 47 40 70 103l44 -13c-40 -125 -92 -162 -138 -162zM320 631c0 -34 -29 -75 -71 -75c-27 0 -48 19 -48 51c0 35 27 75 68 75c30 0 51 -19 51 -51zM502 631c0 -34 -29 -75 -71 -75
c-27 0 -48 19 -48 51c0 35 27 75 68 75c30 0 51 -19 51 -51z" />
    <glyph glyph-name="Ugrave" unicode="&#xd9;" horiz-adv-x="739" 
d="M361 -17c-165 0 -250 80 -250 183c0 27 4 57 11 85l85 341h-97l16 66h294l-16 -66h-94l-86 -345c-6 -25 -8 -48 -8 -71c0 -79 61 -123 154 -123c46 0 90 15 120 45c26 26 46 66 58 116l94 378h-101l16 66h268l-16 -66h-93l-101 -406c-12 -48 -29 -96 -71 -138
c-37 -37 -96 -65 -183 -65zM491 850l16 -109h-46l-44 82c-20 38 -25 54 -25 72c0 23 19 43 41 43c42 0 50 -35 58 -88z" />
    <glyph glyph-name="ugrave" unicode="&#xf9;" horiz-adv-x="568" 
d="M424 -9c-48 0 -78 26 -78 91c0 25 7 67 23 112l-7 3c-63 -135 -132 -206 -200 -206c-53 0 -84 46 -84 105c0 81 70 213 70 276c0 13 -5 22 -15 22c-24 0 -41 -26 -77 -98l-44 20c41 94 90 150 152 150c46 0 74 -31 74 -90c0 -98 -66 -200 -66 -269c0 -31 10 -41 26 -41
c50 0 140 93 221 394h99l-82 -307c-8 -30 -12 -50 -12 -64c0 -17 9 -26 24 -26c26 0 47 40 70 103l44 -13c-40 -125 -92 -162 -138 -162zM331 642l16 -109h-46l-44 82c-20 38 -25 54 -25 72c0 23 19 43 41 43c42 0 50 -35 58 -88z" />
    <glyph glyph-name="Uhungarumlaut" unicode="&#x170;" horiz-adv-x="739" 
d="M361 -17c-165 0 -250 80 -250 183c0 27 4 57 11 85l85 341h-97l16 66h294l-16 -66h-94l-86 -345c-6 -25 -8 -48 -8 -71c0 -79 61 -123 154 -123c46 0 90 15 120 45c26 26 46 66 58 116l94 378h-101l16 66h268l-16 -66h-93l-101 -406c-12 -48 -29 -96 -71 -138
c-37 -37 -96 -65 -183 -65zM518 822l-89 -81h-50l79 135c24 41 39 63 67 63c25 0 44 -24 44 -44c0 -23 -7 -33 -51 -73zM675 822l-95 -81h-50l87 135c26 41 45 63 73 63c25 0 40 -22 40 -42c0 -23 -9 -35 -55 -75z" />
    <glyph glyph-name="uhungarumlaut" unicode="&#x171;" horiz-adv-x="568" 
d="M424 -9c-48 0 -78 26 -78 91c0 25 7 67 23 112l-7 3c-63 -135 -132 -206 -200 -206c-53 0 -84 46 -84 105c0 81 70 213 70 276c0 13 -5 22 -15 22c-24 0 -41 -26 -77 -98l-44 20c41 94 90 150 152 150c46 0 74 -31 74 -90c0 -98 -66 -200 -66 -269c0 -31 10 -41 26 -41
c50 0 140 93 221 394h99l-82 -307c-8 -30 -12 -50 -12 -64c0 -17 9 -26 24 -26c26 0 47 40 70 103l44 -13c-40 -125 -92 -162 -138 -162zM357 614l-89 -81h-50l79 135c24 41 39 63 67 63c25 0 44 -24 44 -44c0 -23 -7 -33 -51 -73zM514 614l-95 -81h-50l87 135
c26 41 45 63 73 63c25 0 40 -22 40 -42c0 -23 -9 -35 -55 -75z" />
    <glyph glyph-name="Umacron" unicode="&#x16a;" horiz-adv-x="739" 
d="M361 -17c-165 0 -250 80 -250 183c0 27 4 57 11 85l85 341h-97l16 66h294l-16 -66h-94l-86 -345c-6 -25 -8 -48 -8 -71c0 -79 61 -123 154 -123c46 0 90 15 120 45c26 26 46 66 58 116l94 378h-101l16 66h268l-16 -66h-93l-101 -406c-12 -48 -29 -96 -71 -138
c-37 -37 -96 -65 -183 -65zM368 758l19 75h251l-19 -75h-251z" />
    <glyph glyph-name="umacron" unicode="&#x16b;" horiz-adv-x="568" 
d="M424 -9c-48 0 -78 26 -78 91c0 25 7 67 23 112l-7 3c-63 -135 -132 -206 -200 -206c-53 0 -84 46 -84 105c0 81 70 213 70 276c0 13 -5 22 -15 22c-24 0 -41 -26 -77 -98l-44 20c41 94 90 150 152 150c46 0 74 -31 74 -90c0 -98 -66 -200 -66 -269c0 -31 10 -41 26 -41
c50 0 140 93 221 394h99l-82 -307c-8 -30 -12 -50 -12 -64c0 -17 9 -26 24 -26c26 0 47 40 70 103l44 -13c-40 -125 -92 -162 -138 -162zM208 550l19 75h251l-19 -75h-251z" />
    <glyph glyph-name="Uogonek" unicode="&#x172;" horiz-adv-x="739" 
d="M387 -206c-30 -22 -65 -37 -104 -37c-62 0 -104 33 -104 86c0 48 29 85 116 145c-122 18 -184 89 -184 178c0 27 4 57 11 85l85 341h-97l16 66h294l-16 -66h-94l-86 -345c-6 -25 -8 -48 -8 -71c0 -79 61 -123 154 -123c46 0 90 15 120 45c26 26 46 66 58 116l94 378h-101
l16 66h268l-16 -66h-93l-101 -406c-12 -48 -29 -96 -71 -138c-37 -37 -96 -65 -183 -65h-5c-87 -71 -101 -100 -101 -129c0 -23 14 -44 52 -44c20 0 42 10 60 21z" />
    <glyph glyph-name="uogonek" unicode="&#x173;" horiz-adv-x="568" 
d="M518 166l44 -13c-24 -71 -43 -112 -98 -157c-98 -80 -113 -114 -113 -142c0 -23 14 -44 52 -44c20 0 42 10 60 21l20 -37c-30 -22 -65 -37 -104 -37c-62 0 -104 33 -104 86c0 48 30 86 125 150c-24 7 -54 24 -54 89c0 25 7 67 23 112l-7 3c-63 -135 -132 -206 -200 -206
c-53 0 -84 46 -84 105c0 81 70 213 70 276c0 13 -5 22 -15 22c-24 0 -41 -26 -77 -98l-44 20c41 94 90 150 152 150c46 0 74 -31 74 -90c0 -98 -66 -200 -66 -269c0 -31 10 -41 26 -41c50 0 140 93 221 394h99l-82 -307c-8 -30 -12 -50 -12 -64c0 -17 9 -26 24 -26
c25 0 47 40 70 103z" />
    <glyph glyph-name="Uring" unicode="&#x16e;" horiz-adv-x="739" 
d="M361 -17c-165 0 -250 80 -250 183c0 27 4 57 11 85l85 341h-97l16 66h294l-16 -66h-94l-86 -345c-6 -25 -8 -48 -8 -71c0 -79 61 -123 154 -123c46 0 90 15 120 45c26 26 46 66 58 116l94 378h-101l16 66h268l-16 -66h-93l-101 -406c-12 -48 -29 -96 -71 -138
c-37 -37 -96 -65 -183 -65zM617 852c0 -64 -47 -117 -113 -117c-62 0 -93 42 -93 87c0 64 47 117 113 117c62 0 93 -41 93 -87zM459 822c0 -33 19 -52 49 -52c44 0 61 54 61 83c0 33 -19 51 -49 51c-44 0 -61 -53 -61 -82z" />
    <glyph glyph-name="uring" unicode="&#x16f;" horiz-adv-x="568" 
d="M424 -9c-48 0 -78 26 -78 91c0 25 7 67 23 112l-7 3c-63 -135 -132 -206 -200 -206c-53 0 -84 46 -84 105c0 81 70 213 70 276c0 13 -5 22 -15 22c-24 0 -41 -26 -77 -98l-44 20c41 94 90 150 152 150c46 0 74 -31 74 -90c0 -98 -66 -200 -66 -269c0 -31 10 -41 26 -41
c50 0 140 93 221 394h99l-82 -307c-8 -30 -12 -50 -12 -64c0 -17 9 -26 24 -26c26 0 47 40 70 103l44 -13c-40 -125 -92 -162 -138 -162zM457 644c0 -64 -47 -117 -113 -117c-62 0 -93 42 -93 87c0 64 47 117 113 117c62 0 93 -41 93 -87zM299 614c0 -33 19 -52 49 -52
c44 0 61 54 61 83c0 33 -19 51 -49 51c-44 0 -61 -53 -61 -82z" />
    <glyph glyph-name="Wacute" unicode="&#x1e82;" horiz-adv-x="952" 
d="M553 -4l-17 423l-244 -423h-96l-41 596h-89l16 66h292l-16 -66h-98l24 -485h4l243 422l-2 63h-94l16 66h298l-16 -66h-104l12 -485h4l262 485h-84l16 66h237l-16 -66h-69l-342 -596h-96zM702 822l-92 -81h-50l83 135c25 41 42 63 70 63c25 0 42 -23 42 -43
c0 -23 -8 -34 -53 -74z" />
    <glyph glyph-name="wacute" unicode="&#x1e83;" horiz-adv-x="713" 
d="M173 465c51 0 75 -32 75 -86c0 -102 -81 -203 -81 -275c0 -27 14 -41 37 -41c50 0 129 99 198 397h89l-58 -245c-9 -38 -13 -67 -13 -89c0 -49 20 -63 48 -63c86 0 157 149 169 276c-6 -2 -16 -4 -21 -4c-31 0 -53 21 -53 57c0 39 29 76 66 76c43 0 68 -32 68 -86
c0 -139 -95 -394 -257 -394c-65 0 -103 42 -102 123c0 11 0 23 3 42l-7 2c-39 -105 -89 -167 -161 -167c-57 0 -100 35 -100 103c0 87 85 217 85 280c0 13 -4 22 -16 22c-26 0 -42 -26 -78 -98l-44 20c41 94 89 150 153 150zM542 614l-92 -81h-50l83 135c25 41 42 63 70 63
c25 0 42 -23 42 -43c0 -23 -8 -34 -53 -74z" />
    <glyph glyph-name="Wcircumflex" unicode="&#x174;" horiz-adv-x="952" 
d="M553 -4l-17 423l-244 -423h-96l-41 596h-89l16 66h292l-16 -66h-98l24 -485h4l243 422l-2 63h-94l16 66h298l-16 -66h-104l12 -485h4l262 485h-84l16 66h237l-16 -66h-69l-342 -596h-96zM470 742l158 183h41l64 -183h-47l-53 93l-112 -93h-51z" />
    <glyph glyph-name="wcircumflex" unicode="&#x175;" horiz-adv-x="713" 
d="M173 465c51 0 75 -32 75 -86c0 -102 -81 -203 -81 -275c0 -27 14 -41 37 -41c50 0 129 99 198 397h89l-58 -245c-9 -38 -13 -67 -13 -89c0 -49 20 -63 48 -63c86 0 157 149 169 276c-6 -2 -16 -4 -21 -4c-31 0 -53 21 -53 57c0 39 29 76 66 76c43 0 68 -32 68 -86
c0 -139 -95 -394 -257 -394c-65 0 -103 42 -102 123c0 11 0 23 3 42l-7 2c-39 -105 -89 -167 -161 -167c-57 0 -100 35 -100 103c0 87 85 217 85 280c0 13 -4 22 -16 22c-26 0 -42 -26 -78 -98l-44 20c41 94 89 150 153 150zM310 534l158 183h41l64 -183h-47l-53 93
l-112 -93h-51z" />
    <glyph glyph-name="Wdieresis" unicode="&#x1e84;" horiz-adv-x="952" 
d="M553 -4l-17 423l-244 -423h-96l-41 596h-89l16 66h292l-16 -66h-98l24 -485h4l243 422l-2 63h-94l16 66h298l-16 -66h-104l12 -485h4l262 485h-84l16 66h237l-16 -66h-69l-342 -596h-96zM599 839c0 -34 -29 -75 -71 -75c-27 0 -48 19 -48 51c0 35 27 75 68 75
c30 0 51 -19 51 -51zM781 839c0 -34 -29 -75 -71 -75c-27 0 -48 19 -48 51c0 35 27 75 68 75c30 0 51 -19 51 -51z" />
    <glyph glyph-name="wdieresis" unicode="&#x1e85;" horiz-adv-x="713" 
d="M173 465c51 0 75 -32 75 -86c0 -102 -81 -203 -81 -275c0 -27 14 -41 37 -41c50 0 129 99 198 397h89l-58 -245c-9 -38 -13 -67 -13 -89c0 -49 20 -63 48 -63c86 0 157 149 169 276c-6 -2 -16 -4 -21 -4c-31 0 -53 21 -53 57c0 39 29 76 66 76c43 0 68 -32 68 -86
c0 -139 -95 -394 -257 -394c-65 0 -103 42 -102 123c0 11 0 23 3 42l-7 2c-39 -105 -89 -167 -161 -167c-57 0 -100 35 -100 103c0 87 85 217 85 280c0 13 -4 22 -16 22c-26 0 -42 -26 -78 -98l-44 20c41 94 89 150 153 150zM621 631c0 -34 -29 -75 -71 -75
c-27 0 -48 19 -48 51c0 35 27 75 68 75c30 0 51 -19 51 -51zM439 631c0 -34 -29 -75 -71 -75c-27 0 -48 19 -48 51c0 35 27 75 68 75c30 0 51 -19 51 -51z" />
    <glyph glyph-name="Wgrave" unicode="&#x1e80;" horiz-adv-x="952" 
d="M553 -4l-17 423l-244 -423h-96l-41 596h-89l16 66h292l-16 -66h-98l24 -485h4l243 422l-2 63h-94l16 66h298l-16 -66h-104l12 -485h4l262 485h-84l16 66h237l-16 -66h-69l-342 -596h-96zM610 850l16 -109h-46l-44 82c-20 38 -25 54 -25 72c0 23 19 43 41 43
c42 0 50 -35 58 -88z" />
    <glyph glyph-name="wgrave" unicode="&#x1e81;" horiz-adv-x="713" 
d="M173 465c51 0 75 -32 75 -86c0 -102 -81 -203 -81 -275c0 -27 14 -41 37 -41c50 0 129 99 198 397h89l-58 -245c-9 -38 -13 -67 -13 -89c0 -49 20 -63 48 -63c86 0 157 149 169 276c-6 -2 -16 -4 -21 -4c-31 0 -53 21 -53 57c0 39 29 76 66 76c43 0 68 -32 68 -86
c0 -139 -95 -394 -257 -394c-65 0 -103 42 -102 123c0 11 0 23 3 42l-7 2c-39 -105 -89 -167 -161 -167c-57 0 -100 35 -100 103c0 87 85 217 85 280c0 13 -4 22 -16 22c-26 0 -42 -26 -78 -98l-44 20c41 94 89 150 153 150zM450 642l16 -109h-46l-44 82
c-20 38 -25 54 -25 72c0 23 19 43 41 43c42 0 50 -35 58 -88z" />
    <glyph glyph-name="Yacute" unicode="&#xdd;" horiz-adv-x="626" 
d="M367 334l209 258h-80l16 66h226l-16 -66h-73l-271 -324l-50 -202h102l-15 -66h-305l15 66h100l54 215l-97 311h-80l16 66h282l-16 -66h-92zM541 822l-92 -81h-50l83 135c25 41 42 63 70 63c25 0 42 -23 42 -43c0 -23 -8 -34 -53 -74z" />
    <glyph glyph-name="yacute" unicode="&#xfd;" horiz-adv-x="535" 
d="M166 465c46 0 74 -31 74 -85c0 -98 -58 -183 -58 -245c0 -28 10 -38 34 -38c61 0 137 78 211 363h94l-87 -367c-43 -183 -133 -260 -262 -260c-79 0 -140 23 -140 86c0 28 23 69 64 69c35 0 53 -25 50 -57c-1 -11 -8 -28 -17 -38c14 -4 31 -7 48 -7c79 0 139 70 176 225
l14 59l-6 3c-58 -106 -122 -152 -179 -152c-63 0 -94 47 -94 105c0 76 62 187 62 245c0 13 -5 22 -14 22c-26 0 -53 -44 -78 -98l-44 20c41 94 94 150 152 150zM435 614l-92 -81h-50l83 135c25 41 42 63 70 63c25 0 42 -23 42 -43c0 -23 -8 -34 -53 -74z" />
    <glyph glyph-name="Ycircumflex" unicode="&#x176;" horiz-adv-x="626" 
d="M367 334l209 258h-80l16 66h226l-16 -66h-73l-271 -324l-50 -202h102l-15 -66h-305l15 66h100l54 215l-97 311h-80l16 66h282l-16 -66h-92zM310 742l158 183h41l64 -183h-47l-53 93l-112 -93h-51z" />
    <glyph glyph-name="ycircumflex" unicode="&#x177;" horiz-adv-x="535" 
d="M166 465c46 0 74 -31 74 -85c0 -98 -58 -183 -58 -245c0 -28 10 -38 34 -38c61 0 137 78 211 363h94l-87 -367c-43 -183 -133 -260 -262 -260c-79 0 -140 23 -140 86c0 28 23 69 64 69c35 0 53 -25 50 -57c-1 -11 -8 -28 -17 -38c14 -4 31 -7 48 -7c79 0 139 70 176 225
l14 59l-6 3c-58 -106 -122 -152 -179 -152c-63 0 -94 47 -94 105c0 76 62 187 62 245c0 13 -5 22 -14 22c-26 0 -53 -44 -78 -98l-44 20c41 94 94 150 152 150zM203 534l158 183h41l64 -183h-47l-53 93l-112 -93h-51z" />
    <glyph glyph-name="Ydieresis" unicode="&#x178;" horiz-adv-x="626" 
d="M367 334l209 258h-80l16 66h226l-16 -66h-73l-271 -324l-50 -202h102l-15 -66h-305l15 66h100l54 215l-97 311h-80l16 66h282l-16 -66h-92zM438 839c0 -34 -29 -75 -71 -75c-27 0 -48 19 -48 51c0 35 27 75 68 75c30 0 51 -19 51 -51zM620 839c0 -34 -29 -75 -71 -75
c-27 0 -48 19 -48 51c0 35 27 75 68 75c30 0 51 -19 51 -51z" />
    <glyph glyph-name="ydieresis" unicode="&#xff;" horiz-adv-x="535" 
d="M166 465c46 0 74 -31 74 -85c0 -98 -58 -183 -58 -245c0 -28 10 -38 34 -38c61 0 137 78 211 363h94l-87 -367c-43 -183 -133 -260 -262 -260c-79 0 -140 23 -140 86c0 28 23 69 64 69c35 0 53 -25 50 -57c-1 -11 -8 -28 -17 -38c14 -4 31 -7 48 -7c79 0 139 70 176 225
l14 59l-6 3c-58 -106 -122 -152 -179 -152c-63 0 -94 47 -94 105c0 76 62 187 62 245c0 13 -5 22 -14 22c-26 0 -53 -44 -78 -98l-44 20c41 94 94 150 152 150zM331 631c0 -34 -29 -75 -71 -75c-27 0 -48 19 -48 51c0 35 27 75 68 75c30 0 51 -19 51 -51zM513 631
c0 -34 -29 -75 -71 -75c-27 0 -48 19 -48 51c0 35 27 75 68 75c30 0 51 -19 51 -51z" />
    <glyph glyph-name="Ygrave" unicode="&#x1ef2;" horiz-adv-x="626" 
d="M367 334l209 258h-80l16 66h226l-16 -66h-73l-271 -324l-50 -202h102l-15 -66h-305l15 66h100l54 215l-97 311h-80l16 66h282l-16 -66h-92zM449 850l16 -109h-46l-44 82c-20 38 -25 54 -25 72c0 23 19 43 41 43c42 0 50 -35 58 -88z" />
    <glyph glyph-name="ygrave" unicode="&#x1ef3;" horiz-adv-x="535" 
d="M166 465c46 0 74 -31 74 -85c0 -98 -58 -183 -58 -245c0 -28 10 -38 34 -38c61 0 137 78 211 363h94l-87 -367c-43 -183 -133 -260 -262 -260c-79 0 -140 23 -140 86c0 28 23 69 64 69c35 0 53 -25 50 -57c-1 -11 -8 -28 -17 -38c14 -4 31 -7 48 -7c79 0 139 70 176 225
l14 59l-6 3c-58 -106 -122 -152 -179 -152c-63 0 -94 47 -94 105c0 76 62 187 62 245c0 13 -5 22 -14 22c-26 0 -53 -44 -78 -98l-44 20c41 94 94 150 152 150zM342 642l16 -109h-46l-44 82c-20 38 -25 54 -25 72c0 23 19 43 41 43c42 0 50 -35 58 -88z" />
    <glyph glyph-name="Zacute" unicode="&#x179;" horiz-adv-x="605" 
d="M-15 0l13 51l520 541h-176c-79 0 -99 -10 -188 -172h-46l59 238h502l-13 -51l-517 -541h196c79 0 99 17 188 179h46l-61 -245h-523zM516 822l-92 -81h-50l83 135c25 41 42 63 70 63c25 0 42 -23 42 -43c0 -23 -8 -34 -53 -74z" />
    <glyph glyph-name="zacute" unicode="&#x17a;" horiz-adv-x="437" 
d="M115 127c49 -6 99 -45 147 -45c54 0 65 23 105 104l41 -18c-43 -116 -83 -178 -174 -178c-52 0 -87 25 -121 80l-21 34l-9 -2c-10 -83 -34 -112 -65 -112c-27 0 -43 19 -43 40c0 36 29 67 80 88c70 87 187 176 261 211c-49 6 -99 45 -144 45c-51 0 -62 -23 -102 -104
l-41 18c43 116 83 178 171 178c49 0 84 -25 118 -80l21 -34l9 2c10 83 34 112 65 112c27 0 43 -19 43 -40c0 -36 -29 -67 -80 -88c-70 -87 -187 -176 -261 -211zM376 614l-92 -81h-50l83 135c25 41 42 63 70 63c25 0 42 -23 42 -43c0 -23 -8 -34 -53 -74z" />
    <glyph glyph-name="Zcaron" unicode="&#x17d;" horiz-adv-x="605" 
d="M-15 0l13 51l520 541h-176c-79 0 -99 -10 -188 -172h-46l59 238h502l-13 -51l-517 -541h196c79 0 99 17 188 179h46l-61 -245h-523zM586 934l-158 -183h-41l-64 183h47l53 -93l112 93h51z" />
    <glyph glyph-name="zcaron" unicode="&#x17e;" horiz-adv-x="437" 
d="M115 127c49 -6 99 -45 147 -45c54 0 65 23 105 104l41 -18c-43 -116 -83 -178 -174 -178c-52 0 -87 25 -121 80l-21 34l-9 -2c-10 -83 -34 -112 -65 -112c-27 0 -43 19 -43 40c0 36 29 67 80 88c70 87 187 176 261 211c-49 6 -99 45 -144 45c-51 0 -62 -23 -102 -104
l-41 18c43 116 83 178 171 178c49 0 84 -25 118 -80l21 -34l9 2c10 83 34 112 65 112c27 0 43 -19 43 -40c0 -36 -29 -67 -80 -88c-70 -87 -187 -176 -261 -211zM445 726l-158 -183h-41l-64 183h47l53 -93l112 93h51z" />
    <glyph glyph-name="Zdotaccent" unicode="&#x17b;" horiz-adv-x="605" 
d="M-15 0l13 51l520 541h-176c-79 0 -99 -10 -188 -172h-46l59 238h502l-13 -51l-517 -541h196c79 0 99 17 188 179h46l-61 -245h-523zM502 822c0 -35 -29 -77 -74 -77c-27 0 -49 19 -49 53c0 36 27 78 71 78c31 0 52 -20 52 -54z" />
    <glyph glyph-name="zdotaccent" unicode="&#x17c;" horiz-adv-x="437" 
d="M115 127c49 -6 99 -45 147 -45c54 0 65 23 105 104l41 -18c-43 -116 -83 -178 -174 -178c-52 0 -87 25 -121 80l-21 34l-9 -2c-10 -83 -34 -112 -65 -112c-27 0 -43 19 -43 40c0 36 29 67 80 88c70 87 187 176 261 211c-49 6 -99 45 -144 45c-51 0 -62 -23 -102 -104
l-41 18c43 116 83 178 171 178c49 0 84 -25 118 -80l21 -34l9 2c10 83 34 112 65 112c27 0 43 -19 43 -40c0 -36 -29 -67 -80 -88c-70 -87 -187 -176 -261 -211zM361 614c0 -35 -29 -77 -74 -77c-27 0 -49 19 -49 53c0 36 27 78 71 78c31 0 52 -20 52 -54z" />
    <glyph glyph-name="schwa" unicode="&#x259;" horiz-adv-x="454" 
d="M22 88c0 87 95 166 301 184c2 11 3 23 3 33c0 78 -41 105 -92 105c-52 0 -104 -40 -143 -100l-41 24c49 77 109 132 213 132c92 0 160 -71 160 -178c0 -152 -136 -297 -282 -297c-77 0 -119 40 -119 97zM157 41c74 0 133 98 157 185c-148 -19 -206 -69 -206 -136
c0 -26 16 -49 49 -49z" />
    <glyph glyph-name="germandbls" unicode="&#xdf;" horiz-adv-x="561" 
d="M386 349c0 -31 15 -44 66 -89c42 -36 77 -71 77 -125c0 -96 -83 -144 -161 -144c-85 0 -140 36 -140 91c0 32 23 66 62 66c31 0 50 -23 50 -51c0 -21 -9 -37 -22 -46c11 -7 28 -11 50 -11c39 0 72 22 72 68c0 36 -28 62 -68 95c-43 36 -75 64 -75 111c0 54 30 81 82 124
c49 40 84 72 84 133c0 44 -28 73 -71 73c-78 0 -116 -52 -140 -169l-85 -403c-39 -183 -124 -239 -196 -239c-55 0 -79 29 -79 62c0 34 26 66 62 66c34 0 47 -25 47 -44c0 -18 -5 -33 -13 -40c33 0 48 15 80 167l74 348h-96l14 54h93c33 155 126 247 245 247
c102 0 158 -52 158 -118c0 -68 -41 -102 -95 -138c-49 -33 -75 -55 -75 -88z" />
    <glyph glyph-name="zero" unicode="0" horiz-adv-x="559" 
d="M243 -16c-120 0 -195 95 -195 247c0 221 136 419 302 419c120 0 195 -95 195 -247c0 -221 -136 -419 -302 -419zM348 589c-125 0 -194 -253 -194 -391c0 -106 29 -153 91 -153c125 0 194 253 194 391c0 106 -29 153 -91 153z" />
    <glyph glyph-name="one" unicode="1" horiz-adv-x="474" 
d="M11 0l15 66h142l112 446c-23 -9 -50 -14 -82 -14c-23 0 -54 3 -69 10l13 54c71 -4 157 26 199 79h70l-144 -575h144l-10 -66h-390z" />
    <glyph glyph-name="two" unicode="2" horiz-adv-x="558" 
d="M218 550c17 -11 33 -34 33 -66c0 -29 -18 -68 -67 -71c-43 0 -72 28 -72 75c0 77 89 162 230 162c128 0 201 -81 201 -171c0 -114 -91 -167 -188 -201c-179 -63 -215 -107 -246 -165l2 -3c29 15 62 25 95 25c69 0 107 -57 149 -57s71 31 115 120l45 -9
c-45 -150 -102 -205 -185 -205c-94 0 -123 92 -173 92c-10 0 -19 -2 -28 -6c1 -7 3 -16 3 -23c0 -38 -22 -63 -56 -63s-57 26 -57 73c0 127 153 207 235 247c106 52 190 95 190 185c0 62 -48 99 -117 99c-51 0 -90 -19 -109 -38z" />
    <glyph glyph-name="three" unicode="3" horiz-adv-x="516" 
d="M113 86c14 -24 55 -43 108 -43c101 0 142 83 142 157c0 54 -36 97 -136 97h-26l16 58h20c76 0 107 11 133 37c35 35 44 80 44 111c0 60 -35 88 -100 88c-31 0 -69 -10 -88 -25c11 -13 17 -29 17 -47c0 -40 -25 -73 -67 -73c-35 0 -58 23 -58 60c0 90 116 144 206 144
c128 0 195 -71 195 -147c0 -80 -51 -167 -205 -177l-1 -3c108 -19 153 -74 153 -137c0 -108 -99 -202 -233 -202c-129 0 -215 68 -215 149c0 43 30 85 75 85c35 0 59 -28 59 -60c0 -34 -14 -54 -39 -72z" />
    <glyph glyph-name="four" unicode="4" horiz-adv-x="556" 
d="M325 249l74 296h-4l-281 -296h211zM375 64h98l-16 -64h-294l16 64h99l30 119h-288l16 68l378 394h106l-99 -396h131l-16 -66h-131z" />
    <glyph glyph-name="five" unicode="5" horiz-adv-x="520" 
d="M226 539l-52 -166c26 16 66 27 116 27c118 0 188 -67 188 -163c0 -118 -87 -253 -264 -253c-95 0 -186 63 -186 145c0 52 33 100 79 100c33 0 57 -24 57 -56s-19 -60 -52 -75c12 -29 50 -54 100 -54c107 0 162 101 162 197c0 72 -46 104 -109 104c-48 0 -87 -13 -130 -40
l-41 19l96 307l17 13c54 -25 114 -36 167 -36c59 0 116 14 159 32l15 -32c-45 -57 -111 -94 -187 -94c-57 0 -105 13 -135 25z" />
    <glyph glyph-name="six" unicode="6" horiz-adv-x="537" 
d="M257 45c84 0 130 113 130 196c0 63 -38 101 -96 101c-86 0 -135 -90 -135 -176c0 -76 38 -121 101 -121zM545 533c0 -48 -33 -87 -72 -87c-36 0 -57 25 -57 52c0 24 10 47 37 66c-7 14 -32 25 -65 25c-104 0 -181 -97 -214 -264c41 48 92 77 149 77
c104 0 170 -70 170 -170c0 -107 -73 -248 -231 -248c-121 0 -203 80 -203 236c0 200 121 430 324 430c96 0 162 -47 162 -117z" />
    <glyph glyph-name="seven" unicode="7" horiz-adv-x="520" 
d="M225 47c-17 -49 -35 -68 -65 -68c-29 0 -54 25 -54 58c0 101 211 336 315 424l82 68l-4 5c-36 -18 -74 -29 -112 -29c-77 0 -100 42 -136 42s-59 -31 -102 -142h-62l57 230h68l-14 -72h5c35 58 69 77 108 77c73 0 84 -86 152 -86c10 0 18 1 24 3c-3 10 -4 19 -4 28
c0 37 22 65 57 65c33 0 52 -27 52 -53c0 -39 -21 -65 -78 -111c-124 -100 -220 -232 -289 -439z" />
    <glyph glyph-name="eight" unicode="8" horiz-adv-x="532" 
d="M526 495c0 -71 -45 -135 -142 -163c50 -31 92 -73 92 -147c0 -101 -83 -201 -234 -201c-131 0 -209 75 -209 165c0 78 58 144 162 168c-45 30 -78 70 -78 138c0 88 72 195 220 195c117 0 189 -69 189 -155zM259 281l-23 11c-69 -22 -112 -74 -112 -137
c0 -61 41 -113 126 -113c89 0 131 56 131 113c0 64 -57 93 -122 126zM332 361l10 -5c70 28 101 84 101 138c0 58 -37 99 -110 99c-78 0 -122 -53 -122 -104c0 -66 55 -95 121 -128z" />
    <glyph glyph-name="nine" unicode="9" horiz-adv-x="537" 
d="M319 589c-84 0 -131 -113 -131 -201c0 -66 37 -104 95 -104c86 0 136 90 136 179c0 81 -37 126 -100 126zM23 109c0 46 33 83 72 83c36 0 57 -25 57 -52c0 -24 -10 -47 -37 -66c14 -18 40 -29 75 -29c106 0 178 95 210 256c-40 -48 -92 -77 -149 -77
c-104 0 -169 70 -169 174c0 111 73 252 232 252c121 0 203 -80 203 -237c0 -203 -113 -429 -317 -429c-109 0 -177 57 -177 125z" />
    <glyph glyph-name="period" unicode="." horiz-adv-x="231" 
d="M74 -16c-32 0 -59 22 -59 63c0 29 23 71 65 71c32 0 59 -22 59 -63c0 -29 -23 -71 -65 -71z" />
    <glyph glyph-name="comma" unicode="," horiz-adv-x="231" 
d="M-46 -146l-10 38c77 25 121 61 136 101l-5 4c-5 -3 -10 -5 -16 -5c-26 0 -48 17 -48 50c0 35 26 74 66 74c48 0 70 -37 70 -77c0 -72 -53 -148 -193 -185z" />
    <glyph glyph-name="colon" unicode=":" horiz-adv-x="241" 
d="M79 -16c-32 0 -59 22 -59 63c0 29 23 71 65 71c32 0 59 -22 59 -63c0 -29 -23 -71 -65 -71zM157 272c-32 0 -59 22 -59 63c0 29 23 71 65 71c32 0 59 -22 59 -63c0 -29 -23 -71 -65 -71z" />
    <glyph glyph-name="semicolon" unicode=";" horiz-adv-x="241" 
d="M157 272c-32 0 -59 22 -59 63c0 29 23 71 65 71c32 0 59 -22 59 -63c0 -29 -23 -71 -65 -71zM-41 -146l-10 38c77 25 121 61 136 101l-5 4c-5 -3 -10 -5 -16 -5c-26 0 -48 17 -48 50c0 35 26 74 66 74c48 0 70 -37 70 -77c0 -72 -53 -148 -193 -185z" />
    <glyph glyph-name="ellipsis" unicode="&#x2026;" horiz-adv-x="673" 
d="M74 -16c-32 0 -59 22 -59 63c0 29 23 71 65 71c32 0 59 -22 59 -63c0 -29 -23 -71 -65 -71zM295 -16c-32 0 -59 22 -59 63c0 29 23 71 65 71c32 0 59 -22 59 -63c0 -29 -23 -71 -65 -71zM516 -16c-32 0 -59 22 -59 63c0 29 23 71 65 71c32 0 59 -22 59 -63
c0 -29 -23 -71 -65 -71z" />
    <glyph glyph-name="periodcentered" unicode="&#xb7;" horiz-adv-x="231" 
d="M136 251c-32 0 -59 22 -59 63c0 29 23 71 65 71c32 0 59 -22 59 -63c0 -29 -23 -71 -65 -71z" />
    <glyph glyph-name="bullet" unicode="&#x2022;" horiz-adv-x="478" 
d="M253 179c-67 0 -122 50 -122 123c0 83 71 156 152 156c67 0 122 -50 122 -123c0 -83 -71 -156 -152 -156z" />
    <glyph glyph-name="ampersand" unicode="&#x26;" horiz-adv-x="682" 
d="M596 389c42 0 71 -27 71 -66c0 -44 -26 -85 -62 -85c-40 0 -61 39 -42 81c-43 -26 -79 -93 -121 -159c29 -73 49 -107 70 -107c23 0 36 14 74 83l41 -22c-45 -103 -89 -128 -133 -128c-63 0 -89 33 -121 98c-51 -59 -104 -100 -179 -100c-105 0 -174 58 -174 148
c0 93 67 170 211 213c-32 49 -44 80 -44 120c0 105 87 165 175 165s145 -52 145 -126c0 -54 -32 -119 -160 -167c29 -44 52 -85 70 -129c55 87 100 181 179 181zM216 57c58 0 96 28 132 73c-24 65 -51 117 -91 177c-103 -41 -130 -101 -130 -158c0 -59 32 -92 89 -92z
M278 486c0 -30 10 -55 46 -112c79 37 100 89 100 131c0 39 -22 71 -68 71c-41 0 -78 -33 -78 -90z" />
    <glyph glyph-name="exclam" unicode="!" horiz-adv-x="279" 
d="M106 185c35 181 48 349 69 433c11 44 35 66 67 66c35 0 58 -20 58 -57c0 -31 -17 -69 -68 -211c-29 -81 -53 -150 -82 -241zM94 -16c-32 0 -59 22 -59 63c0 29 23 71 65 71c32 0 59 -22 59 -63c0 -29 -23 -71 -65 -71z" />
    <glyph glyph-name="exclamdown" unicode="&#xa1;" horiz-adv-x="279" 
d="M228 483c-35 -181 -48 -349 -69 -433c-11 -44 -35 -66 -67 -66c-35 0 -58 20 -58 57c0 31 17 69 68 211c29 81 53 150 82 241zM240 684c32 0 59 -22 59 -63c0 -29 -23 -71 -65 -71c-32 0 -59 22 -59 63c0 29 23 71 65 71z" />
    <glyph glyph-name="question" unicode="?" horiz-adv-x="444" 
d="M355 264c-38 -62 -89 -87 -143 -87c-61 0 -109 37 -109 99c0 80 68 113 148 146c76 31 138 59 138 125c0 44 -27 82 -101 82c-39 0 -68 -13 -83 -25c11 -15 18 -33 18 -50c0 -39 -26 -76 -68 -76c-36 0 -60 28 -60 63c0 71 75 143 201 143s192 -73 192 -156
c0 -97 -81 -134 -171 -167c-75 -28 -131 -47 -131 -94c0 -22 15 -36 41 -36c32 0 55 13 92 58zM156 -16c-32 0 -59 22 -59 63c0 29 23 71 65 71c32 0 59 -22 59 -63c0 -29 -23 -71 -65 -71z" />
    <glyph glyph-name="questiondown" unicode="&#xbf;" horiz-adv-x="444" 
d="M145 404c38 62 89 87 143 87c61 0 109 -37 109 -99c0 -80 -68 -113 -148 -146c-76 -31 -138 -59 -138 -125c0 -44 27 -82 101 -82c39 0 68 13 83 25c-11 15 -18 33 -18 50c0 39 26 76 68 76c36 0 60 -28 60 -63c0 -71 -75 -143 -201 -143s-192 73 -192 156
c0 97 81 134 171 167c75 28 131 47 131 94c0 22 -15 36 -41 36c-32 0 -55 -13 -92 -58zM344 684c32 0 59 -22 59 -63c0 -29 -23 -71 -65 -71c-32 0 -59 22 -59 63c0 29 23 71 65 71z" />
    <glyph glyph-name="quotedblleft" unicode="&#x201c;" horiz-adv-x="422" 
d="M292 681l10 -38c-77 -25 -121 -61 -136 -101l5 -4c5 3 10 5 16 5c26 0 48 -17 48 -50c0 -35 -26 -74 -66 -74c-48 0 -70 37 -70 77c0 72 53 148 193 185zM483 681l10 -38c-77 -25 -121 -61 -136 -101l5 -4c5 3 10 5 16 5c26 0 48 -17 48 -50c0 -35 -26 -74 -66 -74
c-48 0 -70 37 -70 77c0 72 53 148 193 185z" />
    <glyph glyph-name="quotedblright" unicode="&#x201d;" horiz-adv-x="422" 
d="M92 412l-10 38c77 25 121 61 136 101l-5 4c-5 -3 -10 -5 -16 -5c-26 0 -48 17 -48 50c0 35 26 74 66 74c48 0 70 -37 70 -77c0 -72 -53 -148 -193 -185zM283 412l-10 38c77 25 121 61 136 101l-5 4c-5 -3 -10 -5 -16 -5c-26 0 -48 17 -48 50c0 35 26 74 66 74
c48 0 70 -37 70 -77c0 -72 -53 -148 -193 -185z" />
    <glyph glyph-name="quoteleft" unicode="&#x2018;" horiz-adv-x="231" 
d="M292 681l10 -38c-77 -25 -121 -61 -136 -101l5 -4c5 3 10 5 16 5c26 0 48 -17 48 -50c0 -35 -26 -74 -66 -74c-48 0 -70 37 -70 77c0 72 53 148 193 185z" />
    <glyph glyph-name="quoteright" unicode="&#x2019;" horiz-adv-x="231" 
d="M92 412l-10 38c77 25 121 61 136 101l-5 4c-5 -3 -10 -5 -16 -5c-26 0 -48 17 -48 50c0 35 26 74 66 74c48 0 70 -37 70 -77c0 -72 -53 -148 -193 -185z" />
    <glyph glyph-name="quotedblbase" unicode="&#x201e;" horiz-adv-x="422" 
d="M-46 -146l-10 38c77 25 121 61 136 101l-5 4c-5 -3 -10 -5 -16 -5c-26 0 -48 17 -48 50c0 35 26 74 66 74c48 0 70 -37 70 -77c0 -72 -53 -148 -193 -185zM145 -146l-10 38c77 25 121 61 136 101l-5 4c-5 -3 -10 -5 -16 -5c-26 0 -48 17 -48 50c0 35 26 74 66 74
c48 0 70 -37 70 -77c0 -72 -53 -148 -193 -185z" />
    <glyph glyph-name="quotesinglbase" unicode="&#x201a;" horiz-adv-x="231" 
d="M-46 -146l-10 38c77 25 121 61 136 101l-5 4c-5 -3 -10 -5 -16 -5c-26 0 -48 17 -48 50c0 35 26 74 66 74c48 0 70 -37 70 -77c0 -72 -53 -148 -193 -185z" />
    <glyph glyph-name="guillemotleft" unicode="&#xab;" horiz-adv-x="500" 
d="M169 30l-115 159c-14 19 -17 28 -17 37s6 19 37 43l190 150l28 -27l-159 -173l76 -166zM369 30l-115 159c-14 19 -17 28 -17 37s6 19 37 43l190 150l28 -27l-159 -173l76 -166z" />
    <glyph glyph-name="guillemotright" unicode="&#xbb;" horiz-adv-x="500" 
d="M329 419l115 -159c14 -19 17 -28 17 -37s-6 -19 -37 -43l-190 -150l-28 27l159 173l-76 166zM129 419l115 -159c14 -19 17 -28 17 -37s-6 -19 -37 -43l-190 -150l-28 27l159 173l-76 166z" />
    <glyph glyph-name="guilsinglleft" unicode="&#x2039;" horiz-adv-x="300" 
d="M169 30l-115 159c-14 19 -17 28 -17 37s6 19 37 43l190 150l28 -27l-159 -173l76 -166z" />
    <glyph glyph-name="guilsinglright" unicode="&#x203a;" horiz-adv-x="300" 
d="M129 419l115 -159c14 -19 17 -28 17 -37s-6 -19 -37 -43l-190 -150l-28 27l159 173l-76 166z" />
    <glyph glyph-name="hyphen" unicode="-" horiz-adv-x="361" 
d="M51 211l19 77h251l-19 -77h-251z" />
    <glyph glyph-name="endash" unicode="&#x2013;" horiz-adv-x="540" 
d="M52 212l17 69h430l-17 -69h-430z" />
    <glyph glyph-name="emdash" unicode="&#x2014;" horiz-adv-x="790" 
d="M52 212l17 69h680l-17 -69h-680z" />
    <glyph glyph-name="underscore" unicode="_" horiz-adv-x="440" 
d="M-53 0l16 66h444l-16 -66h-444z" />
    <glyph glyph-name="slash" unicode="/" horiz-adv-x="431" 
d="M-128 -187l593 907l57 -29l-593 -907z" />
    <glyph glyph-name="backslash" unicode="\" horiz-adv-x="431" 
d="M360 -197l-63 -11l-159 906l63 11z" />
    <glyph glyph-name="bar" unicode="|" horiz-adv-x="286" 
d="M3 -198l227 907l64 -9l-227 -907z" />
    <glyph glyph-name="parenleft" unicode="(" horiz-adv-x="361" 
d="M249 -156c-101 66 -183 179 -183 338c0 254 166 469 399 539l18 -49c-205 -81 -321 -299 -321 -495c0 -136 48 -227 127 -292z" />
    <glyph glyph-name="parenright" unicode=")" horiz-adv-x="361" 
d="M140 721c101 -66 183 -179 183 -338c0 -254 -166 -469 -399 -539l-18 49c205 81 321 299 321 495c0 136 -48 227 -127 292z" />
    <glyph glyph-name="bracketleft" unicode="[" horiz-adv-x="343" 
d="M-6 -156l219 877h265l-16 -62h-171l-187 -753h171l-16 -62h-265z" />
    <glyph glyph-name="bracketright" unicode="]" horiz-adv-x="343" 
d="M376 721l-219 -877h-265l16 62h171l187 753h-171l16 62h265z" />
    <glyph glyph-name="braceleft" unicode="{" horiz-adv-x="388" 
d="M302 -156c-129 14 -184 55 -184 139c0 75 52 164 52 215c0 29 -19 55 -105 55h-40l15 59h30c58 0 96 10 121 35c73 73 27 234 111 318c40 40 106 63 219 56l-15 -59c-62 1 -98 -8 -122 -32c-60 -60 -33 -219 -112 -298c-28 -28 -66 -43 -125 -48l-1 -5
c75 -10 109 -41 109 -94c0 -62 -44 -146 -44 -199c0 -43 25 -69 106 -83z" />
    <glyph glyph-name="braceright" unicode="}" horiz-adv-x="388" 
d="M113 721c129 -14 184 -55 184 -139c0 -75 -52 -164 -52 -215c0 -29 19 -55 105 -55h40l-15 -59h-30c-58 0 -96 -10 -121 -35c-73 -73 -27 -234 -111 -318c-40 -40 -106 -63 -219 -56l15 59c62 -1 98 8 122 32c60 60 33 219 112 298c28 28 66 43 125 48l1 5
c-75 10 -109 41 -109 94c0 62 44 146 44 199c0 43 -25 69 -106 83z" />
    <glyph glyph-name="at" unicode="@" horiz-adv-x="881" 
d="M633 -47l19 -36c-73 -44 -151 -63 -236 -63c-206 0 -364 136 -364 352c0 262 215 478 474 478c187 0 331 -113 331 -305c0 -157 -88 -322 -233 -322c-69 0 -116 39 -103 114h-2c-36 -68 -92 -102 -139 -102c-71 0 -130 53 -130 152c0 132 113 256 234 256
c48 0 87 -29 91 -82l25 77h76l-83 -253c-29 -88 -2 -115 45 -115c68 0 165 104 165 272c0 164 -115 264 -281 264c-226 0 -416 -201 -416 -432c0 -180 126 -310 316 -310c78 0 146 18 211 55zM398 124c93 0 143 148 143 224c0 50 -13 83 -58 83c-96 0 -146 -145 -146 -229
c0 -46 18 -78 61 -78z" />
    <glyph glyph-name="copyright" unicode="&#xa9;" horiz-adv-x="787" 
d="M420 -32c-203 0 -361 157 -361 362c0 203 158 360 361 360c204 0 362 -157 362 -360c0 -205 -158 -362 -362 -362zM420 6c181 0 319 142 319 324c0 180 -138 322 -319 322c-179 0 -318 -142 -318 -322c0 -182 139 -324 318 -324zM424 141c-105 0 -181 87 -181 195
c0 104 87 188 182 188c44 0 75 -17 98 -43l10 42h42v-140h-39c-26 64 -58 99 -108 99c-60 0 -107 -40 -107 -143c0 -100 37 -153 112 -153c67 0 99 48 107 112h45c-10 -99 -74 -157 -161 -157z" />
    <glyph glyph-name="published" unicode="&#x2117;" horiz-adv-x="787" 
d="M420 -32c-203 0 -361 157 -361 362c0 203 158 360 361 360c204 0 362 -157 362 -360c0 -205 -158 -362 -362 -362zM420 6c181 0 319 142 319 324c0 180 -138 322 -319 322c-179 0 -318 -142 -318 -322c0 -182 139 -324 318 -324zM270 148v40h59v288h-59v41h166
c115 0 157 -51 157 -110c0 -56 -36 -115 -153 -115h-45v-104h64v-40h-189zM395 330h41c68 0 83 30 83 76c0 39 -19 71 -84 71h-40v-147z" />
    <glyph glyph-name="registered.alt" horiz-adv-x="787" 
d="M420 -32c-203 0 -361 157 -361 362c0 203 158 360 361 360c204 0 362 -157 362 -360c0 -205 -158 -362 -362 -362zM420 6c181 0 319 142 319 324c0 180 -138 322 -319 322c-179 0 -318 -142 -318 -322c0 -182 139 -324 318 -324zM372 310v-122h58v-40h-183v40h59v288h-59
v41h185c112 0 145 -49 145 -96c0 -39 -24 -79 -98 -90v-5c60 -10 78 -39 81 -79l3 -37c1 -19 7 -26 17 -26c8 0 16 8 24 27l26 -12c-11 -34 -32 -58 -68 -58c-39 0 -70 20 -70 73v38c0 38 -11 58 -60 58h-60zM372 346h56c55 0 75 25 75 70c0 39 -18 61 -69 61h-62v-131z" />
    <glyph glyph-name="registered" unicode="&#xae;" horiz-adv-x="517" 
d="M317 248c-125 0 -221 95 -221 222s96 220 221 220c126 0 222 -93 222 -220s-96 -222 -222 -222zM317 278c114 0 187 78 187 192c0 113 -73 190 -187 190c-112 0 -186 -77 -186 -190c0 -114 74 -192 186 -192zM290 458v-74h35v-25h-115v25h36v177h-36v26h118
c69 0 89 -31 89 -60c0 -24 -16 -49 -63 -55v-3c38 -6 49 -24 52 -49l2 -21c1 -13 4 -17 10 -17c5 0 11 5 15 17l17 -7c-7 -22 -20 -38 -43 -38c-27 0 -46 13 -46 47v22c0 23 -6 35 -36 35h-35zM290 482h34c32 0 44 15 44 42c0 24 -10 37 -41 37h-37v-79z" />
    <glyph glyph-name="servicemark" unicode="&#x2120;" horiz-adv-x="775" 
d="M81 358l30 117h29c12 -55 38 -85 82 -85c34 0 53 22 53 46c0 28 -23 36 -51 50c-38 19 -84 36 -84 88c0 47 44 94 106 94c32 0 59 -14 73 -36l19 34h33l-29 -111h-28c-13 58 -33 79 -69 79c-32 0 -51 -19 -51 -44c0 -28 24 -38 52 -51c38 -18 83 -33 83 -87
c0 -53 -46 -96 -108 -96c-38 0 -67 16 -85 37l-22 -35h-33zM352 361l9 35h42l56 227h-42l9 35h136l15 -213h7l116 213h144l-9 -35h-45l-57 -227h45l-9 -35h-139l9 35h33l53 210h-14l-139 -245h-42l-19 245h-16l-52 -210h35l-9 -35h-117z" />
    <glyph glyph-name="trademark" unicode="&#x2122;" horiz-adv-x="825" 
d="M402 361l9 35h42l56 227h-42l9 35h136l15 -213h7l116 213h144l-9 -35h-45l-57 -227h45l-9 -35h-139l9 35h33l53 210h-14l-139 -245h-42l-19 245h-16l-52 -210h35l-9 -35h-117zM133 361l9 35h55l58 230h-13c-40 0 -52 -11 -93 -82h-27l29 114h286l-29 -114h-25
c-3 70 -10 82 -49 82h-17l-58 -230h55l-9 -35h-172z" />
    <glyph glyph-name="asterisk" unicode="*" horiz-adv-x="437" 
d="M331 365c-8 22 -12 85 -17 123l-13 3c-22 -32 -56 -85 -73 -100c-25 -22 -45 -20 -61 -1c-17 20 -15 39 11 61c18 15 76 37 111 53l-2 13c-36 12 -97 25 -116 38c-28 19 -33 36 -19 59c13 21 32 26 60 7c19 -13 58 -60 84 -88l13 6c0 39 -4 101 1 122c8 33 24 42 49 36
s35 -22 26 -55c-6 -21 -39 -74 -57 -107l8 -11c36 12 94 35 117 37c34 3 48 -10 50 -35c2 -26 -11 -39 -45 -42c-23 -2 -83 14 -120 21l-8 -11c22 -30 64 -78 73 -100c13 -31 6 -47 -19 -58c-24 -11 -41 -2 -53 29z" />
    <glyph glyph-name="dagger" unicode="&#x2020;" horiz-adv-x="518" 
d="M414 629l-80 -177c38 -12 87 -27 106 -27c2 0 8 0 11 1c-10 36 13 75 51 75c22 0 44 -16 44 -46c0 -36 -30 -74 -91 -74c-40 0 -66 9 -128 30l-48 -285l-37 -149c-12 -48 -53 -83 -64 -80c-13 3 -32 53 -21 101l38 149l94 277c-39 13 -86 27 -105 27c-2 0 -8 0 -11 -1
c10 -36 -13 -75 -51 -75c-22 0 -44 16 -44 46c0 36 30 74 91 74c41 0 66 -9 130 -31l12 191l15 20c13 18 26 28 43 28c26 0 38 -22 42 -50z" />
    <glyph glyph-name="daggerdbl" unicode="&#x2021;" horiz-adv-x="518" 
d="M268 175c38 -13 87 -27 102 -27c4 0 10 0 13 1c-10 36 13 75 51 75c22 0 44 -16 44 -46c0 -36 -30 -74 -91 -74c-41 0 -66 9 -130 31l-12 -191l-15 -20c-13 -18 -26 -28 -43 -28c-26 0 -38 22 -42 50l-3 24l80 177c-38 12 -88 27 -104 27c-4 0 -10 0 -13 -1
c10 -36 -13 -75 -51 -75c-22 0 -44 16 -44 46c0 36 30 74 91 74c40 0 65 -8 125 -29l12 123l49 113c-38 12 -86 26 -101 26c-4 0 -10 0 -13 -1c10 -36 -13 -75 -51 -75c-22 0 -44 16 -44 46c0 36 30 74 91 74c41 0 66 -9 130 -31l12 191l15 20c13 18 26 28 43 28
c26 0 38 -22 42 -50l3 -24l-80 -177c38 -12 88 -27 104 -27c4 0 10 0 13 1c-10 36 13 75 51 75c22 0 44 -16 44 -46c0 -36 -30 -74 -91 -74c-40 0 -65 9 -126 29l-13 -124z" />
    <glyph glyph-name="asciicircum" unicode="^" horiz-adv-x="333" 
d="M93 517l169 200h45l69 -200h-49l-59 106l-122 -106h-53z" />
    <glyph glyph-name="asciitilde" unicode="~" horiz-adv-x="371" 
d="M140 310c-18 0 -31 -15 -54 -60h-50c29 78 66 127 121 127c67 0 88 -54 119 -54c18 0 31 15 54 60h50c-29 -78 -66 -127 -121 -127c-67 0 -88 54 -119 54z" />
    <glyph glyph-name="dollar" unicode="$" horiz-adv-x="546" 
d="M369 707l58 -10l-17 -66c102 -19 147 -84 147 -128c0 -46 -29 -81 -66 -81c-34 0 -52 22 -52 48s17 50 37 61c-9 19 -39 40 -78 49l-55 -217c71 -36 141 -77 141 -165c0 -93 -69 -198 -221 -198h-10l-21 -86l-58 10l20 83c-97 20 -160 80 -160 139c0 45 33 83 73 83
c34 0 56 -27 56 -54s-23 -55 -47 -64c10 -23 49 -44 92 -54l56 228c-69 36 -139 75 -139 157c0 117 108 193 226 194zM397 159c0 45 -35 74 -79 99l-52 -208c89 1 131 50 131 109zM220 477c0 -40 30 -65 70 -87l49 195c-74 -6 -119 -57 -119 -108z" />
    <glyph glyph-name="sterling" unicode="&#xa3;" horiz-adv-x="600" 
d="M484 282h-174c0 -53 -7 -91 -47 -138c22 -8 42 -18 61 -26c37 -18 68 -37 97 -37c40 0 58 20 85 91l48 -9c-35 -133 -74 -178 -149 -178c-71 0 -118 36 -161 68c-11 7 -21 15 -31 22c-36 -60 -67 -86 -117 -86c-53 0 -88 32 -88 81c0 47 45 98 130 98c27 0 52 -4 75 -9
c6 17 9 34 9 51c0 24 -6 47 -12 72h-146l16 63h117c-2 15 -3 31 -3 48c0 149 110 257 246 257c112 0 174 -58 174 -126c0 -47 -28 -90 -78 -90c-34 0 -61 20 -61 58c0 25 13 51 43 67c-13 15 -35 31 -78 31c-90 0 -136 -60 -136 -190c0 -22 1 -39 2 -55h194zM105 40
c25 0 51 21 75 55c-19 10 -39 16 -62 16c-33 0 -49 -20 -49 -39c0 -20 13 -32 36 -32z" />
    <glyph glyph-name="Euro" unicode="&#x20ac;" horiz-adv-x="643" 
d="M443 351h-200c-7 -26 -11 -53 -13 -78h194l-14 -57h-182c5 -110 62 -157 138 -157c74 0 130 47 173 139l53 -23c-38 -105 -122 -191 -247 -191s-220 76 -224 232h-99l14 57h87c3 27 7 53 13 78h-81l14 57h87c60 147 188 242 317 242c126 0 189 -72 189 -145
c0 -42 -28 -87 -74 -87c-37 0 -60 25 -60 59c0 32 19 59 43 74c-19 25 -50 38 -95 38c-107 0 -178 -82 -215 -181h196z" />
    <glyph glyph-name="yen" unicode="&#xa5;" horiz-adv-x="648" 
d="M111 324h156l-75 244h-82l17 66h280l-17 -66h-88l66 -243l190 243h-76l17 66h223l-17 -66h-74l-201 -244h148l-15 -63h-182l-15 -57h184l-16 -63h-184l-19 -75h121l-16 -66h-337l16 66h120l19 75h-187l16 63h187l15 57h-189z" />
    <glyph glyph-name="cent" unicode="&#xa2;" horiz-adv-x="472" 
d="M305 551l54 -10l-18 -77c77 -11 120 -61 120 -113c0 -35 -21 -77 -61 -77c-32 0 -53 22 -53 49c0 22 10 45 34 66c-7 9 -25 23 -56 26l-91 -364c59 0 102 36 142 103l41 -24c-43 -81 -94 -138 -199 -139l-23 -95l-54 10l23 91c-83 18 -127 82 -127 174
c0 146 112 278 247 293zM134 164c0 -60 18 -91 49 -105l87 350c-94 -33 -136 -171 -136 -245z" />
    <glyph glyph-name="numbersign" unicode="#" horiz-adv-x="653" 
d="M93 413l14 59h143l55 195l66 -8l-52 -187h147l55 195l66 -8l-52 -187h126l-14 -59h-129l-54 -196h141l-14 -59h-144l-56 -202l-66 8l54 194h-148l-56 -202l-66 8l54 194h-126l14 59h128l55 196h-141zM302 413l-54 -196h147l55 196h-148z" />
    <glyph glyph-name="paragraph" unicode="&#xb6;" horiz-adv-x="642" 
d="M215 -104l68 273c-125 16 -206 86 -206 188c0 86 44 256 328 256h296l-16 -66h-96l-163 -651h-69l163 651h-73l-163 -651h-69z" />
    <glyph glyph-name="section" unicode="&#xa7;" horiz-adv-x="505" 
d="M465 283c0 -82 -63 -132 -148 -143c37 -26 66 -58 66 -107c0 -91 -95 -151 -183 -151c-86 0 -195 43 -195 122c0 38 25 74 64 74c33 0 50 -23 50 -45c0 -31 -13 -53 -28 -63c18 -18 61 -39 112 -39s86 29 86 76c0 48 -41 71 -100 106c-68 40 -122 72 -122 143
c0 77 65 128 151 139c-33 25 -59 57 -59 105c0 95 94 151 182 151c87 0 176 -40 176 -112c0 -37 -24 -74 -63 -74c-33 0 -51 25 -51 49c0 28 14 48 28 59c-16 17 -53 29 -93 29c-51 0 -85 -27 -85 -74c0 -50 42 -77 98 -110c61 -36 114 -69 114 -135zM304 340l-47 28
c-69 -13 -95 -46 -95 -88s37 -67 65 -85l49 -29c70 14 94 47 94 88c0 38 -31 64 -66 86z" />
    <glyph glyph-name="ordfeminine" unicode="&#xaa;" horiz-adv-x="402" 
d="M339 648h66l-60 -221c-6 -21 -8 -36 -8 -46c0 -12 5 -19 17 -19c18 0 34 29 50 74l32 -9c-29 -90 -65 -117 -103 -117c-30 0 -53 20 -53 58c0 3 0 8 1 16l-6 2c-26 -49 -68 -76 -106 -76c-56 0 -91 48 -91 112c0 72 29 133 67 171c34 34 78 59 118 59c38 0 58 -26 62 -56
zM196 361c61 0 110 133 110 191c0 38 -15 60 -42 60c-71 0 -115 -123 -115 -180c0 -44 15 -71 47 -71z" />
    <glyph glyph-name="ordmasculine" unicode="&#xba;" horiz-adv-x="369" 
d="M262 652c79 0 127 -57 127 -138c0 -109 -83 -204 -180 -204c-79 0 -127 58 -127 139c0 109 83 203 180 203zM319 544c0 49 -18 72 -54 72c-74 0 -114 -121 -114 -198c0 -49 19 -72 55 -72c74 0 113 121 113 198z" />
    <glyph glyph-name="degree" unicode="&#xb0;" horiz-adv-x="395" 
d="M252 409c70 0 98 79 98 129c0 51 -27 80 -74 80c-70 0 -98 -79 -98 -129c0 -51 28 -80 74 -80zM425 537c0 -100 -73 -183 -176 -183c-97 0 -146 65 -146 136c0 100 73 183 176 183c97 0 146 -65 146 -136z" />
    <glyph glyph-name="percent" unicode="%" horiz-adv-x="788" 
d="M177 266c-86 0 -131 48 -131 129c0 110 105 231 215 231c44 0 79 -17 98 -49c27 -9 57 -14 93 -14c86 0 149 31 219 83l39 -37l-557 -635l-50 35l487 538l-3 3c-37 -21 -95 -37 -143 -37c-24 0 -47 1 -69 5v-5c0 -93 -78 -247 -198 -247zM574 -14c-86 0 -131 48 -131 129
c0 110 105 231 215 231c68 0 114 -40 114 -113c0 -93 -78 -247 -198 -247zM579 35c72 0 139 119 139 196c0 40 -18 62 -51 62c-69 0 -140 -122 -140 -200c0 -45 21 -58 52 -58zM182 315c72 0 139 119 139 196c0 8 -1 15 -2 22c-23 9 -43 21 -62 38
c-65 -13 -127 -125 -127 -198c0 -45 21 -58 52 -58z" />
    <glyph glyph-name="quotedbl" unicode="&#x22;" horiz-adv-x="399" 
d="M134 410l-29 16l75 160c24 51 38 76 67 76c28 0 52 -22 52 -47c0 -24 -23 -50 -73 -105zM305 410l-29 16l75 160c24 51 38 76 67 76c28 0 52 -22 52 -47c0 -24 -23 -50 -73 -105z" />
    <glyph glyph-name="quotesingle" unicode="'" horiz-adv-x="228" 
d="M134 410l-29 16l75 160c24 51 38 76 67 76c28 0 52 -22 52 -47c0 -24 -23 -50 -73 -105z" />
    <glyph glyph-name="plus" unicode="+" horiz-adv-x="525" 
d="M191 67l45 183h-178l15 62h179l46 183h66l-46 -183h178l-15 -62h-179l-45 -183h-66z" />
    <glyph glyph-name="minus" unicode="&#x2212;" horiz-adv-x="520" 
d="M453 247h-374l17 68h374z" />
    <glyph glyph-name="divide" unicode="&#xf7;" horiz-adv-x="520" 
d="M482 250h-430l15 62h430zM233 62c-31 0 -57 21 -57 60c0 28 23 68 63 68c31 0 57 -21 57 -60c0 -28 -23 -68 -63 -68zM310 372c-31 0 -57 21 -57 60c0 28 23 68 63 68c31 0 57 -21 57 -60c0 -28 -23 -68 -63 -68z" />
    <glyph glyph-name="equal" unicode="=" horiz-adv-x="525" 
d="M82 345l16 62h417l-16 -62h-417zM35 155l16 62h417l-16 -62h-417z" />
    <glyph glyph-name="multiply" unicode="&#xd7;" horiz-adv-x="520" 
d="M322 279l108 -148l-52 -41l-106 147l-172 -143l-36 47l175 143l-107 147l52 41l105 -146l172 143l36 -47z" />
    <glyph glyph-name="less" unicode="&#x3c;" horiz-adv-x="524" 
d="M395 69l-319 189l14 59l396 180l17 -57l-356 -159l273 -153z" />
    <glyph glyph-name="greater" unicode="&#x3e;" horiz-adv-x="524" 
d="M158 497l319 -189l-14 -59l-396 -180l-17 57l356 159l-273 153z" />
    <glyph glyph-name="plusminus" unicode="&#xb1;" horiz-adv-x="538" 
d="M223 159l41 163h-158l13 55h158l40 160h60l-40 -160h157l-13 -55h-157l-41 -163h-60zM406 25h-374l14 57h374z" />
    <glyph glyph-name="zero.osf" horiz-adv-x="567" 
d="M48 223c0 179 132 345 287 345c127 0 207 -91 207 -239c0 -179 -132 -345 -287 -345c-127 0 -207 91 -207 239zM434 363c0 103 -42 144 -106 144c-118 0 -172 -203 -172 -318c0 -103 42 -144 106 -144c118 0 172 203 172 318z" />
    <glyph glyph-name="one.osf" horiz-adv-x="464" 
d="M11 0l15 66h137l91 362c-22 -9 -48 -14 -77 -14c-25 0 -55 3 -69 10l13 54c71 -4 152 26 194 79h70l-123 -491h139l-15 -66h-375z" />
    <glyph glyph-name="two.osf" horiz-adv-x="526" 
d="M200 478c17 -10 28 -33 28 -54c0 -36 -22 -72 -67 -72c-35 0 -62 26 -62 65c0 76 77 151 207 151c122 0 190 -70 190 -155c0 -110 -80 -150 -174 -180c-166 -53 -198 -85 -226 -132l2 -3c27 15 65 25 92 25c65 0 103 -45 143 -45c39 0 64 29 99 102l45 -9
c-39 -137 -96 -187 -177 -187c-82 0 -113 80 -162 80c-7 0 -15 -2 -23 -6c1 -6 2 -12 2 -18c0 -33 -23 -56 -56 -56c-34 0 -54 25 -54 58c0 115 120 175 205 212c106 46 185 80 185 170c0 53 -43 83 -101 83c-46 0 -77 -13 -96 -29z" />
    <glyph glyph-name="three.osf" horiz-adv-x="522" 
d="M101 -7c18 -12 43 -21 89 -21c98 0 150 70 150 150c0 53 -40 90 -130 90h-25l15 58h20c79 0 109 12 135 38c35 35 45 71 45 110c0 58 -32 91 -100 91c-29 0 -62 -10 -81 -24c12 -15 17 -28 17 -46c0 -40 -25 -75 -67 -75c-34 0 -58 24 -58 61c0 91 114 143 199 143
c129 0 195 -69 195 -150c0 -78 -58 -168 -209 -178l-1 -3c100 -18 148 -67 148 -129c0 -118 -108 -193 -242 -193c-126 0 -198 57 -198 127c0 43 30 85 76 85c34 0 58 -28 58 -60c0 -34 -14 -55 -36 -74z" />
    <glyph glyph-name="four.osf" horiz-adv-x="546" 
d="M298 177l69 278h-4l-265 -278h200zM347 -12h86l-15 -63h-265l15 63h83l30 123h-280l16 64l373 388h100l-96 -386h129l-17 -66h-129z" />
    <glyph glyph-name="five.osf" horiz-adv-x="503" 
d="M220 458l-54 -170c24 15 63 26 105 26c115 0 177 -73 177 -165s-76 -234 -254 -234c-98 0 -192 48 -192 132c0 45 29 87 73 87c31 0 57 -23 57 -62c0 -25 -13 -52 -40 -72c10 -9 46 -25 90 -25c122 0 162 107 162 178c0 69 -37 106 -100 106c-38 0 -75 -13 -117 -39
l-41 18l98 312l17 13c53 -25 112 -36 162 -36c56 0 112 14 154 32l15 -32c-44 -56 -110 -94 -182 -94c-54 0 -102 13 -130 25z" />
    <glyph glyph-name="six.osf" horiz-adv-x="531" 
d="M390 637c90 0 154 -48 154 -114c0 -43 -31 -83 -71 -83c-36 0 -53 27 -53 53c0 22 10 47 35 65c-10 9 -33 19 -63 19c-97 0 -183 -94 -217 -259c39 48 91 76 148 76c103 0 165 -69 165 -161c0 -111 -81 -249 -236 -249c-118 0 -195 79 -195 226c0 202 143 427 333 427z
M254 45c77 0 128 111 128 193c0 60 -36 96 -92 96c-86 0 -137 -89 -137 -172c0 -74 36 -117 101 -117z" />
    <glyph glyph-name="seven.osf" horiz-adv-x="496" 
d="M192 -20c-16 -48 -34 -66 -64 -66s-54 24 -54 57c0 99 198 330 301 416l79 66l-4 5c-36 -18 -71 -29 -104 -29c-72 0 -94 40 -127 40c-32 0 -55 -28 -97 -137h-62l56 226h68l-14 -71h5c34 57 68 76 103 76c70 0 79 -85 142 -85c6 0 14 1 20 3c-3 10 -4 20 -4 29
c0 36 22 63 56 63c32 0 51 -26 51 -52c0 -38 -21 -65 -78 -111c-122 -97 -205 -226 -273 -430z" />
    <glyph glyph-name="eight.osf" horiz-adv-x="522" 
d="M512 485c0 -69 -40 -130 -132 -158c50 -31 92 -71 92 -145c0 -100 -83 -198 -231 -198c-129 0 -206 74 -206 162c0 77 55 141 157 164c-44 30 -78 69 -78 136c0 86 71 191 214 191c114 0 184 -67 184 -152zM256 274l-24 12c-67 -23 -106 -71 -106 -133
c0 -60 40 -111 122 -111c86 0 129 55 129 111c0 62 -59 90 -121 121zM330 354c2 -2 6 -3 8 -4c66 28 91 81 91 133c0 56 -35 97 -105 97c-73 0 -116 -53 -116 -102c0 -64 59 -92 122 -124z" />
    <glyph glyph-name="nine.osf" horiz-adv-x="531" 
d="M302 507c-77 0 -129 -111 -129 -199c0 -60 36 -96 92 -96c86 0 138 90 138 178c0 74 -36 117 -101 117zM380 228c-39 -48 -91 -76 -148 -76c-103 0 -165 69 -165 161c0 117 82 255 237 255c118 0 195 -79 195 -226c0 -202 -143 -427 -333 -427c-87 0 -156 50 -156 121
c0 43 29 83 72 83c33 0 52 -27 52 -55c0 -24 -6 -45 -35 -65c12 -14 35 -24 65 -24c97 0 182 94 216 253z" />
    <glyph glyph-name="dollar.osf" horiz-adv-x="529" 
d="M344 633l58 -10l-17 -67c97 -18 141 -81 141 -124c0 -46 -29 -82 -66 -82c-34 0 -52 22 -52 48s17 50 38 61c-10 18 -37 38 -73 47l-47 -184c67 -32 136 -67 136 -145c0 -85 -66 -177 -209 -177h-7l-21 -84l-58 10l20 80c-95 19 -156 79 -156 139c0 44 33 82 72 82
c35 0 56 -26 56 -54c0 -26 -22 -55 -47 -64c11 -23 46 -43 87 -53l48 191c-67 31 -135 66 -135 140c0 104 105 174 214 175zM375 135c0 39 -32 64 -74 86l-43 -171c78 1 117 39 117 85zM207 422c0 -33 28 -55 65 -75l41 164c-63 -6 -106 -48 -106 -89z" />
    <glyph glyph-name="sterling.osf" horiz-adv-x="583" 
d="M445 242h-156c-1 -25 -10 -62 -41 -102c24 -8 46 -19 66 -28c36 -17 66 -33 92 -33c37 0 56 19 81 85l48 -9c-34 -126 -74 -170 -147 -170c-67 0 -112 33 -153 65l-31 22c-29 -52 -70 -83 -114 -83c-55 0 -88 31 -88 75c0 48 45 98 128 98c24 0 46 -3 67 -7
c3 12 4 22 4 28c0 22 -4 41 -9 59h-142l16 63h107c-3 14 -6 29 -6 47c0 122 108 216 239 216c108 0 180 -56 180 -122c0 -41 -29 -82 -76 -82c-31 0 -59 18 -59 55c0 21 13 48 37 61c-8 13 -38 28 -77 28c-86 0 -134 -56 -134 -147c0 -21 3 -38 6 -56h178zM96 40
c22 0 51 17 72 52c-17 8 -36 13 -57 13c-32 0 -48 -19 -48 -37s13 -28 33 -28z" />
    <glyph glyph-name="Euro.osf" horiz-adv-x="621" 
d="M422 307h-196c-6 -23 -9 -46 -11 -68h191l-14 -57h-174c12 -86 67 -123 134 -123c73 0 130 46 174 131l53 -23c-39 -99 -120 -183 -246 -183c-119 0 -211 71 -224 198h-100l14 57h86c1 23 5 46 11 68h-81l14 57h88c58 123 181 204 303 204c123 0 188 -70 188 -140
c0 -38 -28 -85 -74 -85c-37 0 -59 25 -59 58c0 29 18 55 42 69c-19 24 -53 37 -95 37c-99 0 -164 -65 -200 -143h190z" />
    <glyph glyph-name="yen.osf" horiz-adv-x="638" 
d="M108 317h124l-61 169h-81l17 66h274l-17 -66h-83l71 -213l179 213h-76l17 66h222l-17 -66h-73l-149 -169h114l-13 -57h-151l-40 -46l-6 -21h181l-14 -57h-181l-18 -70h117l-16 -66h-329l16 66h116l18 70h-184l14 57h184l6 21l-17 46h-157z" />
    <glyph glyph-name="space" unicode=" " horiz-adv-x="174" 
 />
    <glyph glyph-name="uni00A0" unicode="&#xa0;" horiz-adv-x="174" 
 />
    <glyph glyph-name="emspace" unicode="&#x2003;" horiz-adv-x="1000" 
 />
    <glyph glyph-name="enspace" unicode="&#x2002;" horiz-adv-x="500" 
 />
    <glyph glyph-name="threeperemspace" unicode="&#x2004;" horiz-adv-x="333" 
 />
    <glyph glyph-name="fourperemspace" unicode="&#x2005;" horiz-adv-x="250" 
 />
    <glyph glyph-name="thinspace" unicode="&#x2009;" horiz-adv-x="133" 
 />
    <glyph glyph-name="hairspace" unicode="&#x200a;" horiz-adv-x="75" 
 />
    <glyph glyph-name="hfjslug" horiz-adv-x="694" 
d="M644 -200h-208l-8 14h-163l-8 -14h-207v303c18 0 32 14 32 32c0 17 -14 32 -32 32v554h100l30 79h334l29 -79h101v-921zM400 563v-172h15v78h38v14h-38v66h43v14h-58zM184 563v-172h15v79h47v-79h15v172h-15v-79h-47v79h-15zM460 394c4 -2 15 -4 21 -4c20 0 31 11 31 36
v137h-16v-137c0 -16 -5 -22 -16 -22c-5 0 -15 3 -20 6v-16zM349 438l-16 31c13 12 23 26 23 42c0 15 -9 31 -27 31c-17 0 -28 -16 -28 -31s6 -24 14 -39c-15 -12 -23 -28 -23 -45c0 -22 13 -39 31 -39c13 0 22 12 27 24h1l12 -24l11 8l-16 30c5 12 10 25 13 39l-13 3
c-2 -9 -6 -21 -9 -30zM523 323v-46h8v13l7 7l16 -20h9l-19 26l18 20h-10l-21 -24v24h-8zM488 292l10 -15h9l-12 17c6 2 10 8 10 15c0 6 -6 14 -16 14h-21v-46h8v15h12zM426 276c15 0 24 11 24 24c0 12 -10 24 -24 24s-23 -12 -23 -24c0 -13 9 -24 23 -24zM370 301l-13 22h-9
l18 -29v-17h8v17l18 29h-9zM193 323v-46h33v7h-25v13h22v7h-22v12h25v7h-33zM132 323v-46h8v32l25 -32h7v46h-8v-32l-25 32h-7zM241 323l15 -47h8l10 34h1l11 -34h8l14 47h-8l-10 -35h-1l-10 35h-8l-11 -35h-1l-10 35h-8zM327 479c-7 13 -12 22 -12 32s6 19 14 19
s13 -9 13 -19c0 -12 -5 -21 -15 -32zM342 423c-3 -10 -11 -21 -18 -21c-10 0 -17 12 -17 27c0 11 6 24 15 33zM488 299h-12v17h11c6 0 10 -3 10 -8s-4 -9 -9 -9zM426 283c-9 0 -15 8 -15 17c0 8 6 17 15 17s16 -9 16 -17c0 -9 -7 -17 -16 -17z" />
    <glyph glyph-name="i.dot" horiz-adv-x="333" 
d="M310 623c0 -37 -31 -81 -77 -81c-29 0 -52 20 -52 55c0 38 29 82 74 82c33 0 55 -21 55 -56zM256 360c0 -76 -80 -209 -80 -272c0 -17 7 -25 22 -25c21 0 44 32 72 103l44 -13c-39 -121 -92 -162 -147 -162c-46 0 -81 31 -81 90c0 104 83 229 83 299c0 17 -5 23 -16 23
c-32 0 -58 -46 -88 -108l-44 20c41 94 91 151 152 151c49 0 83 -38 83 -106z" />
    <glyph glyph-name="acute" unicode="&#xb4;" horiz-adv-x="238" 
d="M274 614l-92 -81h-50l83 135c25 41 42 63 70 63c25 0 42 -23 42 -43c0 -23 -8 -34 -53 -74z" />
    <glyph glyph-name="hungarumlaut" unicode="&#x2dd;" horiz-adv-x="288" 
d="M208 614l-89 -81h-50l79 135c24 41 39 63 67 63c25 0 44 -24 44 -44c0 -23 -7 -33 -51 -73zM365 614l-95 -81h-50l87 135c26 41 45 63 73 63c25 0 40 -22 40 -42c0 -23 -9 -35 -55 -75z" />
    <glyph glyph-name="caron.alt" horiz-adv-x="238" 
d="M255 635l-64 -112h-41l36 159c11 49 28 69 55 69c26 0 43 -20 43 -43c0 -21 -9 -38 -29 -73z" />
    <glyph glyph-name="grave" unicode="`" horiz-adv-x="238" 
d="M247 642l16 -109h-46l-44 82c-20 38 -25 54 -25 72c0 23 19 43 41 43c42 0 50 -35 58 -88z" />
    <glyph glyph-name="circumflex" unicode="&#x2c6;" horiz-adv-x="299" 
d="M101 534l158 183h41l64 -183h-47l-53 93l-112 -93h-51z" />
    <glyph glyph-name="caron" unicode="&#x2c7;" horiz-adv-x="299" 
d="M413 726l-158 -183h-41l-64 183h47l53 -93l112 93h51z" />
    <glyph glyph-name="breve" unicode="&#x2d8;" horiz-adv-x="336" 
d="M264 540c-84 0 -130 58 -110 157h40c2 -54 23 -87 81 -87c48 0 83 33 113 87h42c-26 -98 -91 -157 -166 -157z" />
    <glyph glyph-name="tilde" unicode="&#x2dc;" horiz-adv-x="331" 
d="M197 597c-18 0 -31 -15 -54 -60h-50c29 78 66 127 121 127c67 0 88 -54 119 -54c18 0 31 15 54 60h50c-29 -78 -66 -127 -121 -127c-67 0 -88 54 -119 54z" />
    <glyph glyph-name="macron" unicode="&#xaf;" horiz-adv-x="321" 
d="M122 550l19 75h251l-19 -75h-251z" />
    <glyph glyph-name="dieresis" unicode="&#xa8;" horiz-adv-x="322" 
d="M234 631c0 -34 -29 -75 -71 -75c-27 0 -48 19 -48 51c0 35 27 75 68 75c30 0 51 -19 51 -51zM416 631c0 -34 -29 -75 -71 -75c-27 0 -48 19 -48 51c0 35 27 75 68 75c30 0 51 -19 51 -51z" />
    <glyph glyph-name="dotaccent" unicode="&#x2d9;" horiz-adv-x="192" 
d="M259 614c0 -35 -29 -77 -74 -77c-27 0 -49 19 -49 53c0 36 27 78 71 78c31 0 52 -20 52 -54z" />
    <glyph glyph-name="ring" unicode="&#x2da;" horiz-adv-x="258" 
d="M338 644c0 -64 -47 -117 -113 -117c-62 0 -93 42 -93 87c0 64 47 117 113 117c62 0 93 -41 93 -87zM180 614c0 -33 19 -52 49 -52c44 0 61 54 61 83c0 33 -19 51 -49 51c-44 0 -61 -53 -61 -82z" />
    <glyph glyph-name="commaaccent" unicode="&#x326;" horiz-adv-x="225" 
d="M-75 -317l-13 35c60 25 95 51 109 88l-5 3c-5 -2 -11 -4 -19 -4c-22 0 -44 16 -44 48s24 70 65 70c44 0 66 -36 66 -74c0 -62 -45 -128 -159 -166z" />
    <glyph glyph-name="cedilla" unicode="&#xb8;" horiz-adv-x="282" 
d="M-58 -167c26 -19 46 -28 77 -28c28 0 48 15 48 40c0 33 -42 45 -87 41l-11 23l109 96h60l-82 -71v-4c43 -7 79 -34 79 -78c0 -46 -32 -95 -112 -95c-36 0 -79 14 -109 42z" />
    <glyph glyph-name="ogonek" unicode="&#x2db;" horiz-adv-x="269" 
d="M131 -206c-30 -22 -65 -37 -104 -37c-62 0 -104 33 -104 86c0 51 34 90 138 159l18 12h61l-20 -15c-105 -84 -121 -114 -121 -145c0 -23 14 -44 52 -44c20 0 42 10 60 21z" />
    </font>
</defs>
</svg>
