<svg id="Layer_1" data-name="Layer 1" xmlns="http://www.w3.org/2000/svg" viewBox="0 0 250 22.9"><defs><style>.cls-2{letter-spacing:.01em}.cls-3,.cls-5{letter-spacing:.02em}</style></defs><text transform="translate(32.18 16.16)" fill="#fff" font-size="9.16" font-family="BentonSans-Black,BentonSans" font-weight="800"><tspan class="cls-2">D</tspan><tspan class="cls-3" x="6.99" y="0">artmouth Hi</tspan><tspan x="65.25" y="0" letter-spacing=".01em">s</tspan><tspan class="cls-3" x="70.33" y="0">tori</tspan><tspan class="cls-2" x="87.78" y="0">c</tspan><tspan class="cls-5" x="93.04" y="0">al</tspan><tspan x="101.69" y="0" letter-spacing="-.01em"> </tspan><tspan x="104.22" y="0">A</tspan><tspan x="110.91" y="0" letter-spacing=".01em">cc</tspan><tspan class="cls-5" x="121.51" y="0">ountabili</tspan><tspan x="164.5" y="0" letter-spacing=".03em">t</tspan><tspan class="cls-3" x="168.91" y="0">y </tspan><tspan x="177.15" y="0" letter-spacing="0">P</tspan><tspan class="cls-2" x="183.47" y="0">r</tspan><tspan class="cls-5" x="187.55" y="0">og</tspan><tspan x="199.43" y="0" letter-spacing="0">r</tspan><tspan class="cls-3" x="203.46" y="0">am</tspan></text><path d="M11.45 0a11.48 11.48 0 00-1.1 22.9c.06-.77.11-1.61.15-2.46v-1.05c0-.05 0-.1-.1 0-.88.93-.92.79-1.29.68a15.87 15.87 0 01-1.81-.69c-.17-.12-.12-.18.07-.26.92-.39 2.89-1.27 3.16-1.38a.1.1 0 000-.05v-.59s0-.07-.07-.05c-.48.18-2.93 1.19-3.29 1.32a.85.85 0 01-.93-.09 8.92 8.92 0 01-1.16-1.32c0-.09-.11-.17.05-.2s4.91-1 5.41-1.09a.05.05 0 000-.05v-.58a.06.06 0 00-.06-.06L6 15.76a.58.58 0 01-.69-.29c-.15-.2-.67-1.32-.73-1.43s-.11-.27.08-.29l6.07-.37a.05.05 0 000-.05v-.54a.06.06 0 00-.06 0c-.52 0-4.67.14-4.95.13a.51.51 0 01-.56-.36 10.71 10.71 0 01-.32-1.67c0-.1 0-.19.15-.15 1.41.26 5.22.68 5.73.74h.06v-.5-.05c-.44-.07-3.92-.59-4.31-.66S6 10 5.94 9.71a10.19 10.19 0 01-.14-1.34c0-.11 0-.18.14-.13 2.35.69 4.52 1.24 4.92 1.33l.06-.05v-.48l-3.47-.99a.68.68 0 01-.54-.54 8.12 8.12 0 010-1.14c0-.16 0-.2.15-.14 1.07.53 3.47 1.43 3.91 1.6a.06.06 0 00.07 0v-.47l-2.73-1.2a.55.55 0 01-.42-.56 4.37 4.37 0 010-.88c0-.17 0-.21.28-.06C8.69 5 10.58 6 11 6.16h.07v-.45L9.35 4.69c-.36-.2-.47-.35-.48-.53a5.81 5.81 0 010-.83c0-.24.09-.27.24-.14.68.54 1.61 1.15 1.89 1.33a.05.05 0 00.08 0v-.45-.05L10 3.16a.41.41 0 01-.13-.24 4.88 4.88 0 01.1-.76c0-.1.06-.16.17-.05a10.62 10.62 0 001 .92c.05.05.07.06.07 0 0-.47-.21-1.4.25-1.66h.05c.47.26.25 1.19.25 1.66h.08c.08 0 .51-.42 1-.92.11-.11.13 0 .16.05a3.77 3.77 0 01.11.76.41.41 0 01-.13.24l-1.2.84a.08.08 0 000 .05v.41a.05.05 0 00.08 0c.27-.18 1.21-.79 1.88-1.33.16-.13.21-.1.25.14a4.83 4.83 0 010 .83c0 .18-.11.33-.48.53l-1.69.92V6a.06.06 0 00.08 0c.4-.21 2.28-1.19 2.8-1.5.26-.15.25-.11.27.06a4.46 4.46 0 010 .88.56.56 0 01-.42.56l-2.67 1.1v.47a.05.05 0 00.07 0c.44-.17 2.84-1.07 3.9-1.6.13-.06.15 0 .16.14a8.12 8.12 0 010 1.14c-.05.32-.28.45-.55.54L12 9v.48s0 .06.07.05c.39-.09 2.56-.64 4.91-1.33.16-.05.15 0 .15.13A12.24 12.24 0 0117 9.71c-.1.3-.17.38-.59.46s-3.86.59-4.3.66v.55h.06c.51-.06 4.31-.48 5.73-.74.18 0 .16.05.15.15a9.77 9.77 0 01-.33 1.67.5.5 0 01-.55.36c-.28 0-4.44-.12-4.95-.13h-.06v.54l.05.05 6.07.37c.19 0 .18.1.07.29s-.57 1.23-.72 1.43a.58.58 0 01-.69.29L12.25 15a.06.06 0 00-.06.06v.63c.5.09 5.26 1.06 5.41 1.09s.1.11 0 .2a8.92 8.92 0 01-1.16 1.32.86.86 0 01-.94.09c-.36-.13-2.8-1.14-3.28-1.32 0 0-.07 0-.07.05v.59a.09.09 0 000 .05c.28.11 2.24 1 3.17 1.38.19.08.23.14.07.26a15.4 15.4 0 01-1.82.69c-.36.11-.4.25-1.28-.68-.07-.07-.1 0-.1 0v1.05c0 .85.09 1.69.15 2.46A11.48 11.48 0 0011.45 0z" fill="#fff"/></svg>