<svg id="Layer_1" data-name="Layer 1" xmlns="http://www.w3.org/2000/svg" viewBox="0 0 251.5 70.78"><defs><style>.cls-2,.cls-4{letter-spacing:.01em}.cls-11{fill:none;stroke:#1d2c27;stroke-linecap:round;stroke-miterlimit:10;stroke-width:3px}</style></defs><text transform="translate(62.84 34.86)" fill="#1d2c27" font-size="14.18" font-family="BentonSans-Black,BentonSans" font-weight="800">D<tspan class="cls-2" x="10.67" y="0">artmouth Hi</tspan><tspan x="99.29" y="0" letter-spacing="0">s</tspan><tspan class="cls-2" x="107.01" y="0">tori</tspan><tspan x="133.45" y="0">c</tspan><tspan class="cls-4" x="141.45" y="0">al</tspan><tspan letter-spacing="-.01em"><tspan x="0" y="16.66">A</tspan><tspan x="10.21" y="16.66" letter-spacing=".01em">cc</tspan><tspan class="cls-2" x="26.34" y="16.66">ountabili</tspan><tspan x="91.59" y="16.66" letter-spacing=".02em">t</tspan><tspan class="cls-2" x="98.28" y="16.66">y </tspan><tspan x="110.76" y="16.66">P</tspan><tspan x="120.4" y="16.66" letter-spacing="0">r</tspan><tspan class="cls-4" x="126.56" y="16.66">og</tspan><tspan x="144.67" y="16.66">r</tspan><tspan class="cls-2" x="150.76" y="16.66">am</tspan></tspan></text><path d="M20 0h.14c1.34.74.73 3.43.73 4.79 0 .13.06.11.22 0A38.79 38.79 0 0024 2.14c.31-.32.38-.16.48.13a11.61 11.61 0 01.31 2.19 1.2 1.2 0 01-.38.71s-2.91 2.11-3.37 2.48a.16.16 0 00-.06.13L21 9a.14.14 0 00.23.12c.8-.51 3.49-2.27 5.45-3.84.46-.36.61-.27.71.42a15.3 15.3 0 01.1 2.4c0 .5-.32.95-1.38 1.53l-4.9 2.63a.16.16 0 00-.08.14v1.33a.15.15 0 00.22.13c1.16-.6 6.61-3.44 8.11-4.33.75-.45.72-.33.79.17a13.88 13.88 0 010 2.55c-.09.86-.27 1.19-1.22 1.61s-6.74 2.79-7.58 3.14a.15.15 0 00-.1.14l.06 1.35a.15.15 0 00.2.14c1.27-.47 8.22-3.07 11.3-4.6.37-.18.43-.06.45.38a22.76 22.76 0 01-.14 3.32c-.14.91-.8 1.27-1.58 1.53s-8.89 2.44-10 2.73a.15.15 0 00-.11.15l.05 1.39a.16.16 0 00.19.15c1.14-.29 7.42-1.87 14.22-3.86.45-.13.42.06.42.39a31.64 31.64 0 01-.41 3.86c-.28.88-.49 1.1-1.69 1.32s-11.16 1.72-12.43 1.91a.17.17 0 00-.13.16l.06 1.44a.15.15 0 00.17.15c1.49-.18 12.5-1.41 16.59-2.16.51-.1.48.14.45.44a32.48 32.48 0 01-1 4.82 1.47 1.47 0 01-1.61 1.05c-.8 0-12.83-.34-14.33-.39A.15.15 0 0022 33v1.53a.15.15 0 00.14.15l17.57 1.06c.54 0 .51.28.21.84-.17.31-1.66 3.55-2.1 4.11a1.68 1.68 0 01-2 .84c-1.16-.2-11.82-2.08-13.42-2.33a.16.16 0 00-.18.16l.07 1.64a.16.16 0 00.13.15c1.46.27 15.22 3.07 15.65 3.16s.3.33.16.57a25.07 25.07 0 01-3.37 3.82 2.5 2.5 0 01-2.7.26c-1-.38-8.11-3.3-9.5-3.82a.16.16 0 00-.21.15l.07 1.71a.14.14 0 00.1.13c.79.34 6.48 2.87 9.16 4 .54.23.67.4.2.73a40.91 40.91 0 01-5.25 2c-1.06.31-1.19.72-3.73-2-.19-.2-.27-.08-.29.09l.12 3c.29 6.28.83 12.58 1.14 14.7.06.38.16.67-.49.76a18.13 18.13 0 01-3.4.28 18.13 18.13 0 01-3.4-.28c-.65-.09-.55-.38-.49-.76.31-2.12.85-8.42 1.15-14.7l.11-3c0-.17-.1-.29-.29-.09-2.54 2.67-2.67 2.26-3.72 2a40.54 40.54 0 01-5.26-2c-.47-.33-.34-.5.2-.73 2.68-1.13 8.37-3.66 9.17-4a.14.14 0 00.09-.13l.07-1.71a.16.16 0 00-.21-.15C16.11 45.69 9 48.61 8 49a2.5 2.5 0 01-2.7-.26 25.07 25.07 0 01-3.37-3.82c-.14-.24-.3-.48.16-.57s14.19-2.89 15.66-3.16a.16.16 0 00.12-.15l.07-1.67a.16.16 0 00-.18-.16c-1.57.25-12.26 2.13-13.45 2.33a1.68 1.68 0 01-2-.84c-.44-.56-1.93-3.8-2.1-4.11-.3-.56-.32-.8.21-.84L18 34.68a.15.15 0 00.14-.15l.05-1.53a.15.15 0 00-.16-.16c-1.5 0-13.53.41-14.33.39a1.45 1.45 0 01-1.6-1.05 30.09 30.09 0 01-1-4.82c0-.3-.07-.54.44-.44 4.09.75 15.11 2 16.59 2.16a.15.15 0 00.17-.15l.06-1.44a.17.17 0 00-.13-.16c-1.23-.22-11.29-1.74-12.4-1.94S4.42 25 4.14 24.07a31.64 31.64 0 01-.41-3.86c0-.33 0-.52.42-.39 6.8 2 13.08 3.57 14.22 3.86a.16.16 0 00.19-.15l.05-1.39a.14.14 0 00-.11-.14c-1.09-.29-9.29-2.5-10-2.73s-1.43-.62-1.58-1.53a22.76 22.76 0 01-.14-3.32c0-.44.08-.56.45-.38 3.08 1.53 10 4.13 11.3 4.6a.14.14 0 00.2-.14l.06-1.35a.15.15 0 00-.1-.14c-.84-.35-6.74-2.76-7.71-3.18s-1.13-.75-1.22-1.61a13.88 13.88 0 010-2.55c.07-.5 0-.62.79-.17 1.5.89 7 3.73 8.11 4.33a.15.15 0 00.22-.13v-1.33a.16.16 0 00-.08-.14L14 9.59c-1-.59-1.35-1.03-1.37-1.53a16.65 16.65 0 01.1-2.4c.1-.69.25-.78.71-.42 2 1.57 4.66 3.33 5.45 3.84a.14.14 0 00.23-.08l.05-1.18a.16.16 0 00-.06-.13c-.46-.37-3.37-2.48-3.37-2.48a1.2 1.2 0 01-.38-.71 12.51 12.51 0 01.31-2.19c.1-.29.17-.45.48-.13a38.79 38.79 0 002.91 2.64c.16.14.23.16.23 0 0-1.36-.62-4 .72-4.79" fill="#1d2c27" id="Lone_Pine" data-name="Lone Pine"/><path class="cls-11" d="M50.08 10.38H250M50.08 65.78H250"/></svg>