<svg id="Layer_1" data-name="Layer 1" xmlns="http://www.w3.org/2000/svg" viewBox="0 0 492.55 330.89"><defs><style>.cls-1{fill:#ffc565;}.cls-2{fill:#161109;}</style></defs><title>alt_logo_gold</title><circle class="cls-1" cx="246.27" cy="87.5" r="87.5"/><path class="cls-2" d="M250.2,154.75c.82-2.49-.1-5.28-1.67-7.37a31.33,31.33,0,0,0-5.77-5.31,64.07,64.07,0,0,1-18.89-24,48.17,48.17,0,0,1-3.06-30.18c4.42-18.43,20.38-31.71,28.61-48.79,2.82-5.86,4.72-12.53,3.15-18.83.1.38,1.35,1.12,1.67,1.4.65.57,1.29,1.14,1.91,1.74,1.2,1.13,2.35,2.32,3.46,3.54a56,56,0,0,1,5.79,7.57,49.33,49.33,0,0,1,6.86,17.72A41.83,41.83,0,0,1,272,68.64c-2.05,9-7.2,17-11.51,25.26s-7.93,17.4-6.54,26.58c-4.56-6.94-7.57-15.32-6.3-23.53,1.51-9.87,9-18.53,8.49-28.5-8.92,8.83-18.3,18.51-20.4,30.89s3.7,25,10.86,35.41c2.09,3,4.34,6.07,5.43,9.6S252.77,152.1,250.2,154.75Z"/><path d="M34.09,266.87V270H27a2.94,2.94,0,0,1-1.58-.37,3.31,3.31,0,0,1-1.06-1.05l-8-12.23a2.88,2.88,0,0,0-1-.95,3.23,3.23,0,0,0-1.58-.31H11.06v9.69l1.59.27c.36.05.63.15.79.15a1.66,1.66,0,0,1,.31.06,1.51,1.51,0,0,1,1.32,1.63V270H0v-3.11a1.51,1.51,0,0,1,1.32-1.63,1.66,1.66,0,0,1,.31-.06,5.31,5.31,0,0,1,.79-.15L4,264.76V237.1l-1.58-.26c-.37-.05-.63-.16-.79-.16a2,2,0,0,1-.31-.05A1.52,1.52,0,0,1,0,235v-3.1H15.23a24.7,24.7,0,0,1,6.69.79,12.49,12.49,0,0,1,4.53,2.26,8.78,8.78,0,0,1,2.63,3.48,11,11,0,0,1,.85,4.42,11.9,11.9,0,0,1-.58,3.64,10.89,10.89,0,0,1-1.64,3.11A9.56,9.56,0,0,1,25.08,252a14.77,14.77,0,0,1-3.58,1.69,7.27,7.27,0,0,1,2.32,2.21l6,8.85,1.64.27c.42.05.68.15.89.15a2.45,2.45,0,0,1,.42.06A1.51,1.51,0,0,1,34.09,266.87Zm-13-18.76A5.79,5.79,0,0,0,22.5,246a7.25,7.25,0,0,0,.47-2.64,5.5,5.5,0,0,0-1.89-4.48c-1.27-1-3.22-1.53-5.85-1.53H11.06V250h4.06a11.36,11.36,0,0,0,3.48-.53A6.58,6.58,0,0,0,21.08,248.11Z"/><path d="M53.53,243.32a10.21,10.21,0,0,1,3.69,2.42,10.64,10.64,0,0,1,2.43,3.85,14.53,14.53,0,0,1,.89,5.16,8.61,8.61,0,0,1-.1,1.27,2,2,0,0,1-.22.73.94.94,0,0,1-.47.43,1.64,1.64,0,0,1-.74.1H42.31c.21,2.79.95,4.8,2.27,6.11a6.88,6.88,0,0,0,5.16,1.95,8,8,0,0,0,2.69-.37,11.47,11.47,0,0,0,2-.84c.58-.32,1.11-.53,1.53-.79a2.19,2.19,0,0,1,1.21-.37,1.64,1.64,0,0,1,.74.16,1.17,1.17,0,0,1,.47.42l1.9,2.37a11.49,11.49,0,0,1-2.43,2.16,12,12,0,0,1-2.79,1.37,20.29,20.29,0,0,1-3,.69,20,20,0,0,1-3,.21,14.15,14.15,0,0,1-5.22-.9,12,12,0,0,1-4.21-2.79,12.74,12.74,0,0,1-2.85-4.53,17.71,17.71,0,0,1-1-6.27,15.22,15.22,0,0,1,.9-5.17,12.45,12.45,0,0,1,2.58-4.26,11.78,11.78,0,0,1,4-2.85,14,14,0,0,1,5.48-1.05A13.38,13.38,0,0,1,53.53,243.32Zm-9,5.48a8,8,0,0,0-2.05,4.53H54.69a8.64,8.64,0,0,0-.37-2.37,5.42,5.42,0,0,0-1-2,4.53,4.53,0,0,0-1.79-1.32,6.48,6.48,0,0,0-2.53-.52A6,6,0,0,0,44.52,248.8Z"/><path d="M82.57,268.08a14.12,14.12,0,0,1-2.64,1.37,16.25,16.25,0,0,1-2.79.69,18.86,18.86,0,0,1-2.9.21,11.67,11.67,0,0,1-4.69-.9,10.93,10.93,0,0,1-3.84-2.74,12.8,12.8,0,0,1-2.64-4.37,17.48,17.48,0,0,1-1-5.95,16.54,16.54,0,0,1,.85-5.48,13,13,0,0,1,2.52-4.43,11.16,11.16,0,0,1,4.11-2.9,14.65,14.65,0,0,1,5.64-1.05,25.23,25.23,0,0,1,8.54,1.95l-.06,8.32h-3a1.16,1.16,0,0,1-1.21-1c-.05-.42-.21-1.68-.42-3.79a13.89,13.89,0,0,0-3.48-.53,6.64,6.64,0,0,0-3,.63,5.54,5.54,0,0,0-2.11,1.74,8,8,0,0,0-1.32,2.85,15.93,15.93,0,0,0-.42,3.69,14,14,0,0,0,.48,3.84,8.71,8.71,0,0,0,1.31,2.85,6.36,6.36,0,0,0,2.11,1.74,6.92,6.92,0,0,0,2.79.58A6.79,6.79,0,0,0,78,265a8,8,0,0,0,1.63-.85c.43-.31.85-.58,1.16-.84a1.56,1.56,0,0,1,1.06-.37,1.31,1.31,0,0,1,1.21.58l1.84,2.37A12.29,12.29,0,0,1,82.57,268.08Z"/><path d="M105.22,243.53a11.42,11.42,0,0,1,4.22,2.74,12,12,0,0,1,2.63,4.37,18,18,0,0,1,0,11.54,12.31,12.31,0,0,1-2.63,4.43,11.54,11.54,0,0,1-4.22,2.79,15.15,15.15,0,0,1-5.48,1,15.46,15.46,0,0,1-5.53-1A11.5,11.5,0,0,1,90,266.61a12.53,12.53,0,0,1-2.74-4.43,18,18,0,0,1,0-11.54A12.27,12.27,0,0,1,90,246.27a11.38,11.38,0,0,1,4.21-2.74,15.46,15.46,0,0,1,5.53-1A15.15,15.15,0,0,1,105.22,243.53Zm-.52,19.55a14.34,14.34,0,0,0,0-13.28,5.6,5.6,0,0,0-5-2.32,5.83,5.83,0,0,0-5,2.32A11.37,11.37,0,0,0,93,256.49a11,11,0,0,0,1.69,6.59,5.81,5.81,0,0,0,5,2.26A5.59,5.59,0,0,0,104.7,263.08Z"/><path d="M146.06,266.87V270h-8a1.59,1.59,0,0,1-1.63-1.21l-.48-2.16c-.58.58-1.16,1.1-1.73,1.58a9.2,9.2,0,0,1-1.9,1.16,14.38,14.38,0,0,1-2.21.79,13.09,13.09,0,0,1-2.48.26,10.23,10.23,0,0,1-4-.74,8.05,8.05,0,0,1-2.85-2.16,9.1,9.1,0,0,1-1.74-3.21,14.72,14.72,0,0,1-.58-4.16v-12c-2.26-.43-2.26-.43-2.68-.48a1.51,1.51,0,0,1-1.32-1.63V243H125v17.18a6,6,0,0,0,1.16,3.84,4.19,4.19,0,0,0,3.43,1.32,7.22,7.22,0,0,0,3.16-.74,10,10,0,0,0,2.79-2.05V248.17c-2.21-.37-2.21-.43-2.63-.48a1.51,1.51,0,0,1-1.32-1.63V243h10.49v21.81c2.26.42,2.21.42,2.63.48A1.51,1.51,0,0,1,146.06,266.87Z"/><path d="M179.62,266.87V270H169.14V252.8A6,6,0,0,0,168,249a4.22,4.22,0,0,0-3.43-1.37,6.67,6.67,0,0,0-3.16.79,11.06,11.06,0,0,0-2.79,2.05v14.33l1.53.27a5.59,5.59,0,0,1,.79.15.78.78,0,0,0,.31.06,1.51,1.51,0,0,1,1.32,1.63V270H148.11v-3.11a1.51,1.51,0,0,1,1.32-1.63,1.64,1.64,0,0,1,.32-.06,5,5,0,0,1,.79-.15l1.52-.27V248.17l-1.52-.27c-.37-.05-.64-.16-.79-.16a1,1,0,0,0-.32-.05,1.51,1.51,0,0,1-1.32-1.63V243h8a1.59,1.59,0,0,1,1.63,1.21l.48,2.11a11.66,11.66,0,0,1,1.68-1.53,9.57,9.57,0,0,1,1.95-1.16,10.09,10.09,0,0,1,2.16-.79,12.75,12.75,0,0,1,2.53-.26,9.38,9.38,0,0,1,3.95.74,7.6,7.6,0,0,1,2.85,2.1,10.2,10.2,0,0,1,1.74,3.27,13,13,0,0,1,.58,4.16v12l1.58.27c.37.05.63.15.79.15a1.49,1.49,0,0,1,.31.06A1.51,1.51,0,0,1,179.62,266.87Z"/><path d="M187.16,268.4a7.6,7.6,0,0,1-1.9-5.48V247.85h-2.74a1.4,1.4,0,0,1-.9-.37,1.21,1.21,0,0,1-.42-1v-2.63l4.38-.69,1.37-7.38a1.14,1.14,0,0,1,.47-.79,1.61,1.61,0,0,1,1-.31h3.37v8.53h7.12v4.64h-7.12V262.5a2.82,2.82,0,0,0,.63,1.95,2.19,2.19,0,0,0,1.69.68,2.9,2.9,0,0,0,1-.1l.69-.32a6,6,0,0,0,.58-.32.64.64,0,0,1,.42-.1.8.8,0,0,1,.52.1,2.54,2.54,0,0,1,.37.43l1.95,3.16a10.34,10.34,0,0,1-3.26,1.79,11.56,11.56,0,0,1-3.8.63A7.2,7.2,0,0,1,187.16,268.4Z"/><path d="M215.71,266.87V270H201.22v-3.11a1.51,1.51,0,0,1,1.32-1.63,1.64,1.64,0,0,1,.32-.06,5.31,5.31,0,0,1,.79-.15l1.58-.27V248.17l-1.58-.27c-.37-.05-.63-.16-.79-.16a1.93,1.93,0,0,1-.32-.05,1.52,1.52,0,0,1-1.32-1.63V243h10.49v21.81l1.58.27c.37.05.63.15.79.15a1.82,1.82,0,0,1,.32.06A1.51,1.51,0,0,1,215.71,266.87Zm-3.37-30.24a4.53,4.53,0,0,1-.89,1.31,3.87,3.87,0,0,1-1.32.9,4.34,4.34,0,0,1-3.27,0,3.62,3.62,0,0,1-1.26-.9,4.37,4.37,0,0,1-.9-1.31,3.87,3.87,0,0,1-.31-1.58,4.35,4.35,0,0,1,.31-1.64,3.83,3.83,0,0,1,.9-1.31,3.51,3.51,0,0,1,1.26-.85,3.8,3.8,0,0,1,3.27,0,3.75,3.75,0,0,1,1.32.85,4,4,0,0,1,.89,1.31,4.41,4.41,0,0,1,.37,1.64A3.9,3.9,0,0,1,212.34,236.63Z"/><path d="M249.17,266.87V270H238.69V252.8a5.94,5.94,0,0,0-1.16-3.84,4.22,4.22,0,0,0-3.43-1.37,6.67,6.67,0,0,0-3.16.79,11.06,11.06,0,0,0-2.79,2.05v14.33l1.53.27a5.31,5.31,0,0,1,.79.15.81.81,0,0,0,.31.06,1.51,1.51,0,0,1,1.32,1.63V270H217.66v-3.11a1.51,1.51,0,0,1,1.32-1.63,1.64,1.64,0,0,1,.32-.06,5.31,5.31,0,0,1,.79-.15l1.53-.27V248.17l-1.53-.27c-.37-.05-.63-.16-.79-.16a1,1,0,0,0-.32-.05,1.52,1.52,0,0,1-1.32-1.63V243h8a1.59,1.59,0,0,1,1.63,1.21l.48,2.11a11.66,11.66,0,0,1,1.68-1.53,9.57,9.57,0,0,1,2-1.16,10.09,10.09,0,0,1,2.16-.79,12.75,12.75,0,0,1,2.53-.26,9.38,9.38,0,0,1,3.95.74,7.6,7.6,0,0,1,2.85,2.1,10.2,10.2,0,0,1,1.74,3.27,13,13,0,0,1,.58,4.16v12l1.58.27c.37.05.63.15.79.15a1.49,1.49,0,0,1,.31.06A1.51,1.51,0,0,1,249.17,266.87Z"/><path d="M266,242.84a10,10,0,0,1,2.79,1.06h7.75v2.42a1.3,1.3,0,0,1-.32,1,1.9,1.9,0,0,1-1.05.47l-2.43.43a10.53,10.53,0,0,1,.37,1.47,7.36,7.36,0,0,1,.16,1.58,8.17,8.17,0,0,1-.79,3.64,8,8,0,0,1-2.21,2.74,11.8,11.8,0,0,1-3.37,1.74,13.12,13.12,0,0,1-4.17.63,13.57,13.57,0,0,1-3-.27c-.84.53-1.26,1.06-1.26,1.69a1.25,1.25,0,0,0,.73,1.21,6.08,6.08,0,0,0,2,.53,22.4,22.4,0,0,0,2.79.21c1,.05,2,.05,3.16.16a29.87,29.87,0,0,1,3.21.47,8.74,8.74,0,0,1,2.74,1.06,5.28,5.28,0,0,1,2,1.89,5.94,5.94,0,0,1,.73,3.16,7.38,7.38,0,0,1-.89,3.48,9.61,9.61,0,0,1-2.53,3,12.44,12.44,0,0,1-4.11,2.11,17.88,17.88,0,0,1-5.53.79,20.57,20.57,0,0,1-5.38-.58,13.44,13.44,0,0,1-3.74-1.58,6.42,6.42,0,0,1-2.21-2.26,5.39,5.39,0,0,1-.74-2.69,4.55,4.55,0,0,1,1.16-3.21,8.33,8.33,0,0,1,3.21-2,4.17,4.17,0,0,1-2.21-3.9,3.48,3.48,0,0,1,.21-1.26,5,5,0,0,1,.63-1.26,8,8,0,0,1,1.11-1.22,9.77,9.77,0,0,1,1.58-1,8.82,8.82,0,0,1-3.27-3,7.8,7.8,0,0,1-1.15-4.32,8.1,8.1,0,0,1,.79-3.63,7.86,7.86,0,0,1,2.26-2.74,10.74,10.74,0,0,1,3.37-1.74,14.37,14.37,0,0,1,4.32-.63A16,16,0,0,1,266,242.84Zm3.37,27.09a3.63,3.63,0,0,0-1.26-.79,9.29,9.29,0,0,0-1.95-.43c-.74-.1-1.48-.15-2.32-.21s-1.69-.05-2.53-.1-1.69-.11-2.48-.21a6.27,6.27,0,0,0-1.79,1.42,3,3,0,0,0-.68,1.9,2.9,2.9,0,0,0,.37,1.31,2.78,2.78,0,0,0,1.1,1.11,6.29,6.29,0,0,0,2.06.69,16.57,16.57,0,0,0,3,.26,13.92,13.92,0,0,0,3.16-.32,8.76,8.76,0,0,0,2.16-.73,3.52,3.52,0,0,0,1.27-1.16,2.86,2.86,0,0,0,.37-1.48A1.67,1.67,0,0,0,269.35,269.93Zm-4.53-14.44a4.11,4.11,0,0,0,1.48-.9,3.54,3.54,0,0,0,.89-1.42,5,5,0,0,0,.32-1.79,4.28,4.28,0,0,0-1.21-3.16,4.91,4.91,0,0,0-3.59-1.16,5,5,0,0,0-3.63,1.16,4.25,4.25,0,0,0-1.16,3.16,5,5,0,0,0,.26,1.79,3.84,3.84,0,0,0,.9,1.37,3.72,3.72,0,0,0,1.53,1,6.52,6.52,0,0,0,2.1.32A6.37,6.37,0,0,0,264.82,255.49Z"/><path d="M329,236.68c-.16,0-.43.11-.79.16l-1.53.26v27.66l1.53.27c.36.05.63.15.79.15a1.66,1.66,0,0,1,.31.06,1.51,1.51,0,0,1,1.32,1.63V270H315.56v-3.11a1.51,1.51,0,0,1,1.32-1.63.78.78,0,0,0,.31-.06A5.59,5.59,0,0,1,318,265l1.53-.27V253.33H301.65v11.43l1.58.27c.37.05.63.15.79.15a.85.85,0,0,0,.32.06,1.51,1.51,0,0,1,1.32,1.63V270H290.53v-3.11a1.51,1.51,0,0,1,1.32-1.63,1.64,1.64,0,0,1,.32-.06c.16,0,.42-.1.79-.15l1.58-.27V237.1l-1.58-.26c-.37-.05-.63-.16-.79-.16a1,1,0,0,0-.32-.05,1.52,1.52,0,0,1-1.32-1.64v-3.1h15.13V235a1.52,1.52,0,0,1-1.32,1.64,1,1,0,0,0-.32.05c-.16,0-.42.11-.79.16l-1.58.26v11.17h17.86V237.1l-1.53-.26a5.28,5.28,0,0,1-.79-.16,2,2,0,0,1-.31-.05,1.52,1.52,0,0,1-1.32-1.64v-3.1h15.07V235a1.52,1.52,0,0,1-1.32,1.64A2,2,0,0,1,329,236.68Z"/><path d="M363.88,266.87V270h-8a1.59,1.59,0,0,1-1.63-1.21l-.48-2.16c-.58.58-1.15,1.1-1.73,1.58a9.2,9.2,0,0,1-1.9,1.16,14.38,14.38,0,0,1-2.21.79,12.92,12.92,0,0,1-2.48.26,10.23,10.23,0,0,1-3.95-.74,8.05,8.05,0,0,1-2.85-2.16,9.1,9.1,0,0,1-1.74-3.21,15.09,15.09,0,0,1-.58-4.16v-12c-2.26-.43-2.26-.43-2.68-.48a1.51,1.51,0,0,1-1.32-1.63V243h10.48v17.18A6,6,0,0,0,344,264a4.19,4.19,0,0,0,3.43,1.32,7.22,7.22,0,0,0,3.16-.74,10,10,0,0,0,2.79-2.05V248.17c-2.21-.37-2.21-.43-2.63-.48a1.51,1.51,0,0,1-1.32-1.63V243h10.49v21.81c2.26.42,2.21.42,2.63.48A1.51,1.51,0,0,1,363.88,266.87Z"/><path d="M387.11,243.37l-.84,4.9a.86.86,0,0,1-.32.63,1.29,1.29,0,0,1-.73.21,5.37,5.37,0,0,1-1.06-.15,8.11,8.11,0,0,0-1.84-.21,5.48,5.48,0,0,0-3.48,1.1,9.16,9.16,0,0,0-2.42,3.32v11.59c2.26.42,2.21.42,2.63.48a1.51,1.51,0,0,1,1.32,1.63V270H365.93v-3.11a1.51,1.51,0,0,1,1.32-1.63c.42-.06.37-.06,2.64-.48V248.17c-2.27-.43-2.22-.43-2.64-.48a1.51,1.51,0,0,1-1.32-1.63V243h7.8a1.86,1.86,0,0,1,1.37.37,2.38,2.38,0,0,1,.53,1.26l.42,3.27a11.91,11.91,0,0,1,3.37-3.95,7.23,7.23,0,0,1,4.37-1.42A5.59,5.59,0,0,1,387.11,243.37Z"/><path d="M407.56,243.53a11.47,11.47,0,0,1,4.21,2.74,12.07,12.07,0,0,1,2.64,4.37,18,18,0,0,1,0,11.54,12.33,12.33,0,0,1-2.64,4.43,11.58,11.58,0,0,1-4.21,2.79,15.19,15.19,0,0,1-5.48,1,15.46,15.46,0,0,1-5.53-1,11.54,11.54,0,0,1-4.22-2.79,12.53,12.53,0,0,1-2.74-4.43,18,18,0,0,1,0-11.54,12.27,12.27,0,0,1,2.74-4.37,11.42,11.42,0,0,1,4.22-2.74,15.46,15.46,0,0,1,5.53-1A15.19,15.19,0,0,1,407.56,243.53ZM407,263.08a14.34,14.34,0,0,0,0-13.28,5.58,5.58,0,0,0-4.95-2.32A5.85,5.85,0,0,0,397,249.8a11.37,11.37,0,0,0-1.69,6.69,11,11,0,0,0,1.69,6.59,5.83,5.83,0,0,0,5.06,2.26A5.57,5.57,0,0,0,407,263.08Z"/><path d="M448.76,266.87V270H438.28V252.8a6,6,0,0,0-1.16-3.84,4.22,4.22,0,0,0-3.43-1.37,6.67,6.67,0,0,0-3.16.79,11.06,11.06,0,0,0-2.79,2.05v14.33l1.53.27a5.31,5.31,0,0,1,.79.15.81.81,0,0,0,.31.06,1.51,1.51,0,0,1,1.32,1.63V270H417.25v-3.11a1.51,1.51,0,0,1,1.32-1.63,1.64,1.64,0,0,1,.32-.06,5,5,0,0,1,.79-.15l1.53-.27V248.17l-1.53-.27c-.37-.05-.64-.16-.79-.16a1,1,0,0,0-.32-.05,1.52,1.52,0,0,1-1.32-1.63V243h8a1.59,1.59,0,0,1,1.63,1.21l.48,2.11a11.66,11.66,0,0,1,1.68-1.53,9.57,9.57,0,0,1,1.95-1.16,10.09,10.09,0,0,1,2.16-.79,12.75,12.75,0,0,1,2.53-.26,9.38,9.38,0,0,1,3.95.74,7.6,7.6,0,0,1,2.85,2.1,10.2,10.2,0,0,1,1.74,3.27,13,13,0,0,1,.58,4.16v12l1.58.27c.37.05.63.15.79.15a1.49,1.49,0,0,1,.31.06A1.51,1.51,0,0,1,448.76,266.87Z"/><path d="M465.15,266.87V270H450.66v-3.11a1.51,1.51,0,0,1,1.32-1.63,1.49,1.49,0,0,1,.31-.06,5.31,5.31,0,0,1,.79-.15l1.58-.27V248.17l-1.58-.27c-.37-.05-.63-.16-.79-.16a1.75,1.75,0,0,1-.31-.05,1.51,1.51,0,0,1-1.32-1.63V243h10.48v21.81l1.58.27c.37.05.64.15.8.15a1.66,1.66,0,0,1,.31.06A1.51,1.51,0,0,1,465.15,266.87Zm-3.37-30.24a4.56,4.56,0,0,1-.9,1.31,3.87,3.87,0,0,1-1.32.9,4.31,4.31,0,0,1-3.26,0,3.66,3.66,0,0,1-1.27-.9,4.34,4.34,0,0,1-.89-1.31,3.88,3.88,0,0,1-.32-1.58,4.36,4.36,0,0,1,.32-1.64,3.8,3.8,0,0,1,.89-1.31,3.55,3.55,0,0,1,1.27-.85,3.78,3.78,0,0,1,3.26,0,3.75,3.75,0,0,1,1.32.85,4,4,0,0,1,.9,1.31,4.41,4.41,0,0,1,.37,1.64A3.9,3.9,0,0,1,461.78,236.63Z"/><path d="M492.55,266.82v3.11h-6.22a3,3,0,0,1-1.48-.27,1.69,1.69,0,0,1-.79-1.16l-.58-1.89a17,17,0,0,1-2,1.63,12,12,0,0,1-2.05,1.16,9.4,9.4,0,0,1-2.22.68,13.29,13.29,0,0,1-2.63.27,9.84,9.84,0,0,1-3.16-.48,6.53,6.53,0,0,1-2.48-1.37,6.68,6.68,0,0,1-1.63-2.31,8.26,8.26,0,0,1-.58-3.17,6.54,6.54,0,0,1,.79-3,7.27,7.27,0,0,1,2.69-2.69,17.53,17.53,0,0,1,5-2,31.94,31.94,0,0,1,7.74-.79v-1.58a6.26,6.26,0,0,0-1.15-4.06,4.07,4.07,0,0,0-3.32-1.32,7.66,7.66,0,0,0-2.64.37,12.64,12.64,0,0,0-1.84.85c-.53.31-1,.52-1.43.79a2.61,2.61,0,0,1-1.42.36,2.14,2.14,0,0,1-1.16-.31,3,3,0,0,1-.73-.84L468,246.69a16.12,16.12,0,0,1,11.23-4.32,10.89,10.89,0,0,1,4.26.79,9.27,9.27,0,0,1,3.11,2.16,9.76,9.76,0,0,1,2,3.32,13.38,13.38,0,0,1,.63,4.21v12l1.42.26.58.1A1.52,1.52,0,0,1,492.55,266.82Zm-14.39-8a14.45,14.45,0,0,0-3.11.95,3.88,3.88,0,0,0-1.63,1.26,3,3,0,0,0-.47,1.64,2.79,2.79,0,0,0,1,2.47,4.41,4.41,0,0,0,2.63.74,9.66,9.66,0,0,0,1.85-.16,5.1,5.1,0,0,0,1.63-.58,11.06,11.06,0,0,0,1.42-.89A13.65,13.65,0,0,0,482.9,263v-4.53A24.35,24.35,0,0,0,478.16,258.81Z"/><path d="M207.87,328.85v1.79h-8.6v-1.79a1,1,0,0,1,.71-.92l.7-.28-1.41-3.84H189.13l-1.41,3.84.71.28a1,1,0,0,1,.7.92v1.79h-8.59v-1.79a1,1,0,0,1,.7-.92l1.94-.81,8.59-21.94h4.86l8.63,21.94,1.94.81A.93.93,0,0,1,207.87,328.85Zm-9.79-8.38-2.93-7.93c-.31-.84-.63-1.86-1-3-.35,1.13-.63,2.15-.95,3l-2.89,7.89Z"/><path d="M223.39,312.86l-.56,3.27a.64.64,0,0,1-.21.43,1,1,0,0,1-.5.14,3.55,3.55,0,0,1-.7-.11,5.72,5.72,0,0,0-1.23-.14,3.71,3.71,0,0,0-2.33.74,6.21,6.21,0,0,0-1.62,2.22v7.75c1.52.28,1.48.28,1.76.31a1,1,0,0,1,.88,1.1v2.07h-9.65v-2.07a1,1,0,0,1,.88-1.1c.29,0,.25,0,1.77-.31v-11.1c-1.52-.28-1.48-.28-1.77-.31a1,1,0,0,1-.88-1.1v-2.07h5.22a1.26,1.26,0,0,1,.91.24,1.56,1.56,0,0,1,.35.85l.29,2.18a8,8,0,0,1,2.25-2.64,4.86,4.86,0,0,1,2.92-.95A3.76,3.76,0,0,1,223.39,312.86Z"/><path d="M238.07,329.38a9.8,9.8,0,0,1-1.76.91,11.75,11.75,0,0,1-1.86.46,12.75,12.75,0,0,1-1.94.14,7.84,7.84,0,0,1-3.14-.6,7.35,7.35,0,0,1-2.57-1.83,8.76,8.76,0,0,1-1.76-2.92,11.71,11.71,0,0,1-.63-4,11.24,11.24,0,0,1,.56-3.66,8.73,8.73,0,0,1,1.69-3,7.35,7.35,0,0,1,2.75-1.94,9.67,9.67,0,0,1,3.77-.7,16.82,16.82,0,0,1,5.7,1.3l0,5.56h-2a.77.77,0,0,1-.81-.67c0-.28-.14-1.12-.28-2.53a9.19,9.19,0,0,0-2.33-.35,4.44,4.44,0,0,0-2,.42,3.67,3.67,0,0,0-1.41,1.16,5.12,5.12,0,0,0-.88,1.9,10.36,10.36,0,0,0-.28,2.47,9.58,9.58,0,0,0,.31,2.57A6.06,6.06,0,0,0,230,326a4.16,4.16,0,0,0,1.41,1.16,4.5,4.5,0,0,0,1.87.39,4.43,4.43,0,0,0,1.69-.25,5,5,0,0,0,1.09-.56c.28-.21.56-.39.78-.56a1,1,0,0,1,.7-.25.89.89,0,0,1,.81.39l1.23,1.58A8.1,8.1,0,0,1,238.07,329.38Z"/><path d="M261.77,328.57v2.07h-7V319.16a3.79,3.79,0,0,0-.77-2.57,2.81,2.81,0,0,0-2.29-.91,4.48,4.48,0,0,0-2.11.52,7.71,7.71,0,0,0-1.87,1.38v9.58l1.06.17c.24,0,.42.11.52.11a.77.77,0,0,0,.22,0,1,1,0,0,1,.88,1.1v2.07h-9.69v-2.07a1,1,0,0,1,.88-1.1,1.69,1.69,0,0,1,.21,0c.11,0,.28-.07.53-.11l1.06-.17V308l-1.06-.17c-.25,0-.42-.11-.53-.11a1.69,1.69,0,0,1-.21,0,1,1,0,0,1-.88-1.1v-2.07h7v10.07a9.41,9.41,0,0,1,2.32-1.62,6.76,6.76,0,0,1,3-.63,6.66,6.66,0,0,1,2.6.49,5.1,5.1,0,0,1,1.91,1.41,6.87,6.87,0,0,1,1.16,2.18,9.85,9.85,0,0,1,.42,2.75v8l1,.17a3.31,3.31,0,0,1,.53.11.75.75,0,0,0,.21,0A1,1,0,0,1,261.77,328.57Z"/><path d="M272.72,328.57v2.07H263v-2.07a1,1,0,0,1,.88-1.1,1.64,1.64,0,0,1,.22,0,3.13,3.13,0,0,1,.52-.11l1.06-.17v-11.1l-1.06-.17c-.24,0-.42-.11-.52-.11a1.64,1.64,0,0,1-.22,0,1,1,0,0,1-.88-1.1v-2.07h7v14.58l1.06.17c.25,0,.42.11.53.11a1.69,1.69,0,0,1,.21,0A1,1,0,0,1,272.72,328.57Zm-2.25-20.22a3.34,3.34,0,0,1-.6.88,2.6,2.6,0,0,1-.88.6,3,3,0,0,1-1.1.21,2.9,2.9,0,0,1-1.09-.21,2.34,2.34,0,0,1-.84-.6,2.93,2.93,0,0,1-.6-.88,2.61,2.61,0,0,1-.21-1.06,2.9,2.9,0,0,1,.21-1.09,2.6,2.6,0,0,1,.6-.88,2.38,2.38,0,0,1,.84-.56,2.94,2.94,0,0,1,1.09-.25,3,3,0,0,1,1.1.25,2.65,2.65,0,0,1,.88.56,2.87,2.87,0,0,1,.84,2A2.62,2.62,0,0,1,270.47,308.35Z"/><path d="M294.41,314.65a1,1,0,0,1-.88,1.1c-.28,0-.18.07-1.65.31l-5.82,14.58h-3.94l-5.81-14.58c-1.52-.28-1.37-.28-1.66-.31a1,1,0,0,1-.88-1.1v-2.07h8.81v2.07a1,1,0,0,1-.88,1.1c-.21,0-.28,0-1,.17l2.57,7.12a16.87,16.87,0,0,1,.49,1.65c.15.53.29,1.09.39,1.62.11-.53.21-1.09.35-1.62s.32-1.09.53-1.65l2.61-7.08c-.88-.14-.95-.18-1.16-.21a1,1,0,0,1-.88-1.1v-2.07h8.8Z"/><path d="M307.3,312.82a6.94,6.94,0,0,1,2.46,1.62,7.27,7.27,0,0,1,1.62,2.57,9.58,9.58,0,0,1,.6,3.46,6.16,6.16,0,0,1-.07.84,1.45,1.45,0,0,1-.14.49.65.65,0,0,1-.32.29,1,1,0,0,1-.49.07H299.79a6.27,6.27,0,0,0,1.52,4.08,4.62,4.62,0,0,0,3.45,1.3,5.65,5.65,0,0,0,1.8-.24,7.58,7.58,0,0,0,1.33-.57c.39-.21.74-.35,1-.52a1.4,1.4,0,0,1,.81-.25,1.14,1.14,0,0,1,.49.11.84.84,0,0,1,.32.28l1.26,1.58a7.63,7.63,0,0,1-1.62,1.45,8.64,8.64,0,0,1-1.86.91,14.56,14.56,0,0,1-2,.46,13.43,13.43,0,0,1-2,.14,9.48,9.48,0,0,1-3.49-.6,8,8,0,0,1-2.82-1.87,8.6,8.6,0,0,1-1.9-3,11.73,11.73,0,0,1-.67-4.19,10.14,10.14,0,0,1,.6-3.46,8.42,8.42,0,0,1,1.73-2.85,7.85,7.85,0,0,1,2.71-1.9,9.26,9.26,0,0,1,3.66-.7A9.11,9.11,0,0,1,307.3,312.82Zm-6,3.67a5.38,5.38,0,0,0-1.37,3h8.17a5.74,5.74,0,0,0-.25-1.58,3.49,3.49,0,0,0-.7-1.3,3,3,0,0,0-1.2-.88,4.24,4.24,0,0,0-1.69-.36A4,4,0,0,0,301.27,316.49Z"/></svg>