<svg xmlns="http://www.w3.org/2000/svg" viewBox="0 0 350 92.72"><defs><style>.cls-1{fill:#ffc565;}</style></defs><title>Asset 8</title><g id="Layer_2" data-name="Layer 2"><g id="Artwork"><path d="M29.1,30.71v2.66H23a2.42,2.42,0,0,1-1.34-.32,2.76,2.76,0,0,1-.9-.9L13.94,21.72a2.48,2.48,0,0,0-.85-.81,2.78,2.78,0,0,0-1.35-.27H9.44v8.27l1.35.23c.32,0,.54.13.68.13a1.65,1.65,0,0,1,.27.05,1.29,1.29,0,0,1,1.12,1.39v2.66H0V30.71a1.29,1.29,0,0,1,1.12-1.39,1.65,1.65,0,0,1,.27-.05,4.56,4.56,0,0,1,.68-.13l1.35-.23V5.31L2.07,5.08C1.75,5,1.53,5,1.39,5a1.65,1.65,0,0,1-.27,0A1.29,1.29,0,0,1,0,3.51V.85H13a21.17,21.17,0,0,1,5.71.68,10.66,10.66,0,0,1,3.86,1.93,7.61,7.61,0,0,1,2.25,3,9.33,9.33,0,0,1,.72,3.78,10.31,10.31,0,0,1-.49,3.1A9.34,9.34,0,0,1,23.65,16,8.24,8.24,0,0,1,21.41,18a12.68,12.68,0,0,1-3.06,1.44,6.13,6.13,0,0,1,2,1.89l5.12,7.55,1.4.23c.36,0,.58.13.76.13a2.1,2.1,0,0,1,.36.05A1.29,1.29,0,0,1,29.1,30.71ZM18,14.7a4.86,4.86,0,0,0,1.21-1.79,6.08,6.08,0,0,0,.41-2.25A4.65,4.65,0,0,0,18,6.84c-1.08-.9-2.75-1.31-5-1.31H9.44V16.32h3.47a9.74,9.74,0,0,0,3-.45A5.54,5.54,0,0,0,18,14.7Z"/><path d="M45.69,10.61a8.77,8.77,0,0,1,3.15,2.07A9.17,9.17,0,0,1,50.9,16a12.17,12.17,0,0,1,.77,4.41,7.55,7.55,0,0,1-.09,1.08,1.91,1.91,0,0,1-.18.63.81.81,0,0,1-.41.36,1.33,1.33,0,0,1-.63.09H36.11A8,8,0,0,0,38,27.75a5.93,5.93,0,0,0,4.41,1.66,6.73,6.73,0,0,0,2.29-.32,9.58,9.58,0,0,0,1.71-.71c.5-.27.95-.45,1.31-.68a1.87,1.87,0,0,1,1-.31,1.42,1.42,0,0,1,.63.13,1,1,0,0,1,.4.36l1.62,2a10,10,0,0,1-2.07,1.85A10.72,10.72,0,0,1,47,32.92a16.84,16.84,0,0,1-2.56.58,15.66,15.66,0,0,1-2.52.18,12,12,0,0,1-4.45-.76,10.14,10.14,0,0,1-3.6-2.39,11,11,0,0,1-2.43-3.86,15.13,15.13,0,0,1-.85-5.35,13.05,13.05,0,0,1,.76-4.41,10.59,10.59,0,0,1,2.21-3.64A9.85,9.85,0,0,1,37,10.84a11.8,11.8,0,0,1,4.68-.9A11.54,11.54,0,0,1,45.69,10.61ZM38,15.29a6.88,6.88,0,0,0-1.76,3.87H46.68a7.37,7.37,0,0,0-.32-2,4.47,4.47,0,0,0-.9-1.66,3.81,3.81,0,0,0-1.53-1.13,5.6,5.6,0,0,0-2.15-.44A5.13,5.13,0,0,0,38,15.29Z"/><path d="M70.46,31.75a12.61,12.61,0,0,1-2.24,1.17,13.89,13.89,0,0,1-2.39.58,14.67,14.67,0,0,1-2.47.18,9.9,9.9,0,0,1-4-.76,9.49,9.49,0,0,1-3.29-2.34,11.18,11.18,0,0,1-2.24-3.73A14.92,14.92,0,0,1,53,21.77a14.05,14.05,0,0,1,.72-4.68,11.18,11.18,0,0,1,2.15-3.78,9.4,9.4,0,0,1,3.51-2.47,12.31,12.31,0,0,1,4.81-.9A21.66,21.66,0,0,1,71.5,11.6l0,7.11H68.89a1,1,0,0,1-1-.86c0-.36-.18-1.44-.36-3.24a12.08,12.08,0,0,0-3-.44A5.62,5.62,0,0,0,62,14.7a4.7,4.7,0,0,0-1.8,1.49A6.66,6.66,0,0,0,59,18.62a13.71,13.71,0,0,0-.36,3.15,12.16,12.16,0,0,0,.41,3.28,7.78,7.78,0,0,0,1.12,2.43A5.26,5.26,0,0,0,62,29a6.71,6.71,0,0,0,4.54.18,7,7,0,0,0,1.4-.72c.36-.27.72-.49,1-.72a1.29,1.29,0,0,1,.89-.31,1.13,1.13,0,0,1,1,.49l1.57,2A11.05,11.05,0,0,1,70.46,31.75Z"/><path d="M89.8,10.79a9.89,9.89,0,0,1,3.6,2.34,10.43,10.43,0,0,1,2.25,3.73,14.25,14.25,0,0,1,.81,4.91,14.22,14.22,0,0,1-.81,4.94,10.57,10.57,0,0,1-2.25,3.78,10,10,0,0,1-3.6,2.38,12.91,12.91,0,0,1-4.68.81,13.17,13.17,0,0,1-4.72-.81,10,10,0,0,1-3.6-2.38,10.72,10.72,0,0,1-2.33-3.78,14.22,14.22,0,0,1-.81-4.94,14.25,14.25,0,0,1,.81-4.91,10.6,10.6,0,0,1,2.33-3.73,9.89,9.89,0,0,1,3.6-2.34,13.17,13.17,0,0,1,4.72-.85A12.91,12.91,0,0,1,89.8,10.79Zm-.45,16.69a10,10,0,0,0,1.39-5.67,10,10,0,0,0-1.39-5.67,4.77,4.77,0,0,0-4.23-2,5,5,0,0,0-4.31,2,9.7,9.7,0,0,0-1.44,5.71,9.41,9.41,0,0,0,1.44,5.63,5,5,0,0,0,4.31,1.93A4.75,4.75,0,0,0,89.35,27.48Z"/><path d="M124.65,30.71v2.66h-6.79a1.35,1.35,0,0,1-1.39-1l-.41-1.84c-.49.49-1,.94-1.48,1.35a7.9,7.9,0,0,1-1.62,1,12,12,0,0,1-1.89.67,10.18,10.18,0,0,1-2.11.23,9,9,0,0,1-3.38-.63,7.09,7.09,0,0,1-2.43-1.85,7.68,7.68,0,0,1-1.48-2.74,12.74,12.74,0,0,1-.49-3.55V14.75c-1.94-.36-1.94-.36-2.3-.41A1.28,1.28,0,0,1,97.76,13V10.3h8.95V25a5.09,5.09,0,0,0,1,3.28,3.59,3.59,0,0,0,2.92,1.12,6.22,6.22,0,0,0,2.7-.63A8.33,8.33,0,0,0,115.7,27V14.75c-1.89-.32-1.89-.36-2.25-.41A1.28,1.28,0,0,1,112.33,13V10.3h9V28.91c1.93.36,1.89.36,2.25.41A1.29,1.29,0,0,1,124.65,30.71Z"/><path d="M153.29,30.71v2.66h-8.95V18.71a5.12,5.12,0,0,0-1-3.29,3.62,3.62,0,0,0-2.93-1.16,5.74,5.74,0,0,0-2.7.67,9.84,9.84,0,0,0-2.38,1.75V28.91l1.31.23a4.64,4.64,0,0,1,.67.13.69.69,0,0,0,.27.05,1.29,1.29,0,0,1,1.12,1.39v2.66H126.4V30.71a1.55,1.55,0,0,1,1.4-1.44,4.36,4.36,0,0,1,.67-.13l1.3-.23V14.75l-1.3-.23c-.31,0-.54-.13-.67-.13a.75.75,0,0,0-.27-.05A1.28,1.28,0,0,1,126.4,13V10.3h6.79a1.37,1.37,0,0,1,1.4,1l.4,1.8a9.89,9.89,0,0,1,1.44-1.3,7.75,7.75,0,0,1,1.66-1,8.49,8.49,0,0,1,1.85-.68,11.28,11.28,0,0,1,2.16-.22,8,8,0,0,1,3.37.63,6.42,6.42,0,0,1,2.43,1.8,8.67,8.67,0,0,1,1.48,2.78,11.15,11.15,0,0,1,.5,3.56v10.2l1.35.23c.31,0,.53.13.67.13a1.65,1.65,0,0,1,.27.05A1.29,1.29,0,0,1,153.29,30.71Z"/><path d="M159.72,32a6.51,6.51,0,0,1-1.62-4.68V14.48h-2.33a1.24,1.24,0,0,1-.77-.31,1,1,0,0,1-.36-.86V11.06l3.73-.58,1.17-6.3a1,1,0,0,1,.41-.67,1.37,1.37,0,0,1,.85-.27h2.88v7.28h6.07v4h-6.07V27a2.41,2.41,0,0,0,.54,1.67,1.84,1.84,0,0,0,1.44.58,2.33,2.33,0,0,0,.85-.09l.59-.27a4.31,4.31,0,0,0,.49-.27.55.55,0,0,1,.36-.09.67.67,0,0,1,.45.09,3.37,3.37,0,0,1,.32.36l1.66,2.7a8.9,8.9,0,0,1-2.79,1.53,9.75,9.75,0,0,1-3.24.54A6.2,6.2,0,0,1,159.72,32Z"/><path d="M184.09,30.71v2.66H171.73V30.71a1.29,1.29,0,0,1,1.12-1.39,1.65,1.65,0,0,1,.27-.05,4.56,4.56,0,0,1,.68-.13l1.35-.23V14.75l-1.35-.23c-.32,0-.54-.13-.68-.13a1.65,1.65,0,0,1-.27-.05A1.28,1.28,0,0,1,171.73,13V10.3h9V28.91l1.35.23c.31,0,.54.13.67.13a1.54,1.54,0,0,1,1.39,1.44ZM181.22,4.9A3.78,3.78,0,0,1,180.45,6a3.31,3.31,0,0,1-1.12.76,3.74,3.74,0,0,1-2.79,0A3.24,3.24,0,0,1,175.46,6a3.94,3.94,0,0,1-.76-1.13,3.25,3.25,0,0,1-.27-1.35,3.66,3.66,0,0,1,.27-1.39A3.46,3.46,0,0,1,175.46,1a3.15,3.15,0,0,1,1.08-.72,3.29,3.29,0,0,1,2.79,0,3.23,3.23,0,0,1,1.12.72,3.33,3.33,0,0,1,.77,1.13,3.7,3.7,0,0,1,.31,1.39A3.27,3.27,0,0,1,181.22,4.9Z"/><path d="M212.65,30.71v2.66h-9V18.71a5.12,5.12,0,0,0-1-3.29,3.61,3.61,0,0,0-2.92-1.16,5.68,5.68,0,0,0-2.7.67,9.65,9.65,0,0,0-2.38,1.75V28.91l1.3.23a4.56,4.56,0,0,1,.68.13.69.69,0,0,0,.27.05,1.29,1.29,0,0,1,1.12,1.39v2.66H185.76V30.71a1.29,1.29,0,0,1,1.12-1.39,1.65,1.65,0,0,1,.27-.05,4.56,4.56,0,0,1,.68-.13l1.3-.23V14.75l-1.3-.23c-.32,0-.54-.13-.68-.13a.69.69,0,0,0-.27-.05A1.28,1.28,0,0,1,185.76,13V10.3h6.79a1.35,1.35,0,0,1,1.39,1l.41,1.8a9.89,9.89,0,0,1,1.44-1.3,7.52,7.52,0,0,1,1.66-1,8.4,8.4,0,0,1,1.84-.68,11.45,11.45,0,0,1,2.16-.22,8,8,0,0,1,3.37.63,6.34,6.34,0,0,1,2.43,1.8,8.69,8.69,0,0,1,1.49,2.78,11.15,11.15,0,0,1,.49,3.56v10.2l1.35.23c.32,0,.54.13.68.13a1.65,1.65,0,0,1,.27.05A1.29,1.29,0,0,1,212.65,30.71Z"/><path d="M227,10.21a8.26,8.26,0,0,1,2.39.9H236v2.07a1.1,1.1,0,0,1-.27.81,1.68,1.68,0,0,1-.9.4l-2.07.36a11.05,11.05,0,0,1,.31,1.26,6.5,6.5,0,0,1,.14,1.35,7,7,0,0,1-.68,3.1,6.76,6.76,0,0,1-1.88,2.34,9.67,9.67,0,0,1-2.88,1.48,11.13,11.13,0,0,1-3.56.54,12.07,12.07,0,0,1-2.56-.22c-.72.45-1.08.9-1.08,1.44a1.06,1.06,0,0,0,.63,1,5.1,5.1,0,0,0,1.71.45,18.34,18.34,0,0,0,2.38.18c.9.05,1.76.05,2.7.14a26.76,26.76,0,0,1,2.75.4,7.59,7.59,0,0,1,2.33.9,4.5,4.5,0,0,1,1.71,1.62,5,5,0,0,1,.63,2.7,6.36,6.36,0,0,1-.76,3A8.38,8.38,0,0,1,232.48,39a10.84,10.84,0,0,1-3.51,1.8,15.33,15.33,0,0,1-4.72.67,17.55,17.55,0,0,1-4.59-.49,11.72,11.72,0,0,1-3.19-1.35,5.62,5.62,0,0,1-1.89-1.94,4.67,4.67,0,0,1-.63-2.29,3.9,3.9,0,0,1,1-2.74,7.26,7.26,0,0,1,2.74-1.71,3.68,3.68,0,0,1-1.34-1.26,3.62,3.62,0,0,1-.54-2.07,2.92,2.92,0,0,1,.18-1.08,3.9,3.9,0,0,1,.54-1.08,6.49,6.49,0,0,1,.94-1,7.28,7.28,0,0,1,1.35-.86A7.62,7.62,0,0,1,216,21.05a6.73,6.73,0,0,1-1-3.69,6.61,6.61,0,0,1,2.61-5.44,9.12,9.12,0,0,1,2.88-1.49,12.13,12.13,0,0,1,3.68-.54A13.52,13.52,0,0,1,227,10.21Zm2.88,23.11a3.16,3.16,0,0,0-1.08-.67,7.61,7.61,0,0,0-1.66-.36c-.63-.09-1.26-.14-2-.18s-1.44,0-2.16-.09-1.44-.09-2.11-.18a5.35,5.35,0,0,0-1.53,1.21,2.55,2.55,0,0,0-.59,1.62,2.5,2.5,0,0,0,.32,1.13,2.35,2.35,0,0,0,.94.94,5.27,5.27,0,0,0,1.76.58,13.11,13.11,0,0,0,2.56.23,12,12,0,0,0,2.7-.27,7.28,7.28,0,0,0,1.84-.63,2.83,2.83,0,0,0,1.08-1,2.34,2.34,0,0,0,.32-1.26A1.46,1.46,0,0,0,229.87,33.32ZM226,21a3.48,3.48,0,0,0,1.26-.76A3.17,3.17,0,0,0,228,19a4.2,4.2,0,0,0,.27-1.53,3.66,3.66,0,0,0-1-2.7,4.19,4.19,0,0,0-3.06-1,4.32,4.32,0,0,0-3.1,1,3.67,3.67,0,0,0-1,2.7,4.2,4.2,0,0,0,.23,1.53,3.28,3.28,0,0,0,.76,1.17,3.24,3.24,0,0,0,1.31.81,5.56,5.56,0,0,0,1.79.27A5.37,5.37,0,0,0,226,21Z"/><path d="M32.83,63.94c-.14,0-.36.09-.68.13l-1.3.23V87.91l1.3.22c.32.05.54.14.68.14a2,2,0,0,1,.27,0,1.29,1.29,0,0,1,1.12,1.4v2.65H21.36V89.71a1.29,1.29,0,0,1,1.12-1.4.85.85,0,0,0,.27,0,4.27,4.27,0,0,1,.68-.14l1.3-.22V78.15H9.49v9.76l1.35.22c.31.05.54.14.67.14a.92.92,0,0,0,.27,0,1.29,1.29,0,0,1,1.13,1.4v2.65H0V89.71a1.29,1.29,0,0,1,1.12-1.4,2,2,0,0,1,.27,0c.14,0,.36-.09.68-.14l1.35-.22V64.3l-1.35-.23c-.32,0-.54-.13-.68-.13a.69.69,0,0,0-.27,0A1.29,1.29,0,0,1,0,62.5V59.85H12.91V62.5a1.29,1.29,0,0,1-1.13,1.39.75.75,0,0,0-.27,0c-.13,0-.36.09-.67.13l-1.35.23v9.53H24.73V64.3l-1.3-.23a4.56,4.56,0,0,1-.68-.13,1.65,1.65,0,0,1-.27,0,1.29,1.29,0,0,1-1.12-1.39V59.85H34.22V62.5a1.29,1.29,0,0,1-1.12,1.39A1.65,1.65,0,0,1,32.83,63.94Z"/><path d="M62.6,89.71v2.65H55.81a1.37,1.37,0,0,1-1.4-1L54,89.48c-.5.49-1,.94-1.49,1.35a7.4,7.4,0,0,1-1.62,1,11.35,11.35,0,0,1-1.89.67,10,10,0,0,1-2.11.23,8.92,8.92,0,0,1-3.37-.63,6.9,6.9,0,0,1-2.43-1.85,7.68,7.68,0,0,1-1.48-2.74,12.38,12.38,0,0,1-.5-3.55V73.74c-1.93-.36-1.93-.36-2.29-.4a1.29,1.29,0,0,1-1.13-1.4V69.29h8.95V84a5.09,5.09,0,0,0,1,3.28,3.56,3.56,0,0,0,2.92,1.13,6.29,6.29,0,0,0,2.7-.63A8.61,8.61,0,0,0,53.65,86V73.74c-1.89-.31-1.89-.36-2.25-.4a1.29,1.29,0,0,1-1.13-1.4V69.29h8.95V87.91c1.94.36,1.89.36,2.25.4A1.29,1.29,0,0,1,62.6,89.71Z"/><path d="M82.43,69.65l-.72,4.18a.81.81,0,0,1-.27.54,1.18,1.18,0,0,1-.63.18,4.17,4.17,0,0,1-.9-.13,7.32,7.32,0,0,0-1.58-.18,4.64,4.64,0,0,0-3,.94A7.82,7.82,0,0,0,73.3,78v9.9c1.93.36,1.89.36,2.25.4a1.29,1.29,0,0,1,1.12,1.4v2.65H64.35V89.71a1.29,1.29,0,0,1,1.12-1.4c.36,0,.32,0,2.25-.4V73.74c-1.93-.36-1.89-.36-2.25-.4a1.29,1.29,0,0,1-1.12-1.4V69.29H71a1.59,1.59,0,0,1,1.17.31,2,2,0,0,1,.45,1.08L73,73.47a10.26,10.26,0,0,1,2.88-3.37,6.17,6.17,0,0,1,3.73-1.22A4.79,4.79,0,0,1,82.43,69.65Z"/><path d="M99.87,69.78a9.81,9.81,0,0,1,3.6,2.34,10.43,10.43,0,0,1,2.25,3.73,15.38,15.38,0,0,1,0,9.85,10.48,10.48,0,0,1-2.25,3.78,9.9,9.9,0,0,1-3.6,2.38,12.9,12.9,0,0,1-4.67.81,13.23,13.23,0,0,1-4.73-.81,9.94,9.94,0,0,1-3.59-2.38,10.66,10.66,0,0,1-2.34-3.78,15.38,15.38,0,0,1,0-9.85,10.62,10.62,0,0,1,2.34-3.73,9.85,9.85,0,0,1,3.59-2.34,13.23,13.23,0,0,1,4.73-.85A12.9,12.9,0,0,1,99.87,69.78Zm-.45,16.69a10,10,0,0,0,1.4-5.67,9.9,9.9,0,0,0-1.4-5.66,4.75,4.75,0,0,0-4.22-2,5,5,0,0,0-4.32,2,9.66,9.66,0,0,0-1.44,5.71,9.4,9.4,0,0,0,1.44,5.62A5,5,0,0,0,95.2,88.4,4.74,4.74,0,0,0,99.42,86.47Z"/><path d="M135,89.71v2.65h-8.95V77.7a5.07,5.07,0,0,0-1-3.28,3.58,3.58,0,0,0-2.92-1.17,5.68,5.68,0,0,0-2.7.67,9.69,9.69,0,0,0-2.39,1.75V87.91l1.31.22a4.09,4.09,0,0,1,.67.14.92.92,0,0,0,.27,0,1.29,1.29,0,0,1,1.13,1.4v2.65H108.15V89.71a1.29,1.29,0,0,1,1.12-1.4,1.57,1.57,0,0,1,.27,0,4.09,4.09,0,0,1,.67-.14l1.31-.22V73.74l-1.31-.22c-.31,0-.54-.14-.67-.14a.92.92,0,0,0-.27,0,1.29,1.29,0,0,1-1.12-1.4V69.29h6.79a1.36,1.36,0,0,1,1.39,1l.4,1.8a9.89,9.89,0,0,1,1.44-1.3,7.58,7.58,0,0,1,1.67-1,8.4,8.4,0,0,1,1.84-.68,11.37,11.37,0,0,1,2.16-.22,8,8,0,0,1,3.37.63,6.34,6.34,0,0,1,2.43,1.8,8.62,8.62,0,0,1,1.48,2.79,11.08,11.08,0,0,1,.5,3.55V87.91l1.35.22c.31.05.54.14.67.14a1.57,1.57,0,0,1,.27,0A1.29,1.29,0,0,1,135,89.71Z"/><path d="M149,89.71v2.65H136.65V89.71a1.29,1.29,0,0,1,1.13-1.4,1.57,1.57,0,0,1,.27,0,4.09,4.09,0,0,1,.67-.14l1.35-.22V73.74l-1.35-.22c-.31,0-.54-.14-.67-.14a1.57,1.57,0,0,1-.27,0,1.29,1.29,0,0,1-1.13-1.4V69.29h8.95V87.91l1.35.22c.32.05.54.14.68.14a2,2,0,0,1,.27,0A1.29,1.29,0,0,1,149,89.71Z"/><path d="M172.4,89.66v2.65h-5.3a2.52,2.52,0,0,1-1.26-.22,1.44,1.44,0,0,1-.68-1l-.49-1.62A15.82,15.82,0,0,1,163,90.87a9.54,9.54,0,0,1-1.75,1,8.86,8.86,0,0,1-1.89.59,12,12,0,0,1-2.25.22,8.51,8.51,0,0,1-2.7-.4,5.64,5.64,0,0,1-2.11-1.17,5.71,5.71,0,0,1-1.4-2,7.11,7.11,0,0,1-.49-2.7,5.66,5.66,0,0,1,.67-2.61,6.29,6.29,0,0,1,2.3-2.29,15.14,15.14,0,0,1,4.22-1.71,27.52,27.52,0,0,1,6.61-.67V77.79a5.27,5.27,0,0,0-1-3.46,3.41,3.41,0,0,0-2.83-1.13,6.34,6.34,0,0,0-2.25.32,10,10,0,0,0-1.57.72c-.45.27-.85.45-1.21.67a2.21,2.21,0,0,1-1.22.32,1.81,1.81,0,0,1-1-.27,2.43,2.43,0,0,1-.63-.72l-1-1.76A13.71,13.71,0,0,1,161,68.79a9.37,9.37,0,0,1,3.64.68,8.12,8.12,0,0,1,2.65,1.84A8.27,8.27,0,0,1,169,74.15a11.36,11.36,0,0,1,.54,3.59V88l1.21.23.5.09A1.29,1.29,0,0,1,172.4,89.66Zm-12.27-6.84a13.26,13.26,0,0,0-2.66.81,3.36,3.36,0,0,0-1.39,1.08,2.54,2.54,0,0,0-.4,1.4,2.37,2.37,0,0,0,.85,2.11,3.75,3.75,0,0,0,2.25.63,8.52,8.52,0,0,0,1.57-.13,4.57,4.57,0,0,0,1.4-.5,8.94,8.94,0,0,0,1.21-.76,14.69,14.69,0,0,0,1.21-1.08V82.51A20.92,20.92,0,0,0,160.13,82.82Z"/><path d="M217,90.06v2.3h-11v-2.3a1.27,1.27,0,0,1,.9-1.16l.9-.36-1.8-4.91H193.11l-1.8,4.91.9.36a1.27,1.27,0,0,1,.9,1.16v2.3h-11v-2.3a1.26,1.26,0,0,1,.9-1.16l2.47-1,11-28h6.21l11,28,2.47,1A1.18,1.18,0,0,1,217,90.06Zm-12.5-10.7L200.8,69.24c-.41-1.08-.81-2.38-1.21-3.82-.45,1.44-.81,2.74-1.22,3.87l-3.69,10.07Z"/><path d="M236.86,69.65l-.72,4.18a.73.73,0,0,1-.27.54,1.15,1.15,0,0,1-.63.18,4.34,4.34,0,0,1-.9-.13,7.15,7.15,0,0,0-1.57-.18,4.69,4.69,0,0,0-3,.94A7.94,7.94,0,0,0,227.73,78v9.9c1.94.36,1.89.36,2.25.4a1.29,1.29,0,0,1,1.13,1.4v2.65H218.79V89.71a1.29,1.29,0,0,1,1.12-1.4c.36,0,.31,0,2.25-.4V73.74c-1.94-.36-1.89-.36-2.25-.4a1.29,1.29,0,0,1-1.12-1.4V69.29h6.65a1.59,1.59,0,0,1,1.17.31,2,2,0,0,1,.45,1.08l.36,2.79a10.14,10.14,0,0,1,2.88-3.37A6.17,6.17,0,0,1,234,68.88,4.76,4.76,0,0,1,236.86,69.65Z"/><path d="M255.61,90.74a12.61,12.61,0,0,1-2.24,1.17,13.89,13.89,0,0,1-2.39.58,14.67,14.67,0,0,1-2.47.18,9.9,9.9,0,0,1-4-.76,9.49,9.49,0,0,1-3.29-2.34A10.92,10.92,0,0,1,239,85.84a14.92,14.92,0,0,1-.81-5.08,14.05,14.05,0,0,1,.72-4.68A11.18,11.18,0,0,1,241,72.3a9.4,9.4,0,0,1,3.51-2.47,12.31,12.31,0,0,1,4.81-.9,21.66,21.66,0,0,1,7.29,1.66l0,7.11H254a1,1,0,0,1-1-.86c0-.36-.18-1.43-.36-3.23a11.69,11.69,0,0,0-3-.45,5.7,5.7,0,0,0-2.57.54,4.74,4.74,0,0,0-1.79,1.48,6.66,6.66,0,0,0-1.13,2.43,13.71,13.71,0,0,0-.36,3.15,12.16,12.16,0,0,0,.41,3.28,7.78,7.78,0,0,0,1.12,2.43,5.26,5.26,0,0,0,1.8,1.48,6.55,6.55,0,0,0,4.54.18,6.51,6.51,0,0,0,1.4-.72c.36-.27.71-.49,1-.72a1.32,1.32,0,0,1,.9-.31,1.13,1.13,0,0,1,1,.49l1.57,2A11,11,0,0,1,255.61,90.74Z"/><path d="M285.88,89.71v2.65h-8.95V77.7a4.85,4.85,0,0,0-1-3.28A3.58,3.58,0,0,0,273,73.25a5.68,5.68,0,0,0-2.7.67,9.69,9.69,0,0,0-2.39,1.75V87.91l1.35.22c.32.05.54.14.68.14a.85.85,0,0,0,.27,0,1.29,1.29,0,0,1,1.12,1.4v2.65H259V89.71a1.29,1.29,0,0,1,1.12-1.4,1.57,1.57,0,0,1,.27,0c.13,0,.36-.09.67-.14l1.35-.22V63.4l-1.35-.23c-.31,0-.54-.13-.67-.13A1.54,1.54,0,0,1,259,61.6V59h8.94V71.81a12,12,0,0,1,3-2.07,9.27,9.27,0,0,1,7.15-.18,6.34,6.34,0,0,1,2.43,1.8A8.43,8.43,0,0,1,282,74.15a12,12,0,0,1,.54,3.5V87.91l1.31.22a4.09,4.09,0,0,1,.67.14.92.92,0,0,0,.27,0A1.29,1.29,0,0,1,285.88,89.71Z"/><path d="M299.86,89.71v2.65H287.49V89.71a1.29,1.29,0,0,1,1.13-1.4,1.57,1.57,0,0,1,.27,0,4.09,4.09,0,0,1,.67-.14l1.35-.22V73.74l-1.35-.22c-.31,0-.54-.14-.67-.14a1.57,1.57,0,0,1-.27,0,1.29,1.29,0,0,1-1.13-1.4V69.29h8.95V87.91l1.35.22c.32.05.54.14.68.14a2,2,0,0,1,.27,0A1.29,1.29,0,0,1,299.86,89.71ZM297,63.89a3.94,3.94,0,0,1-.76,1.13,3.46,3.46,0,0,1-1.13.76,3.59,3.59,0,0,1-1.39.27,3.66,3.66,0,0,1-1.39-.27,3.14,3.14,0,0,1-1.08-.76,3.78,3.78,0,0,1-.77-1.13,3.25,3.25,0,0,1-.27-1.35,3.66,3.66,0,0,1,.27-1.39,3.2,3.2,0,0,1,.77-1.12,2.93,2.93,0,0,1,1.08-.72A3.71,3.71,0,0,1,293.7,59a3.63,3.63,0,0,1,1.39.32,3.22,3.22,0,0,1,1.13.72,3.31,3.31,0,0,1,.76,1.12,3.71,3.71,0,0,1,.32,1.39A3.27,3.27,0,0,1,297,63.89Z"/><path d="M327.56,71.94a1.29,1.29,0,0,1-1.12,1.4c-.36,0-.23.09-2.12.4L316.9,92.36h-5l-7.42-18.62c-1.94-.36-1.76-.36-2.12-.4a1.29,1.29,0,0,1-1.12-1.4V69.29h11.24v2.65a1.29,1.29,0,0,1-1.12,1.4c-.27,0-.36,0-1.26.22l3.28,9.08a21.78,21.78,0,0,1,.63,2.12c.18.67.36,1.39.5,2.07.13-.68.27-1.4.45-2.07s.4-1.4.67-2.12l3.33-9c-1.13-.18-1.22-.23-1.49-.27a1.29,1.29,0,0,1-1.12-1.4V69.29h11.24Z"/><path d="M344,69.6a8.77,8.77,0,0,1,3.15,2.07A9.14,9.14,0,0,1,349.24,75a12.29,12.29,0,0,1,.76,4.4,6.33,6.33,0,0,1-.09,1.08,1.64,1.64,0,0,1-.18.63.78.78,0,0,1-.4.36,1.33,1.33,0,0,1-.63.09H334.44a8,8,0,0,0,1.93,5.22,5.93,5.93,0,0,0,4.41,1.66,7,7,0,0,0,2.29-.31,10.35,10.35,0,0,0,1.71-.72c.5-.27,1-.45,1.31-.68a1.87,1.87,0,0,1,1-.31,1.42,1.42,0,0,1,.63.13,1.07,1.07,0,0,1,.41.36l1.62,2a10.24,10.24,0,0,1-2.07,1.84,11,11,0,0,1-2.39,1.17,16.84,16.84,0,0,1-2.56.58,15.58,15.58,0,0,1-2.52.18,12,12,0,0,1-4.45-.76,10.43,10.43,0,0,1-3.6-2.38,11.1,11.1,0,0,1-2.43-3.87,15.13,15.13,0,0,1-.85-5.35,13.05,13.05,0,0,1,.76-4.41,10.68,10.68,0,0,1,2.21-3.64,9.85,9.85,0,0,1,3.46-2.43,11.8,11.8,0,0,1,4.68-.9A11.5,11.5,0,0,1,344,69.6Zm-7.69,4.68a6.87,6.87,0,0,0-1.75,3.87H345a7.37,7.37,0,0,0-.32-2,4.55,4.55,0,0,0-.9-1.66,3.92,3.92,0,0,0-1.52-1.12,5.44,5.44,0,0,0-2.16-.45A5.13,5.13,0,0,0,336.33,74.28Z"/><path class="cls-1" d="M141.9,66a1.27,1.27,0,0,0-.26-1.14,5,5,0,0,0-.89-.82,9.83,9.83,0,0,1-2.92-3.72,7.44,7.44,0,0,1-.48-4.67c.69-2.85,3.16-4.9,4.43-7.55a4.38,4.38,0,0,0,.49-2.91c0,.06.21.17.26.22l.29.26c.19.18.37.36.54.55a10.11,10.11,0,0,1,.9,1.17,7.75,7.75,0,0,1,1.06,2.75,6.58,6.58,0,0,1,0,2.54,16.77,16.77,0,0,1-1.78,3.91,6.8,6.8,0,0,0-1,4.11,5.26,5.26,0,0,1-1-3.64c.23-1.53,1.39-2.87,1.32-4.41-1.39,1.36-2.84,2.86-3.16,4.78A7.74,7.74,0,0,0,141.34,63a5.88,5.88,0,0,1,.84,1.48A1.63,1.63,0,0,1,141.9,66Z"/></g></g></svg>