<?xml version="1.0" standalone="no"?>
<!DOCTYPE svg PUBLIC "-//W3C//DTD SVG 1.1//EN" "http://www.w3.org/Graphics/SVG/1.1/DTD/svg11.dtd" >
<svg>
<metadata>
Created by FontForge 20090622 at Tue Jul  2 17:23:58 2019
 By deploy user
Copyright &#194;&#169; 1995, 2002 Adobe Systems Incorporated.  All Rights Reserved.
</metadata>
<defs>
<font id="ITCFranklinGothicStd-MedIt" horiz-adv-x="587" >
  <font-face 
    font-family="ITC Franklin Gothic Std Med"
    font-weight="500"
    font-style="italic"
    font-stretch="normal"
    units-per-em="1000"
    panose-1="2 11 7 4 3 5 3 9 2 4"
    ascent="686"
    descent="-314"
    x-height="497"
    cap-height="667"
    bbox="-210 -250 1047 891"
    underline-thickness="50"
    underline-position="-50"
    slope="-9.5"
    unicode-range="U+0020-U+FB02"
  />
<missing-glyph horiz-adv-x="573" 
d="M73 0v700h500v-700h-500zM323 395l170 255h-340zM353 350l170 -255v510zM153 50h340l-170 255zM123 605v-510l170 255z" />
    <glyph glyph-name="f_i" unicode="fi" horiz-adv-x="539" 
d="M514 497l-83 -497h-114l83 497h114zM543 670l-20 -119h-114l20 119h114zM225 408l-66 -408h-118l68 408h-62l14 89h67q24 81 36 104q49 90 170 90q36 0 59 -4l-15 -92q-16 3 -38 3q-50 0 -74 -34q-7 -9 -22 -67h105l-16 -89h-108z" />
    <glyph glyph-name="f_l" unicode="fl" horiz-adv-x="539" 
d="M543 670l-112 -670h-115l112 670h115zM225 408l-66 -408h-118l68 408h-62l14 89h67q24 81 36 104q49 90 170 90q36 0 59 -4l-15 -92q-16 3 -38 3q-50 0 -74 -34q-7 -9 -22 -67h105l-16 -89h-108z" />
    <glyph glyph-name=".notdef" horiz-adv-x="573" 
d="M73 0v700h500v-700h-500zM323 395l170 255h-340zM353 350l170 -255v510zM153 50h340l-170 255zM123 605v-510l170 255z" />
    <glyph glyph-name=".null" horiz-adv-x="0" 
 />
    <glyph glyph-name="nonmarkingreturn" horiz-adv-x="333" 
 />
    <glyph glyph-name="space" unicode=" " horiz-adv-x="290" 
 />
    <glyph glyph-name="exclam" unicode="!" horiz-adv-x="247" 
d="M142 0h-120l21 123h120zM135 185h-51l17 482h141z" />
    <glyph glyph-name="quotedbl" unicode="&#x22;" horiz-adv-x="369" 
d="M223 667l-60 -265h-74l28 265h106zM388 667l-61 -265h-73l28 265h106z" />
    <glyph glyph-name="numbersign" unicode="#" 
d="M579 485l-21 -94h-97l-23 -102h98l-21 -94h-98l-43 -195h-91l44 195h-97l-43 -195h-92l44 196h-100l20 93h102l23 102h-102l21 94h102l40 182h91l-41 -182h95l41 182h90l-40 -182h98zM347 289l22 102h-95l-22 -102h95z" />
    <glyph glyph-name="dollar" unicode="$" 
d="M395 730l-13 -80q119 -22 160 -130l-90 -33q-27 68 -84 79l-29 -172q53 -17 69.5 -23.5t34.5 -20.5q29 -21 51 -57.5t22 -83.5q0 -87 -64.5 -143t-152.5 -56q-16 0 -24 1l-15 -86h-65l16 94q-62 9 -110 50q-56 48 -75 115l92 33q23 -95 107 -113l33 197q-24 7 -38.5 12
t-41.5 20t-42.5 31.5t-28.5 45.5t-13 65q0 84 63.5 137.5t160.5 46.5l12 71h65zM320 283l-31 -188q56 -5 91 24t35 72q0 70 -95 92zM276 408l28 165q-56 1 -83 -25t-27 -59q0 -21 9.5 -37t25.5 -25t26 -13t21 -6z" />
    <glyph glyph-name="percent" unicode="%" horiz-adv-x="748" 
d="M542 -11q-60 0 -97.5 44t-37.5 117q0 86 48.5 149t116.5 63q61 0 98 -48.5t37 -116.5q0 -78 -46 -143t-119 -65zM547 58q23 0 39.5 19.5t23.5 48.5t10 50.5t3 36.5q0 80 -56 80q-33 0 -51 -33q-26 -51 -26 -121q0 -81 57 -81zM205 309q-58 0 -96 46.5t-38 116.5
q0 44 16 89.5t55.5 82t93.5 36.5q64 0 99.5 -47t35.5 -113q0 -46 -17 -92.5t-56.5 -82.5t-92.5 -36zM207 377q42 0 61 48q19 50 19 108q0 78 -54 78q-29 0 -48 -30.5t-24.5 -63.5t-5.5 -66q0 -41 16 -57.5t36 -16.5zM182 0h-74l487 667h73z" />
    <glyph glyph-name="ampersand" unicode="&#x26;" horiz-adv-x="693" 
d="M365 362l118 -167q28 33 43.5 53.5t39.5 65t38 92.5l92 -25q-53 -160 -159 -256q21 -31 41.5 -39t66.5 -7l-16 -96q-22 -2 -32 -2q-50 0 -76 14.5t-62 57.5q-83 -76 -202 -76q-107 0 -170.5 60t-63.5 147q0 42 14.5 76t33 54.5t50 39t49.5 25.5t47 17q-41 63 -41 125
t44 113.5t124 51.5q84 0 131 -45.5t47 -109.5q0 -32 -12 -59.5t-27 -43.5t-40.5 -31t-39.5 -21t-38 -14zM405 125l-139 198q-126 -45 -126 -136q0 -45 35 -79t89 -34q68 0 141 51zM323 431q2 1 26.5 12.5t29.5 14.5q44 29 44 69q0 29 -20.5 46.5t-50.5 17.5q-36 0 -53.5 -23
t-17.5 -48q0 -41 42 -89z" />
    <glyph glyph-name="quotesingle" unicode="'" horiz-adv-x="233" 
d="M241 667l-60 -265h-74l28 265h106z" />
    <glyph glyph-name="parenleft" unicode="(" horiz-adv-x="304" 
d="M200 -174h-62q-103 180 -103 357q0 160 92 313q61 100 138 171h75q-82 -94 -130 -189q-85 -171 -85 -334q0 -161 75 -318z" />
    <glyph glyph-name="parenright" unicode=")" horiz-adv-x="305" 
d="M104 667h62q103 -185 103 -358q0 -159 -92 -312q-62 -103 -139 -171h-75q81 92 130 189q86 169 86 332q0 159 -75 320z" />
    <glyph glyph-name="asterisk" unicode="*" horiz-adv-x="547" 
d="M304 671l78 -13l-35 -168l167 33l11 -78l-169 -18l82 -149l-70 -35l-69 155l-117 -124l-55 56l127 114l-155 72l37 71l147 -86z" />
    <glyph glyph-name="plus" unicode="+" 
d="M556 383l-1 -93h-200v-207h-93v207h-201l1 93h200v208h93v-208h201z" />
    <glyph glyph-name="comma" unicode="," horiz-adv-x="243" 
d="M36 -144h-42l83 144h-55l20 121h117l-19 -111z" />
    <glyph glyph-name="hyphen" unicode="-" horiz-adv-x="239" 
d="M232 202h-239l14 89h240z" />
    <glyph glyph-name="period" unicode="." horiz-adv-x="243" 
d="M139 0h-117l20 122h117z" />
    <glyph glyph-name="slash" unicode="/" horiz-adv-x="435" 
d="M-46 -174h-73l519 841h75z" />
    <glyph glyph-name="zero" unicode="0" 
d="M570 388q0 -62 -17.5 -129.5t-51 -131.5t-92.5 -105t-133 -41q-58 0 -102.5 24t-68 57.5t-37.5 77.5t-18 74.5t-4 58.5q0 42 8.5 92t30.5 107.5t55 103.5t87 77t120 31q94 0 158 -73q65 -76 65 -223zM455 432q0 20 -3 39.5t-13 51t-36.5 51t-66.5 19.5q-70 0 -114 -81
q-21 -38 -41 -120t-20 -158t30 -119t85 -43q71 0 113 75q27 48 43.5 121t19.5 109.5t3 54.5z" />
    <glyph glyph-name="one" unicode="1" 
d="M541 0h-502l17 103h194l71 425q-34 -31 -94.5 -48t-109.5 -15l17 102q100 11 159 43q60 34 90 81h77l-98 -588h196z" />
    <glyph glyph-name="two" unicode="2" 
d="M499 0h-493l15 122q101 56 193.5 117t134.5 97q86 74 86 148q0 45 -30.5 74t-74.5 29q-27 0 -52.5 -10t-54 -43.5t-42.5 -87.5l-103 45q32 89 93 140q70 59 164 59q89 0 155.5 -55.5t66.5 -150.5q0 -47 -15 -86t-44 -70t-55 -51t-66 -45q-126 -77 -240 -125h380z" />
    <glyph glyph-name="three" unicode="3" 
d="M214 294l16 95q81 -4 135 14q28 9 49 34.5t21 59.5q0 43 -32.5 66t-74.5 23q-50 0 -88 -27t-59 -71l-101 46q92 149 250 149q100 0 162 -51t62 -125q0 -19 -5.5 -39.5t-20 -46t-46.5 -46t-77 -29.5q57 -15 87 -56q30 -42 30 -98q0 -32 -13 -65.5t-40.5 -67t-80.5 -54.5
t-123 -21q-95 0 -159.5 47.5t-87.5 134.5l107 27q11 -55 51.5 -83.5t91.5 -28.5q59 0 97 33t38 83q0 9 -1.5 18t-8 27t-24.5 32t-45 18q-16 2 -110 2z" />
    <glyph glyph-name="four" unicode="4" 
d="M407 0h-115l26 150h-291l18 108l355 430h122l-73 -437h103l-17 -101h-103zM188 251h150l49 282q0 14 6 26l-49 -67l-202 -244q27 3 46 3z" />
    <glyph glyph-name="five" unicode="5" 
d="M37 148l105 28q12 -49 49.5 -73.5t77.5 -24.5q59 0 101.5 42t42.5 106q0 55 -34.5 88t-82.5 33q-71 0 -122 -73l-94 41l94 354h392l-27 -103h-296l-52 -191q58 73 143 73q90 0 146.5 -63.5t56.5 -147.5q0 -109 -77 -182t-185 -73q-86 0 -151.5 45t-86.5 121z" />
    <glyph glyph-name="six" unicode="6" 
d="M581 509l-108 -18q-8 42 -31 68q-31 34 -85 34q-36 0 -66 -18t-49 -47t-33 -59t-21 -62t-10 -48.5t-4 -23.5q27 47 71.5 72t98.5 25q79 0 139 -60.5t60 -154.5q0 -96 -68 -165t-172 -69q-107 0 -178 75.5t-71 217.5q0 38 8.5 86.5t31 106.5t55.5 104.5t88.5 78.5
t124.5 32q99 0 152.5 -51.5t66.5 -123.5zM428 210q0 58 -38.5 92t-86.5 34q-56 0 -92.5 -40t-36.5 -93q0 -51 34 -90.5t90 -39.5q52 0 91 38.5t39 98.5z" />
    <glyph glyph-name="seven" unicode="7" 
d="M274 0h-136l14 61t15 62q25 81 62 151t106 154q60 71 131 133h-372l32 106h458l-15 -94q-34 -25 -104.5 -116t-113.5 -180q-60 -124 -77 -277z" />
    <glyph glyph-name="eight" unicode="8" 
d="M191 334q-19 11 -30.5 19.5t-30 27t-28.5 44.5t-10 58q0 33 14.5 66.5t43 64t79 50t115.5 19.5q100 0 161.5 -46t61.5 -118q0 -54 -36 -96t-104 -66q35 -16 60 -38.5t35.5 -45.5t14.5 -40t4 -33q0 -90 -73 -153t-191 -63q-75 0 -128 17.5t-77.5 45.5t-34.5 54.5t-10 53.5
q0 38 18 77.5t54 63.5q39 26 92 38zM274 293q-135 -39 -135 -125q0 -41 35 -68t101 -27q44 0 75.5 12t45.5 29.5t19.5 32t5.5 26.5q0 19 -9 35t-20.5 27t-34.5 23t-38 18t-45 17zM354 394q11 4 26 12t35 22.5t33.5 36t13.5 44.5q0 37 -32 62.5t-94 25.5q-58 0 -89.5 -26
t-31.5 -64q0 -36 30.5 -62t108.5 -51z" />
    <glyph glyph-name="nine" unicode="9" 
d="M37 119l100 34q36 -78 114 -78q44 0 78.5 23.5t56.5 64.5t35.5 85.5t20.5 96.5q-56 -108 -170 -108q-88 0 -142.5 59.5t-54.5 145.5q0 103 67.5 173t175.5 70q34 0 66.5 -9t64.5 -30.5t56 -53t39 -81t15 -110.5q0 -51 -10.5 -105.5t-35.5 -111t-60 -100.5t-89 -72
t-118 -28q-80 0 -134 39t-75 96zM437 471q0 51 -35 86.5t-85 35.5q-56 0 -93 -41.5t-37 -96.5q0 -52 34.5 -87.5t85.5 -35.5q55 0 92.5 41.5t37.5 97.5z" />
    <glyph glyph-name="colon" unicode=":" horiz-adv-x="243" 
d="M139 0h-117l20 122h117zM191 311h-117l20 122h117z" />
    <glyph glyph-name="semicolon" unicode=";" horiz-adv-x="243" 
d="M36 -144h-42l83 144h-55l20 121h117l-19 -111zM191 311h-117l21 122h116z" />
    <glyph glyph-name="less" unicode="&#x3c;" 
d="M511 596v-112l-313 -151l313 -152v-112l-433 216v96z" />
    <glyph glyph-name="equal" unicode="=" 
d="M554 451v-93h-494l1 93h493zM554 305v-93h-494l1 93h493z" />
    <glyph glyph-name="greater" unicode="&#x3e;" 
d="M83 69v113l313 151l-313 152v111l433 -216v-95z" />
    <glyph glyph-name="question" unicode="?" horiz-adv-x="484" 
d="M257 0h-120l21 124h120zM270 186h-92q7 60 20 93t31.5 51t61.5 46q85 56 85 119q0 38 -25.5 63t-66.5 25q-38 0 -73 -28t-53 -95l-99 39q34 91 96.5 137t136.5 46q93 0 147.5 -54.5t54.5 -129.5q0 -35 -11.5 -65.5t-25 -49t-37.5 -37t-35 -25t-31 -16.5q-41 -21 -54 -34
t-20 -34q-9 -27 -10 -51z" />
    <glyph glyph-name="at" unicode="@" horiz-adv-x="733" 
d="M570 508l-38 -227q-5 -29 -5 -49q0 -30 30 -30q39 0 73 52.5t34 122.5q0 113 -79.5 176.5t-183.5 63.5q-121 0 -202.5 -83t-81.5 -202q0 -50 17 -97.5t50 -88.5t90.5 -66t131.5 -25q46 0 87.5 9.5t64 19t60.5 28.5l26 -66q-119 -61 -240 -61q-91 0 -163.5 30.5t-115.5 81
t-65.5 110t-22.5 122.5q0 151 107 252t259 101q138 0 234 -84.5t96 -215.5q0 -94 -54.5 -171t-136.5 -77q-24 0 -49 12t-37 39q-43 -53 -104 -53q-60 0 -101 50.5t-41 131.5q0 82 45 142.5t125 60.5q67 0 100 -43l6 34h84zM469 348q0 47 -23 67.5t-58 20.5q-34 0 -56 -21.5
t-28.5 -47.5t-6.5 -55q0 -50 20.5 -75t49.5 -25q41 0 71.5 42t30.5 94z" />
    <glyph glyph-name="A" unicode="A" horiz-adv-x="603" 
d="M561 0h-133l-28 161h-241l-74 -161h-113l319 667h148zM200 254h189l-52 296z" />
    <glyph glyph-name="B" unicode="B" horiz-adv-x="611" 
d="M32 0l112 667h233q86 0 132 -27q76 -46 76 -139q0 -119 -125 -158q30 -13 47 -27q57 -48 57 -124q0 -50 -25.5 -97t-66.5 -68q-53 -27 -143 -27h-297zM202 299l-34 -201h136q42 0 62.5 4t42.5 19q35 27 35 82q0 45 -34 74q-28 22 -88 22h-120zM248 574l-31 -183h118
q38 0 58 5t42 22q30 23 30 69q0 87 -112 87h-105z" />
    <glyph glyph-name="C" unicode="C" horiz-adv-x="591" 
d="M603 450l-108 -20q-2 20 -4.5 33t-11.5 38.5t-22 41t-38.5 28.5t-58.5 13q-88 0 -134 -100q-24 -52 -36.5 -122t-12.5 -113q0 -51 14 -86.5t37 -50.5t41 -20.5t35 -5.5q57 0 97.5 42t60.5 95l97 -41q-85 -199 -264 -199q-114 0 -179.5 81.5t-65.5 211.5q0 102 35 193.5
t108 153t169 61.5q111 0 171.5 -63.5t69.5 -170.5z" />
    <glyph glyph-name="D" unicode="D" horiz-adv-x="640" 
d="M32 0l111 667h196q30 0 49.5 -1.5t51.5 -8.5t60.5 -26t51.5 -49q63 -82 63 -211q0 -175 -114 -295q-26 -27 -55.5 -43.5t-64.5 -23t-57.5 -8t-61.5 -1.5h-230zM249 568l-78 -467h106q29 0 46 2t46.5 16.5t54.5 43.5q34 39 49.5 104t15.5 122q0 79 -35 128q-37 51 -133 51
h-72z" />
    <glyph glyph-name="E" unicode="E" horiz-adv-x="537" 
d="M465 0h-433l112 667h421l-18 -105h-302l-29 -173h250l-16 -99h-250l-31 -185h314z" />
    <glyph glyph-name="F" unicode="F" horiz-adv-x="497" 
d="M154 0h-122l112 667h409l-17 -105h-288l-30 -180h239l-16 -99h-240z" />
    <glyph glyph-name="G" unicode="G" horiz-adv-x="647" 
d="M542 0h-51l-20 90q-28 -52 -76.5 -77t-105.5 -25q-102 0 -170.5 70t-68.5 217q0 169 88.5 289.5t233.5 120.5q55 0 99 -17t68 -37.5t43 -53t24.5 -49t11.5 -40.5l-106 -27q-34 121 -140 121q-49 0 -87.5 -29.5t-60.5 -77t-33.5 -100t-11.5 -104.5q0 -20 2 -39.5t10 -47
t22 -47.5t41 -34.5t64 -14.5q75 0 121 75q24 43 32 81h-145l17 101h257z" />
    <glyph glyph-name="H" unicode="H" horiz-adv-x="646" 
d="M643 667l-112 -667h-119l48 288h-260l-49 -288h-119l112 667h119l-46 -274h261l45 274h120z" />
    <glyph glyph-name="I" unicode="I" horiz-adv-x="270" 
d="M155 0h-123l111 667h124z" />
    <glyph glyph-name="J" unicode="J" horiz-adv-x="375" 
d="M-42 -2l19 100q34 -4 67 -4q74 0 100 28.5t38 103.5l74 441h122l-71 -422q-5 -34 -8.5 -52.5t-12.5 -50t-19.5 -49.5t-29 -40.5t-42 -35t-58 -21t-77.5 -8.5q-25 0 -102 10z" />
    <glyph glyph-name="K" unicode="K" horiz-adv-x="617" 
d="M559 0h-126l-99 334l-155 -169l-28 -165h-119l112 667h119l-49 -291q0 -2 -7 -34t-8 -36q10 15 37 49l282 312h127l-218 -238z" />
    <glyph glyph-name="L" unicode="L" horiz-adv-x="488" 
d="M432 0h-400l111 667h127l-94 -562h273z" />
    <glyph glyph-name="M" unicode="M" horiz-adv-x="797" 
d="M683 0h-120l102 607l-284 -607h-65l-90 602l-101 -602h-93l112 667h182l70 -448l203 448h195z" />
    <glyph glyph-name="N" unicode="N" horiz-adv-x="649" 
d="M535 0h-96l-227 501l-84 -501h-96l112 667h123l207 -458l77 458h95z" />
    <glyph glyph-name="O" unicode="O" horiz-adv-x="647" 
d="M305 -18q-106 0 -180 82t-74 220q0 51 11 104.5t36.5 107t61 95.5t89 68t117.5 26q128 0 193.5 -85.5t65.5 -215.5q0 -54 -12 -109t-37.5 -108t-62.5 -94t-91 -66t-117 -25zM310 82q93 0 141 101q47 104 47 228q0 174 -138 174q-76 0 -121 -79q-25 -42 -43 -111t-18 -132
q0 -86 31 -131q18 -26 47.5 -38t53.5 -12z" />
    <glyph glyph-name="P" unicode="P" horiz-adv-x="597" 
d="M156 0h-124l111 667h179q93 0 130.5 -4.5t72.5 -23.5q41 -24 64 -67t23 -95q0 -51 -21.5 -94t-54.5 -70q-54 -46 -174 -46h-161zM345 570h-93l-35 -205h119q54 0 73.5 3.5t41.5 21.5q35 29 35 84q0 45 -26 70q-18 18 -39.5 22t-75.5 4z" />
    <glyph glyph-name="Q" unicode="Q" horiz-adv-x="641" 
d="M547 -35l-11 -101q-32 -5 -70 -5q-123 0 -143 73q-6 19 -6 54q-18 -2 -23 -2q-66 0 -115.5 27t-76 71.5t-39.5 94t-13 103.5q0 49 10.5 101.5t35 107t59.5 97t90 70t121 27.5q126 0 189 -83.5t63 -215.5q0 -127 -55 -230t-154 -145q1 -14 5 -23.5t23.5 -18t54.5 -8.5
q25 0 55 6zM298 84q89 0 137 82q58 100 58 232q0 188 -131 188q-51 0 -89.5 -36.5t-58 -92t-28.5 -107.5t-9 -96q0 -85 34 -127.5t87 -42.5z" />
    <glyph glyph-name="R" unicode="R" horiz-adv-x="639" 
d="M551 0h-127l-71 273h-156l-46 -273h-119l111 667h251q62 0 99.5 -8.5t67.5 -33.5q66 -56 66 -142q0 -36 -16 -80t-51 -73q-36 -30 -91 -43zM246 570l-33 -200h166q61 0 92 26q32 27 32 80q0 31 -16 54q-12 19 -32.5 28t-35.5 10.5t-42 1.5h-131z" />
    <glyph glyph-name="S" unicode="S" horiz-adv-x="553" 
d="M544 540l-109 -40q-20 49 -65 69q-31 14 -63 14q-55 0 -86 -26.5t-31 -64.5q0 -30 21.5 -49t68.5 -32q94 -27 123.5 -38.5t57.5 -34.5q57 -46 57 -128q0 -18 -4 -40t-20 -56.5t-42.5 -61.5t-79 -46.5t-121.5 -19.5q-196 0 -259 166l109 39q7 -18 14.5 -30.5t25 -32.5
t48 -31t71.5 -11q72 0 103.5 32t31.5 71q0 55 -74 77l-108 32q-68 21 -107 65t-39 112q0 90 65 149t178 59q171 0 234 -143z" />
    <glyph glyph-name="T" unicode="T" horiz-adv-x="461" 
d="M514 562h-169l-94 -562h-123l94 562h-169l17 105h462z" />
    <glyph glyph-name="U" unicode="U" horiz-adv-x="605" 
d="M608 667l-72 -431q-6 -39 -11.5 -60.5t-17.5 -53.5t-33 -56t-52 -43q-60 -38 -140 -38q-92 0 -155.5 49.5t-63.5 151.5q0 14 9 95l65 386h122l-65 -392q-11 -61 -11 -86q0 -28 11.5 -49t25 -30.5t33 -15t28 -6t16.5 -0.5q34 0 59.5 11t40 25.5t25 42.5t14 46t9.5 52
l68 402h95z" />
    <glyph glyph-name="V" unicode="V" horiz-adv-x="543" 
d="M310 0h-134l-112 667h126l84 -527l231 527h106z" />
    <glyph glyph-name="W" unicode="W" horiz-adv-x="870" 
d="M650 -5h-120l-58 502l-206 -502h-115l-79 672h129l45 -504l204 504h119l53 -504l203 504h105z" />
    <glyph glyph-name="X" unicode="X" horiz-adv-x="552" 
d="M511 0h-131l-107 255l-192 -255h-122l267 347l-139 320h133l93 -223l167 223h119l-242 -311z" />
    <glyph glyph-name="Y" unicode="Y" horiz-adv-x="518" 
d="M289 0h-125l47 281l-169 386h136l119 -288l189 288h116l-267 -392z" />
    <glyph glyph-name="Z" unicode="Z" horiz-adv-x="526" 
d="M468 0h-489l16 98l402 464h-314l17 105h468l-13 -84l-416 -478h346z" />
    <glyph glyph-name="bracketleft" unicode="[" horiz-adv-x="305" 
d="M200 -119l-9 -55h-188l141 841h187l-9 -55h-106l-122 -731h106z" />
    <glyph glyph-name="backslash" unicode="\" horiz-adv-x="435" 
d="M339 -174l-239 841h68l237 -841h-66z" />
    <glyph glyph-name="bracketright" unicode="]" horiz-adv-x="305" 
d="M104 612l10 55h187l-140 -841h-188l9 55h107l122 731h-107z" />
    <glyph glyph-name="asciicircum" unicode="^" 
d="M350 667l189 -358h-96l-145 278l-144 -278h-96l189 358h103z" />
    <glyph glyph-name="underscore" unicode="_" horiz-adv-x="500" 
d="M0 -75h500v-50h-500v50z" />
    <glyph glyph-name="grave" unicode="`" horiz-adv-x="500" 
d="M215 726l167 -107l-24 -52l-182 96z" />
    <glyph glyph-name="a" unicode="a" horiz-adv-x="535" 
d="M437 0h-108q-2 49 8 107q-30 -64 -75.5 -92t-94.5 -28q-69 0 -110 42t-41 101q0 100 100 147q74 35 204 35q26 0 52 -2q3 20 3 35q0 44 -29.5 62.5t-66.5 18.5q-35 0 -61 -13.5t-34.5 -25t-19.5 -29.5l-97 30q29 58 85 89.5t132 31.5q91 0 145.5 -41.5t54.5 -112.5
q0 -26 -24 -156q-25 -137 -25 -170q0 -13 2 -29zM361 253q-126 -5 -176 -33.5t-50 -78.5q0 -31 21 -49t54 -18q55 0 98 51q22 27 31.5 51.5t21.5 76.5z" />
    <glyph glyph-name="b" unicode="b" horiz-adv-x="530" 
d="M76 0h-51l112 667h109l-42 -256q12 19 22 32t29 32t44.5 29.5t55.5 10.5q71 0 108.5 -58.5t37.5 -142.5q0 -32 -6.5 -71t-24 -84.5t-42.5 -82t-66.5 -61t-92.5 -24.5q-102 0 -146 93zM375 206q15 55 15 107q0 110 -78 110q-64 0 -102.5 -78t-38.5 -159q0 -51 29 -77
t63 -26q77 0 112 123z" />
    <glyph glyph-name="c" unicode="c" horiz-adv-x="478" 
d="M468 337l-93 -17q-19 97 -97 97q-61 0 -95.5 -68t-34.5 -148q0 -60 24 -89q25 -30 68 -30q71 0 112 98l91 -33q-40 -89 -91.5 -123.5t-119.5 -34.5q-96 0 -146.5 63.5t-50.5 160.5q0 120 67 209t171 89q82 0 131 -45.5t64 -128.5z" />
    <glyph glyph-name="d" unicode="d" horiz-adv-x="535" 
d="M426 0h-106l17 103q-63 -114 -157 -114q-68 0 -108 53.5t-40 149.5q0 127 60 224t159 97q56 0 95 -34q27 -24 40 -65l42 253h110zM346 200q17 55 17 105q0 51 -25 83.5t-67 32.5q-41 0 -69.5 -31t-39.5 -77.5t-15 -76.5t-4 -52q0 -106 81 -106q27 0 49.5 13t36.5 34.5
t22.5 39t13.5 35.5z" />
    <glyph glyph-name="e" unicode="e" horiz-adv-x="521" 
d="M486 235h-342q-3 -18 -3 -37q0 -16 3 -32.5t12.5 -39.5t32.5 -37.5t57 -14.5q26 0 47 9.5t35 27t21 28.5t14 27l97 -26q-69 -152 -217 -152q-100 0 -154.5 61t-54.5 158q0 127 69.5 214.5t182.5 87.5q84 0 137 -48q65 -63 65 -187q0 -17 -2 -39zM156 306h228
q0 126 -98 126q-100 0 -130 -126z" />
    <glyph glyph-name="f" unicode="f" horiz-adv-x="315" 
d="M218 406l-68 -406h-109l67 406h-68l16 91h68q8 36 13 54t18 43.5t33 45.5q50 50 140 50q42 0 69 -6l-9 -92q-24 6 -51 6q-54 0 -75.5 -26t-27.5 -75h107l-15 -91h-108z" />
    <glyph glyph-name="g" unicode="g" horiz-adv-x="507" 
d="M527 622l-1 -84q-8 0 -15.5 0.5t-12.5 1t-9 0.5q-32 0 -51.5 -9t-25.5 -18.5t-15 -29.5q76 -38 76 -118q0 -65 -51.5 -112.5t-159.5 -47.5q-37 0 -97 14q-44 -23 -44 -61q0 -20 13.5 -30.5t28.5 -12.5t38 -2h59q98 0 143 -21q34 -17 51.5 -47t17.5 -59q0 -30 -18.5 -65.5
t-55.5 -58.5q-64 -40 -198 -40q-117 0 -168 35q-46 32 -46 82q0 38 17.5 60t61.5 48q-42 29 -42 76q0 45 24.5 71t72.5 51q-56 42 -56 101q0 87 75 129q57 33 147 33q24 0 62 -7q10 29 18.5 47t24.5 38t41.5 29.5t60.5 9.5q19 0 34 -3zM366 -30q0 29 -20 35.5t-73 7.5
q-132 2 -159 9q-32 -28 -32 -52q0 -29 31.5 -52.5t112.5 -23.5q140 0 140 76zM179 345q0 -75 82 -75q50 0 75.5 26.5t25.5 67.5q0 35 -21 54.5t-60 19.5q-50 0 -76 -26.5t-26 -66.5z" />
    <glyph glyph-name="h" unicode="h" horiz-adv-x="538" 
d="M429 0h-109l49 293q9 46 9 64q0 7 -1.5 14.5t-6.5 21t-19 21.5t-36 8q-55 0 -94 -49q-30 -38 -46 -128l-41 -245h-109l112 667h109l-43 -257q13 20 22.5 32t28.5 31t44.5 28.5t56.5 9.5q15 0 30 -2.5t34.5 -11t34 -22t25 -39t10.5 -59.5q0 -21 -11 -84z" />
    <glyph glyph-name="i" unicode="i" horiz-adv-x="248" 
d="M140 0h-115l83 497h115zM233 555h-115l20 119h115z" />
    <glyph glyph-name="j" unicode="j" horiz-adv-x="248" 
d="M223 497l-76 -453q-5 -33 -8.5 -50.5t-11.5 -46t-16.5 -44t-24.5 -35.5t-35.5 -30t-48 -17.5t-64.5 -7.5q-33 0 -71 6l6 93q39 -6 54 -6q30 0 48.5 7t29 26t15 35t10.5 52l78 471h115zM233 557h-115l20 117h115z" />
    <glyph glyph-name="k" unicode="k" horiz-adv-x="542" 
d="M494 0h-118l-87 265l-130 -121l-24 -144h-110l112 667h109l-67 -402l250 232h117l-168 -157z" />
    <glyph glyph-name="l" unicode="l" horiz-adv-x="248" 
d="M140 0h-115l112 667h114z" />
    <glyph glyph-name="m" unicode="m" horiz-adv-x="853" 
d="M745 0h-115l50 300q6 37 6 51q0 66 -69 66q-110 0 -143 -200l-38 -217h-109l49 288q8 52 8 69q0 23 -13.5 42t-48.5 19q-63 0 -103 -67q-31 -47 -54 -179l-28 -172h-112l84 497h109l-19 -112q29 70 74.5 98t86.5 28q39 0 66 -13t39.5 -35.5t17 -36t7.5 -32.5
q15 24 26.5 38.5t33.5 35.5t51.5 32t64.5 11q58 0 97.5 -36.5t39.5 -96.5q0 -28 -11 -97z" />
    <glyph glyph-name="n" unicode="n" horiz-adv-x="537" 
d="M429 0h-109l50 298q6 31 6 57q0 25 -14.5 45t-47.5 20q-49 0 -87.5 -49t-54.5 -147l-37 -224h-110l83 497h102l-20 -117q32 56 48 76.5t45 35.5q33 17 71 17q52 0 92.5 -36t40.5 -102q0 -25 -10 -83z" />
    <glyph glyph-name="o" unicode="o" horiz-adv-x="525" 
d="M491 278q0 -36 -8.5 -74.5t-28 -77.5t-47.5 -69.5t-69.5 -50t-90.5 -19.5q-22 0 -45 3.5t-54.5 17.5t-55.5 37t-41 67.5t-17 102.5q0 116 68.5 204t184.5 88q91 0 147.5 -60.5t56.5 -168.5zM377 289q0 129 -100 129q-70 0 -104 -82q-26 -65 -26 -140q0 -38 11 -64t29 -37
t32.5 -15t28.5 -4q77 0 110 99q19 59 19 114z" />
    <glyph glyph-name="p" unicode="p" horiz-adv-x="528" 
d="M206 497l-17 -103q61 119 155 119q69 0 112.5 -56.5t43.5 -152.5q0 -71 -22 -141.5t-72.5 -123.5t-117.5 -53q-102 0 -139 101l-44 -261h-109l112 671h98zM386 295q0 129 -78 129q-43 0 -76 -39t-47.5 -89t-14.5 -97q0 -39 11 -66t28.5 -38.5t31 -15.5t26.5 -4
q34 0 59 26t37 65t17.5 71.5t5.5 57.5z" />
    <glyph glyph-name="q" unicode="q" horiz-adv-x="530" 
d="M392 -174h-109l44 260q-58 -100 -144 -100q-77 0 -114 57t-37 146q0 136 67.5 228.5t162.5 92.5q89 0 147 -90l42 77h56q-19 -97 -19 -99zM359 310q0 50 -20 77q-25 31 -68 31q-37 0 -64 -27t-40 -68t-18.5 -76.5t-5.5 -64.5q0 -107 77 -107q36 0 64.5 26.5t43.5 65.5
t23 76.5t8 66.5z" />
    <glyph glyph-name="r" unicode="r" horiz-adv-x="347" 
d="M135 0h-110l83 497h101l-23 -136q35 75 75 113t110 35l-14 -122q-80 6 -131 -44q-21 -21 -34.5 -53t-25.5 -100z" />
    <glyph glyph-name="s" unicode="s" horiz-adv-x="458" 
d="M442 393l-94 -31q-35 65 -108 65q-34 0 -57.5 -15t-23.5 -42q0 -23 18 -35t82 -31q35 -11 54 -18.5t47.5 -25t42.5 -44t14 -62.5q0 -18 -4 -37t-18 -43t-36.5 -42t-62.5 -30.5t-93 -12.5q-170 0 -221 131l104 26q6 -14 10 -21.5t16 -19.5t30 -20q31 -13 62 -13
q47 0 71.5 19t24.5 46q0 24 -19 34t-98 34q-18 5 -30 9.5t-34 16.5t-35.5 26t-24.5 38.5t-11 53.5q0 25 9.5 51t30 52t59.5 42t91 16q142 0 204 -117z" />
    <glyph glyph-name="t" unicode="t" horiz-adv-x="321" 
d="M210 408l-37 -222q-7 -45 -7 -53q0 -9 1.5 -15.5t7.5 -14.5t21.5 -12.5t39.5 -4.5q15 0 36 3l-15 -90q-31 -7 -70 -7q-62 0 -95 26q-37 29 -37 80q0 24 11 90l38 220h-74l15 89h75l29 134l99 6l-23 -140h107l-15 -89h-107z" />
    <glyph glyph-name="u" unicode="u" horiz-adv-x="529" 
d="M499 497l-83 -497h-102l18 108q-28 -53 -66 -83q-44 -34 -102 -34q-56 0 -88.5 36.5t-32.5 84.5q0 24 13 98l48 287h109l-52 -308q-7 -42 -7 -53q0 -24 15 -38t40 -14q32 0 60.5 21.5t46.5 49.5q23 37 38 132l35 210h110z" />
    <glyph glyph-name="v" unicode="v" horiz-adv-x="447" 
d="M246 0h-102l-106 497h120l66 -348l161 348h97z" />
    <glyph glyph-name="w" unicode="w" horiz-adv-x="699" 
d="M504 0h-103l-38 354l-143 -354h-101l-74 497h113l45 -344l143 344h99l36 -343l153 343h97z" />
    <glyph glyph-name="x" unicode="x" horiz-adv-x="457" 
d="M425 0h-125l-88 191l-150 -191h-109l217 263l-117 234h126l69 -153l120 153h107l-184 -224z" />
    <glyph glyph-name="y" unicode="y" horiz-adv-x="455" 
d="M-28 -177l5 94q28 -4 65 -4q20 0 32.5 2t32 18.5t34.5 48.5l19 39l-122 476h117l76 -343l164 343h95l-255 -515q-23 -48 -36.5 -70.5t-37 -48t-54 -35t-75.5 -9.5q-32 0 -60 4z" />
    <glyph glyph-name="z" unicode="z" horiz-adv-x="421" 
d="M357 0h-374l14 89l279 322h-211l14 86h353l-13 -77l-285 -331h238z" />
    <glyph glyph-name="braceleft" unicode="{" horiz-adv-x="326" 
d="M162 129l-28 -166q-4 -28 -4 -39q0 -15 7.5 -24.5t23 -13t26.5 -4.5t30 -1l-9 -55h-35t-32 1.5t-33 4.5t-25.5 10t-23 16.5t-12.5 24.5t-6 35q0 25 4 49l28 167q3 9 3 33q0 45 -44 56l8 51q31 7 47.5 26t22.5 57l29 176q6 39 21.5 65.5t31 40t45 20t48 7.5t55.5 1h8
l-9 -55q-63 0 -82.5 -16t-27.5 -63l-29 -172q-6 -38 -20.5 -63t-26 -33t-33.5 -20q13 -8 20.5 -14t16 -23.5t8.5 -40.5q0 -15 -3 -38z" />
    <glyph glyph-name="bar" unicode="|" horiz-adv-x="500" 
d="M321 750v-1000h-113v1000h113z" />
    <glyph glyph-name="braceright" unicode="}" horiz-adv-x="326" 
d="M163 364l28 166q4 29 4 38q0 20 -16 30.5t-31 12t-40 1.5l9 55q34 0 48.5 -0.5t42.5 -5t41 -13.5t24 -27.5t11 -45.5q0 -25 -4 -50l-28 -167q-3 -18 -3 -32q0 -45 44 -56l-8 -52q-31 -7 -47.5 -26t-22.5 -56l-29 -176q-4 -27 -13 -48.5t-19 -35.5t-27 -23.5t-31 -15
t-37 -8t-39 -3t-43 -0.5l9 55q63 1 82.5 16.5t27.5 62.5l29 171q6 39 20.5 64t25.5 33t33 19q-44 27 -44 78q0 15 3 39z" />
    <glyph glyph-name="asciitilde" unicode="~" 
d="M123 247l-63 41q16 34 25.5 51t27 39.5t41 32t54.5 9.5q34 0 106 -28q66 -26 89 -26q20 0 36 9.5t23 19t18 27.5l65 -38q-12 -26 -21.5 -42t-28.5 -38.5t-45.5 -34.5t-60.5 -12q-38 0 -95 26q-75 28 -95 28q-19 0 -35.5 -11.5t-23 -22t-17.5 -30.5z" />
    <glyph glyph-name="uni00A0" unicode="&#xa0;" horiz-adv-x="290" 
 />
    <glyph glyph-name="exclamdown" unicode="&#xa1;" horiz-adv-x="247" 
d="M104 493h120l-20 -123h-120zM112 308h50l-16 -482h-142z" />
    <glyph glyph-name="cent" unicode="&#xa2;" 
d="M303 107l-27 -158h-55l27 165q-131 35 -131 191q0 101 53 176.5t154 83.5l21 127h55l-21 -131q35 -8 61.5 -26t41 -40.5t21.5 -41t11 -37.5l-86 -17q-3 25 -10 42t-17.5 25t-17 11t-17.5 6l-51 -301q62 1 102 84l67 -32q-11 -22 -20.5 -37t-31 -39t-54.5 -37t-75 -14z
M264 192l49 293q-13 -3 -20.5 -5.5t-19 -12t-22.5 -25.5q-36 -54 -36 -145q0 -79 49 -105z" />
    <glyph glyph-name="sterling" unicode="&#xa3;" 
d="M309 0h-353l19 112q32 1 49 3.5t40.5 9t40.5 22t31 39.5q14 25 17.5 48t5.5 81h-79l14 87h68q-2 116 37 180q67 111 202 111q126 0 171 -123l-102 -44q-17 75 -82 75q-34 0 -61 -23.5t-34 -56.5q-10 -41 -8 -119h126l-15 -87h-117q-2 -21 -4 -35t-9 -40.5t-17.5 -46.5
t-30 -42.5t-45.5 -39.5h131q84 0 121 23t55 73l96 -54q-36 -79 -100.5 -116t-166.5 -37z" />
    <glyph glyph-name="currency" unicode="&#xa4;" 
d="M66 181l80 80q-37 53 -37 112q0 55 37 110l-81 81l50 50l80 -81q58 37 113 37q60 0 111 -36l80 80l50 -50l-80 -80q38 -54 38 -112q0 -52 -36 -110l80 -81l-49 -50l-80 81q-54 -37 -114 -37q-54 0 -113 36l-80 -79zM308 489q-48 0 -82 -34.5t-34 -82.5q0 -49 34 -83
t82 -34t82 34.5t34 82.5t-33.5 82.5t-82.5 34.5z" />
    <glyph glyph-name="yen" unicode="&#xa5;" 
d="M91 423h107l-100 244h124l113 -289l186 289h105l-160 -244h119l-10 -60h-148l-58 -88l-2 -10h191l-10 -60h-191l-34 -205h-114l34 205h-189l10 60h189l3 16l-34 82h-141z" />
    <glyph glyph-name="brokenbar" unicode="&#xa6;" horiz-adv-x="500" 
d="M321 675v-350h-113v350h113zM321 175v-350h-113v350h113z" />
    <glyph glyph-name="section" unicode="&#xa7;" horiz-adv-x="586" 
d="M7 -35l112 19q17 -44 56 -63q35 -18 81 -18q51 0 78 24t27 54q0 28 -22 48t-76 41q-80 31 -109 47.5t-45 44.5q-20 33 -20 74q0 28 9 53.5t19.5 41.5t29 32.5t26 21.5l22.5 15q-45 32 -45 96q0 80 63 129t151 49q85 0 147 -48q31 -24 55 -71l-92 -28q-7 13 -13 21.5
t-19.5 21.5t-35 20t-49.5 7q-40 0 -70.5 -19t-30.5 -50q0 -24 17 -36t95 -46q42 -18 62 -28t45 -29t35 -43.5t10 -58.5q0 -91 -91 -160q51 -36 51 -110q0 -80 -60.5 -138.5t-170.5 -58.5q-93 0 -151 36.5t-91 108.5zM254 365q-24 -18 -34 -26.5t-19 -23.5t-9 -33
q0 -15 6.5 -28t19.5 -23t22 -15t23 -11q8 -4 50.5 -23t47.5 -21q58 45 58 87q0 44 -66 74q-94 40 -99 43z" />
    <glyph glyph-name="dieresis" unicode="&#xa8;" horiz-adv-x="500" 
d="M288 633q0 -25 -17 -39t-39 -14q-24 0 -39 16t-15 37t14.5 37.5t39.5 16.5q22 0 39 -14t17 -40zM451 633q0 -25 -17 -39t-39 -14q-24 0 -39 16t-15 37t14.5 37.5t39.5 16.5q22 0 39 -14t17 -40z" />
    <glyph glyph-name="copyright" unicode="&#xa9;" horiz-adv-x="733" 
d="M558 400l-78 -13q-10 91 -80 91q-42 0 -66 -37q-16 -25 -26 -63t-12 -59t-2 -34q0 -52 23.5 -73t51.5 -21q61 0 93 83l70 -28q-6 -16 -15 -31t-28.5 -39t-52 -38.5t-73.5 -14.5q-72 0 -115 48.5t-43 130.5q0 96 53.5 169t143.5 73q65 0 107.5 -36t48.5 -108zM383 681
q143 0 243.5 -102.5t100.5 -244.5q0 -145 -101 -246.5t-244 -101.5t-245 102t-102 246q0 142 101 244.5t247 102.5zM383 625q-120 0 -203 -86t-83 -205q0 -122 83.5 -207t201.5 -85q117 0 200 85t83 207q0 119 -82 205t-200 86z" />
    <glyph glyph-name="ordfeminine" unicode="&#xaa;" horiz-adv-x="352" 
d="M157 577l-70 21q14 28 41 48q41 28 100 28q58 0 94 -25t36 -69q0 -16 -14 -97t-14 -95q0 -12 1 -21h-77v11v18v12q-35 -49 -97 -49q-45 0 -72 26t-27 62q0 32 22 59t66 39q57 15 133 12q0 2 0.5 7.5t0.5 8.5q0 46 -56 46q-44 0 -67 -42zM142 454q0 -17 11.5 -27t30.5 -10
q32 0 57 29q18 22 30 70q-31 -2 -50.5 -5t-39.5 -9.5t-29.5 -18t-9.5 -29.5z" />
    <glyph glyph-name="guillemotleft" unicode="&#xab;" horiz-adv-x="329" 
d="M263 109h-44l-60 143l99 137h52l-76 -140zM140 109h-42l-61 141l99 139h51l-75 -142z" />
    <glyph glyph-name="logicalnot" unicode="&#xac;" 
d="M461 184v174h-400v93h493v-267h-93z" />
    <glyph glyph-name="uni00AD" unicode="&#xad;" horiz-adv-x="239" 
d="M232 202h-239l14 89h240z" />
    <glyph glyph-name="registered" unicode="&#xae;" horiz-adv-x="492" 
d="M251 441l-16 -84h-55l40 221h90q42 0 59 -14q24 -20 24 -48q0 -49 -54 -66l29 -93h-58l-25 84h-34zM268 537l-10 -55h38q41 0 41 32q0 6 -1.5 10t-4.5 6.5t-6 4t-8 2t-7 0.5h-7.5h-6.5h-28zM77 467q0 87 60.5 147t145.5 60t145.5 -60.5t60.5 -146.5q0 -85 -60.5 -145.5
t-145.5 -60.5t-145.5 60.5t-60.5 145.5zM113 467q0 -68 51 -119t119 -51t119 51t51 119q0 69 -51 120t-119 51q-69 0 -119.5 -51t-50.5 -120z" />
    <glyph glyph-name="macron" unicode="&#xaf;" horiz-adv-x="500" 
d="M450 597h-286l11 63h286z" />
    <glyph glyph-name="degree" unicode="&#xb0;" 
d="M210 546q0 53 38 93.5t95 40.5q56 0 95 -39.5t39 -94.5q0 -54 -39 -93.5t-95 -39.5q-57 0 -95 40t-38 93zM277 547q0 -27 19 -47t47 -20t47.5 19.5t19.5 47.5q0 27 -19 46.5t-47 19.5q-29 0 -48 -20t-19 -46z" />
    <glyph glyph-name="plusminus" unicode="&#xb1;" 
d="M536 383l-1 -93h-200v-207h-93v207h-201l1 93h200v208h93v-208h201zM536 50l-1 -93h-494l1 93h494z" />
    <glyph glyph-name="two.superior" unicode="&#xb2;" horiz-adv-x="386" 
d="M357 267h-322l10 77q102 53 185 109q76 52 76 101q0 26 -19 42.5t-46 16.5q-71 0 -92 -84l-73 29q50 123 168 123q58 0 102.5 -34t44.5 -92q0 -27 -8 -48t-33 -48t-77.5 -57t-134.5 -65h231z" />
    <glyph glyph-name="three.superior" unicode="&#xb3;" horiz-adv-x="385" 
d="M166 440l10 63q130 -4 130 59q0 24 -20.5 37t-46.5 13q-62 0 -91 -58l-71 30q60 92 164 92q67 0 107.5 -31t40.5 -77q0 -66 -83 -94q33 -12 49 -38t16 -54q0 -46 -40 -85.5t-127 -39.5q-129 0 -163 113l75 18q8 -35 33.5 -51.5t56.5 -16.5q36 0 59 18t23 46q0 17 -9.5 32
t-27.5 20q-15 4 -85 4z" />
    <glyph glyph-name="acute" unicode="&#xb4;" horiz-adv-x="500" 
d="M417 726l32 -67l-203 -92l-21 52z" />
    <glyph glyph-name="mu" unicode="&#xb5;" horiz-adv-x="500" 
d="M-38 -172l111 669h113l-46 -276q-6 -41 -6 -57q0 -36 24.5 -60.5t63.5 -24.5q47 0 81 34q38 37 49 113l45 271h112l-83 -497h-112l11 65q-13 -20 -23.5 -32.5t-37.5 -28t-59 -15.5q-30 0 -51.5 13.5t-28 24.5t-13.5 27l-38 -226h-112z" />
    <glyph glyph-name="paragraph" unicode="&#xb6;" 
d="M612 667l-9 -56h-67l-130 -775h-56l130 775h-55l-129 -775h-58l85 507h-37q-26 0 -40 0.5t-38.5 3t-38.5 7t-32 14t-27.5 23t-16.5 35t-7 48.5q0 88 60 142q36 32 76.5 41.5t120.5 9.5h269zM293 399h40l35 212h-29q-34 0 -51 -1t-39 -8t-35 -22q-32 -37 -32 -91
q0 -26 7.5 -44t16.5 -27t27 -13.5t29 -5t31 -0.5z" />
    <glyph glyph-name="periodcentered" unicode="&#xb7;" horiz-adv-x="243" 
d="M170 185h-117l21 123h116z" />
    <glyph glyph-name="cedilla" unicode="&#xb8;" horiz-adv-x="500" 
d="M251 0l-20 -45q30 0 57.5 -16t27.5 -50q0 -31 -30 -58.5t-75 -27.5q-29 0 -91 29l22 39q36 -23 69 -23q41 0 41 33q0 36 -81 36l40 83h40z" />
    <glyph glyph-name="one.superior" unicode="&#xb9;" horiz-adv-x="386" 
d="M358 267h-302l12 68h110l40 239q-63 -37 -129 -33l11 66q118 11 160 74h55l-57 -346h111z" />
    <glyph glyph-name="ordmasculine" unicode="&#xba;" horiz-adv-x="352" 
d="M69 501q0 70 43.5 121.5t117.5 51.5q65 0 99 -40t34 -93q0 -80 -45 -130t-111 -50q-14 0 -29 2.5t-35.5 11t-36 22.5t-26.5 41t-11 63zM150 490q0 -39 17.5 -54t40.5 -15q51 0 68 78q5 25 5 46q0 70 -57 70q-38 0 -56 -39.5t-18 -85.5z" />
    <glyph glyph-name="guillemotright" unicode="&#xbb;" horiz-adv-x="329" 
d="M67 389h44l60 -142l-99 -138h-52l76 141zM190 389h42l61 -140l-99 -140h-51l75 143z" />
    <glyph glyph-name="onequarter" unicode="&#xbc;" horiz-adv-x="917" 
d="M612 149h125l29 173zM250 0h-75l522 667h73zM785 0h-80l15 89h-186l11 67l226 257h83l-43 -258h66l-11 -66h-66zM358 267h-302l12 68h110l40 239q-63 -37 -129 -33l11 66q117 11 160 75h56l-58 -347h112z" />
    <glyph glyph-name="onehalf" unicode="&#xbd;" horiz-adv-x="917" 
d="M358 267h-302l12 68h110l40 239q-63 -37 -129 -33l11 66q117 11 160 75h56l-58 -347h112zM250 0h-75l522 667h73zM844 0h-322l10 77q96 50 185 110q76 52 76 100q0 26 -19 42.5t-46 16.5q-71 0 -92 -84l-73 29q50 123 168 123q58 0 102.5 -34.5t44.5 -91.5q0 -27 -8 -48
t-33 -48t-77.5 -57t-134.5 -65h231z" />
    <glyph glyph-name="threequarters" unicode="&#xbe;" horiz-adv-x="916" 
d="M612 149h125l28 172zM249 0h-74l522 667h73zM785 0h-80l15 89h-186l11 67l226 257h83l-43 -258h66l-11 -66h-66zM166 440l10 63q130 -4 130 59q0 24 -20.5 37t-46.5 13q-62 0 -91 -58l-71 30q60 92 164 92q67 0 107.5 -31t40.5 -77q0 -66 -83 -94q33 -12 49 -38t16 -54
q0 -46 -40 -85.5t-127 -39.5q-129 0 -163 113l75 18q8 -35 33.5 -51.5t56.5 -16.5q36 0 59 18t23 46q0 17 -9.5 32t-27.5 20q-15 4 -85 4z" />
    <glyph glyph-name="questiondown" unicode="&#xbf;" horiz-adv-x="484" 
d="M206 372l21 124h120l-21 -124h-120zM214 310h92q-7 -60 -20 -93t-31.5 -51t-61.5 -46q-85 -56 -85 -119q0 -38 25.5 -63t66.5 -25q38 0 73 28t53 95l99 -39q-34 -91 -96.5 -137t-136.5 -46q-93 0 -147.5 54.5t-54.5 129.5q0 35 11.5 65.5t25 49t37.5 37t35 25t31 16.5
q41 21 54 34t20 34q9 27 10 51z" />
    <glyph glyph-name="Agrave" unicode="&#xc0;" horiz-adv-x="603" 
d="M561 0h-133l-28 161h-241l-74 -161h-113l319 667h148zM200 254h189l-52 296zM225 803l32 69l192 -93l-20 -52z" />
    <glyph glyph-name="Aacute" unicode="&#xc1;" horiz-adv-x="603" 
d="M561 0h-133l-28 161h-241l-74 -161h-113l319 667h148zM200 254h189l-52 296zM526 803l-227 -76l-17 52l215 93z" />
    <glyph glyph-name="Acircumflex" unicode="&#xc2;" horiz-adv-x="603" 
d="M561 0h-133l-28 161h-241l-74 -161h-113l319 667h148zM200 254h189l-52 296zM396 867l146 -127l-94 -10l-62 54l-100 -54l-91 10z" />
    <glyph glyph-name="Atilde" unicode="&#xc3;" horiz-adv-x="603" 
d="M561 0h-133l-28 161h-241l-74 -161h-113l319 667h148zM200 254h189l-52 296zM510 847l32 -47q-53 -60 -114 -60q-27 0 -70 21q-40 20 -55 20q-25 0 -71 -38l-29 47q59 59 114 59q25 0 64 -19q42 -21 65 -21q30 0 64 38z" />
    <glyph glyph-name="Adieresis" unicode="&#xc4;" horiz-adv-x="603" 
d="M561 0h-133l-28 161h-241l-74 -161h-113l319 667h148zM200 254h189l-52 296zM341 791q0 -25 -17 -39t-39 -14q-24 0 -39 16t-15 37t14.5 37.5t39.5 16.5q22 0 39 -14t17 -40zM511 791q0 -25 -17 -39t-39 -14q-24 0 -39 16t-15 37t14.5 37.5t39.5 16.5q22 0 39 -14t17 -40
z" />
    <glyph glyph-name="Aring" unicode="&#xc5;" horiz-adv-x="603" 
d="M561 0h-133l-28 161h-241l-74 -161h-113l319 667h148zM200 254h189l-52 296zM463 799q0 -35 -26 -62t-65 -27q-37 0 -63.5 26.5t-26.5 63.5q0 38 26.5 64.5t63.5 26.5q30 0 60.5 -22t30.5 -70zM412 798q0 42 -37 42q-15 0 -28.5 -8.5t-13.5 -30.5q0 -15 10 -27.5
t30 -12.5q17 0 26.5 9.5t10.5 18.5z" />
    <glyph glyph-name="AE" unicode="&#xc6;" horiz-adv-x="838" 
d="M767 0h-442l29 171h-191l-109 -171h-112l437 667h487l-17 -105h-311l-29 -173h259l-16 -98h-259l-31 -186h322zM222 262h147l51 306z" />
    <glyph glyph-name="Ccedilla" unicode="&#xc7;" horiz-adv-x="591" 
d="M286 -17l-15 -31q100 2 100 -67q0 -36 -31 -66t-84 -30q-43 0 -106 30l23 40q53 -25 77 -25q23 0 37.5 11.5t14.5 29.5q0 19 -16.5 28.5t-37.5 9t-41 -0.5l37 75q-28 7 -47.5 14t-52.5 34.5t-55 69.5q-39 72 -39 171q0 102 35 193.5t108 153t169 61.5q111 0 171.5 -63.5
t69.5 -170.5l-108 -20q-2 20 -4.5 33t-11.5 38.5t-22 41t-38.5 28.5t-58.5 13q-86 0 -134 -100q-24 -52 -36.5 -122t-12.5 -113q0 -51 14.5 -86.5t37 -50.5t40.5 -20.5t35 -5.5q57 0 97.5 42t60.5 95l97 -41q-86 -203 -273 -199z" />
    <glyph glyph-name="Egrave" unicode="&#xc8;" horiz-adv-x="537" 
d="M465 0h-433l112 667h421l-18 -105h-302l-29 -173h250l-16 -99h-250l-31 -185h314zM185 803l32 69l192 -93l-20 -52z" />
    <glyph glyph-name="Eacute" unicode="&#xc9;" horiz-adv-x="537" 
d="M465 0h-433l112 667h421l-18 -105h-302l-29 -173h250l-16 -99h-250l-31 -185h314zM526 803l-227 -76l-17 52l215 93z" />
    <glyph glyph-name="Ecircumflex" unicode="&#xca;" horiz-adv-x="537" 
d="M465 0h-433l112 667h421l-18 -105h-302l-29 -173h250l-16 -99h-250l-31 -185h314zM386 867l146 -127l-94 -10l-62 54l-100 -54l-91 10z" />
    <glyph glyph-name="Edieresis" unicode="&#xcb;" horiz-adv-x="537" 
d="M465 0h-433l112 667h421l-18 -105h-302l-29 -173h250l-16 -99h-250l-31 -185h314zM341 791q0 -25 -17 -39t-39 -14q-24 0 -39 16t-15 37t14.5 37.5t39.5 16.5q22 0 39 -14t17 -40zM511 791q0 -25 -17 -39t-39 -14q-24 0 -39 16t-15 37t14.5 37.5t39.5 16.5q22 0 39 -14
t17 -40z" />
    <glyph glyph-name="Igrave" unicode="&#xcc;" horiz-adv-x="270" 
d="M155 0h-123l111 667h124zM65 803l32 69l192 -93l-20 -52z" />
    <glyph glyph-name="Iacute" unicode="&#xcd;" horiz-adv-x="270" 
d="M155 0h-123l111 667h124zM386 803l-227 -76l-17 52l215 93z" />
    <glyph glyph-name="Icircumflex" unicode="&#xce;" horiz-adv-x="270" 
d="M155 0h-123l111 667h124zM236 867l146 -127l-94 -10l-62 54l-100 -54l-91 10z" />
    <glyph glyph-name="Idieresis" unicode="&#xcf;" horiz-adv-x="270" 
d="M155 0h-123l111 667h124zM191 791q0 -25 -17 -39t-39 -14q-24 0 -39 16t-15 37t14.5 37.5t39.5 16.5q22 0 39 -14t17 -40zM361 791q0 -25 -17 -39t-39 -14q-24 0 -39 16t-15 37t14.5 37.5t39.5 16.5q22 0 39 -14t17 -40z" />
    <glyph glyph-name="Eth" unicode="&#xd0;" horiz-adv-x="640" 
d="M33 0l49 290h-67l16 99h66l47 278h195q30 0 49.5 -1.5t51.5 -8.5t60.5 -26t51.5 -49q63 -83 63 -212q0 -175 -114 -294q-34 -35 -80 -53t-76 -20.5t-82 -2.5h-230zM250 568l-31 -179h157l-16 -99h-156l-33 -189h106q29 0 46 2t46.5 16.5t54.5 42.5q34 39 49.5 104.5
t15.5 121.5q0 80 -35 128q-37 52 -132 52h-72z" />
    <glyph glyph-name="Ntilde" unicode="&#xd1;" horiz-adv-x="649" 
d="M535 0h-96l-227 501l-84 -501h-96l112 667h123l207 -458l77 458h95zM540 847l32 -47q-53 -60 -114 -60q-27 0 -70 21q-40 20 -55 20q-25 0 -71 -38l-29 47q59 59 114 59q25 0 64 -19q42 -21 65 -21q30 0 64 38z" />
    <glyph glyph-name="Ograve" unicode="&#xd2;" horiz-adv-x="647" 
d="M305 -18q-106 0 -180 82t-74 220q0 51 11 104.5t36.5 107t61 95.5t89 68t117.5 26q128 0 193.5 -85.5t65.5 -215.5q0 -54 -12 -109t-37.5 -108t-62.5 -94t-91 -66t-117 -25zM310 82q93 0 141 101q47 104 47 228q0 174 -138 174q-76 0 -121 -79q-25 -42 -43 -111t-18 -132
q0 -86 31 -131q18 -26 47.5 -38t53.5 -12zM205 803l32 69l192 -93l-20 -52z" />
    <glyph glyph-name="Oacute" unicode="&#xd3;" horiz-adv-x="647" 
d="M305 -18q-106 0 -180 82t-74 220q0 51 11 104.5t36.5 107t61 95.5t89 68t117.5 26q128 0 193.5 -85.5t65.5 -215.5q0 -54 -12 -109t-37.5 -108t-62.5 -94t-91 -66t-117 -25zM310 82q93 0 141 101q47 104 47 228q0 174 -138 174q-76 0 -121 -79q-25 -42 -43 -111t-18 -132
q0 -86 31 -131q18 -26 47.5 -38t53.5 -12zM561 803l-227 -76l-17 52l215 93z" />
    <glyph glyph-name="Ocircumflex" unicode="&#xd4;" horiz-adv-x="647" 
d="M305 -18q-106 0 -180 82t-74 220q0 51 11 104.5t36.5 107t61 95.5t89 68t117.5 26q128 0 193.5 -85.5t65.5 -215.5q0 -54 -12 -109t-37.5 -108t-62.5 -94t-91 -66t-117 -25zM310 82q93 0 141 101q47 104 47 228q0 174 -138 174q-76 0 -121 -79q-25 -42 -43 -111t-18 -132
q0 -86 31 -131q18 -26 47.5 -38t53.5 -12zM391 867l146 -127l-94 -10l-62 54l-100 -54l-91 10z" />
    <glyph glyph-name="Otilde" unicode="&#xd5;" horiz-adv-x="647" 
d="M305 -18q-106 0 -180 82t-74 220q0 51 11 104.5t36.5 107t61 95.5t89 68t117.5 26q128 0 193.5 -85.5t65.5 -215.5q0 -54 -12 -109t-37.5 -108t-62.5 -94t-91 -66t-117 -25zM310 82q93 0 141 101q47 104 47 228q0 174 -138 174q-76 0 -121 -79q-25 -42 -43 -111t-18 -132
q0 -86 31 -131q18 -26 47.5 -38t53.5 -12zM515 847l32 -47q-53 -60 -114 -60q-27 0 -70 21q-40 20 -55 20q-25 0 -71 -38l-29 47q59 59 114 59q25 0 64 -19q42 -21 65 -21q30 0 64 38z" />
    <glyph glyph-name="Odieresis" unicode="&#xd6;" horiz-adv-x="647" 
d="M305 -18q-106 0 -180 82t-74 220q0 51 11 104.5t36.5 107t61 95.5t89 68t117.5 26q128 0 193.5 -85.5t65.5 -215.5q0 -54 -12 -109t-37.5 -108t-62.5 -94t-91 -66t-117 -25zM310 82q93 0 141 101q47 104 47 228q0 174 -138 174q-76 0 -121 -79q-25 -42 -43 -111t-18 -132
q0 -86 31 -131q18 -26 47.5 -38t53.5 -12zM361 791q0 -25 -17 -39t-39 -14q-24 0 -39 16t-15 37t14.5 37.5t39.5 16.5q22 0 39 -14t17 -40zM531 791q0 -25 -17 -39t-39 -14q-24 0 -39 16t-15 37t14.5 37.5t39.5 16.5q22 0 39 -14t17 -40z" />
    <glyph glyph-name="multiply" unicode="&#xd7;" 
d="M455 550l66 -67l-147 -146l147 -147l-66 -66l-146 147l-147 -147l-66 66l147 147l-147 147l65 66l147 -147z" />
    <glyph glyph-name="Oslash" unicode="&#xd8;" horiz-adv-x="647" 
d="M142 46l-56 -61h-96l102 123q-41 79 -41 175q0 65 19.5 133.5t56.5 129.5t99.5 100t138.5 39q93 0 170 -59l49 54h96l-96 -114q41 -81 41 -179q0 -104 -37 -195.5t-111 -150.5t-170 -59q-39 0 -71.5 10t-49.5 21t-44 33zM493 468l-278 -342q36 -44 98 -44q42 0 74.5 21.5
t51.5 58t32 74t18.5 79t7 63.5t1.5 37q0 23 -5 53zM182 204l278 341q-44 40 -100 40q-48 0 -84.5 -34t-54 -78t-28.5 -98.5t-13 -83.5t-2 -44t4 -43z" />
    <glyph glyph-name="Ugrave" unicode="&#xd9;" horiz-adv-x="605" 
d="M608 667l-72 -431q-6 -39 -11.5 -60.5t-17.5 -53.5t-33 -56t-52 -43q-60 -38 -140 -38q-92 0 -155.5 49.5t-63.5 151.5q0 14 9 95l65 386h122l-65 -392q-11 -61 -11 -86q0 -28 11.5 -49t25 -30.5t33 -15t28 -6t16.5 -0.5q34 0 59.5 11t40 25.5t25 42.5t14 46t9.5 52
l68 402h95zM210 803l32 69l192 -93l-20 -52z" />
    <glyph glyph-name="Uacute" unicode="&#xda;" horiz-adv-x="605" 
d="M608 667l-72 -431q-6 -39 -11.5 -60.5t-17.5 -53.5t-33 -56t-52 -43q-60 -38 -140 -38q-92 0 -155.5 49.5t-63.5 151.5q0 14 9 95l65 386h122l-65 -392q-11 -61 -11 -86q0 -28 11.5 -49t25 -30.5t33 -15t28 -6t16.5 -0.5q34 0 59.5 11t40 25.5t25 42.5t14 46t9.5 52
l68 402h95zM586 803l-227 -76l-17 52l215 93z" />
    <glyph glyph-name="Ucircumflex" unicode="&#xdb;" horiz-adv-x="605" 
d="M608 667l-72 -431q-6 -39 -11.5 -60.5t-17.5 -53.5t-33 -56t-52 -43q-60 -38 -140 -38q-92 0 -155.5 49.5t-63.5 151.5q0 14 9 95l65 386h122l-65 -392q-11 -61 -11 -86q0 -28 11.5 -49t25 -30.5t33 -15t28 -6t16.5 -0.5q34 0 59.5 11t40 25.5t25 42.5t14 46t9.5 52
l68 402h95zM406 867l146 -127l-94 -10l-62 54l-100 -54l-91 10z" />
    <glyph glyph-name="Udieresis" unicode="&#xdc;" horiz-adv-x="605" 
d="M608 667l-72 -431q-6 -39 -11.5 -60.5t-17.5 -53.5t-33 -56t-52 -43q-60 -38 -140 -38q-92 0 -155.5 49.5t-63.5 151.5q0 14 9 95l65 386h122l-65 -392q-11 -61 -11 -86q0 -28 11.5 -49t25 -30.5t33 -15t28 -6t16.5 -0.5q34 0 59.5 11t40 25.5t25 42.5t14 46t9.5 52
l68 402h95zM361 791q0 -25 -17 -39t-39 -14q-24 0 -39 16t-15 37t14.5 37.5t39.5 16.5q22 0 39 -14t17 -40zM531 791q0 -25 -17 -39t-39 -14q-24 0 -39 16t-15 37t14.5 37.5t39.5 16.5q22 0 39 -14t17 -40z" />
    <glyph glyph-name="Yacute" unicode="&#xdd;" horiz-adv-x="518" 
d="M289 0h-125l47 281l-169 386h136l119 -288l189 288h116l-267 -392zM536 803l-227 -76l-17 52l215 93z" />
    <glyph glyph-name="Thorn" unicode="&#xde;" horiz-adv-x="604" 
d="M157 0h-125l112 667h124l-15 -94h54q93 0 130.5 -4.5t72.5 -23.5q43 -25 65 -68.5t22 -92.5t-21 -93t-55 -71q-54 -46 -174 -46h-161zM330 476h-93l-35 -204h119q53 0 73 3.5t42 21.5q35 28 35 84q0 44 -26 69q-18 18 -39.5 22t-75.5 4z" />
    <glyph glyph-name="germandbls" unicode="&#xdf;" horiz-adv-x="561" 
d="M28 0l68 407h-56l15 90h56q15 116 72 180q71 77 181 77q88 0 136 -44t48 -102q0 -14 -4 -30t-16 -39t-40 -43t-70 -30q-6 -2 -37.5 -7.5t-34.5 -6.5q-12 -4 -12 -14q0 -14 40 -32q52 -23 78.5 -39.5t47.5 -44.5q33 -43 33 -101q0 -35 -13.5 -71t-39.5 -67t-70 -51
t-98 -20q-57 0 -116 24l30 81q44 -16 84 -16q53 0 83.5 25t30.5 60q0 23 -15 43t-30.5 30.5t-40.5 24.5q-21 12 -33.5 20.5t-28 22t-22.5 30t-7 36.5q0 45 24 77t56 42q57 17 82.5 35t25.5 54q0 29 -20.5 51t-59.5 22q-22 0 -38 -5.5t-34.5 -22t-32.5 -54t-24 -95.5
l-83 -497h-115z" />
    <glyph glyph-name="agrave" unicode="&#xe0;" horiz-adv-x="535" 
d="M437 0h-108q-2 49 8 107q-30 -64 -75.5 -92t-94.5 -28q-69 0 -110 42t-41 101q0 100 100 147q74 35 204 35q26 0 52 -2q3 20 3 35q0 44 -29.5 62.5t-66.5 18.5q-35 0 -61 -13.5t-34.5 -25t-19.5 -29.5l-97 30q29 58 85 89.5t132 31.5q91 0 145.5 -41.5t54.5 -112.5
q0 -26 -24 -156q-25 -137 -25 -170q0 -13 2 -29zM361 253q-126 -5 -176 -33.5t-50 -78.5q0 -31 21 -49t54 -18q55 0 98 51q22 27 31.5 51.5t21.5 76.5zM233 726l167 -107l-24 -52l-182 96z" />
    <glyph glyph-name="aacute" unicode="&#xe1;" horiz-adv-x="535" 
d="M437 0h-108q-2 49 8 107q-30 -64 -75.5 -92t-94.5 -28q-69 0 -110 42t-41 101q0 100 100 147q74 35 204 35q26 0 52 -2q3 20 3 35q0 44 -29.5 62.5t-66.5 18.5q-35 0 -61 -13.5t-34.5 -25t-19.5 -29.5l-97 30q29 58 85 89.5t132 31.5q91 0 145.5 -41.5t54.5 -112.5
q0 -26 -24 -156q-25 -137 -25 -170q0 -13 2 -29zM361 253q-126 -5 -176 -33.5t-50 -78.5q0 -31 21 -49t54 -18q55 0 98 51q22 27 31.5 51.5t21.5 76.5zM435 726l32 -67l-203 -92l-21 52z" />
    <glyph glyph-name="acircumflex" unicode="&#xe2;" horiz-adv-x="535" 
d="M437 0h-108q-2 49 8 107q-30 -64 -75.5 -92t-94.5 -28q-69 0 -110 42t-41 101q0 100 100 147q74 35 204 35q26 0 52 -2q3 20 3 35q0 44 -29.5 62.5t-66.5 18.5q-35 0 -61 -13.5t-34.5 -25t-19.5 -29.5l-97 30q29 58 85 89.5t132 31.5q91 0 145.5 -41.5t54.5 -112.5
q0 -26 -24 -156q-25 -137 -25 -170q0 -13 2 -29zM361 253q-126 -5 -176 -33.5t-50 -78.5q0 -31 21 -49t54 -18q55 0 98 51q22 27 31.5 51.5t21.5 76.5zM348 721l140 -141l-87 -10l-64 64l-99 -64l-87 10z" />
    <glyph glyph-name="atilde" unicode="&#xe3;" horiz-adv-x="535" 
d="M437 0h-108q-2 49 8 107q-30 -64 -75.5 -92t-94.5 -28q-69 0 -110 42t-41 101q0 100 100 147q74 35 204 35q26 0 52 -2q3 20 3 35q0 44 -29.5 62.5t-66.5 18.5q-35 0 -61 -13.5t-34.5 -25t-19.5 -29.5l-97 30q29 58 85 89.5t132 31.5q91 0 145.5 -41.5t54.5 -112.5
q0 -26 -24 -156q-25 -137 -25 -170q0 -13 2 -29zM361 253q-126 -5 -176 -33.5t-50 -78.5q0 -31 21 -49t54 -18q55 0 98 51q22 27 31.5 51.5t21.5 76.5zM443 691l26 -48q-44 -57 -104 -57q-28 0 -72 23q-33 18 -49 18q-15 0 -28.5 -8t-39.5 -31l-26 47q56 60 106 60
q29 0 64 -19q41 -21 60 -21q13 0 25 5.5t18 11t20 19.5z" />
    <glyph glyph-name="adieresis" unicode="&#xe4;" horiz-adv-x="535" 
d="M437 0h-108q-2 49 8 107q-30 -64 -75.5 -92t-94.5 -28q-69 0 -110 42t-41 101q0 100 100 147q74 35 204 35q26 0 52 -2q3 20 3 35q0 44 -29.5 62.5t-66.5 18.5q-35 0 -61 -13.5t-34.5 -25t-19.5 -29.5l-97 30q29 58 85 89.5t132 31.5q91 0 145.5 -41.5t54.5 -112.5
q0 -26 -24 -156q-25 -137 -25 -170q0 -13 2 -29zM361 253q-126 -5 -176 -33.5t-50 -78.5q0 -31 21 -49t54 -18q55 0 98 51q22 27 31.5 51.5t21.5 76.5zM306 633q0 -25 -17 -39t-39 -14q-24 0 -39 16t-15 37t14.5 37.5t39.5 16.5q22 0 39 -14t17 -40zM469 633q0 -25 -17 -39
t-39 -14q-24 0 -39 16t-15 37t14.5 37.5t39.5 16.5q22 0 39 -14t17 -40z" />
    <glyph glyph-name="aring" unicode="&#xe5;" horiz-adv-x="535" 
d="M437 0h-108q-2 49 8 107q-30 -64 -75.5 -92t-94.5 -28q-69 0 -110 42t-41 101q0 100 100 147q74 35 204 35q26 0 52 -2q3 20 3 35q0 44 -29.5 62.5t-66.5 18.5q-35 0 -61 -13.5t-34.5 -25t-19.5 -29.5l-97 30q29 58 85 89.5t132 31.5q91 0 145.5 -41.5t54.5 -112.5
q0 -26 -24 -156q-25 -137 -25 -170q0 -13 2 -29zM361 253q-126 -5 -176 -33.5t-50 -78.5q0 -31 21 -49t54 -18q55 0 98 51q22 27 31.5 51.5t21.5 76.5zM427 642q0 -35 -26 -62t-65 -27q-38 0 -64.5 26.5t-26.5 63.5q0 38 26.5 65t64.5 27q30 0 60.5 -22.5t30.5 -70.5z
M376 642q0 8 -2 16t-11.5 17t-24.5 9q-8 0 -16.5 -2.5t-17 -12t-8.5 -25.5q0 -15 10 -27.5t30 -12.5q17 0 27 10t11.5 17t1.5 11z" />
    <glyph glyph-name="ae" unicode="&#xe6;" horiz-adv-x="829" 
d="M164 359l-97 31q65 118 216 118q108 0 158 -61q60 61 154 61q90 0 146 -59.5t56 -160.5q0 -20 -4 -54h-342q-3 -33 -3 -37q0 -53 26.5 -88t78.5 -35q26 0 46.5 9t34.5 25.5t21 27.5t14 28l98 -28l-17.5 -31.5t-27 -37t-41.5 -40t-56.5 -27t-76.5 -12.5q-76 0 -120 35
t-63 82q-18 -25 -30 -39.5t-36.5 -36t-56 -32t-70.5 -10.5q-72 0 -114 41.5t-42 101.5q0 16 3.5 32.5t13.5 41t35.5 46.5t63.5 35q94 32 238 25q3 15 3 30q0 43 -26 65q-26 21 -71 21q-34 0 -59.5 -14t-33.5 -24.5t-19 -28.5zM360 252q-56 -1 -128 -15q-100 -19 -100 -96
q0 -34 22.5 -50.5t53.5 -16.5q65 0 110 67q17 24 24 44t18 67zM465 305h228q2 48 -20.5 86t-81.5 38q-49 0 -82 -36.5t-44 -87.5z" />
    <glyph glyph-name="ccedilla" unicode="&#xe7;" horiz-adv-x="478" 
d="M228 -11l-16 -34q30 0 57.5 -16t27.5 -50q0 -31 -30 -58.5t-75 -27.5q-29 0 -91 29l22 39q36 -23 68 -23q42 0 42 33q0 36 -82 36l38 76q-48 11 -81.5 37.5t-48 62t-19.5 63.5t-5 57q0 120 67 209t171 89q82 0 131 -45.5t64 -128.5l-93 -17q-19 97 -97 97
q-41 0 -72 -35.5t-44.5 -83t-13.5 -97.5q0 -60 24 -89q27 -30 69 -30q70 0 111 98l92 -33q-23 -50 -50 -83.5t-56.5 -48.5t-54 -20.5t-55.5 -5.5z" />
    <glyph glyph-name="egrave" unicode="&#xe8;" horiz-adv-x="521" 
d="M486 235h-342q-3 -18 -3 -37q0 -16 3 -32.5t12.5 -39.5t32.5 -37.5t57 -14.5q26 0 47 9.5t35 27t21 28.5t14 27l97 -26q-69 -152 -217 -152q-100 0 -154.5 61t-54.5 158q0 127 69.5 214.5t182.5 87.5q84 0 137 -48q65 -63 65 -187q0 -17 -2 -39zM156 306h228
q0 126 -98 126q-100 0 -130 -126zM175 726l167 -107l-24 -52l-182 96z" />
    <glyph glyph-name="eacute" unicode="&#xe9;" horiz-adv-x="521" 
d="M486 235h-342q-3 -18 -3 -37q0 -16 3 -32.5t12.5 -39.5t32.5 -37.5t57 -14.5q26 0 47 9.5t35 27t21 28.5t14 27l97 -26q-69 -152 -217 -152q-100 0 -154.5 61t-54.5 158q0 127 69.5 214.5t182.5 87.5q84 0 137 -48q65 -63 65 -187q0 -17 -2 -39zM156 306h228
q0 126 -98 126q-100 0 -130 -126zM428 726l32 -67l-203 -92l-21 52z" />
    <glyph glyph-name="ecircumflex" unicode="&#xea;" horiz-adv-x="521" 
d="M486 235h-342q-3 -18 -3 -37q0 -16 3 -32.5t12.5 -39.5t32.5 -37.5t57 -14.5q26 0 47 9.5t35 27t21 28.5t14 27l97 -26q-69 -152 -217 -152q-100 0 -154.5 61t-54.5 158q0 127 69.5 214.5t182.5 87.5q84 0 137 -48q65 -63 65 -187q0 -17 -2 -39zM156 306h228
q0 126 -98 126q-100 0 -130 -126zM341 721l140 -141l-87 -10l-64 64l-99 -64l-87 10z" />
    <glyph glyph-name="edieresis" unicode="&#xeb;" horiz-adv-x="521" 
d="M486 235h-342q-3 -18 -3 -37q0 -16 3 -32.5t12.5 -39.5t32.5 -37.5t57 -14.5q26 0 47 9.5t35 27t21 28.5t14 27l97 -26q-69 -152 -217 -152q-100 0 -154.5 61t-54.5 158q0 127 69.5 214.5t182.5 87.5q84 0 137 -48q65 -63 65 -187q0 -17 -2 -39zM156 306h228
q0 126 -98 126q-100 0 -130 -126zM299 633q0 -25 -17 -39t-39 -14q-24 0 -39 16t-15 37t14.5 37.5t39.5 16.5q22 0 39 -14t17 -40zM462 633q0 -25 -17 -39t-39 -14q-24 0 -39 16t-15 37t14.5 37.5t39.5 16.5q22 0 39 -14t17 -40z" />
    <glyph glyph-name="igrave" unicode="&#xec;" horiz-adv-x="248" 
d="M140 0h-115l83 497h115zM89 726l167 -107l-24 -52l-182 96z" />
    <glyph glyph-name="iacute" unicode="&#xed;" horiz-adv-x="248" 
d="M140 0h-115l83 497h115zM291 726l32 -67l-203 -92l-21 52z" />
    <glyph glyph-name="icircumflex" unicode="&#xee;" horiz-adv-x="248" 
d="M140 0h-115l83 497h115zM204 721l140 -141l-87 -10l-64 64l-99 -64l-87 10z" />
    <glyph glyph-name="idieresis" unicode="&#xef;" horiz-adv-x="248" 
d="M140 0h-115l83 497h115zM162 633q0 -25 -17 -39t-39 -14q-24 0 -39 16t-15 37t14.5 37.5t39.5 16.5q22 0 39 -14t17 -40zM325 633q0 -25 -17 -39t-39 -14q-24 0 -39 16t-15 37t14.5 37.5t39.5 16.5q22 0 39 -14t17 -40z" />
    <glyph glyph-name="eth" unicode="&#xf0;" horiz-adv-x="525" 
d="M144 203q0 -126 100 -126q60 0 89 50q41 66 41 160q0 18 -4 36t-13.5 37.5t-30 32t-49.5 12.5q-70 0 -103 -71q-11 -25 -18.5 -57.5t-9.5 -50t-2 -23.5zM557 651l-134 -52q71 -128 71 -276q0 -44 -7.5 -88t-26 -89.5t-46.5 -79.5t-73 -56t-101 -22q-34 0 -67 10t-66 33
t-53.5 69t-20.5 108q0 24 3 52.5t20 78t47 80.5q72 75 178 75q23 0 40 -4t25 -8t24 -14q-13 53 -37 96l-155 -59l-29 65l147 57q-11 16 -33 44l84 33q23 -24 36 -44l145 56z" />
    <glyph glyph-name="ntilde" unicode="&#xf1;" horiz-adv-x="537" 
d="M429 0h-109l50 298q6 31 6 57q0 25 -14.5 45t-47.5 20q-49 0 -87.5 -49t-54.5 -147l-37 -224h-110l83 497h102l-20 -117q32 56 48 76.5t45 35.5q33 17 71 17q52 0 92.5 -36t40.5 -102q0 -25 -10 -83zM444 691l26 -48q-44 -57 -104 -57q-28 0 -72 23q-33 18 -49 18
q-15 0 -28.5 -8t-39.5 -31l-26 47q56 60 106 60q29 0 64 -19q41 -21 60 -21q13 0 25 5.5t18 11t20 19.5z" />
    <glyph glyph-name="ograve" unicode="&#xf2;" horiz-adv-x="525" 
d="M491 278q0 -36 -8.5 -74.5t-28 -77.5t-47.5 -69.5t-69.5 -50t-90.5 -19.5q-22 0 -45 3.5t-54.5 17.5t-55.5 37t-41 67.5t-17 102.5q0 116 68.5 204t184.5 88q91 0 147.5 -60.5t56.5 -168.5zM377 289q0 129 -100 129q-70 0 -104 -82q-26 -65 -26 -140q0 -38 11 -64t29 -37
t32.5 -15t28.5 -4q77 0 110 99q19 59 19 114zM177 726l167 -107l-24 -52l-182 96z" />
    <glyph glyph-name="oacute" unicode="&#xf3;" horiz-adv-x="525" 
d="M491 278q0 -36 -8.5 -74.5t-28 -77.5t-47.5 -69.5t-69.5 -50t-90.5 -19.5q-22 0 -45 3.5t-54.5 17.5t-55.5 37t-41 67.5t-17 102.5q0 116 68.5 204t184.5 88q91 0 147.5 -60.5t56.5 -168.5zM377 289q0 129 -100 129q-70 0 -104 -82q-26 -65 -26 -140q0 -38 11 -64t29 -37
t32.5 -15t28.5 -4q77 0 110 99q19 59 19 114zM430 726l32 -67l-203 -92l-21 52z" />
    <glyph glyph-name="ocircumflex" unicode="&#xf4;" horiz-adv-x="525" 
d="M491 278q0 -36 -8.5 -74.5t-28 -77.5t-47.5 -69.5t-69.5 -50t-90.5 -19.5q-22 0 -45 3.5t-54.5 17.5t-55.5 37t-41 67.5t-17 102.5q0 116 68.5 204t184.5 88q91 0 147.5 -60.5t56.5 -168.5zM377 289q0 129 -100 129q-70 0 -104 -82q-26 -65 -26 -140q0 -38 11 -64t29 -37
t32.5 -15t28.5 -4q77 0 110 99q19 59 19 114zM343 721l140 -141l-87 -10l-64 64l-99 -64l-87 10z" />
    <glyph glyph-name="otilde" unicode="&#xf5;" horiz-adv-x="525" 
d="M491 278q0 -36 -8.5 -74.5t-28 -77.5t-47.5 -69.5t-69.5 -50t-90.5 -19.5q-22 0 -45 3.5t-54.5 17.5t-55.5 37t-41 67.5t-17 102.5q0 116 68.5 204t184.5 88q91 0 147.5 -60.5t56.5 -168.5zM377 289q0 129 -100 129q-70 0 -104 -82q-26 -65 -26 -140q0 -38 11 -64t29 -37
t32.5 -15t28.5 -4q77 0 110 99q19 59 19 114zM438 691l26 -48q-44 -57 -104 -57q-28 0 -72 23q-33 18 -49 18q-15 0 -28.5 -8t-39.5 -31l-26 47q56 60 106 60q29 0 64 -19q41 -21 60 -21q13 0 25 5.5t18 11t20 19.5z" />
    <glyph glyph-name="odieresis" unicode="&#xf6;" horiz-adv-x="525" 
d="M491 278q0 -36 -8.5 -74.5t-28 -77.5t-47.5 -69.5t-69.5 -50t-90.5 -19.5q-22 0 -45 3.5t-54.5 17.5t-55.5 37t-41 67.5t-17 102.5q0 116 68.5 204t184.5 88q91 0 147.5 -60.5t56.5 -168.5zM377 289q0 129 -100 129q-70 0 -104 -82q-26 -65 -26 -140q0 -38 11 -64t29 -37
t32.5 -15t28.5 -4q77 0 110 99q19 59 19 114zM301 633q0 -25 -17 -39t-39 -14q-24 0 -39 16t-15 37t14.5 37.5t39.5 16.5q22 0 39 -14t17 -40zM464 633q0 -25 -17 -39t-39 -14q-24 0 -39 16t-15 37t14.5 37.5t39.5 16.5q22 0 39 -14t17 -40z" />
    <glyph glyph-name="divide" unicode="&#xf7;" 
d="M307 227q25 0 42.5 -17.5t17.5 -42.5t-17.5 -42.5t-42.5 -17.5t-42.5 17.5t-17.5 42.5t17.5 42.5t42.5 17.5zM307 566q25 0 42.5 -17.5t17.5 -42.5t-17.5 -42.5t-42.5 -17.5t-42.5 17.5t-17.5 42.5t17.5 42.5t42.5 17.5zM555 383v-93h-494v93h494z" />
    <glyph glyph-name="oslash" unicode="&#xf8;" horiz-adv-x="525" 
d="M111 29l-37 -43h-73l70 85q-36 58 -36 143q0 118 66.5 205.5t182.5 87.5q78 0 128 -42l38 43h71l-70 -82q40 -62 40 -143q0 -121 -69.5 -208.5t-177.5 -87.5q-76 0 -133 42zM371 343l-195 -239q30 -28 70 -28q32 0 57 17t38.5 41.5t22 56.5t11 56.5t2.5 47.5q0 24 -6 48z
M151 155l193 239q-27 24 -67 24q-70 0 -104 -82q-26 -65 -26 -140q0 -20 4 -41z" />
    <glyph glyph-name="ugrave" unicode="&#xf9;" horiz-adv-x="529" 
d="M499 497l-83 -497h-102l18 108q-28 -53 -66 -83q-44 -34 -102 -34q-56 0 -88.5 36.5t-32.5 84.5q0 24 13 98l48 287h109l-52 -308q-7 -42 -7 -53q0 -24 15 -38t40 -14q32 0 60.5 21.5t46.5 49.5q23 37 38 132l35 210h110zM169 726l167 -107l-24 -52l-182 96z" />
    <glyph glyph-name="uacute" unicode="&#xfa;" horiz-adv-x="529" 
d="M499 497l-83 -497h-102l18 108q-28 -53 -66 -83q-44 -34 -102 -34q-56 0 -88.5 36.5t-32.5 84.5q0 24 13 98l48 287h109l-52 -308q-7 -42 -7 -53q0 -24 15 -38t40 -14q32 0 60.5 21.5t46.5 49.5q23 37 38 132l35 210h110zM432 726l32 -67l-203 -92l-21 52z" />
    <glyph glyph-name="ucircumflex" unicode="&#xfb;" horiz-adv-x="529" 
d="M499 497l-83 -497h-102l18 108q-28 -53 -66 -83q-44 -34 -102 -34q-56 0 -88.5 36.5t-32.5 84.5q0 24 13 98l48 287h109l-52 -308q-7 -42 -7 -53q0 -24 15 -38t40 -14q32 0 60.5 21.5t46.5 49.5q23 37 38 132l35 210h110zM345 721l140 -141l-87 -10l-64 64l-99 -64
l-87 10z" />
    <glyph glyph-name="udieresis" unicode="&#xfc;" horiz-adv-x="529" 
d="M499 497l-83 -497h-102l18 108q-28 -53 -66 -83q-44 -34 -102 -34q-56 0 -88.5 36.5t-32.5 84.5q0 24 13 98l48 287h109l-52 -308q-7 -42 -7 -53q0 -24 15 -38t40 -14q32 0 60.5 21.5t46.5 49.5q23 37 38 132l35 210h110zM303 633q0 -25 -17 -39t-39 -14q-24 0 -39 16
t-15 37t14.5 37.5t39.5 16.5q22 0 39 -14t17 -40zM466 633q0 -25 -17 -39t-39 -14q-24 0 -39 16t-15 37t14.5 37.5t39.5 16.5q22 0 39 -14t17 -40z" />
    <glyph glyph-name="yacute" unicode="&#xfd;" horiz-adv-x="455" 
d="M-28 -177l5 94q28 -4 65 -4q20 0 32.5 2t32 18.5t34.5 48.5l19 39l-122 476h117l76 -343l164 343h95l-255 -515q-23 -48 -36.5 -70.5t-37 -48t-54 -35t-75.5 -9.5q-32 0 -60 4zM395 726l32 -67l-203 -92l-21 52z" />
    <glyph glyph-name="thorn" unicode="&#xfe;" horiz-adv-x="528" 
d="M106 -174h-110l141 841h109l-43 -256q12 19 20.5 31t26.5 31.5t41.5 29.5t51.5 10q70 0 113.5 -56.5t43.5 -152.5q0 -71 -22 -141.5t-72.5 -123.5t-117.5 -53q-102 0 -139 101zM386 295q0 129 -78 129q-43 0 -76 -39t-47.5 -89t-14.5 -97q0 -38 11 -65t28.5 -38.5t31 -16
t26.5 -4.5q34 0 59 26t37 65t17.5 71.5t5.5 57.5z" />
    <glyph glyph-name="ydieresis" unicode="&#xff;" horiz-adv-x="455" 
d="M-28 -177l5 94q28 -4 65 -4q20 0 32.5 2t32 18.5t34.5 48.5l19 39l-122 476h117l76 -343l164 343h95l-255 -515q-23 -48 -36.5 -70.5t-37 -48t-54 -35t-75.5 -9.5q-32 0 -60 4zM266 633q0 -25 -17 -39t-39 -14q-24 0 -39 16t-15 37t14.5 37.5t39.5 16.5q22 0 39 -14
t17 -40zM429 633q0 -25 -17 -39t-39 -14q-24 0 -39 16t-15 37t14.5 37.5t39.5 16.5q22 0 39 -14t17 -40z" />
    <glyph glyph-name="dotlessi" unicode="&#x131;" horiz-adv-x="248" 
d="M140 0h-115l83 497h115z" />
    <glyph glyph-name="Lslash" unicode="&#x141;" horiz-adv-x="495" 
d="M439 0h-400l44 259l-74 -44l17 106l74 44l51 302h126l-42 -252l146 84l-18 -105l-146 -85l-34 -204h273z" />
    <glyph glyph-name="lslash" unicode="&#x142;" horiz-adv-x="255" 
d="M143 0h-114l50 302l-68 -49l12 73l68 49l49 292h115l-41 -247l67 46l-12 -74l-68 -45z" />
    <glyph glyph-name="OE" unicode="&#x152;" horiz-adv-x="862" 
d="M791 0h-390q-37 -10 -49 -12q-30 -4 -52 -4q-107 0 -177 81.5t-70 222.5q0 166 88.5 280.5t222.5 114.5q44 0 104 -14h421l-17 -105h-293l-29 -179h243l-17 -98h-243l-30 -182h306zM384 106l75 450q-43 31 -93 31q-52 0 -91 -36.5t-58 -91.5t-28 -105t-9 -91
q0 -84 32.5 -131.5t98.5 -47.5q39 0 73 22z" />
    <glyph glyph-name="oe" unicode="&#x153;" horiz-adv-x="833" 
d="M798 235h-336q-3 -22 -3 -39q0 -14 2 -27.5t10.5 -38.5t31.5 -40.5t59 -15.5q75 0 115 92l97 -26q-70 -153 -218 -153q-96 0 -155 70q-64 -74 -161 -74q-95 0 -150.5 62.5t-55.5 165.5q0 71 28 137t86.5 111t134.5 45q88 0 152 -67q74 71 169 71q30 0 60 -9.5t62.5 -31.5
t53 -69.5t20.5 -113.5q0 -25 -2 -49zM474 305h225q-1 17 -2 28t-7 31.5t-16 32.5t-29.5 22t-45.5 10q-94 0 -125 -124zM366 212q9 45 9 81q0 60 -27 91t-70 31q-37 0 -64 -23t-40.5 -59.5t-19.5 -70.5t-6 -66q0 -12 0.5 -21.5t6 -30.5t14.5 -35t29 -25.5t47 -11.5
q93 0 121 140z" />
    <glyph glyph-name="Scaron" unicode="&#x160;" horiz-adv-x="553" 
d="M544 540l-109 -40q-20 49 -65 69q-31 14 -63 14q-55 0 -86 -26.5t-31 -64.5q0 -30 21.5 -49t68.5 -32q94 -27 123.5 -38.5t57.5 -34.5q57 -46 57 -128q0 -18 -4 -40t-20 -56.5t-42.5 -61.5t-79 -46.5t-121.5 -19.5q-196 0 -259 166l109 39q7 -18 14.5 -30.5t25 -32.5
t48 -31t71.5 -11q72 0 103.5 32t31.5 71q0 55 -74 77l-108 32q-68 21 -107 65t-39 112q0 90 65 149t178 59q171 0 234 -143zM325 723l-145 128l94 10l62 -55l100 55l91 -10z" />
    <glyph glyph-name="scaron" unicode="&#x161;" horiz-adv-x="458" 
d="M442 393l-94 -31q-35 65 -108 65q-34 0 -57.5 -15t-23.5 -42q0 -23 18 -35t82 -31q35 -11 54 -18.5t47.5 -25t42.5 -44t14 -62.5q0 -18 -4 -37t-18 -43t-36.5 -42t-62.5 -30.5t-93 -12.5q-170 0 -221 131l104 26q6 -14 10 -21.5t16 -19.5t30 -20q31 -13 62 -13
q47 0 71.5 19t24.5 46q0 24 -19 34t-98 34q-18 5 -30 9.5t-34 16.5t-35.5 26t-24.5 38.5t-11 53.5q0 25 9.5 51t30 52t59.5 42t91 16q142 0 204 -117zM277 563l-139 141l86 10l65 -64l98 64l87 -10z" />
    <glyph glyph-name="Ydieresis" unicode="&#x178;" horiz-adv-x="518" 
d="M289 0h-125l47 281l-169 386h136l119 -288l189 288h116l-267 -392zM311 791q0 -25 -17 -39t-39 -14q-24 0 -39 16t-15 37t14.5 37.5t39.5 16.5q22 0 39 -14t17 -40zM481 791q0 -25 -17 -39t-39 -14q-24 0 -39 16t-15 37t14.5 37.5t39.5 16.5q22 0 39 -14t17 -40z" />
    <glyph glyph-name="Zcaron" unicode="&#x17d;" horiz-adv-x="526" 
d="M468 0h-489l16 98l402 464h-314l17 105h468l-13 -84l-416 -478h346zM325 723l-145 128l94 10l62 -55l100 55l91 -10z" />
    <glyph glyph-name="zcaron" unicode="&#x17e;" horiz-adv-x="421" 
d="M357 0h-374l14 89l279 322h-211l14 86h353l-13 -77l-285 -331h238zM259 563l-139 141l86 10l65 -64l98 64l87 -10z" />
    <glyph glyph-name="florin" unicode="&#x192;" 
d="M-31 -128l33 90q52 -1 66 1q33 7 48 28.5t35 80.5l137 393h-71l27 89h75q10 33 17.5 52t26 49.5t40.5 47.5t60.5 30.5t87.5 13.5q19 0 56 -5l-33 -93q-3 0 -13.5 0.5t-17.5 0.5q-56 0 -77.5 -20.5t-38.5 -75.5h105l-32 -89h-103l-137 -393q-11 -32 -18.5 -51t-27.5 -52.5
t-43 -52.5t-61.5 -34.5t-86.5 -15.5q-21 0 -54 6z" />
    <glyph glyph-name="circumflex" unicode="&#x2c6;" horiz-adv-x="500" 
d="M330 721l140 -141l-87 -10l-64 64l-99 -64l-87 10z" />
    <glyph glyph-name="caron" unicode="&#x2c7;" horiz-adv-x="500" 
d="M298 563l-139 141l86 10l65 -64l98 64l87 -10z" />
    <glyph glyph-name="uni02C9" unicode="&#x2c9;" horiz-adv-x="500" 
d="M450 597h-286l11 63h286z" />
    <glyph glyph-name="breve" unicode="&#x2d8;" horiz-adv-x="500" 
d="M187 711h64q-1 -11 0.5 -19.5t7.5 -20.5t23 -18.5t43 -6.5q24 0 41.5 6t28 17.5t15 20t9.5 21.5h64q-16 -69 -65.5 -101.5t-105.5 -32.5q-65 0 -96 33t-31 76q0 13 2 25z" />
    <glyph glyph-name="dotaccent" unicode="&#x2d9;" horiz-adv-x="500" 
d="M370 633q0 -25 -17 -39t-39 -14q-24 0 -39 16t-15 37t14.5 37.5t39.5 16.5q22 0 39 -14t17 -40z" />
    <glyph glyph-name="ring" unicode="&#x2da;" horiz-adv-x="500" 
d="M409 642q0 -35 -26 -62t-65 -27q-38 0 -64.5 26.5t-26.5 63.5q0 38 26.5 65t64.5 27q30 0 60.5 -22.5t30.5 -70.5zM358 642q0 8 -2 16t-11.5 17t-24.5 9q-8 0 -16.5 -2.5t-17 -12t-8.5 -25.5q0 -15 10 -27.5t30 -12.5q17 0 27 10t11.5 17t1.5 11z" />
    <glyph glyph-name="ogonek" unicode="&#x2db;" horiz-adv-x="500" 
d="M416 -116l6 -36q-39 -17 -80 -17q-42 0 -65.5 18.5t-23.5 47.5q0 21 9.5 39t27.5 30.5t29.5 18.5t30.5 14h54q-80 -39 -80 -85q0 -39 48 -39q17 0 44 9z" />
    <glyph glyph-name="tilde" unicode="&#x2dc;" horiz-adv-x="500" 
d="M451 691l26 -48q-44 -57 -104 -57q-28 0 -72 23q-33 18 -49 18q-15 0 -28.5 -8t-39.5 -31l-26 47q56 60 106 60q29 0 64 -19q41 -21 60 -21q13 0 25 5.5t18 11t20 19.5z" />
    <glyph glyph-name="hungarumlaut" unicode="&#x2dd;" horiz-adv-x="500" 
d="M321 727l39 -57l-171 -103l-26 42zM488 723l39 -56l-172 -103l-26 41z" />
    <glyph glyph-name="uni03A9" unicode="&#x3a9;" horiz-adv-x="757" 
d="M171 80v3q-51 47 -77.5 120t-11.5 165q23 136 129 228t244 92q94 0 159.5 -46.5t90 -117.5t11.5 -152q-16 -94 -69 -169t-119 -120v-3h153l-13 -80h-266l10 60q70 37 125 111.5t73 182.5q17 100 -27.5 176.5t-141.5 76.5q-96 0 -168.5 -73.5t-90.5 -183.5
q-17 -101 13 -178.5t87 -111.5l-10 -60h-266l13 80h152z" />
    <glyph glyph-name="uni03BC" unicode="&#x3bc;" horiz-adv-x="500" 
d="M-38 -172l111 669h113l-46 -276q-6 -41 -6 -57q0 -36 24.5 -60.5t63.5 -24.5q47 0 81 34q38 37 49 113l45 271h112l-83 -497h-112l11 65q-13 -20 -23.5 -32.5t-37.5 -28t-59 -15.5q-30 0 -51.5 13.5t-28 24.5t-13.5 27l-38 -226h-112z" />
    <glyph glyph-name="pi" unicode="&#x3c0;" horiz-adv-x="610" 
d="M615 423h-80l-46 -274q-17 -95 -11 -149h-99q-13 28 6 141l48 282h-171q-21 -99 -63.5 -229t-78.5 -194h-100q40 77 81.5 204t59.5 219q-77 0 -113 -12l-3 65q48 30 164 30h428z" />
    <glyph glyph-name="endash" unicode="&#x2013;" horiz-adv-x="500" 
d="M444 202h-403l15 89h403z" />
    <glyph glyph-name="emdash" unicode="&#x2014;" horiz-adv-x="1000" 
d="M992 202h-999l14 89h1000z" />
    <glyph glyph-name="quoteleft" unicode="&#x2018;" horiz-adv-x="233" 
d="M200 667h39l-74 -126h53l-18 -109h-106l17 102z" />
    <glyph glyph-name="quoteright" unicode="&#x2019;" horiz-adv-x="233" 
d="M133 432h-39l75 127h-54l18 108h106l-16 -101z" />
    <glyph glyph-name="quotesinglbase" unicode="&#x201a;" horiz-adv-x="233" 
d="M40 -126h-39l74 126h-53l18 109h106l-17 -102z" />
    <glyph glyph-name="quotedblleft" unicode="&#x201c;" horiz-adv-x="369" 
d="M203 667h39l-74 -132h47l-18 -110h-104l17 102zM344 667h39l-75 -132h46l-18 -110h-101l17 102z" />
    <glyph glyph-name="quotedblright" unicode="&#x201d;" horiz-adv-x="369" 
d="M266 426h-38l73 131h-46l18 110h103l-17 -102zM126 426h-39l75 131h-47l19 110h101l-17 -102z" />
    <glyph glyph-name="quotedblbase" unicode="&#x201e;" horiz-adv-x="369" 
d="M173 -132h-38l73 132h-47l19 110h103l-17 -102zM33 -132h-40l75 132h-46l18 110h102l-17 -102z" />
    <glyph glyph-name="dagger" unicode="&#x2020;" horiz-adv-x="586" 
d="M310 667h106l-30 -184h178l-15 -92h-179l-94 -565h-107l95 565h-179l15 92h179z" />
    <glyph glyph-name="daggerdbl" unicode="&#x2021;" horiz-adv-x="586" 
d="M310 667h106l-30 -184h178l-15 -92h-179l-45 -272h179l-16 -92h-179l-33 -201h-107l34 201h-179l16 92h178l46 272h-179l15 92h179z" />
    <glyph glyph-name="bullet" unicode="&#x2022;" horiz-adv-x="586" 
d="M199 334q0 -46 32 -79t78 -33t78 33t32 79t-31.5 78.5t-78.5 32.5t-78.5 -32.5t-31.5 -78.5z" />
    <glyph glyph-name="ellipsis" unicode="&#x2026;" horiz-adv-x="1000" 
d="M184 0h-117l20 122h117zM517 0h-117l20 122h117zM850 0h-117l20 122h117z" />
    <glyph glyph-name="perthousand" unicode="&#x2030;" horiz-adv-x="1088" 
d="M542 -11q-60 0 -97.5 44t-37.5 117q0 86 48.5 149t116.5 63q61 0 98 -48.5t37 -116.5q0 -78 -46 -143t-119 -65zM547 58q23 0 39.5 19.5t23.5 48.5t10 50.5t3 36.5q0 80 -56 80q-33 0 -51 -33q-26 -51 -26 -121q0 -81 57 -81zM205 309q-58 0 -96 46.5t-38 116.5
q0 44 16 89.5t55.5 82t93.5 36.5q64 0 99.5 -47t35.5 -113q0 -46 -17 -92.5t-56.5 -82.5t-92.5 -36zM207 377q42 0 61 48q19 50 19 108q0 78 -54 78q-29 0 -48 -30.5t-24.5 -63.5t-5.5 -66q0 -41 16 -57.5t36 -16.5zM882 -11q-60 0 -97.5 44t-37.5 117q0 86 48.5 149
t116.5 63q61 0 98 -48.5t37 -116.5q0 -78 -46 -143t-119 -65zM887 58q23 0 39.5 19.5t23.5 48.5t10 50.5t3 36.5q0 80 -56 80q-33 0 -51 -33q-26 -51 -26 -121q0 -81 57 -81zM183 0h-75l487 667h73z" />
    <glyph glyph-name="guilsinglleft" unicode="&#x2039;" horiz-adv-x="208" 
d="M141 109h-43l-61 143l99 137h52l-75 -140z" />
    <glyph glyph-name="guilsinglright" unicode="&#x203a;" horiz-adv-x="208" 
d="M67 389h44l60 -142l-99 -138h-52l76 141z" />
    <glyph glyph-name="fraction" unicode="&#x2044;" horiz-adv-x="146" 
d="M-136 0h-74l521 667h74z" />
    <glyph glyph-name="Euro" unicode="&#x20ac;" 
d="M416 319l-23 -70h-176q-1 -9 -1 -24q0 -74 24.5 -112.5t82.5 -38.5q49 0 90 32t57 77l92 -25q-36 -83 -103 -130t-158 -47q-90 0 -145.5 64t-55.5 175q0 4 0.5 14t0.5 15h-88l23 70h71q6 36 10 54h-85l23 70h82q41 113 117 177t172 64q89 0 137 -52t54 -138l-104 -12
q-16 111 -110 111q-45 0 -84 -39t-65 -111h201l-23 -70h-198l-6 -32t-4 -22h192z" />
    <glyph glyph-name="afii61289" unicode="&#x2113;" horiz-adv-x="521" 
d="M440 160l37 -42q-93 -133 -229 -133q-83 0 -119 47t-31 121q0 2 0.5 5.5t0.5 5.5l-63 -43l-20 54l31.5 21.5l35 24.5l28.5 21l42 253q21 126 79.5 185t133.5 59q68 0 95.5 -47t15.5 -119q-15 -86 -83.5 -171t-188.5 -180l-5 -31q-9 -61 15.5 -93.5t68.5 -32.5
q43 0 84.5 28t71.5 67zM252 505l-32 -191q170 153 188 259q15 95 -51 95q-31 0 -61 -39t-44 -124z" />
    <glyph glyph-name="trademark" unicode="&#x2122;" horiz-adv-x="768" 
d="M346 602h-103l-53 -315h-85l52 315h-103l11 65h292zM735 287h-83l51 311l-153 -311h-49l-54 309l-52 -309h-68l64 380h121l44 -237l114 237h129z" />
    <glyph glyph-name="Omega" unicode="&#x2126;" horiz-adv-x="757" 
d="M171 80v3q-51 47 -77.5 120t-11.5 165q23 136 129 228t244 92q94 0 159.5 -46.5t90 -117.5t11.5 -152q-16 -94 -69 -169t-119 -120v-3h153l-13 -80h-266l10 60q70 37 125 111.5t73 182.5q17 100 -27.5 176.5t-141.5 76.5q-96 0 -168.5 -73.5t-90.5 -183.5
q-17 -101 13 -178.5t87 -111.5l-10 -60h-266l13 80h152z" />
    <glyph glyph-name="estimated" unicode="&#x212e;" horiz-adv-x="921" 
d="M888 323h-633q-5 0 -5 -5v-191q0 -11 8 -22q102 -104 240 -104q73 0 138.5 31t112.5 86h56q-53 -63 -134.5 -99.5t-173.5 -36.5q-162 0 -276 102.5t-114 247.5q0 146 114 249t276 103t276.5 -103t114.5 -249v-9zM744 348v192q0 14 -9 23q-103 100 -237 100
q-136 0 -239 -103q-9 -9 -9 -24v-188q0 -7 5 -7h485q4 0 4 7z" />
    <glyph glyph-name="partialdiff" unicode="&#x2202;" horiz-adv-x="582" 
d="M169 627l-20 70q84 57 193 57q116 0 179 -98t34 -272q-29 -175 -123 -287t-226 -112q-99 0 -142 70.5t-29 157.5q18 111 94.5 180t169.5 69q62 0 100.5 -30.5t52.5 -62.5h1q1 5 3.5 19.5t3.5 19.5q19 114 -22 189.5t-122 75.5q-76 0 -147 -46zM229 66h1q64 0 118 64.5
t79 152.5q-6 35 -38.5 67.5t-83.5 32.5q-59 0 -108.5 -50t-61.5 -121q-10 -63 16 -104.5t78 -41.5z" />
    <glyph glyph-name="Delta" unicode="&#x2206;" horiz-adv-x="683" 
d="M-11 0l11 61l359 633h120l143 -632l-10 -62h-623zM107 80h407l-80 336q-3 16 -17.5 84t-17.5 93h-4q-8 -18 -41 -79l-44 -82z" />
    <glyph glyph-name="product" unicode="&#x220f;" horiz-adv-x="810" 
d="M785 588h-112v-681h-100v681h-264v-681h-99v681h-113v89h688v-89z" />
    <glyph glyph-name="summation" unicode="&#x2211;" horiz-adv-x="652" 
d="M631 -93h-536v62l268 322l-256 318v68h508v-85h-369v-3l232 -285l-252 -304v-2h405v-91z" />
    <glyph glyph-name="minus" unicode="&#x2212;" 
d="M555 383v-93h-494v93h494z" />
    <glyph glyph-name="uni2215" unicode="&#x2215;" horiz-adv-x="146" 
d="M-136 0h-74l521 667h74z" />
    <glyph glyph-name="uni2219" unicode="&#x2219;" horiz-adv-x="243" 
d="M170 185h-117l21 123h116z" />
    <glyph glyph-name="radical" unicode="&#x221a;" horiz-adv-x="674" 
d="M682 807l-233 -949h-85l-162 438l-77 -29l-18 55l155 63l125 -346q3 -14 10 -39t9 -34h1q13 67 15 76l187 765h73z" />
    <glyph glyph-name="infinity" unicode="&#x221e;" horiz-adv-x="821" 
d="M771 281v-1q0 -74 -47.5 -120.5t-111.5 -46.5q-45 0 -88 27.5t-96 90.5q-49 -58 -91.5 -88t-98.5 -30q-63 0 -109 47t-46 116q0 72 46.5 118.5t117.5 46.5q90 0 185 -117q24 28 30.5 34.5l30 29t38 30t39 15.5t49.5 8q67 0 109.5 -44.5t42.5 -115.5zM246 170h1q11 0 23 3
t20.5 6.5t20.5 12l18 13t19 17.5l16 16t17 18.5t15 16.5q-24 31 -34 42.5t-32 33t-43 29.5t-46 8q-45 0 -71.5 -32t-26.5 -79q1 -44 29.5 -74.5t73.5 -30.5zM613 386h-1q-18 0 -36 -7t-36 -21.5t-28.5 -24.5t-28 -30t-21.5 -24q53 -61 85 -85t69 -24q43 0 69 32.5t26 73.5
q0 50 -27.5 80t-70.5 30z" />
    <glyph glyph-name="integral" unicode="&#x222b;" horiz-adv-x="452" 
d="M436 819l-13 -67q-18 10 -38 10q-34 0 -52 -24q-32 -39 -32 -169q0 -76 7.5 -234t7.5 -242q0 -129 -41 -194q-36 -61 -114 -61q-44 0 -74 17l15 70q22 -12 46 -12q30 0 47 21q33 40 33 159q0 85 -7.5 246.5t-7.5 239.5q0 82 13.5 131.5t44.5 80.5q40 41 106 41
q35 0 59 -13z" />
    <glyph glyph-name="approxequal" unicode="&#x2248;" horiz-adv-x="609" 
d="M527 433l37 -35q-53 -98 -136 -98q-30 0 -53.5 9t-65.5 33q-60 33 -94 33q-32 0 -54.5 -18.5t-47.5 -54.5l-38 35q24 44 63 70.5t84 26.5q14 0 27 -2t26.5 -8t20 -8.5t22 -11t16.5 -9.5q4 -2 12 -6.5t11 -6.5t10 -5.5t10.5 -5l9 -4t10 -3.5t10 -2.5t11 -2t11.5 -0.5
q52 0 98 74zM527 253l37 -35q-54 -98 -136 -98q-20 0 -40.5 6t-35 13t-43.5 23q-60 34 -94 34q-32 0 -54 -18.5t-48 -55.5l-38 35q24 44 63 71t83 27q14 0 27 -2t27.5 -8t20 -8.5t21.5 -11.5t17 -9l15.5 -9t15.5 -8.5l14.5 -7t16 -6.5t15.5 -3.5t18 -1.5q30 0 52 17.5
t46 55.5z" />
    <glyph glyph-name="notequal" unicode="&#x2260;" horiz-adv-x="624" 
d="M463 502l-44 -95h154v-60h-178l-66 -143h244v-60h-269l-54 -120l-48 22l45 98h-149v60h174l65 143h-239v60h263l54 116z" />
    <glyph glyph-name="lessequal" unicode="&#x2264;" horiz-adv-x="638" 
d="M585 93l-468 225v64l467 224v-70l-403 -185v-2l404 -186v-70zM587 -7h-475v61h475v-61z" />
    <glyph glyph-name="greaterequal" unicode="&#x2265;" horiz-adv-x="638" 
d="M118 606l467 -225v-64l-467 -224v70l404 186v2l-404 185v70zM586 -7h-473v61h473v-61z" />
    <glyph glyph-name="lozenge" unicode="&#x25ca;" horiz-adv-x="673" 
d="M621 338l-209 -386h-79l-206 386l209 386h79zM532 336l-138 258q-13 29 -19 51h-3q-6 -21 -19 -51l-137 -254l139 -261q13 -31 18 -49h3q12 36 18 48z" />
    </font>
</defs>
</svg>
