<?xml version="1.0" standalone="no"?>
<!DOCTYPE svg PUBLIC "-//W3C//DTD SVG 1.1//EN" "http://www.w3.org/Graphics/SVG/1.1/DTD/svg11.dtd" >
<svg>
<metadata>
Created by FontForge 20090622 at Tue Jul  2 17:26:38 2019
 By deploy user
Copyright &#194;&#169; 1995, 2002 Adobe Systems Incorporated. All Rights Reserved.
</metadata>
<defs>
<font id="ITCFranklinGothicStd-DmCdIt" horiz-adv-x="511" >
  <font-face 
    font-family="ITC Franklin Gothic Std Bk Cd"
    font-weight="600"
    font-style="italic"
    font-stretch="condensed"
    units-per-em="1000"
    panose-1="2 11 8 6 3 5 2 9 2 4"
    ascent="686"
    descent="-314"
    x-height="493"
    cap-height="667"
    bbox="-177 -250 958 900"
    underline-thickness="50"
    underline-position="-50"
    slope="-9.5"
    unicode-range="U+0020-U+FB02"
  />
<missing-glyph horiz-adv-x="569" 
d="M69 0v700h500v-700h-500zM319 395l170 255h-340zM349 350l170 -255v510zM149 50h340l-170 255zM119 605v-510l170 255z" />
    <glyph glyph-name="f_i" unicode="fi" 
d="M30 0l66 395h-55l16 98h55q10 50 14 68t11 37.5t17 34.5q45 66 138 66q25 0 60 -7l-19 -109q-12 4 -23 4q-16 0 -27 -5.5t-17.5 -12t-11 -21.5t-6 -24.5t-4.5 -30.5h78l-16 -98h-74l-66 -395h-136zM282 0l82 493h136l-82 -493h-136zM369 538l22 135h142l-22 -135h-142z
" />
    <glyph glyph-name="f_l" unicode="fl" 
d="M30 0l66 395h-55l16 98h55q10 50 14 68t11 37.5t17 34.5q45 66 138 66q25 0 60 -7l-19 -110q-12 4 -23 4q-19 0 -31.5 -6t-19.5 -21.5t-9.5 -27.5t-5.5 -38h78l-16 -98h-74l-66 -395h-136zM282 0l111 667h136l-111 -667h-136z" />
    <glyph glyph-name=".notdef" horiz-adv-x="569" 
d="M69 0v700h500v-700h-500zM319 395l170 255h-340zM349 350l170 -255v510zM149 50h340l-170 255zM119 605v-510l170 255z" />
    <glyph glyph-name=".null" horiz-adv-x="0" 
 />
    <glyph glyph-name="nonmarkingreturn" horiz-adv-x="333" 
 />
    <glyph glyph-name="space" unicode=" " horiz-adv-x="250" 
 />
    <glyph glyph-name="exclam" unicode="!" horiz-adv-x="341" 
d="M70 0l25 148h133l-25 -148h-133zM122 200l37 467h162l-114 -467h-85z" />
    <glyph glyph-name="quotedbl" unicode="&#x22;" horiz-adv-x="375" 
d="M76 386l33 281h122l-63 -281h-92zM247 386l33 281h122l-63 -281h-92z" />
    <glyph glyph-name="numbersign" unicode="#" 
d="M128 0h-89l59 204h-68l24 81h68l31 108h-68l24 81h68l56 193h90l-57 -193h88l56 193h90l-56 -193h67l-24 -81h-67l-31 -108h67l-24 -81h-67l-60 -204h-89l59 204h-87zM302 285l31 108h-93l-31 -108h93z" />
    <glyph glyph-name="dollar" unicode="$" 
d="M28 197l127 23q11 -53 30 -77t61 -24q44 0 61 22t17 48q0 32 -19 49t-65 38q-74 34 -113 72t-39 103q0 46 21.5 93t63.5 77q43 30 111 33l13 76h78l-15 -86q98 -35 123 -153l-126 -34q-4 19 -7 29.5t-10 26t-20 23t-32 7.5q-29 0 -47.5 -18.5t-18.5 -45.5t19 -44t92 -54
q29 -15 47 -26.5t39.5 -31.5t32.5 -47.5t11 -61.5q0 -49 -23.5 -100.5t-70.5 -76.5q-45 -24 -115 -29l-16 -98h-78l17 105q-129 31 -149 182z" />
    <glyph glyph-name="percent" unicode="%" horiz-adv-x="698" 
d="M226 679q61 0 92 -38t31 -105q0 -81 -39 -143.5t-110 -62.5q-53 0 -87 31q-39 35 -39 109q0 79 39 144t113 65zM224 600q-25 0 -37 -31q-19 -50 -19 -114q0 -46 32 -46q19 0 31.5 17.5t17 45.5t5.5 42t1 25q0 61 -31 61zM528 337q60 0 91.5 -37t31.5 -106
q0 -83 -40 -144.5t-109 -61.5q-53 0 -87 31q-39 35 -39 109q0 80 39 144.5t113 64.5zM526 258q-16 0 -28 -17t-17.5 -42.5t-8 -47t-2.5 -39.5q0 -25 10 -35t22 -10q30 0 43 41q12 41 12 89q0 61 -31 61zM172 0h-77l447 667h77z" />
    <glyph glyph-name="ampersand" unicode="&#x26;" horiz-adv-x="630" 
d="M561 114l-15 -111q-32 -10 -56 -10q-32 0 -57 11.5t-34 20.5t-21 25q-78 -62 -171 -62q-91 0 -145.5 51.5t-54.5 130.5q0 41 14.5 75.5t32.5 54.5t47 37t45 23t39 13q-39 70 -39 129q0 79 50.5 128t133.5 49q84 0 124.5 -42t40.5 -109q0 -34 -10.5 -62.5t-23.5 -46.5
t-36 -34.5t-37 -24t-37 -18.5l68 -119q46 61 76 155l106 -16q-43 -128 -123 -224q22 -29 48 -29q15 0 35 5zM272 512q0 -40 33 -90q20 9 30 15t23.5 18t19 28t5.5 39q0 39 -17 54t-36 15q-25 0 -41.5 -22t-16.5 -57zM147 179q0 -43 25 -63.5t59 -20.5q47 0 96 36l-97 163
q-83 -42 -83 -115z" />
    <glyph glyph-name="quotesingle" unicode="'" horiz-adv-x="221" 
d="M86 386l33 281h122l-62 -281h-93z" />
    <glyph glyph-name="parenleft" unicode="(" horiz-adv-x="324" 
d="M221 -169h-83q-47 69 -78 164.5t-31 192.5q0 203 138 377q43 54 98 102h96q-98 -98 -153.5 -245.5t-55.5 -292.5q0 -147 69 -298z" />
    <glyph glyph-name="parenright" unicode=")" horiz-adv-x="324" 
d="M62 -169h-96q103 106 153.5 249.5t50.5 281.5q0 159 -72 305h80q48 -73 76.5 -159t33.5 -130t5 -79q0 -75 -22.5 -150.5t-59.5 -135.5t-74 -105t-75 -77z" />
    <glyph glyph-name="asterisk" unicode="*" 
d="M273 662l80 -13l-31 -116l108 50l27 -78l-112 -29l96 -63l-51 -65l-85 81l-8 -119l-80 13l31 116l-108 -50l-27 78l112 29l-96 64l51 64l85 -81z" />
    <glyph glyph-name="plus" unicode="+" 
d="M320 384h154v-101h-154v-154h-101v154h-154v101h154v154h101v-154z" />
    <glyph glyph-name="comma" unicode="," horiz-adv-x="255" 
d="M46 -153h-49l84 153h-63l24 148h136l-22 -134z" />
    <glyph glyph-name="hyphen" unicode="-" horiz-adv-x="273" 
d="M225 187h-199l18 108h199z" />
    <glyph glyph-name="period" unicode="." horiz-adv-x="255" 
d="M154 0h-136l25 148h136z" />
    <glyph glyph-name="slash" unicode="/" horiz-adv-x="443" 
d="M12 -169h-90l451 836h90z" />
    <glyph glyph-name="zero" unicode="0" 
d="M229 -12q-188 0 -188 262q0 26 3 58.5t11 85.5t26.5 99.5t46 90t74 69.5t104.5 26q187 0 187 -247q0 -60 -7 -117.5t-25.5 -118t-47.5 -105.5t-76.5 -74t-107.5 -29zM241 96q46 0 67 64q43 139 43 300q0 111 -55 111q-29 0 -52 -36t-35.5 -91t-19 -110t-6.5 -102
q0 -32 1.5 -53t7 -42t18 -31t31.5 -10z" />
    <glyph glyph-name="one" unicode="1" 
d="M45 0l19 116h118l64 383q-26 -27 -53 -34.5t-95 -8.5l21 125q130 -2 186 92h112l-93 -557h115l-20 -116h-374z" />
    <glyph glyph-name="two" unicode="2" 
d="M2 0l20 135q35 22 80 56t104.5 86.5t99.5 112t40 108.5q0 24 -13.5 43.5t-43.5 19.5q-24 0 -41.5 -13.5t-27.5 -39.5t-13 -38t-7 -36l-130 30q9 88 66.5 151.5t156.5 63.5q89 0 144 -50t55 -132q0 -130 -145 -254q-23 -20 -171 -123h264l-20 -120h-418z" />
    <glyph glyph-name="three" unicode="3" 
d="M11 178l121 34q13 -116 93 -116q43 0 66.5 29t23.5 71q0 27 -9.5 46t-21 28.5t-30.5 14.5t-29 5.5t-26 0.5h-31l22 107h40q63 0 89 26q27 27 27 69q0 16 -4 31.5t-20.5 31t-44.5 15.5q-35 0 -54.5 -24t-33.5 -65l-117 40q27 83 88 120t134 37q89 0 140 -44
q54 -47 54 -132q0 -127 -119 -160q88 -35 88 -145q0 -26 -5 -51.5t-20 -55.5t-38.5 -52t-65 -36.5t-94.5 -14.5t-93 13.5t-62 31.5t-37.5 47.5t-20.5 49t-10 48.5z" />
    <glyph glyph-name="four" unicode="4" 
d="M234 0l25 148h-252l19 117l311 402h143l-68 -407h84l-19 -112h-84l-24 -148h-135zM130 256h147l49 264z" />
    <glyph glyph-name="five" unicode="5" 
d="M23 160l127 42q4 -35 18 -56q25 -40 71 -40q26 0 44.5 12.5t27 28t13.5 37.5t5.5 32t0.5 21q0 91 -77 91q-51 0 -81 -56l-107 42l80 353h363l-26 -127h-252l-33 -156q11 15 19.5 24t32.5 19.5t55 10.5q54 0 91 -23.5t52 -60t20 -63t5 -51.5q0 -28 -5.5 -58t-21.5 -66
t-41 -63.5t-68.5 -46t-99.5 -18.5q-49 0 -87 14t-58.5 31.5t-36.5 45.5t-21 43t-10 38z" />
    <glyph glyph-name="six" unicode="6" 
d="M507 518l-130 -25q-8 78 -65 78q-88 0 -113 -222q7 15 13.5 24.5t20 24t34.5 22.5t48 8q25 0 50 -8t51.5 -27.5t43 -60.5t16.5 -99q0 -112 -59 -178.5t-160 -66.5q-94 0 -143 50q-67 70 -67 217q0 173 79 305q31 52 85.5 85.5t116.5 33.5q11 0 23.5 -1t41 -10t50 -24
t41 -48t23.5 -78zM258 96q76 0 76 130q0 94 -64 94q-36 0 -58.5 -36.5t-22.5 -92.5q0 -50 20 -72.5t49 -22.5z" />
    <glyph glyph-name="seven" unicode="7" 
d="M262 0h-166q47 315 302 547h-296l20 120h406l-17 -106q-124 -158 -177 -286.5t-72 -274.5z" />
    <glyph glyph-name="eight" unicode="8" 
d="M386 365q83 -45 83 -153q0 -102 -62 -163t-174 -61q-18 0 -37 1.5t-53.5 11t-60 25.5t-45 49t-19.5 78q0 92 65 143q25 22 71 36q-19 15 -29.5 26t-23.5 41t-13 69t12.5 75t38 67.5t70.5 50.5t104 19q106 0 156 -57q34 -41 34 -101q0 -114 -117 -157zM315 403
q30 16 44 33q23 28 23 68t-23 65.5t-60 25.5q-33 0 -57 -22t-24 -61q0 -72 97 -109zM221 285q-21 -11 -35 -20.5t-28 -32.5t-14 -53q0 -41 26 -70t74 -29q44 0 66.5 25t22.5 57q0 35 -22.5 64t-89.5 59z" />
    <glyph glyph-name="nine" unicode="9" 
d="M26 132l118 47q15 -83 80 -83q42 0 70 43.5t43 161.5q-42 -51 -105 -51q-29 0 -57 10t-54 31t-42 58.5t-16 87.5q0 25 4.5 52.5t19 62.5t37.5 62t65.5 46t98.5 19q46 0 81.5 -13.5t56 -39t33.5 -50.5t17.5 -59.5t6 -53.5t1.5 -46q0 -191 -69.5 -310t-203.5 -119
q-42 0 -74.5 11t-50 25t-31.5 37.5t-18.5 36.5t-10.5 34zM271 356q78 0 78 126q0 10 -1.5 20t-7 28.5t-20.5 29.5t-39 11q-22 0 -37.5 -11.5t-23 -26t-11.5 -35.5t-4.5 -30.5t-0.5 -19.5q0 -92 67 -92z" />
    <glyph glyph-name="colon" unicode=":" horiz-adv-x="255" 
d="M212 345h-137l25 148h136zM154 0h-136l25 148h136z" />
    <glyph glyph-name="semicolon" unicode=";" horiz-adv-x="255" 
d="M46 -153h-49l83 153h-62l24 148h136l-22 -134zM212 345h-137l25 148h136z" />
    <glyph glyph-name="less" unicode="&#x3c;" 
d="M486 627v-148l-275 -142l274 -142l1 -148l-433 228v125z" />
    <glyph glyph-name="equal" unicode="=" 
d="M474 365h-409v101h409v-101zM474 201h-409v101h409v-101z" />
    <glyph glyph-name="greater" unicode="&#x3e;" 
d="M53 47v149l276 141l-275 143l-1 147l433 -228v-125z" />
    <glyph glyph-name="question" unicode="?" horiz-adv-x="460" 
d="M257 0h-133l25 148h133zM277 204h-121q7 80 23 117.5t62 67.5q57 37 75 57.5t18 58.5q0 39 -19 55.5t-44 16.5q-18 0 -32.5 -7.5t-23 -16.5t-16 -25.5t-10.5 -26t-8 -27.5l-106 34q22 90 76.5 134t131.5 44q89 0 137.5 -48.5t48.5 -126.5q0 -36 -9 -66t-20 -49t-30.5 -37
t-31 -25.5t-31.5 -19.5q-42 -24 -53.5 -44.5t-16.5 -65.5z" />
    <glyph glyph-name="at" unicode="@" horiz-adv-x="681" 
d="M542 112l22 -72q-97 -59 -211 -59q-135 0 -221 85.5t-86 231.5q0 156 99.5 273t256.5 117q52 0 99.5 -16t87 -47t63.5 -84.5t24 -121.5q0 -60 -19.5 -121t-58.5 -100q-59 -57 -144 -57q-63 0 -79 40q-34 -40 -77 -40q-35 0 -61 24q-27 27 -27 87q0 61 22.5 120.5t64 99.5
t89.5 40q22 0 34.5 -10t15.5 -19.5t4 -23.5l15 45h79l-60 -193q-20 -60 -20 -72q0 -16 24 -16q50 0 81.5 55.5t31.5 133.5q0 92 -50 145.5t-142 53.5q-121 0 -194.5 -93.5t-73.5 -225.5q0 -108 59.5 -172.5t171.5 -64.5q92 0 180 57zM377 419q-28 0 -50 -60t-22 -95
q0 -31 21 -31q32 0 54 57.5t22 92.5q0 36 -25 36z" />
    <glyph glyph-name="A" unicode="A" 
d="M396 667l75 -667h-143l-13 147h-167l-61 -147h-132l294 667h147zM306 260l-16 256l-99 -256h115z" />
    <glyph glyph-name="B" unicode="B" horiz-adv-x="545" 
d="M16 0l112 667h182q33 0 55.5 -1.5t55.5 -10.5t54 -24.5t36 -46.5t15 -74q0 -126 -119 -163q14 -4 23 -7.5t25.5 -14.5t27 -24.5t18.5 -38t8 -55.5q0 -52 -21.5 -100.5t-61.5 -71.5q-62 -35 -183 -35h-227zM250 561l-28 -165h42q18 0 28.5 0.5t29.5 5.5t30.5 14t20.5 28
t9 46q0 19 -6.5 33t-15.5 21t-23.5 11t-25.5 5t-27 1h-34zM205 292l-31 -184h64q122 0 122 107q0 22 -7 37t-16 23t-25.5 12t-27.5 4.5t-30 0.5h-49z" />
    <glyph glyph-name="C" unicode="C" horiz-adv-x="528" 
d="M534 426l-147 -9q0 31 0.5 63t-15.5 56t-49 24q-55 0 -82 -75q-23 -64 -33.5 -140t-10.5 -121q0 -117 68 -117q72 0 101 133l141 -25q-22 -114 -84.5 -170.5t-157.5 -56.5q-112 0 -167.5 69.5t-55.5 190.5q0 35 3.5 76t25.5 117t59 132q70 106 206 106q87 0 143.5 -52.5
t56.5 -159.5q0 -11 -2 -41z" />
    <glyph glyph-name="D" unicode="D" horiz-adv-x="562" 
d="M16 0l111 667h145q119 0 176 -32q99 -55 99 -231q0 -34 -4 -72t-17 -97t-45.5 -110.5t-80.5 -80.5q-34 -21 -73.5 -31t-64.5 -11.5t-72 -1.5h-174zM248 555l-74 -443h38q63 0 103 40q32 32 55 102t23 173q0 75 -26 101.5t-92 26.5h-27z" />
    <glyph glyph-name="E" unicode="E" horiz-adv-x="477" 
d="M16 0l112 667h393l-19 -117h-254l-26 -152h211l-19 -112h-210l-29 -169h258l-20 -117h-397z" />
    <glyph glyph-name="F" unicode="F" horiz-adv-x="443" 
d="M16 0l112 667h375l-20 -117h-235l-28 -165h202l-20 -117h-202l-44 -268h-140z" />
    <glyph glyph-name="G" unicode="G" horiz-adv-x="562" 
d="M472 -7h-57l-8 86q-11 -18 -19 -28.5t-26.5 -28t-46.5 -26t-65 -8.5q-205 0 -205 262q0 64 9.5 123t31.5 115.5t55 98t84 67t114 25.5q39 0 71 -10.5t52.5 -25.5t36 -37.5t23.5 -41.5t13.5 -43t7 -36t2.5 -26l-130 -22q-8 123 -83 123q-58 0 -89 -75q-49 -117 -49 -252
q0 -126 79 -126q29 0 50 13t32.5 37.5t16.5 40.5t10 42h-99l20 117h230z" />
    <glyph glyph-name="H" unicode="H" horiz-adv-x="562" 
d="M16 0l112 667h139l-44 -266h167l44 266h140l-112 -667h-139l47 284h-167l-47 -284h-140z" />
    <glyph glyph-name="I" unicode="I" horiz-adv-x="255" 
d="M16 0l111 667h140l-111 -667h-140z" />
    <glyph glyph-name="J" unicode="J" horiz-adv-x="324" 
d="M-40 0l19 115q28 -8 52 -8q51 0 68.5 24.5t29.5 95.5l73 440h140l-75 -444q-5 -31 -8 -46.5t-9.5 -42.5t-13 -41t-17 -34t-24.5 -30.5t-32 -21t-42.5 -15t-54.5 -4.5q-57 0 -106 12z" />
    <glyph glyph-name="K" unicode="K" 
d="M482 0h-159l-54 293l-81 -102l-32 -191h-140l112 667h139l-48 -286l198 286h151l-192 -247z" />
    <glyph glyph-name="L" unicode="L" horiz-adv-x="409" 
d="M16 0l111 667h140l-92 -550h214l-19 -117h-354z" />
    <glyph glyph-name="M" unicode="M" horiz-adv-x="732" 
d="M16 0l112 667h206l33 -418l172 418h205l-111 -667h-140l97 546l-232 -546h-84l-56 543l-85 -543h-117z" />
    <glyph glyph-name="N" unicode="N" horiz-adv-x="562" 
d="M16 0l112 667h141l123 -408l65 408h117l-112 -667h-108l-144 482l-77 -482h-117z" />
    <glyph glyph-name="O" unicode="O" horiz-adv-x="562" 
d="M262 -12q-218 0 -218 262q0 68 14.5 137.5t46 137.5t90.5 111t138 43q17 0 35.5 -3t47.5 -12t55.5 -32.5t42.5 -58.5q30 -64 30 -164q0 -187 -84 -314q-72 -107 -198 -107zM269 107q59 0 88 84q44 129 44 252q0 14 -1.5 27t-7.5 37t-23 38.5t-43 14.5q-18 0 -33.5 -7.5
t-25.5 -20t-16 -22.5t-10 -20q-54 -124 -54 -275q0 -108 82 -108z" />
    <glyph glyph-name="P" unicode="P" 
d="M16 0l112 667h195q27 0 45 -1t52.5 -11t56 -28t39 -55.5t17.5 -90.5q0 -126 -74 -183q-30 -22 -63.5 -33.5t-53 -13t-50.5 -1.5h-94l-42 -250h-140zM248 550l-30 -183h67q47 0 69 15q18 12 27 39t9 52q0 21 -6.5 36t-15 23t-23 12t-25.5 5t-28 1h-44z" />
    <glyph glyph-name="Q" unicode="Q" horiz-adv-x="562" 
d="M469 -19l-9 -108q-28 -7 -61 -7q-35 0 -59 10t-35.5 22.5t-17 33t-5.5 30.5v26q-56 -3 -99 11t-68.5 38.5t-41.5 61t-21.5 73t-5.5 79.5q0 48 6.5 99t26.5 111.5t50 107.5t82.5 78.5t119.5 31.5q98 0 153 -65q58 -70 58 -207q0 -72 -13 -143t-53 -145.5t-102 -107.5
q3 -36 49 -36q22 0 46 6zM269 106q58 0 87 85q43 129 43 247q0 122 -74 122q-25 0 -45.5 -16.5t-27.5 -29.5t-11 -24q-23 -60 -37.5 -139.5t-14.5 -137.5q0 -107 80 -107z" />
    <glyph glyph-name="R" unicode="R" horiz-adv-x="528" 
d="M16 0l112 667h197q32 0 57 -2.5t56 -13.5t50.5 -29.5t33.5 -53t14 -81.5q0 -43 -10 -77t-22.5 -53.5t-33.5 -35.5t-32 -21t-28 -12l74 -288h-151l-64 263h-69l-44 -263h-140zM250 561l-31 -187h56q65 0 90 34.5t25 81.5q0 43 -22.5 57t-64.5 14h-53z" />
    <glyph glyph-name="S" unicode="S" 
d="M9 188l135 25q12 -55 33.5 -80.5t65.5 -25.5q43 0 63 21t20 52q0 35 -19.5 53.5t-69.5 42.5q-38 18 -62 32t-50 36.5t-38.5 52t-12.5 66.5q0 24 6 51t21.5 57t38.5 53.5t62.5 39t88.5 15.5q168 0 206 -172l-134 -35q-5 20 -8.5 31t-11.5 26.5t-22 23t-34 7.5
q-30 0 -50 -19.5t-20 -48.5t19 -47t101 -59q41 -20 67 -39t48.5 -55.5t22.5 -83.5q0 -49 -20 -94.5t-48 -71.5q-59 -54 -168 -54q-206 0 -230 200z" />
    <glyph glyph-name="T" unicode="T" horiz-adv-x="409" 
d="M93 0l91 543h-141l21 124h417l-21 -124h-136l-91 -543h-140z" />
    <glyph glyph-name="U" unicode="U" horiz-adv-x="545" 
d="M121 667h139l-62 -371q-13 -84 -13 -112q0 -41 23.5 -59t54.5 -18q53 0 72 32.5t33 120.5l68 407h127l-72 -432q-21 -129 -62 -179q-28 -35 -79 -51.5t-103 -16.5q-99 0 -150.5 47t-51.5 127q0 48 11 119z" />
    <glyph glyph-name="V" unicode="V" horiz-adv-x="494" 
d="M124 0l-54 667h144l29 -488l181 488h124l-263 -667h-161z" />
    <glyph glyph-name="W" unicode="W" horiz-adv-x="767" 
d="M120 0l-47 667h144l11 -449l156 449h134l21 -449l148 449h131l-250 -667h-125l-27 476l-172 -476h-124z" />
    <glyph glyph-name="X" unicode="X" horiz-adv-x="477" 
d="M-59 0l237 356l-112 311h155l53 -195l121 195h139l-208 -311l126 -356h-158l-65 238l-144 -238h-144z" />
    <glyph glyph-name="Y" unicode="Y" horiz-adv-x="460" 
d="M126 0l47 281l-126 386h144l76 -251l143 251h133l-231 -391l-46 -276h-140z" />
    <glyph glyph-name="Z" unicode="Z" horiz-adv-x="494" 
d="M-9 0l18 106l329 449h-249l19 112h416l-17 -102l-329 -448h274l-19 -117h-442z" />
    <glyph glyph-name="bracketleft" unicode="[" horiz-adv-x="324" 
d="M199 -169h-199l140 836h188l-10 -61h-68l-120 -714h79z" />
    <glyph glyph-name="backslash" unicode="\" horiz-adv-x="392" 
d="M270 -169l-171 836h82l171 -836h-82z" />
    <glyph glyph-name="bracketright" unicode="]" horiz-adv-x="324" 
d="M183 -169h-188l10 61h68l120 714h-79l10 61h199z" />
    <glyph glyph-name="asciicircum" unicode="^" 
d="M506 316h-121l-120 246l-120 -246h-120l189 358h103z" />
    <glyph glyph-name="underscore" unicode="_" horiz-adv-x="500" 
d="M0 -75h500v-50h-500v50z" />
    <glyph glyph-name="grave" unicode="`" horiz-adv-x="460" 
d="M326 554l-164 86l48 73l145 -108z" />
    <glyph glyph-name="a" unicode="a" horiz-adv-x="460" 
d="M420 291l-33 -203q-6 -40 -6 -57q0 -13 3 -31h-132q-4 16 -4 29q0 10 5 37q-9 -16 -15.5 -25.5t-21.5 -23.5t-37.5 -21.5t-52.5 -7.5q-36 0 -61 12.5t-36.5 33.5t-16 40t-4.5 39q0 38 12.5 68.5t30.5 50t47 34.5t52 22t56 12t48 6t39 2q7 47 7 61q0 27 -15 39.5t-35 12.5
q-54 0 -67 -83l-124 15q6 22 10.5 36.5t19 39t33 39.5t52.5 26.5t78 11.5q92 0 135 -40.5t43 -92.5q0 -25 -10 -82zM146 127q0 -23 12 -38.5t36 -15.5q15 0 26 4t19.5 15.5t13.5 21t11 34.5t9 40t9 51q-43 -3 -73 -18t-42 -35t-16.5 -34t-4.5 -25z" />
    <glyph glyph-name="b" unicode="b" horiz-adv-x="477" 
d="M10 0l111 667h136l-38 -226q41 64 105 64q129 0 129 -173q0 -70 -18.5 -147t-56.5 -130q-23 -30 -60.5 -48.5t-79.5 -18.5q-99 0 -120 88q-17 -35 -32 -76h-76zM220 82q41 0 58 65q37 124 37 197q0 67 -43 67q-41 0 -59 -54q-10 -28 -26.5 -99t-16.5 -115
q0 -10 1.5 -20.5t14 -25.5t34.5 -15z" />
    <glyph glyph-name="c" unicode="c" horiz-adv-x="426" 
d="M287 187l116 -16q-19 -83 -69 -133t-131 -50q-86 0 -132.5 54.5t-46.5 154.5q0 45 11 93t35.5 99t73 83.5t113.5 32.5q47 0 80.5 -17t49 -38.5t24.5 -52.5t10 -46t1 -33l-119 -6q-3 89 -51 89t-73 -94q-19 -73 -19 -141q0 -21 5.5 -36t12 -22t16 -11t13.5 -4.5t7 -0.5
q49 0 73 95z" />
    <glyph glyph-name="d" unicode="d" horiz-adv-x="477" 
d="M359 667h137l-112 -667h-117l11 62q-15 -21 -25.5 -33.5t-38.5 -26.5t-62 -14q-42 0 -70 19.5t-39.5 52t-15 56.5t-3.5 51q0 28 3.5 62.5t16 86t33 91.5t60 69t91.5 29q26 0 45 -6.5t28.5 -18.5t13.5 -19.5t7 -19.5zM212 82q40 0 56 54q12 46 24.5 124t12.5 99
q0 56 -42 56q-35 0 -60 -50q-19 -49 -29.5 -110.5t-10.5 -102.5q0 -70 49 -70z" />
    <glyph glyph-name="e" unicode="e" horiz-adv-x="460" 
d="M427 224h-263q-4 -26 -4 -56q0 -86 57 -86q33 0 50 21.5t29 63.5l111 -20q-28 -87 -76 -123t-122 -36q-84 0 -126 44q-58 58 -58 168q0 125 63 215t167 90q101 0 149 -82q28 -50 28 -128q0 -36 -5 -71zM175 302h131q4 22 4 44q0 74 -54 74q-63 0 -81 -118z" />
    <glyph glyph-name="f" unicode="f" horiz-adv-x="290" 
d="M30 0l65 391h-54l16 102h55q10 50 14 68t11 37.5t17 34.5q46 66 139 66q30 0 67 -7l-10 -110q-20 4 -38 4q-20 0 -33 -5.5t-19.5 -20.5t-9.5 -27.5t-6 -39.5h78l-17 -102h-74l-65 -391h-136z" />
    <glyph glyph-name="g" unicode="g" horiz-adv-x="460" 
d="M471 609l-8 -96q-26 4 -32 4q-20 0 -31.5 -7t-14.5 -14t-5 -18q59 -33 59 -108q0 -30 -9.5 -59t-30 -55.5t-59 -43t-89.5 -16.5q-38 0 -74 10q-33 -20 -33 -41q0 -22 20 -27.5t76 -6.5q28 -1 47 -3t45 -9.5t42 -21t27.5 -38.5t11.5 -60q0 -175 -239 -175q-90 0 -139.5 24
t-49.5 84q0 31 13.5 54.5t26 31.5t30.5 17q-35 32 -35 78q0 83 93 126q-44 32 -44 98q0 79 53.5 125.5t138.5 46.5q37 0 69 -8q9 55 35 82.5t84 27.5q4 0 22 -2zM314 366q0 59 -52 59q-68 0 -68 -90q0 -57 53 -57q30 0 48.5 22t18.5 66zM118 11q-24 -19 -24 -43
q0 -50 109 -50q97 0 97 51q0 31 -47 38q-11 1 -70.5 2.5t-64.5 1.5z" />
    <glyph glyph-name="h" unicode="h" horiz-adv-x="477" 
d="M9 0l111 667h137l-37 -221q11 16 20 26t35 21.5t60 11.5q53 0 84.5 -28.5t31.5 -79.5q0 -32 -11 -92l-51 -305h-136l51 305q8 51 8 59q0 37 -41 37q-21 0 -35 -8.5t-22.5 -29t-12 -35.5t-9.5 -47l-47 -281h-136z" />
    <glyph glyph-name="i" unicode="i" horiz-adv-x="239" 
d="M9 0l82 493h137l-83 -493h-136zM96 538l23 135h142l-23 -135h-142z" />
    <glyph glyph-name="j" unicode="j" horiz-adv-x="238" 
d="M-94 -176l19 111q16 -2 22 -2q36 0 46.5 20t24.5 101l74 439h136l-78 -465l-9 -52t-9.5 -44t-14 -40.5t-20 -30.5t-28.5 -25t-38.5 -13.5t-51.5 -5.5q-34 0 -73 7zM96 538l23 135h142l-23 -135h-142z" />
    <glyph glyph-name="k" unicode="k" horiz-adv-x="460" 
d="M339 330l86 -330h-143l-44 236l-64 -67l-29 -169h-136l112 667h136l-59 -355l148 181h145z" />
    <glyph glyph-name="l" unicode="l" horiz-adv-x="239" 
d="M9 0l112 667h136l-112 -667h-136z" />
    <glyph glyph-name="m" unicode="m" horiz-adv-x="698" 
d="M9 0l83 493h117l-15 -81q10 19 17.5 29.5t24 28t39.5 26.5t53 9q24 0 41.5 -7.5t26.5 -16.5t15 -25t7.5 -23.5t2.5 -20.5q45 93 135 93q33 0 57 -11.5t36 -30.5t17 -37t5 -37q0 -31 -8 -76l-52 -313h-137l50 298q8 56 8 67q0 36 -36 36q-34 0 -48 -32.5t-27 -115.5
l-43 -253h-136l48 285q0 4 6 40t6 41q0 35 -35 35q-36 0 -51 -33t-28 -115l-43 -253h-136z" />
    <glyph glyph-name="n" unicode="n" horiz-adv-x="477" 
d="M9 0l83 493h117l-13 -79q44 91 136 91q50 0 80 -22q38 -28 38 -84q0 -46 -11 -104l-49 -295h-137l50 295q8 58 8 66q0 17 -9.5 26.5t-17.5 11.5t-15 2q-16 0 -28 -7.5t-19.5 -17.5t-14 -30t-9.5 -35.5t-8 -44.5l-45 -266h-136z" />
    <glyph glyph-name="o" unicode="o" horiz-adv-x="460" 
d="M203 -12q-71 0 -119 42q-60 53 -60 170q0 52 12.5 103t38 97.5t73 75.5t110.5 29q93 0 134 -60t41 -152q0 -64 -20 -135t-67 -119q-49 -51 -143 -51zM209 82q31 0 52 55.5t27 107t6 85.5q0 22 -1.5 36.5t-11.5 29.5t-29 15q-28 0 -47.5 -33.5t-27.5 -83.5t-11 -84t-3 -57
q0 -35 10 -53t36 -18z" />
    <glyph glyph-name="p" unicode="p" horiz-adv-x="477" 
d="M-19 -167l111 660h117l-11 -67q13 21 24 34.5t39 29t62 15.5q128 0 128 -181q0 -73 -19.5 -151.5t-56.5 -127.5q-19 -25 -52 -41t-67 -16t-56.5 12.5t-30 24t-14.5 29.5l-38 -221h-136zM214 82q42 0 62 56q15 40 24.5 92t11.5 80t2 41q0 17 -4.5 29t-10 17.5t-13 9t-11 4
t-6.5 0.5q-38 0 -57 -53q-19 -52 -30.5 -116t-11.5 -103q0 -57 44 -57z" />
    <glyph glyph-name="q" unicode="q" horiz-adv-x="477" 
d="M220 -167l36 216q-42 -61 -99 -61q-132 0 -132 167q0 29 2.5 64t20.5 107t51 116q22 30 58 46.5t76 16.5q100 0 128 -89q18 35 33 77h76q-5 -22 -22 -114l-92 -546h-136zM308 363q0 25 -11.5 41t-31.5 16q-26 0 -46.5 -29.5t-31.5 -73.5t-17 -86t-6 -75q0 -80 51 -74
q42 5 57 71q36 148 36 210z" />
    <glyph glyph-name="r" unicode="r" horiz-adv-x="307" 
d="M1 0l82 493h117l-17 -99q32 59 65.5 83.5t93.5 22.5l-19 -141q-30 0 -48.5 -2.5t-43 -19t-37.5 -48.5q-16 -38 -31 -134l-26 -155h-136z" />
    <glyph glyph-name="s" unicode="s" horiz-adv-x="392" 
d="M-4 137l111 16q3 -15 6.5 -25t11.5 -22t21.5 -18t32.5 -6q57 0 57 45q0 23 -15.5 35.5t-61.5 32.5q-27 12 -42 20t-35.5 25t-30.5 41.5t-10 56.5q0 24 8 50.5t26.5 54t55 45t85.5 17.5q143 0 163 -139l-102 -25q-12 73 -62 73q-22 0 -38 -13t-16 -33q0 -23 15 -35t69 -37
q30 -15 44.5 -23.5t34.5 -25t28.5 -39t8.5 -52.5q0 -21 -4.5 -42t-17 -44.5t-32 -41t-53 -29t-76.5 -11.5q-101 0 -147 54q-25 29 -35 95z" />
    <glyph glyph-name="t" unicode="t" horiz-adv-x="307" 
d="M87 391h-59l17 102h70l30 140l115 3l-24 -143h92l-17 -102h-88l-34 -206q-5 -31 -5 -49q0 -43 42 -43q24 0 47 5l-17 -102q-42 -8 -90 -8q-124 0 -124 96q0 34 7 79z" />
    <glyph glyph-name="u" unicode="u" horiz-adv-x="477" 
d="M384 0h-117l13 78q-19 -30 -31.5 -45t-42 -30t-69.5 -15q-56 0 -85.5 26.5t-29.5 70.5q0 29 13 100l51 308h136l-48 -288q-9 -69 -9 -75q0 -38 42 -38q20 0 33.5 10t22 30t12 35t7.5 40l48 286h136z" />
    <glyph glyph-name="v" unicode="v" horiz-adv-x="392" 
d="M95 0l-66 493h139l25 -309l118 309h115l-214 -493h-117z" />
    <glyph glyph-name="w" unicode="w" horiz-adv-x="613" 
d="M83 0l-50 493h129l14 -313l108 313h125l8 -313l116 313h106l-204 -493h-114l-12 331l-114 -331h-112z" />
    <glyph glyph-name="x" unicode="x" horiz-adv-x="409" 
d="M-45 0l182 258l-85 235h142l42 -138l87 138h120l-163 -235l87 -258h-139l-46 164l-107 -164h-120z" />
    <glyph glyph-name="y" unicode="y" horiz-adv-x="375" 
d="M158 493l34 -295l113 295h109l-218 -509q-36 -85 -74.5 -122t-115.5 -37q-8 0 -47 3l8 103q28 -2 43 -2q39 0 57 18.5t39 72.5l-88 473h140z" />
    <glyph glyph-name="z" unicode="z" horiz-adv-x="375" 
d="M-15 0l17 96l226 299h-168l17 98h313l-16 -97l-224 -294h179l-17 -102h-327z" />
    <glyph glyph-name="braceleft" unicode="{" horiz-adv-x="324" 
d="M26 229l12 78q20 3 29.5 8t21.5 30.5t21 77.5l18 109q14 88 42.5 111.5t104.5 23.5h44l-10 -61q-36 1 -45.5 -12.5t-20.5 -76.5l-20 -121q-12 -72 -30 -96.5t-66 -35.5q31 -9 45.5 -22.5t14.5 -45.5q0 -18 -11 -78l-24 -145q-8 -48 -8 -58q0 -13 9 -18.5t36 -4.5l-10 -61
q-29 0 -43 0.5t-36 2t-32.5 6t-22 12t-16 19.5t-4.5 29q0 9 12 89l24 141q6 36 6 58q0 20 -8 29t-33 12z" />
    <glyph glyph-name="bar" unicode="|" horiz-adv-x="500" 
d="M339 750v-1000h-150v1000h150z" />
    <glyph glyph-name="braceright" unicode="}" horiz-adv-x="324" 
d="M303 298l-13 -77q-20 -3 -29.5 -8t-21.5 -31t-21 -77l-23 -139q-14 -88 -42.5 -111.5t-104.5 -23.5h-44l10 61q36 -1 45.5 12.5t20.5 76.5l25 151q12 71 30 96t66 36q-31 9 -45.5 22.5t-14.5 45.5q0 16 11 77l19 116q8 48 8 58q0 13 -8.5 18.5t-36.5 4.5l10 61
q29 0 43 -0.5t36 -2t32.5 -6t22 -11.5t16 -19t4.5 -29q0 -18 -12 -90l-19 -112q0 -1 -3 -24.5t-3 -31.5q0 -20 8.5 -28.5t33.5 -14.5z" />
    <glyph glyph-name="asciitilde" unicode="~" 
d="M94 232l-72 61q55 136 149 136q33 0 112 -34q59 -25 77 -25q41 0 72 62l73 -61l-14.5 -33.5t-19.5 -34t-29 -34t-39.5 -22.5t-53.5 -10q-31 0 -71 17q-90 40 -114 40q-13 0 -24 -5.5t-20.5 -17.5t-13.5 -19z" />
    <glyph glyph-name="uni00A0" unicode="&#xa0;" horiz-adv-x="250" 
 />
    <glyph glyph-name="exclamdown" unicode="&#xa1;" horiz-adv-x="341" 
d="M285 493l-25 -148h-132l25 148h132zM233 293l-36 -467h-163l114 467h85z" />
    <glyph glyph-name="cent" unicode="&#xa2;" 
d="M282 97l-16 -100h-65l18 104q-49 12 -76 44q-44 50 -44 143q0 14 2 33t7.5 52t19.5 63.5t34.5 60t55.5 49.5t79 25l15 90h64l-16 -95q58 -18 81.5 -60.5t23.5 -109.5l-113 -6q0 82 -44 82q-41 0 -61 -84q-17 -67 -17 -128q0 -65 45 -65q44 0 63 87l111 -15
q-23 -89 -73 -132q-36 -31 -94 -38z" />
    <glyph glyph-name="sterling" unicode="&#xa3;" 
d="M-28 0l21 124h34q17 0 29 1t34 9t36 22.5t25 44.5t11 72q0 8 -2 32h-68l16 100h55q0 116 31 176q52 98 166 98q138 0 165 -133l-115 -47q-7 33 -18 47.5t-31 14.5q-44 0 -54 -62q-2 -14 -7 -94h97l-17 -100h-84q-5 -66 -27 -107t-66 -74h86q59 0 85.5 18t47.5 77l109 -40
q-11 -37 -26.5 -66t-30.5 -48t-38 -32t-39.5 -19t-43.5 -9.5t-42 -4t-43 -0.5h-296z" />
    <glyph glyph-name="currency" unicode="&#xa4;" 
d="M354 496l64 64l70 -69l-64 -65q21 -40 21 -82q0 -41 -20 -81l65 -65l-73 -73l-65 65q-40 -20 -81 -20q-44 0 -83 21l-64 -64l-70 69l64 65q-21 39 -21 83q0 40 20 80l-65 65l73 73l65 -65q42 20 81 20q43 0 83 -21zM271 266q32 0 55 23t23 55t-23 54.5t-55 22.5t-55 -23
t-23 -55t23 -54.5t55 -22.5z" />
    <glyph glyph-name="yen" unicode="&#xa5;" 
d="M182 191h-139l11 69h140l3 20l-11 42h-122l12 69h92l-72 276h136l53 -273l127 273h128l-151 -276h107l-12 -69h-133l-22 -42l-4 -20h149l-12 -69h-148l-32 -191h-132z" />
    <glyph glyph-name="brokenbar" unicode="&#xa6;" horiz-adv-x="500" 
d="M339 675v-350h-150v350h150zM339 175v-350h-150v350h150z" />
    <glyph glyph-name="section" unicode="&#xa7;" 
d="M477 566l-98 -30q-15 55 -74 55q-32 0 -50 -17t-18 -38q0 -28 22.5 -46.5t89.5 -53.5q47 -25 70.5 -54.5t23.5 -75.5q0 -86 -84 -149q18 -15 28.5 -26t20.5 -36.5t10 -58.5q0 -88 -57 -146.5t-165 -58.5q-100 0 -149 51q-31 34 -37 92l115 24q9 -66 82 -66q39 0 63 18
t24 51q0 16 -4.5 27.5t-19.5 22.5t-28 18t-44 22q-69 33 -104 65t-35 86q0 98 98 160q-43 49 -43 96q0 18 5 39.5t19 47.5t35 46t57 34t81 14q48 0 82 -12t50.5 -34t22.5 -35t11 -32zM294 194v-1q36 32 36 69q0 41 -52 68q-40 20 -60 33q-46 -28 -46 -67q0 -34 26 -53.5
t96 -48.5z" />
    <glyph glyph-name="dieresis" unicode="&#xa8;" horiz-adv-x="460" 
d="M213 563q-22 0 -37.5 15.5t-15.5 37.5t15.5 37.5t37.5 15.5t37.5 -16t15.5 -37t-15.5 -37t-37.5 -16zM369 563q-22 0 -37.5 15.5t-15.5 37.5t15 37.5t38 15.5t38 -16t15 -37q0 -22 -15 -37.5t-38 -15.5z" />
    <glyph glyph-name="copyright" unicode="&#xa9;" horiz-adv-x="775" 
d="M559 384l-101 -7v41t-9 31.5t-29 12.5q-35 0 -55 -69q-16 -59 -16 -122q0 -66 40 -66q24 0 37 20t22 59l97 -16q-27 -142 -158 -142q-70 0 -107.5 42t-37.5 118q0 18 2 40.5t12.5 63.5t28.5 72t55.5 55t87.5 24q62 0 97.5 -34.5t35.5 -95.5q0 -14 -2 -27zM401 -12
q-144 0 -246.5 101t-102.5 245q0 143 102 244t247 101t247 -101t102 -244q0 -144 -102 -245t-247 -101zM401 65q110 0 187 78.5t77 190.5q0 111 -77.5 189.5t-186.5 78.5t-186.5 -78.5t-77.5 -189.5q0 -112 77.5 -190.5t186.5 -78.5z" />
    <glyph glyph-name="ordfeminine" unicode="&#xaa;" 
d="M421 338h-99q-2 29 -1 46l-17.5 -23.5t-27 -19.5t-46.5 -11q-36 0 -60.5 21.5t-24.5 67.5q0 118 197 127q5 23 5 36q0 29 -30 29q-32 0 -39 -46l-99 13q5 18 10.5 30t20 31t42.5 29.5t67 10.5q69 0 100 -29t31 -63q0 -25 -7 -53l-22 -133q-3 -15 -3 -35q0 -7 3 -28z
M254 428q0 -30 28 -30q24 0 33 19t18 77q-79 -14 -79 -66z" />
    <glyph glyph-name="guillemotleft" unicode="&#xab;" horiz-adv-x="426" 
d="M335 432h71l-80 -175l23 -172h-60l-74 172zM165 432h71l-80 -175l22 -172h-59l-74 172z" />
    <glyph glyph-name="logicalnot" unicode="&#xac;" 
d="M373 201v164h-308v101h409v-265h-101z" />
    <glyph glyph-name="uni00AD" unicode="&#xad;" horiz-adv-x="273" 
d="M225 187h-199l18 108h199z" />
    <glyph glyph-name="registered" unicode="&#xae;" 
d="M203 360l37 220h68q74 0 74 -61q0 -47 -42 -65l26 -94h-55l-22 85h-21l-14 -85h-51zM284 542l-9 -58h17q37 0 37 36q0 22 -28 22h-17zM291 667q82 0 141 -58.5t59 -142.5q0 -83 -59 -141t-141 -58t-141 58t-59 141q0 84 59 142.5t141 58.5zM291 619q-61 0 -104.5 -44.5
t-43.5 -108.5q0 -62 43.5 -106.5t104.5 -44.5t105 44.5t44 106.5q0 64 -43.5 108.5t-105.5 44.5z" />
    <glyph glyph-name="macron" unicode="&#xaf;" horiz-adv-x="460" 
d="M419 571h-271l11 66h271z" />
    <glyph glyph-name="degree" unicode="&#xb0;" 
d="M283 362q-69 0 -115.5 47.5t-46.5 110.5q0 64 46.5 111.5t115.5 47.5q67 0 115 -46.5t48 -111.5q0 -67 -48.5 -113t-114.5 -46zM284 440q31 0 53.5 23.5t22.5 56.5q0 34 -22.5 57.5t-53.5 23.5q-33 0 -55 -24t-22 -57q0 -32 22.5 -56t54.5 -24z" />
    <glyph glyph-name="plusminus" unicode="&#xb1;" 
d="M320 384h154v-101h-154v-154h-101v154h-154v101h154v154h101v-154zM474 0h-409v101h409v-101z" />
    <glyph glyph-name="two.superior" unicode="&#xb2;" horiz-adv-x="341" 
d="M42 267l12 87q69 41 134.5 100.5t65.5 107.5q0 32 -32 32q-35 0 -47 -69l-93 20q6 53 43 91t101 38q59 0 95 -31t36 -81q0 -34 -14.5 -64.5t-45 -58t-55.5 -45t-67 -42.5h154l-15 -85h-272z" />
    <glyph glyph-name="three.superior" unicode="&#xb3;" horiz-adv-x="341" 
d="M43 379l87 24q2 -15 4 -23t7.5 -21t16 -19.5t26.5 -6.5q26 0 38 15.5t12 36.5q0 19 -7 30.5t-20 16t-21 5.5t-21 1h-16l15 71h22q65 0 65 50q0 41 -39 41q-20 0 -30.5 -13.5t-19.5 -39.5l-84 26q31 101 146 101q58 0 91 -27q36 -29 36 -81q0 -26 -8 -44.5t-23.5 -28
t-26 -13.5t-27.5 -8q14 -4 22 -8t20.5 -13.5t19 -26t6.5 -39.5q0 -48 -33.5 -87t-110.5 -39q-43 0 -72.5 11t-44.5 33t-20 37t-10 39z" />
    <glyph glyph-name="acute" unicode="&#xb4;" horiz-adv-x="460" 
d="M438 642l-195 -90l-29 45l186 116z" />
    <glyph glyph-name="mu" unicode="&#xb5;" horiz-adv-x="477" 
d="M112 -167h-136l110 660h136l-48 -288q-9 -52 -9 -75q0 -38 42 -38q20 0 33.5 10t22 30t12 35t7.5 40l48 286h136l-82 -493h-117l13 78q-39 -90 -94 -90q-39 0 -39 53z" />
    <glyph glyph-name="paragraph" unicode="&#xb6;" 
d="M466 667v-833h-73v772h-43v-772h-73v415h-25q-38 0 -57 1t-47 9.5t-51 25.5q-74 53 -74 171q0 57 21.5 105t56.5 73q47 33 152 33h213z" />
    <glyph glyph-name="periodcentered" unicode="&#xb7;" horiz-adv-x="256" 
d="M185 183h-137l25 148h136z" />
    <glyph glyph-name="cedilla" unicode="&#xb8;" horiz-adv-x="460" 
d="M92 -162l22 39q36 -22 64 -22q21 0 31 10t10 22q0 14 -13 24.5t-42 10.5q-10 0 -20 -2l42 80h49l-24 -46q18 2 22 2q26 0 44.5 -16.5t18.5 -45.5q0 -37 -30 -62t-76 -25q-56 0 -98 31z" />
    <glyph glyph-name="one.superior" unicode="&#xb9;" horiz-adv-x="341" 
d="M68 267l13 79h74l34 204q-16 -10 -32.5 -13.5t-58.5 -3.5l14 84q85 -2 118 54h79l-54 -325h72l-13 -79h-246z" />
    <glyph glyph-name="ordmasculine" unicode="&#xba;" 
d="M280 330q-68 0 -104 50q-25 35 -25 97q0 31 7.5 63t24 65t51 53.5t82.5 20.5q70 0 98.5 -42.5t28.5 -105.5q0 -108 -60 -166q-37 -35 -103 -35zM285 403q27 0 38.5 56t11.5 96q0 51 -25 51q-19 0 -31 -29q-20 -58 -20 -130q0 -44 26 -44z" />
    <glyph glyph-name="guillemotright" unicode="&#xbb;" horiz-adv-x="426" 
d="M93 85h-71l80 175l-22 172h59l74 -172zM264 85h-72l81 175l-23 172h60l73 -172z" />
    <glyph glyph-name="onequarter" unicode="&#xbc;" horiz-adv-x="835" 
d="M546 160h78l30 148zM247 0h-89l447 667h88zM595 0l15 86h-158l13 75l195 239h98l-40 -238h52l-13 -76h-52l-14 -86h-96zM62 267l13 79h74l34 204q-16 -10 -32.5 -13.5t-58.5 -3.5l15 84q85 -3 117 54h80l-55 -325h72l-13 -79h-246z" />
    <glyph glyph-name="onehalf" unicode="&#xbd;" horiz-adv-x="835" 
d="M58 267l13 79h74l34 204q-16 -10 -32.5 -13.5t-58.5 -3.5l14 84q85 -2 118 54h79l-54 -325h72l-13 -79h-246zM248 0h-89l447 667h89zM481 0l13 88q70 42 134.5 101t64.5 106q0 5 -1.5 11t-9.5 13.5t-21 7.5q-36 0 -47 -68l-93 19q5 52 43 90.5t102 38.5q59 0 94.5 -31.5
t35.5 -79.5q0 -35 -15 -65.5t-45.5 -57.5t-55.5 -44.5t-66 -42.5h154l-15 -86h-272z" />
    <glyph glyph-name="threequarters" unicode="&#xbe;" horiz-adv-x="835" 
d="M564 160h78l29 148zM262 0h-89l447 667h88zM612 0l15 86h-157l12 75l195 239h98l-40 -238h53l-13 -76h-52l-15 -86h-96zM43 379l87 24q2 -15 4 -23t7.5 -21t16 -19.5t26.5 -6.5q26 0 38 15.5t12 36.5q0 19 -7 30.5t-20 16t-21 5.5t-21 1h-16l15 71h22q65 0 65 50
q0 41 -39 41q-20 0 -30.5 -13.5t-19.5 -39.5l-84 26q31 101 146 101q58 0 91 -27q36 -29 36 -81q0 -26 -8 -44.5t-23.5 -28t-26 -13.5t-27.5 -8q14 -4 22 -8t20.5 -13.5t19 -26t6.5 -39.5q0 -48 -33.5 -87t-110.5 -39q-43 0 -72.5 11t-44.5 33t-20 37t-10 39z" />
    <glyph glyph-name="questiondown" unicode="&#xbf;" horiz-adv-x="460" 
d="M202 493h133l-25 -148h-133zM182 290h121q-6 -80 -22.5 -118t-62.5 -68q-39 -26 -55 -38.5t-27 -31.5t-11 -46q0 -38 18.5 -55t44.5 -17q18 0 32.5 7.5t23 16.5t16.5 26t10.5 26l7.5 27l106 -34q-20 -83 -73 -130.5t-135 -47.5q-91 0 -138.5 49t-47.5 126q0 44 11 78
t34 58t37 34.5t40 26.5q42 24 53.5 44.5t16.5 66.5z" />
    <glyph glyph-name="Agrave" unicode="&#xc0;" 
d="M396 667l75 -667h-143l-13 147h-167l-61 -147h-132l294 667h147zM306 260l-16 256l-99 -256h115zM371 710l-179 75l43 81l162 -100z" />
    <glyph glyph-name="Aacute" unicode="&#xc1;" 
d="M396 667l75 -667h-143l-13 147h-167l-61 -147h-132l294 667h147zM306 260l-16 256l-99 -256h115zM500 787l-212 -76l-26 50l205 104z" />
    <glyph glyph-name="Acircumflex" unicode="&#xc2;" 
d="M396 667l75 -667h-143l-13 147h-167l-61 -147h-132l294 667h147zM306 260l-16 256l-99 -256h115zM248 728h-111l207 123l170 -123h-100l-80 36z" />
    <glyph glyph-name="Atilde" unicode="&#xc3;" 
d="M396 667l75 -667h-143l-13 147h-167l-61 -147h-132l294 667h147zM306 260l-16 256l-99 -256h115zM196 732l-39 45q50 62 108 62q28 0 70 -22q29 -15 46 -15q35 0 72 44l40 -44q-19 -22 -31 -34.5t-35.5 -26t-45.5 -13.5q-29 0 -67 19q-39 18 -55 18q-34 0 -63 -33z" />
    <glyph glyph-name="Adieresis" unicode="&#xc4;" 
d="M396 667l75 -667h-143l-13 147h-167l-61 -147h-132l294 667h147zM306 260l-16 256l-99 -256h115zM257 728q-23 0 -39.5 16t-16.5 40q0 23 16.5 39t39.5 16t39 -16.5t16 -38.5q0 -23 -16 -39.5t-39 -16.5zM412 728q-23 0 -39.5 16.5t-16.5 39.5t16.5 39t39.5 16t39 -16.5
t16 -38.5q0 -23 -16 -39.5t-39 -16.5z" />
    <glyph glyph-name="Aring" unicode="&#xc5;" 
d="M396 667l75 -667h-143l-13 147h-167l-61 -147h-132l294 667h147zM306 260l-16 256l-99 -256h115zM338 709q-40 0 -68 28t-28 67t27 67.5t69 28.5q41 0 68 -28.5t27 -67.5t-27.5 -67t-67.5 -28zM338 767q17 0 27 12t10 25q0 15 -10.5 26.5t-27.5 11.5q-16 0 -26.5 -11.5
t-10.5 -26.5q0 -14 10.5 -25.5t27.5 -11.5z" />
    <glyph glyph-name="AE" unicode="&#xc6;" horiz-adv-x="750" 
d="M-31 0l393 667h435l-19 -117h-230l-25 -152h186l-18 -112h-187l-28 -169h229l-19 -117h-369l27 167h-142l-94 -167h-139zM364 286l62 305l-163 -305h101z" />
    <glyph glyph-name="Ccedilla" unicode="&#xc7;" horiz-adv-x="528" 
d="M260 -12l-20 -38q22 2 24 2q28 0 48.5 -17.5t20.5 -50.5q0 -40 -32.5 -67.5t-83.5 -27.5q-61 0 -107 33l24 44q40 -25 70 -25q21 0 33 10t12 25q0 17 -14.5 28t-44.5 11q-12 0 -23 -2l41 78q-57 16 -91 46q-75 67 -75 210q0 34 3.5 74t25 117.5t59.5 134.5
q71 106 206 106q87 0 143.5 -52.5t56.5 -159.5q0 -11 -2 -41l-147 -9q0 31 0.5 63t-15.5 56t-49 24q-55 0 -82 -75q-23 -64 -33.5 -140t-10.5 -121q0 -117 68 -117q37 0 61 32t40 101l141 -25q-27 -134 -109 -190q-51 -34 -138 -37z" />
    <glyph glyph-name="Egrave" unicode="&#xc8;" horiz-adv-x="477" 
d="M16 0l112 667h393l-19 -117h-254l-26 -152h211l-19 -112h-210l-29 -169h258l-20 -117h-397zM361 710l-179 75l43 81l162 -100z" />
    <glyph glyph-name="Eacute" unicode="&#xc9;" horiz-adv-x="477" 
d="M16 0l112 667h393l-19 -117h-254l-26 -152h211l-19 -112h-210l-29 -169h258l-20 -117h-397zM500 787l-212 -76l-26 50l205 104z" />
    <glyph glyph-name="Ecircumflex" unicode="&#xca;" horiz-adv-x="477" 
d="M16 0l112 667h393l-19 -117h-254l-26 -152h211l-19 -112h-210l-29 -169h258l-20 -117h-397zM248 728h-111l207 123l170 -123h-100l-80 36z" />
    <glyph glyph-name="Edieresis" unicode="&#xcb;" horiz-adv-x="477" 
d="M16 0l112 667h393l-19 -117h-254l-26 -152h211l-19 -112h-210l-29 -169h258l-20 -117h-397zM257 728q-23 0 -39.5 16t-16.5 40q0 23 16.5 39t39.5 16t39 -16.5t16 -38.5q0 -23 -16 -39.5t-39 -16.5zM412 728q-23 0 -39.5 16.5t-16.5 39.5t16.5 39t39.5 16t39 -16.5
t16 -38.5q0 -23 -16 -39.5t-39 -16.5z" />
    <glyph glyph-name="Igrave" unicode="&#xcc;" horiz-adv-x="255" 
d="M16 0l111 667h140l-111 -667h-140zM241 710l-179 75l43 81l162 -100z" />
    <glyph glyph-name="Iacute" unicode="&#xcd;" horiz-adv-x="255" 
d="M16 0l111 667h140l-111 -667h-140zM380 787l-212 -76l-26 50l205 104z" />
    <glyph glyph-name="Icircumflex" unicode="&#xce;" horiz-adv-x="255" 
d="M16 0l111 667h140l-111 -667h-140zM118 728h-111l207 123l170 -123h-100l-80 36z" />
    <glyph glyph-name="Idieresis" unicode="&#xcf;" horiz-adv-x="255" 
d="M16 0l111 667h140l-111 -667h-140zM132 728q-23 0 -39.5 16t-16.5 40q0 23 16.5 39t39.5 16t39 -16.5t16 -38.5q0 -23 -16 -39.5t-39 -16.5zM287 728q-23 0 -39.5 16.5t-16.5 39.5t16.5 39t39.5 16t39 -16.5t16 -38.5q0 -23 -16 -39.5t-39 -16.5z" />
    <glyph glyph-name="Eth" unicode="&#xd0;" horiz-adv-x="562" 
d="M63 285h-55l17 113h57l45 269h145q119 0 176 -32q99 -55 99 -232q0 -25 -1.5 -51.5t-10 -74.5t-23 -87.5t-44 -81t-68.5 -64.5q-34 -21 -73.5 -31t-64.5 -11.5t-72 -1.5h-174zM248 555l-26 -157h109l-16 -112h-112l-29 -174h38q63 0 103 40q32 32 55 102t23 173
q0 75 -26 101.5t-92 26.5h-27z" />
    <glyph glyph-name="Ntilde" unicode="&#xd1;" horiz-adv-x="562" 
d="M16 0l112 667h141l123 -408l65 408h117l-112 -667h-108l-144 482l-77 -482h-117zM246 732l-39 45q50 62 108 62q28 0 70 -22q29 -15 46 -15q35 0 72 44l40 -44q-19 -22 -31 -34.5t-35.5 -26t-45.5 -13.5q-29 0 -67 19q-39 18 -55 18q-34 0 -63 -33z" />
    <glyph glyph-name="Ograve" unicode="&#xd2;" horiz-adv-x="562" 
d="M262 -12q-218 0 -218 262q0 68 14.5 137.5t46 137.5t90.5 111t138 43q17 0 35.5 -3t47.5 -12t55.5 -32.5t42.5 -58.5q30 -64 30 -164q0 -187 -84 -314q-72 -107 -198 -107zM269 107q59 0 88 84q44 129 44 252q0 14 -1.5 27t-7.5 37t-23 38.5t-43 14.5q-18 0 -33.5 -7.5
t-25.5 -20t-16 -22.5t-10 -20q-54 -124 -54 -275q0 -108 82 -108zM361 710l-179 75l43 81l162 -100z" />
    <glyph glyph-name="Oacute" unicode="&#xd3;" horiz-adv-x="562" 
d="M262 -12q-218 0 -218 262q0 68 14.5 137.5t46 137.5t90.5 111t138 43q17 0 35.5 -3t47.5 -12t55.5 -32.5t42.5 -58.5q30 -64 30 -164q0 -187 -84 -314q-72 -107 -198 -107zM269 107q59 0 88 84q44 129 44 252q0 14 -1.5 27t-7.5 37t-23 38.5t-43 14.5q-18 0 -33.5 -7.5
t-25.5 -20t-16 -22.5t-10 -20q-54 -124 -54 -275q0 -108 82 -108zM500 787l-212 -76l-26 50l205 104z" />
    <glyph glyph-name="Ocircumflex" unicode="&#xd4;" horiz-adv-x="562" 
d="M262 -12q-218 0 -218 262q0 68 14.5 137.5t46 137.5t90.5 111t138 43q17 0 35.5 -3t47.5 -12t55.5 -32.5t42.5 -58.5q30 -64 30 -164q0 -187 -84 -314q-72 -107 -198 -107zM269 107q59 0 88 84q44 129 44 252q0 14 -1.5 27t-7.5 37t-23 38.5t-43 14.5q-18 0 -33.5 -7.5
t-25.5 -20t-16 -22.5t-10 -20q-54 -124 -54 -275q0 -108 82 -108zM263 728h-111l207 123l170 -123h-100l-80 36z" />
    <glyph glyph-name="Otilde" unicode="&#xd5;" horiz-adv-x="562" 
d="M262 -12q-218 0 -218 262q0 68 14.5 137.5t46 137.5t90.5 111t138 43q17 0 35.5 -3t47.5 -12t55.5 -32.5t42.5 -58.5q30 -64 30 -164q0 -187 -84 -314q-72 -107 -198 -107zM269 107q59 0 88 84q44 129 44 252q0 14 -1.5 27t-7.5 37t-23 38.5t-43 14.5q-18 0 -33.5 -7.5
t-25.5 -20t-16 -22.5t-10 -20q-54 -124 -54 -275q0 -108 82 -108zM221 732l-39 45q50 62 108 62q28 0 70 -22q29 -15 46 -15q35 0 72 44l40 -44q-19 -22 -31 -34.5t-35.5 -26t-45.5 -13.5q-29 0 -67 19q-39 18 -55 18q-34 0 -63 -33z" />
    <glyph glyph-name="Odieresis" unicode="&#xd6;" horiz-adv-x="562" 
d="M262 -12q-218 0 -218 262q0 68 14.5 137.5t46 137.5t90.5 111t138 43q17 0 35.5 -3t47.5 -12t55.5 -32.5t42.5 -58.5q30 -64 30 -164q0 -187 -84 -314q-72 -107 -198 -107zM269 107q59 0 88 84q44 129 44 252q0 14 -1.5 27t-7.5 37t-23 38.5t-43 14.5q-18 0 -33.5 -7.5
t-25.5 -20t-16 -22.5t-10 -20q-54 -124 -54 -275q0 -108 82 -108zM272 728q-23 0 -39.5 16t-16.5 40q0 23 16.5 39t39.5 16t39 -16.5t16 -38.5q0 -23 -16 -39.5t-39 -16.5zM427 728q-23 0 -39.5 16.5t-16.5 39.5t16.5 39t39.5 16t39 -16.5t16 -38.5q0 -23 -16 -39.5
t-39 -16.5z" />
    <glyph glyph-name="multiply" unicode="&#xd7;" 
d="M269 405l121 121l72 -72l-121 -121l121 -120l-72 -72l-121 121l-120 -121l-72 72l121 120l-121 121l72 72z" />
    <glyph glyph-name="Oslash" unicode="&#xd8;" horiz-adv-x="562" 
d="M114 37l-42 -56h-85l84 116q-28 60 -28 156q0 50 8 104t29.5 112.5t53 104.5t83 75.5t115.5 29.5q75 0 133 -43l41 57h84l-81 -112q34 -67 34 -174q0 -186 -84 -311q-72 -108 -197 -108q-87 0 -148 49zM178 232l209 307q-24 31 -63 31q-24 0 -43.5 -12.5t-33.5 -36.5
t-20 -38.5t-14 -38.5q-31 -97 -35 -212zM410 454l-216 -316q22 -41 71 -41q43 0 74.5 39.5t55.5 161.5q18 99 15 156z" />
    <glyph glyph-name="Ugrave" unicode="&#xd9;" horiz-adv-x="545" 
d="M121 667h139l-62 -371q-13 -84 -13 -112q0 -41 23.5 -59t54.5 -18q53 0 72 32.5t33 120.5l68 407h127l-72 -432q-21 -129 -62 -179q-28 -35 -79 -51.5t-103 -16.5q-99 0 -150.5 47t-51.5 127q0 48 11 119zM361 710l-179 75l43 81l162 -100z" />
    <glyph glyph-name="Uacute" unicode="&#xda;" horiz-adv-x="545" 
d="M121 667h139l-62 -371q-13 -84 -13 -112q0 -41 23.5 -59t54.5 -18q53 0 72 32.5t33 120.5l68 407h127l-72 -432q-21 -129 -62 -179q-28 -35 -79 -51.5t-103 -16.5q-99 0 -150.5 47t-51.5 127q0 48 11 119zM540 787l-212 -76l-26 50l205 104z" />
    <glyph glyph-name="Ucircumflex" unicode="&#xdb;" horiz-adv-x="545" 
d="M121 667h139l-62 -371q-13 -84 -13 -112q0 -41 23.5 -59t54.5 -18q53 0 72 32.5t33 120.5l68 407h127l-72 -432q-21 -129 -62 -179q-28 -35 -79 -51.5t-103 -16.5q-99 0 -150.5 47t-51.5 127q0 48 11 119zM268 728h-111l207 123l170 -123h-100l-80 36z" />
    <glyph glyph-name="Udieresis" unicode="&#xdc;" horiz-adv-x="545" 
d="M121 667h139l-62 -371q-13 -84 -13 -112q0 -41 23.5 -59t54.5 -18q53 0 72 32.5t33 120.5l68 407h127l-72 -432q-21 -129 -62 -179q-28 -35 -79 -51.5t-103 -16.5q-99 0 -150.5 47t-51.5 127q0 48 11 119zM272 728q-23 0 -39.5 16t-16.5 40q0 23 16.5 39t39.5 16
t39 -16.5t16 -38.5q0 -23 -16 -39.5t-39 -16.5zM427 728q-23 0 -39.5 16.5t-16.5 39.5t16.5 39t39.5 16t39 -16.5t16 -38.5q0 -23 -16 -39.5t-39 -16.5z" />
    <glyph glyph-name="Yacute" unicode="&#xdd;" horiz-adv-x="460" 
d="M126 0l47 281l-126 386h144l76 -251l143 251h133l-231 -391l-46 -276h-140zM520 787l-212 -76l-26 50l205 104z" />
    <glyph glyph-name="Thorn" unicode="&#xde;" 
d="M17 0l111 667h140l-18 -109h55q18 0 29.5 -0.5t36 -4t41 -10t38 -20.5t34.5 -33t22 -49.5t9 -68.5q0 -53 -18 -103.5t-56 -79.5q-30 -22 -63.5 -33.5t-53 -13t-50.5 -1.5h-94l-24 -141h-139zM230 441l-30 -183h67q45 0 69 15q18 12 27 39t9 52q0 26 -8.5 43t-25 23.5
t-30 8.5t-34.5 2h-44z" />
    <glyph glyph-name="germandbls" unicode="&#xdf;" horiz-adv-x="528" 
d="M2 -54l67 400h-50l17 106h51q9 44 17 71t33.5 69.5t61.5 67.5q64 44 138 44q76 0 124.5 -39.5t48.5 -100.5q0 -59 -47.5 -107t-117.5 -51q-4 -8 -4 -12q0 -8 9.5 -15t59.5 -36q27 -16 44 -30.5t33 -45.5t16 -71q0 -46 -19 -91.5t-66.5 -81t-115.5 -35.5q-58 0 -116 32
l47 86q34 -24 66 -24q23 0 38.5 8.5t22 22t9 24t2.5 19.5q0 31 -14.5 48.5t-74.5 65.5q-41 32 -41 91q0 58 32 106q50 2 79 24.5t29 55.5q0 24 -16 40.5t-45 16.5q-46 0 -64 -31t-28 -95l-90 -532h-136z" />
    <glyph glyph-name="agrave" unicode="&#xe0;" horiz-adv-x="460" 
d="M420 291l-33 -203q-6 -40 -6 -57q0 -13 3 -31h-132q-4 16 -4 29q0 10 5 37q-9 -16 -15.5 -25.5t-21.5 -23.5t-37.5 -21.5t-52.5 -7.5q-36 0 -61 12.5t-36.5 33.5t-16 40t-4.5 39q0 38 12.5 68.5t30.5 50t47 34.5t52 22t56 12t48 6t39 2q7 47 7 61q0 27 -15 39.5t-35 12.5
q-54 0 -67 -83l-124 15q6 22 10.5 36.5t19 39t33 39.5t52.5 26.5t78 11.5q92 0 135 -40.5t43 -92.5q0 -25 -10 -82zM146 127q0 -23 12 -38.5t36 -15.5q15 0 26 4t19.5 15.5t13.5 21t11 34.5t9 40t9 51q-43 -3 -73 -18t-42 -35t-16.5 -34t-4.5 -25zM326 554l-164 86l48 73
l145 -108z" />
    <glyph glyph-name="aacute" unicode="&#xe1;" horiz-adv-x="460" 
d="M420 291l-33 -203q-6 -40 -6 -57q0 -13 3 -31h-132q-4 16 -4 29q0 10 5 37q-9 -16 -15.5 -25.5t-21.5 -23.5t-37.5 -21.5t-52.5 -7.5q-36 0 -61 12.5t-36.5 33.5t-16 40t-4.5 39q0 38 12.5 68.5t30.5 50t47 34.5t52 22t56 12t48 6t39 2q7 47 7 61q0 27 -15 39.5t-35 12.5
q-54 0 -67 -83l-124 15q6 22 10.5 36.5t19 39t33 39.5t52.5 26.5t78 11.5q92 0 135 -40.5t43 -92.5q0 -25 -10 -82zM146 127q0 -23 12 -38.5t36 -15.5q15 0 26 4t19.5 15.5t13.5 21t11 34.5t9 40t9 51q-43 -3 -73 -18t-42 -35t-16.5 -34t-4.5 -25zM438 642l-195 -90l-29 45
l186 116z" />
    <glyph glyph-name="acircumflex" unicode="&#xe2;" horiz-adv-x="460" 
d="M420 291l-33 -203q-6 -40 -6 -57q0 -13 3 -31h-132q-4 16 -4 29q0 10 5 37q-9 -16 -15.5 -25.5t-21.5 -23.5t-37.5 -21.5t-52.5 -7.5q-36 0 -61 12.5t-36.5 33.5t-16 40t-4.5 39q0 38 12.5 68.5t30.5 50t47 34.5t52 22t56 12t48 6t39 2q7 47 7 61q0 27 -15 39.5t-35 12.5
q-54 0 -67 -83l-124 15q6 22 10.5 36.5t19 39t33 39.5t52.5 26.5t78 11.5q92 0 135 -40.5t43 -92.5q0 -25 -10 -82zM146 127q0 -23 12 -38.5t36 -15.5q15 0 26 4t19.5 15.5t13.5 21t11 34.5t9 40t9 51q-43 -3 -73 -18t-42 -35t-16.5 -34t-4.5 -25zM218 557h-98l181 140
l142 -140h-87l-65 51z" />
    <glyph glyph-name="atilde" unicode="&#xe3;" horiz-adv-x="460" 
d="M420 291l-33 -203q-6 -40 -6 -57q0 -13 3 -31h-132q-4 16 -4 29q0 10 5 37q-9 -16 -15.5 -25.5t-21.5 -23.5t-37.5 -21.5t-52.5 -7.5q-36 0 -61 12.5t-36.5 33.5t-16 40t-4.5 39q0 38 12.5 68.5t30.5 50t47 34.5t52 22t56 12t48 6t39 2q7 47 7 61q0 27 -15 39.5t-35 12.5
q-54 0 -67 -83l-124 15q6 22 10.5 36.5t19 39t33 39.5t52.5 26.5t78 11.5q92 0 135 -40.5t43 -92.5q0 -25 -10 -82zM146 127q0 -23 12 -38.5t36 -15.5q15 0 26 4t19.5 15.5t13.5 21t11 34.5t9 40t9 51q-43 -3 -73 -18t-42 -35t-16.5 -34t-4.5 -25zM174 570l-36 41
q15 17 23 25t30.5 20t45.5 12q25 0 64 -20q27 -15 43 -15q14 0 27 7.5t19 13t19 20.5l37 -41q-57 -68 -103 -68q-26 0 -61 18q-35 17 -50 17q-31 0 -58 -30z" />
    <glyph glyph-name="adieresis" unicode="&#xe4;" horiz-adv-x="460" 
d="M420 291l-33 -203q-6 -40 -6 -57q0 -13 3 -31h-132q-4 16 -4 29q0 10 5 37q-9 -16 -15.5 -25.5t-21.5 -23.5t-37.5 -21.5t-52.5 -7.5q-36 0 -61 12.5t-36.5 33.5t-16 40t-4.5 39q0 38 12.5 68.5t30.5 50t47 34.5t52 22t56 12t48 6t39 2q7 47 7 61q0 27 -15 39.5t-35 12.5
q-54 0 -67 -83l-124 15q6 22 10.5 36.5t19 39t33 39.5t52.5 26.5t78 11.5q92 0 135 -40.5t43 -92.5q0 -25 -10 -82zM146 127q0 -23 12 -38.5t36 -15.5q15 0 26 4t19.5 15.5t13.5 21t11 34.5t9 40t9 51q-43 -3 -73 -18t-42 -35t-16.5 -34t-4.5 -25zM213 563q-22 0 -37.5 15.5
t-15.5 37.5t15.5 37.5t37.5 15.5t37.5 -16t15.5 -37t-15.5 -37t-37.5 -16zM369 563q-22 0 -37.5 15.5t-15.5 37.5t15 37.5t38 15.5t38 -16t15 -37q0 -22 -15 -37.5t-38 -15.5z" />
    <glyph glyph-name="aring" unicode="&#xe5;" horiz-adv-x="460" 
d="M420 291l-33 -203q-6 -40 -6 -57q0 -13 3 -31h-132q-4 16 -4 29q0 10 5 37q-9 -16 -15.5 -25.5t-21.5 -23.5t-37.5 -21.5t-52.5 -7.5q-36 0 -61 12.5t-36.5 33.5t-16 40t-4.5 39q0 38 12.5 68.5t30.5 50t47 34.5t52 22t56 12t48 6t39 2q7 47 7 61q0 27 -15 39.5t-35 12.5
q-54 0 -67 -83l-124 15q6 22 10.5 36.5t19 39t33 39.5t52.5 26.5t78 11.5q92 0 135 -40.5t43 -92.5q0 -25 -10 -82zM146 127q0 -23 12 -38.5t36 -15.5q15 0 26 4t19.5 15.5t13.5 21t11 34.5t9 40t9 51q-43 -3 -73 -18t-42 -35t-16.5 -34t-4.5 -25zM296 551q-39 0 -65 27
t-26 63t26 63.5t65 27.5t64.5 -27.5t25.5 -63.5t-26 -63t-64 -27zM296 602q16 0 27.5 12t11.5 27q0 16 -11 28t-28 12t-28.5 -12t-11.5 -28q0 -15 11.5 -27t28.5 -12z" />
    <glyph glyph-name="ae" unicode="&#xe6;" horiz-adv-x="716" 
d="M682 224h-266q-2 -26 -2 -48q0 -94 60 -94q32 0 48.5 22t28.5 63l112 -20q-11 -33 -23.5 -56.5t-34.5 -49.5t-56.5 -39.5t-79.5 -13.5t-76.5 17t-43.5 35t-26 48q-25 -45 -55 -65q-55 -35 -126 -35q-54 0 -94 31t-40 97t38.5 107.5t83.5 56.5q69 24 167 28q8 42 8 60
q0 30 -18.5 41.5t-37.5 11.5q-23 0 -37.5 -14.5t-19.5 -29.5t-9 -39l-124 15q6 22 10.5 36t19 39t33 39.5t52 26.5t76.5 12q38 0 68 -9.5t41.5 -18t27.5 -23.5q58 50 125 50q99 0 147 -82q28 -47 28 -128q0 -36 -5 -71zM427 302h139q4 22 4 45q0 74 -57 74q-69 0 -86 -119z
M286 239q-52 -5 -83 -23q-23 -13 -40 -36.5t-17 -52.5q0 -22 11.5 -38t36.5 -16q18 0 31.5 8t22 18.5t16 35.5t11.5 44.5t11 59.5z" />
    <glyph glyph-name="ccedilla" unicode="&#xe7;" horiz-adv-x="426" 
d="M205 -13l-18 -33q18 2 22 2q25 0 44 -16t19 -46q0 -36 -29.5 -61.5t-76.5 -25.5q-56 0 -98 31l22 39q33 -22 64 -22q20 0 30.5 9.5t10.5 22.5q0 15 -13.5 25t-41.5 10q-10 0 -20 -2l37 72q-54 12 -85 48q-48 56 -48 156q0 35 6 73t23 81t42 76.5t66.5 56t94.5 22.5
q47 0 81 -17t49.5 -38.5t24.5 -52.5t10 -46t1 -33l-119 -7q-3 90 -52 90q-47 0 -72 -95q-19 -73 -19 -141q0 -21 5.5 -36t12 -22t15.5 -11t13 -4.5t8 -0.5q45 0 73 96l117 -17q-42 -178 -199 -183z" />
    <glyph glyph-name="egrave" unicode="&#xe8;" horiz-adv-x="460" 
d="M427 224h-263q-4 -26 -4 -56q0 -86 57 -86q33 0 50 21.5t29 63.5l111 -20q-28 -87 -76 -123t-122 -36q-84 0 -126 44q-58 58 -58 168q0 125 63 215t167 90q101 0 149 -82q28 -50 28 -128q0 -36 -5 -71zM175 302h131q4 22 4 44q0 74 -54 74q-63 0 -81 -118zM326 554
l-164 86l48 73l145 -108z" />
    <glyph glyph-name="eacute" unicode="&#xe9;" horiz-adv-x="460" 
d="M427 224h-263q-4 -26 -4 -56q0 -86 57 -86q33 0 50 21.5t29 63.5l111 -20q-28 -87 -76 -123t-122 -36q-84 0 -126 44q-58 58 -58 168q0 125 63 215t167 90q101 0 149 -82q28 -50 28 -128q0 -36 -5 -71zM175 302h131q4 22 4 44q0 74 -54 74q-63 0 -81 -118zM438 642
l-195 -90l-29 45l186 116z" />
    <glyph glyph-name="ecircumflex" unicode="&#xea;" horiz-adv-x="460" 
d="M427 224h-263q-4 -26 -4 -56q0 -86 57 -86q33 0 50 21.5t29 63.5l111 -20q-28 -87 -76 -123t-122 -36q-84 0 -126 44q-58 58 -58 168q0 125 63 215t167 90q101 0 149 -82q28 -50 28 -128q0 -36 -5 -71zM175 302h131q4 22 4 44q0 74 -54 74q-63 0 -81 -118zM198 557h-98
l181 140l142 -140h-87l-65 51z" />
    <glyph glyph-name="edieresis" unicode="&#xeb;" horiz-adv-x="460" 
d="M427 224h-263q-4 -26 -4 -56q0 -86 57 -86q33 0 50 21.5t29 63.5l111 -20q-28 -87 -76 -123t-122 -36q-84 0 -126 44q-58 58 -58 168q0 125 63 215t167 90q101 0 149 -82q28 -50 28 -128q0 -36 -5 -71zM175 302h131q4 22 4 44q0 74 -54 74q-63 0 -81 -118zM213 563
q-22 0 -37.5 15.5t-15.5 37.5t15.5 37.5t37.5 15.5t37.5 -16t15.5 -37t-15.5 -37t-37.5 -16zM369 563q-22 0 -37.5 15.5t-15.5 37.5t15 37.5t38 15.5t38 -16t15 -37q0 -22 -15 -37.5t-38 -15.5z" />
    <glyph glyph-name="igrave" unicode="&#xec;" horiz-adv-x="239" 
d="M9 0l82 493h137l-83 -493h-136zM216 554l-164 86l48 73l145 -108z" />
    <glyph glyph-name="iacute" unicode="&#xed;" horiz-adv-x="239" 
d="M9 0l82 493h137l-83 -493h-136zM328 642l-195 -90l-29 45l186 116z" />
    <glyph glyph-name="icircumflex" unicode="&#xee;" horiz-adv-x="239" 
d="M9 0l82 493h137l-83 -493h-136zM108 557h-98l181 140l142 -140h-87l-65 51z" />
    <glyph glyph-name="idieresis" unicode="&#xef;" horiz-adv-x="239" 
d="M9 0l82 493h137l-83 -493h-136zM103 563q-22 0 -37.5 15.5t-15.5 37.5t15.5 37.5t37.5 15.5t37.5 -16t15.5 -37t-15.5 -37t-37.5 -16zM259 563q-22 0 -37.5 15.5t-15.5 37.5t15 37.5t38 15.5t38 -16t15 -37q0 -22 -15 -37.5t-38 -15.5z" />
    <glyph glyph-name="eth" unicode="&#xf0;" horiz-adv-x="460" 
d="M163 153q0 -34 9.5 -52.5t36.5 -18.5q32 0 52.5 56.5t26.5 107.5t6 85q0 80 -42 80q-28 0 -47.5 -33.5t-27.5 -83.5t-11 -84t-3 -57zM500 644l-116 -41q49 -158 49 -309q0 -26 -3.5 -57t-17 -78t-36 -82.5t-66.5 -62t-102 -26.5q-67 0 -110 31.5t-58.5 76.5t-15.5 104
q0 135 64 220t135 85q22 0 43 -12t31 -33q-8 45 -25 103l-113 -41l-26 69l115 41q-10 26 -15 38l114 40q4 -8 14 -37l114 41z" />
    <glyph glyph-name="ntilde" unicode="&#xf1;" horiz-adv-x="477" 
d="M9 0l83 493h117l-13 -79q44 91 136 91q50 0 80 -22q38 -28 38 -84q0 -46 -11 -104l-49 -295h-137l50 295q8 58 8 66q0 17 -9.5 26.5t-17.5 11.5t-15 2q-16 0 -28 -7.5t-19.5 -17.5t-14 -30t-9.5 -35.5t-8 -44.5l-45 -266h-136zM183 570l-36 41q15 17 23 25t30.5 20
t45.5 12q25 0 64 -20q27 -15 43 -15q14 0 27 7.5t19 13t19 20.5l37 -41q-57 -68 -103 -68q-26 0 -61 18q-35 17 -50 17q-31 0 -58 -30z" />
    <glyph glyph-name="ograve" unicode="&#xf2;" horiz-adv-x="460" 
d="M203 -12q-71 0 -119 42q-60 53 -60 170q0 52 12.5 103t38 97.5t73 75.5t110.5 29q93 0 134 -60t41 -152q0 -64 -20 -135t-67 -119q-49 -51 -143 -51zM209 82q31 0 52 55.5t27 107t6 85.5q0 22 -1.5 36.5t-11.5 29.5t-29 15q-28 0 -47.5 -33.5t-27.5 -83.5t-11 -84t-3 -57
q0 -35 10 -53t36 -18zM326 554l-164 86l48 73l145 -108z" />
    <glyph glyph-name="oacute" unicode="&#xf3;" horiz-adv-x="460" 
d="M203 -12q-71 0 -119 42q-60 53 -60 170q0 52 12.5 103t38 97.5t73 75.5t110.5 29q93 0 134 -60t41 -152q0 -64 -20 -135t-67 -119q-49 -51 -143 -51zM209 82q31 0 52 55.5t27 107t6 85.5q0 22 -1.5 36.5t-11.5 29.5t-29 15q-28 0 -47.5 -33.5t-27.5 -83.5t-11 -84t-3 -57
q0 -35 10 -53t36 -18zM438 642l-195 -90l-29 45l186 116z" />
    <glyph glyph-name="ocircumflex" unicode="&#xf4;" horiz-adv-x="460" 
d="M203 -12q-71 0 -119 42q-60 53 -60 170q0 52 12.5 103t38 97.5t73 75.5t110.5 29q93 0 134 -60t41 -152q0 -64 -20 -135t-67 -119q-49 -51 -143 -51zM209 82q31 0 52 55.5t27 107t6 85.5q0 22 -1.5 36.5t-11.5 29.5t-29 15q-28 0 -47.5 -33.5t-27.5 -83.5t-11 -84t-3 -57
q0 -35 10 -53t36 -18zM198 557h-98l181 140l142 -140h-87l-65 51z" />
    <glyph glyph-name="otilde" unicode="&#xf5;" horiz-adv-x="460" 
d="M203 -12q-71 0 -119 42q-60 53 -60 170q0 52 12.5 103t38 97.5t73 75.5t110.5 29q93 0 134 -60t41 -152q0 -64 -20 -135t-67 -119q-49 -51 -143 -51zM209 82q31 0 52 55.5t27 107t6 85.5q0 22 -1.5 36.5t-11.5 29.5t-29 15q-28 0 -47.5 -33.5t-27.5 -83.5t-11 -84t-3 -57
q0 -35 10 -53t36 -18zM174 570l-36 41q15 17 23 25t30.5 20t45.5 12q25 0 64 -20q27 -15 43 -15q14 0 27 7.5t19 13t19 20.5l37 -41q-57 -68 -103 -68q-26 0 -61 18q-35 17 -50 17q-31 0 -58 -30z" />
    <glyph glyph-name="odieresis" unicode="&#xf6;" horiz-adv-x="460" 
d="M203 -12q-71 0 -119 42q-60 53 -60 170q0 52 12.5 103t38 97.5t73 75.5t110.5 29q93 0 134 -60t41 -152q0 -64 -20 -135t-67 -119q-49 -51 -143 -51zM209 82q31 0 52 55.5t27 107t6 85.5q0 22 -1.5 36.5t-11.5 29.5t-29 15q-28 0 -47.5 -33.5t-27.5 -83.5t-11 -84t-3 -57
q0 -35 10 -53t36 -18zM213 563q-22 0 -37.5 15.5t-15.5 37.5t15.5 37.5t37.5 15.5t37.5 -16t15.5 -37t-15.5 -37t-37.5 -16zM369 563q-22 0 -37.5 15.5t-15.5 37.5t15 37.5t38 15.5t38 -16t15 -37q0 -22 -15 -37.5t-38 -15.5z" />
    <glyph glyph-name="divide" unicode="&#xf7;" 
d="M474 283h-409v101h409v-101zM325 425h-111v124h111v-124zM325 118h-111v124h111v-124z" />
    <glyph glyph-name="oslash" unicode="&#xf8;" horiz-adv-x="460" 
d="M108 13l-33 -51h-70l58 91q-39 52 -39 149q0 50 12 100t37.5 97t73 76.5t111.5 29.5q42 0 84 -18l32 50h70l-56 -87q21 -28 29 -52q16 -48 16 -107q0 -28 -4 -60t-18 -77.5t-37 -80.5t-66 -60t-99 -25q-55 0 -101 25zM308 339l-147 -243q17 -21 44 -21q30 0 51 29t36 96
q17 79 16 139zM150 174l139 230q-12 14 -35 14q-65 0 -89 -133q-12 -67 -15 -111z" />
    <glyph glyph-name="ugrave" unicode="&#xf9;" horiz-adv-x="477" 
d="M384 0h-117l13 78q-19 -30 -31.5 -45t-42 -30t-69.5 -15q-56 0 -85.5 26.5t-29.5 70.5q0 29 13 100l51 308h136l-48 -288q-9 -69 -9 -75q0 -38 42 -38q20 0 33.5 10t22 30t12 35t7.5 40l48 286h136zM284 554l-164 86l48 73l145 -108z" />
    <glyph glyph-name="uacute" unicode="&#xfa;" horiz-adv-x="477" 
d="M384 0h-117l13 78q-19 -30 -31.5 -45t-42 -30t-69.5 -15q-56 0 -85.5 26.5t-29.5 70.5q0 29 13 100l51 308h136l-48 -288q-9 -69 -9 -75q0 -38 42 -38q20 0 33.5 10t22 30t12 35t7.5 40l48 286h136zM447 642l-195 -90l-29 45l186 116z" />
    <glyph glyph-name="ucircumflex" unicode="&#xfb;" horiz-adv-x="477" 
d="M384 0h-117l13 78q-19 -30 -31.5 -45t-42 -30t-69.5 -15q-56 0 -85.5 26.5t-29.5 70.5q0 29 13 100l51 308h136l-48 -288q-9 -69 -9 -75q0 -38 42 -38q20 0 33.5 10t22 30t12 35t7.5 40l48 286h136zM227 557h-98l181 140l142 -140h-87l-65 51z" />
    <glyph glyph-name="udieresis" unicode="&#xfc;" horiz-adv-x="477" 
d="M384 0h-117l13 78q-19 -30 -31.5 -45t-42 -30t-69.5 -15q-56 0 -85.5 26.5t-29.5 70.5q0 29 13 100l51 308h136l-48 -288q-9 -69 -9 -75q0 -38 42 -38q20 0 33.5 10t22 30t12 35t7.5 40l48 286h136zM222 563q-22 0 -37.5 15.5t-15.5 37.5t15.5 37.5t37.5 15.5t37.5 -16
t15.5 -37t-15.5 -37t-37.5 -16zM378 563q-22 0 -37.5 15.5t-15.5 37.5t15 37.5t38 15.5t38 -16t15 -37q0 -22 -15 -37.5t-38 -15.5z" />
    <glyph glyph-name="yacute" unicode="&#xfd;" horiz-adv-x="375" 
d="M158 493l34 -295l113 295h109l-218 -509q-36 -85 -74.5 -122t-115.5 -37q-8 0 -47 3l8 103q28 -2 43 -2q39 0 57 18.5t39 72.5l-88 473h140zM396 642l-195 -90l-29 45l186 116z" />
    <glyph glyph-name="thorn" unicode="&#xfe;" horiz-adv-x="477" 
d="M-19 -169l140 836h136l-38 -228q41 66 105 66q30 0 53 -10.5t36 -29.5t21.5 -37.5t11.5 -42t4 -35.5t1 -26q0 -73 -19.5 -151.5t-56.5 -127.5q-19 -25 -52 -41t-67 -16t-56.5 12.5t-30 24t-14.5 29.5l-38 -223h-136zM214 82q42 0 62 56q15 40 24.5 92t11.5 80t2 41
q0 17 -4.5 29t-10 17.5t-13 9t-11 4t-6.5 0.5q-38 0 -57 -53q-19 -52 -30.5 -116t-11.5 -103q0 -57 44 -57z" />
    <glyph glyph-name="ydieresis" unicode="&#xff;" horiz-adv-x="375" 
d="M158 493l34 -295l113 295h109l-218 -509q-36 -85 -74.5 -122t-115.5 -37q-8 0 -47 3l8 103q28 -2 43 -2q39 0 57 18.5t39 72.5l-88 473h140zM171 563q-22 0 -37.5 15.5t-15.5 37.5t15.5 37.5t37.5 15.5t37.5 -16t15.5 -37t-15.5 -37t-37.5 -16zM327 563q-22 0 -37.5 15.5
t-15.5 37.5t15 37.5t38 15.5t38 -16t15 -37q0 -22 -15 -37.5t-38 -15.5z" />
    <glyph glyph-name="dotlessi" unicode="&#x131;" horiz-adv-x="239" 
d="M9 0l82 493h137l-83 -493h-136z" />
    <glyph glyph-name="Lslash" unicode="&#x141;" horiz-adv-x="409" 
d="M56 238l-60 -40l19 116l60 40l52 313h140l-41 -246l125 82l-19 -116l-125 -82l-32 -188h214l-19 -117h-354z" />
    <glyph glyph-name="lslash" unicode="&#x142;" horiz-adv-x="256" 
d="M65 284l-64 -42l16 95l64 41l48 289h136l-37 -227l63 41l-16 -94l-63 -42l-58 -345h-136z" />
    <glyph glyph-name="OE" unicode="&#x152;" horiz-adv-x="784" 
d="M720 0h-336q-38 0 -78 -6t-67 -6q-83 0 -129 45q-29 29 -46.5 76t-21 78t-3.5 57q0 90 25.5 183t76.5 162q32 42 81 66t107 24q29 0 79 -6t73 -6h345l-19 -117h-252l-25 -152h209l-19 -112h-209l-28 -169h256zM345 128l69 411q-40 21 -74 21q-68 0 -98 -62
q-31 -65 -45.5 -146.5t-14.5 -133.5q0 -62 24.5 -86.5t67.5 -24.5q45 0 71 21z" />
    <glyph glyph-name="oe" unicode="&#x153;" horiz-adv-x="716" 
d="M683 224h-269q-4 -26 -4 -54q0 -88 62 -88q32 0 49.5 20.5t29.5 64.5l112 -20q-28 -84 -74.5 -121.5t-122.5 -37.5q-90 0 -134 56q-50 -56 -128 -56q-72 0 -119 42q-60 53 -60 170q0 53 11.5 102.5t36 97t71.5 76.5t111 29q91 0 122 -57q57 57 135 57q47 0 86 -21.5
t61 -60.5q28 -47 28 -128q0 -31 -4 -71zM425 302h141q4 22 4 44q0 74 -58 74q-67 0 -87 -118zM210 82q34 0 55 62.5t25 110t4 75.5q0 23 -2 38t-12.5 29t-29.5 14q-49 0 -75 -95q-20 -80 -20 -161q0 -73 55 -73z" />
    <glyph glyph-name="Scaron" unicode="&#x160;" 
d="M9 188l135 25q12 -55 33.5 -80.5t65.5 -25.5q43 0 63 21t20 52q0 35 -19.5 53.5t-69.5 42.5q-38 18 -62 32t-50 36.5t-38.5 52t-12.5 66.5q0 24 6 51t21.5 57t38.5 53.5t62.5 39t88.5 15.5q168 0 206 -172l-134 -35q-5 20 -8.5 31t-11.5 26.5t-22 23t-34 7.5
q-30 0 -50 -19.5t-20 -48.5t19 -47t101 -59q41 -20 67 -39t48.5 -55.5t22.5 -83.5q0 -49 -20 -94.5t-48 -71.5q-59 -54 -168 -54q-206 0 -230 200zM131 839h100l78 -35l83 35h113l-204 -126z" />
    <glyph glyph-name="scaron" unicode="&#x161;" horiz-adv-x="392" 
d="M-4 137l111 16q3 -15 6.5 -25t11.5 -22t21.5 -18t32.5 -6q57 0 57 45q0 23 -15.5 35.5t-61.5 32.5q-27 12 -42 20t-35.5 25t-30.5 41.5t-10 56.5q0 24 8 50.5t26.5 54t55 45t85.5 17.5q143 0 163 -139l-102 -25q-12 73 -62 73q-22 0 -38 -13t-16 -33q0 -23 15 -35t69 -37
q30 -15 44.5 -23.5t34.5 -25t28.5 -39t8.5 -52.5q0 -21 -4.5 -42t-17 -44.5t-32 -41t-53 -29t-76.5 -11.5q-101 0 -147 54q-25 29 -35 95zM107 683h87l64 -50l70 50h100l-177 -143z" />
    <glyph glyph-name="Ydieresis" unicode="&#x178;" horiz-adv-x="460" 
d="M126 0l47 281l-126 386h144l76 -251l143 251h133l-231 -391l-46 -276h-140zM227 728q-23 0 -39.5 16t-16.5 40q0 23 16.5 39t39.5 16t39 -16.5t16 -38.5q0 -23 -16 -39.5t-39 -16.5zM382 728q-23 0 -39.5 16.5t-16.5 39.5t16.5 39t39.5 16t39 -16.5t16 -38.5
q0 -23 -16 -39.5t-39 -16.5z" />
    <glyph glyph-name="Zcaron" unicode="&#x17d;" horiz-adv-x="494" 
d="M-9 0l18 106l329 449h-249l19 112h416l-17 -102l-329 -448h274l-19 -117h-442zM141 839h100l78 -35l83 35h113l-204 -126z" />
    <glyph glyph-name="zcaron" unicode="&#x17e;" horiz-adv-x="375" 
d="M-15 0l17 96l226 299h-168l17 98h313l-16 -97l-224 -294h179l-17 -102h-327zM99 683h87l64 -50l70 50h100l-177 -143z" />
    <glyph glyph-name="florin" unicode="&#x192;" 
d="M460 483l-35 -110h-83l-97 -312l-17 -54t-17 -45t-20 -39t-24 -29t-32 -23.5t-40 -12.5t-52 -5q-41 0 -76 7l35 113q22 -2 31 -2q36 0 53.5 12.5t32.5 59.5l102 330h-64l34 110h65l4 13q14 47 26.5 75t34 56t55 41t81.5 13q36 0 70 -9l-33 -105q-18 2 -34 2
q-32 0 -49 -13.5t-30 -56.5l-5 -16h84z" />
    <glyph glyph-name="circumflex" unicode="&#x2c6;" horiz-adv-x="460" 
d="M218 557h-98l181 140l142 -140h-87l-65 51z" />
    <glyph glyph-name="caron" unicode="&#x2c7;" horiz-adv-x="460" 
d="M141 683h87l64 -50l70 50h100l-177 -143z" />
    <glyph glyph-name="uni02C9" unicode="&#x2c9;" horiz-adv-x="460" 
d="M419 571h-271l11 66h271z" />
    <glyph glyph-name="breve" unicode="&#x2d8;" horiz-adv-x="460" 
d="M146 675h73q22 -51 83 -52q54 0 76 52h76q-9 -23 -15 -35t-19.5 -31.5t-28 -30t-39.5 -18.5t-55 -8q-33 0 -59 10t-40.5 22t-26.5 32.5t-16 31t-9 27.5z" />
    <glyph glyph-name="dotaccent" unicode="&#x2d9;" horiz-adv-x="460" 
d="M292 562q-24 0 -40.5 17t-16.5 40t16.5 40t40.5 17t40.5 -17t16.5 -40t-16.5 -40t-40.5 -17z" />
    <glyph glyph-name="ring" unicode="&#x2da;" horiz-adv-x="460" 
d="M296 551q-39 0 -65 27t-26 63t26 63.5t65 27.5t64.5 -27.5t25.5 -63.5t-26 -63t-64 -27zM296 602q16 0 27.5 12t11.5 27q0 16 -11 28t-28 12t-28.5 -12t-11.5 -28q0 -15 11.5 -27t28.5 -12z" />
    <glyph glyph-name="ogonek" unicode="&#x2db;" horiz-adv-x="460" 
d="M308 -95l16 -37q-47 -27 -89 -27q-39 0 -65.5 17.5t-26.5 51.5q0 57 81 89h62q-67 -27 -67 -77q0 -34 37 -34q23 0 52 17z" />
    <glyph glyph-name="tilde" unicode="&#x2dc;" horiz-adv-x="460" 
d="M174 570l-36 41q15 17 23 25t30.5 20t45.5 12q25 0 64 -20q27 -15 43 -15q14 0 27 7.5t19 13t19 20.5l37 -41q-57 -68 -103 -68q-26 0 -61 18q-35 17 -50 17q-31 0 -58 -30z" />
    <glyph glyph-name="hungarumlaut" unicode="&#x2dd;" horiz-adv-x="460" 
d="M194 548l-28 35l126 123l46 -57zM348 548l-29 35l127 123l46 -57z" />
    <glyph glyph-name="uni03A9" unicode="&#x3a9;" horiz-adv-x="644" 
d="M128 101v3q-91 109 -65 266q22 128 114.5 217t215.5 89q85 0 141 -47t74 -113.5t6 -138.5q-14 -84 -58 -156t-99 -117v-3h124l-17 -101h-243l13 74q51 31 92.5 100.5t58.5 175.5q16 93 -12.5 157.5t-98.5 64.5q-69 0 -121.5 -63.5t-69.5 -163.5q-16 -99 2.5 -171
t58.5 -100l-13 -74h-242l16 101h123z" />
    <glyph glyph-name="uni03BC" unicode="&#x3bc;" horiz-adv-x="477" 
d="M112 -167h-136l110 660h136l-48 -288q-9 -52 -9 -75q0 -38 42 -38q20 0 33.5 10t22 30t12 35t7.5 40l48 286h136l-82 -493h-117l13 78q-39 -90 -94 -90q-39 0 -39 53z" />
    <glyph glyph-name="pi" unicode="&#x3c0;" horiz-adv-x="556" 
d="M556 395h-64l-42 -256q-15 -87 -12 -139h-118q-11 30 6 135l44 260h-122q-19 -89 -54.5 -207t-70.5 -188h-118q37 84 72.5 200.5t49.5 194.5q-57 0 -89 -9v83q48 32 158 32h387z" />
    <glyph glyph-name="endash" unicode="&#x2013;" horiz-adv-x="443" 
d="M393 192h-363l16 99h364z" />
    <glyph glyph-name="emdash" unicode="&#x2014;" horiz-adv-x="647" 
d="M603 192h-579l17 99h579z" />
    <glyph glyph-name="quoteleft" unicode="&#x2018;" horiz-adv-x="221" 
d="M190 667h57l-79 -137h50l-24 -142h-121l23 142z" />
    <glyph glyph-name="quoteright" unicode="&#x2019;" horiz-adv-x="221" 
d="M122 389h-57l80 136h-51l24 142h122l-24 -142z" />
    <glyph glyph-name="quotesinglbase" unicode="&#x201a;" horiz-adv-x="221" 
d="M36 -136h-57l80 136h-50l23 142h122l-24 -142z" />
    <glyph glyph-name="quotedblleft" unicode="&#x201c;" horiz-adv-x="375" 
d="M357 667h48l-80 -137h50l-24 -142h-112l24 142zM186 667h48l-80 -137h51l-24 -142h-112l23 142z" />
    <glyph glyph-name="quotedblright" unicode="&#x201d;" horiz-adv-x="375" 
d="M111 389h-48l80 136h-50l23 142h113l-24 -142zM281 389h-48l80 136h-50l24 142h112l-24 -142z" />
    <glyph glyph-name="quotedblbase" unicode="&#x201e;" horiz-adv-x="375" 
d="M29 -136h-48l80 136h-51l24 142h113l-24 -142zM199 -136h-48l80 136h-50l23 142h113l-24 -142z" />
    <glyph glyph-name="dagger" unicode="&#x2020;" 
d="M213 383h-140l17 100h140l31 184h123l-31 -184h141l-17 -100h-140l-93 -552h-123z" />
    <glyph glyph-name="daggerdbl" unicode="&#x2021;" 
d="M213 383h-140l16 100h141l31 184h123l-31 -184h141l-17 -100h-141l-42 -257h140l-17 -100h-140l-33 -195h-123l33 195h-141l17 100h140z" />
    <glyph glyph-name="bullet" unicode="&#x2022;" horiz-adv-x="144" 
d="M143 265h-144l26 156h144z" />
    <glyph glyph-name="ellipsis" unicode="&#x2026;" horiz-adv-x="767" 
d="M154 0h-136l25 148h136zM410 0h-136l24 148h137zM666 0h-136l25 148h136z" />
    <glyph glyph-name="perthousand" unicode="&#x2030;" horiz-adv-x="1005" 
d="M226 679q61 0 92 -38t31 -105q0 -81 -39 -143.5t-110 -62.5q-53 0 -87 31q-39 35 -39 109q0 79 39 144t113 65zM224 600q-25 0 -37 -31q-19 -50 -19 -114q0 -46 32 -46q19 0 31.5 17.5t17 45.5t5.5 42t1 25q0 61 -31 61zM528 337q60 0 91.5 -37t31.5 -106
q0 -83 -40 -144.5t-109 -61.5q-53 0 -87 31q-39 35 -39 109q0 80 39 144.5t113 64.5zM526 258q-16 0 -28 -17t-17.5 -42.5t-8 -47t-2.5 -39.5q0 -25 10 -35t22 -10q30 0 43 41q12 41 12 89q0 61 -31 61zM835 337q60 0 91.5 -37t31.5 -106q0 -83 -40 -144.5t-109 -61.5
q-53 0 -87 31q-39 35 -39 109q0 80 39 144.5t113 64.5zM833 258q-16 0 -28 -17t-17.5 -42.5t-8 -47t-2.5 -39.5q0 -25 10 -35t22 -10q30 0 43 41q12 39 12 90q0 60 -31 60zM173 0h-78l447 667h77z" />
    <glyph glyph-name="guilsinglleft" unicode="&#x2039;" horiz-adv-x="239" 
d="M156 432h72l-81 -175l23 -172h-59l-74 172z" />
    <glyph glyph-name="guilsinglright" unicode="&#x203a;" horiz-adv-x="239" 
d="M85 85h-71l80 175l-22 172h59l74 -172z" />
    <glyph glyph-name="fraction" unicode="&#x2044;" horiz-adv-x="153" 
d="M-88 0h-89l447 667h88z" />
    <glyph glyph-name="Euro" unicode="&#x20ac;" 
d="M534 480l-125 -9q0 19 -1.5 32.5t-6.5 31t-17.5 27t-32.5 9.5q-56 0 -79 -75q-7 -23 -16 -65h147l-21 -70h-137l-6 -50h126l-21 -70h-109v-16q0 -129 65 -129q59 0 79 92l121 -25q-51 -175 -205 -175q-93 0 -147 66t-55 187h-77l21 70h59q0 7 1 15.5t2.5 18.5t2.5 16h-69
l21 70h61q24 109 84 178.5t160 69.5q83 0 128 -53t47 -146z" />
    <glyph glyph-name="afii61289" unicode="&#x2113;" horiz-adv-x="473" 
d="M394 175l40 -52q-88 -132 -214 -132q-79 0 -112.5 43.5t-29.5 112.5q0 2 1 5.5t1 5.5q-51 -36 -54 -38l-19 65q80 60 87 66l40 240q20 119 77.5 180t130.5 61q64 0 89 -47t12 -123q-26 -149 -233 -327l-7 -44q-7 -49 10.5 -75t51.5 -26q64 0 129 85zM252 489l-23 -140
q124 124 140 219q13 76 -36 76q-23 0 -45 -36t-36 -119z" />
    <glyph glyph-name="trademark" unicode="&#x2122;" horiz-adv-x="733" 
d="M311 667v-71h-82v-309h-88v309h-80v71h250zM341 287v380h131l55 -233l61 233h128v-380h-83v316l-81 -316h-64l-75 316v-316h-72z" />
    <glyph glyph-name="Omega" unicode="&#x2126;" horiz-adv-x="644" 
d="M128 101v3q-91 109 -65 266q22 128 114.5 217t215.5 89q85 0 141 -47t74 -113.5t6 -138.5q-14 -84 -58 -156t-99 -117v-3h124l-17 -101h-243l13 74q51 31 92.5 100.5t58.5 175.5q16 93 -12.5 157.5t-98.5 64.5q-69 0 -121.5 -63.5t-69.5 -163.5q-16 -99 2.5 -171
t58.5 -100l-13 -74h-242l16 101h123z" />
    <glyph glyph-name="estimated" unicode="&#x212e;" horiz-adv-x="902" 
d="M869 324h-621q-5 0 -5 -4v-188q0 -12 8 -22q99 -102 235 -102q73 0 137 30.5t110 83.5h55q-52 -61 -132 -97t-171 -36q-159 0 -271 100.5t-112 243.5t112 244.5t271 101.5t271.5 -101.5t112.5 -244.5v-9zM728 348v189q0 14 -9 23q-100 98 -233 98q-135 0 -234 -101
q-9 -9 -9 -24v-185q0 -6 5 -6h476q4 0 4 6z" />
    <glyph glyph-name="partialdiff" unicode="&#x2202;" horiz-adv-x="532" 
d="M153 605l-18 93q80 55 178 55q108 0 166 -94.5t29 -268.5q-31 -183 -118 -290t-209 -107q-90 0 -129 69t-25 156q19 114 88 182.5t153 68.5q48 0 78.5 -23t41.5 -48h1q1 4 3 15t3 15q15 89 -16.5 155.5t-98.5 66.5q-64 0 -127 -45zM211 96h1q46 0 87.5 61t61.5 137
q-4 27 -26 51t-59 24q-44 0 -81 -46.5t-48 -109.5q-8 -50 9.5 -83.5t54.5 -33.5z" />
    <glyph glyph-name="Delta" unicode="&#x2206;" horiz-adv-x="603" 
d="M-19 0l12 72l308 608h146l98 -606l-12 -74h-552zM122 100h298l-50 269q-2 23 -11.5 86.5t-10.5 85.5h-3q-6 -16 -34 -72.5t-40 -85.5z" />
    <glyph glyph-name="product" unicode="&#x220f;" horiz-adv-x="733" 
d="M709 553h-91v-645h-122v645h-192v-645h-122v645h-92v113h619v-113z" />
    <glyph glyph-name="summation" unicode="&#x2211;" horiz-adv-x="579" 
d="M562 -92h-473v80l219 300l-211 291v87h451v-105h-289v-3l186 -249l-208 -283v-3h325v-115z" />
    <glyph glyph-name="minus" unicode="&#x2212;" 
d="M474 283h-409v101h409v-101z" />
    <glyph glyph-name="uni2215" unicode="&#x2215;" horiz-adv-x="153" 
d="M-88 0h-89l447 667h88z" />
    <glyph glyph-name="uni2219" unicode="&#x2219;" horiz-adv-x="256" 
d="M185 183h-137l25 148h136z" />
    <glyph glyph-name="radical" unicode="&#x221a;" horiz-adv-x="617" 
d="M625 801l-206 -932h-97l-135 414l-68 -27l-20 70l161 65l92 -294q3 -17 9.5 -46.5t8.5 -39.5l2 -1q9 63 14 93l155 698h84z" />
    <glyph glyph-name="infinity" unicode="&#x221e;" horiz-adv-x="754" 
d="M710 275v-1q0 -73 -45 -118t-106 -45q-87 0 -166 105q-41 -51 -80.5 -78t-92.5 -27q-60 0 -104 45t-44 114q0 71 44.5 116t111.5 45q50 0 89 -26t79 -77q49 56 77 75q42 29 92 28q62 0 103.5 -43t41.5 -113zM229 178h1q24 0 48.5 14.5t39.5 30t38 44.5l-29.5 39t-26 29
t-35.5 24.5t-39 6.5q-39 0 -62 -27t-23 -70q0 -38 25.5 -64.5t62.5 -26.5zM558 366h-1q-12 0 -23 -3t-22 -10l-19 -12.5t-19 -17l-16 -17t-15.5 -18t-12.5 -15.5q44 -55 70.5 -75t61.5 -20q36 0 58 29t22 62q0 42 -23.5 69.5t-60.5 27.5z" />
    <glyph glyph-name="integral" unicode="&#x222b;" horiz-adv-x="442" 
d="M420 814l-12 -86q-18 8 -33 8q-29 0 -46 -24q-24 -33 -24 -160q0 -76 6.5 -221.5t6.5 -234.5q0 -131 -33 -191q-35 -71 -122 -71q-45 0 -73 16l16 88q24 -9 39 -9q26 0 40 18q24 34 24 147q0 90 -7 240t-7 230q0 84 13 133.5t43 82.5q40 44 112 44q35 0 57 -10z" />
    <glyph glyph-name="approxequal" unicode="&#x2248;" horiz-adv-x="532" 
d="M454 430l43 -39q-49 -99 -125 -99q-41 0 -103 37q-48 32 -79 32q-19 0 -35.5 -11.5t-25 -22t-23.5 -33.5l-44 39q21 43 57 70t77 27q11 0 22 -2t18 -4t17.5 -6.5t14.5 -6.5t14.5 -8t11.5 -7q54 -34 79 -34q24 0 42 17t39 51zM454 254l43 -40q-49 -97 -126 -97
q-41 0 -102 37q-50 32 -79 32q-19 0 -36 -11.5t-25 -22.5t-23 -34l-44 39q21 43 57 70t77 27t97 -33q6 -4 20 -12.5t21 -12t18 -7t21 -3.5q25 0 42 16t39 52z" />
    <glyph glyph-name="notequal" unicode="&#x2260;" horiz-adv-x="546" 
d="M414 486l-35 -82h123v-71h-149l-54 -126h203v-71h-230l-45 -105l-55 22l36 83h-123v71h149l54 126h-203v71h229l44 103z" />
    <glyph glyph-name="lessequal" unicode="&#x2264;" horiz-adv-x="559" 
d="M513 94l-409 210v77l409 209v-83l-340 -163v-2l340 -164v-84zM517 -13h-417v72h417v-72z" />
    <glyph glyph-name="greaterequal" unicode="&#x2265;" horiz-adv-x="560" 
d="M105 590l410 -209v-77l-409 -210v84l340 164v2l-341 163v83zM516 -13h-415v72h415v-72z" />
    <glyph glyph-name="lozenge" unicode="&#x25ca;" horiz-adv-x="617" 
d="M572 332l-182 -378h-99l-175 378l181 380h99zM464 330l-100 221q-11 28 -18 60h-3q-5 -26 -18 -60l-102 -216l102 -225q8 -22 16 -56h4q8 38 16 54z" />
    </font>
</defs>
</svg>
