<?xml version="1.0" standalone="no"?>
<!DOCTYPE svg PUBLIC "-//W3C//DTD SVG 1.1//EN" "http://www.w3.org/Graphics/SVG/1.1/DTD/svg11.dtd" >
<svg xmlns="http://www.w3.org/2000/svg" xmlns:xlink="http://www.w3.org/1999/xlink" version="1.1">
<metadata>
Created by FontForge 20190801 at Wed Dec  3 18:39:36 2008
 By Jimmy Wärting
Copyright (C) 2004, 2009 Hoefler &#38; Frere-Jones. http://www.typography.com
</metadata>
<defs>
<font id="Sentinel-LightItalic" horiz-adv-x="502" >
  <font-face 
    font-family="Sentinel Light"
    font-weight="300"
    font-style="italic"
    font-stretch="normal"
    units-per-em="1000"
    panose-1="0 0 0 0 0 0 0 0 0 0"
    ascent="800"
    descent="-200"
    x-height="452"
    cap-height="648"
    bbox="-148 -275 1058 1079"
    underline-thickness="50"
    underline-position="-100"
    slope="-12"
    stemh="40"
    stemv="62"
    unicode-range="U+0020-FB04"
  />
<missing-glyph horiz-adv-x="500" 
d="M0 -200v1000h500v-1000h-500zM71 750l179 -390l179 390h-358zM50 -76l172 376l-172 376v-752zM450 676l-172 -376l172 -376v752zM250 240l-179 -390h358z" />
    <glyph glyph-name="f_b" unicode="fb" horiz-adv-x="730" 
d="M524 692l-97 -348l7 -3c46 70 93 111 149 111c67 0 116 -53 116 -148c0 -159 -123 -313 -240 -313c-73 0 -137 49 -137 142c0 48 14 105 28 155l32 115h-178l-67 -326c-38 -181 -89 -237 -157 -237c-41 0 -59 24 -59 49c0 26 16 49 42 49c22 0 34 -16 34 -35
c0 -12 -5 -27 -13 -36c36 0 53 32 84 182l74 354h-99l9 35h97l4 17c35 169 110 237 201 237c31 0 56 -7 74 -18zM563 405c-91 0 -179 -168 -179 -272c0 -52 20 -104 80 -104c96 0 170 160 170 277c0 67 -29 99 -71 99zM213 443l-1 -5h179l36 129c-2 -1 -5 -1 -7 -1
c-21 0 -36 15 -36 38c0 17 8 31 17 40c-4 4 -20 17 -48 17c-69 0 -107 -59 -140 -218z" />
    <glyph glyph-name="f_f" unicode="ff" horiz-adv-x="550" 
d="M222 -160c-41 0 -59 24 -59 49c0 26 16 49 42 49c22 0 34 -16 34 -35c0 -12 -5 -27 -13 -36c36 0 53 32 88 201l70 335h-180l-67 -326c-38 -181 -89 -237 -157 -237c-41 0 -59 24 -59 49c0 26 16 49 42 49c22 0 34 -16 34 -35c0 -12 -5 -27 -13 -36c36 0 53 32 84 182
l74 354h-99l9 35h97l4 17c36 173 114 237 205 237c65 0 102 -27 112 -57c31 38 69 56 112 57c57 1 92 -29 92 -67c0 -31 -18 -59 -46 -59c-21 0 -36 15 -36 38c0 18 7 35 21 48c-6 5 -17 9 -31 9c-67 0 -96 -74 -123 -203l-4 -20h123l-9 -35h-122l-68 -326
c-38 -181 -89 -237 -157 -237zM213 443l-1 -5h179l1 4c10 49 23 90 37 124c-19 1 -33 16 -33 38c0 17 8 31 17 40c-4 4 -23 17 -53 17c-75 0 -115 -62 -147 -218z" />
    <glyph glyph-name="f_h" unicode="fh" horiz-adv-x="782" 
d="M533 692l-120 -443l7 -3c65 133 140 206 208 206c47 0 82 -34 82 -96c0 -87 -78 -218 -78 -289c0 -11 3 -28 22 -28c25 0 53 44 80 118l27 -9c-45 -125 -83 -157 -125 -157c-37 0 -67 30 -66 86c1 82 75 193 75 278c0 19 -8 45 -42 45c-63 0 -170 -113 -248 -400h-67
l106 403h-190l-67 -326c-38 -181 -89 -237 -157 -237c-41 0 -59 24 -59 49c0 26 16 49 42 49c22 0 34 -16 34 -35c0 -12 -5 -27 -13 -36c36 0 53 32 84 182l74 354h-99l9 35h97l4 17c35 169 112 237 205 237c33 0 59 -7 78 -19zM213 443l-1 -5h191l34 129c-2 -1 -5 -1 -8 -1
c-21 0 -36 15 -36 38c0 17 8 31 17 40c-4 4 -23 17 -52 17c-72 0 -112 -59 -145 -218z" />
    <glyph glyph-name="fi" unicode="fi" horiz-adv-x="526" 
d="M382 403h-178l-67 -326c-38 -181 -89 -237 -157 -237c-41 0 -59 24 -59 49c0 26 16 49 42 49c22 0 34 -16 34 -35c0 -12 -5 -27 -13 -36c36 0 53 32 84 182l74 354h-99l9 35h97l3 14c36 172 117 240 216 240c77 0 129 -39 129 -90c0 -27 -17 -58 -48 -58
c-21 0 -39 15 -39 40c0 18 7 37 27 53c-10 13 -37 24 -67 24c-79 0 -124 -60 -155 -208l-3 -15h242l-73 -269c-14 -51 -18 -75 -18 -96c0 -11 2 -34 25 -34c29 0 53 44 80 118l27 -9c-45 -125 -81 -157 -124 -157s-70 30 -70 81c0 22 4 46 18 97z" />
    <glyph glyph-name="f_j" unicode="fj" horiz-adv-x="533" 
d="M397 403h-193l-67 -326c-38 -181 -89 -237 -157 -237c-41 0 -59 24 -59 49c0 26 16 49 42 49c22 0 34 -16 34 -35c0 -12 -5 -27 -13 -36c36 0 53 32 84 182l74 354h-99l9 35h97l3 14c36 172 117 240 216 240c77 0 129 -39 129 -90c0 -27 -17 -58 -48 -58
c-21 0 -39 15 -39 40c0 18 7 37 27 53c-10 13 -37 24 -67 24c-79 0 -124 -60 -155 -208l-3 -15h257l-101 -381c-45 -171 -103 -217 -161 -217c-43 0 -60 24 -60 50s18 48 42 48c23 0 35 -16 35 -36c0 -12 -4 -25 -13 -37c18 0 48 8 84 148z" />
    <glyph glyph-name="f_k" unicode="fk" horiz-adv-x="740" 
d="M495 246c74 -5 95 -39 95 -77c0 -34 -8 -62 -8 -94c0 -19 4 -36 23 -36c25 0 53 44 80 118l27 -9c-45 -125 -83 -157 -125 -157c-37 0 -68 30 -67 86c1 34 9 74 9 94c0 38 -14 55 -84 55h-36l-60 -226h-61l106 403h-190l-67 -326c-38 -181 -89 -237 -157 -237
c-41 0 -59 24 -59 49c0 26 16 49 42 49c22 0 34 -16 34 -35c0 -12 -5 -27 -13 -36c36 0 53 32 84 182l74 354h-99l9 35h97l4 17c35 169 112 237 205 237c33 0 59 -7 78 -19l97 19l-117 -437h22c50 0 82 28 122 97c37 64 65 100 111 100c39 0 59 -21 59 -52
c0 -34 -21 -58 -47 -58c-30 0 -46 34 -28 69c-26 -2 -46 -32 -71 -75c-30 -51 -58 -77 -89 -90zM213 443l-1 -5h191l34 129c-2 -1 -5 -1 -8 -1c-21 0 -36 15 -36 38c0 17 8 31 17 40c-4 4 -23 17 -52 17c-72 0 -112 -59 -145 -218z" />
    <glyph glyph-name="fl" unicode="fl" horiz-adv-x="522" 
d="M356 692c31 0 56 -7 75 -19l97 19l-141 -523c-14 -51 -18 -75 -18 -96c0 -11 2 -34 25 -34c29 0 53 44 80 118l27 -9c-45 -125 -81 -157 -124 -157s-70 30 -70 81c0 22 4 46 18 97l63 234h-184l-67 -326c-38 -181 -89 -237 -157 -237c-41 0 -59 24 -59 49
c0 26 16 49 42 49c22 0 34 -16 34 -35c0 -12 -5 -27 -13 -36c36 0 53 32 84 182l74 354h-99l9 35h97l4 17c35 169 112 237 203 237zM213 443l-1 -5h185l35 129c-3 -1 -5 -1 -8 -1c-21 0 -36 15 -36 38c0 17 8 31 17 40c-4 4 -22 17 -50 17c-69 0 -109 -59 -142 -218z" />
    <glyph glyph-name="f_f_b" unicode="ffb" horiz-adv-x="972" 
d="M222 -160c-41 0 -59 24 -59 49c0 26 16 49 42 49c22 0 34 -16 34 -35c0 -12 -5 -27 -13 -36c36 0 53 32 84 182l74 354h-180l-67 -326c-38 -181 -89 -237 -157 -237c-41 0 -59 24 -59 49c0 26 16 49 42 49c22 0 34 -16 34 -35c0 -12 -5 -27 -13 -36c36 0 53 32 84 182
l74 354h-99l9 35h97l4 17c36 173 114 237 205 237c66 0 104 -28 113 -59c35 41 78 59 125 59c31 0 56 -7 74 -18l96 18l-97 -348l7 -3c46 70 93 111 149 111c67 0 116 -53 116 -148c0 -159 -123 -313 -240 -313c-73 0 -137 49 -137 142c0 48 14 105 28 155l32 115h-178
l-67 -326c-38 -181 -89 -237 -157 -237zM805 405c-91 0 -179 -168 -179 -272c0 -52 20 -104 80 -104c96 0 170 160 170 277c0 67 -29 99 -71 99zM213 443l-1 -5h179l4 17c9 43 20 80 34 111c-19 1 -33 16 -33 38c0 17 8 31 17 40c-4 4 -23 17 -53 17
c-75 0 -115 -62 -147 -218zM455 443l-1 -5h179l36 129c-2 -1 -5 -1 -7 -1c-21 0 -36 15 -36 38c0 17 8 31 17 40c-4 4 -20 17 -48 17c-69 0 -107 -59 -140 -218z" />
    <glyph glyph-name="f_f_h" unicode="ffh" horiz-adv-x="1024" 
d="M222 -160c-41 0 -59 24 -59 49c0 26 16 49 42 49c22 0 34 -16 34 -35c0 -12 -5 -27 -13 -36c36 0 53 32 84 182l74 354h-180l-67 -326c-38 -181 -89 -237 -157 -237c-41 0 -59 24 -59 49c0 26 16 49 42 49c22 0 34 -16 34 -35c0 -12 -5 -27 -13 -36c36 0 53 32 84 182
l74 354h-99l9 35h97l4 17c36 173 114 237 205 237c67 0 104 -29 113 -60c36 41 80 60 129 60c33 0 59 -7 78 -19l97 19l-120 -443l7 -3c65 133 140 206 208 206c47 0 82 -34 82 -96c0 -87 -78 -218 -78 -289c0 -11 3 -28 22 -28c25 0 53 44 80 118l27 -9
c-45 -125 -83 -157 -125 -157c-37 0 -67 30 -66 86c1 82 75 193 75 278c0 19 -8 45 -42 45c-63 0 -170 -113 -248 -400h-67l106 403h-190l-67 -326c-38 -181 -89 -237 -157 -237zM455 443l-1 -5h191l34 129c-2 -1 -5 -1 -8 -1c-21 0 -36 15 -36 38c0 17 8 31 17 40
c-4 4 -23 17 -52 17c-72 0 -112 -59 -145 -218zM213 443l-1 -5h179l4 17c9 43 20 80 34 111c-19 1 -33 16 -33 38c0 17 8 31 17 40c-4 4 -23 17 -53 17c-75 0 -115 -62 -147 -218z" />
    <glyph glyph-name="f_f_i" unicode="ffi" horiz-adv-x="768" 
d="M358 692c69 0 107 -30 114 -63c38 44 85 63 138 63c77 0 129 -39 129 -90c0 -27 -17 -58 -48 -58c-21 0 -39 15 -39 40c0 18 7 37 27 53c-10 13 -37 24 -67 24c-79 0 -124 -60 -155 -208l-3 -15h242l-73 -269c-14 -51 -18 -75 -18 -96c0 -11 2 -34 25 -34
c29 0 53 44 80 118l27 -9c-45 -125 -81 -157 -124 -157s-70 30 -70 81c0 22 4 46 18 97l63 234h-178l-67 -326c-38 -181 -89 -237 -157 -237c-41 0 -59 24 -59 49c0 26 16 49 42 49c22 0 34 -16 34 -35c0 -12 -5 -27 -13 -36c36 0 53 32 84 182l74 354h-180l-67 -326
c-38 -181 -89 -237 -157 -237c-41 0 -59 24 -59 49c0 26 16 49 42 49c22 0 34 -16 34 -35c0 -12 -5 -27 -13 -36c36 0 53 32 84 182l74 354h-99l9 35h97l4 17c36 173 114 237 205 237zM213 443l-1 -5h179l3 14c9 45 22 82 37 114c-21 0 -35 15 -35 38c0 17 8 31 17 40
c-4 4 -23 17 -53 17c-75 0 -115 -62 -147 -218z" />
    <glyph glyph-name="f_f_j" unicode="ffj" horiz-adv-x="731" 
d="M358 692c69 0 107 -30 114 -63c38 44 85 63 138 63c77 0 129 -39 129 -90c0 -27 -17 -58 -48 -58c-21 0 -39 15 -39 40c0 18 7 37 27 53c-10 13 -37 24 -67 24c-79 0 -124 -60 -155 -208l-3 -15h265l-101 -381c-45 -171 -103 -217 -161 -217c-43 0 -60 24 -60 50
s18 48 42 48c23 0 35 -16 35 -36c0 -12 -4 -25 -13 -37c18 0 48 8 84 148l102 390h-201l-67 -326c-38 -181 -89 -237 -157 -237c-41 0 -59 24 -59 49c0 26 16 49 42 49c22 0 34 -16 34 -35c0 -12 -5 -27 -13 -36c36 0 53 32 84 182l74 354h-180l-67 -326
c-38 -181 -89 -237 -157 -237c-41 0 -59 24 -59 49c0 26 16 49 42 49c22 0 34 -16 34 -35c0 -12 -5 -27 -13 -36c36 0 53 32 84 182l74 354h-99l9 35h97l4 17c36 173 114 237 205 237zM213 443l-1 -5h179l3 14c9 45 22 82 37 114c-21 0 -35 15 -35 38c0 17 8 31 17 40
c-4 4 -23 17 -53 17c-75 0 -115 -62 -147 -218z" />
    <glyph glyph-name="f_f_k" unicode="ffk" horiz-adv-x="982" 
d="M222 -160c-41 0 -59 24 -59 49c0 26 16 49 42 49c22 0 34 -16 34 -35c0 -12 -5 -27 -13 -36c36 0 53 32 84 182l74 354h-180l-67 -326c-38 -181 -89 -237 -157 -237c-41 0 -59 24 -59 49c0 26 16 49 42 49c22 0 34 -16 34 -35c0 -12 -5 -27 -13 -36c36 0 53 32 84 182
l74 354h-99l9 35h97l4 17c36 173 114 237 205 237c67 0 104 -29 113 -60c36 41 80 60 129 60c33 0 59 -7 78 -19l97 19l-117 -437h22c50 0 82 28 122 97c37 64 65 100 111 100c39 0 59 -21 59 -52c0 -34 -21 -58 -47 -58c-30 0 -46 34 -28 69c-26 -2 -46 -32 -71 -75
c-30 -51 -58 -77 -89 -90c74 -5 95 -39 95 -77c0 -34 -8 -62 -8 -94c0 -19 4 -36 23 -36c25 0 53 44 80 118l27 -9c-45 -125 -83 -157 -125 -157c-37 0 -68 30 -67 86c1 34 9 74 9 94c0 38 -14 55 -84 55h-36l-60 -226h-61l106 403h-190l-67 -326
c-38 -181 -89 -237 -157 -237zM455 443l-1 -5h191l34 129c-2 -1 -5 -1 -8 -1c-21 0 -36 15 -36 38c0 17 8 31 17 40c-4 4 -23 17 -52 17c-72 0 -112 -59 -145 -218zM213 443l-1 -5h179l4 17c9 43 20 80 34 111c-19 1 -33 16 -33 38c0 17 8 31 17 40c-4 4 -23 17 -53 17
c-75 0 -115 -62 -147 -218z" />
    <glyph glyph-name="f_f_l" unicode="ffl" horiz-adv-x="764" 
d="M222 -160c-41 0 -59 24 -59 49c0 26 16 49 42 49c22 0 34 -16 34 -35c0 -12 -5 -27 -13 -36c36 0 53 32 84 182l74 354h-180l-67 -326c-38 -181 -89 -237 -157 -237c-41 0 -59 24 -59 49c0 26 16 49 42 49c22 0 34 -16 34 -35c0 -12 -5 -27 -13 -36c36 0 53 32 84 182
l74 354h-99l9 35h97l4 17c36 173 114 237 205 237c67 0 104 -29 113 -60c36 41 79 60 127 60c31 0 56 -7 75 -19l97 19l-141 -523c-14 -51 -18 -75 -18 -96c0 -11 2 -34 25 -34c29 0 53 44 80 118l27 -9c-45 -125 -81 -157 -124 -157s-70 30 -70 81c0 22 4 46 18 97l63 234
h-184l-67 -326c-38 -181 -89 -237 -157 -237zM455 443l-1 -5h185l35 129c-3 -1 -5 -1 -8 -1c-21 0 -36 15 -36 38c0 17 8 31 17 40c-4 4 -22 17 -50 17c-69 0 -109 -59 -142 -218zM213 443l-1 -5h179l4 17c9 43 20 80 34 111c-19 1 -33 16 -33 38c0 17 8 31 17 40
c-4 4 -23 17 -53 17c-75 0 -115 -62 -147 -218z" />
    <glyph glyph-name=".notdef" horiz-adv-x="500" 
d="M0 -200v1000h500v-1000h-500zM71 750l179 -390l179 390h-358zM50 -76l172 376l-172 376v-752zM450 676l-172 -376l172 -376v752zM250 240l-179 -390h358z" />
    <glyph glyph-name="A" unicode="A" horiz-adv-x="672" 
d="M367 40h102l-24 198h-239l-119 -198h92l-10 -40h-216l10 40h69l379 613h50l77 -613h79l-10 -40h-250zM229 276h211l-34 290h-2z" />
    <glyph glyph-name="B" unicode="B" horiz-adv-x="609" 
d="M-20 0l10 40h109l141 568h-111l10 40h260c164 0 213 -63 213 -134c0 -55 -31 -157 -205 -174v-2c109 -21 156 -71 156 -139c0 -45 -14 -87 -48 -121c-47 -47 -133 -78 -271 -78h-264zM248 360h91c113 0 195 57 195 159c0 54 -33 89 -133 89h-91zM169 40h82
c180 0 235 73 235 167c0 68 -56 114 -160 114h-87z" />
    <glyph glyph-name="C" unicode="C" horiz-adv-x="647" 
d="M313 -15c-161 0 -241 118 -241 256c0 220 158 422 354 422c77 0 138 -27 179 -83l39 80h41l-56 -232h-35c-3 137 -72 191 -170 191c-164 0 -279 -181 -279 -375c0 -135 67 -213 182 -213c124 0 190 107 238 210l38 -16c-56 -129 -140 -240 -290 -240z" />
    <glyph glyph-name="D" unicode="D" horiz-adv-x="676" 
d="M-20 0l10 40h109l141 568h-110l10 40h234c205 0 291 -102 291 -247c0 -104 -41 -210 -121 -288c-69 -68 -159 -113 -326 -113h-238zM168 40h40c117 0 204 23 268 87c74 74 115 180 115 292c0 121 -67 189 -226 189h-55z" />
    <glyph glyph-name="E" unicode="E" horiz-adv-x="628" 
d="M139 648h528l-49 -196h-34c16 147 13 156 -42 156h-232l-64 -257h112c48 0 56 10 89 99h31l-59 -238h-31c12 95 12 103 -36 103h-114l-69 -275h223c67 0 82 21 142 176h34l-54 -216h-534l10 40h109l141 568h-111z" />
    <glyph glyph-name="F" unicode="F" horiz-adv-x="615" 
d="M243 339h106c50 0 58 10 94 102h31l-61 -246h-31c14 100 12 108 -34 108h-113l-66 -263h121l-10 -40h-300l10 40h109l141 568h-111l10 40h540l-50 -200h-34c14 151 8 160 -44 160h-241z" />
    <glyph glyph-name="G" unicode="G" horiz-adv-x="691" 
d="M312 31c112 0 178 100 207 214l7 28h-123l12 40h282l-10 -40h-91l-70 -280h-36l1 96c-54 -71 -117 -105 -192 -105c-150 0 -227 120 -227 257c0 222 155 422 354 422c77 0 138 -27 179 -83l39 80h41l-56 -232h-35c-3 137 -72 191 -170 191c-164 0 -279 -177 -279 -389
c0 -121 58 -199 167 -199z" />
    <glyph glyph-name="H" unicode="H" horiz-adv-x="746" 
d="M-20 0l10 40h109l141 568h-111l10 40h277l-10 -40h-96l-63 -254h318l63 254h-98l10 40h277l-10 -40h-109l-141 -568h111l-10 -40h-277l10 40h96l69 276h-318l-69 -276h98l-10 -40h-277z" />
    <glyph glyph-name="I" unicode="I" horiz-adv-x="366" 
d="M-16 0l10 40h109l141 568h-111l10 40h290l-10 -40h-109l-141 -568h111l-10 -40h-290z" />
    <glyph glyph-name="J" unicode="J" horiz-adv-x="507" 
d="M485 608l-108 -436c-29 -117 -95 -188 -208 -188c-105 0 -163 66 -163 132c0 45 26 82 70 82c33 0 50 -23 50 -50c0 -29 -21 -56 -62 -63c10 -40 55 -61 103 -61c75 0 116 51 140 148l108 436h-103l10 40h268l-10 -40h-95z" />
    <glyph glyph-name="K" unicode="K" horiz-adv-x="702" 
d="M690 608l-287 -232l159 -336h83l-10 -40h-259l10 40h94l-133 292l-132 -108l-46 -184h98l-10 -40h-277l10 40h109l141 568h-111l10 40h277l-10 -40h-96l-79 -321l390 321h-90l10 40h241l-10 -40h-82z" />
    <glyph glyph-name="L" unicode="L" horiz-adv-x="589" 
d="M139 648h277l-10 -40h-96l-141 -568h214c67 0 76 30 132 180h34l-55 -220h-514l10 40h109l141 568h-111z" />
    <glyph glyph-name="M" unicode="M" horiz-adv-x="896" 
d="M-20 0l10 40h104l141 568h-106l10 40h213l64 -528h3l332 528h217l-10 -40h-109l-141 -568h111l-10 -40h-265l10 40h84l141 568h-4l-387 -609h-24l-79 609h-4l-141 -568h92l-10 -40h-242z" />
    <glyph glyph-name="N" unicode="N" horiz-adv-x="733" 
d="M520 -16l-247 585h-2l-131 -529h92l-10 -40h-242l10 40h104l141 568h-106l10 40h173l226 -531h2l121 491h-94l10 40h237l-10 -40h-97l-155 -624h-32z" />
    <glyph glyph-name="O" unicode="O" horiz-adv-x="685" 
d="M74 256c0 205 145 406 343 406c146 0 246 -109 246 -272c0 -205 -145 -406 -343 -406c-146 0 -246 109 -246 272zM415 620c-187 0 -269 -227 -269 -375c0 -158 79 -219 176 -219c187 0 269 227 269 374c0 159 -79 220 -176 220z" />
    <glyph glyph-name="P" unicode="P" horiz-adv-x="592" 
d="M226 270l-57 -230h122l-10 -40h-301l10 40h109l141 568h-111l10 40h260c164 0 216 -68 216 -151c0 -145 -121 -227 -299 -227h-90zM236 310h92c151 0 212 87 212 194c0 60 -27 104 -142 104h-88z" />
    <glyph glyph-name="Q" unicode="Q" horiz-adv-x="685" 
d="M320 -16c-146 0 -246 109 -246 272c0 205 145 406 343 406c146 0 246 -109 246 -272c0 -143 -70 -283 -179 -356c22 -61 39 -85 75 -85c38 0 60 40 87 100l37 -14c-28 -73 -64 -140 -132 -140c-62 0 -92 43 -116 113c-36 -15 -74 -24 -115 -24zM190 85
c-8 74 41 142 122 142c89 0 128 -67 156 -145l6 6c77 77 117 209 117 312c0 159 -79 220 -176 220c-187 0 -269 -227 -269 -375c0 -71 16 -122 44 -160zM332 25c33 0 63 8 90 23c0 2 -1 4 -1 6c-22 80 -53 133 -115 133c-43 0 -76 -35 -76 -83c0 -40 28 -79 102 -79z" />
    <glyph glyph-name="R" unicode="R" horiz-adv-x="660" 
d="M-20 0l10 40h109l141 568h-111l10 40h280c164 0 209 -71 209 -143c0 -86 -56 -175 -196 -190l-1 -2c79 -21 97 -57 97 -109c0 -41 -14 -95 -14 -128c0 -30 13 -44 42 -44c18 0 46 7 68 17l10 -22c-32 -22 -73 -38 -112 -38c-45 0 -82 24 -82 83c0 50 20 109 20 160
c0 39 -20 64 -101 64h-126l-64 -256h112l-10 -40h-291zM241 333h114c72 0 119 17 152 50c30 30 48 81 48 128c0 62 -36 98 -134 97h-111z" />
    <glyph glyph-name="S" unicode="S" horiz-adv-x="553" 
d="M-1 -13l55 224h31c26 -143 107 -190 203 -190c77 0 145 51 145 134c0 67 -52 101 -144 144c-87 41 -163 84 -163 176c0 102 85 187 209 187c82 0 141 -38 176 -80l40 77h35l-51 -211h-32c-23 148 -98 178 -173 178c-72 0 -139 -50 -139 -128c0 -70 57 -99 133 -137
c98 -49 176 -90 176 -184c0 -110 -96 -193 -216 -193c-83 0 -154 31 -204 94l-45 -91h-36z" />
    <glyph glyph-name="T" unicode="T" horiz-adv-x="650" 
d="M122 0l10 40h113l142 568h-118c-67 0 -76 -30 -134 -180h-32l55 220h548l-55 -220h-30c16 150 19 180 -48 180h-116l-142 -568h115l-10 -40h-298z" />
    <glyph glyph-name="U" unicode="U" horiz-adv-x="708" 
d="M315 -16c-135 0 -204 72 -204 163c0 27 4 55 15 100l89 361h-96l10 40h266l-10 -40h-100l-83 -333c-16 -66 -21 -103 -21 -127c0 -74 55 -115 153 -115c50 0 103 13 146 56c31 31 53 73 69 135l95 384h-98l10 40h232l-10 -40h-88l-100 -404c-14 -55 -40 -104 -78 -142
c-53 -53 -121 -78 -197 -78z" />
    <glyph glyph-name="V" unicode="V" horiz-adv-x="674" 
d="M247 608l66 -519h2l318 519h-92l10 40h216l-10 -40h-69l-384 -612h-43l-83 612h-79l10 40h250l-10 -40h-102z" />
    <glyph glyph-name="W" unicode="W" horiz-adv-x="965" 
d="M581 -4l-35 494l-280 -494h-47l-44 612h-76l10 40h250l-10 -40h-106l32 -511h2l264 466l-3 45h-74l10 40h247l-10 -40h-106l32 -511h2l287 511h-92l10 40h214l-10 -40h-69l-351 -612h-47z" />
    <glyph glyph-name="X" unicode="X" horiz-adv-x="647" 
d="M372 608h-94l89 -235l214 235h-92l10 40h230l-10 -40h-76l-255 -275l118 -293h84l-10 -40h-254l10 40h93l-96 248l-227 -248h89l-10 -40h-228l10 40h77l269 289l-112 279h-84l10 40h255z" />
    <glyph glyph-name="Y" unicode="Y" horiz-adv-x="648" 
d="M361 321l232 287h-83l10 40h217l-10 -40h-77l-280 -338l-60 -230h103l-10 -40h-272l10 40h99l62 243l-94 325h-82l10 40h247l-10 -40h-90z" />
    <glyph glyph-name="Z" unicode="Z" horiz-adv-x="570" 
d="M-18 0l6 25l542 583h-270c-41 0 -51 -10 -116 -172h-30l52 212h469l-7 -25l-539 -583h290c41 0 51 17 117 179h30l-54 -219h-490z" />
    <glyph glyph-name="a" unicode="a" 
d="M447 446l-75 -277c-14 -51 -18 -75 -18 -96c0 -11 2 -34 25 -34c29 0 53 44 80 118l27 -9c-45 -125 -81 -157 -122 -157c-35 0 -64 24 -64 80c0 11 2 24 3 28l-7 3c-46 -70 -93 -111 -148 -111c-66 0 -115 53 -115 148s43 191 103 251c38 38 83 62 127 62
c45 0 85 -28 98 -95l24 89h62zM168 38c87 0 176 163 176 266c0 41 -17 111 -78 111c-84 0 -168 -149 -168 -278c0 -67 29 -99 70 -99z" />
    <glyph glyph-name="b" unicode="b" horiz-adv-x="456" 
d="M289 405c-91 0 -179 -168 -179 -272c0 -52 20 -104 80 -104c96 0 170 160 170 277c0 67 -29 99 -71 99zM249 687l-96 -343l7 -3c46 70 93 111 149 111c67 0 116 -53 116 -148c0 -159 -123 -313 -240 -313c-73 0 -137 49 -137 142c0 48 15 105 28 155l100 360h-95l10 39
h158z" />
    <glyph glyph-name="c" unicode="c" horiz-adv-x="417" 
d="M277 452c63 0 120 -35 120 -92c0 -33 -19 -63 -48 -63c-21 0 -41 14 -41 40c0 21 12 41 32 56c-17 20 -43 26 -64 26c-111 0 -179 -142 -179 -246c0 -90 43 -140 101 -140c43 0 90 22 137 107l25 -15c-42 -79 -96 -134 -177 -134c-93 0 -152 73 -152 178
c0 136 112 283 246 283z" />
    <glyph glyph-name="d" unicode="d" 
d="M168 38c90 0 178 170 178 272c0 56 -23 105 -82 105c-91 0 -166 -153 -166 -278c0 -67 29 -99 70 -99zM459 157l27 -9c-45 -125 -81 -157 -122 -157c-35 0 -64 24 -64 80c0 11 2 24 3 28l-7 3c-46 -70 -93 -111 -148 -111c-66 0 -115 53 -115 148c0 96 41 191 101 251
c38 38 83 62 128 62s88 -26 101 -87l76 283h-95l10 39h158l-140 -518c-14 -51 -18 -75 -18 -96c0 -11 2 -34 25 -34c29 0 53 44 80 118z" />
    <glyph glyph-name="e" unicode="e" horiz-adv-x="419" 
d="M400 364c0 -90 -95 -154 -302 -179c-1 -9 -1 -19 -1 -27c0 -84 37 -128 95 -128s105 36 152 102l24 -17c-48 -69 -106 -124 -190 -124c-88 0 -147 58 -147 159c0 155 143 302 264 302c68 0 105 -41 105 -88zM281 419c-85 0 -157 -107 -178 -205c189 25 236 89 236 148
c0 36 -24 57 -58 57z" />
    <glyph glyph-name="f" unicode="f" horiz-adv-x="308" 
d="M-20 -160c-41 0 -59 24 -59 49c0 26 16 49 42 49c22 0 34 -16 34 -35c0 -12 -5 -27 -13 -36c36 0 52 32 84 182l74 354h-99l9 35h97c36 179 104 253 191 254c57 1 92 -29 92 -67c0 -31 -18 -59 -46 -59c-21 0 -36 15 -36 38c0 18 7 35 21 48c-6 5 -17 9 -31 9
c-67 0 -94 -74 -119 -184l-9 -39h124l-9 -35h-122l-68 -326c-38 -181 -89 -237 -157 -237z" />
    <glyph glyph-name="g" unicode="g" horiz-adv-x="469" 
d="M57 -108c14 -13 42 -18 68 -18c44 0 78 16 102 40c29 29 53 77 77 183l-7 3c-30 -38 -72 -79 -133 -79c-74 0 -125 60 -125 147c0 81 37 169 94 226c35 35 79 58 125 58c48 0 92 -28 106 -92l23 86h62l-86 -361c-39 -166 -115 -245 -235 -245c-52 0 -135 18 -135 83
c0 30 20 58 49 58c25 0 40 -18 40 -41c0 -17 -9 -36 -25 -48zM189 65c89 0 160 125 160 243c0 54 -32 107 -88 107c-89 0 -157 -139 -157 -237c0 -76 34 -113 85 -113z" />
    <glyph glyph-name="h" unicode="h" horiz-adv-x="514" 
d="M368 -9c-37 0 -67 30 -66 86c1 82 75 193 75 278c0 19 -8 45 -42 45c-63 0 -170 -113 -248 -400h-67l171 648h-95l10 39h158l-119 -438l7 -3c65 133 140 206 208 206c47 0 82 -34 82 -96c0 -87 -78 -218 -78 -289c0 -11 3 -28 22 -28c25 0 53 44 80 118l27 -9
c-45 -125 -83 -157 -125 -157z" />
    <glyph glyph-name="i" unicode="i" horiz-adv-x="306" 
d="M279 597c0 -25 -19 -58 -52 -58c-20 0 -39 14 -39 42c0 27 18 59 51 59c23 0 40 -16 40 -43zM227 364c0 -89 -88 -230 -88 -297c0 -11 5 -28 24 -28c29 0 54 44 81 118l27 -9c-45 -125 -84 -157 -124 -157c-43 0 -71 30 -70 83c1 85 90 216 90 305c0 10 -3 31 -22 31
c-31 0 -63 -54 -96 -117l-26 12c42 87 80 147 135 147c43 0 69 -33 69 -88z" />
    <glyph glyph-name="j" unicode="j" horiz-adv-x="262" 
d="M278 597c0 -25 -19 -58 -52 -58c-20 0 -39 14 -39 42c0 27 18 59 51 59c23 0 40 -16 40 -43zM225 372c0 -24 -8 -59 -14 -83l-61 -232c-45 -171 -103 -217 -161 -217c-43 0 -60 24 -60 50s18 48 42 48c23 0 35 -16 35 -36c0 -12 -4 -25 -13 -37c18 0 48 8 84 148l77 296
c7 27 11 53 11 68c0 12 -2 33 -22 33c-30 0 -62 -54 -95 -117l-26 12c42 87 81 147 135 147c40 0 68 -32 68 -80z" />
    <glyph glyph-name="k" unicode="k" horiz-adv-x="472" 
d="M314 75c0 -19 4 -36 23 -36c25 0 53 44 80 118l27 -9c-45 -125 -83 -157 -125 -157c-37 0 -68 30 -67 86c1 34 9 74 9 94c0 38 -14 55 -84 55h-36l-60 -226h-61l171 648h-95l10 39h158l-116 -432h22c50 0 82 28 122 97c37 64 65 100 111 100c39 0 59 -21 59 -52
c0 -34 -21 -58 -47 -58c-30 0 -46 34 -28 69c-26 -2 -46 -32 -71 -75c-30 -51 -58 -77 -89 -90c74 -5 95 -39 95 -77c0 -34 -8 -62 -8 -94z" />
    <glyph glyph-name="l" unicode="l" horiz-adv-x="250" 
d="M35 72c0 22 4 46 18 97l129 479h-95l10 39h158l-140 -518c-14 -51 -18 -75 -18 -96c0 -11 2 -34 25 -34c29 0 53 44 80 118l27 -9c-45 -125 -81 -157 -124 -157s-70 30 -70 81z" />
    <glyph glyph-name="m" unicode="m" horiz-adv-x="808" 
d="M662 -9c-37 0 -67 30 -66 86c1 82 75 193 75 278c0 19 -8 45 -42 45c-63 0 -161 -113 -239 -400h-66l20 75c37 136 68 226 68 275c0 17 -2 50 -44 50c-63 0 -161 -113 -239 -400h-67l82 306c25 93 9 104 -8 104c-29 0 -56 -53 -89 -117l-26 12c41 91 78 145 128 145
c39 0 58 -29 58 -74c0 -40 -13 -91 -22 -123l7 -3c65 133 133 202 201 202c47 0 77 -34 77 -88c0 -30 -11 -74 -24 -111l7 -3c65 133 133 202 201 202c47 0 82 -34 82 -96c0 -87 -78 -218 -78 -289c0 -11 3 -28 22 -28c25 0 53 44 80 118l27 -9c-45 -125 -83 -157 -125 -157
z" />
    <glyph glyph-name="n" unicode="n" horiz-adv-x="547" 
d="M397 67c0 -11 3 -28 22 -28c25 0 53 44 80 118l27 -9c-45 -125 -83 -157 -125 -157c-37 0 -67 30 -66 86c1 82 75 193 75 278c0 19 -8 45 -42 45c-63 0 -161 -113 -239 -400h-67l82 306c25 93 9 104 -8 104c-29 0 -56 -53 -89 -117l-26 12c41 91 78 145 128 145
c39 0 58 -29 58 -74c0 -40 -13 -91 -22 -123l7 -3c65 133 133 202 201 202c47 0 82 -34 82 -96c0 -87 -78 -218 -78 -289z" />
    <glyph glyph-name="o" unicode="o" horiz-adv-x="459" 
d="M267 452c102 0 157 -77 157 -180c0 -148 -106 -281 -231 -281c-103 0 -158 77 -158 180c0 148 107 281 232 281zM360 297c0 88 -44 122 -92 122c-107 0 -169 -161 -169 -273c0 -88 44 -122 92 -122c107 0 169 161 169 273z" />
    <glyph glyph-name="p" unicode="p" horiz-adv-x="510" 
d="M341 405c-91 0 -179 -170 -179 -272c0 -48 25 -98 85 -98c92 0 165 154 165 271c0 67 -29 99 -71 99zM145 311c17 63 12 92 -11 92c-27 0 -48 -32 -87 -110l-26 12c43 97 80 145 128 145c43 0 59 -34 59 -76c0 -13 -2 -26 -3 -30l7 -3c46 70 93 111 149 111
c67 0 116 -53 116 -148c0 -153 -111 -305 -228 -305c-46 0 -91 26 -104 79l-49 -185h100l-11 -40h-236l11 40h74z" />
    <glyph glyph-name="q" unicode="q" horiz-adv-x="466" 
d="M449 446l-147 -553h100l-11 -40h-236l11 40h74l55 203l-7 3c-38 -58 -83 -99 -139 -99c-67 0 -116 53 -116 148c0 91 42 183 101 242c38 38 84 62 129 62c46 0 89 -26 102 -87l22 81h62zM169 47c87 0 179 161 179 263c0 56 -23 105 -83 105c-92 0 -167 -153 -167 -269
c0 -67 29 -99 71 -99z" />
    <glyph glyph-name="r" unicode="r" horiz-adv-x="406" 
d="M62 0l82 306c25 93 9 104 -8 104c-29 0 -56 -53 -89 -117l-26 12c41 91 78 145 128 145c39 0 58 -29 58 -74c0 -40 -13 -91 -22 -123l8 -3c63 125 112 202 169 202c30 0 50 -21 50 -52c0 -34 -22 -61 -47 -61s-40 22 -35 58c-47 -23 -137 -157 -201 -397h-67z" />
    <glyph glyph-name="s" unicode="s" horiz-adv-x="408" 
d="M343 128c0 -89 -80 -137 -164 -137c-74 0 -157 40 -157 100c0 28 18 58 49 58c22 0 38 -16 38 -40c0 -20 -12 -39 -26 -50c15 -20 53 -37 96 -37c63 0 105 38 105 88c0 37 -17 54 -97 91c-47 22 -103 50 -103 116c0 84 74 135 160 135c69 0 142 -32 142 -90
c0 -26 -17 -53 -45 -53c-23 0 -39 15 -39 39c0 19 11 36 24 46c-11 13 -45 27 -82 27c-63 0 -101 -36 -101 -83c0 -37 21 -59 88 -89c68 -30 112 -57 112 -121z" />
    <glyph glyph-name="t" unicode="t" horiz-adv-x="335" 
d="M336 403h-134l-66 -243c-12 -46 -14 -61 -14 -74c0 -31 20 -43 40 -43c45 0 78 54 107 122l28 -9c-53 -139 -109 -165 -154 -165c-58 0 -86 40 -86 84c0 25 9 64 17 92l64 236h-91l9 35h91l35 129l67 10l-38 -139h134z" />
    <glyph glyph-name="u" unicode="u" horiz-adv-x="544" 
d="M406 -9c-35 0 -64 24 -64 80c0 28 12 85 21 117l-7 3c-65 -133 -130 -200 -198 -200c-47 0 -82 34 -82 96c0 87 76 218 76 289c0 11 -3 28 -22 28c-27 0 -50 -46 -83 -110l-26 12c43 88 71 146 127 146c37 0 68 -30 67 -86c-1 -82 -74 -193 -74 -278c0 -19 8 -44 42 -44
c63 0 159 112 238 402h67l-74 -277c-14 -51 -18 -75 -18 -96c0 -11 2 -34 25 -34c29 0 53 44 80 118l27 -9c-45 -125 -81 -157 -122 -157z" />
    <glyph glyph-name="v" unicode="v" horiz-adv-x="460" 
d="M148 452c39 0 70 -30 69 -86c-1 -82 -80 -207 -80 -269c0 -45 36 -59 67 -59c116 0 194 205 192 320c-6 -2 -14 -6 -21 -6c-27 0 -43 17 -43 44c0 29 18 59 49 59c32 0 52 -30 52 -87c0 -142 -99 -380 -249 -380c-72 0 -113 45 -113 106c0 77 83 209 83 282
c0 11 -3 28 -24 28c-27 0 -50 -46 -83 -110l-26 12c43 88 71 146 127 146z" />
    <glyph glyph-name="w" unicode="w" horiz-adv-x="676" 
d="M148 452c39 0 70 -30 69 -86c-1 -88 -87 -203 -87 -277c0 -38 20 -51 45 -51c92 0 154 195 210 407h60l-45 -185c-17 -71 -23 -125 -23 -147c0 -48 15 -75 54 -75c100 0 179 201 177 320c-6 -2 -14 -6 -21 -6c-27 0 -43 17 -43 44c0 29 18 59 49 59c32 0 52 -30 52 -87
c0 -142 -97 -380 -229 -380c-76 0 -95 60 -95 118c0 18 2 36 4 50l-7 1c-42 -114 -91 -169 -157 -169c-62 0 -97 45 -97 101c0 88 90 208 90 287c0 11 -3 28 -24 28c-27 0 -50 -46 -83 -110l-26 12c43 88 71 146 127 146z" />
    <glyph glyph-name="x" unicode="x" horiz-adv-x="503" 
d="M277 144c0 -81 23 -108 53 -108c40 0 67 44 96 117l26 -11c-32 -90 -72 -152 -132 -152c-65 0 -97 58 -95 158l-6 1c-47 -109 -101 -161 -158 -161c-35 0 -56 21 -56 52c0 32 19 58 46 58c25 0 42 -23 33 -65c76 24 139 167 139 265c0 81 -23 108 -53 108
c-40 0 -67 -44 -96 -117l-26 11c32 90 72 152 132 152c65 0 97 -58 95 -158l6 -1c47 109 101 161 158 161c35 0 56 -21 56 -52c0 -32 -19 -58 -46 -58c-25 0 -42 23 -33 65c-76 -24 -139 -167 -139 -265z" />
    <glyph glyph-name="y" unicode="y" horiz-adv-x="507" 
d="M148 452c37 0 68 -30 67 -86c-1 -82 -68 -174 -68 -245c0 -23 10 -47 45 -47c57 0 170 83 231 372h62l-77 -326c-49 -207 -133 -280 -251 -280c-44 0 -119 17 -119 78c0 29 20 55 49 55c26 0 40 -17 40 -39c0 -16 -9 -34 -26 -45c13 -10 33 -15 56 -15
c99 0 159 74 201 283l4 20l-6 3c-68 -112 -129 -159 -186 -159c-48 0 -88 31 -88 92c0 77 70 192 70 263c0 11 -3 28 -22 28c-27 0 -50 -46 -83 -110l-26 12c43 88 71 146 127 146z" />
    <glyph glyph-name="z" unicode="z" horiz-adv-x="421" 
d="M90 102c73 -14 113 -47 159 -47c47 0 69 28 108 121l30 -14c-39 -106 -78 -171 -155 -171c-44 0 -84 27 -124 67l-30 30l-9 -2c-5 -79 -30 -95 -52 -95c-17 0 -36 11 -36 34c0 24 21 53 73 69c72 98 193 192 279 247c-73 14 -113 47 -159 47c-47 0 -67 -28 -108 -121
l-30 14c39 106 78 171 155 171c44 0 84 -27 124 -67l30 -30l9 2c5 79 30 95 52 95c17 0 36 -11 36 -34c0 -24 -21 -53 -73 -69c-72 -98 -193 -192 -279 -247z" />
    <glyph glyph-name="Aacute" unicode="&#xc1;" horiz-adv-x="672" 
d="M367 40h102l-24 198h-239l-119 -198h92l-10 -40h-216l10 40h69l379 613h50l77 -613h79l-10 -40h-250zM229 276h211l-34 290h-2zM553 821l-92 -85h-32l80 118c39 58 53 76 75 76c17 0 30 -13 30 -30c0 -26 -22 -43 -61 -79z" />
    <glyph glyph-name="aacute" unicode="&#xe1;" 
d="M447 446l-75 -277c-14 -51 -18 -75 -18 -96c0 -11 2 -34 25 -34c29 0 53 44 80 118l27 -9c-45 -125 -81 -157 -122 -157c-35 0 -64 24 -64 80c0 11 2 24 3 28l-7 3c-46 -70 -93 -111 -148 -111c-66 0 -115 53 -115 148s43 191 103 251c38 38 83 62 127 62
c45 0 85 -28 98 -95l24 89h62zM168 38c87 0 176 163 176 266c0 41 -17 111 -78 111c-84 0 -168 -149 -168 -278c0 -67 29 -99 70 -99zM411 608l-92 -85h-32l80 118c39 58 53 76 75 76c17 0 30 -13 30 -30c0 -26 -22 -43 -61 -79z" />
    <glyph glyph-name="Abreve" unicode="&#x102;" horiz-adv-x="672" 
d="M367 40h102l-24 198h-239l-119 -198h92l-10 -40h-216l10 40h69l379 613h50l77 -613h79l-10 -40h-250zM229 276h211l-34 290h-2zM460 743c-70 0 -112 54 -94 143h24c2 -55 25 -89 77 -89s89 34 119 89h24c-26 -89 -80 -143 -150 -143z" />
    <glyph glyph-name="abreve" unicode="&#x103;" 
d="M447 446l-75 -277c-14 -51 -18 -75 -18 -96c0 -11 2 -34 25 -34c29 0 53 44 80 118l27 -9c-45 -125 -81 -157 -122 -157c-35 0 -64 24 -64 80c0 11 2 24 3 28l-7 3c-46 -70 -93 -111 -148 -111c-66 0 -115 53 -115 148s43 191 103 251c38 38 83 62 127 62
c45 0 85 -28 98 -95l24 89h62zM168 38c87 0 176 163 176 266c0 41 -17 111 -78 111c-84 0 -168 -149 -168 -278c0 -67 29 -99 70 -99zM318 530c-70 0 -112 54 -94 143h24c2 -55 25 -89 77 -89s89 34 119 89h24c-26 -89 -80 -143 -150 -143z" />
    <glyph glyph-name="Acircumflex" unicode="&#xc2;" horiz-adv-x="672" 
d="M367 40h102l-24 198h-239l-119 -198h92l-10 -40h-216l10 40h69l379 613h50l77 -613h79l-10 -40h-250zM229 276h211l-34 290h-2zM323 737l150 179h34l62 -179h-28l-64 108l-120 -108h-34z" />
    <glyph glyph-name="acircumflex" unicode="&#xe2;" 
d="M447 446l-75 -277c-14 -51 -18 -75 -18 -96c0 -11 2 -34 25 -34c29 0 53 44 80 118l27 -9c-45 -125 -81 -157 -122 -157c-35 0 -64 24 -64 80c0 11 2 24 3 28l-7 3c-46 -70 -93 -111 -148 -111c-66 0 -115 53 -115 148s43 191 103 251c38 38 83 62 127 62
c45 0 85 -28 98 -95l24 89h62zM168 38c87 0 176 163 176 266c0 41 -17 111 -78 111c-84 0 -168 -149 -168 -278c0 -67 29 -99 70 -99zM181 524l150 179h34l62 -179h-28l-64 108l-120 -108h-34z" />
    <glyph glyph-name="Adieresis" unicode="&#xc4;" horiz-adv-x="672" 
d="M367 40h102l-24 198h-239l-119 -198h92l-10 -40h-216l10 40h69l379 613h50l77 -613h79l-10 -40h-250zM229 276h211l-34 290h-2zM423 815c0 -31 -20 -56 -46 -56c-24 0 -38 19 -38 44c0 31 20 56 46 56c24 0 38 -19 38 -44zM589 815c0 -31 -20 -56 -46 -56
c-24 0 -38 19 -38 44c0 31 20 56 46 56c24 0 38 -19 38 -44z" />
    <glyph glyph-name="adieresis" unicode="&#xe4;" 
d="M447 446l-75 -277c-14 -51 -18 -75 -18 -96c0 -11 2 -34 25 -34c29 0 53 44 80 118l27 -9c-45 -125 -81 -157 -122 -157c-35 0 -64 24 -64 80c0 11 2 24 3 28l-7 3c-46 -70 -93 -111 -148 -111c-66 0 -115 53 -115 148s43 191 103 251c38 38 83 62 127 62
c45 0 85 -28 98 -95l24 89h62zM168 38c87 0 176 163 176 266c0 41 -17 111 -78 111c-84 0 -168 -149 -168 -278c0 -67 29 -99 70 -99zM281 602c0 -31 -20 -56 -46 -56c-24 0 -38 19 -38 44c0 31 20 56 46 56c24 0 38 -19 38 -44zM447 602c0 -31 -20 -56 -46 -56
c-24 0 -38 19 -38 44c0 31 20 56 46 56c24 0 38 -19 38 -44z" />
    <glyph glyph-name="AE" unicode="&#xc6;" horiz-adv-x="921" 
d="M283 40h109l51 208h-206l-167 -208h93l-10 -40h-225l10 40h77l458 568h-102l10 40h579l-49 -196h-34c16 147 13 156 -42 156h-232l-64 -257h112c48 0 56 10 89 99h31l-59 -238h-31c12 95 12 103 -36 103h-114l-69 -275h223c67 0 82 21 142 176h34l-54 -216h-534zM268 286
h185l81 325h-4z" />
    <glyph glyph-name="ae" unicode="&#xe6;" horiz-adv-x="675" 
d="M551 452c68 0 105 -41 105 -88c0 -90 -95 -154 -302 -179c-1 -9 -1 -19 -1 -27c0 -84 37 -128 95 -128s105 36 152 102l24 -17c-48 -69 -106 -124 -188 -124c-71 0 -115 37 -132 98c-66 -88 -139 -96 -175 -96c-75 0 -118 42 -118 101c0 108 135 150 305 157
c14 54 17 66 17 83c0 52 -43 84 -103 84c-26 0 -55 -7 -70 -17c9 -8 15 -25 15 -39c0 -25 -16 -54 -50 -54c-23 0 -41 17 -41 43c0 64 76 99 156 99c69 0 128 -33 141 -88c47 55 110 90 170 90zM297 151c0 24 3 49 9 72c-173 -10 -225 -61 -225 -119c0 -40 23 -71 71 -71
c60 0 115 46 146 89c-1 9 -1 19 -1 29zM537 419c-85 0 -157 -107 -178 -205c189 25 236 89 236 148c0 36 -24 57 -58 57z" />
    <glyph glyph-name="AEacute" unicode="&#x1fc;" horiz-adv-x="921" 
d="M283 40h109l51 208h-206l-167 -208h93l-10 -40h-225l10 40h77l458 568h-102l10 40h579l-49 -196h-34c16 147 13 156 -42 156h-232l-64 -257h112c48 0 56 10 89 99h31l-59 -238h-31c12 95 12 103 -36 103h-114l-69 -275h223c67 0 82 21 142 176h34l-54 -216h-534zM268 286
h185l81 325h-4zM714 821l-92 -85h-32l80 118c39 58 53 76 75 76c17 0 30 -13 30 -30c0 -26 -22 -43 -61 -79z" />
    <glyph glyph-name="aeacute" unicode="&#x1fd;" horiz-adv-x="675" 
d="M551 452c68 0 105 -41 105 -88c0 -90 -95 -154 -302 -179c-1 -9 -1 -19 -1 -27c0 -84 37 -128 95 -128s105 36 152 102l24 -17c-48 -69 -106 -124 -188 -124c-71 0 -115 37 -132 98c-66 -88 -139 -96 -175 -96c-75 0 -118 42 -118 101c0 108 135 150 305 157
c14 54 17 66 17 83c0 52 -43 84 -103 84c-26 0 -55 -7 -70 -17c9 -8 15 -25 15 -39c0 -25 -16 -54 -50 -54c-23 0 -41 17 -41 43c0 64 76 99 156 99c69 0 128 -33 141 -88c47 55 110 90 170 90zM297 151c0 24 3 49 9 72c-173 -10 -225 -61 -225 -119c0 -40 23 -71 71 -71
c60 0 115 46 146 89c-1 9 -1 19 -1 29zM537 419c-85 0 -157 -107 -178 -205c189 25 236 89 236 148c0 36 -24 57 -58 57zM526 608l-92 -85h-32l80 118c39 58 53 76 75 76c17 0 30 -13 30 -30c0 -26 -22 -43 -61 -79z" />
    <glyph glyph-name="Agrave" unicode="&#xc0;" horiz-adv-x="672" 
d="M367 40h102l-24 198h-239l-119 -198h92l-10 -40h-216l10 40h69l379 613h50l77 -613h79l-10 -40h-250zM229 276h211l-34 290h-2zM434 853l20 -117h-26l-37 79c-16 36 -32 61 -32 82c0 20 14 33 32 33c27 0 35 -29 43 -77z" />
    <glyph glyph-name="agrave" unicode="&#xe0;" 
d="M447 446l-75 -277c-14 -51 -18 -75 -18 -96c0 -11 2 -34 25 -34c29 0 53 44 80 118l27 -9c-45 -125 -81 -157 -122 -157c-35 0 -64 24 -64 80c0 11 2 24 3 28l-7 3c-46 -70 -93 -111 -148 -111c-66 0 -115 53 -115 148s43 191 103 251c38 38 83 62 127 62
c45 0 85 -28 98 -95l24 89h62zM168 38c87 0 176 163 176 266c0 41 -17 111 -78 111c-84 0 -168 -149 -168 -278c0 -67 29 -99 70 -99zM292 640l20 -117h-26l-37 79c-16 36 -32 61 -32 82c0 20 14 33 32 33c27 0 35 -29 43 -77z" />
    <glyph glyph-name="Amacron" unicode="&#x100;" horiz-adv-x="672" 
d="M367 40h102l-24 198h-239l-119 -198h92l-10 -40h-216l10 40h69l379 613h50l77 -613h79l-10 -40h-250zM229 276h211l-34 290h-2zM336 755l13 53h251l-13 -53h-251z" />
    <glyph glyph-name="amacron" unicode="&#x101;" 
d="M447 446l-75 -277c-14 -51 -18 -75 -18 -96c0 -11 2 -34 25 -34c29 0 53 44 80 118l27 -9c-45 -125 -81 -157 -122 -157c-35 0 -64 24 -64 80c0 11 2 24 3 28l-7 3c-46 -70 -93 -111 -148 -111c-66 0 -115 53 -115 148s43 191 103 251c38 38 83 62 127 62
c45 0 85 -28 98 -95l24 89h62zM168 38c87 0 176 163 176 266c0 41 -17 111 -78 111c-84 0 -168 -149 -168 -278c0 -67 29 -99 70 -99zM195 542l13 53h251l-13 -53h-251z" />
    <glyph glyph-name="Aogonek" unicode="&#x104;" horiz-adv-x="672" 
d="M515 -201c-24 -20 -53 -32 -85 -32c-40 0 -81 24 -81 76c0 50 37 91 119 146l16 11h-127l10 40h102l-24 198h-239l-119 -198h92l-10 -40h-216l10 40h69l379 613h50l77 -613h79l-10 -40h-84l-20 -16c-80 -63 -101 -98 -101 -134c0 -27 17 -45 46 -45c22 0 41 9 55 17z
M229 276h211l-34 290h-2z" />
    <glyph glyph-name="aogonek" unicode="&#x105;" 
d="M361 357l24 89h62l-75 -277c-14 -51 -18 -75 -18 -96c0 -11 2 -34 25 -34c29 0 53 44 80 118l27 -9c-13 -35 -38 -112 -88 -151c-58 -45 -120 -89 -120 -147c0 -27 17 -45 46 -45c22 0 41 9 55 17l12 -23c-24 -20 -53 -32 -85 -32c-40 0 -81 24 -81 76
c0 50 37 91 124 150c-28 6 -49 30 -49 78c0 11 2 24 3 28l-7 3c-46 -70 -93 -111 -148 -111c-66 0 -115 53 -115 148s43 191 103 251c38 38 83 62 127 62c45 0 85 -28 98 -95zM168 38c87 0 176 163 176 266c0 41 -17 111 -78 111c-84 0 -168 -149 -168 -278
c0 -67 29 -99 70 -99z" />
    <glyph glyph-name="Aring" unicode="&#xc5;" horiz-adv-x="672" 
d="M563 755c0 -51 -37 -105 -101 -113l76 -602h79l-10 -40h-250l10 40h102l-24 198h-239l-119 -198h92l-10 -40h-216l10 40h69l375 607c-31 12 -53 39 -53 80c0 55 43 114 117 114c48 0 92 -29 92 -86zM229 276h211l-34 290h-2zM397 724c0 -31 18 -53 51 -53
c42 0 72 40 72 87c0 31 -18 53 -51 53c-42 0 -72 -40 -72 -87z" />
    <glyph glyph-name="aring" unicode="&#xe5;" 
d="M447 446l-75 -277c-14 -51 -18 -75 -18 -96c0 -11 2 -34 25 -34c29 0 53 44 80 118l27 -9c-45 -125 -81 -157 -122 -157c-35 0 -64 24 -64 80c0 11 2 24 3 28l-7 3c-46 -70 -93 -111 -148 -111c-66 0 -115 53 -115 148s43 191 103 251c38 38 83 62 127 62
c45 0 85 -28 98 -95l24 89h62zM168 38c87 0 176 163 176 266c0 41 -17 111 -78 111c-84 0 -168 -149 -168 -278c0 -67 29 -99 70 -99zM444 631c0 -55 -43 -114 -117 -114c-48 0 -92 29 -92 86c0 55 43 114 117 114c48 0 92 -29 92 -86zM278 600c0 -31 18 -53 51 -53
c42 0 72 40 72 87c0 31 -18 53 -51 53c-42 0 -72 -40 -72 -87z" />
    <glyph glyph-name="Aringacute" unicode="&#x1fa;" horiz-adv-x="672" 
d="M563 755c0 -51 -37 -105 -101 -113l76 -602h79l-10 -40h-250l10 40h102l-24 198h-239l-119 -198h92l-10 -40h-216l10 40h69l375 607c-31 12 -53 39 -53 80c0 55 43 114 117 114c48 0 92 -29 92 -86zM229 276h211l-34 290h-2zM397 724c0 -31 18 -53 51 -53
c42 0 72 40 72 87c0 31 -18 53 -51 53c-42 0 -72 -40 -72 -87zM592 970l-92 -85h-32l80 118c39 58 53 76 75 76c17 0 30 -13 30 -30c0 -26 -22 -43 -61 -79z" />
    <glyph glyph-name="aringacute" unicode="&#x1fb;" 
d="M447 446l-75 -277c-14 -51 -18 -75 -18 -96c0 -11 2 -34 25 -34c29 0 53 44 80 118l27 -9c-45 -125 -81 -157 -122 -157c-35 0 -64 24 -64 80c0 11 2 24 3 28l-7 3c-46 -70 -93 -111 -148 -111c-66 0 -115 53 -115 148s43 191 103 251c38 38 83 62 127 62
c45 0 85 -28 98 -95l24 89h62zM168 38c87 0 176 163 176 266c0 41 -17 111 -78 111c-84 0 -168 -149 -168 -278c0 -67 29 -99 70 -99zM444 631c0 -55 -43 -114 -117 -114c-48 0 -92 29 -92 86c0 55 43 114 117 114c48 0 92 -29 92 -86zM278 600c0 -31 18 -53 51 -53
c42 0 72 40 72 87c0 31 -18 53 -51 53c-42 0 -72 -40 -72 -87zM472 847l-92 -85h-32l80 118c39 58 53 76 75 76c17 0 30 -13 30 -30c0 -26 -22 -43 -61 -79z" />
    <glyph glyph-name="Atilde" unicode="&#xc3;" horiz-adv-x="672" 
d="M367 40h102l-24 198h-239l-119 -198h92l-10 -40h-216l10 40h69l379 613h50l77 -613h79l-10 -40h-250zM229 276h211l-34 290h-2zM410 811c-29 0 -45 -28 -60 -69h-30c28 92 55 122 97 122c52 0 84 -66 121 -66c29 0 45 28 60 69h30c-28 -92 -55 -122 -97 -122
c-52 0 -84 66 -121 66z" />
    <glyph glyph-name="atilde" unicode="&#xe3;" 
d="M447 446l-75 -277c-14 -51 -18 -75 -18 -96c0 -11 2 -34 25 -34c29 0 53 44 80 118l27 -9c-45 -125 -81 -157 -122 -157c-35 0 -64 24 -64 80c0 11 2 24 3 28l-7 3c-46 -70 -93 -111 -148 -111c-66 0 -115 53 -115 148s43 191 103 251c38 38 83 62 127 62
c45 0 85 -28 98 -95l24 89h62zM168 38c87 0 176 163 176 266c0 41 -17 111 -78 111c-84 0 -168 -149 -168 -278c0 -67 29 -99 70 -99zM268 598c-29 0 -45 -28 -60 -69h-30c28 92 55 122 97 122c52 0 84 -66 121 -66c29 0 45 28 60 69h30c-28 -92 -55 -122 -97 -122
c-52 0 -84 66 -121 66z" />
    <glyph glyph-name="Cacute" unicode="&#x106;" horiz-adv-x="647" 
d="M313 -15c-161 0 -241 118 -241 256c0 220 158 422 354 422c77 0 138 -27 179 -83l39 80h41l-56 -232h-35c-3 137 -72 191 -170 191c-164 0 -279 -181 -279 -375c0 -135 67 -213 182 -213c124 0 190 107 238 210l38 -16c-56 -129 -140 -240 -290 -240zM549 821l-92 -85
h-32l80 118c39 58 53 76 75 76c17 0 30 -13 30 -30c0 -26 -22 -43 -61 -79z" />
    <glyph glyph-name="cacute" unicode="&#x107;" horiz-adv-x="417" 
d="M277 452c63 0 120 -35 120 -92c0 -33 -19 -63 -48 -63c-21 0 -41 14 -41 40c0 21 12 41 32 56c-17 20 -43 26 -64 26c-111 0 -179 -142 -179 -246c0 -90 43 -140 101 -140c43 0 90 22 137 107l25 -15c-42 -79 -96 -134 -177 -134c-93 0 -152 73 -152 178
c0 136 112 283 246 283zM381 608l-92 -85h-32l80 118c39 58 53 76 75 76c17 0 30 -13 30 -30c0 -26 -22 -43 -61 -79z" />
    <glyph glyph-name="Ccaron" unicode="&#x10c;" horiz-adv-x="647" 
d="M313 -15c-161 0 -241 118 -241 256c0 220 158 422 354 422c77 0 138 -27 179 -83l39 80h41l-56 -232h-35c-3 137 -72 191 -170 191c-164 0 -279 -181 -279 -375c0 -135 67 -213 182 -213c124 0 190 107 238 210l38 -16c-56 -129 -140 -240 -290 -240zM615 925l-151 -179
h-34l-61 179h28l63 -108l121 108h34z" />
    <glyph glyph-name="ccaron" unicode="&#x10d;" horiz-adv-x="417" 
d="M277 452c63 0 120 -35 120 -92c0 -33 -19 -63 -48 -63c-21 0 -41 14 -41 40c0 21 12 41 32 56c-17 20 -43 26 -64 26c-111 0 -179 -142 -179 -246c0 -90 43 -140 101 -140c43 0 90 22 137 107l25 -15c-42 -79 -96 -134 -177 -134c-93 0 -152 73 -152 178
c0 136 112 283 246 283zM448 712l-151 -179h-34l-61 179h28l63 -108l121 108h34z" />
    <glyph glyph-name="Ccedilla" unicode="&#xc7;" horiz-adv-x="647" 
d="M176 -165c24 -20 49 -34 82 -34c31 0 60 18 60 53c0 46 -66 45 -99 41l-9 18l90 72c-153 6 -228 121 -228 256c0 220 158 422 354 422c77 0 138 -27 179 -83l39 80h41l-56 -232h-35c-3 137 -72 191 -170 191c-164 0 -279 -181 -279 -375c0 -135 67 -213 182 -213
c124 0 190 107 238 210l38 -16c-52 -118 -126 -221 -254 -237l-72 -57v-3c55 -5 89 -31 89 -71c0 -55 -51 -90 -106 -90c-38 0 -74 13 -105 41z" />
    <glyph glyph-name="ccedilla" unicode="&#xe7;" horiz-adv-x="417" 
d="M51 -165c24 -20 49 -34 82 -34c31 0 60 18 60 53c0 46 -66 45 -99 41l-9 18l97 78c-92 1 -151 73 -151 178c0 136 112 283 246 283c63 0 120 -35 120 -92c0 -33 -19 -63 -48 -63c-21 0 -41 14 -41 40c0 21 12 41 32 56c-17 20 -43 26 -64 26c-111 0 -179 -142 -179 -246
c0 -90 43 -140 101 -140c43 0 90 22 137 107l25 -15c-31 -57 -67 -101 -116 -122l-92 -72v-3c55 -5 89 -31 89 -71c0 -55 -51 -90 -106 -90c-38 0 -74 13 -105 41z" />
    <glyph glyph-name="Cdotaccent" unicode="&#x10a;" horiz-adv-x="647" 
d="M313 -15c-161 0 -241 118 -241 256c0 220 158 422 354 422c77 0 138 -27 179 -83l39 80h41l-56 -232h-35c-3 137 -72 191 -170 191c-164 0 -279 -181 -279 -375c0 -135 67 -213 182 -213c124 0 190 107 238 210l38 -16c-56 -129 -140 -240 -290 -240zM509 795
c0 -24 -18 -56 -50 -56c-19 0 -37 13 -37 40c0 26 17 57 49 57c22 0 38 -15 38 -41z" />
    <glyph glyph-name="cdotaccent" unicode="&#x10b;" horiz-adv-x="417" 
d="M277 452c63 0 120 -35 120 -92c0 -33 -19 -63 -48 -63c-21 0 -41 14 -41 40c0 21 12 41 32 56c-17 20 -43 26 -64 26c-111 0 -179 -142 -179 -246c0 -90 43 -140 101 -140c43 0 90 22 137 107l25 -15c-42 -79 -96 -134 -177 -134c-93 0 -152 73 -152 178
c0 136 112 283 246 283zM342 582c0 -24 -18 -56 -50 -56c-19 0 -37 13 -37 40c0 26 17 57 49 57c22 0 38 -15 38 -41z" />
    <glyph glyph-name="Dcaron" unicode="&#x10e;" horiz-adv-x="676" 
d="M-20 0l10 40h109l141 568h-110l10 40h234c205 0 291 -102 291 -247c0 -104 -41 -210 -121 -288c-69 -68 -159 -113 -326 -113h-238zM168 40h40c117 0 204 23 268 87c74 74 115 180 115 292c0 121 -67 189 -226 189h-55zM615 925l-151 -179h-34l-61 179h28l63 -108
l121 108h34z" />
    <glyph glyph-name="dcaron" unicode="&#x10f;" 
d="M168 38c90 0 178 170 178 272c0 56 -23 105 -82 105c-91 0 -166 -153 -166 -278c0 -67 29 -99 70 -99zM459 157l27 -9c-45 -125 -81 -157 -122 -157c-35 0 -64 24 -64 80c0 11 2 24 3 28l-7 3c-46 -70 -93 -111 -148 -111c-66 0 -115 53 -115 148c0 96 41 191 101 251
c38 38 83 62 128 62s88 -26 101 -87l76 283h-95l10 39h158l-140 -518c-14 -51 -18 -75 -18 -96c0 -11 2 -34 25 -34c29 0 53 44 80 118zM626 647l-55 -108h-26l38 156c11 46 26 56 43 56c14 0 28 -10 28 -30c0 -17 -11 -41 -28 -74z" />
    <glyph glyph-name="Dcroat" unicode="&#x110;" horiz-adv-x="676" 
d="M-20 0l10 40h109l69 280h-109l10 40h109l62 248h-110l10 40h234c205 0 291 -102 291 -247c0 -104 -41 -210 -121 -288c-69 -68 -159 -113 -326 -113h-238zM168 40h40c117 0 204 23 268 87c74 74 115 180 115 292c0 121 -67 189 -226 189h-55l-62 -248h143l-10 -40h-143z
" />
    <glyph glyph-name="dcroat" unicode="&#x111;" 
d="M354 687h158l-38 -138h77l-9 -34h-77l-93 -346c-14 -51 -18 -75 -18 -96c0 -11 2 -34 25 -34c29 0 53 44 80 118l27 -9c-45 -125 -81 -157 -122 -157c-35 0 -64 24 -64 80c0 11 2 24 3 28l-7 3c-46 -70 -93 -111 -148 -111c-66 0 -115 53 -115 148c0 96 41 191 101 251
c38 38 83 62 128 62s88 -26 101 -87l40 150h-124l9 34h124l27 99h-95zM168 38c90 0 178 170 178 272c0 56 -23 105 -82 105c-91 0 -166 -153 -166 -278c0 -67 29 -99 70 -99z" />
    <glyph glyph-name="Eacute" unicode="&#xc9;" horiz-adv-x="628" 
d="M139 648h528l-49 -196h-34c16 147 13 156 -42 156h-232l-64 -257h112c48 0 56 10 89 99h31l-59 -238h-31c12 95 12 103 -36 103h-114l-69 -275h223c67 0 82 21 142 176h34l-54 -216h-534l10 40h109l141 568h-111zM559 821l-92 -85h-32l80 118c39 58 53 76 75 76
c17 0 30 -13 30 -30c0 -26 -22 -43 -61 -79z" />
    <glyph glyph-name="eacute" unicode="&#xe9;" horiz-adv-x="419" 
d="M400 364c0 -90 -95 -154 -302 -179c-1 -9 -1 -19 -1 -27c0 -84 37 -128 95 -128s105 36 152 102l24 -17c-48 -69 -106 -124 -190 -124c-88 0 -147 58 -147 159c0 155 143 302 264 302c68 0 105 -41 105 -88zM281 419c-85 0 -157 -107 -178 -205c189 25 236 89 236 148
c0 36 -24 57 -58 57zM396 608l-92 -85h-32l80 118c39 58 53 76 75 76c17 0 30 -13 30 -30c0 -26 -22 -43 -61 -79z" />
    <glyph glyph-name="Ebreve" unicode="&#x114;" horiz-adv-x="628" 
d="M139 648h528l-49 -196h-34c16 147 13 156 -42 156h-232l-64 -257h112c48 0 56 10 89 99h31l-59 -238h-31c12 95 12 103 -36 103h-114l-69 -275h223c67 0 82 21 142 176h34l-54 -216h-534l10 40h109l141 568h-111zM465 743c-70 0 -112 54 -94 143h24c2 -55 25 -89 77 -89
s89 34 119 89h24c-26 -89 -80 -143 -150 -143z" />
    <glyph glyph-name="ebreve" unicode="&#x115;" horiz-adv-x="419" 
d="M400 364c0 -90 -95 -154 -302 -179c-1 -9 -1 -19 -1 -27c0 -84 37 -128 95 -128s105 36 152 102l24 -17c-48 -69 -106 -124 -190 -124c-88 0 -147 58 -147 159c0 155 143 302 264 302c68 0 105 -41 105 -88zM281 419c-85 0 -157 -107 -178 -205c189 25 236 89 236 148
c0 36 -24 57 -58 57zM303 530c-70 0 -112 54 -94 143h24c2 -55 25 -89 77 -89s89 34 119 89h24c-26 -89 -80 -143 -150 -143z" />
    <glyph glyph-name="Ecaron" unicode="&#x11a;" horiz-adv-x="628" 
d="M139 648h528l-49 -196h-34c16 147 13 156 -42 156h-232l-64 -257h112c48 0 56 10 89 99h31l-59 -238h-31c12 95 12 103 -36 103h-114l-69 -275h223c67 0 82 21 142 176h34l-54 -216h-534l10 40h109l141 568h-111zM625 925l-151 -179h-34l-61 179h28l63 -108l121 108h34z
" />
    <glyph glyph-name="ecaron" unicode="&#x11b;" horiz-adv-x="419" 
d="M400 364c0 -90 -95 -154 -302 -179c-1 -9 -1 -19 -1 -27c0 -84 37 -128 95 -128s105 36 152 102l24 -17c-48 -69 -106 -124 -190 -124c-88 0 -147 58 -147 159c0 155 143 302 264 302c68 0 105 -41 105 -88zM281 419c-85 0 -157 -107 -178 -205c189 25 236 89 236 148
c0 36 -24 57 -58 57zM463 712l-151 -179h-34l-61 179h28l63 -108l121 108h34z" />
    <glyph glyph-name="Ecircumflex" unicode="&#xca;" horiz-adv-x="628" 
d="M139 648h528l-49 -196h-34c16 147 13 156 -42 156h-232l-64 -257h112c48 0 56 10 89 99h31l-59 -238h-31c12 95 12 103 -36 103h-114l-69 -275h223c67 0 82 21 142 176h34l-54 -216h-534l10 40h109l141 568h-111zM328 737l150 179h34l62 -179h-28l-64 108l-120 -108h-34z
" />
    <glyph glyph-name="ecircumflex" unicode="&#xea;" horiz-adv-x="419" 
d="M400 364c0 -90 -95 -154 -302 -179c-1 -9 -1 -19 -1 -27c0 -84 37 -128 95 -128s105 36 152 102l24 -17c-48 -69 -106 -124 -190 -124c-88 0 -147 58 -147 159c0 155 143 302 264 302c68 0 105 -41 105 -88zM281 419c-85 0 -157 -107 -178 -205c189 25 236 89 236 148
c0 36 -24 57 -58 57zM166 524l150 179h34l62 -179h-28l-64 108l-120 -108h-34z" />
    <glyph glyph-name="Edieresis" unicode="&#xcb;" horiz-adv-x="628" 
d="M139 648h528l-49 -196h-34c16 147 13 156 -42 156h-232l-64 -257h112c48 0 56 10 89 99h31l-59 -238h-31c12 95 12 103 -36 103h-114l-69 -275h223c67 0 82 21 142 176h34l-54 -216h-534l10 40h109l141 568h-111zM429 815c0 -31 -20 -56 -46 -56c-24 0 -38 19 -38 44
c0 31 20 56 46 56c24 0 38 -19 38 -44zM595 815c0 -31 -20 -56 -46 -56c-24 0 -38 19 -38 44c0 31 20 56 46 56c24 0 38 -19 38 -44z" />
    <glyph glyph-name="edieresis" unicode="&#xeb;" horiz-adv-x="419" 
d="M400 364c0 -90 -95 -154 -302 -179c-1 -9 -1 -19 -1 -27c0 -84 37 -128 95 -128s105 36 152 102l24 -17c-48 -69 -106 -124 -190 -124c-88 0 -147 58 -147 159c0 155 143 302 264 302c68 0 105 -41 105 -88zM281 419c-85 0 -157 -107 -178 -205c189 25 236 89 236 148
c0 36 -24 57 -58 57zM266 602c0 -31 -20 -56 -46 -56c-24 0 -38 19 -38 44c0 31 20 56 46 56c24 0 38 -19 38 -44zM432 602c0 -31 -20 -56 -46 -56c-24 0 -38 19 -38 44c0 31 20 56 46 56c24 0 38 -19 38 -44z" />
    <glyph glyph-name="Edotaccent" unicode="&#x116;" horiz-adv-x="628" 
d="M139 648h528l-49 -196h-34c16 147 13 156 -42 156h-232l-64 -257h112c48 0 56 10 89 99h31l-59 -238h-31c12 95 12 103 -36 103h-114l-69 -275h223c67 0 82 21 142 176h34l-54 -216h-534l10 40h109l141 568h-111zM519 795c0 -24 -18 -56 -50 -56c-19 0 -37 13 -37 40
c0 26 17 57 49 57c22 0 38 -15 38 -41z" />
    <glyph glyph-name="edotaccent" unicode="&#x117;" horiz-adv-x="419" 
d="M400 364c0 -90 -95 -154 -302 -179c-1 -9 -1 -19 -1 -27c0 -84 37 -128 95 -128s105 36 152 102l24 -17c-48 -69 -106 -124 -190 -124c-88 0 -147 58 -147 159c0 155 143 302 264 302c68 0 105 -41 105 -88zM281 419c-85 0 -157 -107 -178 -205c189 25 236 89 236 148
c0 36 -24 57 -58 57zM357 582c0 -24 -18 -56 -50 -56c-19 0 -37 13 -37 40c0 26 17 57 49 57c22 0 38 -15 38 -41z" />
    <glyph glyph-name="Egrave" unicode="&#xc8;" horiz-adv-x="628" 
d="M139 648h528l-49 -196h-34c16 147 13 156 -42 156h-232l-64 -257h112c48 0 56 10 89 99h31l-59 -238h-31c12 95 12 103 -36 103h-114l-69 -275h223c67 0 82 21 142 176h34l-54 -216h-534l10 40h109l141 568h-111zM440 853l20 -117h-26l-37 79c-16 36 -32 61 -32 82
c0 20 14 33 32 33c27 0 35 -29 43 -77z" />
    <glyph glyph-name="egrave" unicode="&#xe8;" horiz-adv-x="419" 
d="M400 364c0 -90 -95 -154 -302 -179c-1 -9 -1 -19 -1 -27c0 -84 37 -128 95 -128s105 36 152 102l24 -17c-48 -69 -106 -124 -190 -124c-88 0 -147 58 -147 159c0 155 143 302 264 302c68 0 105 -41 105 -88zM281 419c-85 0 -157 -107 -178 -205c189 25 236 89 236 148
c0 36 -24 57 -58 57zM277 640l20 -117h-26l-37 79c-16 36 -32 61 -32 82c0 20 14 33 32 33c27 0 35 -29 43 -77z" />
    <glyph glyph-name="Emacron" unicode="&#x112;" horiz-adv-x="628" 
d="M139 648h528l-49 -196h-34c16 147 13 156 -42 156h-232l-64 -257h112c48 0 56 10 89 99h31l-59 -238h-31c12 95 12 103 -36 103h-114l-69 -275h223c67 0 82 21 142 176h34l-54 -216h-534l10 40h109l141 568h-111zM342 755l13 53h251l-13 -53h-251z" />
    <glyph glyph-name="emacron" unicode="&#x113;" horiz-adv-x="419" 
d="M400 364c0 -90 -95 -154 -302 -179c-1 -9 -1 -19 -1 -27c0 -84 37 -128 95 -128s105 36 152 102l24 -17c-48 -69 -106 -124 -190 -124c-88 0 -147 58 -147 159c0 155 143 302 264 302c68 0 105 -41 105 -88zM281 419c-85 0 -157 -107 -178 -205c189 25 236 89 236 148
c0 36 -24 57 -58 57zM180 542l13 53h251l-13 -53h-251z" />
    <glyph glyph-name="Eogonek" unicode="&#x118;" horiz-adv-x="628" 
d="M477 -201c-24 -20 -53 -32 -85 -32c-40 0 -81 24 -81 76c0 50 37 91 119 146l16 11h-466l10 40h109l141 568h-111l10 40h528l-49 -196h-34c16 147 13 156 -42 156h-232l-64 -257h112c48 0 56 10 89 99h31l-59 -238h-31c12 95 12 103 -36 103h-114l-69 -275h223
c67 0 82 21 142 176h34l-54 -216h-29l-20 -16c-80 -63 -101 -98 -101 -134c0 -27 17 -45 46 -45c22 0 41 9 55 17z" />
    <glyph glyph-name="eogonek" unicode="&#x119;" horiz-adv-x="419" 
d="M344 132l24 -17c-29 -42 -58 -73 -94 -99l-36 -26c-87 -63 -111 -103 -111 -140c0 -27 17 -45 46 -45c22 0 41 9 55 17l12 -23c-24 -20 -53 -32 -85 -32c-40 0 -81 24 -81 76c0 50 37 92 122 149c-6 -1 -14 -1 -18 -1c-88 0 -147 58 -147 159c0 155 143 302 264 302
c68 0 105 -41 105 -88c0 -90 -95 -154 -302 -179c-1 -9 -1 -19 -1 -27c0 -84 37 -128 95 -128s105 36 152 102zM281 419c-85 0 -157 -107 -178 -205c189 25 236 89 236 148c0 36 -24 57 -58 57z" />
    <glyph glyph-name="Eth" unicode="&#xd0;" horiz-adv-x="676" 
d="M-20 0l10 40h109l69 280h-109l10 40h109l62 248h-110l10 40h234c205 0 291 -102 291 -247c0 -104 -41 -210 -121 -288c-69 -68 -159 -113 -326 -113h-238zM168 40h40c117 0 204 23 268 87c74 74 115 180 115 292c0 121 -67 189 -226 189h-55l-62 -248h143l-10 -40h-143z
" />
    <glyph glyph-name="eth" unicode="&#xf0;" horiz-adv-x="475" 
d="M489 605l-103 -36c31 -64 53 -139 53 -232c0 -193 -103 -346 -246 -346c-103 0 -158 77 -158 180c0 152 110 276 227 276c71 0 105 -46 118 -86c-2 68 -14 131 -39 192l-126 -43l-11 32l123 42c-12 24 -25 48 -41 73l42 10c15 -21 29 -43 43 -67l107 37zM365 279
c0 97 -46 133 -96 133c-103 0 -170 -142 -170 -266c0 -88 44 -122 92 -122c109 0 174 146 174 255z" />
    <glyph glyph-name="Gbreve" unicode="&#x11e;" horiz-adv-x="691" 
d="M312 31c112 0 178 100 207 214l7 28h-123l12 40h282l-10 -40h-91l-70 -280h-36l1 96c-54 -71 -117 -105 -192 -105c-150 0 -227 120 -227 257c0 222 155 422 354 422c77 0 138 -27 179 -83l39 80h41l-56 -232h-35c-3 137 -72 191 -170 191c-164 0 -279 -177 -279 -389
c0 -121 58 -199 167 -199zM445 743c-70 0 -112 54 -94 143h24c2 -55 25 -89 77 -89s89 34 119 89h24c-26 -89 -80 -143 -150 -143z" />
    <glyph glyph-name="gbreve" unicode="&#x11f;" horiz-adv-x="469" 
d="M57 -108c14 -13 42 -18 68 -18c44 0 78 16 102 40c29 29 53 77 77 183l-7 3c-30 -38 -72 -79 -133 -79c-74 0 -125 60 -125 147c0 81 37 169 94 226c35 35 79 58 125 58c48 0 92 -28 106 -92l23 86h62l-86 -361c-39 -166 -115 -245 -235 -245c-52 0 -135 18 -135 83
c0 30 20 58 49 58c25 0 40 -18 40 -41c0 -17 -9 -36 -25 -48zM189 65c89 0 160 125 160 243c0 54 -32 107 -88 107c-89 0 -157 -139 -157 -237c0 -76 34 -113 85 -113zM296 530c-70 0 -112 54 -94 143h24c2 -55 25 -89 77 -89s89 34 119 89h24c-26 -89 -80 -143 -150 -143z
" />
    <glyph glyph-name="Gcommaaccent" unicode="&#x122;" horiz-adv-x="691" 
d="M312 31c112 0 178 100 207 214l7 28h-123l12 40h282l-10 -40h-91l-70 -280h-36l1 96c-54 -71 -117 -105 -192 -105c-150 0 -227 120 -227 257c0 222 155 422 354 422c77 0 138 -27 179 -83l39 80h41l-56 -232h-35c-3 137 -72 191 -170 191c-164 0 -279 -177 -279 -389
c0 -121 58 -199 167 -199zM159 -275l-10 27c60 23 84 54 93 83l-2 2c-6 -3 -12 -4 -17 -4c-20 0 -35 12 -35 37c0 24 17 53 49 53c31 0 47 -24 47 -57c0 -49 -37 -112 -125 -141z" />
    <glyph glyph-name="gcommaaccent" unicode="&#x123;" horiz-adv-x="469" 
d="M57 -108c14 -13 42 -18 68 -18c44 0 78 16 102 40c29 29 53 77 77 183l-7 3c-30 -38 -72 -79 -133 -79c-74 0 -125 60 -125 147c0 81 37 169 94 226c35 35 79 58 125 58c48 0 92 -28 106 -92l23 86h62l-86 -361c-39 -166 -115 -245 -235 -245c-52 0 -135 18 -135 83
c0 30 20 58 49 58c25 0 40 -18 40 -41c0 -17 -9 -36 -25 -48zM189 65c89 0 160 125 160 243c0 54 -32 107 -88 107c-89 0 -157 -139 -157 -237c0 -76 34 -113 85 -113zM387 724l10 -27c-60 -23 -84 -54 -93 -83l2 -2c6 3 12 4 17 4c20 0 35 -12 35 -37
c0 -24 -17 -53 -49 -53c-31 0 -47 24 -47 57c0 49 37 112 125 141z" />
    <glyph glyph-name="Gdotaccent" unicode="&#x120;" horiz-adv-x="691" 
d="M312 31c112 0 178 100 207 214l7 28h-123l12 40h282l-10 -40h-91l-70 -280h-36l1 96c-54 -71 -117 -105 -192 -105c-150 0 -227 120 -227 257c0 222 155 422 354 422c77 0 138 -27 179 -83l39 80h41l-56 -232h-35c-3 137 -72 191 -170 191c-164 0 -279 -177 -279 -389
c0 -121 58 -199 167 -199zM500 795c0 -24 -18 -56 -50 -56c-19 0 -37 13 -37 40c0 26 17 57 49 57c22 0 38 -15 38 -41z" />
    <glyph glyph-name="gdotaccent" unicode="&#x121;" horiz-adv-x="469" 
d="M57 -108c14 -13 42 -18 68 -18c44 0 78 16 102 40c29 29 53 77 77 183l-7 3c-30 -38 -72 -79 -133 -79c-74 0 -125 60 -125 147c0 81 37 169 94 226c35 35 79 58 125 58c48 0 92 -28 106 -92l23 86h62l-86 -361c-39 -166 -115 -245 -235 -245c-52 0 -135 18 -135 83
c0 30 20 58 49 58c25 0 40 -18 40 -41c0 -17 -9 -36 -25 -48zM189 65c89 0 160 125 160 243c0 54 -32 107 -88 107c-89 0 -157 -139 -157 -237c0 -76 34 -113 85 -113zM351 582c0 -24 -18 -56 -50 -56c-19 0 -37 13 -37 40c0 26 17 57 49 57c22 0 38 -15 38 -41z" />
    <glyph glyph-name="Hbar" unicode="&#x126;" horiz-adv-x="746" 
d="M93 458l9 36h110l28 114h-111l10 40h277l-10 -40h-96l-29 -114h318l29 114h-98l10 40h277l-10 -40h-109l-28 -114h108l-9 -36h-108l-104 -418h111l-10 -40h-277l10 40h96l66 266h-318l-66 -266h98l-10 -40h-277l10 40h109l104 418h-110zM244 344h318l28 114h-318z" />
    <glyph glyph-name="hbar" unicode="&#x127;" horiz-adv-x="514" 
d="M368 -9c-37 0 -67 30 -66 86c1 82 75 193 75 278c0 19 -8 45 -42 45c-63 0 -170 -113 -248 -400h-67l136 515h-78l9 34h78l26 99h-95l10 39h158l-38 -138h124l-9 -34h-124l-72 -266l7 -3c65 133 140 206 208 206c47 0 82 -34 82 -96c0 -87 -78 -218 -78 -289
c0 -11 3 -28 22 -28c25 0 53 44 80 118l27 -9c-45 -125 -83 -157 -125 -157z" />
    <glyph glyph-name="Iacute" unicode="&#xcd;" horiz-adv-x="366" 
d="M-16 0l10 40h109l141 568h-111l10 40h290l-10 -40h-109l-141 -568h111l-10 -40h-290zM407 821l-92 -85h-32l80 118c39 58 53 76 75 76c17 0 30 -13 30 -30c0 -26 -22 -43 -61 -79z" />
    <glyph glyph-name="iacute" unicode="&#xed;" horiz-adv-x="306" 
d="M227 364c0 -89 -88 -230 -88 -297c0 -11 5 -28 24 -28c29 0 54 44 81 118l27 -9c-45 -125 -84 -157 -124 -157c-43 0 -71 30 -70 83c1 85 90 216 90 305c0 10 -3 31 -22 31c-31 0 -63 -54 -96 -117l-26 12c42 87 80 147 135 147c43 0 69 -33 69 -88zM296 608l-92 -85h-32
l80 118c39 58 53 76 75 76c17 0 30 -13 30 -30c0 -26 -22 -43 -61 -79z" />
    <glyph glyph-name="Ibreve" unicode="&#x12c;" horiz-adv-x="366" 
d="M-16 0l10 40h109l141 568h-111l10 40h290l-10 -40h-109l-141 -568h111l-10 -40h-290zM313 743c-70 0 -112 54 -94 143h24c2 -55 25 -89 77 -89s89 34 119 89h24c-26 -89 -80 -143 -150 -143z" />
    <glyph glyph-name="ibreve" unicode="&#x12d;" horiz-adv-x="306" 
d="M227 364c0 -89 -88 -230 -88 -297c0 -11 5 -28 24 -28c29 0 54 44 81 118l27 -9c-45 -125 -84 -157 -124 -157c-43 0 -71 30 -70 83c1 85 90 216 90 305c0 10 -3 31 -22 31c-31 0 -63 -54 -96 -117l-26 12c42 87 80 147 135 147c43 0 69 -33 69 -88zM203 530
c-70 0 -112 54 -94 143h24c2 -55 25 -89 77 -89s89 34 119 89h24c-26 -89 -80 -143 -150 -143z" />
    <glyph glyph-name="Icircumflex" unicode="&#xce;" horiz-adv-x="366" 
d="M-16 0l10 40h109l141 568h-111l10 40h290l-10 -40h-109l-141 -568h111l-10 -40h-290zM176 737l150 179h34l62 -179h-28l-64 108l-120 -108h-34z" />
    <glyph glyph-name="icircumflex" unicode="&#xee;" horiz-adv-x="306" 
d="M227 364c0 -89 -88 -230 -88 -297c0 -11 5 -28 24 -28c29 0 54 44 81 118l27 -9c-45 -125 -84 -157 -124 -157c-43 0 -71 30 -70 83c1 85 90 216 90 305c0 10 -3 31 -22 31c-31 0 -63 -54 -96 -117l-26 12c42 87 80 147 135 147c43 0 69 -33 69 -88zM66 524l150 179h34
l62 -179h-28l-64 108l-120 -108h-34z" />
    <glyph glyph-name="Idieresis" unicode="&#xcf;" horiz-adv-x="366" 
d="M-16 0l10 40h109l141 568h-111l10 40h290l-10 -40h-109l-141 -568h111l-10 -40h-290zM277 815c0 -31 -20 -56 -46 -56c-24 0 -38 19 -38 44c0 31 20 56 46 56c24 0 38 -19 38 -44zM443 815c0 -31 -20 -56 -46 -56c-24 0 -38 19 -38 44c0 31 20 56 46 56
c24 0 38 -19 38 -44z" />
    <glyph glyph-name="idieresis" unicode="&#xef;" horiz-adv-x="306" 
d="M227 364c0 -89 -88 -230 -88 -297c0 -11 5 -28 24 -28c29 0 54 44 81 118l27 -9c-45 -125 -84 -157 -124 -157c-43 0 -71 30 -70 83c1 85 90 216 90 305c0 10 -3 31 -22 31c-31 0 -63 -54 -96 -117l-26 12c42 87 80 147 135 147c43 0 69 -33 69 -88zM166 602
c0 -31 -20 -56 -46 -56c-24 0 -38 19 -38 44c0 31 20 56 46 56c24 0 38 -19 38 -44zM332 602c0 -31 -20 -56 -46 -56c-24 0 -38 19 -38 44c0 31 20 56 46 56c24 0 38 -19 38 -44z" />
    <glyph glyph-name="Idotaccent" unicode="&#x130;" horiz-adv-x="366" 
d="M-16 0l10 40h109l141 568h-111l10 40h290l-10 -40h-109l-141 -568h111l-10 -40h-290zM367 795c0 -24 -18 -56 -50 -56c-19 0 -37 13 -37 40c0 26 17 57 49 57c22 0 38 -15 38 -41z" />
    <glyph glyph-name="dotlessi" unicode="&#x131;" horiz-adv-x="306" 
d="M227 364c0 -89 -88 -230 -88 -297c0 -11 5 -28 24 -28c29 0 54 44 81 118l27 -9c-45 -125 -84 -157 -124 -157c-43 0 -71 30 -70 83c1 85 90 216 90 305c0 10 -3 31 -22 31c-31 0 -63 -54 -96 -117l-26 12c42 87 80 147 135 147c43 0 69 -33 69 -88z" />
    <glyph glyph-name="Igrave" unicode="&#xcc;" horiz-adv-x="366" 
d="M-16 0l10 40h109l141 568h-111l10 40h290l-10 -40h-109l-141 -568h111l-10 -40h-290zM288 853l20 -117h-26l-37 79c-16 36 -32 61 -32 82c0 20 14 33 32 33c27 0 35 -29 43 -77z" />
    <glyph glyph-name="igrave" unicode="&#xec;" horiz-adv-x="306" 
d="M227 364c0 -89 -88 -230 -88 -297c0 -11 5 -28 24 -28c29 0 54 44 81 118l27 -9c-45 -125 -84 -157 -124 -157c-43 0 -71 30 -70 83c1 85 90 216 90 305c0 10 -3 31 -22 31c-31 0 -63 -54 -96 -117l-26 12c42 87 80 147 135 147c43 0 69 -33 69 -88zM177 640l20 -117h-26
l-37 79c-16 36 -32 61 -32 82c0 20 14 33 32 33c27 0 35 -29 43 -77z" />
    <glyph glyph-name="Imacron" unicode="&#x12a;" horiz-adv-x="366" 
d="M-16 0l10 40h109l141 568h-111l10 40h290l-10 -40h-109l-141 -568h111l-10 -40h-290zM190 755l13 53h251l-13 -53h-251z" />
    <glyph glyph-name="imacron" unicode="&#x12b;" horiz-adv-x="306" 
d="M227 364c0 -89 -88 -230 -88 -297c0 -11 5 -28 24 -28c29 0 54 44 81 118l27 -9c-45 -125 -84 -157 -124 -157c-43 0 -71 30 -70 83c1 85 90 216 90 305c0 10 -3 31 -22 31c-31 0 -63 -54 -96 -117l-26 12c42 87 80 147 135 147c43 0 69 -33 69 -88zM80 542l13 53h251
l-13 -53h-251z" />
    <glyph glyph-name="Iogonek" unicode="&#x12e;" horiz-adv-x="366" 
d="M-16 0l10 40h109l141 568h-111l10 40h290l-10 -40h-109l-141 -568h111l-10 -40h-103l-20 -16c-80 -63 -101 -98 -101 -134c0 -27 17 -45 46 -45c22 0 41 9 55 17l12 -23c-24 -20 -53 -32 -85 -32c-40 0 -81 24 -81 76c0 50 37 91 119 146l16 11h-148z" />
    <glyph glyph-name="iogonek" unicode="&#x12f;" horiz-adv-x="306" 
d="M244 157l27 -9c-13 -35 -39 -111 -88 -151c-58 -47 -116 -91 -116 -147c0 -27 17 -45 46 -45c22 0 41 9 55 17l12 -23c-24 -20 -53 -32 -85 -32c-40 0 -81 24 -81 76c0 50 37 91 119 149c-35 6 -57 35 -56 82c1 85 90 216 90 305c0 10 -3 31 -22 31
c-31 0 -63 -54 -96 -117l-26 12c42 87 80 147 135 147c43 0 69 -33 69 -88c0 -89 -88 -230 -88 -297c0 -11 5 -28 24 -28c29 0 54 44 81 118zM279 597c0 -25 -19 -58 -52 -58c-20 0 -39 14 -39 42c0 27 18 59 51 59c23 0 40 -16 40 -43z" />
    <glyph glyph-name="Kcommaaccent" unicode="&#x136;" horiz-adv-x="702" 
d="M690 608l-287 -232l159 -336h83l-10 -40h-259l10 40h94l-133 292l-132 -108l-46 -184h98l-10 -40h-277l10 40h109l141 568h-111l10 40h277l-10 -40h-96l-79 -321l390 321h-90l10 40h241l-10 -40h-82zM203 -275l-10 27c60 23 84 54 93 83l-2 2c-6 -3 -12 -4 -17 -4
c-20 0 -35 12 -35 37c0 24 17 53 49 53c31 0 47 -24 47 -57c0 -49 -37 -112 -125 -141z" />
    <glyph glyph-name="kcommaaccent" unicode="&#x137;" horiz-adv-x="472" 
d="M314 75c0 -19 4 -36 23 -36c25 0 53 44 80 118l27 -9c-45 -125 -83 -157 -125 -157c-37 0 -68 30 -67 86c1 34 9 74 9 94c0 38 -14 55 -84 55h-36l-60 -226h-61l171 648h-95l10 39h158l-116 -432h22c50 0 82 28 122 97c37 64 65 100 111 100c39 0 59 -21 59 -52
c0 -34 -21 -58 -47 -58c-30 0 -46 34 -28 69c-26 -2 -46 -32 -71 -75c-30 -51 -58 -77 -89 -90c74 -5 95 -39 95 -77c0 -34 -8 -62 -8 -94zM65 -275l-10 27c60 23 84 54 93 83l-2 2c-6 -3 -12 -4 -17 -4c-20 0 -35 12 -35 37c0 24 17 53 49 53c31 0 47 -24 47 -57
c0 -49 -37 -112 -125 -141z" />
    <glyph glyph-name="Lacute" unicode="&#x139;" horiz-adv-x="589" 
d="M139 648h277l-10 -40h-96l-141 -568h214c67 0 76 30 132 180h34l-55 -220h-514l10 40h109l141 568h-111zM411 821l-92 -85h-32l80 118c39 58 53 76 75 76c17 0 30 -13 30 -30c0 -26 -22 -43 -61 -79z" />
    <glyph glyph-name="lacute" unicode="&#x13a;" horiz-adv-x="250" 
d="M35 72c0 22 4 46 18 97l129 479h-95l10 39h158l-140 -518c-14 -51 -18 -75 -18 -96c0 -11 2 -34 25 -34c29 0 53 44 80 118l27 -9c-45 -125 -81 -157 -124 -157s-70 30 -70 81zM315 852l-92 -85h-32l80 118c39 58 53 76 75 76c17 0 30 -13 30 -30c0 -26 -22 -43 -61 -79z
" />
    <glyph glyph-name="Lcaron" unicode="&#x13d;" horiz-adv-x="589" 
d="M139 648h277l-10 -40h-96l-141 -568h214c67 0 76 30 132 180h34l-55 -220h-514l10 40h109l141 568h-111zM529 608l-55 -108h-26l38 156c11 46 26 56 43 56c14 0 28 -10 28 -30c0 -17 -11 -41 -28 -74z" />
    <glyph glyph-name="lcaron" unicode="&#x13e;" horiz-adv-x="250" 
d="M35 72c0 22 4 46 18 97l129 479h-95l10 39h158l-140 -518c-14 -51 -18 -75 -18 -96c0 -11 2 -34 25 -34c29 0 53 44 80 118l27 -9c-45 -125 -81 -157 -124 -157s-70 30 -70 81zM369 647l-55 -108h-26l38 156c11 46 26 56 43 56c14 0 28 -10 28 -30c0 -17 -11 -41 -28 -74
z" />
    <glyph glyph-name="Lcommaaccent" unicode="&#x13b;" horiz-adv-x="589" 
d="M139 648h277l-10 -40h-96l-141 -568h214c67 0 76 30 132 180h34l-55 -220h-514l10 40h109l141 568h-111zM178 -275l-10 27c60 23 84 54 93 83l-2 2c-6 -3 -12 -4 -17 -4c-20 0 -35 12 -35 37c0 24 17 53 49 53c31 0 47 -24 47 -57c0 -49 -37 -112 -125 -141z" />
    <glyph glyph-name="lcommaaccent" unicode="&#x13c;" horiz-adv-x="250" 
d="M35 72c0 22 4 46 18 97l129 479h-95l10 39h158l-140 -518c-14 -51 -18 -75 -18 -96c0 -11 2 -34 25 -34c29 0 53 44 80 118l27 -9c-45 -125 -81 -157 -124 -157s-70 30 -70 81zM-7 -275l-10 27c60 23 84 54 93 83l-2 2c-6 -3 -12 -4 -17 -4c-20 0 -35 12 -35 37
c0 24 17 53 49 53c31 0 47 -24 47 -57c0 -49 -37 -112 -125 -141z" />
    <glyph glyph-name="Ldot" unicode="&#x13f;" horiz-adv-x="589" 
d="M139 648h277l-10 -40h-96l-141 -568h214c67 0 76 30 132 180h34l-55 -220h-514l10 40h109l141 568h-111zM478 308c-19 0 -37 13 -37 40c0 26 17 57 49 57c22 0 38 -15 38 -41c0 -24 -18 -56 -50 -56z" />
    <glyph glyph-name="ldot" unicode="&#x140;" horiz-adv-x="355" 
d="M354 357c0 -24 -18 -56 -50 -56c-19 0 -37 13 -37 40c0 26 17 57 49 57c22 0 38 -15 38 -41zM35 72c0 22 4 46 18 97l129 479h-95l10 39h158l-140 -518c-14 -51 -18 -75 -18 -96c0 -11 2 -34 25 -34c29 0 53 44 80 118l27 -9c-45 -125 -81 -157 -124 -157s-70 30 -70 81z
" />
    <glyph glyph-name="Lslash" unicode="&#x141;" horiz-adv-x="589" 
d="M139 648h277l-10 -40h-96l-63 -254l192 59l-10 -40l-192 -60l-68 -273h214c67 0 76 30 132 180h34l-55 -220h-514l10 40h109l62 250l-93 -29l10 42l93 28l69 277h-111z" />
    <glyph glyph-name="lslash" unicode="&#x142;" horiz-adv-x="290" 
d="M55 72c0 22 4 46 18 97l39 145l-85 -26l9 38l86 27l80 295h-95l10 39h158l-85 -313l100 31l-9 -38l-101 -32l-45 -166c-14 -51 -18 -75 -18 -96c0 -11 2 -34 25 -34c29 0 53 44 80 118l27 -9c-45 -125 -81 -157 -124 -157s-70 30 -70 81z" />
    <glyph glyph-name="Nacute" unicode="&#x143;" horiz-adv-x="733" 
d="M520 -16l-247 585h-2l-131 -529h92l-10 -40h-242l10 40h104l141 568h-106l10 40h173l226 -531h2l121 491h-94l10 40h237l-10 -40h-97l-155 -624h-32zM581 821l-92 -85h-32l80 118c39 58 53 76 75 76c17 0 30 -13 30 -30c0 -26 -22 -43 -61 -79z" />
    <glyph glyph-name="nacute" unicode="&#x144;" horiz-adv-x="547" 
d="M397 67c0 -11 3 -28 22 -28c25 0 53 44 80 118l27 -9c-45 -125 -83 -157 -125 -157c-37 0 -67 30 -66 86c1 82 75 193 75 278c0 19 -8 45 -42 45c-63 0 -161 -113 -239 -400h-67l82 306c25 93 9 104 -8 104c-29 0 -56 -53 -89 -117l-26 12c41 91 78 145 128 145
c39 0 58 -29 58 -74c0 -40 -13 -91 -22 -123l7 -3c65 133 133 202 201 202c47 0 82 -34 82 -96c0 -87 -78 -218 -78 -289zM431 608l-92 -85h-32l80 118c39 58 53 76 75 76c17 0 30 -13 30 -30c0 -26 -22 -43 -61 -79z" />
    <glyph glyph-name="Ncaron" unicode="&#x147;" horiz-adv-x="733" 
d="M520 -16l-247 585h-2l-131 -529h92l-10 -40h-242l10 40h104l141 568h-106l10 40h173l226 -531h2l121 491h-94l10 40h237l-10 -40h-97l-155 -624h-32zM647 925l-151 -179h-34l-61 179h28l63 -108l121 108h34z" />
    <glyph glyph-name="ncaron" unicode="&#x148;" horiz-adv-x="547" 
d="M397 67c0 -11 3 -28 22 -28c25 0 53 44 80 118l27 -9c-45 -125 -83 -157 -125 -157c-37 0 -67 30 -66 86c1 82 75 193 75 278c0 19 -8 45 -42 45c-63 0 -161 -113 -239 -400h-67l82 306c25 93 9 104 -8 104c-29 0 -56 -53 -89 -117l-26 12c41 91 78 145 128 145
c39 0 58 -29 58 -74c0 -40 -13 -91 -22 -123l7 -3c65 133 133 202 201 202c47 0 82 -34 82 -96c0 -87 -78 -218 -78 -289zM498 712l-151 -179h-34l-61 179h28l63 -108l121 108h34z" />
    <glyph glyph-name="Ncommaaccent" unicode="&#x145;" horiz-adv-x="733" 
d="M520 -16l-247 585h-2l-131 -529h92l-10 -40h-242l10 40h104l141 568h-106l10 40h173l226 -531h2l121 491h-94l10 40h237l-10 -40h-97l-155 -624h-32zM200 -275l-10 27c60 23 84 54 93 83l-2 2c-6 -3 -12 -4 -17 -4c-20 0 -35 12 -35 37c0 24 17 53 49 53
c31 0 47 -24 47 -57c0 -49 -37 -112 -125 -141z" />
    <glyph glyph-name="ncommaaccent" unicode="&#x146;" horiz-adv-x="547" 
d="M397 67c0 -11 3 -28 22 -28c25 0 53 44 80 118l27 -9c-45 -125 -83 -157 -125 -157c-37 0 -67 30 -66 86c1 82 75 193 75 278c0 19 -8 45 -42 45c-63 0 -161 -113 -239 -400h-67l82 306c25 93 9 104 -8 104c-29 0 -56 -53 -89 -117l-26 12c41 91 78 145 128 145
c39 0 58 -29 58 -74c0 -40 -13 -91 -22 -123l7 -3c65 133 133 202 201 202c47 0 82 -34 82 -96c0 -87 -78 -218 -78 -289zM134 -275l-10 27c60 23 84 54 93 83l-2 2c-6 -3 -12 -4 -17 -4c-20 0 -35 12 -35 37c0 24 17 53 49 53c31 0 47 -24 47 -57c0 -49 -37 -112 -125 -141
z" />
    <glyph glyph-name="Ntilde" unicode="&#xd1;" horiz-adv-x="733" 
d="M520 -16l-247 585h-2l-131 -529h92l-10 -40h-242l10 40h104l141 568h-106l10 40h173l226 -531h2l121 491h-94l10 40h237l-10 -40h-97l-155 -624h-32zM438 811c-29 0 -45 -28 -60 -69h-30c28 92 55 122 97 122c52 0 84 -66 121 -66c29 0 45 28 60 69h30
c-28 -92 -55 -122 -97 -122c-52 0 -84 66 -121 66z" />
    <glyph glyph-name="ntilde" unicode="&#xf1;" horiz-adv-x="547" 
d="M397 67c0 -11 3 -28 22 -28c25 0 53 44 80 118l27 -9c-45 -125 -83 -157 -125 -157c-37 0 -67 30 -66 86c1 82 75 193 75 278c0 19 -8 45 -42 45c-63 0 -161 -113 -239 -400h-67l82 306c25 93 9 104 -8 104c-29 0 -56 -53 -89 -117l-26 12c41 91 78 145 128 145
c39 0 58 -29 58 -74c0 -40 -13 -91 -22 -123l7 -3c65 133 133 202 201 202c47 0 82 -34 82 -96c0 -87 -78 -218 -78 -289zM288 598c-29 0 -45 -28 -60 -69h-30c28 92 55 122 97 122c52 0 84 -66 121 -66c29 0 45 28 60 69h30c-28 -92 -55 -122 -97 -122
c-52 0 -84 66 -121 66z" />
    <glyph glyph-name="Oacute" unicode="&#xd3;" horiz-adv-x="685" 
d="M74 256c0 205 145 406 343 406c146 0 246 -109 246 -272c0 -205 -145 -406 -343 -406c-146 0 -246 109 -246 272zM415 620c-187 0 -269 -227 -269 -375c0 -158 79 -219 176 -219c187 0 269 227 269 374c0 159 -79 220 -176 220zM554 821l-92 -85h-32l80 118
c39 58 53 76 75 76c17 0 30 -13 30 -30c0 -26 -22 -43 -61 -79z" />
    <glyph glyph-name="oacute" unicode="&#xf3;" horiz-adv-x="459" 
d="M267 452c102 0 157 -77 157 -180c0 -148 -106 -281 -231 -281c-103 0 -158 77 -158 180c0 148 107 281 232 281zM360 297c0 88 -44 122 -92 122c-107 0 -169 -161 -169 -273c0 -88 44 -122 92 -122c107 0 169 161 169 273zM401 608l-92 -85h-32l80 118c39 58 53 76 75 76
c17 0 30 -13 30 -30c0 -26 -22 -43 -61 -79z" />
    <glyph glyph-name="Obreve" unicode="&#x14e;" horiz-adv-x="685" 
d="M74 256c0 205 145 406 343 406c146 0 246 -109 246 -272c0 -205 -145 -406 -343 -406c-146 0 -246 109 -246 272zM415 620c-187 0 -269 -227 -269 -375c0 -158 79 -219 176 -219c187 0 269 227 269 374c0 159 -79 220 -176 220zM460 743c-70 0 -112 54 -94 143h24
c2 -55 25 -89 77 -89s89 34 119 89h24c-26 -89 -80 -143 -150 -143z" />
    <glyph glyph-name="obreve" unicode="&#x14f;" horiz-adv-x="459" 
d="M267 452c102 0 157 -77 157 -180c0 -148 -106 -281 -231 -281c-103 0 -158 77 -158 180c0 148 107 281 232 281zM360 297c0 88 -44 122 -92 122c-107 0 -169 -161 -169 -273c0 -88 44 -122 92 -122c107 0 169 161 169 273zM308 530c-70 0 -112 54 -94 143h24
c2 -55 25 -89 77 -89s89 34 119 89h24c-26 -89 -80 -143 -150 -143z" />
    <glyph glyph-name="Ocircumflex" unicode="&#xd4;" horiz-adv-x="685" 
d="M74 256c0 205 145 406 343 406c146 0 246 -109 246 -272c0 -205 -145 -406 -343 -406c-146 0 -246 109 -246 272zM415 620c-187 0 -269 -227 -269 -375c0 -158 79 -219 176 -219c187 0 269 227 269 374c0 159 -79 220 -176 220zM323 737l150 179h34l62 -179h-28l-64 108
l-120 -108h-34z" />
    <glyph glyph-name="ocircumflex" unicode="&#xf4;" horiz-adv-x="459" 
d="M267 452c102 0 157 -77 157 -180c0 -148 -106 -281 -231 -281c-103 0 -158 77 -158 180c0 148 107 281 232 281zM360 297c0 88 -44 122 -92 122c-107 0 -169 -161 -169 -273c0 -88 44 -122 92 -122c107 0 169 161 169 273zM171 524l150 179h34l62 -179h-28l-64 108
l-120 -108h-34z" />
    <glyph glyph-name="Odieresis" unicode="&#xd6;" horiz-adv-x="685" 
d="M74 256c0 205 145 406 343 406c146 0 246 -109 246 -272c0 -205 -145 -406 -343 -406c-146 0 -246 109 -246 272zM415 620c-187 0 -269 -227 -269 -375c0 -158 79 -219 176 -219c187 0 269 227 269 374c0 159 -79 220 -176 220zM424 815c0 -31 -20 -56 -46 -56
c-24 0 -38 19 -38 44c0 31 20 56 46 56c24 0 38 -19 38 -44zM590 815c0 -31 -20 -56 -46 -56c-24 0 -38 19 -38 44c0 31 20 56 46 56c24 0 38 -19 38 -44z" />
    <glyph glyph-name="odieresis" unicode="&#xf6;" horiz-adv-x="459" 
d="M267 452c102 0 157 -77 157 -180c0 -148 -106 -281 -231 -281c-103 0 -158 77 -158 180c0 148 107 281 232 281zM360 297c0 88 -44 122 -92 122c-107 0 -169 -161 -169 -273c0 -88 44 -122 92 -122c107 0 169 161 169 273zM271 602c0 -31 -20 -56 -46 -56
c-24 0 -38 19 -38 44c0 31 20 56 46 56c24 0 38 -19 38 -44zM437 602c0 -31 -20 -56 -46 -56c-24 0 -38 19 -38 44c0 31 20 56 46 56c24 0 38 -19 38 -44z" />
    <glyph glyph-name="OE" unicode="&#x152;" horiz-adv-x="967" 
d="M518 648h477l-49 -196h-34c16 147 13 156 -42 156h-232l-64 -257h112c48 0 56 10 89 99h31l-59 -238h-31c12 95 12 103 -36 103h-114l-69 -275h223c67 0 82 21 142 176h34l-54 -216h-480c-205 0 -291 102 -291 247c0 104 41 210 121 288c69 68 159 113 326 113zM568 608
h-40c-117 0 -204 -23 -268 -87c-74 -74 -115 -180 -115 -292c0 -121 67 -189 226 -189h55z" />
    <glyph glyph-name="oe" unicode="&#x153;" horiz-adv-x="728" 
d="M653 132l24 -17c-48 -69 -106 -124 -190 -124c-68 0 -116 39 -130 98c-38 -60 -98 -98 -164 -98c-103 0 -158 77 -158 180c0 148 107 281 232 281c82 0 127 -50 145 -117c46 67 121 117 192 117c68 0 105 -41 105 -88c0 -90 -95 -154 -302 -179c-1 -9 -1 -19 -1 -27
c0 -84 37 -128 95 -128s105 36 152 102zM360 297c0 88 -44 122 -92 122c-107 0 -169 -161 -169 -273c0 -88 44 -122 92 -122c107 0 169 161 169 273zM590 419c-85 0 -157 -107 -178 -205c189 25 236 89 236 148c0 36 -24 57 -58 57z" />
    <glyph glyph-name="Ograve" unicode="&#xd2;" horiz-adv-x="685" 
d="M74 256c0 205 145 406 343 406c146 0 246 -109 246 -272c0 -205 -145 -406 -343 -406c-146 0 -246 109 -246 272zM415 620c-187 0 -269 -227 -269 -375c0 -158 79 -219 176 -219c187 0 269 227 269 374c0 159 -79 220 -176 220zM435 853l20 -117h-26l-37 79
c-16 36 -32 61 -32 82c0 20 14 33 32 33c27 0 35 -29 43 -77z" />
    <glyph glyph-name="ograve" unicode="&#xf2;" horiz-adv-x="459" 
d="M267 452c102 0 157 -77 157 -180c0 -148 -106 -281 -231 -281c-103 0 -158 77 -158 180c0 148 107 281 232 281zM360 297c0 88 -44 122 -92 122c-107 0 -169 -161 -169 -273c0 -88 44 -122 92 -122c107 0 169 161 169 273zM282 640l20 -117h-26l-37 79
c-16 36 -32 61 -32 82c0 20 14 33 32 33c27 0 35 -29 43 -77z" />
    <glyph glyph-name="Ohungarumlaut" unicode="&#x150;" horiz-adv-x="685" 
d="M74 256c0 205 145 406 343 406c146 0 246 -109 246 -272c0 -205 -145 -406 -343 -406c-146 0 -246 109 -246 272zM415 620c-187 0 -269 -227 -269 -375c0 -158 79 -219 176 -219c187 0 269 227 269 374c0 159 -79 220 -176 220zM485 821l-90 -85h-32l78 118
c38 59 49 76 71 76c18 0 30 -13 30 -30c0 -26 -19 -43 -57 -79zM633 821l-90 -85h-32l78 118c38 59 49 76 71 76c18 0 30 -13 30 -30c0 -26 -19 -43 -57 -79z" />
    <glyph glyph-name="ohungarumlaut" unicode="&#x151;" horiz-adv-x="459" 
d="M267 452c102 0 157 -77 157 -180c0 -148 -106 -281 -231 -281c-103 0 -158 77 -158 180c0 148 107 281 232 281zM360 297c0 88 -44 122 -92 122c-107 0 -169 -161 -169 -273c0 -88 44 -122 92 -122c107 0 169 161 169 273zM332 608l-90 -85h-32l78 118c38 59 49 76 71 76
c18 0 30 -13 30 -30c0 -26 -19 -43 -57 -79zM480 608l-90 -85h-32l78 118c38 59 49 76 71 76c18 0 30 -13 30 -30c0 -26 -19 -43 -57 -79z" />
    <glyph glyph-name="Omacron" unicode="&#x14c;" horiz-adv-x="685" 
d="M74 256c0 205 145 406 343 406c146 0 246 -109 246 -272c0 -205 -145 -406 -343 -406c-146 0 -246 109 -246 272zM415 620c-187 0 -269 -227 -269 -375c0 -158 79 -219 176 -219c187 0 269 227 269 374c0 159 -79 220 -176 220zM337 755l13 53h251l-13 -53h-251z" />
    <glyph glyph-name="omacron" unicode="&#x14d;" horiz-adv-x="459" 
d="M267 452c102 0 157 -77 157 -180c0 -148 -106 -281 -231 -281c-103 0 -158 77 -158 180c0 148 107 281 232 281zM360 297c0 88 -44 122 -92 122c-107 0 -169 -161 -169 -273c0 -88 44 -122 92 -122c107 0 169 161 169 273zM185 542l13 53h251l-13 -53h-251z" />
    <glyph glyph-name="Oslash" unicode="&#xd8;" horiz-adv-x="685" 
d="M74 256c0 205 145 406 343 406c74 0 136 -29 180 -78l97 101l29 -25l-103 -107c27 -44 43 -99 43 -163c0 -205 -145 -406 -343 -406c-75 0 -137 28 -180 77l-97 -100l-29 25l103 107c-28 44 -43 99 -43 163zM591 400c0 44 -6 80 -17 110l-396 -408c32 -54 85 -76 144 -76
c187 0 269 227 269 374zM415 620c-187 0 -269 -227 -269 -375c0 -44 5 -80 16 -110l396 409c-32 53 -84 76 -143 76z" />
    <glyph glyph-name="oslash" unicode="&#xf8;" horiz-adv-x="459" 
d="M14 -39l-24 23l71 79c-17 29 -26 67 -26 108c0 148 107 281 232 281c47 0 84 -17 110 -45l68 75l24 -23l-71 -79c17 -30 26 -67 26 -108c0 -148 -106 -281 -231 -281c-48 0 -85 16 -112 44zM99 146c0 -15 1 -28 3 -40l243 265c-17 34 -46 48 -77 48
c-107 0 -169 -161 -169 -273zM360 297c0 15 -1 28 -4 40l-242 -266c17 -33 46 -47 77 -47c107 0 169 161 169 273z" />
    <glyph glyph-name="Oslashacute" unicode="&#x1fe;" horiz-adv-x="685" 
d="M74 256c0 205 145 406 343 406c74 0 136 -29 180 -78l97 101l29 -25l-103 -107c27 -44 43 -99 43 -163c0 -205 -145 -406 -343 -406c-75 0 -137 28 -180 77l-97 -100l-29 25l103 107c-28 44 -43 99 -43 163zM591 400c0 44 -6 80 -17 110l-396 -408c32 -54 85 -76 144 -76
c187 0 269 227 269 374zM415 620c-187 0 -269 -227 -269 -375c0 -44 5 -80 16 -110l396 409c-32 53 -84 76 -143 76zM554 821l-92 -85h-32l80 118c39 58 53 76 75 76c17 0 30 -13 30 -30c0 -26 -22 -43 -61 -79z" />
    <glyph glyph-name="oslashacute" unicode="&#x1ff;" horiz-adv-x="459" 
d="M14 -39l-24 23l71 79c-17 29 -26 67 -26 108c0 148 107 281 232 281c47 0 84 -17 110 -45l68 75l24 -23l-71 -79c17 -30 26 -67 26 -108c0 -148 -106 -281 -231 -281c-48 0 -85 16 -112 44zM360 297c0 15 -1 28 -4 40l-242 -266c17 -33 46 -47 77 -47
c107 0 169 161 169 273zM99 146c0 -15 1 -28 3 -40l243 265c-17 34 -46 48 -77 48c-107 0 -169 -161 -169 -273zM401 608l-92 -85h-32l80 118c39 58 53 76 75 76c17 0 30 -13 30 -30c0 -26 -22 -43 -61 -79z" />
    <glyph glyph-name="Otilde" unicode="&#xd5;" horiz-adv-x="685" 
d="M74 256c0 205 145 406 343 406c146 0 246 -109 246 -272c0 -205 -145 -406 -343 -406c-146 0 -246 109 -246 272zM415 620c-187 0 -269 -227 -269 -375c0 -158 79 -219 176 -219c187 0 269 227 269 374c0 159 -79 220 -176 220zM411 811c-29 0 -45 -28 -60 -69h-30
c28 92 55 122 97 122c52 0 84 -66 121 -66c29 0 45 28 60 69h30c-28 -92 -55 -122 -97 -122c-52 0 -84 66 -121 66z" />
    <glyph glyph-name="otilde" unicode="&#xf5;" horiz-adv-x="459" 
d="M267 452c102 0 157 -77 157 -180c0 -148 -106 -281 -231 -281c-103 0 -158 77 -158 180c0 148 107 281 232 281zM360 297c0 88 -44 122 -92 122c-107 0 -169 -161 -169 -273c0 -88 44 -122 92 -122c107 0 169 161 169 273zM258 598c-29 0 -45 -28 -60 -69h-30
c28 92 55 122 97 122c52 0 84 -66 121 -66c29 0 45 28 60 69h30c-28 -92 -55 -122 -97 -122c-52 0 -84 66 -121 66z" />
    <glyph glyph-name="Racute" unicode="&#x154;" horiz-adv-x="660" 
d="M-20 0l10 40h109l141 568h-111l10 40h280c164 0 209 -71 209 -143c0 -86 -56 -175 -196 -190l-1 -2c79 -21 97 -57 97 -109c0 -41 -14 -95 -14 -128c0 -30 13 -44 42 -44c18 0 46 7 68 17l10 -22c-32 -22 -73 -38 -112 -38c-45 0 -82 24 -82 83c0 50 20 109 20 160
c0 39 -20 64 -101 64h-126l-64 -256h112l-10 -40h-291zM241 333h114c72 0 119 17 152 50c30 30 48 81 48 128c0 62 -36 98 -134 97h-111zM525 821l-92 -85h-32l80 118c39 58 53 76 75 76c17 0 30 -13 30 -30c0 -26 -22 -43 -61 -79z" />
    <glyph glyph-name="racute" unicode="&#x155;" horiz-adv-x="406" 
d="M62 0l82 306c25 93 9 104 -8 104c-29 0 -56 -53 -89 -117l-26 12c41 91 78 145 128 145c39 0 58 -29 58 -74c0 -40 -13 -91 -22 -123l8 -3c63 125 112 202 169 202c30 0 50 -21 50 -52c0 -34 -22 -61 -47 -61s-40 22 -35 58c-47 -23 -137 -157 -201 -397h-67zM375 608
l-92 -85h-32l80 118c39 58 53 76 75 76c17 0 30 -13 30 -30c0 -26 -22 -43 -61 -79z" />
    <glyph glyph-name="Rcaron" unicode="&#x158;" horiz-adv-x="660" 
d="M-20 0l10 40h109l141 568h-111l10 40h280c164 0 209 -71 209 -143c0 -86 -56 -175 -196 -190l-1 -2c79 -21 97 -57 97 -109c0 -41 -14 -95 -14 -128c0 -30 13 -44 42 -44c18 0 46 7 68 17l10 -22c-32 -22 -73 -38 -112 -38c-45 0 -82 24 -82 83c0 50 20 109 20 160
c0 39 -20 64 -101 64h-126l-64 -256h112l-10 -40h-291zM241 333h114c72 0 119 17 152 50c30 30 48 81 48 128c0 62 -36 98 -134 97h-111zM592 925l-151 -179h-34l-61 179h28l63 -108l121 108h34z" />
    <glyph glyph-name="rcaron" unicode="&#x159;" horiz-adv-x="406" 
d="M62 0l82 306c25 93 9 104 -8 104c-29 0 -56 -53 -89 -117l-26 12c41 91 78 145 128 145c39 0 58 -29 58 -74c0 -40 -13 -91 -22 -123l8 -3c63 125 112 202 169 202c30 0 50 -21 50 -52c0 -34 -22 -61 -47 -61s-40 22 -35 58c-47 -23 -137 -157 -201 -397h-67zM442 712
l-151 -179h-34l-61 179h28l63 -108l121 108h34z" />
    <glyph glyph-name="Rcommaaccent" unicode="&#x156;" horiz-adv-x="660" 
d="M-20 0l10 40h109l141 568h-111l10 40h280c164 0 209 -71 209 -143c0 -86 -56 -175 -196 -190l-1 -2c79 -21 97 -57 97 -109c0 -41 -14 -95 -14 -128c0 -30 13 -44 42 -44c18 0 46 7 68 17l10 -22c-32 -22 -73 -38 -112 -38c-45 0 -82 24 -82 83c0 50 20 109 20 160
c0 39 -20 64 -101 64h-126l-64 -256h112l-10 -40h-291zM241 333h114c72 0 119 17 152 50c30 30 48 81 48 128c0 62 -36 98 -134 97h-111zM195 -275l-10 27c60 23 84 54 93 83l-2 2c-6 -3 -12 -4 -17 -4c-20 0 -35 12 -35 37c0 24 17 53 49 53c31 0 47 -24 47 -57
c0 -49 -37 -112 -125 -141z" />
    <glyph glyph-name="rcommaaccent" unicode="&#x157;" horiz-adv-x="406" 
d="M62 0l82 306c25 93 9 104 -8 104c-29 0 -56 -53 -89 -117l-26 12c41 91 78 145 128 145c39 0 58 -29 58 -74c0 -40 -13 -91 -22 -123l8 -3c63 125 112 202 169 202c30 0 50 -21 50 -52c0 -34 -22 -61 -47 -61s-40 22 -35 58c-47 -23 -137 -157 -201 -397h-67zM3 -275
l-10 27c60 23 84 54 93 83l-2 2c-6 -3 -12 -4 -17 -4c-20 0 -35 12 -35 37c0 24 17 53 49 53c31 0 47 -24 47 -57c0 -49 -37 -112 -125 -141z" />
    <glyph glyph-name="Sacute" unicode="&#x15a;" horiz-adv-x="553" 
d="M-1 -13l55 224h31c26 -143 107 -190 203 -190c77 0 145 51 145 134c0 67 -52 101 -144 144c-87 41 -163 84 -163 176c0 102 85 187 209 187c82 0 141 -38 176 -80l40 77h35l-51 -211h-32c-23 148 -98 178 -173 178c-72 0 -139 -50 -139 -128c0 -70 57 -99 133 -137
c98 -49 176 -90 176 -184c0 -110 -96 -193 -216 -193c-83 0 -154 31 -204 94l-45 -91h-36zM496 821l-92 -85h-32l80 118c39 58 53 76 75 76c17 0 30 -13 30 -30c0 -26 -22 -43 -61 -79z" />
    <glyph glyph-name="sacute" unicode="&#x15b;" horiz-adv-x="408" 
d="M343 128c0 -89 -80 -137 -164 -137c-74 0 -157 40 -157 100c0 28 18 58 49 58c22 0 38 -16 38 -40c0 -20 -12 -39 -26 -50c15 -20 53 -37 96 -37c63 0 105 38 105 88c0 37 -17 54 -97 91c-47 22 -103 50 -103 116c0 84 74 135 160 135c69 0 142 -32 142 -90
c0 -26 -17 -53 -45 -53c-23 0 -39 15 -39 39c0 19 11 36 24 46c-11 13 -45 27 -82 27c-63 0 -101 -36 -101 -83c0 -37 21 -59 88 -89c68 -30 112 -57 112 -121zM381 608l-92 -85h-32l80 118c39 58 53 76 75 76c17 0 30 -13 30 -30c0 -26 -22 -43 -61 -79z" />
    <glyph glyph-name="Scaron" unicode="&#x160;" horiz-adv-x="553" 
d="M-1 -13l55 224h31c26 -143 107 -190 203 -190c77 0 145 51 145 134c0 67 -52 101 -144 144c-87 41 -163 84 -163 176c0 102 85 187 209 187c82 0 141 -38 176 -80l40 77h35l-51 -211h-32c-23 148 -98 178 -173 178c-72 0 -139 -50 -139 -128c0 -70 57 -99 133 -137
c98 -49 176 -90 176 -184c0 -110 -96 -193 -216 -193c-83 0 -154 31 -204 94l-45 -91h-36zM563 925l-151 -179h-34l-61 179h28l63 -108l121 108h34z" />
    <glyph glyph-name="scaron" unicode="&#x161;" horiz-adv-x="408" 
d="M343 128c0 -89 -80 -137 -164 -137c-74 0 -157 40 -157 100c0 28 18 58 49 58c22 0 38 -16 38 -40c0 -20 -12 -39 -26 -50c15 -20 53 -37 96 -37c63 0 105 38 105 88c0 37 -17 54 -97 91c-47 22 -103 50 -103 116c0 84 74 135 160 135c69 0 142 -32 142 -90
c0 -26 -17 -53 -45 -53c-23 0 -39 15 -39 39c0 19 11 36 24 46c-11 13 -45 27 -82 27c-63 0 -101 -36 -101 -83c0 -37 21 -59 88 -89c68 -30 112 -57 112 -121zM448 712l-151 -179h-34l-61 179h28l63 -108l121 108h34z" />
    <glyph glyph-name="Scedilla" unicode="&#x15e;" horiz-adv-x="553" 
d="M119 -165c24 -20 49 -34 82 -34c31 0 60 18 60 53c0 46 -66 45 -99 41l-9 18l91 74c-66 8 -122 38 -164 91l-45 -91h-36l55 224h31c26 -143 107 -190 203 -190c77 0 145 51 145 134c0 67 -52 101 -144 144c-87 41 -163 84 -163 176c0 102 85 187 209 187
c82 0 141 -38 176 -80l40 77h35l-51 -211h-32c-23 148 -98 178 -173 178c-72 0 -139 -50 -139 -128c0 -70 57 -99 133 -137c98 -49 176 -90 176 -184c0 -109 -94 -191 -212 -193l-68 -53v-3c55 -5 89 -31 89 -71c0 -55 -51 -90 -106 -90c-38 0 -74 13 -105 41z" />
    <glyph glyph-name="scedilla" unicode="&#x15f;" horiz-adv-x="408" 
d="M35 -165c24 -20 49 -34 82 -34c31 0 60 18 60 53c0 46 -66 45 -99 41l-9 18l98 79c-71 4 -145 42 -145 99c0 28 18 58 49 58c22 0 38 -16 38 -40c0 -20 -12 -39 -26 -50c15 -20 53 -37 96 -37c63 0 105 38 105 88c0 37 -17 54 -97 91c-47 22 -103 50 -103 116
c0 84 74 135 160 135c69 0 142 -32 142 -90c0 -26 -17 -53 -45 -53c-23 0 -39 15 -39 39c0 19 11 36 24 46c-11 13 -45 27 -82 27c-63 0 -101 -36 -101 -83c0 -37 21 -59 88 -89c68 -30 112 -57 112 -121c0 -76 -58 -122 -126 -134l-81 -63v-3c55 -5 89 -31 89 -71
c0 -55 -51 -90 -106 -90c-38 0 -74 13 -105 41z" />
    <glyph glyph-name="Scommaaccent" unicode="&#x218;" horiz-adv-x="553" 
d="M-1 -13l55 224h31c26 -143 107 -190 203 -190c77 0 145 51 145 134c0 67 -52 101 -144 144c-87 41 -163 84 -163 176c0 102 85 187 209 187c82 0 141 -38 176 -80l40 77h35l-51 -211h-32c-23 148 -98 178 -173 178c-72 0 -139 -50 -139 -128c0 -70 57 -99 133 -137
c98 -49 176 -90 176 -184c0 -110 -96 -193 -216 -193c-83 0 -154 31 -204 94l-45 -91h-36zM116 -275l-10 27c60 23 84 54 93 83l-2 2c-6 -3 -12 -4 -17 -4c-20 0 -35 12 -35 37c0 24 17 53 49 53c31 0 47 -24 47 -57c0 -49 -37 -112 -125 -141z" />
    <glyph glyph-name="scommaaccent" unicode="&#x219;" horiz-adv-x="408" 
d="M343 128c0 -89 -80 -137 -164 -137c-74 0 -157 40 -157 100c0 28 18 58 49 58c22 0 38 -16 38 -40c0 -20 -12 -39 -26 -50c15 -20 53 -37 96 -37c63 0 105 38 105 88c0 37 -17 54 -97 91c-47 22 -103 50 -103 116c0 84 74 135 160 135c69 0 142 -32 142 -90
c0 -26 -17 -53 -45 -53c-23 0 -39 15 -39 39c0 19 11 36 24 46c-11 13 -45 27 -82 27c-63 0 -101 -36 -101 -83c0 -37 21 -59 88 -89c68 -30 112 -57 112 -121zM54 -275l-10 27c60 23 84 54 93 83l-2 2c-6 -3 -12 -4 -17 -4c-20 0 -35 12 -35 37c0 24 17 53 49 53
c31 0 47 -24 47 -57c0 -49 -37 -112 -125 -141z" />
    <glyph glyph-name="Tcaron" unicode="&#x164;" horiz-adv-x="650" 
d="M122 0l10 40h113l142 568h-118c-67 0 -76 -30 -134 -180h-32l55 220h548l-55 -220h-30c16 150 19 180 -48 180h-116l-142 -568h115l-10 -40h-298zM617 925l-151 -179h-34l-61 179h28l63 -108l121 108h34z" />
    <glyph glyph-name="tcaron" unicode="&#x165;" horiz-adv-x="335" 
d="M336 403h-134l-66 -243c-12 -46 -14 -61 -14 -74c0 -31 20 -43 40 -43c45 0 78 54 107 122l28 -9c-53 -139 -109 -165 -154 -165c-58 0 -86 40 -86 84c0 25 9 64 17 92l64 236h-91l9 35h91l35 129l67 10l-38 -139h134zM388 647l-55 -108h-26l38 156c11 46 26 56 43 56
c14 0 28 -10 28 -30c0 -17 -11 -41 -28 -74z" />
    <glyph glyph-name="Tcommaaccent" unicode="&#x162;" horiz-adv-x="650" 
d="M122 0l10 40h113l142 568h-118c-67 0 -76 -30 -134 -180h-32l55 220h548l-55 -220h-30c16 150 19 180 -48 180h-116l-142 -568h115l-10 -40h-298zM170 -275l-10 27c60 23 84 54 93 83l-2 2c-6 -3 -12 -4 -17 -4c-20 0 -35 12 -35 37c0 24 17 53 49 53c31 0 47 -24 47 -57
c0 -49 -37 -112 -125 -141z" />
    <glyph glyph-name="tcommaaccent" unicode="&#x163;" horiz-adv-x="335" 
d="M336 403h-134l-66 -243c-12 -46 -14 -61 -14 -74c0 -31 20 -43 40 -43c45 0 78 54 107 122l28 -9c-53 -139 -109 -165 -154 -165c-58 0 -86 40 -86 84c0 25 9 64 17 92l64 236h-91l9 35h91l35 129l67 10l-38 -139h134zM23 -275l-10 27c60 23 84 54 93 83l-2 2
c-6 -3 -12 -4 -17 -4c-20 0 -35 12 -35 37c0 24 17 53 49 53c31 0 47 -24 47 -57c0 -49 -37 -112 -125 -141z" />
    <glyph glyph-name="Thorn" unicode="&#xde;" horiz-adv-x="592" 
d="M-20 0l10 40h109l141 568h-111l10 40h290l-10 -40h-109l-21 -82h80c164 0 217 -66 217 -147c0 -143 -120 -223 -298 -223h-90l-29 -116h111l-10 -40h-290zM368 486h-88l-72 -290h92c151 0 211 85 211 190c0 58 -28 100 -143 100z" />
    <glyph glyph-name="thorn" unicode="&#xfe;" horiz-adv-x="469" 
d="M300 405c-91 0 -179 -170 -179 -272c0 -48 25 -98 85 -98c92 0 165 154 165 271c0 67 -29 99 -71 99zM260 687l-96 -343l7 -3c46 70 93 111 149 111c67 0 116 -53 116 -148c0 -153 -111 -305 -228 -305c-46 0 -91 26 -104 79l-47 -185h100l-11 -40h-236l11 40h74l192 755
h-95l10 39h158z" />
    <glyph glyph-name="Uacute" unicode="&#xda;" horiz-adv-x="708" 
d="M315 -16c-135 0 -204 72 -204 163c0 27 4 55 15 100l89 361h-96l10 40h266l-10 -40h-100l-83 -333c-16 -66 -21 -103 -21 -127c0 -74 55 -115 153 -115c50 0 103 13 146 56c31 31 53 73 69 135l95 384h-98l10 40h232l-10 -40h-88l-100 -404c-14 -55 -40 -104 -78 -142
c-53 -53 -121 -78 -197 -78zM576 821l-92 -85h-32l80 118c39 58 53 76 75 76c17 0 30 -13 30 -30c0 -26 -22 -43 -61 -79z" />
    <glyph glyph-name="uacute" unicode="&#xfa;" horiz-adv-x="544" 
d="M406 -9c-35 0 -64 24 -64 80c0 28 12 85 21 117l-7 3c-65 -133 -130 -200 -198 -200c-47 0 -82 34 -82 96c0 87 76 218 76 289c0 11 -3 28 -22 28c-27 0 -50 -46 -83 -110l-26 12c43 88 71 146 127 146c37 0 68 -30 67 -86c-1 -82 -74 -193 -74 -278c0 -19 8 -44 42 -44
c63 0 159 112 238 402h67l-74 -277c-14 -51 -18 -75 -18 -96c0 -11 2 -34 25 -34c29 0 53 44 80 118l27 -9c-45 -125 -81 -157 -122 -157zM421 608l-92 -85h-32l80 118c39 58 53 76 75 76c17 0 30 -13 30 -30c0 -26 -22 -43 -61 -79z" />
    <glyph glyph-name="Ubreve" unicode="&#x16c;" horiz-adv-x="708" 
d="M315 -16c-135 0 -204 72 -204 163c0 27 4 55 15 100l89 361h-96l10 40h266l-10 -40h-100l-83 -333c-16 -66 -21 -103 -21 -127c0 -74 55 -115 153 -115c50 0 103 13 146 56c31 31 53 73 69 135l95 384h-98l10 40h232l-10 -40h-88l-100 -404c-14 -55 -40 -104 -78 -142
c-53 -53 -121 -78 -197 -78zM482 743c-70 0 -112 54 -94 143h24c2 -55 25 -89 77 -89s89 34 119 89h24c-26 -89 -80 -143 -150 -143z" />
    <glyph glyph-name="ubreve" unicode="&#x16d;" horiz-adv-x="544" 
d="M406 -9c-35 0 -64 24 -64 80c0 28 12 85 21 117l-7 3c-65 -133 -130 -200 -198 -200c-47 0 -82 34 -82 96c0 87 76 218 76 289c0 11 -3 28 -22 28c-27 0 -50 -46 -83 -110l-26 12c43 88 71 146 127 146c37 0 68 -30 67 -86c-1 -82 -74 -193 -74 -278c0 -19 8 -44 42 -44
c63 0 159 112 238 402h67l-74 -277c-14 -51 -18 -75 -18 -96c0 -11 2 -34 25 -34c29 0 53 44 80 118l27 -9c-45 -125 -81 -157 -122 -157zM328 530c-70 0 -112 54 -94 143h24c2 -55 25 -89 77 -89s89 34 119 89h24c-26 -89 -80 -143 -150 -143z" />
    <glyph glyph-name="Ucircumflex" unicode="&#xdb;" horiz-adv-x="708" 
d="M315 -16c-135 0 -204 72 -204 163c0 27 4 55 15 100l89 361h-96l10 40h266l-10 -40h-100l-83 -333c-16 -66 -21 -103 -21 -127c0 -74 55 -115 153 -115c50 0 103 13 146 56c31 31 53 73 69 135l95 384h-98l10 40h232l-10 -40h-88l-100 -404c-14 -55 -40 -104 -78 -142
c-53 -53 -121 -78 -197 -78zM345 737l150 179h34l62 -179h-28l-64 108l-120 -108h-34z" />
    <glyph glyph-name="ucircumflex" unicode="&#xfb;" horiz-adv-x="544" 
d="M406 -9c-35 0 -64 24 -64 80c0 28 12 85 21 117l-7 3c-65 -133 -130 -200 -198 -200c-47 0 -82 34 -82 96c0 87 76 218 76 289c0 11 -3 28 -22 28c-27 0 -50 -46 -83 -110l-26 12c43 88 71 146 127 146c37 0 68 -30 67 -86c-1 -82 -74 -193 -74 -278c0 -19 8 -44 42 -44
c63 0 159 112 238 402h67l-74 -277c-14 -51 -18 -75 -18 -96c0 -11 2 -34 25 -34c29 0 53 44 80 118l27 -9c-45 -125 -81 -157 -122 -157zM191 524l150 179h34l62 -179h-28l-64 108l-120 -108h-34z" />
    <glyph glyph-name="Udieresis" unicode="&#xdc;" horiz-adv-x="708" 
d="M315 -16c-135 0 -204 72 -204 163c0 27 4 55 15 100l89 361h-96l10 40h266l-10 -40h-100l-83 -333c-16 -66 -21 -103 -21 -127c0 -74 55 -115 153 -115c50 0 103 13 146 56c31 31 53 73 69 135l95 384h-98l10 40h232l-10 -40h-88l-100 -404c-14 -55 -40 -104 -78 -142
c-53 -53 -121 -78 -197 -78zM446 815c0 -31 -20 -56 -46 -56c-24 0 -38 19 -38 44c0 31 20 56 46 56c24 0 38 -19 38 -44zM612 815c0 -31 -20 -56 -46 -56c-24 0 -38 19 -38 44c0 31 20 56 46 56c24 0 38 -19 38 -44z" />
    <glyph glyph-name="udieresis" unicode="&#xfc;" horiz-adv-x="544" 
d="M406 -9c-35 0 -64 24 -64 80c0 28 12 85 21 117l-7 3c-65 -133 -130 -200 -198 -200c-47 0 -82 34 -82 96c0 87 76 218 76 289c0 11 -3 28 -22 28c-27 0 -50 -46 -83 -110l-26 12c43 88 71 146 127 146c37 0 68 -30 67 -86c-1 -82 -74 -193 -74 -278c0 -19 8 -44 42 -44
c63 0 159 112 238 402h67l-74 -277c-14 -51 -18 -75 -18 -96c0 -11 2 -34 25 -34c29 0 53 44 80 118l27 -9c-45 -125 -81 -157 -122 -157zM291 602c0 -31 -20 -56 -46 -56c-24 0 -38 19 -38 44c0 31 20 56 46 56c24 0 38 -19 38 -44zM457 602c0 -31 -20 -56 -46 -56
c-24 0 -38 19 -38 44c0 31 20 56 46 56c24 0 38 -19 38 -44z" />
    <glyph glyph-name="Ugrave" unicode="&#xd9;" horiz-adv-x="708" 
d="M315 -16c-135 0 -204 72 -204 163c0 27 4 55 15 100l89 361h-96l10 40h266l-10 -40h-100l-83 -333c-16 -66 -21 -103 -21 -127c0 -74 55 -115 153 -115c50 0 103 13 146 56c31 31 53 73 69 135l95 384h-98l10 40h232l-10 -40h-88l-100 -404c-14 -55 -40 -104 -78 -142
c-53 -53 -121 -78 -197 -78zM457 853l20 -117h-26l-37 79c-16 36 -32 61 -32 82c0 20 14 33 32 33c27 0 35 -29 43 -77z" />
    <glyph glyph-name="ugrave" unicode="&#xf9;" horiz-adv-x="544" 
d="M406 -9c-35 0 -64 24 -64 80c0 28 12 85 21 117l-7 3c-65 -133 -130 -200 -198 -200c-47 0 -82 34 -82 96c0 87 76 218 76 289c0 11 -3 28 -22 28c-27 0 -50 -46 -83 -110l-26 12c43 88 71 146 127 146c37 0 68 -30 67 -86c-1 -82 -74 -193 -74 -278c0 -19 8 -44 42 -44
c63 0 159 112 238 402h67l-74 -277c-14 -51 -18 -75 -18 -96c0 -11 2 -34 25 -34c29 0 53 44 80 118l27 -9c-45 -125 -81 -157 -122 -157zM302 640l20 -117h-26l-37 79c-16 36 -32 61 -32 82c0 20 14 33 32 33c27 0 35 -29 43 -77z" />
    <glyph glyph-name="Uhungarumlaut" unicode="&#x170;" horiz-adv-x="708" 
d="M315 -16c-135 0 -204 72 -204 163c0 27 4 55 15 100l89 361h-96l10 40h266l-10 -40h-100l-83 -333c-16 -66 -21 -103 -21 -127c0 -74 55 -115 153 -115c50 0 103 13 146 56c31 31 53 73 69 135l95 384h-98l10 40h232l-10 -40h-88l-100 -404c-14 -55 -40 -104 -78 -142
c-53 -53 -121 -78 -197 -78zM507 821l-90 -85h-32l78 118c38 59 49 76 71 76c18 0 30 -13 30 -30c0 -26 -19 -43 -57 -79zM655 821l-90 -85h-32l78 118c38 59 49 76 71 76c18 0 30 -13 30 -30c0 -26 -19 -43 -57 -79z" />
    <glyph glyph-name="uhungarumlaut" unicode="&#x171;" horiz-adv-x="544" 
d="M406 -9c-35 0 -64 24 -64 80c0 28 12 85 21 117l-7 3c-65 -133 -130 -200 -198 -200c-47 0 -82 34 -82 96c0 87 76 218 76 289c0 11 -3 28 -22 28c-27 0 -50 -46 -83 -110l-26 12c43 88 71 146 127 146c37 0 68 -30 67 -86c-1 -82 -74 -193 -74 -278c0 -19 8 -44 42 -44
c63 0 159 112 238 402h67l-74 -277c-14 -51 -18 -75 -18 -96c0 -11 2 -34 25 -34c29 0 53 44 80 118l27 -9c-45 -125 -81 -157 -122 -157zM352 608l-90 -85h-32l78 118c38 59 49 76 71 76c18 0 30 -13 30 -30c0 -26 -19 -43 -57 -79zM500 608l-90 -85h-32l78 118
c38 59 49 76 71 76c18 0 30 -13 30 -30c0 -26 -19 -43 -57 -79z" />
    <glyph glyph-name="Umacron" unicode="&#x16a;" horiz-adv-x="708" 
d="M315 -16c-135 0 -204 72 -204 163c0 27 4 55 15 100l89 361h-96l10 40h266l-10 -40h-100l-83 -333c-16 -66 -21 -103 -21 -127c0 -74 55 -115 153 -115c50 0 103 13 146 56c31 31 53 73 69 135l95 384h-98l10 40h232l-10 -40h-88l-100 -404c-14 -55 -40 -104 -78 -142
c-53 -53 -121 -78 -197 -78zM359 755l13 53h251l-13 -53h-251z" />
    <glyph glyph-name="umacron" unicode="&#x16b;" horiz-adv-x="544" 
d="M406 -9c-35 0 -64 24 -64 80c0 28 12 85 21 117l-7 3c-65 -133 -130 -200 -198 -200c-47 0 -82 34 -82 96c0 87 76 218 76 289c0 11 -3 28 -22 28c-27 0 -50 -46 -83 -110l-26 12c43 88 71 146 127 146c37 0 68 -30 67 -86c-1 -82 -74 -193 -74 -278c0 -19 8 -44 42 -44
c63 0 159 112 238 402h67l-74 -277c-14 -51 -18 -75 -18 -96c0 -11 2 -34 25 -34c29 0 53 44 80 118l27 -9c-45 -125 -81 -157 -122 -157zM205 542l13 53h251l-13 -53h-251z" />
    <glyph glyph-name="Uogonek" unicode="&#x172;" horiz-adv-x="708" 
d="M344 -201c-24 -20 -53 -32 -85 -32c-40 0 -81 24 -81 76c0 49 35 89 112 142c-119 8 -179 76 -179 162c0 27 4 55 15 100l89 361h-96l10 40h266l-10 -40h-100l-83 -333c-16 -66 -21 -103 -21 -127c0 -74 55 -115 153 -115c50 0 103 13 146 56c31 31 53 73 69 135l95 384
h-98l10 40h232l-10 -40h-88l-100 -404c-14 -55 -40 -104 -78 -142c-49 -49 -111 -74 -180 -77v-1c-80 -63 -101 -98 -101 -134c0 -27 17 -45 46 -45c22 0 41 9 55 17z" />
    <glyph glyph-name="uogonek" unicode="&#x173;" horiz-adv-x="544" 
d="M501 157l27 -9c-13 -35 -38 -112 -88 -151c-58 -45 -120 -89 -120 -147c0 -27 17 -45 46 -45c22 0 41 9 55 17l12 -23c-24 -20 -53 -32 -85 -32c-40 0 -81 24 -81 76c0 50 37 91 124 150c-28 6 -49 30 -49 78c0 28 12 85 21 117l-7 3c-65 -133 -130 -200 -198 -200
c-47 0 -82 34 -82 96c0 87 76 218 76 289c0 11 -3 28 -22 28c-27 0 -50 -46 -83 -110l-26 12c43 88 71 146 127 146c37 0 68 -30 67 -86c-1 -82 -74 -193 -74 -278c0 -19 8 -44 42 -44c63 0 159 112 238 402h67l-74 -277c-14 -51 -18 -75 -18 -96c0 -11 2 -34 25 -34
c29 0 53 44 80 118z" />
    <glyph glyph-name="Uring" unicode="&#x16e;" horiz-adv-x="708" 
d="M315 -16c-135 0 -204 72 -204 163c0 27 4 55 15 100l89 361h-96l10 40h266l-10 -40h-100l-83 -333c-16 -66 -21 -103 -21 -127c0 -74 55 -115 153 -115c50 0 103 13 146 56c31 31 53 73 69 135l95 384h-98l10 40h232l-10 -40h-88l-100 -404c-14 -55 -40 -104 -78 -142
c-53 -53 -121 -78 -197 -78zM608 844c0 -55 -43 -114 -117 -114c-48 0 -92 29 -92 86c0 55 43 114 117 114c48 0 92 -29 92 -86zM442 813c0 -31 18 -53 51 -53c42 0 72 40 72 87c0 31 -18 53 -51 53c-42 0 -72 -40 -72 -87z" />
    <glyph glyph-name="uring" unicode="&#x16f;" horiz-adv-x="544" 
d="M406 -9c-35 0 -64 24 -64 80c0 28 12 85 21 117l-7 3c-65 -133 -130 -200 -198 -200c-47 0 -82 34 -82 96c0 87 76 218 76 289c0 11 -3 28 -22 28c-27 0 -50 -46 -83 -110l-26 12c43 88 71 146 127 146c37 0 68 -30 67 -86c-1 -82 -74 -193 -74 -278c0 -19 8 -44 42 -44
c63 0 159 112 238 402h67l-74 -277c-14 -51 -18 -75 -18 -96c0 -11 2 -34 25 -34c29 0 53 44 80 118l27 -9c-45 -125 -81 -157 -122 -157zM454 631c0 -55 -43 -114 -117 -114c-48 0 -92 29 -92 86c0 55 43 114 117 114c48 0 92 -29 92 -86zM288 600c0 -31 18 -53 51 -53
c42 0 72 40 72 87c0 31 -18 53 -51 53c-42 0 -72 -40 -72 -87z" />
    <glyph glyph-name="Wacute" unicode="&#x1e82;" horiz-adv-x="965" 
d="M581 -4l-35 494l-280 -494h-47l-44 612h-76l10 40h250l-10 -40h-106l32 -511h2l264 466l-3 45h-74l10 40h247l-10 -40h-106l32 -511h2l287 511h-92l10 40h214l-10 -40h-69l-351 -612h-47zM704 821l-92 -85h-32l80 118c39 58 53 76 75 76c17 0 30 -13 30 -30
c0 -26 -22 -43 -61 -79z" />
    <glyph glyph-name="wacute" unicode="&#x1e83;" horiz-adv-x="676" 
d="M148 452c39 0 70 -30 69 -86c-1 -88 -87 -203 -87 -277c0 -38 20 -51 45 -51c92 0 154 195 210 407h60l-45 -185c-17 -71 -23 -125 -23 -147c0 -48 15 -75 54 -75c100 0 179 201 177 320c-6 -2 -14 -6 -21 -6c-27 0 -43 17 -43 44c0 29 18 59 49 59c32 0 52 -30 52 -87
c0 -142 -97 -380 -229 -380c-76 0 -95 60 -95 118c0 18 2 36 4 50l-7 1c-42 -114 -91 -169 -157 -169c-62 0 -97 45 -97 101c0 88 90 208 90 287c0 11 -3 28 -24 28c-27 0 -50 -46 -83 -110l-26 12c43 88 71 146 127 146zM526 608l-92 -85h-32l80 118c39 58 53 76 75 76
c17 0 30 -13 30 -30c0 -26 -22 -43 -61 -79z" />
    <glyph glyph-name="Wcircumflex" unicode="&#x174;" horiz-adv-x="965" 
d="M581 -4l-35 494l-280 -494h-47l-44 612h-76l10 40h250l-10 -40h-106l32 -511h2l264 466l-3 45h-74l10 40h247l-10 -40h-106l32 -511h2l287 511h-92l10 40h214l-10 -40h-69l-351 -612h-47zM474 737l150 179h34l62 -179h-28l-64 108l-120 -108h-34z" />
    <glyph glyph-name="wcircumflex" unicode="&#x175;" horiz-adv-x="676" 
d="M148 452c39 0 70 -30 69 -86c-1 -88 -87 -203 -87 -277c0 -38 20 -51 45 -51c92 0 154 195 210 407h60l-45 -185c-17 -71 -23 -125 -23 -147c0 -48 15 -75 54 -75c100 0 179 201 177 320c-6 -2 -14 -6 -21 -6c-27 0 -43 17 -43 44c0 29 18 59 49 59c32 0 52 -30 52 -87
c0 -142 -97 -380 -229 -380c-76 0 -95 60 -95 118c0 18 2 36 4 50l-7 1c-42 -114 -91 -169 -157 -169c-62 0 -97 45 -97 101c0 88 90 208 90 287c0 11 -3 28 -24 28c-27 0 -50 -46 -83 -110l-26 12c43 88 71 146 127 146zM296 524l150 179h34l62 -179h-28l-64 108l-120 -108
h-34z" />
    <glyph glyph-name="Wdieresis" unicode="&#x1e84;" horiz-adv-x="965" 
d="M581 -4l-35 494l-280 -494h-47l-44 612h-76l10 40h250l-10 -40h-106l32 -511h2l264 466l-3 45h-74l10 40h247l-10 -40h-106l32 -511h2l287 511h-92l10 40h214l-10 -40h-69l-351 -612h-47zM574 815c0 -31 -20 -56 -46 -56c-24 0 -38 19 -38 44c0 31 20 56 46 56
c24 0 38 -19 38 -44zM740 815c0 -31 -20 -56 -46 -56c-24 0 -38 19 -38 44c0 31 20 56 46 56c24 0 38 -19 38 -44z" />
    <glyph glyph-name="wdieresis" unicode="&#x1e85;" horiz-adv-x="676" 
d="M148 452c39 0 70 -30 69 -86c-1 -88 -87 -203 -87 -277c0 -38 20 -51 45 -51c92 0 154 195 210 407h60l-45 -185c-17 -71 -23 -125 -23 -147c0 -48 15 -75 54 -75c100 0 179 201 177 320c-6 -2 -14 -6 -21 -6c-27 0 -43 17 -43 44c0 29 18 59 49 59c32 0 52 -30 52 -87
c0 -142 -97 -380 -229 -380c-76 0 -95 60 -95 118c0 18 2 36 4 50l-7 1c-42 -114 -91 -169 -157 -169c-62 0 -97 45 -97 101c0 88 90 208 90 287c0 11 -3 28 -24 28c-27 0 -50 -46 -83 -110l-26 12c43 88 71 146 127 146zM562 602c0 -31 -20 -56 -46 -56
c-24 0 -38 19 -38 44c0 31 20 56 46 56c24 0 38 -19 38 -44zM396 602c0 -31 -20 -56 -46 -56c-24 0 -38 19 -38 44c0 31 20 56 46 56c24 0 38 -19 38 -44z" />
    <glyph glyph-name="Wgrave" unicode="&#x1e80;" horiz-adv-x="965" 
d="M581 -4l-35 494l-280 -494h-47l-44 612h-76l10 40h250l-10 -40h-106l32 -511h2l264 466l-3 45h-74l10 40h247l-10 -40h-106l32 -511h2l287 511h-92l10 40h214l-10 -40h-69l-351 -612h-47zM585 853l20 -117h-26l-37 79c-16 36 -32 61 -32 82c0 20 14 33 32 33
c27 0 35 -29 43 -77z" />
    <glyph glyph-name="wgrave" unicode="&#x1e81;" horiz-adv-x="676" 
d="M148 452c39 0 70 -30 69 -86c-1 -88 -87 -203 -87 -277c0 -38 20 -51 45 -51c92 0 154 195 210 407h60l-45 -185c-17 -71 -23 -125 -23 -147c0 -48 15 -75 54 -75c100 0 179 201 177 320c-6 -2 -14 -6 -21 -6c-27 0 -43 17 -43 44c0 29 18 59 49 59c32 0 52 -30 52 -87
c0 -142 -97 -380 -229 -380c-76 0 -95 60 -95 118c0 18 2 36 4 50l-7 1c-42 -114 -91 -169 -157 -169c-62 0 -97 45 -97 101c0 88 90 208 90 287c0 11 -3 28 -24 28c-27 0 -50 -46 -83 -110l-26 12c43 88 71 146 127 146zM407 640l20 -117h-26l-37 79c-16 36 -32 61 -32 82
c0 20 14 33 32 33c27 0 35 -29 43 -77z" />
    <glyph glyph-name="Yacute" unicode="&#xdd;" horiz-adv-x="648" 
d="M361 321l232 287h-83l10 40h217l-10 -40h-77l-280 -338l-60 -230h103l-10 -40h-272l10 40h99l62 243l-94 325h-82l10 40h247l-10 -40h-90zM559 821l-92 -85h-32l80 118c39 58 53 76 75 76c17 0 30 -13 30 -30c0 -26 -22 -43 -61 -79z" />
    <glyph glyph-name="yacute" unicode="&#xfd;" horiz-adv-x="507" 
d="M148 452c37 0 68 -30 67 -86c-1 -82 -68 -174 -68 -245c0 -23 10 -47 45 -47c57 0 170 83 231 372h62l-77 -326c-49 -207 -133 -280 -251 -280c-44 0 -119 17 -119 78c0 29 20 55 49 55c26 0 40 -17 40 -39c0 -16 -9 -34 -26 -45c13 -10 33 -15 56 -15
c99 0 159 74 201 283l4 20l-6 3c-68 -112 -129 -159 -186 -159c-48 0 -88 31 -88 92c0 77 70 192 70 263c0 11 -3 28 -22 28c-27 0 -50 -46 -83 -110l-26 12c43 88 71 146 127 146zM423 608l-92 -85h-32l80 118c39 58 53 76 75 76c17 0 30 -13 30 -30c0 -26 -22 -43 -61 -79
z" />
    <glyph glyph-name="Ycircumflex" unicode="&#x176;" horiz-adv-x="648" 
d="M361 321l232 287h-83l10 40h217l-10 -40h-77l-280 -338l-60 -230h103l-10 -40h-272l10 40h99l62 243l-94 325h-82l10 40h247l-10 -40h-90zM328 737l150 179h34l62 -179h-28l-64 108l-120 -108h-34z" />
    <glyph glyph-name="ycircumflex" unicode="&#x177;" horiz-adv-x="507" 
d="M148 452c37 0 68 -30 67 -86c-1 -82 -68 -174 -68 -245c0 -23 10 -47 45 -47c57 0 170 83 231 372h62l-77 -326c-49 -207 -133 -280 -251 -280c-44 0 -119 17 -119 78c0 29 20 55 49 55c26 0 40 -17 40 -39c0 -16 -9 -34 -26 -45c13 -10 33 -15 56 -15
c99 0 159 74 201 283l4 20l-6 3c-68 -112 -129 -159 -186 -159c-48 0 -88 31 -88 92c0 77 70 192 70 263c0 11 -3 28 -22 28c-27 0 -50 -46 -83 -110l-26 12c43 88 71 146 127 146zM192 524l150 179h34l62 -179h-28l-64 108l-120 -108h-34z" />
    <glyph glyph-name="Ydieresis" unicode="&#x178;" horiz-adv-x="648" 
d="M361 321l232 287h-83l10 40h217l-10 -40h-77l-280 -338l-60 -230h103l-10 -40h-272l10 40h99l62 243l-94 325h-82l10 40h247l-10 -40h-90zM429 815c0 -31 -20 -56 -46 -56c-24 0 -38 19 -38 44c0 31 20 56 46 56c24 0 38 -19 38 -44zM595 815c0 -31 -20 -56 -46 -56
c-24 0 -38 19 -38 44c0 31 20 56 46 56c24 0 38 -19 38 -44z" />
    <glyph glyph-name="ydieresis" unicode="&#xff;" horiz-adv-x="507" 
d="M148 452c37 0 68 -30 67 -86c-1 -82 -68 -174 -68 -245c0 -23 10 -47 45 -47c57 0 170 83 231 372h62l-77 -326c-49 -207 -133 -280 -251 -280c-44 0 -119 17 -119 78c0 29 20 55 49 55c26 0 40 -17 40 -39c0 -16 -9 -34 -26 -45c13 -10 33 -15 56 -15
c99 0 159 74 201 283l4 20l-6 3c-68 -112 -129 -159 -186 -159c-48 0 -88 31 -88 92c0 77 70 192 70 263c0 11 -3 28 -22 28c-27 0 -50 -46 -83 -110l-26 12c43 88 71 146 127 146zM293 602c0 -31 -20 -56 -46 -56c-24 0 -38 19 -38 44c0 31 20 56 46 56c24 0 38 -19 38 -44
zM459 602c0 -31 -20 -56 -46 -56c-24 0 -38 19 -38 44c0 31 20 56 46 56c24 0 38 -19 38 -44z" />
    <glyph glyph-name="Ygrave" unicode="&#x1ef2;" horiz-adv-x="648" 
d="M361 321l232 287h-83l10 40h217l-10 -40h-77l-280 -338l-60 -230h103l-10 -40h-272l10 40h99l62 243l-94 325h-82l10 40h247l-10 -40h-90zM440 853l20 -117h-26l-37 79c-16 36 -32 61 -32 82c0 20 14 33 32 33c27 0 35 -29 43 -77z" />
    <glyph glyph-name="ygrave" unicode="&#x1ef3;" horiz-adv-x="507" 
d="M148 452c37 0 68 -30 67 -86c-1 -82 -68 -174 -68 -245c0 -23 10 -47 45 -47c57 0 170 83 231 372h62l-77 -326c-49 -207 -133 -280 -251 -280c-44 0 -119 17 -119 78c0 29 20 55 49 55c26 0 40 -17 40 -39c0 -16 -9 -34 -26 -45c13 -10 33 -15 56 -15
c99 0 159 74 201 283l4 20l-6 3c-68 -112 -129 -159 -186 -159c-48 0 -88 31 -88 92c0 77 70 192 70 263c0 11 -3 28 -22 28c-27 0 -50 -46 -83 -110l-26 12c43 88 71 146 127 146zM304 640l20 -117h-26l-37 79c-16 36 -32 61 -32 82c0 20 14 33 32 33c27 0 35 -29 43 -77z
" />
    <glyph glyph-name="Zacute" unicode="&#x179;" horiz-adv-x="570" 
d="M-18 0l6 25l542 583h-270c-41 0 -51 -10 -116 -172h-30l52 212h469l-7 -25l-539 -583h290c41 0 51 17 117 179h30l-54 -219h-490zM494 821l-92 -85h-32l80 118c39 58 53 76 75 76c17 0 30 -13 30 -30c0 -26 -22 -43 -61 -79z" />
    <glyph glyph-name="zacute" unicode="&#x17a;" horiz-adv-x="421" 
d="M90 102c73 -14 113 -47 159 -47c47 0 69 28 108 121l30 -14c-39 -106 -78 -171 -155 -171c-44 0 -84 27 -124 67l-30 30l-9 -2c-5 -79 -30 -95 -52 -95c-17 0 -36 11 -36 34c0 24 21 53 73 69c72 98 193 192 279 247c-73 14 -113 47 -159 47c-47 0 -67 -28 -108 -121
l-30 14c39 106 78 171 155 171c44 0 84 -27 124 -67l30 -30l9 2c5 79 30 95 52 95c17 0 36 -11 36 -34c0 -24 -21 -53 -73 -69c-72 -98 -193 -192 -279 -247zM366 608l-92 -85h-32l80 118c39 58 53 76 75 76c17 0 30 -13 30 -30c0 -26 -22 -43 -61 -79z" />
    <glyph glyph-name="Zcaron" unicode="&#x17d;" horiz-adv-x="570" 
d="M-18 0l6 25l542 583h-270c-41 0 -51 -10 -116 -172h-30l52 212h469l-7 -25l-539 -583h290c41 0 51 17 117 179h30l-54 -219h-490zM560 925l-151 -179h-34l-61 179h28l63 -108l121 108h34z" />
    <glyph glyph-name="zcaron" unicode="&#x17e;" horiz-adv-x="421" 
d="M90 102c73 -14 113 -47 159 -47c47 0 69 28 108 121l30 -14c-39 -106 -78 -171 -155 -171c-44 0 -84 27 -124 67l-30 30l-9 -2c-5 -79 -30 -95 -52 -95c-17 0 -36 11 -36 34c0 24 21 53 73 69c72 98 193 192 279 247c-73 14 -113 47 -159 47c-47 0 -67 -28 -108 -121
l-30 14c39 106 78 171 155 171c44 0 84 -27 124 -67l30 -30l9 2c5 79 30 95 52 95c17 0 36 -11 36 -34c0 -24 -21 -53 -73 -69c-72 -98 -193 -192 -279 -247zM433 712l-151 -179h-34l-61 179h28l63 -108l121 108h34z" />
    <glyph glyph-name="Zdotaccent" unicode="&#x17b;" horiz-adv-x="570" 
d="M-18 0l6 25l542 583h-270c-41 0 -51 -10 -116 -172h-30l52 212h469l-7 -25l-539 -583h290c41 0 51 17 117 179h30l-54 -219h-490zM454 795c0 -24 -18 -56 -50 -56c-19 0 -37 13 -37 40c0 26 17 57 49 57c22 0 38 -15 38 -41z" />
    <glyph glyph-name="zdotaccent" unicode="&#x17c;" horiz-adv-x="421" 
d="M90 102c73 -14 113 -47 159 -47c47 0 69 28 108 121l30 -14c-39 -106 -78 -171 -155 -171c-44 0 -84 27 -124 67l-30 30l-9 -2c-5 -79 -30 -95 -52 -95c-17 0 -36 11 -36 34c0 24 21 53 73 69c72 98 193 192 279 247c-73 14 -113 47 -159 47c-47 0 -67 -28 -108 -121
l-30 14c39 106 78 171 155 171c44 0 84 -27 124 -67l30 -30l9 2c5 79 30 95 52 95c17 0 36 -11 36 -34c0 -24 -21 -53 -73 -69c-72 -98 -193 -192 -279 -247zM327 582c0 -24 -18 -56 -50 -56c-19 0 -37 13 -37 40c0 26 17 57 49 57c22 0 38 -15 38 -41z" />
    <glyph glyph-name="schwa" unicode="&#x259;" horiz-adv-x="419" 
d="M20 79c0 90 94 153 301 179c1 9 2 18 2 27c0 84 -37 128 -95 128s-105 -36 -152 -102l-24 17c48 69 106 124 190 124c88 0 147 -58 147 -159c0 -155 -143 -302 -264 -302c-68 0 -105 41 -105 88zM139 24c84 0 156 106 177 205c-188 -26 -235 -90 -235 -148
c0 -36 24 -57 58 -57z" />
    <glyph glyph-name="germandbls" unicode="&#xdf;" horiz-adv-x="526" 
d="M328 345c0 -19 15 -33 73 -80c51 -41 80 -77 80 -131c0 -72 -56 -143 -157 -143c-57 0 -128 25 -128 86c0 31 19 61 50 61c22 0 38 -16 38 -40c0 -20 -13 -37 -27 -48c16 -16 43 -22 69 -22c66 0 98 41 98 83c0 26 -10 53 -62 99c-59 51 -90 76 -90 116
c0 45 25 67 93 116c64 47 81 85 81 132c0 54 -38 87 -88 87c-78 0 -114 -74 -137 -184l-84 -400c-38 -181 -89 -237 -157 -237c-41 0 -59 24 -59 49c0 26 16 49 42 49c22 0 34 -16 34 -35c0 -12 -5 -27 -13 -36c36 0 52 32 84 182l75 354h-100l9 35h97
c41 192 128 255 215 255c73 0 144 -44 144 -124c0 -60 -39 -110 -104 -147s-76 -54 -76 -77z" />
    <glyph glyph-name="zero" unicode="0" horiz-adv-x="547" 
d="M243 -16c-114 0 -178 89 -178 238c0 211 121 416 281 416c114 0 178 -89 178 -238c0 -211 -121 -416 -281 -416zM346 598c-140 0 -211 -245 -212 -395c-1 -131 42 -179 110 -179c139 0 210 245 211 395c1 131 -42 179 -109 179z" />
    <glyph glyph-name="one" unicode="1" horiz-adv-x="424" 
d="M-11 0l10 40h148l121 488c-27 -12 -67 -17 -100 -17c-18 0 -39 2 -53 6l9 33c82 0 155 28 199 81h38l-147 -591h138l-10 -40h-353z" />
    <glyph glyph-name="two" unicode="2" horiz-adv-x="529" 
d="M184 534c20 -10 36 -27 36 -53c0 -27 -18 -53 -51 -53c-30 0 -51 24 -51 60c0 71 87 150 201 150c115 0 191 -64 191 -164c0 -121 -102 -182 -222 -222c-174 -58 -200 -124 -211 -172l2 -1c23 13 46 22 76 22c77 0 118 -53 171 -53c49 0 83 40 118 154l30 -5
c-29 -158 -89 -212 -158 -212c-78 0 -112 80 -182 80c-9 0 -27 -2 -37 -6c5 -6 9 -19 9 -28c0 -27 -14 -46 -37 -46c-28 0 -45 27 -45 67c0 69 46 156 239 238c130 55 179 117 179 191c0 81 -56 118 -126 118c-68 0 -109 -29 -132 -65z" />
    <glyph glyph-name="three" unicode="3" horiz-adv-x="509" 
d="M84 89c11 -24 51 -64 130 -64c88 0 155 63 155 154c0 68 -43 120 -155 120h-12l10 42h21c67 0 122 19 157 54c25 25 38 57 38 99c0 63 -41 105 -116 105c-61 0 -104 -24 -121 -49c19 -12 31 -30 31 -51c0 -26 -20 -50 -48 -50c-31 0 -51 23 -51 54c0 66 86 135 198 135
c118 0 178 -66 178 -146c0 -105 -92 -155 -183 -175v-2c80 -19 124 -73 124 -141c0 -105 -91 -190 -221 -190c-98 0 -196 58 -196 141c0 43 29 71 60 71c30 0 47 -22 47 -46c0 -33 -25 -55 -46 -61z" />
    <glyph glyph-name="four" unicode="4" horiz-adv-x="541" 
d="M323 220l83 331h-2l-320 -331h239zM344 40h98l-10 -40h-263l10 40h99l34 138h-298l11 43l401 412h66l-103 -413h127l-9 -42h-129z" />
    <glyph glyph-name="five" unicode="5" horiz-adv-x="500" 
d="M219 558l-61 -203c34 19 73 33 122 33c99 0 163 -59 163 -156c0 -117 -84 -248 -235 -248c-111 0 -185 69 -185 142c0 48 30 77 63 77s49 -24 49 -48c0 -34 -27 -58 -60 -59c15 -40 63 -73 125 -73c121 0 172 114 172 214c0 85 -51 112 -110 112c-45 0 -91 -17 -126 -47
l-33 15l94 308l13 8c55 -26 104 -36 158 -36c60 0 100 12 145 34l10 -19c-48 -53 -102 -81 -171 -81c-53 0 -104 15 -133 27z" />
    <glyph glyph-name="six" unicode="6" horiz-adv-x="508" 
d="M238 24c96 0 147 101 147 196c0 80 -46 128 -115 128c-79 0 -151 -69 -151 -185c0 -75 41 -139 119 -139zM510 526c0 -39 -23 -75 -63 -75c-31 0 -50 21 -50 48c0 25 17 53 55 60c-10 22 -44 40 -85 40c-108 0 -184 -98 -228 -277c33 39 88 67 151 67
c98 0 165 -70 165 -170c0 -118 -92 -235 -215 -235c-117 0 -184 91 -184 220c0 220 125 434 310 434c88 0 144 -54 144 -112z" />
    <glyph glyph-name="seven" unicode="7" horiz-adv-x="518" 
d="M207 43c-12 -43 -22 -58 -43 -59s-40 15 -40 41c0 70 95 268 284 424c62 51 87 74 106 100l-2 2c-26 -19 -54 -31 -83 -31c-66 0 -113 44 -168 44c-48 0 -87 -36 -128 -166h-39l56 227h41l-19 -83h2c34 52 62 88 116 88c74 0 102 -77 163 -77c18 0 35 6 49 16
c-5 10 -7 18 -7 28c0 24 17 43 42 43c27 0 40 -21 40 -39c0 -43 -34 -78 -126 -157c-124 -108 -192 -217 -244 -401z" />
    <glyph glyph-name="eight" unicode="8" horiz-adv-x="517" 
d="M507 487c0 -82 -58 -142 -148 -172c70 -38 105 -82 105 -143c0 -111 -104 -188 -224 -188c-126 0 -200 74 -200 163c0 67 40 142 168 177c-56 37 -86 87 -86 137c0 96 88 177 204 177c109 0 181 -65 181 -151zM396 159c0 56 -46 93 -151 144c-95 -22 -145 -79 -145 -158
c0 -66 53 -122 143 -122c85 0 153 54 153 136zM190 475c0 -53 47 -99 130 -140c89 30 130 87 130 151c0 65 -46 113 -124 113c-77 0 -136 -54 -136 -124z" />
    <glyph glyph-name="nine" unicode="9" horiz-adv-x="510" 
d="M315 598c-96 0 -148 -93 -148 -200c0 -84 45 -132 114 -132c79 0 152 69 152 189c0 79 -40 143 -118 143zM35 102c0 37 23 73 63 73c31 0 50 -21 50 -48c0 -25 -17 -53 -55 -60c17 -27 52 -44 97 -44c108 0 179 95 222 269c-33 -39 -88 -67 -151 -67
c-98 0 -164 70 -164 174c0 122 93 239 216 239c117 0 184 -91 184 -220c0 -223 -119 -434 -306 -434c-103 0 -156 60 -156 118z" />
    <glyph glyph-name="period" unicode="." horiz-adv-x="200" 
d="M51 -14c-26 0 -44 21 -44 48c0 31 22 56 50 56c26 0 44 -21 44 -48c0 -31 -22 -56 -50 -56z" />
    <glyph glyph-name="comma" unicode="," horiz-adv-x="200" 
d="M-50 -127l-9 28c79 30 106 65 116 95l-2 2c-4 -2 -13 -4 -17 -4c-20 0 -36 14 -36 40c0 25 18 55 51 55c32 0 49 -25 49 -59c0 -51 -37 -118 -152 -157z" />
    <glyph glyph-name="colon" unicode=":" horiz-adv-x="200" 
d="M51 -14c-26 0 -44 21 -44 48c0 31 22 56 50 56c26 0 44 -21 44 -48c0 -31 -22 -56 -50 -56zM126 286c-26 0 -44 21 -44 48c0 31 22 56 50 56c26 0 44 -21 44 -48c0 -31 -22 -56 -50 -56z" />
    <glyph glyph-name="semicolon" unicode=";" horiz-adv-x="200" 
d="M-50 -127l-9 28c79 30 106 65 116 95l-2 2c-4 -2 -13 -4 -17 -4c-20 0 -36 14 -36 40c0 25 18 55 51 55c32 0 49 -25 49 -59c0 -51 -37 -118 -152 -157zM126 286c-26 0 -44 21 -44 48c0 31 22 56 50 56c26 0 44 -21 44 -48c0 -31 -22 -56 -50 -56z" />
    <glyph glyph-name="ellipsis" unicode="&#x2026;" horiz-adv-x="600" 
d="M51 -14c-26 0 -44 21 -44 48c0 31 22 56 50 56c26 0 44 -21 44 -48c0 -31 -22 -56 -50 -56zM251 -14c-26 0 -44 21 -44 48c0 31 22 56 50 56c26 0 44 -21 44 -48c0 -31 -22 -56 -50 -56zM451 -14c-26 0 -44 21 -44 48c0 31 22 56 50 56c26 0 44 -21 44 -48
c0 -31 -22 -56 -50 -56z" />
    <glyph glyph-name="periodcentered" unicode="&#xb7;" horiz-adv-x="200" 
d="M121 274c-26 0 -44 21 -44 48c0 31 22 56 50 56c26 0 44 -21 44 -48c0 -31 -22 -56 -50 -56z" />
    <glyph glyph-name="bullet" unicode="&#x2022;" horiz-adv-x="436" 
d="M232 205c-56 0 -95 40 -95 97c0 64 51 119 113 119c56 0 95 -40 95 -97c0 -64 -51 -119 -113 -119z" />
    <glyph glyph-name="ampersand" unicode="&#x26;" horiz-adv-x="663" 
d="M591 379c39 0 56 -25 56 -52c0 -33 -21 -62 -48 -62c-33 0 -46 36 -28 68c-54 -19 -92 -108 -147 -183c30 -77 46 -114 75 -114c16 0 44 8 78 90l28 -12c-42 -105 -82 -128 -123 -128c-48 0 -74 24 -105 108c-56 -65 -113 -110 -195 -110c-92 0 -154 61 -154 145
c0 94 70 160 210 204c-37 52 -48 87 -48 128c0 101 80 159 164 159c72 0 132 -47 132 -120c0 -55 -29 -123 -163 -171c37 -53 63 -93 86 -146c60 81 106 196 182 196zM200 35c69 0 118 38 163 91c-30 82 -67 128 -107 182c-123 -43 -157 -106 -157 -169
c0 -64 44 -104 101 -104zM252 484c0 -24 6 -59 53 -129c98 42 122 99 122 144s-26 85 -81 85c-49 0 -94 -34 -94 -100z" />
    <glyph glyph-name="exclam" unicode="!" horiz-adv-x="256" 
d="M109 193c40 178 61 370 80 442c7 27 23 39 44 39c27 0 39 -18 39 -38c0 -29 -27 -102 -67 -219c-18 -52 -45 -131 -74 -230zM80 -14c-26 0 -44 21 -44 48c0 31 22 56 50 56c26 0 44 -21 44 -48c0 -31 -22 -56 -50 -56z" />
    <glyph glyph-name="exclamdown" unicode="&#xa1;" horiz-adv-x="256" 
d="M203 467c-40 -178 -61 -370 -80 -442c-7 -27 -23 -39 -44 -39c-27 0 -39 18 -39 38c0 29 27 102 67 219c18 52 45 131 74 230zM232 674c26 0 44 -21 44 -48c0 -31 -22 -56 -50 -56c-26 0 -44 21 -44 48c0 31 22 56 50 56z" />
    <glyph glyph-name="question" unicode="?" horiz-adv-x="399" 
d="M327 246c-33 -46 -76 -69 -118 -69c-56 0 -93 35 -93 85c0 44 29 80 122 129c107 57 146 89 146 157c0 43 -26 90 -104 90c-51 0 -82 -19 -100 -38c19 -12 27 -28 27 -46c0 -30 -21 -52 -49 -52c-25 0 -48 19 -48 54c0 59 79 118 175 118c123 0 170 -74 170 -136
c0 -87 -67 -133 -179 -191c-74 -38 -101 -57 -100 -91c1 -27 22 -43 46 -43c28 0 55 13 85 49zM154 -14c-26 0 -44 21 -44 48c0 31 22 56 50 56c26 0 44 -21 44 -48c0 -31 -22 -56 -50 -56z" />
    <glyph glyph-name="questiondown" unicode="&#xbf;" horiz-adv-x="399" 
d="M127 414c33 46 76 69 118 69c56 0 93 -35 93 -85c0 -44 -29 -80 -122 -129c-107 -57 -146 -89 -146 -157c0 -43 26 -90 104 -90c51 0 82 19 100 38c-19 12 -27 28 -27 46c0 30 21 52 49 52c25 0 48 -19 48 -54c0 -59 -79 -118 -175 -118c-123 0 -170 74 -170 136
c0 87 67 133 179 191c74 38 101 57 100 91c-1 27 -22 43 -46 43c-28 0 -55 -13 -85 -49zM300 674c26 0 44 -21 44 -48c0 -31 -22 -56 -50 -56c-26 0 -44 21 -44 48c0 31 22 56 50 56z" />
    <glyph glyph-name="quotedblleft" unicode="&#x201c;" horiz-adv-x="364" 
d="M273 662l9 -28c-79 -30 -106 -65 -116 -95l2 -2c4 2 13 4 17 4c20 0 36 -14 36 -40c0 -25 -18 -55 -51 -55c-32 0 -49 25 -49 59c0 51 37 118 152 157zM437 662l9 -28c-79 -30 -106 -65 -116 -95l2 -2c4 2 13 4 17 4c20 0 36 -14 36 -40c0 -25 -18 -55 -51 -55
c-32 0 -49 25 -49 59c0 51 37 118 152 157z" />
    <glyph glyph-name="quotedblright" unicode="&#x201d;" horiz-adv-x="364" 
d="M93 446l-9 28c79 30 106 65 116 95l-2 2c-4 -2 -13 -4 -17 -4c-20 0 -36 14 -36 40c0 25 18 55 51 55c32 0 49 -25 49 -59c0 -51 -37 -118 -152 -157zM257 446l-9 28c79 30 106 65 116 95l-2 2c-4 -2 -13 -4 -17 -4c-20 0 -36 14 -36 40c0 25 18 55 51 55
c32 0 49 -25 49 -59c0 -51 -37 -118 -152 -157z" />
    <glyph glyph-name="quoteleft" unicode="&#x2018;" horiz-adv-x="200" 
d="M273 662l9 -28c-79 -30 -106 -65 -116 -95l2 -2c4 2 13 4 17 4c20 0 36 -14 36 -40c0 -25 -18 -55 -51 -55c-32 0 -49 25 -49 59c0 51 37 118 152 157z" />
    <glyph glyph-name="quoteright" unicode="&#x2019;" horiz-adv-x="200" 
d="M93 446l-9 28c79 30 106 65 116 95l-2 2c-4 -2 -13 -4 -17 -4c-20 0 -36 14 -36 40c0 25 18 55 51 55c32 0 49 -25 49 -59c0 -51 -37 -118 -152 -157z" />
    <glyph glyph-name="quotedblbase" unicode="&#x201e;" horiz-adv-x="364" 
d="M-53 -130l-9 28c79 30 106 65 116 95l-2 2c-4 -2 -13 -4 -17 -4c-20 0 -36 14 -36 40c0 25 18 55 51 55c32 0 49 -25 49 -59c0 -51 -37 -118 -152 -157zM111 -130l-9 28c79 30 106 65 116 95l-2 2c-4 -2 -13 -4 -17 -4c-20 0 -36 14 -36 40c0 25 18 55 51 55
c32 0 49 -25 49 -59c0 -51 -37 -118 -152 -157z" />
    <glyph glyph-name="quotesinglbase" unicode="&#x201a;" horiz-adv-x="200" 
d="M-53 -130l-9 28c79 30 106 65 116 95l-2 2c-4 -2 -13 -4 -17 -4c-20 0 -36 14 -36 40c0 25 18 55 51 55c32 0 49 -25 49 -59c0 -51 -37 -118 -152 -157z" />
    <glyph glyph-name="guillemotleft" unicode="&#xab;" horiz-adv-x="486" 
d="M173 33l-109 156c-13 18 -18 27 -18 35c0 11 7 20 38 45l184 146l23 -23l-178 -172l90 -169zM362 33l-109 156c-13 18 -18 27 -18 35c0 11 7 20 38 45l184 146l23 -23l-178 -172l90 -169z" />
    <glyph glyph-name="guillemotright" unicode="&#xbb;" horiz-adv-x="486" 
d="M313 415l109 -156c13 -18 18 -27 18 -35c0 -11 -7 -20 -38 -45l-184 -146l-23 23l178 172l-90 169zM124 415l109 -156c13 -18 18 -27 18 -35c0 -11 -7 -20 -38 -45l-184 -146l-23 23l178 172l-90 169z" />
    <glyph glyph-name="guilsinglleft" unicode="&#x2039;" horiz-adv-x="297" 
d="M173 33l-109 156c-13 18 -18 27 -18 35c0 11 7 20 38 45l184 146l23 -23l-178 -172l90 -169z" />
    <glyph glyph-name="guilsinglright" unicode="&#x203a;" horiz-adv-x="297" 
d="M124 415l109 -156c13 -18 18 -27 18 -35c0 -11 -7 -20 -38 -45l-184 -146l-23 23l178 172l-90 169z" />
    <glyph glyph-name="hyphen" unicode="-" horiz-adv-x="366" 
d="M52 210l14 55h256l-14 -55h-256z" />
    <glyph glyph-name="endash" unicode="&#x2013;" horiz-adv-x="540" 
d="M52 211l12 47h430l-12 -47h-430z" />
    <glyph glyph-name="emdash" unicode="&#x2014;" horiz-adv-x="790" 
d="M52 211l12 47h680l-12 -47h-680z" />
    <glyph glyph-name="underscore" unicode="_" horiz-adv-x="440" 
d="M-57 0l11 45h444l-11 -45h-444z" />
    <glyph glyph-name="slash" unicode="/" horiz-adv-x="408" 
d="M-148 -192l610 897l40 -20l-610 -897z" />
    <glyph glyph-name="backslash" unicode="\" horiz-adv-x="408" 
d="M346 -199l-42 -8l-162 897l42 8z" />
    <glyph glyph-name="bar" unicode="|" horiz-adv-x="270" 
d="M7 -199l224 897l44 -7l-224 -897z" />
    <glyph glyph-name="parenleft" unicode="(" horiz-adv-x="361" 
d="M248 -157c-108 87 -171 199 -171 346c0 203 114 437 386 538l12 -32c-229 -99 -332 -324 -332 -518c0 -124 44 -225 130 -306z" />
    <glyph glyph-name="parenright" unicode=")" horiz-adv-x="361" 
d="M145 727c108 -87 171 -199 171 -346c0 -203 -114 -437 -386 -538l-12 32c229 99 332 324 332 518c0 124 -44 225 -130 306z" />
    <glyph glyph-name="bracketleft" unicode="[" horiz-adv-x="334" 
d="M-3 -149l216 868h236l-9 -38h-171l-198 -792h171l-9 -38h-236z" />
    <glyph glyph-name="bracketright" unicode="]" horiz-adv-x="334" 
d="M369 719l-216 -868h-236l9 38h171l198 792h-171l9 38h236z" />
    <glyph glyph-name="braceleft" unicode="{" horiz-adv-x="388" 
d="M279 -150c-99 22 -157 68 -157 137c0 73 50 163 50 212c0 39 -34 67 -115 67h-30l10 39h30c53 0 96 13 127 44c74 74 9 228 99 318c42 42 106 60 189 54l-9 -34c-60 0 -101 -14 -126 -39c-72 -72 -22 -237 -96 -311c-30 -30 -69 -45 -112 -52v-1c58 -14 90 -47 90 -93
c0 -55 -45 -145 -45 -209c0 -36 17 -77 104 -98z" />
    <glyph glyph-name="braceright" unicode="}" horiz-adv-x="388" 
d="M109 721c99 -22 157 -68 157 -137c0 -73 -50 -163 -50 -212c0 -39 34 -67 115 -67h30l-10 -39h-30c-53 0 -96 -13 -127 -44c-74 -74 -9 -228 -99 -318c-42 -42 -106 -60 -189 -54l9 34c60 0 101 14 126 39c72 72 22 237 96 311c30 30 69 45 112 52v1
c-58 14 -90 47 -90 93c0 55 45 145 45 209c0 36 -17 77 -104 98z" />
    <glyph glyph-name="at" unicode="@" horiz-adv-x="908" 
d="M634 -53l15 -30c-66 -38 -155 -63 -238 -63c-207 0 -353 121 -353 334c0 275 218 486 472 486c183 0 323 -115 323 -303c0 -200 -118 -316 -230 -316c-72 0 -108 44 -100 112l-7 3c-43 -61 -88 -97 -140 -97c-62 0 -108 46 -108 127c0 132 103 270 213 270
c42 0 83 -24 95 -82l24 77h56l-74 -246c-27 -90 -7 -128 52 -128c91 0 180 110 180 279c0 165 -117 268 -289 268c-238 0 -428 -207 -428 -451c0 -184 123 -297 317 -297c81 0 156 22 220 57zM395 117c81 0 163 137 163 224c0 35 -18 93 -74 93c-80 0 -155 -125 -155 -232
c0 -56 27 -85 66 -85z" />
    <glyph glyph-name="copyright" unicode="&#xa9;" horiz-adv-x="787" 
d="M431 -32c-199 0 -357 157 -357 362c0 203 158 360 357 360c200 0 358 -157 358 -360c0 -205 -158 -362 -358 -362zM431 -1c181 0 322 145 322 331c0 184 -141 329 -322 329c-179 0 -321 -145 -321 -329c0 -186 142 -331 321 -331zM432 144c-96 0 -164 74 -164 188
c0 110 72 189 166 189c50 0 84 -19 106 -45l11 43h29v-132h-24c-21 65 -57 104 -119 104c-76 0 -119 -64 -119 -155c0 -103 48 -161 122 -161c63 0 104 43 115 116h28c-12 -94 -67 -147 -151 -147z" />
    <glyph glyph-name="published" unicode="&#x2117;" horiz-adv-x="787" 
d="M431 -32c-199 0 -357 157 -357 362c0 203 158 360 357 360c200 0 358 -157 358 -360c0 -205 -158 -362 -358 -362zM431 -1c181 0 322 145 322 331c0 184 -141 329 -322 329c-179 0 -321 -145 -321 -329c0 -186 142 -331 321 -331zM288 153v26h61v308h-61v26h170
c107 0 137 -48 137 -102c0 -62 -48 -110 -137 -110h-63v-122h67v-26h-174zM395 327h56c65 0 95 37 95 85c0 44 -25 75 -93 75h-58v-160z" />
    <glyph glyph-name="registered.alt" horiz-adv-x="787" 
d="M431 -32c-199 0 -357 157 -357 362c0 203 158 360 357 360c200 0 358 -157 358 -360c0 -205 -158 -362 -358 -362zM431 -1c181 0 322 145 322 331c0 184 -141 329 -322 329c-179 0 -321 -145 -321 -329c0 -186 142 -331 321 -331zM373 315v-136h62v-26h-169v26h61v307
h-61v27h185c81 0 125 -38 125 -94c0 -38 -26 -78 -88 -89v-1c50 -13 68 -36 71 -80l4 -46c2 -18 9 -25 21 -25c11 0 19 5 27 24l18 -7c-11 -31 -29 -49 -61 -49c-33 0 -53 15 -54 65l-2 44c-2 42 -17 60 -72 60h-67zM373 340h66c62 0 87 33 87 80c0 42 -26 66 -80 66h-73
v-146z" />
    <glyph glyph-name="registered" unicode="&#xae;" horiz-adv-x="517" 
d="M327 248c-125 0 -221 95 -221 222s96 220 221 220c126 0 222 -93 222 -220s-96 -222 -222 -222zM327 274c116 0 191 80 191 196c0 115 -75 194 -191 194c-114 0 -190 -79 -190 -194c0 -116 76 -196 190 -196zM294 460v-80h37v-21h-109v21h36v185h-36v22h114
c69 0 89 -31 89 -60c0 -24 -19 -49 -66 -55v-3c38 -6 52 -24 55 -49l2 -25c1 -13 4 -17 11 -17c6 0 10 3 16 20l15 -6c-7 -22 -20 -38 -41 -38c-23 0 -36 13 -39 47l-2 22c-2 25 -13 37 -43 37h-39zM294 480h38c32 0 52 15 52 44c0 28 -18 41 -49 41h-41v-85z" />
    <glyph glyph-name="servicemark" unicode="&#x2120;" horiz-adv-x="767" 
d="M86 349l26 106h22c12 -63 48 -84 90 -84c37 0 65 22 65 55c0 29 -20 42 -66 62c-41 18 -79 38 -79 82c0 47 43 85 103 85c35 0 62 -14 80 -33l15 32h24l-24 -100h-21c-10 67 -44 78 -76 78s-62 -20 -62 -52c0 -30 26 -42 61 -58c51 -23 84 -42 84 -86
c0 -50 -46 -88 -107 -88c-35 0 -70 14 -93 41l-17 -40h-25zM358 355l6 25h46l61 244h-46l6 24h114l23 -238h1l150 238h112l-6 -24h-45l-61 -244h45l-6 -25h-126l6 25h37l59 236h-5l-167 -261h-28l-30 261h-6l-59 -236h40l-6 -25h-115z" />
    <glyph glyph-name="trademark" unicode="&#x2122;" horiz-adv-x="804" 
d="M395 355l6 24h46l61 245h-46l6 24h114l23 -238h1l150 238h112l-6 -24h-45l-61 -245h45l-6 -24h-126l6 24h37l59 237h-5l-167 -261h-28l-30 261h-6l-59 -237h40l-6 -24h-115zM135 355l6 24h58l62 245h-50c-32 0 -35 -13 -62 -81h-22l27 105h270l-27 -105h-20
c7 68 8 81 -24 81h-48l-62 -245h58l-6 -24h-160z" />
    <glyph glyph-name="asterisk" unicode="*" horiz-adv-x="385" 
d="M313 416c-10 25 -12 81 -17 108l-12 2c-16 -22 -47 -70 -66 -86c-16 -15 -31 -15 -45 1c-13 15 -11 31 6 44c19 16 73 39 97 51v11c-26 9 -82 23 -103 36c-18 12 -24 27 -13 44c11 18 27 20 46 7c20 -13 57 -57 76 -76l11 3c1 29 -3 85 2 109c6 22 18 31 40 25
c19 -5 24 -19 18 -41c-5 -22 -36 -71 -48 -95l8 -9c24 8 79 30 104 31c21 1 33 -6 35 -28c1 -20 -8 -30 -32 -32c-23 -1 -81 13 -108 17l-5 -11c16 -21 52 -66 61 -89c8 -21 5 -34 -15 -42c-17 -7 -32 -1 -40 20z" />
    <glyph glyph-name="dagger" unicode="&#x2020;" horiz-adv-x="518" 
d="M401 630l-72 -184c36 -20 74 -27 95 -27c3 0 8 0 12 1c-13 34 7 74 42 74c23 0 40 -16 40 -43c0 -24 -17 -64 -80 -64c-32 0 -70 7 -116 31l-56 -287l-36 -146c-11 -48 -43 -85 -50 -83c-8 2 -19 50 -7 97l36 146l88 285c-36 20 -74 27 -95 27c-3 0 -8 0 -12 -1
c13 -34 -7 -74 -42 -74c-23 0 -40 16 -40 43c0 24 17 64 80 64c32 0 70 -7 116 -31l21 191l13 18c11 14 21 30 34 30c21 0 23 -24 26 -45z" />
    <glyph glyph-name="daggerdbl" unicode="&#x2021;" horiz-adv-x="518" 
d="M261 169c36 -20 74 -27 95 -27c3 0 8 0 12 1c-13 34 7 74 42 74c23 0 40 -16 40 -43c0 -24 -17 -64 -80 -64c-32 0 -70 7 -116 31l-21 -191l-13 -18c-11 -14 -21 -30 -34 -30c-21 0 -23 24 -26 45l-3 22l72 184c-36 20 -74 27 -95 27c-3 0 -8 0 -12 -1
c13 -34 -7 -74 -42 -74c-23 0 -40 16 -40 43c0 24 17 64 80 64c32 0 70 -7 116 -31l16 127l45 122c-36 20 -74 27 -95 27c-3 0 -8 0 -12 -1c13 -34 -7 -74 -42 -74c-23 0 -40 16 -40 43c0 24 17 64 80 64c32 0 70 -7 116 -31l21 191l13 18c11 14 21 30 34 30
c21 0 23 -24 26 -45l3 -22l-72 -184c36 -20 74 -27 95 -27c3 0 8 0 12 1c-13 34 7 74 42 74c23 0 40 -16 40 -43c0 -24 -17 -64 -80 -64c-32 0 -70 7 -116 31l-16 -127z" />
    <glyph glyph-name="asciicircum" unicode="^" horiz-adv-x="333" 
d="M106 508l162 195h36l66 -195h-28l-69 124l-133 -124h-34z" />
    <glyph glyph-name="asciitilde" unicode="~" horiz-adv-x="371" 
d="M147 322c-29 0 -46 -30 -63 -69h-31c34 92 61 120 103 120c52 0 82 -64 119 -64c29 0 47 30 64 69h30c-34 -92 -62 -120 -104 -120c-52 0 -81 64 -118 64z" />
    <glyph glyph-name="dollar" unicode="$" horiz-adv-x="509" 
d="M358 694l38 -7l-17 -68c81 -17 141 -70 141 -125c0 -38 -23 -69 -54 -69c-29 0 -43 21 -43 41c0 29 21 50 44 56c-20 32 -57 52 -97 60l-60 -244c106 -52 140 -92 140 -155c0 -95 -83 -183 -213 -183h-12l-21 -84l-38 7l20 81c-89 16 -166 69 -166 133c0 35 19 70 58 70
c26 0 45 -20 45 -45c0 -30 -20 -52 -43 -61c13 -21 54 -50 115 -61l63 248c-102 49 -143 85 -143 154c0 86 76 182 212 182c4 0 9 -1 13 -1zM177 463c0 -43 29 -74 97 -108l58 233h-10c-99 0 -145 -71 -145 -125zM388 163c0 40 -24 72 -94 108l-60 -235h11
c80 0 143 55 143 127z" />
    <glyph glyph-name="sterling" unicode="&#xa3;" horiz-adv-x="569" 
d="M458 288h-176c0 -29 -4 -86 -56 -165c23 -10 44 -21 64 -32c39 -22 74 -42 105 -42c41 0 64 34 91 106l29 -8c-30 -117 -71 -162 -134 -162c-54 0 -97 32 -139 63c-14 10 -27 20 -41 29c-34 -61 -64 -93 -111 -93c-40 0 -74 26 -74 71c0 47 39 91 107 91
c25 0 49 -5 71 -11c27 58 27 108 27 119s-1 23 -3 34h-147l10 41h129c-7 28 -13 56 -13 88c0 141 114 221 217 221c116 0 165 -68 165 -127c0 -42 -25 -78 -62 -78c-29 0 -48 21 -48 49c0 30 22 54 54 60c-17 42 -68 57 -107 57c-85 0 -150 -62 -150 -160
c0 -45 9 -75 13 -110h189zM94 21c34 0 55 30 78 73c-17 8 -36 14 -55 14c-42 0 -60 -27 -60 -51c0 -23 16 -36 37 -36z" />
    <glyph glyph-name="Euro" unicode="&#x20ac;" horiz-adv-x="638" 
d="M433 351h-212c-7 -30 -12 -59 -14 -88h205l-9 -39h-196c4 -116 60 -188 157 -188c75 0 140 54 176 144l37 -11c-37 -102 -119 -185 -229 -185c-138 0 -208 105 -209 240h-94l9 39h86c3 30 8 59 15 88h-80l9 39h83c51 141 165 248 301 248c104 0 175 -66 175 -136
c0 -44 -25 -77 -61 -77c-29 0 -48 20 -48 47c0 25 15 51 47 66c-27 46 -78 58 -113 58c-117 0 -197 -95 -235 -206h209z" />
    <glyph glyph-name="yen" unicode="&#xa5;" horiz-adv-x="660" 
d="M127 302h167l-89 285h-80l10 38h247l-10 -38h-89l81 -270l222 270h-87l10 38h213l-10 -38h-71l-240 -285h160l-9 -39h-184l-18 -75h186l-9 -39h-187l-26 -108h119l-10 -41h-304l10 41h120l27 108h-183l9 39h183l19 75h-186z" />
    <glyph glyph-name="cent" unicode="&#xa2;" horiz-adv-x="440" 
d="M293 537l34 -7l-19 -79c71 -5 120 -45 120 -97c0 -33 -19 -63 -48 -63c-21 0 -41 14 -41 40c0 21 12 41 32 56c-15 21 -42 30 -72 32l-97 -386h11c51 0 97 22 144 107l25 -15c-42 -79 -95 -134 -184 -134h-7l-23 -95l-34 7l23 93c-76 16 -121 83 -121 173
c0 130 98 270 236 282zM102 173c0 -69 26 -114 68 -132l93 375c-106 -19 -161 -147 -161 -243z" />
    <glyph glyph-name="numbersign" unicode="#" horiz-adv-x="653" 
d="M99 414l11 44h150l55 198l49 -6l-54 -192h164l55 198l49 -6l-54 -192h138l-11 -44h-139l-58 -208h149l-11 -44h-150l-57 -205l-49 6l55 199h-163l-57 -205l-49 6l55 199h-137l11 44h138l58 208h-148zM298 414l-58 -208h163l58 208h-163z" />
    <glyph glyph-name="paragraph" unicode="&#xb6;" horiz-adv-x="632" 
d="M253 -104l69 275c-164 8 -215 85 -215 171c0 166 129 259 322 259h260l-10 -40h-90l-166 -665h-44l166 665h-82l-166 -665h-44z" />
    <glyph glyph-name="section" unicode="&#xa7;" horiz-adv-x="488" 
d="M450 262c0 -63 -51 -115 -145 -135c48 -32 78 -65 80 -108c3 -73 -66 -137 -172 -137c-90 0 -183 43 -183 118c0 38 26 67 56 67c28 0 44 -22 44 -44c0 -23 -15 -45 -37 -57c6 -11 40 -46 120 -46c77 0 113 44 110 87c-2 33 -29 63 -109 109c-98 57 -129 90 -129 143
c0 63 51 115 145 135c-46 31 -70 66 -70 107c0 74 72 138 172 138c90 0 163 -45 163 -111c0 -36 -25 -64 -53 -64c-27 0 -42 21 -42 42s15 42 35 54c-7 11 -36 41 -105 41c-71 0 -108 -44 -108 -88c0 -31 25 -65 100 -109c96 -57 128 -89 128 -142zM294 355l-27 15
c-72 -9 -116 -51 -116 -104c0 -36 25 -64 90 -100l27 -15c72 9 116 51 116 104c0 36 -27 65 -90 100z" />
    <glyph glyph-name="ordfeminine" unicode="&#xaa;" horiz-adv-x="398" 
d="M360 637h50l-55 -202c-10 -37 -13 -55 -13 -69c0 -8 1 -25 16 -25c20 0 41 34 60 87l25 -8c-34 -93 -63 -114 -95 -114c-29 0 -51 18 -51 58c0 7 1 13 1 15l-5 2c-28 -42 -66 -75 -111 -75c-50 0 -87 39 -87 107c0 70 32 135 76 179c31 31 69 49 101 49
c37 0 62 -21 71 -66zM197 345c69 0 132 115 132 196c0 24 -8 68 -55 68c-62 0 -128 -104 -128 -194c0 -48 21 -70 51 -70z" />
    <glyph glyph-name="ordmasculine" unicode="&#xba;" horiz-adv-x="390" 
d="M281 641c79 0 125 -57 125 -132c0 -108 -73 -203 -171 -203c-80 0 -126 57 -126 132c0 108 73 203 172 203zM355 522c0 67 -36 90 -71 90c-83 0 -124 -113 -124 -187c0 -67 36 -90 71 -90c83 0 124 113 124 187z" />
    <glyph glyph-name="degree" unicode="&#xb0;" horiz-adv-x="382" 
d="M243 382c66 0 123 60 123 152c0 59 -35 91 -85 91c-66 0 -123 -60 -123 -152c0 -59 35 -91 85 -91zM415 529c0 -91 -70 -184 -173 -184c-87 0 -133 62 -133 133c0 92 70 184 173 184c87 0 133 -62 133 -133z" />
    <glyph glyph-name="percent" unicode="%" horiz-adv-x="755" 
d="M177 267c-68 0 -112 48 -112 121c0 123 97 226 193 226c35 0 64 -13 82 -38c38 -25 73 -30 106 -30c57 0 150 24 214 84l21 -17l-551 -639l-35 26l498 554l-2 3c-34 -22 -102 -45 -157 -45c-23 0 -48 2 -76 12c1 -6 1 -12 1 -18c0 -95 -79 -239 -182 -239zM535 -14
c-68 0 -112 48 -112 121c0 123 97 226 193 226c60 0 101 -34 101 -108c0 -95 -79 -239 -182 -239zM543 24c64 0 135 106 135 200c0 42 -19 69 -58 69c-72 0 -136 -105 -136 -191c0 -51 24 -78 59 -78zM185 305c64 0 135 106 135 200c0 16 -3 30 -9 41c-12 7 -24 16 -37 27
c-4 0 -8 1 -12 1c-72 0 -136 -105 -136 -191c0 -51 24 -78 59 -78z" />
    <glyph glyph-name="quotedbl" unicode="&#x22;" horiz-adv-x="367" 
d="M130 413l-19 11l67 130c29 57 50 98 77 98c20 0 38 -15 38 -34c0 -28 -40 -67 -89 -122zM280 413l-19 11l67 130c29 57 50 98 77 98c20 0 38 -15 38 -34c0 -28 -40 -67 -89 -122z" />
    <glyph glyph-name="quotesingle" unicode="'" horiz-adv-x="221" 
d="M130 413l-19 11l67 130c29 57 50 98 77 98c20 0 38 -15 38 -34c0 -28 -40 -67 -89 -122z" />
    <glyph glyph-name="plus" unicode="+" horiz-adv-x="523" 
d="M203 67l47 189h-184l9 38h184l47 189h42l-47 -189h184l-9 -38h-184l-47 -189h-42z" />
    <glyph glyph-name="minus" unicode="&#x2212;" horiz-adv-x="524" 
d="M454 254h-368l11 42h368z" />
    <glyph glyph-name="divide" unicode="&#xf7;" horiz-adv-x="506" 
d="M465 256h-406l9 38h406zM226 73c-24 0 -41 20 -41 46c0 30 20 54 47 54c24 0 41 -20 41 -46c0 -30 -21 -54 -47 -54zM301 377c-24 0 -41 20 -41 46c0 30 21 54 47 54c24 0 41 -20 41 -46c0 -30 -20 -54 -47 -54z" />
    <glyph glyph-name="equal" unicode="=" horiz-adv-x="526" 
d="M91 343l9 38h406l-9 -38h-406zM47 169l10 38h406l-10 -38h-406z" />
    <glyph glyph-name="multiply" unicode="&#xd7;" horiz-adv-x="506" 
d="M295 272l108 -150l-32 -25l-109 150l-184 -151l-24 31l184 151l-108 150l32 25l109 -150l184 151l24 -31z" />
    <glyph glyph-name="less" unicode="&#x3c;" horiz-adv-x="522" 
d="M393 81l-301 179l8 31l390 178l-12 -46l-333 -151l258 -150z" />
    <glyph glyph-name="greater" unicode="&#x3e;" horiz-adv-x="522" 
d="M144 469l301 -179l-7 -31l-391 -178l11 43l334 151l-259 150z" />
    <glyph glyph-name="plusminus" unicode="&#xb1;" horiz-adv-x="540" 
d="M236 159l41 166h-161l9 36h161l41 166h40l-41 -166h161l-9 -36h-161l-41 -166h-40zM407 32h-368l9 38h368z" />
    <glyph glyph-name="zero.osf" horiz-adv-x="544" 
d="M55 211c0 178 128 345 275 345c112 0 183 -84 183 -227c0 -178 -128 -345 -275 -345c-112 0 -183 84 -183 227zM444 352c0 122 -52 164 -117 164c-136 0 -203 -206 -203 -328s52 -164 117 -164c136 0 203 206 203 328z" />
    <glyph glyph-name="one.osf" horiz-adv-x="413" 
d="M-11 0l10 40h143l101 406c-27 -12 -64 -17 -97 -17c-18 0 -37 2 -51 6l9 33c80 0 152 28 194 81h38l-127 -509h133l-10 -40h-343z" />
    <glyph glyph-name="two.osf" horiz-adv-x="515" 
d="M173 466c20 -10 36 -27 36 -52c0 -26 -18 -53 -51 -53c-30 0 -51 25 -51 60c0 68 86 135 196 135s180 -63 180 -147c0 -112 -95 -166 -211 -194c-160 -39 -191 -91 -203 -136l2 -1c23 13 46 22 76 22c77 0 120 -53 173 -53c47 0 80 40 113 133l29 -5
c-28 -137 -85 -191 -152 -191c-77 0 -114 80 -184 80c-9 0 -27 -2 -37 -6c5 -6 9 -19 9 -28c0 -27 -14 -46 -37 -46c-28 0 -45 27 -45 59c0 72 51 147 223 205c124 42 176 91 176 166c0 64 -52 103 -119 103c-66 0 -105 -28 -123 -51z" />
    <glyph glyph-name="three.osf" horiz-adv-x="494" 
d="M66 -6c7 -10 44 -39 113 -39c95 0 160 62 160 145c0 61 -41 112 -149 112h-12l10 42h21c66 0 120 18 157 55c27 27 39 58 39 102c0 66 -39 106 -113 106c-59 0 -100 -24 -116 -47c19 -12 31 -30 31 -51c0 -26 -20 -50 -48 -50c-31 0 -51 23 -51 54c0 65 84 133 193 133
c116 0 175 -64 175 -147c0 -108 -95 -159 -186 -179v-2c77 -18 120 -71 120 -133c0 -98 -89 -181 -220 -181c-89 0 -191 40 -191 119c0 41 28 69 59 69c29 0 47 -20 47 -48c0 -30 -20 -49 -39 -60z" />
    <glyph glyph-name="four.osf" horiz-adv-x="529" 
d="M293 153l79 318h-2l-302 -318h225zM312 -36h86l-10 -39h-235l10 39h83l36 147h-285l11 42l381 398h69l-99 -398h129l-11 -42h-129z" />
    <glyph glyph-name="five.osf" horiz-adv-x="480" 
d="M199 476l-66 -209c34 19 70 33 116 33c95 0 157 -58 157 -148c0 -110 -90 -238 -237 -238c-98 0 -172 49 -172 120c0 42 26 73 60 73c32 0 48 -22 48 -47c0 -32 -24 -53 -49 -62c7 -15 45 -45 105 -45c118 0 175 112 175 206c0 75 -50 102 -105 102
c-42 0 -86 -18 -120 -47l-33 15l98 314l13 8c54 -26 98 -36 149 -36c57 0 98 12 142 34l10 -19c-47 -53 -99 -81 -164 -81c-50 0 -99 15 -127 27z" />
    <glyph glyph-name="six.osf" horiz-adv-x="504" 
d="M374 626c63 0 137 -31 137 -104c0 -36 -23 -68 -57 -68c-30 0 -48 21 -48 47c0 21 10 46 42 61c-12 12 -33 25 -71 25c-109 0 -197 -106 -239 -273c33 37 86 66 148 66c97 0 163 -68 163 -166c0 -116 -90 -230 -212 -230c-115 0 -181 90 -181 216c0 210 141 426 318 426z
M235 24c95 0 144 98 144 191c0 77 -44 124 -112 124c-79 0 -148 -67 -148 -180c0 -75 39 -135 116 -135z" />
    <glyph glyph-name="seven.osf" horiz-adv-x="494" 
d="M174 -25c-12 -42 -22 -56 -43 -57c-20 -1 -39 15 -39 40c0 68 93 257 283 409c63 51 88 74 107 100l-2 2c-26 -19 -53 -31 -82 -31c-64 0 -107 44 -161 44c-47 0 -85 -36 -126 -165h-38l56 226h40l-18 -83h2c33 52 60 88 113 88c73 0 96 -77 156 -77c18 0 34 6 48 16
c-5 10 -7 18 -7 28c0 24 17 43 42 43c27 0 40 -21 40 -39c0 -43 -34 -78 -127 -157c-123 -105 -192 -207 -244 -387z" />
    <glyph glyph-name="eight.osf" horiz-adv-x="507" 
d="M497 478c0 -81 -57 -138 -145 -168c68 -38 103 -82 103 -141c0 -109 -102 -185 -220 -185c-123 0 -197 73 -197 160c0 66 40 140 164 175c-54 36 -82 84 -82 133c0 94 86 174 200 174c107 0 177 -64 177 -148zM387 156c0 55 -45 92 -148 142c-93 -22 -141 -79 -141 -156
c0 -65 52 -119 140 -119c84 0 149 53 149 133zM188 466c0 -52 43 -97 125 -137c87 29 127 85 127 148s-44 110 -120 110s-132 -53 -132 -121z" />
    <glyph glyph-name="nine.osf" horiz-adv-x="504" 
d="M294 516c-95 0 -146 -98 -146 -198c0 -77 44 -124 112 -124c79 0 149 67 150 187c1 74 -39 135 -116 135zM389 219c-33 -37 -86 -66 -148 -66c-97 0 -163 68 -163 167c0 123 92 236 214 236c115 0 181 -90 181 -216c0 -210 -141 -426 -318 -426c-76 0 -138 43 -138 110
c0 39 23 71 57 71c30 0 48 -21 48 -47c0 -21 -10 -46 -44 -62c13 -19 36 -33 74 -33c109 0 197 106 237 266z" />
    <glyph glyph-name="dollar.osf" horiz-adv-x="501" 
d="M340 619l38 -7l-17 -68c76 -17 135 -69 135 -124c0 -38 -23 -69 -54 -69c-29 0 -43 21 -43 41c0 29 21 50 44 56c-19 31 -55 51 -91 60l-50 -205c100 -41 137 -83 137 -142c0 -84 -81 -161 -201 -161h-12l-21 -82l-38 7l20 80c-85 16 -159 69 -159 132c0 35 19 70 58 70
c26 0 45 -20 45 -45c0 -30 -20 -52 -43 -61c13 -21 51 -49 108 -60l52 210c-95 40 -139 75 -139 136c0 78 74 163 199 163c5 0 10 0 15 -1zM377 140c0 35 -26 65 -92 95l-50 -199h10c72 0 132 43 132 104zM171 410c0 -35 28 -64 94 -92l49 196h-8c-90 0 -135 -58 -135 -104z
" />
    <glyph glyph-name="sterling.osf" horiz-adv-x="560" 
d="M426 243h-169v-8c0 -30 -9 -65 -42 -117c23 -9 43 -20 63 -30c38 -20 72 -39 102 -39c40 0 63 33 88 99l29 -8c-29 -111 -69 -155 -131 -155c-52 0 -94 30 -135 60c-13 9 -26 19 -40 27c-32 -59 -65 -88 -111 -88c-38 0 -71 26 -71 70s39 86 106 86c24 0 47 -4 68 -10
c10 30 13 55 13 76c0 13 -2 25 -4 37h-135l10 41h113c-7 21 -13 44 -13 77c0 125 110 195 219 195c114 0 167 -66 167 -123c0 -41 -25 -76 -62 -76c-29 0 -48 21 -48 48c0 28 23 52 54 58c-17 39 -65 54 -111 54c-89 0 -150 -53 -150 -136c0 -42 9 -70 15 -97h185zM87 21
c31 0 53 28 75 67c-17 8 -35 14 -53 14c-41 0 -59 -25 -59 -47c0 -21 16 -34 37 -34z" />
    <glyph glyph-name="Euro.osf" horiz-adv-x="650" 
d="M420 304h-212c-7 -26 -12 -51 -13 -76h206l-9 -39h-196c8 -99 67 -153 159 -153c84 0 146 52 181 137l37 -11c-36 -97 -117 -178 -231 -178c-136 0 -208 94 -215 205h-95l9 39h87c1 26 5 51 12 76h-80l9 39h84c51 124 167 213 295 213c108 0 181 -64 181 -132
c0 -44 -25 -77 -61 -77c-29 0 -48 20 -48 47c0 24 15 49 47 64c-27 44 -87 56 -118 56c-113 0 -190 -79 -228 -171h208z" />
    <glyph glyph-name="yen.osf" horiz-adv-x="647" 
d="M125 299h128l-71 203h-77l10 38h242l-10 -38h-87l84 -242l211 242h-84l10 38h209l-10 -38h-70l-180 -203h121l-9 -39h-146l-47 -53l-6 -21h183l-9 -39h-183l-26 -106h115l-10 -41h-296l10 41h116l26 106h-178l9 39h179l6 24l-18 50h-151z" />
    <glyph glyph-name="space" unicode=" " horiz-adv-x="174" 
 />
    <glyph glyph-name="uni00A0" unicode="&#xa0;" horiz-adv-x="174" 
 />
    <glyph glyph-name="emspace" unicode="&#x2003;" horiz-adv-x="1000" 
 />
    <glyph glyph-name="enspace" unicode="&#x2002;" horiz-adv-x="500" 
 />
    <glyph glyph-name="threeperemspace" unicode="&#x2004;" horiz-adv-x="333" 
 />
    <glyph glyph-name="fourperemspace" unicode="&#x2005;" horiz-adv-x="250" 
 />
    <glyph glyph-name="thinspace" unicode="&#x2009;" horiz-adv-x="133" 
 />
    <glyph glyph-name="hairspace" unicode="&#x200a;" horiz-adv-x="75" 
 />
    <glyph glyph-name="hfjslug" horiz-adv-x="694" 
d="M644 -200h-208l-8 14h-163l-8 -14h-207v303c18 0 32 14 32 32c0 17 -14 32 -32 32v554h100l30 79h334l29 -79h101v-921zM400 563v-172h15v78h38v14h-38v66h43v14h-58zM184 563v-172h15v79h47v-79h15v172h-15v-79h-47v79h-15zM460 394c4 -2 15 -4 21 -4c20 0 31 11 31 36
v137h-16v-137c0 -16 -5 -22 -16 -22c-5 0 -15 3 -20 6v-16zM349 438l-16 31c13 12 23 26 23 42c0 15 -9 31 -27 31c-17 0 -28 -16 -28 -31s6 -24 14 -39c-15 -12 -23 -28 -23 -45c0 -22 13 -39 31 -39c13 0 22 12 27 24h1l12 -24l11 8l-16 30c5 12 10 25 13 39l-13 3
c-2 -9 -6 -21 -9 -30zM523 323v-46h8v13l7 7l16 -20h9l-19 26l18 20h-10l-21 -24v24h-8zM488 292l10 -15h9l-12 17c6 2 10 8 10 15c0 6 -6 14 -16 14h-21v-46h8v15h12zM426 276c15 0 24 11 24 24c0 12 -10 24 -24 24s-23 -12 -23 -24c0 -13 9 -24 23 -24zM370 301l-13 22h-9
l18 -29v-17h8v17l18 29h-9zM193 323v-46h33v7h-25v13h22v7h-22v12h25v7h-33zM132 323v-46h8v32l25 -32h7v46h-8v-32l-25 32h-7zM241 323l15 -47h8l10 34h1l11 -34h8l14 47h-8l-10 -35h-1l-10 35h-8l-11 -35h-1l-10 35h-8zM327 479c-7 13 -12 22 -12 32s6 19 14 19
s13 -9 13 -19c0 -12 -5 -21 -15 -32zM342 423c-3 -10 -11 -21 -18 -21c-10 0 -17 12 -17 27c0 11 6 24 15 33zM488 299h-12v17h11c6 0 10 -3 10 -8s-4 -9 -9 -9zM426 283c-9 0 -15 8 -15 17c0 8 6 17 15 17s16 -9 16 -17c0 -9 -7 -17 -16 -17z" />
    <glyph glyph-name="i.dot" horiz-adv-x="306" 
d="M279 597c0 -25 -19 -58 -52 -58c-20 0 -39 14 -39 42c0 27 18 59 51 59c23 0 40 -16 40 -43zM227 364c0 -89 -88 -230 -88 -297c0 -11 5 -28 24 -28c29 0 54 44 81 118l27 -9c-45 -125 -84 -157 -124 -157c-43 0 -71 30 -70 83c1 85 90 216 90 305c0 10 -3 31 -22 31
c-31 0 -63 -54 -96 -117l-26 12c42 87 80 147 135 147c43 0 69 -33 69 -88z" />
    <glyph glyph-name="acute" unicode="&#xb4;" horiz-adv-x="238" 
d="M257 608l-92 -85h-32l80 118c39 58 53 76 75 76c17 0 30 -13 30 -30c0 -26 -22 -43 -61 -79z" />
    <glyph glyph-name="hungarumlaut" unicode="&#x2dd;" horiz-adv-x="288" 
d="M193 608l-90 -85h-32l78 118c38 59 49 76 71 76c18 0 30 -13 30 -30c0 -26 -19 -43 -57 -79zM341 608l-90 -85h-32l78 118c38 59 49 76 71 76c18 0 30 -13 30 -30c0 -26 -19 -43 -57 -79z" />
    <glyph glyph-name="caron.alt" horiz-adv-x="238" 
d="M236 647l-55 -108h-26l38 156c11 46 26 56 43 56c14 0 28 -10 28 -30c0 -17 -11 -41 -28 -74z" />
    <glyph glyph-name="grave" unicode="`" horiz-adv-x="238" 
d="M218 640l20 -117h-26l-37 79c-16 36 -32 61 -32 82c0 20 14 33 32 33c27 0 35 -29 43 -77z" />
    <glyph glyph-name="circumflex" unicode="&#x2c6;" horiz-adv-x="299" 
d="M103 524l150 179h34l62 -179h-28l-64 108l-120 -108h-34z" />
    <glyph glyph-name="caron" unicode="&#x2c7;" horiz-adv-x="299" 
d="M396 712l-151 -179h-34l-61 179h28l63 -108l121 108h34z" />
    <glyph glyph-name="breve" unicode="&#x2d8;" horiz-adv-x="336" 
d="M248 530c-70 0 -112 54 -94 143h24c2 -55 25 -89 77 -89s89 34 119 89h24c-26 -89 -80 -143 -150 -143z" />
    <glyph glyph-name="tilde" unicode="&#x2dc;" horiz-adv-x="331" 
d="M194 598c-29 0 -45 -28 -60 -69h-30c28 92 55 122 97 122c52 0 84 -66 121 -66c29 0 45 28 60 69h30c-28 -92 -55 -122 -97 -122c-52 0 -84 66 -121 66z" />
    <glyph glyph-name="macron" unicode="&#xaf;" horiz-adv-x="321" 
d="M115 542l13 53h251l-13 -53h-251z" />
    <glyph glyph-name="dieresis" unicode="&#xa8;" horiz-adv-x="322" 
d="M213 602c0 -31 -20 -56 -46 -56c-24 0 -38 19 -38 44c0 31 20 56 46 56c24 0 38 -19 38 -44zM379 602c0 -31 -20 -56 -46 -56c-24 0 -38 19 -38 44c0 31 20 56 46 56c24 0 38 -19 38 -44z" />
    <glyph glyph-name="dotaccent" unicode="&#x2d9;" horiz-adv-x="192" 
d="M227 582c0 -24 -18 -56 -50 -56c-19 0 -37 13 -37 40c0 26 17 57 49 57c22 0 38 -15 38 -41z" />
    <glyph glyph-name="ring" unicode="&#x2da;" horiz-adv-x="258" 
d="M332 631c0 -55 -43 -114 -117 -114c-48 0 -92 29 -92 86c0 55 43 114 117 114c48 0 92 -29 92 -86zM166 600c0 -31 18 -53 51 -53c42 0 72 40 72 87c0 31 -18 53 -51 53c-42 0 -72 -40 -72 -87z" />
    <glyph glyph-name="commaaccent" unicode="&#x326;" horiz-adv-x="225" 
d="M-67 -275l-10 27c60 23 84 54 93 83l-2 2c-6 -3 -12 -4 -17 -4c-20 0 -35 12 -35 37c0 24 17 53 49 53c31 0 47 -24 47 -57c0 -49 -37 -112 -125 -141z" />
    <glyph glyph-name="cedilla" unicode="&#xb8;" horiz-adv-x="282" 
d="M-67 -165c24 -20 49 -34 82 -34c31 0 60 18 60 53c0 46 -66 45 -99 41l-9 18l120 96h47l-100 -78v-3c55 -5 89 -31 89 -71c0 -55 -51 -90 -106 -90c-38 0 -74 13 -105 41z" />
    <glyph glyph-name="ogonek" unicode="&#x2db;" horiz-adv-x="269" 
d="M88 -201c-24 -20 -53 -32 -85 -32c-40 0 -81 24 -81 76c0 50 37 91 119 146l37 25h36l-38 -30c-80 -63 -101 -98 -101 -134c0 -27 17 -45 46 -45c22 0 41 9 55 17z" />
    </font>
</defs>
</svg>
