<svg id="Outlined_Type" data-name="Outlined Type" xmlns="http://www.w3.org/2000/svg" viewBox="0 0 250 249.78"><defs><style>.cls-1{fill:#1d2c27;}</style></defs><path class="cls-1" d="M126,238.93a3.13,3.13,0,1,0,3.13,3.13A3.13,3.13,0,0,0,126,238.93Z"/><path class="cls-1" d="M226.87,125.23a101,101,0,0,1-91.35,100.55c-.49-6.73-1-14.19-1.31-21.67l-.34-9.17c0-.52.3-.88.87-.28,7.75,8.16,8.16,6.9,11.36,6,3.59-1.05,14.42-5,16-6.11,1.43-1,1-1.53-.62-2.22-8.17-3.44-25.51-11.17-27.94-12.19a.47.47,0,0,1-.29-.42l-.2-5.2a.47.47,0,0,1,.63-.46c4.23,1.58,25.8,10.48,29,11.65,3.48,1.29,5.46,1.13,8.23-.79,2.12-1.47,9.12-9.7,10.28-11.66.43-.73.9-1.45-.49-1.74s-43.27-8.79-47.74-9.63a.48.48,0,0,1-.38-.44l-.2-5.11a.46.46,0,0,1,.53-.48c4.8.75,37.38,6.5,41,7.09,3.91.64,4.76-.85,6.11-2.55s5.88-11.59,6.38-12.52c.93-1.71,1-2.45-.63-2.56-13.65-.88-49.16-3-53.57-3.25a.47.47,0,0,1-.44-.44l-.17-4.77a.47.47,0,0,1,.48-.49c4.58.15,41.26,1.27,43.7,1.19s3.55-.36,4.9-3.2c1.21-2.55,2.75-13.49,2.9-14.7.1-.91.21-1.63-1.36-1.34-12.48,2.3-46.06,6-50.58,6.59a.47.47,0,0,1-.52-.45L131,120a.48.48,0,0,1,.39-.49c3.85-.59,34.56-5.21,38-5.83,3.65-.67,4.3-1.35,5.16-4,.58-1.83,1.21-10.82,1.22-11.78s.1-1.59-1.26-1.19c-20.74,6.06-39.88,10.9-43.35,11.77a.48.48,0,0,1-.59-.44l-.16-4.24a.46.46,0,0,1,.34-.47C134,102.45,159,95.73,161.09,95c2.37-.79,4.37-1.9,4.83-4.67a70.49,70.49,0,0,0,.42-10.11c-.08-1.36-.25-1.71-1.37-1.16-9.41,4.65-30.6,12.58-34.45,14a.48.48,0,0,1-.64-.43l-.15-4.1a.45.45,0,0,1,.29-.45c2.56-1.05,20.54-8.41,23.51-9.7s3.45-2.26,3.73-4.91a41.42,41.42,0,0,0-.14-7.77c-.22-1.51-.11-1.87-2.39-.52C150.16,67.94,133.52,76.6,130,78.43a.47.47,0,0,1-.68-.4l-.16-4a.46.46,0,0,1,.25-.43c1.79-1,12.43-6.66,14.93-8,3.24-1.77,4.15-3.14,4.22-4.66a47,47,0,0,0-.32-7.32c-.29-2.1-.76-2.38-2.14-1.28-6,4.78-14.21,10.16-16.62,11.73a.47.47,0,0,1-.72-.38L128.62,60a.48.48,0,0,1,.17-.39c1.4-1.12,10.29-7.57,10.29-7.57a3.63,3.63,0,0,0,1.16-2.17,36.18,36.18,0,0,0-1-6.65c-.31-.89-.51-1.38-1.48-.41A112.7,112.7,0,0,1,129,50.88c-.5.41-.68.49-.68.07,0-4.14,1.88-12.34-2.21-14.6a.42.42,0,0,0-.22-.05.44.44,0,0,0-.22.05c-4.08,2.26-2.2,10.46-2.2,14.6,0,.42-.19.34-.68-.07a112.24,112.24,0,0,1-8.87-8.06c-1-1-1.16-.48-1.48.41a36.33,36.33,0,0,0-.94,6.65,3.58,3.58,0,0,0,1.15,2.17s8.89,6.45,10.29,7.57a.48.48,0,0,1,.18.39l-.14,3.61a.48.48,0,0,1-.73.38c-2.41-1.57-10.62-7-16.61-11.73-1.38-1.1-1.86-.82-2.15,1.28a47,47,0,0,0-.32,7.32c.07,1.52,1,2.89,4.23,4.66,2.49,1.37,13.13,7.07,14.93,8a.45.45,0,0,1,.24.43l-.15,4a.48.48,0,0,1-.69.4C118.16,76.6,101.53,67.94,97,65.22c-2.28-1.35-2.18-1-2.39.52a40.59,40.59,0,0,0-.14,7.77c.28,2.65.83,3.66,3.72,4.91s21,8.65,23.52,9.7a.47.47,0,0,1,.29.45l-.16,4.1a.47.47,0,0,1-.63.43c-3.86-1.43-25-9.36-34.46-14-1.11-.55-1.28-.2-1.37,1.16a70.72,70.72,0,0,0,.43,10.11c.45,2.77,2.45,3.88,4.83,4.67,2.09.7,27.11,7.42,30.42,8.31a.46.46,0,0,1,.35.47l-.17,4.24a.47.47,0,0,1-.58.44c-3.48-.87-22.61-5.71-43.35-11.77-1.36-.4-1.28.19-1.27,1.19s.64,10,1.23,11.78c.85,2.67,1.5,3.35,5.15,4,3.4.62,34.11,5.24,38,5.83a.49.49,0,0,1,.4.49l-.17,4.39a.47.47,0,0,1-.53.45c-4.52-.56-38.1-4.29-50.57-6.59-1.57-.29-1.47.43-1.36,1.34.14,1.21,1.68,12.15,2.89,14.7,1.35,2.84,2.42,3.11,4.9,3.2s39.13-1,43.7-1.19a.47.47,0,0,1,.48.49l-.17,4.77a.46.46,0,0,1-.44.44c-4.4.28-39.92,2.37-53.57,3.25-1.63.11-1.55.85-.63,2.56.51.93,5,10.81,6.39,12.52s2.2,3.19,6.1,2.55c3.63-.59,36.22-6.34,41-7.09a.47.47,0,0,1,.54.48l-.21,5.11a.46.46,0,0,1-.38.44c-4.47.84-46.42,9.35-47.74,9.63s-.91,1-.48,1.74c1.16,2,8.15,10.19,10.28,11.66,2.77,1.92,4.74,2.08,8.23.79,3.17-1.17,24.73-10.07,29-11.65a.47.47,0,0,1,.63.46l-.2,5.2a.46.46,0,0,1-.29.42c-2.42,1-19.76,8.75-27.94,12.19-1.64.69-2,1.22-.61,2.22,1.61,1.12,12.43,5.06,16,6.11,3.21.94,3.61,2.2,11.36-6,.58-.6.82-.24.87.28l-.34,9.17c-.35,7.48-.82,14.94-1.31,21.67A101,101,0,1,1,226.87,125.23Z"/><path class="cls-1" d="M115.89,234.46l-2.16,15.31-3.37-.48.84-5.94-6-.85-.84,5.94L101,248l2.16-15.3,3.38.48-.93,6.53,6,.85.92-6.53Z"/><path class="cls-1" d="M99.69,231.72l-3.79,15-3.28-.83,3.78-15Z"/><path class="cls-1" d="M92.5,233.61l-2.93.56a4.58,4.58,0,0,0-3-3.9c-1.48-.54-2.74-.37-3.14.75s.47,1.95,2.18,3.17c2.33,1.66,4.8,3.32,3.69,6.36-1,2.71-3.69,3.57-6.82,2.44a7,7,0,0,1-4.69-5.08L80.6,237a4.58,4.58,0,0,0,2.82,3.36c1.36.49,2.31.18,2.63-.69.42-1.16-.51-2-2.22-3.18-2.31-1.62-4.72-3.41-3.63-6.41.84-2.34,3.37-3.78,7.41-2.31A6.92,6.92,0,0,1,92.5,233.61Z"/><path class="cls-1" d="M76.7,223.46,71,234.69l4.09,2.1-1.29,2.53-11.23-5.75L63.81,231l4.11,2.1,5.75-11.23Z"/><path class="cls-1" d="M64.37,225.77c-3.09,4.46-7.49,4.57-10.57,2.44s-4.5-6.27-1.41-10.74,7.49-4.57,10.55-2.45S67.46,221.3,64.37,225.77Zm-9.19-6.37c-1.85,2.67-1.73,5.14.23,6.49s4.31.6,6.16-2.06,1.79-5.19-.19-6.56S57,216.74,55.18,219.4Z"/><path class="cls-1" d="M54.86,209.43l-10.5,11.35-4.26-3.95c-2.79-2.58-3.54-5.13-1.21-7.64a4.13,4.13,0,0,1,5.35-1.05L46,201.2l2.64,2.44L47,210.1l1.44,1.34,4-4.28Zm-8.2,3.94L45,211.79c-1.44-1.33-2.51-1.55-3.58-.41s-.73,2.18.71,3.51l1.71,1.58Z"/><path class="cls-1" d="M44,198.87,32.43,209.1l-2.24-2.54,11.59-10.23Z"/><path class="cls-1" d="M33.5,198.76c-4.37,3.12-8.32,2.12-10.59-1.06s-1.56-5.77.32-7.93l2.63,2.07c-1.15,1.44-1.7,2.76-.65,4.24,1.36,1.9,3.71,1.77,6.31-.09s3.56-4.14,2.2-6c-1-1.48-2.51-1.54-4.54-.76l-1.28-3c3-1.2,5.8-1,8.06,2.2S37.93,195.59,33.5,198.76Z"/><path class="cls-1" d="M31.59,182.72l-16.28,2.44-1.52-2.86,11.14-12.11,1.62,3.05L24,175.87l2.47,4.65,3.61-.57Zm-7.65-1.78-1.7-3.22-3.82,4,0,0Z"/><path class="cls-1" d="M24.21,168.21,9.76,173.69,8.55,170.5,20.43,166,18,159.64l2.58-1Z"/><path class="cls-1" d="M18.94,153.3,2.66,150.91,2,147.74l14.17-8.36.67,3.38-3.17,1.79,1,5.17,3.61.5Zm-6.79-3.93-.7-3.56-4.82,2.75v0Z"/><path class="cls-1" d="M8.44,139.35c-5.35.33-8.18-2.61-8.42-6.51s1.74-5.71,4.47-6.56l1.14,3.16c-1.75.61-2.91,1.43-2.79,3.25C3,135,5,136.15,8.23,136s5.21-1.62,5.07-4c-.11-1.81-1.32-2.64-3.46-3.05l.51-3.23c3.16.56,5.44,2.25,5.68,6.13S13.88,139,8.44,139.35Z"/><path class="cls-1" d="M7.62,123.16c-5.36-.4-7.75-3.7-7.46-7.59s2.5-5.43,5.32-5.89L6.17,113c-1.8.37-3.07,1-3.2,2.84-.18,2.33,1.71,3.73,4.9,4s5.38-.9,5.56-3.24c.13-1.81-.95-2.79-3-3.49l.95-3.13c3,1,5.07,3,4.79,6.85S13.05,123.57,7.62,123.16Z"/><path class="cls-1" d="M9,107c-5.31-1.17-7.08-5.2-6.27-8.85s4.09-6.54,9.4-5.37,7.07,5.19,6.27,8.82S14.29,108.16,9,107Zm2.4-10.92c-3.16-.69-5.4.35-5.92,2.68s1.09,4.22,4.25,4.91,5.48-.31,6-2.66S14.55,96.78,11.39,96.08Z"/><path class="cls-1" d="M14.85,90.21,5.92,86.83l1.2-3.18L16,87c2.09.79,3.56.43,4.28-1.47s-.15-3.09-2.26-3.89L9.15,78.29l1.18-3.12,8.91,3.37c3.56,1.34,5.11,4,3.59,8S18.39,91.55,14.85,90.21Z"/><path class="cls-1" d="M26.06,77.87l-13.52-7.5,1.65-3L26,66.51v0l-8.62-4.78L18.87,59l13.52,7.5-1.52,2.74-12,1.08,0,0,8.7,4.83Z"/><path class="cls-1" d="M36.35,61,26.26,53.38,23.5,57.06l-2.27-1.71L28.8,45.26,31.08,47l-2.77,3.7L38.4,58.23Z"/><path class="cls-1" d="M40.58,55.17,33.06,40.53l2.23-2.35,15,6.68L48,47.37l-3.29-1.54L41,49.66l1.69,3.23Zm-.75-7.81,2.49-2.64-5-2.33,0,0Z"/><path class="cls-1" d="M51.88,43.53l-9.68-12L47,27.61c2.21-1.78,4.73-2.92,6.69-.47a3.39,3.39,0,0,1-.07,4.61l0,0c1.67-.92,3.44-1.08,5,.84,2,2.43.53,5-1.71,6.84ZM48.8,34.36l2-1.57c1.38-1.12,1.6-2.15.85-3.07s-1.75-1-3.16.13l-2,1.59Zm4.07,5.06L55,37.71c1.46-1.18,1.64-2.29.82-3.32s-2-1-3.5.22l-2,1.62Z"/><path class="cls-1" d="M64.06,34.25l-8.42-13,2.84-1.84,8.42,13Z"/><path class="cls-1" d="M70,30.46,62.74,16.79l3-1.59,5.93,11.24,6-3.18L79,25.7Z"/><path class="cls-1" d="M81.32,24.79,75.37,10.52l3.12-1.3,6,14.27Z"/><path class="cls-1" d="M91.08,21.09,87.37,9,83,10.39l-.84-2.72L94.2,4,95,6.67,90.62,8l3.72,12.06Z"/><path class="cls-1" d="M104.78,17.6l-1.1-6.46L96.93,3.26l3.46-.59L104.88,8l2.49-6.53L110.79.9,107,10.57l1.1,6.46Z"/><path class="cls-1" d="M119.72,12.14l2.59-1.48a4.6,4.6,0,0,0,4.14,2.7c1.57,0,2.7-.54,2.72-1.73s-1.08-1.69-3.09-2.29c-2.75-.82-5.62-1.57-5.57-4.81,0-2.89,2.33-4.58,5.65-4.53a7,7,0,0,1,6.1,3.27L129.87,5a4.61,4.61,0,0,0-3.77-2.25c-1.44,0-2.25.59-2.26,1.51C123.82,5.52,125,6,127,6.57c2.7.78,5.57,1.68,5.52,4.88,0,2.49-2,4.67-6.26,4.6A6.9,6.9,0,0,1,119.72,12.14Z"/><path class="cls-1" d="M138,16.5,139.66,4l-4.56-.61.38-2.81L148,2.24l-.37,2.82L143,4.44,141.35,17Z"/><path class="cls-1" d="M149.39,12.25,151.91,3l3.28.9-2.49,9.13c-.59,2.16-.09,3.59,1.86,4.13s3.07-.45,3.67-2.62l2.49-9.13,3.22.88-2.51,9.19c-1,3.67-3.48,5.46-7.63,4.32S148.4,15.9,149.39,12.25Z"/><path class="cls-1" d="M162.72,22.24l6.12-14.19,4.36,1.88c4.33,1.87,6.8,5.12,4.56,10.3s-6.41,5.74-10.69,3.89Zm4.2-1.19,1.45.63c3.09,1.33,4.86.46,6.25-2.76,1.31-3,.73-5-2.38-6.31L170.82,12Z"/><path class="cls-1" d="M176.92,28.7l8-13.26,9,5.42-1.46,2.43-6.11-3.66-1.71,2.85,4.43,2.65-1.39,2.31-4.42-2.65-2,3.3,6.43,3.85-1.42,2.37Z"/><path class="cls-1" d="M188.3,35.67l9.67-12,2.65,2.13-1.11,11.74,0,0,6.17-7.69,2.44,2-9.66,12.06-2.45-2,1-12,0,0-6.21,7.75Z"/><path class="cls-1" d="M203.25,48.67,212.41,40l-3.17-3.33,2.06-2L220,43.85l-2.06,1.95-3.18-3.35-9.16,8.69Z"/><path class="cls-1" d="M213.46,60.49,226.39,52l3.18,4.86c2.09,3.18,2.2,5.83-.67,7.7a4.13,4.13,0,0,1-5.45-.27l-3.35,6.32-2-3,3.11-5.88-1.07-1.65-4.88,3.2Zm8.91-1.84,1.27,1.94c1.08,1.64,2.06,2.12,3.37,1.26s1.23-1.93.16-3.57l-1.27-1.94Z"/><path class="cls-1" d="M221.38,73.08l13.92-6.73,4.58,9.48-2.56,1.24-3.1-6.42-3,1.45,2.25,4.64-2.43,1.18-2.24-4.65-3.46,1.67,3.26,6.75-2.48,1.21Z"/><path class="cls-1" d="M230,83,232.28,85a4.58,4.58,0,0,0-1.16,4.8c.5,1.48,1.41,2.37,2.54,2s1.23-1.58,1.12-3.68c-.15-2.87-.39-5.82,2.68-6.86,2.73-.91,5.09.67,6.15,3.82a7,7,0,0,1-1.05,6.84l-2.46-1.67a4.59,4.59,0,0,0,.87-4.3c-.46-1.37-1.3-1.92-2.18-1.63-1.16.39-1.21,1.62-1.1,3.72.17,2.81.27,5.82-2.76,6.83-2.35.8-5.05-.28-6.42-4.36A6.9,6.9,0,0,1,230,83Z"/><path class="cls-1" d="M231.37,98.88l15.17-3,2.05,10.33-2.79.55-1.39-7-3.26.65,1,5.06-2.65.52-1-5.06-3.77.75L236.2,109l-2.71.54Z"/><path class="cls-1" d="M233.73,110.79l15.85,4.44.21,3.23-15.13,6.48-.22-3.44,3.36-1.37-.35-5.25-3.52-1Zm6.24,4.76.24,3.62,5.13-2.11v0Z"/><path class="cls-1" d="M234.57,127,250,128.09l-.4,5.79c-.26,3.8-1.77,6-5.19,5.74a4.12,4.12,0,0,1-4.17-3.51l-6.49,3,.24-3.58,6-2.82.13-1.95-5.81-.4Zm8.22,3.91-.16,2.32c-.13,2,.36,2.93,1.93,3s2.15-.79,2.28-2.75l.16-2.32Z"/><path class="cls-1" d="M241.12,142.46c5.26,1.09,7.21,4.67,6.42,8.5s-3.18,5.06-6,5.15l-.27-3.34c1.85-.13,3.18-.63,3.55-2.41.48-2.29-1.21-3.92-4.34-4.56s-5.47.19-5.94,2.48c-.37,1.78.58,2.89,2.53,3.85l-1.34,3c-2.9-1.37-4.65-3.61-3.87-7.41C232.64,143.76,235.78,141.36,241.12,142.46Z"/><path class="cls-1" d="M230.07,156.58l14.53,5.28-1.16,3.21-5.64-2-2.08,5.71,5.64,2.05L240.2,174l-14.54-5.29,1.17-3.2,6.2,2.26,2.08-5.71-6.2-2.26Z"/><path class="cls-1" d="M221.55,177.06l13.23,8-2.91,4.81c-1.71,2.83-4,4.95-7.5,2.84s-2.6-5.38-1-8l1.13-1.88L219.8,180Zm5.2,7.1-1.2,2c-1.09,1.81-.8,2.91.47,3.67s2.33.51,3.43-1.31l1.2-2Z"/><path class="cls-1" d="M214,189.17l12.05,9.67-3.63,4.53c-2.38,3-4.87,3.9-7.54,1.75a4.13,4.13,0,0,1-1.42-5.27l-7.05-1.23,2.25-2.8,6.56,1.14,1.23-1.54-4.55-3.64Zm4.5,7.9-1.45,1.81c-1.23,1.53-1.38,2.62-.15,3.6s2.21.57,3.44-1l1.45-1.81Z"/><path class="cls-1" d="M210.54,205.6c3.72,4,2.9,8.28.18,10.84s-7.07,3.09-10.79-.87-2.9-8.28-.19-10.82S206.82,201.64,210.54,205.6Zm-8.14,7.65c2.21,2.36,4.65,2.76,6.39,1.13s1.48-4.09-.73-6.45-4.7-2.83-6.45-1.19S200.18,210.89,202.4,213.25Z"/><path class="cls-1" d="M197.66,217.48c2.76,4,2.33,8.07-1.24,10.55-2.4,1.67-5,2.05-7.95-.5l2.06-2.48c1.76,1.4,3.05,1.53,4.3.66,1-.72,2.53-2.66,0-6.22s-4.8-3.25-6.16-2.31a3.11,3.11,0,0,0-1,4.09l2.21-1.54,1.45,2.08-4.88,3.39-4.42-6.37,2.25-1.56,1.21,1.75,0,0a4.24,4.24,0,0,1,1.93-4.29C191.33,212,195,213.65,197.66,217.48Z"/><path class="cls-1" d="M179.31,220.41l6.95,13.81-5.18,2.61c-3.4,1.71-6,1.52-7.58-1.54a4.12,4.12,0,0,1,.89-5.38l-5.9-4,3.21-1.61,5.49,3.75,1.76-.88-2.63-5.2Zm.82,9.06-2.07,1.05c-1.75.88-2.34,1.8-1.63,3.2s1.77,1.45,3.53.56l2.07-1Z"/><path class="cls-1" d="M167.31,226.41l-.13,16.46-3.06,1.06L153.9,231l3.26-1.12,2.2,2.89,5-1.71v-3.65Zm-3,7.27-3.43,1.18,3.39,4.41,0,0Z"/><path class="cls-1" d="M152,231.59l2.7,15.23-4.42.78L144.87,237h0l-1.19,11.75-4.52.8-2.7-15.22,3.23-.57,1.84,10.39h0a27.66,27.66,0,0,1,.24-3.55l1-7.39,3-.53,3.5,6.59a28.3,28.3,0,0,1,1.52,3.41h0L149,232.13Z"/><path class="cls-1" d="M126,238.93a3.13,3.13,0,1,0,3.13,3.13A3.13,3.13,0,0,0,126,238.93Z"/><path class="cls-1" d="M226.87,125.23a101,101,0,0,1-91.35,100.55c-.49-6.73-1-14.19-1.31-21.67l-.34-9.17c0-.52.3-.88.87-.28,7.75,8.16,8.16,6.9,11.36,6,3.59-1.05,14.42-5,16-6.11,1.43-1,1-1.53-.62-2.22-8.17-3.44-25.51-11.17-27.94-12.19a.47.47,0,0,1-.29-.42l-.2-5.2a.47.47,0,0,1,.63-.46c4.23,1.58,25.8,10.48,29,11.65,3.48,1.29,5.46,1.13,8.23-.79,2.12-1.47,9.12-9.7,10.28-11.66.43-.73.9-1.45-.49-1.74s-43.27-8.79-47.74-9.63a.48.48,0,0,1-.38-.44l-.2-5.11a.46.46,0,0,1,.53-.48c4.8.75,37.38,6.5,41,7.09,3.91.64,4.76-.85,6.11-2.55s5.88-11.59,6.38-12.52c.93-1.71,1-2.45-.63-2.56-13.65-.88-49.16-3-53.57-3.25a.47.47,0,0,1-.44-.44l-.17-4.77a.47.47,0,0,1,.48-.49c4.58.15,41.26,1.27,43.7,1.19s3.55-.36,4.9-3.2c1.21-2.55,2.75-13.49,2.9-14.7.1-.91.21-1.63-1.36-1.34-12.48,2.3-46.06,6-50.58,6.59a.47.47,0,0,1-.52-.45L131,120a.48.48,0,0,1,.39-.49c3.85-.59,34.56-5.21,38-5.83,3.65-.67,4.3-1.35,5.16-4,.58-1.83,1.21-10.82,1.22-11.78s.1-1.59-1.26-1.19c-20.74,6.06-39.88,10.9-43.35,11.77a.48.48,0,0,1-.59-.44l-.16-4.24a.46.46,0,0,1,.34-.47C134,102.45,159,95.73,161.09,95c2.37-.79,4.37-1.9,4.83-4.67a70.49,70.49,0,0,0,.42-10.11c-.08-1.36-.25-1.71-1.37-1.16-9.41,4.65-30.6,12.58-34.45,14a.48.48,0,0,1-.64-.43l-.15-4.1a.45.45,0,0,1,.29-.45c2.56-1.05,20.54-8.41,23.51-9.7s3.45-2.26,3.73-4.91a41.42,41.42,0,0,0-.14-7.77c-.22-1.51-.11-1.87-2.39-.52C150.16,67.94,133.52,76.6,130,78.43a.47.47,0,0,1-.68-.4l-.16-4a.46.46,0,0,1,.25-.43c1.79-1,12.43-6.66,14.93-8,3.24-1.77,4.15-3.14,4.22-4.66a47,47,0,0,0-.32-7.32c-.29-2.1-.76-2.38-2.14-1.28-6,4.78-14.21,10.16-16.62,11.73a.47.47,0,0,1-.72-.38L128.62,60a.48.48,0,0,1,.17-.39c1.4-1.12,10.29-7.57,10.29-7.57a3.63,3.63,0,0,0,1.16-2.17,36.18,36.18,0,0,0-1-6.65c-.31-.89-.51-1.38-1.48-.41A112.7,112.7,0,0,1,129,50.88c-.5.41-.68.49-.68.07,0-4.14,1.88-12.34-2.21-14.6a.42.42,0,0,0-.22-.05.44.44,0,0,0-.22.05c-4.08,2.26-2.2,10.46-2.2,14.6,0,.42-.19.34-.68-.07a112.24,112.24,0,0,1-8.87-8.06c-1-1-1.16-.48-1.48.41a36.33,36.33,0,0,0-.94,6.65,3.58,3.58,0,0,0,1.15,2.17s8.89,6.45,10.29,7.57a.48.48,0,0,1,.18.39l-.14,3.61a.48.48,0,0,1-.73.38c-2.41-1.57-10.62-7-16.61-11.73-1.38-1.1-1.86-.82-2.15,1.28a47,47,0,0,0-.32,7.32c.07,1.52,1,2.89,4.23,4.66,2.49,1.37,13.13,7.07,14.93,8a.45.45,0,0,1,.24.43l-.15,4a.48.48,0,0,1-.69.4C118.16,76.6,101.53,67.94,97,65.22c-2.28-1.35-2.18-1-2.39.52a40.59,40.59,0,0,0-.14,7.77c.28,2.65.83,3.66,3.72,4.91s21,8.65,23.52,9.7a.47.47,0,0,1,.29.45l-.16,4.1a.47.47,0,0,1-.63.43c-3.86-1.43-25-9.36-34.46-14-1.11-.55-1.28-.2-1.37,1.16a70.72,70.72,0,0,0,.43,10.11c.45,2.77,2.45,3.88,4.83,4.67,2.09.7,27.11,7.42,30.42,8.31a.46.46,0,0,1,.35.47l-.17,4.24a.47.47,0,0,1-.58.44c-3.48-.87-22.61-5.71-43.35-11.77-1.36-.4-1.28.19-1.27,1.19s.64,10,1.23,11.78c.85,2.67,1.5,3.35,5.15,4,3.4.62,34.11,5.24,38,5.83a.49.49,0,0,1,.4.49l-.17,4.39a.47.47,0,0,1-.53.45c-4.52-.56-38.1-4.29-50.57-6.59-1.57-.29-1.47.43-1.36,1.34.14,1.21,1.68,12.15,2.89,14.7,1.35,2.84,2.42,3.11,4.9,3.2s39.13-1,43.7-1.19a.47.47,0,0,1,.48.49l-.17,4.77a.46.46,0,0,1-.44.44c-4.4.28-39.92,2.37-53.57,3.25-1.63.11-1.55.85-.63,2.56.51.93,5,10.81,6.39,12.52s2.2,3.19,6.1,2.55c3.63-.59,36.22-6.34,41-7.09a.47.47,0,0,1,.54.48l-.21,5.11a.46.46,0,0,1-.38.44c-4.47.84-46.42,9.35-47.74,9.63s-.91,1-.48,1.74c1.16,2,8.15,10.19,10.28,11.66,2.77,1.92,4.74,2.08,8.23.79,3.17-1.17,24.73-10.07,29-11.65a.47.47,0,0,1,.63.46l-.2,5.2a.46.46,0,0,1-.29.42c-2.42,1-19.76,8.75-27.94,12.19-1.64.69-2,1.22-.61,2.22,1.61,1.12,12.43,5.06,16,6.11,3.21.94,3.61,2.2,11.36-6,.58-.6.82-.24.87.28l-.34,9.17c-.35,7.48-.82,14.94-1.31,21.67A101,101,0,1,1,226.87,125.23Z"/><path class="cls-1" d="M115.89,234.46l-2.16,15.31-3.37-.48.84-5.94-6-.85-.84,5.94L101,248l2.16-15.3,3.38.48-.93,6.53,6,.85.92-6.53Z"/><path class="cls-1" d="M99.69,231.72l-3.79,15-3.28-.83,3.78-15Z"/><path class="cls-1" d="M92.5,233.61l-2.93.56a4.58,4.58,0,0,0-3-3.9c-1.48-.54-2.74-.37-3.14.75s.47,1.95,2.18,3.17c2.33,1.66,4.8,3.32,3.69,6.36-1,2.71-3.69,3.57-6.82,2.44a7,7,0,0,1-4.69-5.08L80.6,237a4.58,4.58,0,0,0,2.82,3.36c1.36.49,2.31.18,2.63-.69.42-1.16-.51-2-2.22-3.18-2.31-1.62-4.72-3.41-3.63-6.41.84-2.34,3.37-3.78,7.41-2.31A6.92,6.92,0,0,1,92.5,233.61Z"/><path class="cls-1" d="M76.7,223.46,71,234.69l4.09,2.1-1.29,2.53-11.23-5.75L63.81,231l4.11,2.1,5.75-11.23Z"/><path class="cls-1" d="M64.37,225.77c-3.09,4.46-7.49,4.57-10.57,2.44s-4.5-6.27-1.41-10.74,7.49-4.57,10.55-2.45S67.46,221.3,64.37,225.77Zm-9.19-6.37c-1.85,2.67-1.73,5.14.23,6.49s4.31.6,6.16-2.06,1.79-5.19-.19-6.56S57,216.74,55.18,219.4Z"/><path class="cls-1" d="M54.86,209.43l-10.5,11.35-4.26-3.95c-2.79-2.58-3.54-5.13-1.21-7.64a4.13,4.13,0,0,1,5.35-1.05L46,201.2l2.64,2.44L47,210.1l1.44,1.34,4-4.28Zm-8.2,3.94L45,211.79c-1.44-1.33-2.51-1.55-3.58-.41s-.73,2.18.71,3.51l1.71,1.58Z"/><path class="cls-1" d="M44,198.87,32.43,209.1l-2.24-2.54,11.59-10.23Z"/><path class="cls-1" d="M33.5,198.76c-4.37,3.12-8.32,2.12-10.59-1.06s-1.56-5.77.32-7.93l2.63,2.07c-1.15,1.44-1.7,2.76-.65,4.24,1.36,1.9,3.71,1.77,6.31-.09s3.56-4.14,2.2-6c-1-1.48-2.51-1.54-4.54-.76l-1.28-3c3-1.2,5.8-1,8.06,2.2S37.93,195.59,33.5,198.76Z"/><path class="cls-1" d="M31.59,182.72l-16.28,2.44-1.52-2.86,11.14-12.11,1.62,3.05L24,175.87l2.47,4.65,3.61-.57Zm-7.65-1.78-1.7-3.22-3.82,4,0,0Z"/><path class="cls-1" d="M24.21,168.21,9.76,173.69,8.55,170.5,20.43,166,18,159.64l2.58-1Z"/><path class="cls-1" d="M18.94,153.3,2.66,150.91,2,147.74l14.17-8.36.67,3.38-3.17,1.79,1,5.17,3.61.5Zm-6.79-3.93-.7-3.56-4.82,2.75v0Z"/><path class="cls-1" d="M8.44,139.35c-5.35.33-8.18-2.61-8.42-6.51s1.74-5.71,4.47-6.56l1.14,3.16c-1.75.61-2.91,1.43-2.79,3.25C3,135,5,136.15,8.23,136s5.21-1.62,5.07-4c-.11-1.81-1.32-2.64-3.46-3.05l.51-3.23c3.16.56,5.44,2.25,5.68,6.13S13.88,139,8.44,139.35Z"/><path class="cls-1" d="M7.62,123.16c-5.36-.4-7.75-3.7-7.46-7.59s2.5-5.43,5.32-5.89L6.17,113c-1.8.37-3.07,1-3.2,2.84-.18,2.33,1.71,3.73,4.9,4s5.38-.9,5.56-3.24c.13-1.81-.95-2.79-3-3.49l.95-3.13c3,1,5.07,3,4.79,6.85S13.05,123.57,7.62,123.16Z"/><path class="cls-1" d="M9,107c-5.31-1.17-7.08-5.2-6.27-8.85s4.09-6.54,9.4-5.37,7.07,5.19,6.27,8.82S14.29,108.16,9,107Zm2.4-10.92c-3.16-.69-5.4.35-5.92,2.68s1.09,4.22,4.25,4.91,5.48-.31,6-2.66S14.55,96.78,11.39,96.08Z"/><path class="cls-1" d="M14.85,90.21,5.92,86.83l1.2-3.18L16,87c2.09.79,3.56.43,4.28-1.47s-.15-3.09-2.26-3.89L9.15,78.29l1.18-3.12,8.91,3.37c3.56,1.34,5.11,4,3.59,8S18.39,91.55,14.85,90.21Z"/><path class="cls-1" d="M26.06,77.87l-13.52-7.5,1.65-3L26,66.51v0l-8.62-4.78L18.87,59l13.52,7.5-1.52,2.74-12,1.08,0,0,8.7,4.83Z"/><path class="cls-1" d="M36.35,61,26.26,53.38,23.5,57.06l-2.27-1.71L28.8,45.26,31.08,47l-2.77,3.7L38.4,58.23Z"/><path class="cls-1" d="M40.58,55.17,33.06,40.53l2.23-2.35,15,6.68L48,47.37l-3.29-1.54L41,49.66l1.69,3.23Zm-.75-7.81,2.49-2.64-5-2.33,0,0Z"/><path class="cls-1" d="M51.88,43.53l-9.68-12L47,27.61c2.21-1.78,4.73-2.92,6.69-.47a3.39,3.39,0,0,1-.07,4.61l0,0c1.67-.92,3.44-1.08,5,.84,2,2.43.53,5-1.71,6.84ZM48.8,34.36l2-1.57c1.38-1.12,1.6-2.15.85-3.07s-1.75-1-3.16.13l-2,1.59Zm4.07,5.06L55,37.71c1.46-1.18,1.64-2.29.82-3.32s-2-1-3.5.22l-2,1.62Z"/><path class="cls-1" d="M64.06,34.25l-8.42-13,2.84-1.84,8.42,13Z"/><path class="cls-1" d="M70,30.46,62.74,16.79l3-1.59,5.93,11.24,6-3.18L79,25.7Z"/><path class="cls-1" d="M81.32,24.79,75.37,10.52l3.12-1.3,6,14.27Z"/><path class="cls-1" d="M91.08,21.09,87.37,9,83,10.39l-.84-2.72L94.2,4,95,6.67,90.62,8l3.72,12.06Z"/><path class="cls-1" d="M104.78,17.6l-1.1-6.46L96.93,3.26l3.46-.59L104.88,8l2.49-6.53L110.79.9,107,10.57l1.1,6.46Z"/><path class="cls-1" d="M119.72,12.14l2.59-1.48a4.6,4.6,0,0,0,4.14,2.7c1.57,0,2.7-.54,2.72-1.73s-1.08-1.69-3.09-2.29c-2.75-.82-5.62-1.57-5.57-4.81,0-2.89,2.33-4.58,5.65-4.53a7,7,0,0,1,6.1,3.27L129.87,5a4.61,4.61,0,0,0-3.77-2.25c-1.44,0-2.25.59-2.26,1.51C123.82,5.52,125,6,127,6.57c2.7.78,5.57,1.68,5.52,4.88,0,2.49-2,4.67-6.26,4.6A6.9,6.9,0,0,1,119.72,12.14Z"/><path class="cls-1" d="M138,16.5,139.66,4l-4.56-.61.38-2.81L148,2.24l-.37,2.82L143,4.44,141.35,17Z"/><path class="cls-1" d="M149.39,12.25,151.91,3l3.28.9-2.49,9.13c-.59,2.16-.09,3.59,1.86,4.13s3.07-.45,3.67-2.62l2.49-9.13,3.22.88-2.51,9.19c-1,3.67-3.48,5.46-7.63,4.32S148.4,15.9,149.39,12.25Z"/><path class="cls-1" d="M162.72,22.24l6.12-14.19,4.36,1.88c4.33,1.87,6.8,5.12,4.56,10.3s-6.41,5.74-10.69,3.89Zm4.2-1.19,1.45.63c3.09,1.33,4.86.46,6.25-2.76,1.31-3,.73-5-2.38-6.31L170.82,12Z"/><path class="cls-1" d="M176.92,28.7l8-13.26,9,5.42-1.46,2.43-6.11-3.66-1.71,2.85,4.43,2.65-1.39,2.31-4.42-2.65-2,3.3,6.43,3.85-1.42,2.37Z"/><path class="cls-1" d="M188.3,35.67l9.67-12,2.65,2.13-1.11,11.74,0,0,6.17-7.69,2.44,2-9.66,12.06-2.45-2,1-12,0,0-6.21,7.75Z"/><path class="cls-1" d="M203.25,48.67,212.41,40l-3.17-3.33,2.06-2L220,43.85l-2.06,1.95-3.18-3.35-9.16,8.69Z"/><path class="cls-1" d="M213.46,60.49,226.39,52l3.18,4.86c2.09,3.18,2.2,5.83-.67,7.7a4.13,4.13,0,0,1-5.45-.27l-3.35,6.32-2-3,3.11-5.88-1.07-1.65-4.88,3.2Zm8.91-1.84,1.27,1.94c1.08,1.64,2.06,2.12,3.37,1.26s1.23-1.93.16-3.57l-1.27-1.94Z"/><path class="cls-1" d="M221.38,73.08l13.92-6.73,4.58,9.48-2.56,1.24-3.1-6.42-3,1.45,2.25,4.64-2.43,1.18-2.24-4.65-3.46,1.67,3.26,6.75-2.48,1.21Z"/><path class="cls-1" d="M230,83,232.28,85a4.58,4.58,0,0,0-1.16,4.8c.5,1.48,1.41,2.37,2.54,2s1.23-1.58,1.12-3.68c-.15-2.87-.39-5.82,2.68-6.86,2.73-.91,5.09.67,6.15,3.82a7,7,0,0,1-1.05,6.84l-2.46-1.67a4.59,4.59,0,0,0,.87-4.3c-.46-1.37-1.3-1.92-2.18-1.63-1.16.39-1.21,1.62-1.1,3.72.17,2.81.27,5.82-2.76,6.83-2.35.8-5.05-.28-6.42-4.36A6.9,6.9,0,0,1,230,83Z"/><path class="cls-1" d="M231.37,98.88l15.17-3,2.05,10.33-2.79.55-1.39-7-3.26.65,1,5.06-2.65.52-1-5.06-3.77.75L236.2,109l-2.71.54Z"/><path class="cls-1" d="M233.73,110.79l15.85,4.44.21,3.23-15.13,6.48-.22-3.44,3.36-1.37-.35-5.25-3.52-1Zm6.24,4.76.24,3.62,5.13-2.11v0Z"/><path class="cls-1" d="M234.57,127,250,128.09l-.4,5.79c-.26,3.8-1.77,6-5.19,5.74a4.12,4.12,0,0,1-4.17-3.51l-6.49,3,.24-3.58,6-2.82.13-1.95-5.81-.4Zm8.22,3.91-.16,2.32c-.13,2,.36,2.93,1.93,3s2.15-.79,2.28-2.75l.16-2.32Z"/><path class="cls-1" d="M241.12,142.46c5.26,1.09,7.21,4.67,6.42,8.5s-3.18,5.06-6,5.15l-.27-3.34c1.85-.13,3.18-.63,3.55-2.41.48-2.29-1.21-3.92-4.34-4.56s-5.47.19-5.94,2.48c-.37,1.78.58,2.89,2.53,3.85l-1.34,3c-2.9-1.37-4.65-3.61-3.87-7.41C232.64,143.76,235.78,141.36,241.12,142.46Z"/><path class="cls-1" d="M230.07,156.58l14.53,5.28-1.16,3.21-5.64-2-2.08,5.71,5.64,2.05L240.2,174l-14.54-5.29,1.17-3.2,6.2,2.26,2.08-5.71-6.2-2.26Z"/><path class="cls-1" d="M221.55,177.06l13.23,8-2.91,4.81c-1.71,2.83-4,4.95-7.5,2.84s-2.6-5.38-1-8l1.13-1.88L219.8,180Zm5.2,7.1-1.2,2c-1.09,1.81-.8,2.91.47,3.67s2.33.51,3.43-1.31l1.2-2Z"/><path class="cls-1" d="M214,189.17l12.05,9.67-3.63,4.53c-2.38,3-4.87,3.9-7.54,1.75a4.13,4.13,0,0,1-1.42-5.27l-7.05-1.23,2.25-2.8,6.56,1.14,1.23-1.54-4.55-3.64Zm4.5,7.9-1.45,1.81c-1.23,1.53-1.38,2.62-.15,3.6s2.21.57,3.44-1l1.45-1.81Z"/><path class="cls-1" d="M210.54,205.6c3.72,4,2.9,8.28.18,10.84s-7.07,3.09-10.79-.87-2.9-8.28-.19-10.82S206.82,201.64,210.54,205.6Zm-8.14,7.65c2.21,2.36,4.65,2.76,6.39,1.13s1.48-4.09-.73-6.45-4.7-2.83-6.45-1.19S200.18,210.89,202.4,213.25Z"/><path class="cls-1" d="M197.66,217.48c2.76,4,2.33,8.07-1.24,10.55-2.4,1.67-5,2.05-7.95-.5l2.06-2.48c1.76,1.4,3.05,1.53,4.3.66,1-.72,2.53-2.66,0-6.22s-4.8-3.25-6.16-2.31a3.11,3.11,0,0,0-1,4.09l2.21-1.54,1.45,2.08-4.88,3.39-4.42-6.37,2.25-1.56,1.21,1.75,0,0a4.24,4.24,0,0,1,1.93-4.29C191.33,212,195,213.65,197.66,217.48Z"/><path class="cls-1" d="M179.31,220.41l6.95,13.81-5.18,2.61c-3.4,1.71-6,1.52-7.58-1.54a4.12,4.12,0,0,1,.89-5.38l-5.9-4,3.21-1.61,5.49,3.75,1.76-.88-2.63-5.2Zm.82,9.06-2.07,1.05c-1.75.88-2.34,1.8-1.63,3.2s1.77,1.45,3.53.56l2.07-1Z"/><path class="cls-1" d="M167.31,226.41l-.13,16.46-3.06,1.06L153.9,231l3.26-1.12,2.2,2.89,5-1.71v-3.65Zm-3,7.27-3.43,1.18,3.39,4.41,0,0Z"/><path class="cls-1" d="M152,231.59l2.7,15.23-4.42.78L144.87,237h0l-1.19,11.75-4.52.8-2.7-15.22,3.23-.57,1.84,10.39h0a27.66,27.66,0,0,1,.24-3.55l1-7.39,3-.53,3.5,6.59a28.3,28.3,0,0,1,1.52,3.41h0L149,232.13Z"/><path class="cls-1" d="M115.93,234.47l-2.15,15.31-3.37-.47.83-5.94-6-.85-.84,5.94L101,248l2.16-15.31,3.37.48-.92,6.53,6,.85.92-6.54Z"/><path class="cls-1" d="M99.73,231.73l-3.79,15-3.28-.83,3.79-15Z"/><path class="cls-1" d="M92.54,233.62l-2.94.56a4.59,4.59,0,0,0-3-3.9c-1.48-.53-2.74-.37-3.14.75s.47,1.95,2.18,3.17c2.33,1.67,4.8,3.32,3.69,6.36-1,2.71-3.69,3.57-6.82,2.44a7,7,0,0,1-4.69-5.08l2.83-.88a4.65,4.65,0,0,0,2.83,3.36c1.36.49,2.32.17,2.63-.7.42-1.15-.51-2-2.22-3.18-2.31-1.61-4.73-3.4-3.63-6.41.84-2.33,3.37-3.77,7.41-2.31A6.92,6.92,0,0,1,92.54,233.62Z"/><path class="cls-1" d="M76.74,223.48,71,234.72l4.09,2.09-1.29,2.53L62.56,233.6l1.3-2.53,4.11,2.1,5.74-11.24Z"/><path class="cls-1" d="M64.41,225.79c-3.09,4.46-7.49,4.57-10.56,2.44S49.34,222,52.43,217.5,59.92,212.92,63,215,67.5,221.32,64.41,225.79Zm-9.2-6.36c-1.84,2.66-1.72,5.13.24,6.49s4.31.59,6.16-2.07,1.78-5.19-.19-6.56S57.06,216.76,55.21,219.43Z"/><path class="cls-1" d="M54.88,209.45l-10.5,11.34-4.26-3.94c-2.8-2.58-3.54-5.13-1.22-7.64a4.12,4.12,0,0,1,5.36-1.05L46,201.22l2.63,2.44L47,210.12l1.44,1.33,4-4.27Zm-8.2,3.94L45,211.81c-1.44-1.33-2.52-1.56-3.58-.41s-.73,2.17.71,3.51l1.7,1.57Z"/><path class="cls-1" d="M44.05,198.9,32.47,209.13l-2.24-2.54,11.58-10.23Z"/><path class="cls-1" d="M33.52,198.8c-4.36,3.12-8.32,2.11-10.59-1.06s-1.55-5.77.32-7.93l2.63,2.07c-1.15,1.44-1.7,2.75-.64,4.23,1.36,1.91,3.7,1.77,6.3-.09s3.57-4.13,2.21-6c-1.06-1.48-2.52-1.54-4.55-.76l-1.28-3c3-1.2,5.81-1,8.07,2.2S38,195.63,33.52,198.8Z"/><path class="cls-1" d="M31.59,182.72l-16.28,2.45-1.52-2.86L24.93,170.2l1.62,3-2.5,2.63,2.46,4.65,3.61-.57ZM24,180.94l-1.71-3.21-3.82,4,0,0Z"/><path class="cls-1" d="M24.21,168.21,9.76,173.68,8.55,170.5,20.43,166,18,159.63l2.58-1Z"/><path class="cls-1" d="M19,153.34,2.66,151,2,147.77l14.19-8.36.66,3.39-3.16,1.79,1,5.17,3.61.5Zm-6.79-3.93-.7-3.57-4.83,2.75v0Z"/><path class="cls-1" d="M8.44,139.37c-5.35.34-8.17-2.6-8.42-6.5s1.73-5.72,4.46-6.56l1.14,3.15c-1.74.62-2.9,1.44-2.78,3.26C3,135.05,5,136.18,8.23,136s5.21-1.63,5.07-4c-.12-1.82-1.32-2.64-3.46-3.05l.51-3.24c3.15.56,5.43,2.26,5.68,6.13C16.28,135.89,13.88,139,8.44,139.37Z"/><path class="cls-1" d="M7.62,123.19c-5.36-.4-7.75-3.7-7.46-7.59s2.49-5.43,5.31-5.89l.7,3.27c-1.81.37-3.07,1-3.2,2.85-.18,2.33,1.71,3.72,4.9,4s5.38-.9,5.55-3.23c.14-1.81-.94-2.79-3-3.49l.94-3.14c3.05,1,5.08,3,4.79,6.85S13.05,123.59,7.62,123.19Z"/><path class="cls-1" d="M9,107c-5.3-1.17-7.07-5.19-6.27-8.84s4.09-6.55,9.4-5.38,7.07,5.19,6.27,8.82S14.29,108.19,9,107Zm2.4-10.91c-3.16-.7-5.4.35-5.91,2.67s1.08,4.22,4.24,4.91,5.48-.31,6-2.66S14.54,96.8,11.38,96.11Z"/><path class="cls-1" d="M14.86,90.21,5.93,86.83l1.21-3.19L16,87c2.09.8,3.57.44,4.29-1.46s-.15-3.09-2.26-3.89L9.16,78.29l1.19-3.12,8.9,3.37c3.56,1.35,5.1,4,3.58,8S18.39,91.55,14.86,90.21Z"/><path class="cls-1" d="M26.05,77.89l-13.52-7.5,1.65-3L26,66.53l0,0-8.62-4.78L18.87,59l13.51,7.5-1.52,2.74-12,1.08,0,0,8.69,4.83Z"/><path class="cls-1" d="M36.34,61,26.25,53.4l-2.76,3.68-2.27-1.7,7.57-10.1L31.06,47l-2.77,3.69,10.09,7.57Z"/><path class="cls-1" d="M40.56,55.18,33,40.55l2.22-2.36,15,6.68-2.36,2.51-3.3-1.53L41,49.67l1.69,3.24Zm-.75-7.81,2.5-2.64-5.05-2.32,0,0Z"/><path class="cls-1" d="M51.88,43.53l-9.68-12L47,27.61c2.21-1.78,4.73-2.92,6.69-.48a3.4,3.4,0,0,1-.07,4.62l0,0c1.67-.92,3.44-1.08,5,.84,2,2.42.54,5-1.71,6.84Zm-3.09-9.17,2-1.57c1.38-1.12,1.6-2.15.85-3.08s-1.75-1-3.16.13l-2,1.6Zm4.08,5.06L55,37.7c1.46-1.17,1.64-2.28.82-3.31s-2-1-3.5.22l-2,1.62Z"/><path class="cls-1" d="M64.06,34.25l-8.42-13,2.84-1.84,8.41,13Z"/><path class="cls-1" d="M70,30.46,62.74,16.79l3-1.59,5.93,11.23,6-3.18L79,25.69Z"/><path class="cls-1" d="M81.32,24.79,75.37,10.52l3.13-1.3,6,14.27Z"/><path class="cls-1" d="M91.08,21.09,87.37,9,83,10.39l-.84-2.72L94.2,4,95,6.67,90.62,8l3.72,12.06Z"/><path class="cls-1" d="M104.78,17.6l-1.1-6.47L96.93,3.25l3.46-.59L104.88,8l2.49-6.53,3.42-.58L107,10.56,108.12,17Z"/><path class="cls-1" d="M119.72,12.14l2.59-1.48a4.6,4.6,0,0,0,4.14,2.7c1.56,0,2.7-.54,2.72-1.73s-1.08-1.69-3.1-2.29c-2.74-.82-5.61-1.57-5.56-4.81,0-2.88,2.33-4.58,5.65-4.53a7,7,0,0,1,6.09,3.28L129.86,5a4.58,4.58,0,0,0-3.77-2.25c-1.44,0-2.24.59-2.26,1.51C123.81,5.52,125,6,127,6.58c2.71.77,5.58,1.67,5.53,4.87,0,2.48-2,4.67-6.26,4.6A6.91,6.91,0,0,1,119.72,12.14Z"/><path class="cls-1" d="M138,16.5,139.68,4l-4.56-.62L135.5.57,148,2.25l-.38,2.81-4.58-.61L141.37,17Z"/><path class="cls-1" d="M149.39,12.25,151.9,3l3.29.9-2.49,9.13c-.59,2.15-.09,3.59,1.86,4.12s3.07-.44,3.66-2.62l2.49-9.13,3.23.88-2.51,9.19c-1,3.67-3.48,5.46-7.63,4.33S148.4,15.9,149.39,12.25Z"/><path class="cls-1" d="M162.74,22.25l6.13-14.19,4.35,1.88c4.34,1.87,6.8,5.12,4.57,10.3-2.31,5.33-6.42,5.74-10.7,3.89Zm4.2-1.19,1.46.63c3.08,1.33,4.85.46,6.24-2.76,1.31-3,.74-5-2.37-6.31L170.85,12Z"/><path class="cls-1" d="M176.94,28.71l8-13.25,9,5.42-1.46,2.43-6.11-3.67-1.71,2.85,4.42,2.66-1.39,2.31-4.42-2.66-2,3.3L187.71,32l-1.42,2.37Z"/><path class="cls-1" d="M188.32,35.69,198,23.63l2.65,2.13-1.12,11.75,0,0,6.17-7.69,2.44,2L198.5,43.86l-2.44-2,1-12,0,0-6.23,7.76Z"/><path class="cls-1" d="M203.26,48.68,212.42,40l-3.16-3.34,2.06-1.95L220,43.87l-2.07,2-3.17-3.35-9.16,8.68Z"/><path class="cls-1" d="M213.47,60.51,226.41,52l3.18,4.86c2.09,3.19,2.2,5.84-.67,7.71a4.13,4.13,0,0,1-5.45-.28l-3.36,6.32-2-3,3.12-5.88-1.08-1.65-4.88,3.2Zm8.91-1.84,1.27,1.94c1.08,1.65,2.07,2.13,3.38,1.27s1.23-1.93.16-3.58l-1.27-1.94Z"/><path class="cls-1" d="M221.4,73.11l13.93-6.73,4.58,9.49-2.56,1.23-3.1-6.41-3,1.44,2.24,4.65L231.08,78l-2.25-4.64L225.37,75l3.26,6.75-2.48,1.2Z"/><path class="cls-1" d="M230,83.08l2.27,2a4.58,4.58,0,0,0-1.17,4.8c.5,1.48,1.41,2.37,2.54,2s1.23-1.58,1.12-3.69c-.14-2.86-.39-5.82,2.68-6.85,2.74-.91,5.1.67,6.16,3.82a7,7,0,0,1-1.06,6.84l-2.45-1.67A4.59,4.59,0,0,0,241,86c-.46-1.37-1.31-1.92-2.18-1.63-1.17.39-1.22,1.62-1.11,3.72.17,2.81.28,5.82-2.75,6.83-2.36.79-5.06-.28-6.43-4.36A6.93,6.93,0,0,1,230,83.08Z"/><path class="cls-1" d="M231.38,98.9l15.16-3,2.05,10.33-2.79.55-1.38-7-3.26.65,1,5.06-2.64.52-1-5.06-3.77.75,1.46,7.35-2.71.54Z"/><path class="cls-1" d="M233.73,110.81l15.85,4.44.21,3.23L234.66,125l-.22-3.44,3.36-1.37-.35-5.25-3.51-1Zm6.24,4.76.24,3.63,5.13-2.12v0Z"/><path class="cls-1" d="M234.57,127.05,250,128.12l-.4,5.79c-.26,3.79-1.77,6-5.19,5.74a4.14,4.14,0,0,1-4.18-3.51l-6.49,3,.25-3.58,6-2.81.14-2-5.82-.4Zm8.21,3.92-.15,2.31c-.14,2,.36,2.94,1.92,3.05s2.15-.8,2.28-2.76l.16-2.31Z"/><path class="cls-1" d="M241.12,142.51c5.26,1.09,7.2,4.67,6.41,8.5s-3.18,5.06-6,5.15l-.27-3.35c1.84-.13,3.18-.62,3.55-2.4.48-2.29-1.21-3.92-4.35-4.57s-5.46.19-5.93,2.48c-.37,1.78.57,2.9,2.53,3.86l-1.34,3c-2.9-1.36-4.66-3.61-3.87-7.41S235.78,141.4,241.12,142.51Z"/><path class="cls-1" d="M230.06,156.62l14.52,5.29-1.17,3.2-5.63-2.05-2.08,5.71,5.63,2-1.17,3.2-14.52-5.29,1.17-3.2,6.2,2.26,2.08-5.71-6.2-2.26Z"/><path class="cls-1" d="M221.53,177.09l13.22,8-2.91,4.8c-1.71,2.83-4,4.95-7.5,2.84s-2.6-5.39-1-8l1.14-1.88-4.7-2.84Zm5.2,7.11-1.2,2c-1.09,1.8-.81,2.9.46,3.67s2.33.51,3.43-1.31l1.21-2Z"/><path class="cls-1" d="M214,189.2,226,198.89l-3.64,4.53c-2.39,3-4.87,3.88-7.54,1.74a4.13,4.13,0,0,1-1.42-5.27l-7-1.25,2.25-2.8,6.56,1.15,1.23-1.53-4.55-3.65Zm4.5,7.91L217,198.92c-1.23,1.53-1.38,2.61-.15,3.59s2.21.58,3.44-.95l1.46-1.81Z"/><path class="cls-1" d="M210.51,205.63c3.72,4,2.9,8.28.17,10.84s-7.07,3.09-10.79-.87-2.9-8.28-.19-10.83S206.79,201.67,210.51,205.63Zm-8.15,7.65c2.22,2.36,4.66,2.76,6.39,1.13s1.49-4.09-.72-6.45-4.7-2.84-6.45-1.19S200.15,210.92,202.36,213.28Z"/><path class="cls-1" d="M197.61,217.52c2.76,4,2.32,8.08-1.25,10.56-2.4,1.67-5,2-8-.51l2.06-2.48c1.76,1.4,3.05,1.53,4.3.66,1-.72,2.54-2.65.06-6.22s-4.81-3.26-6.16-2.31a3.11,3.11,0,0,0-1,4.09l2.22-1.54,1.44,2.08-4.88,3.38L182,218.87l2.25-1.57,1.22,1.76,0,0a4.27,4.27,0,0,1,1.93-4.29C191.28,212.07,195,213.69,197.61,217.52Z"/><path class="cls-1" d="M179.27,220.43l6.95,13.81L181,236.85c-3.4,1.71-6,1.52-7.58-1.54a4.13,4.13,0,0,1,.89-5.38l-5.89-4.05,3.21-1.62,5.49,3.76,1.75-.88-2.61-5.2Zm.82,9.06-2.07,1c-1.76.89-2.35,1.81-1.64,3.21s1.78,1.45,3.53.56l2.07-1Z"/><path class="cls-1" d="M167.27,226.43l-.13,16.46-3.06,1.05L153.86,231l3.26-1.12,2.21,2.89,5-1.71v-3.65Zm-3,7.27-3.44,1.18,3.39,4.4h0Z"/><path class="cls-1" d="M151.93,231.6l2.69,15.22-4.43.78L144.82,237h0l-1.19,11.75-4.52.8-2.69-15.22,3.23-.57,1.83,10.38h0a27.58,27.58,0,0,1,.25-3.55l1-7.39,3-.52,3.49,6.59a26.57,26.57,0,0,1,1.52,3.4h0l-1.87-10.55Z"/></svg>