<svg id="Layer_1" data-name="Layer 1" xmlns="http://www.w3.org/2000/svg" viewBox="0 0 250 249.39"><defs><style>.cls-1{fill:#1d2c27;}</style></defs><title>around_dark_mark</title><path class="cls-1" d="M225.39,125.13a100.42,100.42,0,0,1-90.8,100c-.48-6.69-1-14.11-1.3-21.54l-.33-9.12c0-.51.29-.88.86-.27,7.71,8.1,8.1,6.85,11.29,5.92,3.57-1,14.33-5,15.93-6.07,1.43-1,1-1.52-.61-2.21-8.13-3.42-25.36-11.1-27.77-12.12a.45.45,0,0,1-.29-.41l-.2-5.17a.46.46,0,0,1,.63-.46c4.2,1.57,25.64,10.42,28.78,11.58,3.47,1.28,5.43,1.12,8.18-.79,2.12-1.46,9.07-9.64,10.22-11.58.43-.73.9-1.44-.48-1.73s-43-8.75-47.45-9.58a.47.47,0,0,1-.38-.44l-.2-5.07a.47.47,0,0,1,.53-.48c4.77.74,37.16,6.46,40.76,7.05,3.88.63,4.73-.85,6.07-2.54s5.85-11.52,6.35-12.45c.92-1.69,1-2.43-.63-2.54-13.56-.87-48.86-2.95-53.24-3.22a.47.47,0,0,1-.44-.45l-.17-4.74a.45.45,0,0,1,.48-.48c4.54.15,41,1.26,43.43,1.18s3.53-.36,4.87-3.18c1.2-2.54,2.74-13.41,2.88-14.61.1-.91.21-1.63-1.35-1.34-12.4,2.3-45.78,6-50.27,6.56a.47.47,0,0,1-.52-.45l-.17-4.37a.47.47,0,0,1,.39-.48c3.82-.59,34.35-5.18,37.73-5.8,3.63-.66,4.28-1.34,5.12-4,.59-1.82,1.21-10.76,1.22-11.71s.1-1.58-1.26-1.19c-20.61,6-39.63,10.84-43.08,11.7a.47.47,0,0,1-.58-.43l-.17-4.22a.47.47,0,0,1,.35-.47c3.28-.88,28.16-7.56,30.24-8.25,2.36-.79,4.35-1.89,4.8-4.64a71.32,71.32,0,0,0,.42-10.06c-.08-1.34-.25-1.7-1.36-1.15-9.36,4.62-30.42,12.5-34.25,13.92a.46.46,0,0,1-.63-.42l-.16-4.07a.47.47,0,0,1,.29-.45c2.55-1,20.42-8.36,23.38-9.64s3.42-2.25,3.7-4.88a41,41,0,0,0-.14-7.73c-.22-1.49-.11-1.86-2.37-.51-4.55,2.7-21.08,11.31-24.58,13.13a.47.47,0,0,1-.68-.4l-.16-4a.47.47,0,0,1,.25-.43c1.78-1,12.36-6.62,14.84-8,3.22-1.77,4.13-3.13,4.2-4.64a47.86,47.86,0,0,0-.32-7.28c-.29-2.08-.76-2.36-2.13-1.26-6,4.75-14.12,10.1-16.52,11.65a.47.47,0,0,1-.72-.38l-.14-3.59a.46.46,0,0,1,.18-.38c1.39-1.12,10.22-7.52,10.22-7.52a3.58,3.58,0,0,0,1.15-2.16,36.07,36.07,0,0,0-.94-6.62c-.31-.88-.51-1.36-1.47-.4a111.23,111.23,0,0,1-8.81,8c-.49.41-.68.49-.68.07,0-4.11,1.87-12.26-2.19-14.51a.42.42,0,0,0-.22,0,.38.38,0,0,0-.21,0c-4.07,2.25-2.2,10.4-2.2,14.51,0,.42-.18.34-.67-.07a107.67,107.67,0,0,1-8.81-8c-1-1-1.16-.48-1.48.4a36.21,36.21,0,0,0-.93,6.62,3.58,3.58,0,0,0,1.15,2.16s8.83,6.4,10.22,7.52a.46.46,0,0,1,.18.38l-.14,3.59a.47.47,0,0,1-.72.38c-2.4-1.55-10.56-6.9-16.52-11.65-1.37-1.1-1.84-.82-2.13,1.26a46.57,46.57,0,0,0-.32,7.28c.07,1.51,1,2.87,4.2,4.64,2.48,1.35,13.06,7,14.84,8a.48.48,0,0,1,.25.43l-.16,4a.47.47,0,0,1-.68.4c-3.5-1.82-20-10.43-24.58-13.13-2.26-1.35-2.16-1-2.37.51a41,41,0,0,0-.14,7.73c.28,2.63.83,3.63,3.7,4.88s20.83,8.6,23.37,9.64a.45.45,0,0,1,.29.45L121,92.77a.46.46,0,0,1-.62.42c-3.83-1.42-24.89-9.3-34.25-13.92-1.11-.55-1.28-.19-1.36,1.15a69.84,69.84,0,0,0,.42,10.06c.45,2.75,2.44,3.85,4.8,4.64,2.08.69,27,7.37,30.24,8.25a.48.48,0,0,1,.35.47l-.17,4.22a.47.47,0,0,1-.58.43c-3.45-.86-22.47-5.67-43.09-11.7-1.35-.39-1.27.19-1.25,1.19s.63,9.89,1.21,11.71c.85,2.65,1.5,3.33,5.13,4,3.37.62,33.9,5.21,37.73,5.8a.47.47,0,0,1,.39.48l-.17,4.37a.47.47,0,0,1-.52.45c-4.5-.56-37.87-4.26-50.27-6.56-1.56-.29-1.46.43-1.35,1.34.14,1.2,1.67,12.07,2.88,14.61,1.34,2.82,2.4,3.09,4.87,3.18s38.88-1,43.43-1.18a.46.46,0,0,1,.48.48l-.17,4.74a.47.47,0,0,1-.44.45c-4.38.27-39.68,2.35-53.25,3.22-1.62.11-1.54.85-.62,2.54.5.93,5,10.75,6.35,12.45s2.18,3.17,6.06,2.54c3.61-.59,36-6.31,40.77-7.05a.47.47,0,0,1,.53.48l-.21,5.07a.45.45,0,0,1-.37.44c-4.45.83-46.15,9.3-47.45,9.58s-.91,1-.48,1.73c1.15,1.94,8.1,10.12,10.21,11.58,2.75,1.91,4.72,2.07,8.18.79,3.15-1.16,24.59-10,28.79-11.58a.47.47,0,0,1,.63.46l-.2,5.17a.47.47,0,0,1-.29.41c-2.41,1-19.65,8.7-27.77,12.12-1.63.69-2,1.21-.61,2.21,1.6,1.11,12.36,5,15.92,6.07,3.19.93,3.59,2.18,11.3-5.92.57-.61.81-.24.86.27l-.34,9.12c-.35,7.43-.81,14.85-1.3,21.54a100.41,100.41,0,1,1,110-100ZM109.85,232.65c-4.8-.73-8.84.76-9.75,6.74-.88,5.81,2.46,8.44,7.32,9.18l4.88.74,2.43-15.92Zm-.59,13.2-1.59-.24c-3.48-.53-4.57-2.33-4-5.72.55-3.62,2.09-5,5.56-4.44l1.63.25ZM96.34,230,94.08,233l-5.23-1.64-.07-3.78-3.43-1.08L86,243.65l3.22,1,10.27-13.72ZM89,239.87l0,0-.13-5.78,3.61,1.13ZM79,223.55,76.32,229l-1.84-.91-.3-6.92-3.36-1.66.32,7.44a4.29,4.29,0,0,0-5,2.63c-1.59,3.19-.09,5.51,3.46,7.27L75,239.52l7.14-14.42Zm-5.86,11.83L71,234.31c-1.84-.9-2.45-1.86-1.75-3.29s1.86-1.55,3.7-.64l2.16,1.07Zm-11.48-22-7.48,10.8-3.95-2.73-1.69,2.43,10.81,7.48L61,228.94l-3.93-2.73,7.48-10.8Zm-9.09-7.14-7.8,8,0,0a29.83,29.83,0,0,0,2-3.35l3.46-7-2.24-2.19L41,205.3a29.8,29.8,0,0,0-3.15,1.95l0,0,7.68-7.86L43.09,197,31.84,208.49l3.42,3.34,10.67-6.12,0,0-5.71,11L43.6,220l11.25-11.51ZM36.41,187.54c-2.24-3.16-6.58-4.62-11.2-1.35s-4.68,7.85-2.44,11,6.59,4.64,11.21,1.37S38.66,190.72,36.41,187.54Zm-2.33,1.65c1.45,2,.6,4.54-2.15,6.48s-5.32,1.87-6.76-.17-.67-4.48,2.08-6.43S32.65,187.17,34.08,189.19Zm-6.74-16.86c-2-4-5.07-4.75-8.63-3l-8.92,4.34,1.53,3.13,8.86-4.32c2.11-1,3.64-.8,4.56,1.07s.14,3.27-1.95,4.29l-8.86,4.32,1.55,3.18L24.42,181C28,179.26,29.3,176.36,27.34,172.33Zm-6.8-16.85L8,159.37l-1.43-4.59-2.82.88,3.89,12.55,2.82-.88L9,162.76l12.55-3.89Zm-2.75-11.64-6.8,1-.92-6.27,6.81-1-.51-3.5L.44,136.38,1,139.89l6.18-.9L8,145.26l-6.18.9.51,3.5,15.93-2.32Zm-1.43-25.77-6.85-.63.57-6.3,6.85.62.32-3.53-16-1.46L.89,110.3l6.22.57-.57,6.3-6.22-.56L0,120.14l16,1.46ZM19.08,99.8,3.35,96.36,2.6,99.81l15.73,3.44ZM22.5,89.24C24,85,22.43,82.4,20,81.55c-3.14-1.09-5,1.45-6.62,3.87-1.24,1.81-2.07,2.79-3.28,2.37-.9-.32-1.25-1.31-.76-2.73a4.81,4.81,0,0,1,3.46-3l-1-2.94a7.21,7.21,0,0,0-5.22,5c-1.14,3.27-.2,6.08,2.63,7.06,3.19,1.11,4.87-1.49,6.57-3.94,1.25-1.8,2.12-2.72,3.27-2.32s1.37,1.72.83,3.26a4.77,4.77,0,0,1-4,3.21l.63,3A7.2,7.2,0,0,0,22.5,89.24Zm6.59-15.79-11.67-6,2.21-4.27L17,61.79,11,73.46l2.62,1.35,2.2-4.25,11.67,6Zm8.06-12.24c2.28-3.14,2.27-7.72-2.31-11s-8.93-1.92-11.21,1.22-2.28,7.73,2.3,11S34.86,64.36,37.15,61.21Zm-2.3-1.68c-1.47,2-4.11,2-6.84,0s-3.47-4.43-2-6.46S30,51,32.77,53,36.3,57.52,34.85,59.53ZM46.57,49.45,42.3,45.14l1.45-1.44,6.65,1.95L53.06,43l-7.15-2.1a4.3,4.3,0,0,0-.85-5.62c-2.52-2.54-5.2-1.87-8,.92l-4.29,4.26L44.1,51.9Zm-9.3-9.38L39,38.37c1.46-1.44,2.56-1.71,3.68-.58s.87,2.26-.58,3.7l-1.71,1.7Zm22.16-2L49.51,25.37l-2.77,2.17,9.91,12.69Zm9.81-6.25c3.46-2.09,3.93-5,2.93-8.2L68.94,24.7c.65,2.17.46,3.68-1.16,4.66-2.08,1.26-4.34.13-6.09-2.77S60,21.29,62.1,20c1.62-1,2.94-.3,4.35,1l2.36-2.57c-2.09-2.12-4.72-3.07-8.21-1s-4.84,6.12-2,10.91S65.64,34,69.24,31.81Zm10.5-6-.22-3.79L84.59,20l2.47,2.87,3.32-1.37L79,8.7,75.83,10l.89,17.12ZM79,13.57l0,0,3.79,4.37-3.5,1.44Zm25.15,4.37-.7-2.79-6.88,1.73L93.36,4.05l-3.44.87,3.92,15.61Zm11.73-1.53L117,12.77l5.47-.25,1.36,3.53,3.59-.16L121,0l-3.37.15-5,16.41ZM119.36,4.6h0L121.5,10l-3.78.18ZM136.57,17c4,.42,6.17-1.63,7.28-4.78l-3.24-1.08c-.78,2.13-1.84,3.23-3.72,3-2.43-.25-3.55-2.51-3.2-5.89s1.86-5.23,4.28-5c1.88.2,2.53,1.53,2.86,3.43l3.44-.63c-.4-2.95-1.93-5.3-6-5.72s-7.56,2-8.14,7.54S132.4,16.6,136.57,17Zm16.77,3.13c3.91,1.05,6.34-.64,7.94-3.57l-3-1.58c-1.11,2-2.32,2.9-4.15,2.41-2.36-.63-3.11-3-2.23-6.32s2.65-4.88,5-4.25c1.82.49,2.26,1.91,2.28,3.84l3.49-.09c.08-3-1.06-5.53-5-6.58s-7.77.76-9.21,6.17S149.28,19.08,153.34,20.16ZM169.65,26c3.53,1.6,8,.67,10.35-4.49s.08-9.13-3.45-10.73-8-.68-10.37,4.48S166.11,24.42,169.65,26Zm1.18-2.59c-2.28-1-2.81-3.62-1.42-6.69s3.65-4.3,5.93-3.27,2.84,3.54,1.45,6.61S173.09,24.45,170.83,23.43Zm14.32,11.15c3.73,2.49,6.77,1.53,9-1.76l5.51-8.25-2.9-1.93-5.47,8.19c-1.3,2-2.74,2.54-4.48,1.38s-1.77-2.75-.48-4.69l5.48-8.2-2.95-2-5.53,8.28C181.12,28.9,181.42,32.09,185.15,34.58ZM196.64,43l7.07-7.57,0,0-1.94,12.37L204.19,50l11-11.76-2.39-2.23-7,7.51,0,0,2.08-12.11L205.25,29l-11,11.76ZM211.78,59.3l10.35-8.1,3,3.79,2.33-1.83-8.1-10.34L217,44.64l2.95,3.77-10.35,8.1Zm4.94,7,3.72-.75,2.78,4.73-2.49,2.85,1.82,3.09,11-13.11-1.71-2.9-16.82,3.28Zm12.06-2.45,0,0L225,68.23,223.09,65Zm-2.3,21.89c1.1,2.79,3.26,5,6.28,3.82,2.39-.94,2.77-2.75,2.38-4.7l0,0a3.53,3.53,0,0,0,4.57,1.5c3-1.19,2.68-4,1.6-6.8l-2.36-6-15,5.9Zm5.28-5.61,1,2.51c.72,1.82.44,3-.87,3.55s-2.33,0-3-1.85l-1.05-2.65Zm6-2.34,1,2.47c.69,1.76.32,2.72-.85,3.19s-2.12-.09-2.79-1.81l-1-2.43Zm-7,21.37,15.59-4-.89-3.42-15.59,4.06Zm2.75,15.56,2.84-.42-1-7,13.08-1.94-.51-3.51-15.93,2.36Zm.29,7.5,16.08-.65-.14-3.52-16.09.65Zm-.39,12.27,13.11.93-.34,4.8,2.95.21.93-13.11-2.95-.21-.34,4.78-13.1-.93Zm-2.57,15.87,6.67,1.48,7.83,7.45.79-3.52-5.32-5,6.92-2.23.79-3.57-10.25,3.4-6.66-1.48Zm-6.13,18.26,5.19,2.41-1,2.07c-1.35,2.92-2,6.38,2,8.2s6-.68,7.44-3.79l2.46-5.32-14.61-6.77Zm12,5.56-1,2.19c-.94,2-2,2.39-3.41,1.75s-1.82-1.75-.9-3.75l1-2.19Zm-19.55,8.71,5.06,3.35L221,187.92l-6.91-.57L212,190.47l7.42.62a4.3,4.3,0,0,0,2,5.33c3,2,5.46.78,7.65-2.52l3.35-5L219,180Zm11,7.3-1.33,2c-1.13,1.71-2.17,2.2-3.49,1.32s-1.31-2-.17-3.75l1.33-2Zm-23.37,8.29c-2.63,2.84-3.15,7.39,1,11.23s8.65,2.94,11.28.1,3.16-7.41-1-11.25S207.35,195.59,204.71,198.45Zm2.09,1.93c1.7-1.84,4.31-1.53,6.79.76s2.94,4.81,1.24,6.65-4.25,1.58-6.73-.7S205.12,202.2,206.8,200.38Zm-15.2,10.13a4.43,4.43,0,0,0-1.77,4.56l0,0-1.36-1.76-2.25,1.75,4.94,6.38,4.88-3.78-1.61-2.08-2.22,1.71A3.25,3.25,0,0,1,193,213c1.36-1,3.77-1.49,6.53,2.07s1.31,5.67.28,6.47c-1.26,1-2.6.91-4.5-.45l-2,2.69c3.22,2.49,5.89,2,8.3.1,3.58-2.77,3.81-7.06.72-11S195.46,207.52,191.6,210.51Zm-12.41,8.75,2.91,5.33-1.8,1-5.84-3.73-3.29,1.79,6.28,4a4.31,4.31,0,0,0-.75,5.64c1.71,3.13,4.47,3.24,7.94,1.34l5.31-2.89-7.7-14.14Zm6.32,11.59L183.39,232c-1.79,1-2.93.93-3.69-.46s-.21-2.42,1.59-3.4l2.12-1.16Zm-19.9-4.93,0,3.8-5.16,1.85-2.34-3-3.38,1.21,10.83,13.29,3.17-1.14-.1-17.14Zm.17,12.31h0l-3.59-4.53,3.56-1.28Zm-17.47-6.94,1.87,11h0a29.63,29.63,0,0,0-1.56-3.55l-3.6-6.89-3.09.53-1.13,7.69a27.84,27.84,0,0,0-.28,3.69h0L138.59,233l-3.36.57,2.7,15.87,4.72-.8L144,236.36h0l5.53,11.06,4.61-.78-2.7-15.87Zm-23.49,9.17a3.11,3.11,0,1,0,3.12,3.11A3.11,3.11,0,0,0,124.82,240.46Z"/></svg>