<svg id="Layer_1" data-name="Layer 1" xmlns="http://www.w3.org/2000/svg" viewBox="0 0 251 250.49"><defs><style>.cls-1{fill:none;stroke:#74af9d;stroke-miterlimit:10;}</style></defs><title>green_outline_mark</title><g id="Lone_Pine" data-name="Lone Pine"><path class="cls-1" d="M125.23,15.53a.5.5,0,0,1,.27-.07.52.52,0,0,1,.27.07c5.06,2.79,2.73,12.94,2.73,18.06,0,.52.23.42.84-.08a138.28,138.28,0,0,0,11-10c1.2-1.2,1.44-.6,1.83.51a44.32,44.32,0,0,1,1.17,8.23A4.43,4.43,0,0,1,141.88,35s-11,8-12.73,9.37a.62.62,0,0,0-.22.48l.18,4.47a.57.57,0,0,0,.89.46c3-1.93,13.15-8.59,20.56-14.5,1.71-1.37,2.29-1,2.65,1.58a56.84,56.84,0,0,1,.4,9c-.09,1.88-1.22,3.58-5.23,5.78-3.08,1.68-16.25,8.74-18.47,9.92a.61.61,0,0,0-.31.54l.2,5a.58.58,0,0,0,.85.49c4.35-2.26,24.93-13,30.59-16.34,2.82-1.68,2.69-1.22,3,.64a51.17,51.17,0,0,1,.17,9.62c-.35,3.27-1,4.52-4.61,6.08s-25.92,10.7-29.09,12a.57.57,0,0,0-.36.56l.19,5.08a.58.58,0,0,0,.78.52c4.77-1.77,31-11.58,42.63-17.33,1.39-.68,1.6-.24,1.7,1.43a87.34,87.34,0,0,1-.53,12.52c-.55,3.42-3,4.79-6,5.78-2.58.86-33.55,9.17-37.64,10.27A.58.58,0,0,0,131,99l.2,5.24a.58.58,0,0,0,.72.54c4.3-1.07,28-7,53.64-14.56,1.69-.49,1.58.24,1.57,1.48s-.8,12.31-1.52,14.58c-1.05,3.29-1.86,4.14-6.38,5-4.2.77-42.21,6.48-47,7.22a.56.56,0,0,0-.49.59l.21,5.44a.58.58,0,0,0,.65.56c5.59-.7,47.14-5.31,62.57-8.16,1.94-.36,1.82.53,1.69,1.66-.18,1.5-2.09,15-3.59,18.19-1.67,3.52-3,3.85-6.06,4s-48.41-1.29-54.07-1.48a.59.59,0,0,0-.6.61l.22,5.9a.57.57,0,0,0,.54.55c5.45.34,49.4,2.93,66.29,4,2,.13,1.92,1.06.78,3.17-.63,1.15-6.24,13.38-7.91,15.48s-2.72,4-7.55,3.17c-4.49-.74-44.81-7.85-50.74-8.78a.59.59,0,0,0-.67.6l.26,6.31a.58.58,0,0,0,.47.55c5.53,1,57.44,11.57,59.07,11.92s1.13,1.25.6,2.15c-1.44,2.43-10.09,12.61-12.72,14.43-3.43,2.37-5.87,2.58-10.19,1-3.91-1.45-30.6-12.46-35.83-14.42a.58.58,0,0,0-.78.57l.25,6.44a.56.56,0,0,0,.35.51c3,1.27,24.46,10.83,34.57,15.09,2,.86,2.54,1.51.76,2.75-2,1.38-15.38,6.25-19.82,7.55-4,1.16-4.47,2.72-14.06-7.37-.71-.75-1-.29-1.07.34l.42,11.36c1.12,23.71.34,18.78,1.51,26.77v.06a125,125,0,1,0-23.76,0v-.06c1.17-8,.39-3.06,1.51-26.77l.42-11.36c-.06-.63-.36-1.09-1.07-.34-9.59,10.09-10.09,8.53-14.06,7.37-4.44-1.3-17.83-6.17-19.82-7.55-1.78-1.24-1.27-1.89.75-2.75,10.12-4.26,31.57-13.82,34.58-15.09a.56.56,0,0,0,.35-.51l.25-6.44a.58.58,0,0,0-.78-.57c-5.23,2-31.92,13-35.83,14.42-4.32,1.6-6.76,1.39-10.19-1-2.63-1.82-11.28-12-12.72-14.43-.53-.9-1.11-1.79.6-2.15s53.54-10.88,59.07-11.92a.58.58,0,0,0,.47-.55l.26-6.31a.59.59,0,0,0-.67-.6c-5.93.93-46.25,8-50.74,8.78-4.83.79-5.89-1.06-7.56-3.17s-7.27-14.33-7.9-15.48c-1.14-2.11-1.24-3,.78-3.17,16.89-1.09,60.84-3.68,66.28-4a.58.58,0,0,0,.55-.55l.22-5.9a.59.59,0,0,0-.6-.61c-5.66.19-51,1.58-54.07,1.48s-4.39-.44-6.06-4c-1.5-3.16-3.41-16.69-3.59-18.19-.13-1.13-.26-2,1.69-1.66,15.43,2.85,57,7.46,62.57,8.16a.58.58,0,0,0,.65-.56l.21-5.44a.58.58,0,0,0-.49-.59c-4.76-.74-42.76-6.45-47-7.22-4.51-.83-5.32-1.68-6.37-5-.72-2.27-1.5-13.39-1.52-14.58s-.12-2,1.57-1.48c25.66,7.51,49.33,13.49,53.64,14.56a.58.58,0,0,0,.72-.54L120,99a.58.58,0,0,0-.43-.59c-4.09-1.1-35.06-9.41-37.64-10.27-2.94-1-5.42-2.36-6-5.78a87.12,87.12,0,0,1-.52-12.52c.1-1.67.31-2.11,1.7-1.43C88.73,74.16,115,84,119.71,85.74a.59.59,0,0,0,.79-.52l.19-5.08a.58.58,0,0,0-.36-.56c-3.17-1.29-25.42-10.4-29.09-12S87,64.78,86.63,61.51a51.17,51.17,0,0,1,.17-9.62c.27-1.86.14-2.32,3-.64,5.66,3.37,26.24,14.08,30.59,16.34a.58.58,0,0,0,.85-.49l.2-5a.61.61,0,0,0-.31-.54c-2.22-1.18-15.39-8.24-18.47-9.92-4-2.2-5.14-3.9-5.23-5.78a58.34,58.34,0,0,1,.39-9c.37-2.6,1-3,2.66-1.58C107.85,41.14,118,47.8,121,49.73a.57.57,0,0,0,.89-.46l.18-4.47a.62.62,0,0,0-.22-.48C120.11,42.93,109.12,35,109.12,35a4.43,4.43,0,0,1-1.43-2.68A44.32,44.32,0,0,1,108.86,24c.39-1.11.63-1.71,1.83-.51a138.28,138.28,0,0,0,11,10c.61.5.84.6.84.08,0-5.12-2.33-15.27,2.73-18.06"/></g></svg>