<svg id="Layer_1" data-name="Layer 1" xmlns="http://www.w3.org/2000/svg" viewBox="0 0 250 22.76"><defs><style>.cls-1{font-size:9.1px;font-family:BentonSans-Black, BentonSans;font-weight:800;}.cls-1,.cls-9{fill:#1d2c27;}.cls-2{letter-spacing:0.01em;}.cls-3{letter-spacing:0.02em;}.cls-4{letter-spacing:-0.01em;}.cls-5{letter-spacing:0.02em;}.cls-6{letter-spacing:0.03em;}.cls-7{letter-spacing:0.01em;}.cls-8{letter-spacing:0.01em;}</style></defs><title>horizontal_dark_mark</title><text class="cls-1" transform="translate(33.49 16.06)"><tspan class="cls-2">D</tspan><tspan class="cls-3" x="6.95" y="0">artmouth Hi</tspan><tspan class="cls-2" x="64.86" y="0">s</tspan><tspan class="cls-3" x="69.91" y="0">tori</tspan><tspan class="cls-2" x="87.25" y="0">c</tspan><tspan class="cls-3" x="92.48" y="0">al</tspan><tspan class="cls-4" x="101.08" y="0"> </tspan><tspan x="103.59" y="0">A</tspan><tspan class="cls-5" x="110.24" y="0">cc</tspan><tspan class="cls-3" x="120.78" y="0">ountabili</tspan><tspan class="cls-6" x="163.51" y="0">t</tspan><tspan class="cls-3" x="167.89" y="0">y </tspan><tspan x="176.09" y="0">P</tspan><tspan class="cls-7" x="182.37" y="0">r</tspan><tspan class="cls-3" x="186.42" y="0">og</tspan><tspan class="cls-8" x="198.23" y="0">r</tspan><tspan class="cls-3" x="202.23" y="0">am</tspan></text><path class="cls-9" d="M11.38,0a11.41,11.41,0,0,0-1.09,22.76c.05-.76.11-1.6.15-2.45l0-1c0-.06,0-.1-.1,0-.88.92-.92.77-1.28.67a13.63,13.63,0,0,1-1.81-.69c-.16-.11-.11-.17.07-.25.92-.39,2.88-1.26,3.15-1.38,0,0,0,0,0,0l0-.59a0,0,0,0,0-.07,0c-.47.17-2.9,1.18-3.26,1.31a.85.85,0,0,1-.93-.09,8.31,8.31,0,0,1-1.15-1.31c-.05-.09-.11-.17,0-.2l5.38-1.09a0,0,0,0,0,0,0l0-.57s0-.06-.06-.06L6,15.66a.56.56,0,0,1-.68-.29A14.6,14.6,0,0,1,4.56,14c-.11-.19-.12-.28.07-.29l6-.37a0,0,0,0,0,.05-.05l0-.53s0-.06-.05-.06c-.52,0-4.65.14-4.93.13a.5.5,0,0,1-.55-.36,10.61,10.61,0,0,1-.32-1.66c0-.1,0-.18.15-.15,1.4.26,5.19.68,5.7.75a.06.06,0,0,0,.06,0v-.5s0-.05,0-.06c-.43-.06-3.89-.58-4.28-.65S6,10,5.9,9.65a11.66,11.66,0,0,1-.13-1.33c0-.11,0-.18.14-.13,2.33.68,4.49,1.23,4.88,1.33,0,0,.07,0,.07,0l0-.48a.07.07,0,0,0,0-.06c-.38-.1-3.19-.85-3.43-.93s-.49-.22-.54-.53a6.87,6.87,0,0,1,0-1.14c0-.16,0-.2.15-.13,1.06.52,3.45,1.42,3.88,1.58a.05.05,0,0,0,.07,0l0-.46a.05.05,0,0,0,0,0L8.26,6.12c-.32-.14-.39-.25-.42-.55a4.45,4.45,0,0,1,0-.88c0-.17,0-.21.27-.06.51.31,2.39,1.29,2.78,1.49,0,0,.08,0,.08,0l0-.46a.05.05,0,0,0,0,0L9.3,4.67c-.37-.2-.47-.36-.48-.53a5.81,5.81,0,0,1,0-.83c0-.23.08-.27.24-.14.67.54,1.6,1.15,1.87,1.32a.05.05,0,0,0,.08,0l0-.41,0,0c-.16-.13-1.16-.86-1.16-.86a.41.41,0,0,1-.13-.24,4.9,4.9,0,0,1,.1-.75c0-.1.06-.16.17,0A11.74,11.74,0,0,0,11,3c.06.05.08.06.08,0,0-.47-.22-1.39.25-1.65h0c.46.26.25,1.18.25,1.65,0,0,0,0,.08,0a11.74,11.74,0,0,0,1-.91c.11-.11.13-.05.17,0a4.9,4.9,0,0,1,.1.75.41.41,0,0,1-.13.24s-1,.73-1.16.86a.08.08,0,0,0,0,0l0,.41a.05.05,0,0,0,.08,0c.27-.17,1.2-.78,1.87-1.32.16-.13.21-.09.24.14a5.81,5.81,0,0,1,0,.83c0,.17-.11.33-.48.53l-1.68.9a.05.05,0,0,0,0,0l0,.46s0,.06.08,0c.39-.2,2.27-1.18,2.78-1.49.26-.15.25-.11.27.06a4.45,4.45,0,0,1,0,.88c0,.3-.1.41-.42.55l-2.65,1.1a.05.05,0,0,0,0,0l0,.46a.05.05,0,0,0,.07,0c.43-.16,2.82-1.06,3.88-1.58.12-.07.14,0,.15.13a6.87,6.87,0,0,1,0,1.14c-.05.31-.27.44-.54.53s-3,.83-3.43.93a.07.07,0,0,0,0,.06l0,.48s0,0,.07,0c.39-.1,2.55-.65,4.88-1.33.16,0,.15,0,.14.13a11.66,11.66,0,0,1-.13,1.33c-.1.3-.17.38-.58.46s-3.85.59-4.28.65a.06.06,0,0,0-.05.06l0,.5a.06.06,0,0,0,.06,0c.51-.07,4.3-.49,5.7-.75.18,0,.17.05.15.15a10.61,10.61,0,0,1-.32,1.66.5.5,0,0,1-.55.36c-.28,0-4.41-.11-4.93-.13,0,0-.05,0-.05.06l0,.53a0,0,0,0,0,0,.05l6,.37c.19,0,.18.1.07.29a14.6,14.6,0,0,1-.72,1.41.56.56,0,0,1-.68.29l-4.62-.8s-.07,0-.06.06l0,.57a0,0,0,0,0,0,0l5.38,1.09c.16,0,.1.11.05.2a8.31,8.31,0,0,1-1.15,1.31.85.85,0,0,1-.93.09c-.36-.13-2.79-1.14-3.26-1.31a0,0,0,0,0-.07,0l0,.59s0,0,0,0c.27.12,2.23,1,3.15,1.38.18.08.23.14.07.25a13.63,13.63,0,0,1-1.81.69c-.36.1-.4.25-1.28-.67-.06-.07-.09,0-.1,0l0,1c0,.85.09,1.69.15,2.45A11.41,11.41,0,0,0,11.38,0Z"/></svg>