<svg id="Outlined_Type" data-name="Outlined Type" xmlns="http://www.w3.org/2000/svg" viewBox="0 0 281.69 22.9"><defs><style>.cls-1,.cls-2{fill:#fff;}.cls-2{font-size:9.1px;font-family:BentonSans-Black, BentonSans;font-weight:800;}.cls-3{letter-spacing:0.02em;}.cls-4{letter-spacing:0.01em;}.cls-5{letter-spacing:-0.01em;}.cls-6{letter-spacing:0em;}.cls-7{letter-spacing:0.02em;}.cls-8{letter-spacing:0.03em;}.cls-9{letter-spacing:-0.01em;}.cls-10{letter-spacing:0.02em;}.cls-11{letter-spacing:0.01em;}.cls-12{letter-spacing:0.01em;}</style></defs><path class="cls-1" d="M32.81,9.42h1.82v2.5h2.24V9.42H38.7v6.74H36.87V13.44H34.63v2.72H32.81Z"/><path class="cls-1" d="M40,10.8V9.42h1.8V10.8Zm0,5.36V11.28h1.8v4.88Z"/><path class="cls-1" d="M42.69,15.56l.66-1a3.14,3.14,0,0,0,1.75.59c.31,0,.59-.09.59-.32s-.23-.34-.76-.41c-.83-.12-2-.31-2-1.58,0-1.09.9-1.64,2-1.64a3.5,3.5,0,0,1,2.28.67l-.67,1a3.11,3.11,0,0,0-1.44-.49c-.3,0-.5.09-.5.31s.26.31.75.37c.83.11,2,.3,2,1.48s-1.11,1.74-2.24,1.74A3.94,3.94,0,0,1,42.69,15.56Z"/><path class="cls-1" d="M48.51,14.69V12.57h-.79V11.28h.79V9.64h1.81v1.64h1.25v1.29H50.32v1.72c0,.52.13.65.64.65a1.92,1.92,0,0,0,.47-.06v1.26a8.07,8.07,0,0,1-1.1.08C48.67,16.22,48.51,15.64,48.51,14.69Z"/><path class="cls-1" d="M52.14,13.73a2.61,2.61,0,0,1,5.21,0,2.61,2.61,0,0,1-5.21,0Zm3.4,0c0-.71-.18-1.26-.8-1.26s-.8.49-.8,1.26.17,1.27.8,1.27S55.54,14.51,55.54,13.74Z"/><path class="cls-1" d="M58.25,16.16V11.28h1.8V12h0a1.69,1.69,0,0,1,1.52-.84h0v1.59c-.07,0-.33,0-.46,0a1.7,1.7,0,0,0-1.09.45v3Z"/><path class="cls-1" d="M62.43,10.8V9.42h1.81V10.8Zm0,5.36V11.28h1.81v4.88Z"/><path class="cls-1" d="M65.18,13.73a2.37,2.37,0,0,1,2.57-2.54A2.06,2.06,0,0,1,70,12.74l-1.51.47c-.15-.59-.4-.73-.74-.73-.53,0-.74.49-.74,1.26s.13,1.27.73,1.27c.29,0,.62-.14.79-.78l1.49.5a2.27,2.27,0,0,1-2.31,1.53A2.3,2.3,0,0,1,65.18,13.73Z"/><path class="cls-1" d="M70.34,14.85c0-1.1,1-1.76,3-1.85v-.06c0-.24-.12-.41-.54-.41a2.66,2.66,0,0,0-1.5.52l-.74-1a3.63,3.63,0,0,1,2.53-.84c1.44,0,2,.67,2,2.05V15a3.3,3.3,0,0,0,.14,1.18H73.46a2.46,2.46,0,0,1-.11-.71,1.94,1.94,0,0,1-1.62.78A1.31,1.31,0,0,1,70.34,14.85Zm3-.24v-.69c-.87,0-1.26.25-1.26.63,0,.23.18.34.41.34A1.15,1.15,0,0,0,73.35,14.61Z"/><path class="cls-1" d="M76.26,16.16V9.42h1.81v6.74Z"/><path class="cls-1" d="M81.39,16.16l2.38-6.77h1.7l2.39,6.77H86l-.41-1.26H83.48l-.43,1.26Zm2.52-2.55H85.2l-.62-1.87h0Z"/><path class="cls-1" d="M88.17,13.73a2.37,2.37,0,0,1,2.57-2.54A2.06,2.06,0,0,1,93,12.74l-1.51.47c-.16-.59-.4-.73-.74-.73-.54,0-.75.49-.75,1.26S90.1,15,90.7,15c.3,0,.63-.14.8-.78l1.49.5a2.27,2.27,0,0,1-2.31,1.53A2.3,2.3,0,0,1,88.17,13.73Z"/><path class="cls-1" d="M93.44,13.73A2.37,2.37,0,0,1,96,11.19a2.06,2.06,0,0,1,2.23,1.55l-1.51.47c-.15-.59-.4-.73-.74-.73-.53,0-.74.49-.74,1.26S95.37,15,96,15c.3,0,.63-.14.8-.78l1.49.5A2.27,2.27,0,0,1,96,16.26,2.3,2.3,0,0,1,93.44,13.73Z"/><path class="cls-1" d="M98.71,13.73a2.61,2.61,0,0,1,5.21,0,2.61,2.61,0,0,1-5.21,0Zm3.41,0c0-.71-.18-1.26-.8-1.26s-.8.49-.8,1.26.17,1.27.8,1.27S102.12,14.51,102.12,13.74Z"/><path class="cls-1" d="M104.78,14.85V11.28h1.8v3c0,.34.11.53.41.53a1.27,1.27,0,0,0,.81-.35v-3.2h1.8v4.88h-1.8v-.75a1.86,1.86,0,0,1-1.62.85A1.26,1.26,0,0,1,104.78,14.85Z"/><path class="cls-1" d="M110.78,11.28h1.8V12a1.88,1.88,0,0,1,1.62-.84,1.26,1.26,0,0,1,1.4,1.41v3.56h-1.8v-3c0-.34-.11-.53-.41-.53a1.32,1.32,0,0,0-.81.35v3.15h-1.8Z"/><path class="cls-1" d="M117.12,14.69V12.57h-.79V11.28h.79V9.64h1.81v1.64h1.24v1.29h-1.24v1.72c0,.52.12.65.63.65a2,2,0,0,0,.48-.06v1.26a8.07,8.07,0,0,1-1.1.08C117.28,16.22,117.12,15.64,117.12,14.69Z"/><path class="cls-1" d="M120.67,14.85c0-1.1,1-1.76,3-1.85v-.06c0-.24-.12-.41-.54-.41a2.63,2.63,0,0,0-1.5.52l-.74-1a3.61,3.61,0,0,1,2.52-.84c1.44,0,2,.67,2,2.05V15a3.35,3.35,0,0,0,.13,1.18H123.8a2.16,2.16,0,0,1-.11-.71,1.94,1.94,0,0,1-1.62.78A1.32,1.32,0,0,1,120.67,14.85Zm3-.24v-.69c-.88,0-1.26.25-1.26.63,0,.23.17.34.4.34A1.18,1.18,0,0,0,123.69,14.61Z"/><path class="cls-1" d="M128.36,15.63v.53h-1.81V9.42h1.81V12a1.7,1.7,0,0,1,1.45-.84c1.1,0,1.82.85,1.82,2.53s-.73,2.51-1.84,2.51A1.73,1.73,0,0,1,128.36,15.63Zm1.46-1.9c0-.6-.13-1.07-.73-1.07a1.09,1.09,0,0,0-.73.36v1.56a1,1,0,0,0,.74.31C129.64,14.89,129.82,14.42,129.82,13.73Z"/><path class="cls-1" d="M132.57,10.8V9.42h1.8V10.8Zm0,5.36V11.28h1.8v4.88Z"/><path class="cls-1" d="M135.63,16.16V9.42h1.8v6.74Z"/><path class="cls-1" d="M138.69,10.8V9.42h1.8V10.8Zm0,5.36V11.28h1.8v4.88Z"/><path class="cls-1" d="M142.11,14.69V12.57h-.79V11.28h.79V9.64h1.81v1.64h1.24v1.29h-1.24v1.72c0,.52.12.65.63.65a2,2,0,0,0,.48-.06v1.26a8.11,8.11,0,0,1-1.11.08C142.27,16.22,142.11,15.64,142.11,14.69Z"/><path class="cls-1" d="M145.47,17.83l.37-1.39a3.79,3.79,0,0,0,1,.15.44.44,0,0,0,.47-.28l0-.12-1.85-4.91h1.85l.9,2.79h0l.91-2.79h1.74l-2,5.37A1.8,1.8,0,0,1,147.09,18,5.54,5.54,0,0,1,145.47,17.83Z"/><path class="cls-1" d="M154,14.68l1.35-.84a2.09,2.09,0,0,0,1.76,1c.56,0,1-.17,1-.59s-.54-.59-1.2-.75c-1.11-.28-2.57-.57-2.57-2.1,0-1.37,1-2.13,2.57-2.13a3.48,3.48,0,0,1,2.82,1.32l-1.22,1a2.31,2.31,0,0,0-1.61-.84c-.52,0-.79.17-.79.49s.53.61,1.2.77c1.1.27,2.57.6,2.57,2.12,0,1.07-.75,2.14-2.83,2.14A3.31,3.31,0,0,1,154,14.68Z"/><path class="cls-1" d="M161.33,14.69V12.57h-.79V11.28h.79V9.64h1.8v1.64h1.25v1.29h-1.25v1.72c0,.52.13.65.64.65a2,2,0,0,0,.48-.06v1.26a8.25,8.25,0,0,1-1.11.08C161.49,16.22,161.33,15.64,161.33,14.69Z"/><path class="cls-1" d="M165.17,14.85V11.28H167v3c0,.34.1.53.41.53a1.27,1.27,0,0,0,.81-.35v-3.2H170v4.88h-1.8v-.75a1.86,1.86,0,0,1-1.62.85A1.27,1.27,0,0,1,165.17,14.85Z"/><path class="cls-1" d="M170.9,13.77c0-1.67.73-2.58,1.84-2.58a1.57,1.57,0,0,1,1.43.67V9.42H176V15a3,3,0,0,0,.15,1.18h-1.84a2,2,0,0,1-.11-.73,1.65,1.65,0,0,1-1.45.8C171.62,16.23,170.9,15.45,170.9,13.77Zm3.27.77V13a1,1,0,0,0-.75-.31c-.54,0-.72.41-.72,1.1s.14,1.13.74,1.13A1.17,1.17,0,0,0,174.17,14.54Z"/><path class="cls-1" d="M176.87,13.73a2.45,2.45,0,0,1,2.57-2.54c1,0,2.35.34,2.35,2.77v.28h-3.12c.09.64.44.79,1,.79a2.94,2.94,0,0,0,1.4-.45l.65,1.1a4,4,0,0,1-2.19.58A2.32,2.32,0,0,1,176.87,13.73Zm3.33-.52c-.08-.58-.34-.77-.77-.77s-.64.21-.75.77Z"/><path class="cls-1" d="M182.69,11.28h1.8V12a1.88,1.88,0,0,1,1.62-.84,1.27,1.27,0,0,1,1.41,1.41v3.56h-1.81v-3c0-.34-.11-.53-.41-.53a1.32,1.32,0,0,0-.81.35v3.15h-1.8Z"/><path class="cls-1" d="M189,14.69V12.57h-.79V11.28H189V9.64h1.81v1.64h1.24v1.29h-1.24v1.72c0,.52.12.65.63.65a2,2,0,0,0,.48-.06v1.26a8.07,8.07,0,0,1-1.1.08C189.19,16.22,189,15.64,189,14.69Z"/><path class="cls-1" d="M195.84,16.16V9.42h2.64c1.73,0,2.78.57,2.78,2.19a1.84,1.84,0,0,1-1.33,2l1.43,2.58h-1.93l-1.3-2.34h-.5v2.34Zm1.79-3.73h.78c.75,0,1.08-.21,1.08-.77s-.33-.77-1.08-.77h-.78Z"/><path class="cls-1" d="M201.9,13.73a2.44,2.44,0,0,1,2.57-2.54c1,0,2.35.34,2.35,2.77v.28h-3.13c.09.64.45.79,1,.79a2.94,2.94,0,0,0,1.4-.45l.65,1.1a4,4,0,0,1-2.19.58A2.32,2.32,0,0,1,201.9,13.73Zm3.32-.52c-.07-.58-.34-.77-.76-.77s-.64.21-.75.77Z"/><path class="cls-1" d="M207.25,15.56l.67-1a3.09,3.09,0,0,0,1.74.59c.31,0,.59-.09.59-.32s-.23-.34-.76-.41c-.83-.12-2-.31-2-1.58,0-1.09.89-1.64,2-1.64a3.5,3.5,0,0,1,2.28.67l-.67,1a3,3,0,0,0-1.44-.49c-.3,0-.5.09-.5.31s.26.31.75.37c.83.11,2,.3,2,1.48s-1.11,1.74-2.24,1.74A3.94,3.94,0,0,1,207.25,15.56Z"/><path class="cls-1" d="M212.45,13.73A2.44,2.44,0,0,1,215,11.19c1,0,2.35.34,2.35,2.77v.28h-3.13c.09.64.45.79,1,.79a2.94,2.94,0,0,0,1.4-.45l.65,1.1a4,4,0,0,1-2.19.58A2.32,2.32,0,0,1,212.45,13.73Zm3.32-.52c-.07-.58-.33-.77-.76-.77s-.64.21-.75.77Z"/><path class="cls-1" d="M217.88,14.85c0-1.1,1-1.76,3-1.85v-.06c0-.24-.12-.41-.54-.41a2.66,2.66,0,0,0-1.5.52l-.74-1a3.61,3.61,0,0,1,2.52-.84c1.44,0,2,.67,2,2.05V15a3.35,3.35,0,0,0,.13,1.18H221a2.46,2.46,0,0,1-.11-.71,1.94,1.94,0,0,1-1.62.78A1.31,1.31,0,0,1,217.88,14.85Zm3-.24v-.69c-.87,0-1.26.25-1.26.63,0,.23.18.34.4.34A1.16,1.16,0,0,0,220.89,14.61Z"/><path class="cls-1" d="M223.76,16.16V11.28h1.8V12h0a1.69,1.69,0,0,1,1.52-.84h0v1.59c-.07,0-.33,0-.46,0a1.7,1.7,0,0,0-1.09.45v3Z"/><path class="cls-1" d="M227.45,13.73A2.37,2.37,0,0,1,230,11.19a2.06,2.06,0,0,1,2.23,1.55l-1.51.47c-.16-.59-.4-.73-.74-.73-.54,0-.75.49-.75,1.26S229.38,15,230,15c.3,0,.63-.14.8-.78l1.49.5A2.27,2.27,0,0,1,230,16.26,2.3,2.3,0,0,1,227.45,13.73Z"/><path class="cls-1" d="M233,16.16V9.42h1.81V12a1.88,1.88,0,0,1,1.62-.84,1.26,1.26,0,0,1,1.4,1.41v3.56h-1.8v-3c0-.34-.11-.53-.41-.53a1.3,1.3,0,0,0-.81.35v3.15Z"/><path class="cls-1" d="M241.9,16.16V9.42h2.52c1.44,0,2.92.3,2.92,2.29s-1.6,2.3-2.92,2.3h-.72v2.15Zm1.8-3.53h.79c.84,0,1.07-.36,1.07-.87s-.23-.87-1.07-.87h-.79Z"/><path class="cls-1" d="M248,16.16V11.28h1.81V12h0a1.69,1.69,0,0,1,1.52-.84h0v1.59c-.08,0-.33,0-.46,0a1.67,1.67,0,0,0-1.09.45v3Z"/><path class="cls-1" d="M251.83,13.73a2.61,2.61,0,0,1,5.21,0,2.61,2.61,0,0,1-5.21,0Zm3.41,0c0-.71-.18-1.26-.8-1.26s-.8.49-.8,1.26.17,1.27.8,1.27S255.24,14.51,255.24,13.74Z"/><path class="cls-1" d="M257.36,16.93a1.13,1.13,0,0,1,.76-.93.7.7,0,0,1-.29-.57,1.44,1.44,0,0,1,.76-1.1,1.56,1.56,0,0,1-.83-1.4c0-1,.76-1.74,2.29-1.74a2.61,2.61,0,0,1,1.74.53,2.23,2.23,0,0,1,1.31-.52v1.33a3.32,3.32,0,0,0-.8.09c0,.08,0,.19,0,.31,0,1-.73,1.74-2.26,1.74a3.91,3.91,0,0,1-.72-.07.38.38,0,0,0-.08.18c0,.18.2.19.48.2h.6c1.88.06,2.59.47,2.59,1.45s-1.32,1.54-3,1.54C258,18,257.36,17.58,257.36,16.93Zm4-.18c0-.23-.07-.33-1.29-.37l-.69,0a1.87,1.87,0,0,1-.34,0,1,1,0,0,0-.05.27c0,.38.34.53,1.23.53C260.87,17.12,261.36,17,261.36,16.75ZM260.72,13a.64.64,0,1,0-1.28,0,.64.64,0,1,0,1.28,0Z"/><path class="cls-1" d="M263.9,16.16V11.28h1.81V12h0a1.69,1.69,0,0,1,1.52-.84h0v1.59c-.08,0-.33,0-.46,0a1.67,1.67,0,0,0-1.09.45v3Z"/><path class="cls-1" d="M267.57,14.85c0-1.1,1-1.76,3-1.85v-.06c0-.24-.12-.41-.54-.41a2.66,2.66,0,0,0-1.5.52l-.74-1a3.61,3.61,0,0,1,2.52-.84c1.44,0,2,.67,2,2.05V15a3.35,3.35,0,0,0,.13,1.18H270.7a2.16,2.16,0,0,1-.11-.71,1.94,1.94,0,0,1-1.62.78A1.32,1.32,0,0,1,267.57,14.85Zm3-.24v-.69c-.88,0-1.26.25-1.26.63,0,.23.17.34.4.34A1.18,1.18,0,0,0,270.59,14.61Z"/><path class="cls-1" d="M273.45,16.16V11.28h1.81V12a1.85,1.85,0,0,1,1.52-.84c.81,0,1.19.31,1.33.84a1.85,1.85,0,0,1,1.52-.84,1.35,1.35,0,0,1,1.44,1.5v3.47h-1.8v-3c0-.34,0-.53-.38-.53a1.19,1.19,0,0,0-.73.35v3.15h-1.8v-3c0-.34-.05-.53-.37-.53a1.14,1.14,0,0,0-.73.35v3.15Z"/><text class="cls-2" transform="translate(32.18 16.16)"><tspan class="cls-3">Hi</tspan><tspan class="cls-4" x="10.38" y="0">s</tspan><tspan class="cls-3" x="15.43" y="0">tori</tspan><tspan class="cls-4" x="32.77" y="0">c</tspan><tspan class="cls-3" x="38" y="0">al</tspan><tspan class="cls-5" x="46.6" y="0"> </tspan><tspan class="cls-6" x="49.12" y="0">A</tspan><tspan class="cls-7" x="55.76" y="0">cc</tspan><tspan class="cls-3" x="66.3" y="0">ountabili</tspan><tspan class="cls-8" x="109.03" y="0">t</tspan><tspan class="cls-3" x="113.42" y="0">y Student </tspan><tspan class="cls-9" x="163.03" y="0">R</tspan><tspan class="cls-4" x="169.49" y="0">e</tspan><tspan class="cls-7" x="174.94" y="0">se</tspan><tspan class="cls-3" x="185.54" y="0">a</tspan><tspan x="191.08" y="0">r</tspan><tspan class="cls-10" x="195.04" y="0">ch </tspan><tspan x="209.09" y="0">P</tspan><tspan class="cls-11" x="215.37" y="0">r</tspan><tspan class="cls-3" x="219.42" y="0">og</tspan><tspan class="cls-12" x="231.23" y="0">r</tspan><tspan class="cls-3" x="235.24" y="0">am</tspan></text><path class="cls-1" d="M11.45,0a11.48,11.48,0,0,0-1.1,22.9c.06-.77.11-1.61.15-2.46l0-1.05c0-.05,0-.1-.1,0-.88.93-.92.79-1.29.68a15.87,15.87,0,0,1-1.81-.69c-.17-.12-.12-.18.07-.26.92-.39,2.89-1.27,3.16-1.38a.1.1,0,0,0,0-.05l0-.59s0-.07-.07-.05c-.48.18-2.93,1.19-3.29,1.32a.85.85,0,0,1-.93-.09,8.92,8.92,0,0,1-1.16-1.32c0-.09-.11-.17.05-.2s4.91-1,5.41-1.09a.05.05,0,0,0,0-.05l0-.58a.06.06,0,0,0-.06-.06L6,15.76a.58.58,0,0,1-.69-.29c-.15-.2-.67-1.32-.73-1.43s-.11-.27.08-.29l6.07-.37a.05.05,0,0,0,0-.05l0-.54a.06.06,0,0,0-.06,0c-.52,0-4.67.14-4.95.13a.51.51,0,0,1-.56-.36,10.71,10.71,0,0,1-.32-1.67c0-.1,0-.19.15-.15,1.41.26,5.22.68,5.73.74a0,0,0,0,0,.06,0l0-.5s0-.05,0-.05c-.44-.07-3.92-.59-4.31-.66S6,10,5.94,9.71A10.19,10.19,0,0,1,5.8,8.37c0-.11,0-.18.14-.13,2.35.69,4.52,1.24,4.92,1.33a0,0,0,0,0,.06-.05l0-.48a.05.05,0,0,0,0,0L7.45,8.05a.68.68,0,0,1-.54-.54,8.12,8.12,0,0,1,0-1.14c0-.16,0-.2.15-.14,1.07.53,3.47,1.43,3.91,1.6a.06.06,0,0,0,.07,0l0-.47a.05.05,0,0,0,0,0L8.31,6.16a.55.55,0,0,1-.42-.56,4.37,4.37,0,0,1,0-.88c0-.17,0-.21.28-.06C8.69,5,10.58,6,11,6.16c0,0,.07,0,.07,0l0-.45a0,0,0,0,0,0,0L9.35,4.69c-.36-.2-.47-.35-.48-.53a5.81,5.81,0,0,1,0-.83c0-.24.09-.27.24-.14.68.54,1.61,1.15,1.89,1.33a.05.05,0,0,0,.08,0V4.07s0,0,0-.05L10,3.16a.41.41,0,0,1-.13-.24,4.88,4.88,0,0,1,.1-.76c0-.1.06-.16.17-.05a10.62,10.62,0,0,0,1,.92c.05.05.07.06.07,0,0-.47-.21-1.4.25-1.66h.05c.47.26.25,1.19.25,1.66,0,0,0,0,.08,0s.51-.42,1-.92c.11-.11.13,0,.16.05a3.77,3.77,0,0,1,.11.76.41.41,0,0,1-.13.24L11.78,4a.08.08,0,0,0,0,.05l0,.41a.05.05,0,0,0,.08,0c.27-.18,1.21-.79,1.88-1.33.16-.13.21-.1.25.14a4.83,4.83,0,0,1,0,.83c0,.18-.11.33-.48.53l-1.69.92a0,0,0,0,0,0,0l0,.45a.06.06,0,0,0,.08,0c.4-.21,2.28-1.19,2.8-1.5.26-.15.25-.11.27.06a4.46,4.46,0,0,1,0,.88.56.56,0,0,1-.42.56l-2.67,1.1a.05.05,0,0,0,0,0l0,.47a.05.05,0,0,0,.07,0c.44-.17,2.84-1.07,3.9-1.6.13-.06.15,0,.16.14a8.12,8.12,0,0,1,0,1.14c-.05.32-.28.45-.55.54L12,9S12,9,12,9v.48s0,.06.07.05c.39-.09,2.56-.64,4.91-1.33.16-.05.15,0,.15.13A12.24,12.24,0,0,1,17,9.71c-.1.3-.17.38-.59.46s-3.86.59-4.3.66c0,0,0,0,0,.05l0,.5a0,0,0,0,0,.06,0c.51-.06,4.31-.48,5.73-.74.18,0,.16.05.15.15a9.77,9.77,0,0,1-.33,1.67.5.5,0,0,1-.55.36c-.28,0-4.44-.12-4.95-.13,0,0-.06,0-.06,0l0,.54a0,0,0,0,0,.05.05l6.07.37c.19,0,.18.1.07.29s-.57,1.23-.72,1.43a.58.58,0,0,1-.69.29L12.25,15a.06.06,0,0,0-.06.06l0,.58s0,0,0,.05c.5.09,5.26,1.06,5.41,1.09s.1.11,0,.2a8.92,8.92,0,0,1-1.16,1.32.86.86,0,0,1-.94.09c-.36-.13-2.8-1.14-3.28-1.32,0,0-.07,0-.07.05l0,.59a.09.09,0,0,0,0,.05c.28.11,2.24,1,3.17,1.38.19.08.23.14.07.26a15.4,15.4,0,0,1-1.82.69c-.36.11-.4.25-1.28-.68-.07-.07-.1,0-.1,0l0,1.05c0,.85.09,1.69.15,2.46A11.48,11.48,0,0,0,11.45,0Z"/></svg>