<svg id="Layer_1" data-name="Layer 1" xmlns="http://www.w3.org/2000/svg" viewBox="0 0 250 250"><defs><style>.cls-1{fill:#63bdd5;}</style></defs><title>icon_blue_mark</title><path class="cls-1" d="M125,0C56,0,0,56.1,0,125.29A125.19,125.19,0,0,0,113,250c.61-8.34,1.19-17.6,1.62-26.87l.42-11.38c-.06-.64-.36-1.1-1.08-.34-9.58,10.11-10.08,8.55-14,7.38-4.44-1.3-17.83-6.19-19.82-7.57-1.78-1.24-1.27-1.9.76-2.75,10.11-4.28,31.56-13.86,34.57-15.13a.55.55,0,0,0,.35-.51l.25-6.45a.57.57,0,0,0-.78-.57c-5.23,2-31.92,13-35.84,14.45-4.31,1.6-6.75,1.39-10.18-1-2.63-1.83-11.28-12-12.72-14.46-.53-.91-1.11-1.8.6-2.16s53.54-10.91,59.07-11.95a.58.58,0,0,0,.47-.55l.26-6.33a.59.59,0,0,0-.67-.6c-5.93.93-46.25,8.06-50.74,8.8-4.83.79-5.89-1.06-7.56-3.17s-7.27-14.37-7.9-15.53c-1.14-2.11-1.24-3,.78-3.17,16.89-1.09,60.84-3.69,66.29-4a.58.58,0,0,0,.54-.56l.22-5.91a.59.59,0,0,0-.6-.61c-5.66.19-51,1.58-54.07,1.47s-4.39-.44-6.06-4c-1.5-3.17-3.41-16.73-3.59-18.23-.13-1.13-.26-2,1.69-1.67,15.43,2.86,57,7.48,62.57,8.18a.58.58,0,0,0,.65-.56l.21-5.45a.59.59,0,0,0-.49-.6c-4.76-.74-42.76-6.46-47-7.23-4.51-.83-5.32-1.68-6.37-5-.72-2.26-1.5-13.42-1.52-14.61s-.12-2,1.57-1.48c25.66,7.53,49.33,13.52,53.64,14.6a.59.59,0,0,0,.72-.55l.2-5.25a.58.58,0,0,0-.43-.59c-4.09-1.1-35-9.43-37.64-10.3-2.94-1-5.42-2.36-6-5.79a87.51,87.51,0,0,1-.52-12.55c.1-1.67.31-2.11,1.7-1.43,11.64,5.76,37.86,15.6,42.62,17.37a.59.59,0,0,0,.79-.52l.19-5.09a.58.58,0,0,0-.36-.56c-3.17-1.3-25.42-10.43-29.09-12s-4.26-2.81-4.61-6.09a51.39,51.39,0,0,1,.17-9.64c.27-1.86.14-2.32,3-.64C94.92,54.24,115.5,65,119.85,67.25a.58.58,0,0,0,.85-.49l.2-5a.59.59,0,0,0-.31-.54c-2.22-1.19-15.39-8.26-18.47-10-4-2.2-5.14-3.9-5.23-5.79a58.78,58.78,0,0,1,.39-9.08c.37-2.6,1-3,2.66-1.58,7.41,5.93,17.57,12.6,20.56,14.54a.58.58,0,0,0,.89-.47l.18-4.48a.64.64,0,0,0-.22-.48c-1.74-1.39-12.73-9.38-12.73-9.38a4.47,4.47,0,0,1-1.43-2.69,44.71,44.71,0,0,1,1.17-8.26c.39-1.1.63-1.71,1.83-.51a138.57,138.57,0,0,0,11,10c.61.5.84.6.84.08,0-5.13-2.33-15.31,2.73-18.11A.6.6,0,0,1,125,15a.51.51,0,0,1,.27.06c5.06,2.8,2.73,13,2.73,18.11,0,.52.23.42.84-.08a138.57,138.57,0,0,0,11-10c1.2-1.2,1.44-.59,1.83.51a44.71,44.71,0,0,1,1.17,8.26,4.47,4.47,0,0,1-1.43,2.69s-11,8-12.73,9.38a.64.64,0,0,0-.22.48l.18,4.48a.58.58,0,0,0,.89.47c3-1.94,13.15-8.61,20.56-14.54,1.71-1.37,2.29-1,2.65,1.58a58.5,58.5,0,0,1,.4,9.08c-.09,1.89-1.22,3.59-5.23,5.79-3.08,1.69-16.25,8.76-18.47,10a.59.59,0,0,0-.31.54l.2,5a.58.58,0,0,0,.85.49c4.35-2.27,24.93-13,30.59-16.38,2.82-1.68,2.69-1.22,3,.64a51.39,51.39,0,0,1,.17,9.64c-.35,3.28-1,4.53-4.61,6.09s-25.92,10.73-29.09,12a.58.58,0,0,0-.36.56l.19,5.09a.58.58,0,0,0,.78.52c4.77-1.77,31-11.61,42.63-17.37,1.39-.68,1.6-.24,1.7,1.43a87.73,87.73,0,0,1-.53,12.55c-.55,3.43-3,4.8-6,5.79C166,88.71,135.06,97,131,98.14a.58.58,0,0,0-.43.59l.2,5.25a.59.59,0,0,0,.72.55c4.3-1.08,28-7.07,53.64-14.6,1.69-.49,1.58.24,1.57,1.48s-.8,12.35-1.52,14.61c-1.05,3.31-1.86,4.16-6.38,5-4.2.77-42.21,6.49-47,7.23a.58.58,0,0,0-.49.6l.21,5.45a.58.58,0,0,0,.65.56c5.59-.7,47.14-5.32,62.57-8.18,1.94-.36,1.81.54,1.69,1.67-.18,1.5-2.09,15.06-3.59,18.23-1.67,3.52-3,3.86-6.06,4s-48.41-1.28-54.07-1.47a.59.59,0,0,0-.6.61l.22,5.91a.58.58,0,0,0,.54.56c5.45.33,49.4,2.93,66.29,4,2,.13,1.92,1.06.78,3.17-.63,1.16-6.24,13.42-7.91,15.53s-2.72,4-7.55,3.17c-4.49-.74-44.81-7.87-50.74-8.8a.59.59,0,0,0-.67.6l.26,6.33a.58.58,0,0,0,.47.55c5.53,1,57.44,11.6,59.07,11.95s1.13,1.25.6,2.16c-1.44,2.43-10.09,12.63-12.72,14.46-3.43,2.37-5.87,2.58-10.19,1-3.91-1.46-30.6-12.49-35.83-14.45a.58.58,0,0,0-.79.57l.26,6.45a.55.55,0,0,0,.35.51c3,1.27,24.46,10.85,34.57,15.13,2,.85,2.54,1.51.76,2.75-2,1.38-15.38,6.27-19.82,7.57-4,1.17-4.47,2.73-14.06-7.38-.71-.76-1-.3-1.07.34l.42,11.38c.43,9.27,1,18.53,1.62,26.87A125.18,125.18,0,0,0,250,125.29C250,56.1,194,0,125,0Z"/></svg>