<svg id="Outlined_Type" data-name="Outlined Type" xmlns="http://www.w3.org/2000/svg" viewBox="0 0 200 21.2"><defs><style>.cls-1{fill:#fff;}</style></defs><path class="cls-1" d="M8,18.55H4.31V2.68H8.25c5.29,0,8.19,2.67,8.19,8.19,0,4.75-2.64,7.68-8.44,7.68M8.79.47H0V.85c.79.47,1.13,1,1.13,3.21V17.17c0,2.2-.34,2.74-1.13,3.21v.38H8.22c7.65,0,11.59-4.54,11.59-10.71C19.81,4.5,16,.47,8.79.47M27.12,12.66l3.24-7.43,3.25,7.43Zm12.19,4.95L31.46.22H30.27L22.43,17.61c-.79,1.7-1.2,2.36-2.05,2.74v.37h5.23v-.37c-1-.41-1.39-1-.48-3.15l1.07-2.46h8.35l1.07,2.46c.92,2.11.6,2.74-.31,3.15v.37h5.95v-.37c-.79-.38-1.17-1-1.95-2.74M50,20.38c-.63-.32-1.14-1-1.14-3.21V2.58h2.65c3.21,0,4.85,1.26,4.85,3.94,0,2.46-1.55,4-4.47,4H50v.28l.89,1.83h.88c.94,0,1.26.31,2.68,2.24l3.62,4.88a1.84,1.84,0,0,0,1.73,1h3.56v-.38c-.76-.29-1.32-.73-2.74-2.52l-2.49-3.18c-1.32-1.67-2-2.52-2.93-2.87,3-.79,4.54-2.9,4.54-5.45,0-3.75-2.49-5.89-7.88-5.89h-7.3V.85c.63.32,1.13,1,1.13,3.21V17.17c0,2.2-.5,2.89-1.13,3.21v.38H50v-.38Zm25.35,0c-.88-.51-1.26-1.07-1.26-3.37V2.68h2.46c3.15,0,3.78.47,4.6,1.51l.37-.13L80.94.19a36.42,36.42,0,0,1-4.72.25H68.79A45.62,45.62,0,0,1,64.06.19L63.46,4l.38.13c.85-1,1.45-1.51,4.6-1.51H70.9V17c0,2.3-.41,2.86-1.26,3.37v.37H75.4v-.34Zm12.47,0c-.88-.38-1.26-1.07-1-3.31L88.19,7,94.8,20.5H96L102.74,7,104,17.2c.25,2.17,0,2.8-.88,3.18v.38h5.51v-.38c-.76-.41-1.07-1-1.35-3.06L104.94.25h-1.48L95.91,15.87,88.35.25H86.87l-2.4,17c-.28,2.11-.72,2.74-1.57,3.18v.38h5v-.38ZM122.08,19c-4.28,0-7.59-3.75-7.59-8.85,0-4.88,2.8-7.87,7.05-7.87s7.59,3.74,7.59,8.85c0,4.85-2.83,7.87-7,7.87M121.8,0a10.49,10.49,0,0,0-10.71,10.74c0,5.45,3.87,10.43,10.74,10.43a10.49,10.49,0,0,0,10.71-10.74C132.54,5,128.66,0,121.8,0M150,.85c.85.5,1.26,1.07,1.26,3.37v8.66c0,3.72-2,5.77-5.51,5.77s-5.6-2-5.6-5.58v-9c0-2.2.34-2.74,1.13-3.21V.47h-5.48V.85c.79.47,1.13,1,1.13,3.21v9.23c0,5,3.09,7.91,8.41,7.91s8.41-3,8.41-8.32V4.19c0-2.3.44-2.87,1.26-3.37V.44h-5V.85Zm20.13,19.53c-.88-.51-1.26-1.07-1.26-3.37V2.68h2.46c3.15,0,3.78.47,4.6,1.51l.37-.13L175.69.22A36.7,36.7,0,0,1,171,.47h-7.43A43,43,0,0,1,158.8.22l-.6,3.84.38.13c.85-1,1.45-1.51,4.6-1.51h2.46V17c0,2.3-.41,2.86-1.26,3.37v.38h5.76v-.38ZM185.17.85V.47h-5.48V.85c.78.47,1.13,1,1.13,3.21V17.17c0,2.2-.35,2.74-1.13,3.21v.38h5.48v-.38c-.79-.47-1.14-1-1.14-3.21V11.5h11.62v5.63c0,2.21-.34,2.74-1.13,3.22v.37H200v-.37c-.79-.48-1.13-1-1.13-3.22V4.06c0-2.2.34-2.74,1.13-3.21V.47h-5.48V.85c.79.47,1.13,1,1.13,3.21v5.2H184V4.06c0-2.2.35-2.77,1.14-3.21"/></svg>