<svg id="Layer_1" data-name="Layer 1" xmlns="http://www.w3.org/2000/svg" viewBox="0 0 250 70.81"><defs><style>.cls-1{fill:#1d2c27;}.cls-2{font-size:14.18px;fill:#fff;font-family:BentonSans-Black, BentonSans;font-weight:800;}.cls-3{letter-spacing:0.01em;}.cls-4{letter-spacing:0.01em;}.cls-5{letter-spacing:0em;}.cls-6{letter-spacing:-0.01em;}.cls-7{letter-spacing:0em;}.cls-8{letter-spacing:0.02em;}.cls-9{letter-spacing:-0.01em;}.cls-10{letter-spacing:0.01em;}</style></defs><title>vertical_bg_mark</title><path class="cls-1" d="M50,10.48H230a20,20,0,0,1,20,20V45.2a20,20,0,0,1-20,20H50a0,0,0,0,1,0,0V10.48A0,0,0,0,1,50,10.48Z"/><text class="cls-2" transform="translate(62.86 34.88)">D<tspan class="cls-3" x="10.68" y="0">artmouth Hi</tspan><tspan x="99.33" y="0">s</tspan><tspan class="cls-4" x="107.06" y="0">tori</tspan><tspan class="cls-5" x="133.5" y="0">c</tspan><tspan class="cls-4" x="141.5" y="0">al</tspan><tspan class="cls-6" x="0" y="16.67">A</tspan><tspan class="cls-7" x="10.21" y="16.67">cc</tspan><tspan class="cls-4" x="26.35" y="16.67">ountabili</tspan><tspan class="cls-8" x="91.63" y="16.67">t</tspan><tspan class="cls-4" x="98.32" y="16.67">y </tspan><tspan class="cls-6" x="110.8" y="16.67">P</tspan><tspan x="120.44" y="16.67">r</tspan><tspan class="cls-4" x="126.61" y="16.67">og</tspan><tspan class="cls-9" x="144.72" y="16.67">r</tspan><tspan class="cls-10" x="150.82" y="16.67">am</tspan></text><g id="Lone_Pine" data-name="Lone Pine"><path class="cls-1" d="M20,0l.07,0,.07,0c1.34.74.72,3.43.72,4.79,0,.14.06.11.23,0,.58-.49,1.48-1.22,2.91-2.65.31-.32.38-.16.48.13a11.61,11.61,0,0,1,.31,2.19,1.2,1.2,0,0,1-.38.71s-2.91,2.11-3.37,2.48a.16.16,0,0,0-.06.13L21,9a.16.16,0,0,0,.24.13c.79-.51,3.49-2.28,5.45-3.85.46-.36.61-.27.71.42a15.37,15.37,0,0,1,.1,2.4c0,.5-.32.95-1.38,1.53l-4.9,2.64a.13.13,0,0,0-.08.14l.05,1.32a.14.14,0,0,0,.22.13c1.16-.6,6.62-3.44,8.12-4.33.74-.44.71-.32.78.17a14,14,0,0,1,0,2.55,1.61,1.61,0,0,1-1.23,1.61c-1,.43-6.87,2.84-7.71,3.18a.18.18,0,0,0-.1.15l.05,1.35a.16.16,0,0,0,.21.14c1.27-.47,8.22-3.07,11.31-4.6.36-.18.42-.06.45.38a24.33,24.33,0,0,1-.14,3.32c-.15.91-.81,1.27-1.59,1.53s-8.89,2.43-10,2.73a.13.13,0,0,0-.11.15l.05,1.39a.16.16,0,0,0,.19.15c1.14-.29,7.42-1.88,14.22-3.87.45-.13.42.07.42.39a31.42,31.42,0,0,1-.4,3.87c-.28.87-.49,1.1-1.69,1.32s-11.2,1.72-12.46,1.91a.17.17,0,0,0-.13.16l.06,1.44a.15.15,0,0,0,.17.15c1.48-.18,12.5-1.41,16.59-2.16.52-.1.48.14.45.44a31.24,31.24,0,0,1-1,4.82,1.46,1.46,0,0,1-1.61,1.05c-.8,0-12.83-.34-14.33-.39A.15.15,0,0,0,22,33L22,34.54a.16.16,0,0,0,.15.15c1.44.09,13.1.78,17.57,1.07.54,0,.51.28.21.84-.16.3-1.65,3.54-2.09,4.1a1.7,1.7,0,0,1-2,.84c-1.19-.19-11.88-2.08-13.45-2.32a.15.15,0,0,0-.18.15l.07,1.68a.14.14,0,0,0,.12.14c1.47.28,15.24,3.07,15.67,3.16s.3.33.16.57a24.74,24.74,0,0,1-3.38,3.83,2.49,2.49,0,0,1-2.7.26c-1-.38-8.11-3.3-9.5-3.82a.16.16,0,0,0-.21.15l.07,1.7a.16.16,0,0,0,.09.14c.8.34,6.49,2.87,9.17,4,.54.23.67.4.2.73a40.91,40.91,0,0,1-5.25,2c-1.06.31-1.19.73-3.73-1.95-.19-.2-.27-.08-.29.09l.11,3c.3,6.29.84,12.59,1.15,14.7.06.38.16.68-.49.77a20.78,20.78,0,0,1-6.8,0c-.66-.09-.55-.39-.49-.77.31-2.11.84-8.41,1.14-14.7l.11-3c0-.17-.09-.29-.28-.09-2.55,2.68-2.68,2.26-3.73,1.95a40.54,40.54,0,0,1-5.26-2c-.47-.33-.33-.5.21-.73,2.68-1.13,8.37-3.66,9.16-4a.17.17,0,0,0,.1-.14l.06-1.7a.15.15,0,0,0-.2-.15C16.12,45.71,9,48.63,8,49a2.5,2.5,0,0,1-2.7-.26,25.2,25.2,0,0,1-3.37-3.83c-.14-.24-.3-.47.16-.57s14.2-2.88,15.66-3.16a.16.16,0,0,0,.13-.14l.06-1.68a.14.14,0,0,0-.17-.15c-1.58.24-12.27,2.13-13.46,2.32a1.68,1.68,0,0,1-2-.84c-.44-.56-1.93-3.8-2.1-4.1-.3-.56-.32-.81.21-.84,4.48-.29,16.13-1,17.58-1.07a.15.15,0,0,0,.14-.15L18.2,33a.16.16,0,0,0-.16-.16c-1.5,0-13.54.42-14.34.39a1.45,1.45,0,0,1-1.6-1.05,30.09,30.09,0,0,1-1-4.82c0-.3-.07-.54.44-.44,4.09.75,15.11,2,16.59,2.16a.17.17,0,0,0,.18-.15l.05-1.44a.15.15,0,0,0-.13-.16C17,27.12,6.94,25.6,5.83,25.4S4.42,25,4.14,24.08a31.42,31.42,0,0,1-.4-3.87c0-.32,0-.52.41-.39,6.81,2,13.08,3.58,14.22,3.87a.17.17,0,0,0,.2-.15l.05-1.39a.14.14,0,0,0-.11-.15c-1.09-.3-9.3-2.5-10-2.73s-1.43-.62-1.58-1.53a22.81,22.81,0,0,1-.14-3.32c0-.44.08-.56.45-.38,3.09,1.53,10,4.13,11.3,4.6a.16.16,0,0,0,.21-.14l0-1.35a.15.15,0,0,0-.09-.15c-.84-.34-6.74-2.75-7.72-3.18a1.6,1.6,0,0,1-1.22-1.61,13.15,13.15,0,0,1,.05-2.55c.07-.49,0-.61.78-.17,1.5.89,7,3.73,8.11,4.33a.15.15,0,0,0,.23-.13L19,12.37a.15.15,0,0,0-.08-.14L14,9.59C13,9,12.66,8.56,12.63,8.06a15.1,15.1,0,0,1,.11-2.4c.09-.69.25-.78.7-.42,2,1.57,4.66,3.34,5.45,3.85A.16.16,0,0,0,19.13,9l.05-1.18a.16.16,0,0,0-.06-.13c-.46-.37-3.38-2.48-3.38-2.48a1.15,1.15,0,0,1-.37-.71,11.75,11.75,0,0,1,.3-2.19c.11-.29.17-.45.49-.13a37.64,37.64,0,0,0,2.91,2.65c.16.13.22.16.22,0,0-1.36-.61-4,.73-4.79"/></g></svg>