<svg id="Outlined_Type" data-name="Outlined Type" xmlns="http://www.w3.org/2000/svg" viewBox="0 0 250 70.81"><defs><style>.cls-1{fill:#1d2c27;}.cls-2{fill:#fff;}</style></defs><path class="cls-1" d="M50,10.48H230a20,20,0,0,1,20,20V45.2a20,20,0,0,1-20,20H50a0,0,0,0,1,0,0V10.48A0,0,0,0,1,50,10.48Z"/><path class="cls-2" d="M63.73,24.63h2.5v3.43H69.3V24.63h2.5v9.25H69.3V30.14H66.23v3.74h-2.5Z"/><path class="cls-2" d="M73.53,26.53v-1.9H76v1.9Zm0,7.35v-6.7H76v6.7Z"/><path class="cls-2" d="M77,33.05,78,31.66a4.26,4.26,0,0,0,2.4.82c.43,0,.8-.13.8-.44s-.31-.46-1-.56c-1.13-.17-2.75-.43-2.75-2.17,0-1.5,1.23-2.26,2.74-2.26a4.85,4.85,0,0,1,3.13.93l-.92,1.36a4.18,4.18,0,0,0-2-.68c-.41,0-.69.13-.69.43s.35.42,1,.51c1.13.15,2.76.4,2.76,2S81.91,34,80.36,34A5.38,5.38,0,0,1,77,33.05Z"/><path class="cls-2" d="M84.91,31.86V29H83.83V27.18h1.08V24.93h2.48v2.25H89.1V29H87.39v2.36c0,.72.17.89.87.89a3.38,3.38,0,0,0,.65-.07v1.72A11.08,11.08,0,0,1,87.4,34C85.13,34,84.91,33.16,84.91,31.86Z"/><path class="cls-2" d="M89.76,30.54c0-2.79,1.95-3.49,3.58-3.49s3.57.7,3.57,3.49S95,34,93.34,34,89.76,33.29,89.76,30.54Zm4.68,0c0-1-.25-1.72-1.1-1.72s-1.1.67-1.1,1.72.24,1.75,1.1,1.75S94.44,31.61,94.44,30.55Z"/><path class="cls-2" d="M98,33.88v-6.7h2.47v1h0a2.33,2.33,0,0,1,2.09-1.16h0v2.19c-.1,0-.45,0-.63,0a2.34,2.34,0,0,0-1.5.61v4.08Z"/><path class="cls-2" d="M103.65,26.53v-1.9h2.48v1.9Zm0,7.35v-6.7h2.48v6.7Z"/><path class="cls-2" d="M107.3,30.54a3.25,3.25,0,0,1,3.53-3.49,2.84,2.84,0,0,1,3.06,2.13l-2.08.65c-.21-.82-.55-1-1-1-.74,0-1,.67-1,1.72s.17,1.75,1,1.75c.4,0,.86-.2,1.08-1.07l2,.68a3.44,3.44,0,0,1-6.61-1.37Z"/><path class="cls-2" d="M114.25,32.08c0-1.5,1.39-2.42,4.14-2.54v-.09c0-.32-.16-.56-.74-.56a3.63,3.63,0,0,0-2.06.72l-1-1.4A4.93,4.93,0,0,1,118,27.05c2,0,2.76.93,2.76,2.81v2.39a4.52,4.52,0,0,0,.19,1.63h-2.45a3.15,3.15,0,0,1-.15-1A2.67,2.67,0,0,1,116.16,34,1.8,1.8,0,0,1,114.25,32.08Zm4.14-.33V30.8c-1.2,0-1.73.35-1.73.86,0,.33.24.48.55.48A1.62,1.62,0,0,0,118.39,31.75Z"/><path class="cls-2" d="M122.26,33.88V24.63h2.48v9.25Z"/><path class="cls-2" d="M129.05,33.88l3.28-9.29h2.32l3.27,9.29H135.4l-.56-1.73h-2.91l-.6,1.73Zm3.46-3.5h1.76l-.84-2.57h0Z"/><path class="cls-2" d="M138.24,30.54a3.25,3.25,0,0,1,3.52-3.49,2.83,2.83,0,0,1,3.06,2.13l-2.07.65c-.21-.82-.55-1-1-1-.74,0-1,.67-1,1.72s.18,1.75,1,1.75c.4,0,.86-.2,1.09-1.07l2,.68a3.44,3.44,0,0,1-6.61-1.37Z"/><path class="cls-2" d="M145.35,30.54a3.25,3.25,0,0,1,3.53-3.49,2.84,2.84,0,0,1,3.06,2.13l-2.08.65c-.21-.82-.55-1-1-1-.74,0-1,.67-1,1.72s.17,1.75,1,1.75c.41,0,.87-.2,1.09-1.07l2.05.68a3.44,3.44,0,0,1-6.61-1.37Z"/><path class="cls-2" d="M152.46,30.54c0-2.79,1.95-3.49,3.58-3.49s3.57.7,3.57,3.49S157.65,34,156,34,152.46,33.29,152.46,30.54Zm4.68,0c0-1-.25-1.72-1.1-1.72s-1.1.67-1.1,1.72.24,1.75,1.1,1.75S157.14,31.61,157.14,30.55Z"/><path class="cls-2" d="M160.66,32.08v-4.9h2.48v4.15c0,.46.15.72.56.72a1.77,1.77,0,0,0,1.11-.47v-4.4h2.48v6.7h-2.48v-1A2.55,2.55,0,0,1,162.59,34,1.74,1.74,0,0,1,160.66,32.08Z"/><path class="cls-2" d="M168.78,27.18h2.47v1a2.56,2.56,0,0,1,2.22-1.16A1.74,1.74,0,0,1,175.4,29v4.89h-2.48V29.8c0-.46-.15-.72-.56-.72a1.79,1.79,0,0,0-1.11.47v4.33h-2.47Z"/><path class="cls-2" d="M177.36,31.86V29h-1.08V27.18h1.08V24.93h2.48v2.25h1.71V29h-1.71v2.36c0,.72.17.89.87.89a3.38,3.38,0,0,0,.65-.07v1.72a11.08,11.08,0,0,1-1.51.11C177.58,34,177.36,33.16,177.36,31.86Z"/><path class="cls-2" d="M182.11,32.08c0-1.5,1.39-2.42,4.14-2.54v-.09c0-.32-.16-.56-.74-.56a3.63,3.63,0,0,0-2.06.72l-1-1.4a4.93,4.93,0,0,1,3.46-1.16c2,0,2.76.93,2.76,2.81v2.39a4.52,4.52,0,0,0,.19,1.63H186.4a3.15,3.15,0,0,1-.15-1A2.67,2.67,0,0,1,184,34,1.8,1.8,0,0,1,182.11,32.08Zm4.14-.33V30.8c-1.2,0-1.73.35-1.73.86,0,.33.24.48.55.48A1.62,1.62,0,0,0,186.25,31.75Z"/><path class="cls-2" d="M192.54,33.15v.73h-2.48V24.63h2.48v3.58a2.31,2.31,0,0,1,2-1.16c1.52,0,2.5,1.18,2.5,3.48S196,34,194.5,34A2.37,2.37,0,0,1,192.54,33.15Zm2-2.61c0-.83-.19-1.46-1-1.46a1.56,1.56,0,0,0-1,.48v2.15a1.37,1.37,0,0,0,1,.43C194.3,32.14,194.55,31.49,194.55,30.54Z"/><path class="cls-2" d="M198.2,26.53v-1.9h2.48v1.9Zm0,7.35v-6.7h2.48v6.7Z"/><path class="cls-2" d="M202.28,33.88V24.63h2.47v9.25Z"/><path class="cls-2" d="M206.35,26.53v-1.9h2.47v1.9Zm0,7.35v-6.7h2.47v6.7Z"/><path class="cls-2" d="M210.93,31.86V29h-1.09V27.18h1.09V24.93h2.47v2.25h1.71V29H213.4v2.36c0,.72.17.89.87.89a3.38,3.38,0,0,0,.65-.07v1.72a11.08,11.08,0,0,1-1.51.11C211.14,34,210.93,33.16,210.93,31.86Z"/><path class="cls-2" d="M215.41,36.16l.52-1.9a5.3,5.3,0,0,0,1.41.2.59.59,0,0,0,.64-.38l.06-.17-2.55-6.73H218L219.26,31h0l1.23-3.82h2.39l-2.8,7.37a2.45,2.45,0,0,1-2.47,1.89A7.56,7.56,0,0,1,215.41,36.16Z"/><path class="cls-2" d="M63.2,48.84l1.85-1.15a2.86,2.86,0,0,0,2.43,1.4c.76,0,1.33-.23,1.33-.8s-.73-.81-1.65-1c-1.51-.39-3.52-.77-3.52-2.87,0-1.89,1.42-2.93,3.52-2.93A4.75,4.75,0,0,1,71,43.27l-1.68,1.37a3.16,3.16,0,0,0-2.21-1.16c-.71,0-1.07.23-1.07.67,0,.61.72.84,1.63,1.06,1.52.37,3.54.83,3.54,2.9,0,1.48-1,2.94-3.89,2.94A4.56,4.56,0,0,1,63.2,48.84Z"/><path class="cls-2" d="M73.09,48.86V46H72V44.18h1.09V41.93h2.47v2.25h1.72V46H75.56v2.36c0,.72.18.89.88.89a3.48,3.48,0,0,0,.65-.07v1.72a11.37,11.37,0,0,1-1.51.11C73.3,51,73.09,50.16,73.09,48.86Z"/><path class="cls-2" d="M78.24,49.08v-4.9h2.47v4.15c0,.46.15.72.57.72a1.82,1.82,0,0,0,1.11-.47v-4.4h2.47v6.7H82.39v-1A2.57,2.57,0,0,1,80.16,51,1.73,1.73,0,0,1,78.24,49.08Z"/><path class="cls-2" d="M86,47.6c0-2.3,1-3.55,2.52-3.55a2.12,2.12,0,0,1,2,.93V41.63h2.48v7.62a4.25,4.25,0,0,0,.2,1.63H90.61a2.66,2.66,0,0,1-.15-1,2.26,2.26,0,0,1-2,1.1C87,51,86,49.9,86,47.6Zm4.48,1V46.5a1.36,1.36,0,0,0-1-.42c-.74,0-1,.56-1,1.51s.19,1.55,1,1.55A1.57,1.57,0,0,0,90.46,48.65Z"/><path class="cls-2" d="M94.05,47.54a3.36,3.36,0,0,1,3.53-3.49c1.32,0,3.22.48,3.22,3.81v.38H96.51c.13.87.62,1.09,1.34,1.09a4,4,0,0,0,1.92-.62l.89,1.5a5.48,5.48,0,0,1-3,.8C95.83,51,94.05,50.25,94.05,47.54Zm4.56-.71c-.1-.8-.46-1-1-1s-.87.28-1,1Z"/><path class="cls-2" d="M101.91,44.18h2.48v1a2.56,2.56,0,0,1,2.22-1.16A1.74,1.74,0,0,1,108.54,46v4.89h-2.48V46.8c0-.46-.15-.72-.56-.72a1.79,1.79,0,0,0-1.11.47v4.33h-2.48Z"/><path class="cls-2" d="M110.5,48.86V46h-1.09V44.18h1.09V41.93H113v2.25h1.71V46H113v2.36c0,.72.17.89.87.89a3.48,3.48,0,0,0,.65-.07v1.72A11.08,11.08,0,0,1,113,51C110.71,51,110.5,50.16,110.5,48.86Z"/><path class="cls-2" d="M119.6,50.88V41.63h3.61c2.38,0,3.83.79,3.83,3a2.53,2.53,0,0,1-1.83,2.7l2,3.54h-2.65l-1.78-3.22h-.69v3.22Zm2.45-5.12h1.07c1,0,1.48-.28,1.48-1.06s-.45-1.05-1.48-1.05h-1.07Z"/><path class="cls-2" d="M127.79,47.54a3.36,3.36,0,0,1,3.52-3.49c1.33,0,3.23.48,3.23,3.81v.38h-4.29c.13.87.61,1.09,1.34,1.09a4.08,4.08,0,0,0,1.92-.62l.89,1.5a5.48,5.48,0,0,1-3,.8C129.56,51,127.79,50.25,127.79,47.54Zm4.56-.71c-.1-.8-.46-1-1-1s-.87.28-1,1Z"/><path class="cls-2" d="M135,50.05l.92-1.39a4.2,4.2,0,0,0,2.39.82c.43,0,.8-.13.8-.44s-.31-.46-1-.56c-1.14-.17-2.75-.43-2.75-2.17,0-1.5,1.22-2.26,2.73-2.26a4.81,4.81,0,0,1,3.13.93l-.91,1.36a4.25,4.25,0,0,0-2-.68c-.41,0-.68.13-.68.43s.35.42,1,.51c1.14.15,2.76.4,2.76,2S139.89,51,138.34,51A5.41,5.41,0,0,1,135,50.05Z"/><path class="cls-2" d="M142,47.54a3.36,3.36,0,0,1,3.52-3.49c1.32,0,3.22.48,3.22,3.81v.38h-4.28c.12.87.61,1.09,1.33,1.09a4.12,4.12,0,0,0,1.93-.62l.89,1.5a5.48,5.48,0,0,1-3,.8C143.8,51,142,50.25,142,47.54Zm4.56-.71c-.1-.8-.47-1-1.05-1s-.88.28-1,1Z"/><path class="cls-2" d="M149.35,49.08c0-1.5,1.39-2.42,4.14-2.54v-.09c0-.32-.17-.56-.74-.56a3.63,3.63,0,0,0-2.06.72l-1-1.4a4.93,4.93,0,0,1,3.46-1.16c2,0,2.76.93,2.76,2.81v2.39a4.52,4.52,0,0,0,.19,1.63h-2.45a3.15,3.15,0,0,1-.15-1A2.67,2.67,0,0,1,151.26,51,1.8,1.8,0,0,1,149.35,49.08Zm4.14-.33v-1c-1.2,0-1.73.35-1.73.86,0,.33.24.48.55.48A1.65,1.65,0,0,0,153.49,48.75Z"/><path class="cls-2" d="M157.3,50.88v-6.7h2.48v1h0a2.31,2.31,0,0,1,2.09-1.16h0v2.19c-.1,0-.45-.05-.63-.05a2.31,2.31,0,0,0-1.49.61v4.08Z"/><path class="cls-2" d="M162.25,47.54a3.25,3.25,0,0,1,3.53-3.49,2.84,2.84,0,0,1,3.06,2.13l-2.08.65c-.21-.82-.55-1-1-1-.74,0-1,.67-1,1.72s.17,1.75,1,1.75c.4,0,.86-.2,1.08-1.07l2.05.68a3.11,3.11,0,0,1-3.17,2.1A3.15,3.15,0,0,1,162.25,47.54Z"/><path class="cls-2" d="M169.79,50.88V41.63h2.47v3.58a2.57,2.57,0,0,1,2.23-1.16A1.74,1.74,0,0,1,176.41,46v4.89h-2.47V46.8c0-.46-.15-.72-.56-.72a1.82,1.82,0,0,0-1.12.47v4.33Z"/><path class="cls-2" d="M181.71,50.88V41.63h3.47c2,0,4,.41,4,3.15s-2.18,3.15-4,3.15h-1v3ZM184.19,46h1.07c1.16,0,1.48-.49,1.48-1.19s-.32-1.19-1.48-1.19h-1.07Z"/><path class="cls-2" d="M190,50.88v-6.7h2.47v1h0a2.33,2.33,0,0,1,2.09-1.16h0v2.19c-.1,0-.44-.05-.62-.05a2.34,2.34,0,0,0-1.5.61v4.08Z"/><path class="cls-2" d="M195.1,47.54c0-2.79,2-3.49,3.58-3.49s3.57.7,3.57,3.49-2,3.47-3.57,3.47S195.1,50.29,195.1,47.54Zm4.67,0c0-1-.25-1.72-1.09-1.72s-1.1.67-1.1,1.72.23,1.75,1.1,1.75S199.77,48.61,199.77,47.55Z"/><path class="cls-2" d="M202.56,51.93c0-.64.55-1,1.05-1.28a.94.94,0,0,1-.4-.77,2,2,0,0,1,1-1.52,2.14,2.14,0,0,1-1.14-1.92c0-1.31,1-2.39,3.15-2.39a3.5,3.5,0,0,1,2.38.74,3.16,3.16,0,0,1,1.8-.73V45.9a5.1,5.1,0,0,0-1.1.11c0,.12,0,.27,0,.43,0,1.31-1,2.39-3.1,2.39a6.09,6.09,0,0,1-1-.09.5.5,0,0,0-.1.25c0,.24.28.25.65.26l.83,0c2.58.07,3.55.63,3.55,2s-1.8,2.11-4.13,2.11C203.45,53.37,202.56,52.82,202.56,51.93Zm5.49-.24c0-.33-.09-.45-1.76-.51l-.95,0a2.42,2.42,0,0,1-.47,0,1,1,0,0,0-.07.36c0,.53.46.73,1.69.73C207.39,52.19,208.05,52,208.05,51.69Zm-.88-5.15a.88.88,0,1,0-.87,1A.87.87,0,0,0,207.17,46.54Z"/><path class="cls-2" d="M211.43,50.88v-6.7h2.47v1h0A2.31,2.31,0,0,1,216,44.05h0v2.19c-.1,0-.45-.05-.62-.05a2.34,2.34,0,0,0-1.5.61v4.08Z"/><path class="cls-2" d="M216.34,49.08c0-1.5,1.39-2.42,4.13-2.54v-.09c0-.32-.16-.56-.73-.56a3.61,3.61,0,0,0-2.06.72l-1-1.4a4.93,4.93,0,0,1,3.46-1.16c2,0,2.77.93,2.77,2.81v2.39a4.82,4.82,0,0,0,.18,1.63h-2.45a3.48,3.48,0,0,1-.15-1A2.65,2.65,0,0,1,218.25,51,1.8,1.8,0,0,1,216.34,49.08Zm4.13-.33v-1c-1.2,0-1.72.35-1.72.86,0,.33.24.48.55.48A1.61,1.61,0,0,0,220.47,48.75Z"/><path class="cls-2" d="M224.29,50.88v-6.7h2.47v1a2.53,2.53,0,0,1,2.09-1.16c1.11,0,1.64.44,1.82,1.16a2.54,2.54,0,0,1,2.09-1.16,1.85,1.85,0,0,1,2,2.06v4.77h-2.47V46.8c0-.46-.06-.72-.51-.72a1.58,1.58,0,0,0-1,.47v4.33h-2.48V46.8c0-.46-.06-.72-.51-.72a1.61,1.61,0,0,0-1,.47v4.33Z"/><g id="Lone_Pine" data-name="Lone Pine"><path class="cls-1" d="M20,0l.07,0,.07,0c1.34.74.72,3.43.72,4.79,0,.14.06.11.23,0,.58-.49,1.48-1.22,2.91-2.65.31-.32.38-.16.48.13a11.61,11.61,0,0,1,.31,2.19,1.2,1.2,0,0,1-.38.71s-2.91,2.11-3.37,2.48a.16.16,0,0,0-.06.13L21,9a.16.16,0,0,0,.24.13c.79-.51,3.49-2.28,5.45-3.85.46-.36.61-.27.71.42a15.37,15.37,0,0,1,.1,2.4c0,.5-.32.95-1.38,1.53l-4.9,2.64a.13.13,0,0,0-.08.14l.05,1.32a.14.14,0,0,0,.22.13c1.16-.6,6.62-3.44,8.12-4.33.74-.44.71-.32.78.17a14,14,0,0,1,0,2.55,1.61,1.61,0,0,1-1.23,1.61c-1,.43-6.87,2.84-7.71,3.18a.18.18,0,0,0-.1.15l.05,1.35a.16.16,0,0,0,.21.14c1.27-.47,8.22-3.07,11.31-4.6.36-.18.42-.06.45.38a24.33,24.33,0,0,1-.14,3.32c-.15.91-.81,1.27-1.59,1.53s-8.89,2.43-10,2.73a.13.13,0,0,0-.11.15l.05,1.39a.16.16,0,0,0,.19.15c1.14-.29,7.42-1.88,14.22-3.87.45-.13.42.07.42.39a31.42,31.42,0,0,1-.4,3.87c-.28.87-.49,1.1-1.69,1.32s-11.2,1.72-12.46,1.91a.17.17,0,0,0-.13.16l.06,1.44a.15.15,0,0,0,.17.15c1.48-.18,12.5-1.41,16.59-2.16.52-.1.48.14.45.44a31.24,31.24,0,0,1-1,4.82,1.46,1.46,0,0,1-1.61,1.05c-.8,0-12.83-.34-14.33-.39A.15.15,0,0,0,22,33L22,34.54a.16.16,0,0,0,.15.15c1.44.09,13.1.78,17.57,1.07.54,0,.51.28.21.84-.16.3-1.65,3.54-2.09,4.1a1.7,1.7,0,0,1-2,.84c-1.19-.19-11.88-2.08-13.45-2.32a.15.15,0,0,0-.18.15l.07,1.68a.14.14,0,0,0,.12.14c1.47.28,15.24,3.07,15.67,3.16s.3.33.16.57a24.74,24.74,0,0,1-3.38,3.83,2.49,2.49,0,0,1-2.7.26c-1-.38-8.11-3.3-9.5-3.82a.16.16,0,0,0-.21.15l.07,1.7a.16.16,0,0,0,.09.14c.8.34,6.49,2.87,9.17,4,.54.23.67.4.2.73a40.91,40.91,0,0,1-5.25,2c-1.06.31-1.19.73-3.73-1.95-.19-.2-.27-.08-.29.09l.11,3c.3,6.29.84,12.59,1.15,14.7.06.38.16.68-.49.77a20.78,20.78,0,0,1-6.8,0c-.66-.09-.55-.39-.49-.77.31-2.11.84-8.41,1.14-14.7l.11-3c0-.17-.09-.29-.28-.09-2.55,2.68-2.68,2.26-3.73,1.95a40.54,40.54,0,0,1-5.26-2c-.47-.33-.33-.5.21-.73,2.68-1.13,8.37-3.66,9.16-4a.17.17,0,0,0,.1-.14l.06-1.7a.15.15,0,0,0-.2-.15C16.12,45.71,9,48.63,8,49a2.5,2.5,0,0,1-2.7-.26,25.2,25.2,0,0,1-3.37-3.83c-.14-.24-.3-.47.16-.57s14.2-2.88,15.66-3.16a.16.16,0,0,0,.13-.14l.06-1.68a.14.14,0,0,0-.17-.15c-1.58.24-12.27,2.13-13.46,2.32a1.68,1.68,0,0,1-2-.84c-.44-.56-1.93-3.8-2.1-4.1-.3-.56-.32-.81.21-.84,4.48-.29,16.13-1,17.58-1.07a.15.15,0,0,0,.14-.15L18.2,33a.16.16,0,0,0-.16-.16c-1.5,0-13.54.42-14.34.39a1.45,1.45,0,0,1-1.6-1.05,30.09,30.09,0,0,1-1-4.82c0-.3-.07-.54.44-.44,4.09.75,15.11,2,16.59,2.16a.17.17,0,0,0,.18-.15l.05-1.44a.15.15,0,0,0-.13-.16C17,27.12,6.94,25.6,5.83,25.4S4.42,25,4.14,24.08a31.42,31.42,0,0,1-.4-3.87c0-.32,0-.52.41-.39,6.81,2,13.08,3.58,14.22,3.87a.17.17,0,0,0,.2-.15l.05-1.39a.14.14,0,0,0-.11-.15c-1.09-.3-9.3-2.5-10-2.73s-1.43-.62-1.58-1.53a22.81,22.81,0,0,1-.14-3.32c0-.44.08-.56.45-.38,3.09,1.53,10,4.13,11.3,4.6a.16.16,0,0,0,.21-.14l0-1.35a.15.15,0,0,0-.09-.15c-.84-.34-6.74-2.75-7.72-3.18a1.6,1.6,0,0,1-1.22-1.61,13.15,13.15,0,0,1,.05-2.55c.07-.49,0-.61.78-.17,1.5.89,7,3.73,8.11,4.33a.15.15,0,0,0,.23-.13L19,12.37a.15.15,0,0,0-.08-.14L14,9.59C13,9,12.66,8.56,12.63,8.06a15.1,15.1,0,0,1,.11-2.4c.09-.69.25-.78.7-.42,2,1.57,4.66,3.34,5.45,3.85A.16.16,0,0,0,19.13,9l.05-1.18a.16.16,0,0,0-.06-.13c-.46-.37-3.38-2.48-3.38-2.48a1.15,1.15,0,0,1-.37-.71,11.75,11.75,0,0,1,.3-2.19c.11-.29.17-.45.49-.13a37.64,37.64,0,0,0,2.91,2.65c.16.13.22.16.22,0,0-1.36-.61-4,.73-4.79"/></g></svg>