<svg id="Outlined_Type" data-name="Outlined Type" xmlns="http://www.w3.org/2000/svg" viewBox="0 0 251.5 70.78"><defs><style>.cls-1{fill:#1d2c27;}.cls-2{fill:none;stroke:#1d2c27;stroke-linecap:round;stroke-miterlimit:10;stroke-width:3px;}</style></defs><path class="cls-1" d="M63.7,24.61h2.5v3.44h3.08V24.61h2.5v9.25h-2.5V30.12H66.2v3.74H63.7Z"/><path class="cls-1" d="M73.5,26.51v-1.9H76v1.9Zm0,7.35v-6.7H76v6.7Z"/><path class="cls-1" d="M77,33l.92-1.39a4.2,4.2,0,0,0,2.4.81c.42,0,.8-.12.8-.43s-.32-.47-1-.57C79,31.3,77.34,31,77.34,29.3c0-1.5,1.22-2.26,2.74-2.26A4.85,4.85,0,0,1,83.2,28l-.91,1.37a4.25,4.25,0,0,0-2-.68c-.41,0-.68.13-.68.43s.35.42,1,.51c1.14.15,2.76.4,2.76,2,0,1.78-1.52,2.39-3.07,2.39A5.48,5.48,0,0,1,77,33Z"/><path class="cls-1" d="M84.89,31.85V28.94H83.8V27.16h1.09V24.91h2.47v2.25h1.72v1.78H87.36V31.3c0,.71.18.89.88.89a2.73,2.73,0,0,0,.65-.08v1.73a11.37,11.37,0,0,1-1.51.11C85.1,34,84.89,33.15,84.89,31.85Z"/><path class="cls-1" d="M89.74,30.53c0-2.79,2-3.49,3.57-3.49s3.58.7,3.58,3.49S94.93,34,93.31,34,89.74,33.27,89.74,30.53Zm4.67,0c0-1-.25-1.73-1.1-1.73s-1.1.68-1.1,1.73.24,1.75,1.1,1.75S94.41,31.6,94.41,30.54Z"/><path class="cls-1" d="M98,33.86v-6.7h2.48v1h0A2.31,2.31,0,0,1,102.58,27h0v2.19a5,5,0,0,0-.62-.05,2.32,2.32,0,0,0-1.5.61v4.07Z"/><path class="cls-1" d="M103.63,26.51v-1.9h2.47v1.9Zm0,7.35v-6.7h2.47v6.7Z"/><path class="cls-1" d="M107.28,30.53A3.25,3.25,0,0,1,110.8,27a2.83,2.83,0,0,1,3.06,2.12l-2.07.65c-.21-.81-.55-1-1-1-.74,0-1,.68-1,1.73s.18,1.75,1,1.75c.4,0,.86-.2,1.09-1.08l2,.69a3.44,3.44,0,0,1-6.61-1.37Z"/><path class="cls-1" d="M114.23,32.06c0-1.5,1.38-2.41,4.13-2.53v-.09c0-.33-.16-.56-.73-.56a3.67,3.67,0,0,0-2.07.72l-1-1.4A4.93,4.93,0,0,1,118,27c2,0,2.77.92,2.77,2.81v2.39a4.75,4.75,0,0,0,.18,1.62h-2.45a3.41,3.41,0,0,1-.15-1A2.67,2.67,0,0,1,116.14,34,1.8,1.8,0,0,1,114.23,32.06Zm4.13-.32v-.95c-1.2,0-1.72.35-1.72.86,0,.32.24.47.55.47A1.61,1.61,0,0,0,118.36,31.74Z"/><path class="cls-1" d="M122.24,33.86V24.61h2.47v9.25Z"/><path class="cls-1" d="M129,33.86l3.27-9.28h2.32l3.28,9.28h-2.53l-.56-1.72H131.9l-.6,1.72Zm3.46-3.5h1.76l-.85-2.56h0Z"/><path class="cls-1" d="M138.21,30.53A3.25,3.25,0,0,1,141.74,27a2.84,2.84,0,0,1,3.06,2.12l-2.07.65c-.22-.81-.55-1-1-1-.73,0-1,.68-1,1.73s.17,1.75,1,1.75c.4,0,.86-.2,1.09-1.08l2.05.69a3.45,3.45,0,0,1-6.62-1.37Z"/><path class="cls-1" d="M145.33,30.53A3.25,3.25,0,0,1,148.85,27a2.83,2.83,0,0,1,3.06,2.12l-2.07.65c-.21-.81-.55-1-1-1-.74,0-1,.68-1,1.73s.18,1.75,1,1.75c.4,0,.86-.2,1.09-1.08l2.05.69a3.44,3.44,0,0,1-6.61-1.37Z"/><path class="cls-1" d="M152.44,30.53c0-2.79,1.95-3.49,3.57-3.49s3.58.7,3.58,3.49S157.63,34,156,34,152.44,33.27,152.44,30.53Zm4.67,0c0-1-.25-1.73-1.1-1.73s-1.1.68-1.1,1.73.24,1.75,1.1,1.75S157.11,31.6,157.11,30.54Z"/><path class="cls-1" d="M160.64,32.06v-4.9h2.47v4.15c0,.47.15.73.57.73a1.77,1.77,0,0,0,1.11-.48v-4.4h2.47v6.7h-2.47v-1A2.57,2.57,0,0,1,162.56,34,1.74,1.74,0,0,1,160.64,32.06Z"/><path class="cls-1" d="M168.75,27.16h2.48v1A2.54,2.54,0,0,1,173.45,27,1.74,1.74,0,0,1,175.37,29v4.88H172.9V29.79c0-.46-.15-.73-.56-.73a1.78,1.78,0,0,0-1.11.48v4.32h-2.48Z"/><path class="cls-1" d="M177.34,31.85V28.94h-1.09V27.16h1.09V24.91h2.47v2.25h1.72v1.78h-1.72V31.3c0,.71.18.89.88.89a2.73,2.73,0,0,0,.65-.08v1.73a11.37,11.37,0,0,1-1.51.11C177.55,34,177.34,33.15,177.34,31.85Z"/><path class="cls-1" d="M182.09,32.06c0-1.5,1.39-2.41,4.14-2.53v-.09c0-.33-.17-.56-.74-.56a3.61,3.61,0,0,0-2.06.72l-1-1.4A5,5,0,0,1,185.88,27c2,0,2.76.92,2.76,2.81v2.39a4.45,4.45,0,0,0,.19,1.62h-2.45a3.09,3.09,0,0,1-.15-1A2.69,2.69,0,0,1,184,34,1.8,1.8,0,0,1,182.09,32.06Zm4.14-.32v-.95c-1.2,0-1.73.35-1.73.86,0,.32.24.47.55.47A1.66,1.66,0,0,0,186.23,31.74Z"/><path class="cls-1" d="M192.51,33.14v.72H190V24.61h2.47V28.2a2.31,2.31,0,0,1,2-1.16c1.51,0,2.5,1.17,2.5,3.47S196,34,194.48,34A2.43,2.43,0,0,1,192.51,33.14Zm2-2.61c0-.83-.19-1.47-1-1.47a1.59,1.59,0,0,0-1,.49V31.7a1.38,1.38,0,0,0,1,.42C194.28,32.12,194.53,31.48,194.53,30.53Z"/><path class="cls-1" d="M198.18,26.51v-1.9h2.47v1.9Zm0,7.35v-6.7h2.47v6.7Z"/><path class="cls-1" d="M202.25,33.86V24.61h2.48v9.25Z"/><path class="cls-1" d="M206.33,26.51v-1.9h2.47v1.9Zm0,7.35v-6.7h2.47v6.7Z"/><path class="cls-1" d="M210.9,31.85V28.94h-1.09V27.16h1.09V24.91h2.48v2.25h1.71v1.78h-1.71V31.3c0,.71.17.89.87.89a2.73,2.73,0,0,0,.65-.08v1.73a11.08,11.08,0,0,1-1.51.11C211.11,34,210.9,33.15,210.9,31.85Z"/><path class="cls-1" d="M215.39,36.15l.51-1.9a5.46,5.46,0,0,0,1.41.2.59.59,0,0,0,.64-.39l.06-.16-2.55-6.74H218L219.24,31h0l1.24-3.83h2.39l-2.8,7.38a2.45,2.45,0,0,1-2.48,1.88A7.65,7.65,0,0,1,215.39,36.15Z"/><path class="cls-1" d="M63.18,48.83,65,47.68a2.87,2.87,0,0,0,2.42,1.4c.76,0,1.34-.23,1.34-.8s-.74-.82-1.65-1c-1.51-.39-3.53-.78-3.53-2.88,0-1.88,1.43-2.92,3.53-2.92A4.74,4.74,0,0,1,71,43.25l-1.67,1.38a3.14,3.14,0,0,0-2.21-1.17c-.72,0-1.08.24-1.08.68,0,.61.73.84,1.64,1.06,1.51.36,3.54.83,3.54,2.9,0,1.48-1,2.94-3.89,2.94A4.55,4.55,0,0,1,63.18,48.83Z"/><path class="cls-1" d="M73.06,48.85V45.94H72V44.16h1.08V41.91h2.48v2.25h1.71v1.78H75.54V48.3c0,.71.17.89.87.89a2.66,2.66,0,0,0,.65-.08v1.73a11.08,11.08,0,0,1-1.51.11C73.28,51,73.06,50.15,73.06,48.85Z"/><path class="cls-1" d="M78.21,49.06v-4.9h2.48v4.15c0,.47.15.73.56.73a1.73,1.73,0,0,0,1.11-.48v-4.4h2.48v6.7H82.36v-1A2.54,2.54,0,0,1,80.14,51,1.74,1.74,0,0,1,78.21,49.06Z"/><path class="cls-1" d="M86,47.59c0-2.3,1-3.55,2.53-3.55a2.14,2.14,0,0,1,2,.92V41.61h2.47v7.63a4.19,4.19,0,0,0,.2,1.62H90.59a2.63,2.63,0,0,1-.15-1,2.27,2.27,0,0,1-2,1.1C86.94,51,86,49.89,86,47.59Zm4.49,1V46.49a1.39,1.39,0,0,0-1-.43c-.73,0-1,.57-1,1.52s.18,1.54,1,1.54A1.56,1.56,0,0,0,90.44,48.64Z"/><path class="cls-1" d="M94,47.53A3.36,3.36,0,0,1,97.55,44c1.33,0,3.23.47,3.23,3.81v.38H96.49c.12.87.61,1.08,1.34,1.08a4.19,4.19,0,0,0,1.92-.61l.89,1.5a5.48,5.48,0,0,1-3,.8C95.8,51,94,50.24,94,47.53Zm4.56-.72c-.1-.8-.46-1.05-1-1.05s-.88.29-1,1.05Z"/><path class="cls-1" d="M101.89,44.16h2.47v1A2.57,2.57,0,0,1,106.59,44,1.74,1.74,0,0,1,108.51,46v4.88H106V46.79c0-.46-.15-.73-.56-.73a1.83,1.83,0,0,0-1.12.48v4.32h-2.47Z"/><path class="cls-1" d="M110.48,48.85V45.94h-1.09V44.16h1.09V41.91H113v2.25h1.71v1.78H113V48.3c0,.71.18.89.88.89a2.8,2.8,0,0,0,.65-.08v1.73A11.4,11.4,0,0,1,113,51C110.69,51,110.48,50.15,110.48,48.85Z"/><path class="cls-1" d="M119.58,50.86V41.61h3.61c2.37,0,3.82.79,3.82,3a2.53,2.53,0,0,1-1.82,2.7l2,3.53H124.5l-1.79-3.21H122v3.21ZM122,45.75h1.07c1,0,1.48-.29,1.48-1.06s-.46-1-1.48-1H122Z"/><path class="cls-1" d="M127.76,47.53A3.36,3.36,0,0,1,131.29,44c1.32,0,3.22.47,3.22,3.81v.38h-4.28c.12.87.61,1.08,1.33,1.08a4.23,4.23,0,0,0,1.93-.61l.88,1.5a5.42,5.42,0,0,1-3,.8C129.54,51,127.76,50.24,127.76,47.53Zm4.57-.72c-.1-.8-.47-1.05-1.05-1.05s-.88.29-1,1.05Z"/><path class="cls-1" d="M135,50l.91-1.39a4.25,4.25,0,0,0,2.4.81c.43,0,.8-.12.8-.43s-.31-.47-1-.57c-1.13-.16-2.75-.42-2.75-2.16,0-1.5,1.23-2.26,2.74-2.26a4.9,4.9,0,0,1,3.13.92l-.92,1.37a4.18,4.18,0,0,0-2-.68c-.41,0-.69.13-.69.43s.35.42,1,.51c1.13.15,2.76.4,2.76,2,0,1.78-1.53,2.39-3.08,2.39A5.38,5.38,0,0,1,135,50Z"/><path class="cls-1" d="M142,47.53A3.36,3.36,0,0,1,145.53,44c1.32,0,3.22.47,3.22,3.81v.38h-4.29c.13.87.62,1.08,1.34,1.08a4.23,4.23,0,0,0,1.93-.61l.88,1.5a5.46,5.46,0,0,1-3,.8C143.78,51,142,50.24,142,47.53Zm4.56-.72c-.1-.8-.46-1.05-1.05-1.05s-.87.29-1,1.05Z"/><path class="cls-1" d="M149.33,49.06c0-1.5,1.38-2.41,4.13-2.53v-.09c0-.33-.16-.56-.73-.56a3.67,3.67,0,0,0-2.07.72l-1-1.4A4.93,4.93,0,0,1,153.11,44c2,0,2.76.92,2.76,2.81v2.39a4.45,4.45,0,0,0,.19,1.62h-2.45a3.41,3.41,0,0,1-.15-1A2.64,2.64,0,0,1,151.24,51,1.8,1.8,0,0,1,149.33,49.06Zm4.13-.32v-1c-1.2,0-1.72.35-1.72.86,0,.33.24.47.55.47A1.61,1.61,0,0,0,153.46,48.74Z"/><path class="cls-1" d="M157.28,50.86v-6.7h2.47v1h0A2.33,2.33,0,0,1,161.85,44h0v2.19a4.7,4.7,0,0,0-.62,0,2.34,2.34,0,0,0-1.5.61v4.07Z"/><path class="cls-1" d="M162.23,47.53A3.25,3.25,0,0,1,165.75,44a2.84,2.84,0,0,1,3.06,2.12l-2.07.65c-.21-.81-.55-1-1-1-.74,0-1,.68-1,1.73s.18,1.75,1,1.75c.4,0,.86-.2,1.09-1.08l2.05.69a3.44,3.44,0,0,1-6.61-1.37Z"/><path class="cls-1" d="M169.76,50.86V41.61h2.48V45.2A2.56,2.56,0,0,1,174.46,44,1.74,1.74,0,0,1,176.39,46v4.88h-2.48V46.79c0-.46-.15-.73-.56-.73a1.8,1.8,0,0,0-1.11.48v4.32Z"/><path class="cls-1" d="M181.69,50.86V41.61h3.46c2,0,4,.42,4,3.15s-2.19,3.15-4,3.15h-1v3ZM184.16,46h1.08c1.16,0,1.47-.48,1.47-1.18s-.31-1.19-1.47-1.19h-1.08Z"/><path class="cls-1" d="M190,50.86v-6.7h2.48v1h0A2.31,2.31,0,0,1,194.58,44h0v2.19a5,5,0,0,0-.63,0,2.31,2.31,0,0,0-1.49.61v4.07Z"/><path class="cls-1" d="M195.08,47.53c0-2.79,1.95-3.49,3.57-3.49s3.57.7,3.57,3.49-2,3.47-3.57,3.47S195.08,50.28,195.08,47.53Zm4.67,0c0-1-.25-1.73-1.1-1.73s-1.1.68-1.1,1.73.24,1.75,1.1,1.75S199.75,48.6,199.75,47.54Z"/><path class="cls-1" d="M202.54,51.91c0-.64.55-1,1.05-1.27a1,1,0,0,1-.4-.78,2,2,0,0,1,1-1.51,2.14,2.14,0,0,1-1.14-1.92c0-1.32,1-2.39,3.15-2.39a3.49,3.49,0,0,1,2.37.74,3.21,3.21,0,0,1,1.8-.73v1.84a5.2,5.2,0,0,0-1.1.11,2.54,2.54,0,0,1,0,.43c0,1.31-1,2.38-3.1,2.38a6.14,6.14,0,0,1-1-.08.5.5,0,0,0-.1.25c0,.23.27.25.65.26l.82,0c2.59.08,3.55.64,3.55,2s-1.8,2.11-4.12,2.11C203.43,53.36,202.54,52.81,202.54,51.91Zm5.49-.24c0-.32-.09-.45-1.77-.51l-.95,0a3.44,3.44,0,0,1-.46,0,1,1,0,0,0-.07.36c0,.52.46.72,1.68.72C207.36,52.17,208,52,208,51.67Zm-.88-5.14a.88.88,0,1,0-.87,1A.87.87,0,0,0,207.15,46.53Z"/><path class="cls-1" d="M211.4,50.86v-6.7h2.48v1h0A2.31,2.31,0,0,1,216,44h0v2.19a5,5,0,0,0-.63,0,2.31,2.31,0,0,0-1.49.61v4.07Z"/><path class="cls-1" d="M216.31,49.06c0-1.5,1.39-2.41,4.14-2.53v-.09c0-.33-.16-.56-.74-.56a3.63,3.63,0,0,0-2.06.72l-1-1.4A4.93,4.93,0,0,1,220.1,44c2,0,2.76.92,2.76,2.81v2.39a4.45,4.45,0,0,0,.19,1.62H220.6a3.09,3.09,0,0,1-.15-1A2.65,2.65,0,0,1,218.23,51,1.8,1.8,0,0,1,216.31,49.06Zm4.14-.32v-1c-1.2,0-1.72.35-1.72.86,0,.33.23.47.55.47A1.61,1.61,0,0,0,220.45,48.74Z"/><path class="cls-1" d="M224.26,50.86v-6.7h2.48v1A2.53,2.53,0,0,1,228.83,44c1.11,0,1.63.44,1.82,1.16A2.53,2.53,0,0,1,232.74,44a1.84,1.84,0,0,1,2,2.06v4.76h-2.47V46.79c0-.46-.07-.73-.52-.73a1.65,1.65,0,0,0-1,.48v4.32h-2.47V46.79c0-.46-.06-.73-.51-.73a1.6,1.6,0,0,0-1,.48v4.32Z"/><g id="Lone_Pine" data-name="Lone Pine"><path class="cls-1" d="M20,0l.07,0,.07,0c1.34.74.73,3.43.73,4.79,0,.13.06.11.22,0A38.79,38.79,0,0,0,24,2.14c.31-.32.38-.16.48.13a11.61,11.61,0,0,1,.31,2.19,1.2,1.2,0,0,1-.38.71s-2.91,2.11-3.37,2.48a.16.16,0,0,0-.06.13L21,9a.14.14,0,0,0,.23.12c.8-.51,3.49-2.27,5.45-3.84.46-.36.61-.27.71.42a15.3,15.3,0,0,1,.1,2.4c0,.5-.32.95-1.38,1.53l-4.9,2.63a.16.16,0,0,0-.08.14l0,1.33a.15.15,0,0,0,.22.13c1.16-.6,6.61-3.44,8.11-4.33.75-.45.72-.33.79.17a13.88,13.88,0,0,1,0,2.55c-.09.86-.27,1.19-1.22,1.61S22.29,16.65,21.45,17a.15.15,0,0,0-.1.14l.06,1.35a.15.15,0,0,0,.2.14c1.27-.47,8.22-3.07,11.3-4.6.37-.18.43-.06.45.38a22.76,22.76,0,0,1-.14,3.32c-.14.91-.8,1.27-1.58,1.53s-8.89,2.44-10,2.73a.15.15,0,0,0-.11.15l.05,1.39a.16.16,0,0,0,.19.15c1.14-.29,7.42-1.87,14.22-3.86.45-.13.42.06.42.39A31.64,31.64,0,0,1,36,24.07c-.28.88-.49,1.1-1.69,1.32S23.15,27.11,21.88,27.3a.17.17,0,0,0-.13.16l.06,1.44a.15.15,0,0,0,.17.15c1.49-.18,12.5-1.41,16.59-2.16.51-.1.48.14.45.44a32.48,32.48,0,0,1-1,4.82,1.47,1.47,0,0,1-1.61,1.05c-.8,0-12.83-.34-14.33-.39A.15.15,0,0,0,22,33L22,34.53a.15.15,0,0,0,.14.15l17.57,1.06c.54,0,.51.28.21.84-.17.31-1.66,3.55-2.1,4.11a1.68,1.68,0,0,1-2,.84C34.66,41.33,24,39.45,22.4,39.2a.16.16,0,0,0-.18.16L22.29,41a.16.16,0,0,0,.13.15c1.46.27,15.22,3.07,15.65,3.16s.3.33.16.57a25.07,25.07,0,0,1-3.37,3.82,2.5,2.5,0,0,1-2.7.26c-1-.38-8.11-3.3-9.5-3.82a.16.16,0,0,0-.21.15L22.52,47a.14.14,0,0,0,.1.13c.79.34,6.48,2.87,9.16,4,.54.23.67.4.2.73a40.91,40.91,0,0,1-5.25,2c-1.06.31-1.19.72-3.73-2-.19-.2-.27-.08-.29.09l.12,3c.29,6.28.83,12.58,1.14,14.7.06.38.16.67-.49.76a18.13,18.13,0,0,1-3.4.28,18.13,18.13,0,0,1-3.4-.28c-.65-.09-.55-.38-.49-.76.31-2.12.85-8.42,1.15-14.7l.11-3c0-.17-.1-.29-.29-.09-2.54,2.67-2.67,2.26-3.72,2a40.54,40.54,0,0,1-5.26-2c-.47-.33-.34-.5.2-.73,2.68-1.13,8.37-3.66,9.17-4a.14.14,0,0,0,.09-.13l.07-1.71a.16.16,0,0,0-.21-.15C16.11,45.69,9,48.61,8,49a2.5,2.5,0,0,1-2.7-.26,25.07,25.07,0,0,1-3.37-3.82c-.14-.24-.3-.48.16-.57s14.19-2.89,15.66-3.16a.16.16,0,0,0,.12-.15l.07-1.67a.16.16,0,0,0-.18-.16c-1.57.25-12.26,2.13-13.45,2.33a1.68,1.68,0,0,1-2-.84c-.44-.56-1.93-3.8-2.1-4.11-.3-.56-.32-.8.21-.84L18,34.68a.15.15,0,0,0,.14-.15L18.19,33a.15.15,0,0,0-.16-.16c-1.5,0-13.53.41-14.33.39a1.45,1.45,0,0,1-1.6-1.05,30.09,30.09,0,0,1-1-4.82c0-.3-.07-.54.44-.44,4.09.75,15.11,2,16.59,2.16a.15.15,0,0,0,.17-.15l.06-1.44a.17.17,0,0,0-.13-.16C17,27.11,6.94,25.59,5.83,25.39S4.42,25,4.14,24.07a31.64,31.64,0,0,1-.41-3.86c0-.33,0-.52.42-.39,6.8,2,13.08,3.57,14.22,3.86a.16.16,0,0,0,.19-.15l.05-1.39A.14.14,0,0,0,18.5,22c-1.09-.29-9.29-2.5-10-2.73s-1.43-.62-1.58-1.53a22.76,22.76,0,0,1-.14-3.32c0-.44.08-.56.45-.38,3.08,1.53,10,4.13,11.3,4.6a.14.14,0,0,0,.2-.14l.06-1.35a.15.15,0,0,0-.1-.14c-.84-.35-6.74-2.76-7.71-3.18s-1.13-.75-1.22-1.61a13.88,13.88,0,0,1,0-2.55c.07-.5,0-.62.79-.17,1.5.89,7,3.73,8.11,4.33a.15.15,0,0,0,.22-.13l0-1.33a.16.16,0,0,0-.08-.14L14,9.59C13,9,12.65,8.56,12.63,8.06a16.65,16.65,0,0,1,.1-2.4c.1-.69.25-.78.71-.42,2,1.57,4.66,3.33,5.45,3.84A.14.14,0,0,0,19.12,9l.05-1.18a.16.16,0,0,0-.06-.13c-.46-.37-3.37-2.48-3.37-2.48a1.2,1.2,0,0,1-.38-.71,12.51,12.51,0,0,1,.31-2.19c.1-.29.17-.45.48-.13a38.79,38.79,0,0,0,2.91,2.64c.16.14.23.16.23,0,0-1.36-.62-4,.72-4.79"/></g><line class="cls-2" x1="50.08" y1="10.38" x2="250" y2="10.38"/><line class="cls-2" x1="50.08" y1="65.78" x2="250" y2="65.78"/></svg>