<?xml version="1.0" standalone="no"?>
<!DOCTYPE svg PUBLIC "-//W3C//DTD SVG 1.1//EN" "http://www.w3.org/Graphics/SVG/1.1/DTD/svg11.dtd" >
<svg xmlns="http://www.w3.org/2000/svg" xmlns:xlink="http://www.w3.org/1999/xlink" version="1.1">
<metadata>
Created by FontForge 20190801 at Wed Dec  3 18:31:25 2008
 By Jimmy Wärting
Copyright (C) 2004, 2009 Hoefler &#38; Frere-Jones. http://www.typography.com
</metadata>
<defs>
<font id="Sentinel-Bold" horiz-adv-x="563" >
  <font-face 
    font-family="Sentinel Bold"
    font-weight="400"
    font-stretch="normal"
    units-per-em="1000"
    panose-1="0 0 0 0 0 0 0 0 0 0"
    ascent="800"
    descent="-200"
    x-height="468"
    cap-height="658"
    bbox="-68 -365 1237 1122"
    underline-thickness="50"
    underline-position="-100"
    stemh="83"
    stemv="147"
    unicode-range="U+0020-FB04"
  />
<missing-glyph horiz-adv-x="500" 
d="M0 -200v1000h500v-1000h-500zM71 750l179 -390l179 390h-358zM50 -76l172 376l-172 376v-752zM450 676l-172 -376l172 -376v752zM250 240l-179 -390h358z" />
    <glyph glyph-name="f_b" unicode="fb" horiz-adv-x="914" 
d="M32 0v83h68v302h-85v78h85v10c0 154 112 224 235 224c42 0 75 -6 99 -16l118 14v-320c29 62 78 104 149 104c53 0 90 -19 120 -48c43 -43 63 -113 63 -196c0 -84 -25 -153 -67 -195c-31 -32 -75 -50 -124 -50c-83 0 -133 39 -165 98l-45 -95h-77v392h-159v-302h60v-83
h-275zM644 71c57 0 83 56 83 162c0 100 -26 153 -84 153c-64 0 -100 -70 -100 -160c0 -92 37 -155 101 -155zM240 502v-39h166v63c-36 5 -59 28 -59 68c0 14 5 32 13 41c-7 3 -17 6 -32 6c-50 0 -88 -25 -88 -139z" />
    <glyph glyph-name="f_f" unicode="ff" horiz-adv-x="684" 
d="M336 694c71 0 117 -17 141 -44c40 31 92 47 147 47c101 0 146 -41 146 -97c0 -41 -30 -74 -73 -74c-44 0 -73 24 -73 69c0 14 5 31 14 40c-6 3 -15 6 -25 6c-41 0 -71 -27 -71 -121v-57h141v-78h-134v-302h99v-83h-299v83h54v302h-156v-302h54v-83h-268v83h67v302h-85v78
h85v7c0 155 113 224 236 224zM403 463v20c0 13 0 26 2 39c-34 5 -55 28 -55 66c0 15 6 33 14 42c-7 4 -17 7 -34 7c-50 0 -90 -25 -90 -136v-38h163z" />
    <glyph glyph-name="f_h" unicode="fh" horiz-adv-x="950" 
d="M356 0v83h61v302h-170v-302h60v-83h-275v83h68v302h-85v78h85v10c0 154 112 224 235 224c43 0 76 -6 101 -17l127 15v-332c36 71 86 115 161 115c101 0 143 -68 143 -165v-230h68v-83h-268v83h54v210c0 31 -7 56 -22 71c-11 10 -26 16 -46 16c-47 0 -90 -47 -90 -114
v-183h53v-83h-260zM240 502v-39h177v63c-43 1 -70 24 -70 68c0 14 5 32 13 41c-7 3 -17 6 -32 6c-50 0 -88 -25 -88 -139z" />
    <glyph glyph-name="fi" unicode="fi" horiz-adv-x="645" 
d="M407 385h-160v-302h55v-83h-270v83h68v302h-85v78h85v7c0 157 114 227 246 227c123 0 183 -47 183 -103c0 -42 -33 -74 -83 -74c-53 0 -84 25 -84 68c0 16 6 33 14 42c-8 5 -21 10 -40 10c-64 0 -96 -39 -96 -133v-44h313v-380h76v-83h-278v83h56v302z" />
    <glyph glyph-name="f_j" unicode="fj" horiz-adv-x="630" 
d="M553 463v-426c0 -138 -70 -211 -193 -211c-90 0 -141 35 -141 86c0 37 27 70 72 70c50 0 75 -33 75 -67c0 -11 -2 -23 -6 -31c4 -1 11 -2 15 -2c21 1 32 15 32 56v447h-160v-302h55v-83h-270v83h68v302h-85v78h85v7c0 157 114 227 246 227c123 0 183 -47 183 -103
c0 -42 -33 -74 -83 -74c-53 0 -84 25 -84 68c0 16 6 33 14 42c-8 5 -21 10 -40 10c-64 0 -96 -39 -96 -133v-44h313z" />
    <glyph glyph-name="f_k" unicode="fk" horiz-adv-x="922" 
d="M32 0v83h68v302h-85v78h85v10c0 154 112 224 235 224c43 0 76 -6 101 -17l127 15v-454l157 145h-73v82h244v-83h-70l-105 -94l154 -208h51v-83h-258v82h53l-93 131l-60 -54v-77h50v-82h-257v83h61v302h-170v-302h60v-83h-275zM240 502v-39h177v63c-43 1 -70 24 -70 68
c0 14 5 32 13 41c-7 3 -17 6 -32 6c-50 0 -88 -25 -88 -139z" />
    <glyph glyph-name="fl" unicode="fl" horiz-adv-x="660" 
d="M32 0v83h68v302h-85v78h85v10c0 154 112 224 235 224c43 0 76 -6 101 -17l127 15v-612h76v-83h-283v83h61v302h-170v-302h60v-83h-275zM240 502v-39h177v63c-43 1 -70 24 -70 68c0 14 5 32 13 41c-7 3 -17 6 -32 6c-50 0 -88 -25 -88 -139z" />
    <glyph glyph-name="f_f_b" unicode="ffb" horiz-adv-x="1216" 
d="M855 695v-320c28 62 78 104 148 104c53 0 91 -19 120 -48c43 -43 63 -113 63 -196c0 -84 -24 -153 -67 -195c-31 -32 -74 -50 -124 -50c-83 0 -133 39 -165 98l-45 -95h-77v392h-159v-302h61v-83h-261v83h54v302h-156v-302h54v-83h-268v83h67v302h-85v78h85v6
c0 155 113 225 236 225c74 0 120 -18 143 -47c42 34 99 50 158 50c42 0 75 -6 99 -16zM946 71c57 0 83 56 83 162c0 100 -25 153 -84 153c-63 0 -99 -70 -99 -160c0 -92 37 -155 100 -155zM542 502v-39h166v63c-35 5 -58 28 -58 68c0 14 5 32 12 41c-7 3 -17 6 -32 6
c-49 0 -88 -25 -88 -139zM403 463v10c0 17 1 33 4 49c-35 5 -57 27 -57 66c0 15 6 33 14 42c-7 4 -17 7 -34 7c-50 0 -90 -25 -90 -136v-38h163z" />
    <glyph glyph-name="f_f_h" unicode="ffh" horiz-adv-x="1252" 
d="M659 0v83h60v302h-170v-302h61v-83h-261v83h54v302h-156v-302h54v-83h-268v83h67v302h-85v78h85v6c0 155 113 225 236 225c74 0 120 -18 143 -47c42 34 99 50 158 50c43 0 76 -6 101 -17l128 15v-332c36 71 85 115 161 115c101 0 143 -68 143 -165v-230h67v-83h-268v83
h54v210c0 31 -6 56 -21 71c-11 10 -26 16 -47 16c-47 0 -89 -47 -89 -114v-183h52v-83h-259zM542 502v-39h177v63c-42 1 -69 24 -69 68c0 14 5 32 12 41c-7 3 -17 6 -32 6c-49 0 -88 -25 -88 -139zM403 473c0 17 1 33 4 49c-35 5 -57 27 -57 66c0 15 6 33 14 42
c-7 4 -17 7 -34 7c-50 0 -90 -25 -90 -136v-38h163v10z" />
    <glyph glyph-name="f_f_i" unicode="ffi" horiz-adv-x="947" 
d="M542 507v-44h314v-380h76v-83h-278v83h55v302h-160v-302h56v-83h-256v83h54v302h-156v-302h54v-83h-268v83h67v302h-85v78h85v6c0 155 113 225 236 225c75 0 122 -19 144 -49c45 35 105 52 169 52c123 0 183 -47 183 -103c0 -42 -33 -74 -84 -74c-53 0 -84 25 -84 68
c0 16 6 33 14 42c-8 5 -21 10 -40 10c-63 0 -96 -39 -96 -133zM403 470c0 18 1 36 4 52c-35 5 -57 27 -57 66c0 15 6 33 14 42c-7 4 -17 7 -34 7c-50 0 -90 -25 -90 -136v-38h163v7z" />
    <glyph glyph-name="f_f_j" unicode="ffj" horiz-adv-x="932" 
d="M856 463v-426c0 -138 -71 -211 -194 -211c-90 0 -141 35 -141 86c0 37 27 70 72 70c50 0 76 -33 76 -67c0 -11 -3 -23 -7 -31c4 -1 11 -2 16 -2c20 1 31 15 31 56v447h-160v-302h56v-83h-256v83h54v302h-156v-302h54v-83h-268v83h67v302h-85v78h85v6
c0 155 113 225 236 225c75 0 122 -19 144 -49c45 35 105 52 169 52c123 0 183 -47 183 -103c0 -42 -33 -74 -84 -74c-53 0 -84 25 -84 68c0 16 6 33 14 42c-8 5 -21 10 -40 10c-63 0 -96 -39 -96 -133v-44h314zM403 470c0 18 1 36 4 52c-35 5 -57 27 -57 66c0 15 6 33 14 42
c-7 4 -17 7 -34 7c-50 0 -90 -25 -90 -136v-38h163v7z" />
    <glyph glyph-name="f_f_k" unicode="ffk" horiz-adv-x="1224" 
d="M866 695v-454l157 145h-74v82h244v-83h-70l-104 -94l154 -208h50v-83h-258v82h53l-92 131l-60 -54v-77h50v-82h-257v83h60v302h-170v-302h61v-83h-261v83h54v302h-156v-302h54v-83h-268v83h67v302h-85v78h85v6c0 155 113 225 236 225c74 0 120 -18 143 -47
c42 34 99 50 158 50c43 0 76 -6 101 -17zM542 502v-39h177v63c-42 1 -69 24 -69 68c0 14 5 32 12 41c-7 3 -17 6 -32 6c-49 0 -88 -25 -88 -139zM403 473c0 17 1 33 4 49c-35 5 -57 27 -57 66c0 15 6 33 14 42c-7 4 -17 7 -34 7c-50 0 -90 -25 -90 -136v-38h163v10z" />
    <glyph glyph-name="f_f_l" unicode="ffl" horiz-adv-x="962" 
d="M659 0v83h60v302h-170v-302h61v-83h-261v83h54v302h-156v-302h54v-83h-268v83h67v302h-85v78h85v6c0 155 113 225 236 225c74 0 120 -18 143 -47c42 34 99 50 158 50c43 0 76 -6 101 -17l128 15v-612h76v-83h-283zM542 502v-39h177v63c-42 1 -69 24 -69 68
c0 14 5 32 12 41c-7 3 -17 6 -32 6c-49 0 -88 -25 -88 -139zM403 463v10c0 17 1 33 4 49c-35 5 -57 27 -57 66c0 15 6 33 14 42c-7 4 -17 7 -34 7c-50 0 -90 -25 -90 -136v-38h163z" />
    <glyph glyph-name=".notdef" horiz-adv-x="500" 
d="M0 -200v1000h500v-1000h-500zM71 750l179 -390l179 390h-358zM50 -76l172 376l-172 376v-752zM450 676l-172 -376l172 -376v752zM250 240l-179 -390h358z" />
    <glyph glyph-name="A" unicode="A" horiz-adv-x="734" 
d="M476 87l-42 123h-225l-42 -123h83v-87h-253v87h72l212 575h164l209 -575h78v-87h-345v87h89zM321 535l-85 -246h172l-83 246h-4z" />
    <glyph glyph-name="B" unicode="B" horiz-adv-x="680" 
d="M27 0v87h90v484h-90v87h338c214 0 263 -81 263 -159c0 -66 -45 -131 -177 -151v-7c138 -15 201 -72 201 -159c0 -100 -69 -182 -281 -182h-344zM280 384h67c89 0 117 38 117 100c0 59 -24 87 -115 87h-69v-187zM280 87h69c103 0 136 29 136 110c0 63 -35 103 -138 103
h-67v-213z" />
    <glyph glyph-name="C" unicode="C" horiz-adv-x="695" 
d="M373 -16c-205 0 -337 138 -337 341c0 205 146 349 318 349c84 0 147 -29 187 -78l21 76h90v-262h-99c-40 121 -96 182 -179 182c-94 0 -160 -69 -160 -257c0 -180 69 -257 182 -257c99 0 156 75 173 185h96c-17 -170 -114 -279 -292 -279z" />
    <glyph glyph-name="D" unicode="D" horiz-adv-x="751" 
d="M27 0v87h90v484h-90v87h295c267 0 393 -130 393 -325c0 -194 -122 -333 -387 -333h-301zM280 85h57c145 0 200 63 200 247c0 174 -58 241 -207 241h-50v-488z" />
    <glyph glyph-name="E" unicode="E" horiz-adv-x="707" 
d="M27 0v87h90v484h-90v87h626v-234h-87c-25 125 -40 149 -124 149h-162v-199h54c56 0 61 11 75 92h78v-267h-78c-12 82 -20 94 -75 94h-54v-208h158c101 0 113 36 137 175h87v-260h-635z" />
    <glyph glyph-name="F" unicode="F" horiz-adv-x="676" 
d="M27 0v87h90v484h-90v87h613v-239h-87c-31 135 -53 154 -137 154h-136v-210h42c56 0 63 11 75 92h78v-270h-78c-10 83 -20 96 -75 96h-42v-194h109v-87h-362z" />
    <glyph glyph-name="G" unicode="G" horiz-adv-x="751" 
d="M536 91c-32 -61 -87 -107 -184 -107c-183 0 -316 140 -316 344c0 199 151 346 321 346c83 0 143 -30 183 -82l21 80h91v-256h-111c-38 120 -90 176 -167 176c-92 0 -160 -76 -160 -257c0 -165 55 -261 165 -261c44 0 72 19 92 44c22 26 32 70 32 118v18h-110v87h347v-87
h-76v-262h-90z" />
    <glyph glyph-name="H" unicode="H" horiz-adv-x="816" 
d="M27 0v87h90v484h-90v87h342v-87h-89v-188h257v188h-90v87h343v-87h-90v-484h90v-87h-343v87h90v212h-257v-212h89v-87h-342z" />
    <glyph glyph-name="I" unicode="I" horiz-adv-x="423" 
d="M38 0v87h92v484h-92v87h347v-87h-92v-484h92v-87h-347z" />
    <glyph glyph-name="J" unicode="J" horiz-adv-x="586" 
d="M251 -16c-145 0 -235 71 -235 174c0 61 42 107 97 107c47 0 83 -29 83 -84c0 -38 -21 -68 -52 -83c17 -22 49 -34 87 -34c60 0 92 40 92 109v398h-98v87h350v-87h-88v-358c0 -140 -77 -229 -236 -229z" />
    <glyph glyph-name="K" unicode="K" horiz-adv-x="751" 
d="M280 222v-136h81v-86h-334v87h90v484h-90v87h338v-86h-85v-246l246 246h-81v86h279v-87h-81l-174 -171l224 -313h71v-87h-334v86h74l-146 212z" />
    <glyph glyph-name="L" unicode="L" horiz-adv-x="637" 
d="M27 658h352v-85h-99v-488h112c79 0 96 20 139 187h79v-272h-583v87h90v484h-90v87z" />
    <glyph glyph-name="M" unicode="M" horiz-adv-x="962" 
d="M28 0v87h86v484h-86v87h317l142 -406h3l133 406h311v-87h-88v-484h88v-87h-334v87h83v463h-9l-194 -551h-67l-201 551h-9v-463h83v-87h-258z" />
    <glyph glyph-name="N" unicode="N" horiz-adv-x="786" 
d="M521 -9l-309 510h-9v-414h90v-87h-265v87h86v484h-86v87h280l279 -460h9v373h-90v87h265v-87h-86v-580h-164z" />
    <glyph glyph-name="O" unicode="O" horiz-adv-x="748" 
d="M374 -16c-196 0 -338 135 -338 344c0 206 147 346 338 346c196 0 338 -135 338 -344c0 -207 -147 -346 -338 -346zM377 66c106 0 157 81 157 263c0 181 -57 263 -163 263s-157 -82 -157 -263c0 -182 57 -263 163 -263z" />
    <glyph glyph-name="P" unicode="P" horiz-adv-x="664" 
d="M27 0v87h90v484h-90v87h327c207 0 287 -83 287 -200c0 -113 -78 -203 -285 -203h-76v-168h97v-87h-350zM280 338h64c97 0 123 41 123 121c0 76 -27 116 -124 116h-63v-237z" />
    <glyph glyph-name="Q" unicode="Q" horiz-adv-x="748" 
d="M374 -13c-196 0 -338 135 -338 341s147 346 338 346c196 0 338 -135 338 -344c0 -114 -52 -210 -130 -272c27 -56 45 -70 73 -70c31 0 44 20 54 79h64c-10 -129 -61 -181 -145 -181c-82 0 -122 34 -159 114c-31 -8 -62 -13 -95 -13zM243 158c17 64 62 110 133 110
c66 0 108 -34 141 -104c14 41 21 95 21 165c0 181 -57 263 -167 263c-106 0 -157 -82 -157 -263c0 -79 12 -140 29 -171zM377 66c21 0 40 2 57 8c-25 63 -50 102 -94 102c-35 0 -56 -28 -56 -59c0 -28 21 -51 93 -51z" />
    <glyph glyph-name="R" unicode="R" horiz-adv-x="728" 
d="M280 287v-200h93v-87h-346v87h90v484h-90v87h361c199 0 266 -84 266 -167c0 -79 -49 -144 -204 -162v-7c126 -11 167 -67 170 -145l3 -39c2 -43 11 -53 31 -53c14 0 26 14 40 59l59 -19c-19 -79 -59 -139 -149 -139c-103 0 -149 54 -149 164l-1 34c-1 73 -18 103 -92 103
h-82zM280 368h87c78 0 112 30 112 106c0 68 -23 101 -109 101h-90v-207z" />
    <glyph glyph-name="S" unicode="S" horiz-adv-x="618" 
d="M45 -14v244h88c43 -112 98 -163 204 -163c71 0 111 35 111 87c0 61 -67 76 -167 101c-108 26 -230 63 -230 210c0 122 103 209 231 209c72 0 134 -27 168 -73l21 71h88v-234h-88c-42 109 -91 153 -176 153c-67 0 -103 -39 -103 -84c0 -66 73 -81 172 -105
c107 -26 225 -61 225 -204c0 -125 -99 -214 -242 -214c-82 0 -154 34 -191 80l-24 -78h-87z" />
    <glyph glyph-name="T" unicode="T" horiz-adv-x="698" 
d="M164 0v87h103v496h-25c-81 0 -98 -27 -135 -190h-79v265h642v-265h-79c-37 163 -54 190 -135 190h-25v-496h103v-87h-370z" />
    <glyph glyph-name="U" unicode="U" horiz-adv-x="752" 
d="M389 -16c-193 0 -287 92 -287 242v345h-85v87h340v-87h-92v-322c0 -123 54 -165 153 -165c47 0 80 13 106 39c29 29 41 75 41 146v302h-88v87h263v-87h-82v-340c0 -134 -84 -247 -269 -247z" />
    <glyph glyph-name="V" unicode="V" horiz-adv-x="737" 
d="M299 -4l-217 575h-78v87h346v-87h-89l149 -428h7l153 428h-83v87h253v-87h-72l-218 -575h-151z" />
    <glyph glyph-name="W" unicode="W" horiz-adv-x="1066" 
d="M742 572h-85l114 -416h8l116 416h-82v86h255v-87h-76l-178 -575h-158l-108 367l-133 -367h-156l-172 575h-83v87h340v-86h-80l116 -418h8l121 333l-25 85h-74v86h332v-86z" />
    <glyph glyph-name="X" unicode="X" horiz-adv-x="718" 
d="M439 572v86h263v-87h-76l-182 -214l199 -270h73v-87h-342v86h77l-119 174l-137 -174h77v-86h-264v87h77l188 227l-192 257h-74v87h342v-86h-76l112 -160l131 160h-77z" />
    <glyph glyph-name="Y" unicode="Y" horiz-adv-x="676" 
d="M385 361l125 211h-79v86h254v-87h-73l-187 -297v-187h89v-87h-341v87h89v177l-190 307h-69v87h336v-86h-75z" />
    <glyph glyph-name="Z" unicode="Z" horiz-adv-x="655" 
d="M28 0v79l396 494h-160c-79 0 -96 -18 -139 -177h-78v262h570v-79l-397 -494h183c79 0 95 20 139 187h78v-272h-592z" />
    <glyph glyph-name="a" unicode="a" horiz-adv-x="548" 
d="M172 -9c-83 0 -143 48 -143 124c0 31 12 60 33 81c31 31 79 51 194 66c55 8 60 9 60 21v41c0 60 -28 82 -86 82c-20 0 -41 -4 -60 -12c15 -11 24 -28 24 -51c0 -35 -30 -62 -71 -62c-51 0 -76 33 -76 70c0 86 107 127 222 127c141 0 191 -66 191 -163v-213
c0 -23 9 -28 25 -28c11 0 22 11 31 45l49 -16c-19 -77 -56 -112 -123 -112c-57 0 -102 30 -110 99h-5c-30 -71 -86 -99 -155 -99zM240 76c45 0 76 42 76 102v46c-9 -2 -20 -3 -45 -8c-71 -12 -93 -35 -93 -80c0 -32 18 -60 62 -60z" />
    <glyph glyph-name="b" unicode="b" horiz-adv-x="580" 
d="M309 71c58 0 84 56 84 162c0 100 -26 153 -84 153c-64 0 -100 -70 -100 -160c0 -92 37 -155 100 -155zM71 -7v612h-68v85h215v-315c29 62 78 104 149 104c53 0 90 -19 119 -48c43 -43 64 -113 64 -196c0 -84 -25 -153 -67 -195c-32 -32 -75 -50 -125 -50
c-83 0 -133 39 -164 98l-46 -95h-77z" />
    <glyph glyph-name="c" unicode="c" horiz-adv-x="513" 
d="M281 -10c-159 0 -253 95 -253 236c0 151 106 253 258 253c135 0 204 -81 204 -152c0 -50 -28 -86 -80 -86c-49 0 -75 33 -75 71c0 32 21 55 42 63c-14 18 -38 32 -77 32c-66 0 -115 -62 -115 -170c0 -98 40 -162 118 -162c54 0 91 32 110 86h78
c-22 -101 -92 -171 -210 -171z" />
    <glyph glyph-name="d" unicode="d" horiz-adv-x="594" 
d="M214 -10c-51 0 -91 19 -121 49c-43 43 -64 113 -64 193c0 84 25 155 68 197c31 32 73 50 123 50c67 0 112 -33 141 -80v206h-72v85h218v-607h67v-83h-204v98c-28 -65 -80 -108 -156 -108zM275 76c58 0 95 66 95 158c0 88 -28 157 -95 157c-61 0 -89 -56 -89 -160
c0 -101 30 -155 89 -155z" />
    <glyph glyph-name="e" unicode="e" horiz-adv-x="528" 
d="M499 215h-319c6 -109 50 -145 124 -145c56 0 91 23 112 82h78c-18 -98 -84 -162 -215 -162c-156 0 -251 96 -251 240c0 142 105 249 246 249c158 0 232 -112 225 -264zM271 411c-52 0 -84 -33 -90 -133h175c-5 95 -31 133 -85 133z" />
    <glyph glyph-name="f" unicode="f" horiz-adv-x="382" 
d="M32 0v83h68v302h-85v78h85v20c0 144 105 214 222 214c101 0 145 -41 145 -97c0 -41 -30 -74 -73 -74s-73 24 -73 69c0 14 6 31 15 40c-6 3 -15 6 -26 6c-41 0 -70 -27 -70 -121v-57h141v-78h-134v-302h99v-83h-314z" />
    <glyph glyph-name="g" unicode="g" horiz-adv-x="521" 
d="M453 329c0 -97 -72 -151 -202 -151c-20 0 -46 2 -64 2c-29 0 -48 -15 -48 -33c0 -21 19 -33 72 -33h129c123 0 173 -51 173 -125c0 -94 -85 -163 -288 -163c-152 0 -220 40 -220 102c0 47 40 80 111 89v5c-57 12 -85 48 -85 86c0 47 47 90 117 98
c-67 17 -108 57 -108 124c0 85 74 149 204 149c31 0 60 -3 85 -10c23 65 71 106 134 106c59 0 85 -35 85 -71c0 -35 -24 -62 -63 -62c-35 0 -57 23 -57 53c0 4 1 9 1 13c-20 -2 -40 -20 -54 -56c50 -25 78 -67 78 -123zM241 -107c100 0 142 26 142 63c0 25 -21 41 -79 41
h-120c-55 0 -81 -21 -81 -49c0 -30 32 -55 138 -55zM249 228c44 0 63 31 63 98c0 63 -22 99 -68 99c-45 0 -64 -32 -64 -99s23 -98 69 -98z" />
    <glyph glyph-name="h" unicode="h" horiz-adv-x="623" 
d="M22 0v83h68v522h-68v85h215v-327c36 71 85 115 161 115c101 0 143 -68 143 -165v-230h67v-83h-267v83h53v210c0 31 -6 56 -21 71c-11 10 -26 16 -47 16c-46 0 -89 -47 -89 -114v-183h52v-83h-267z" />
    <glyph glyph-name="i" unicode="i" horiz-adv-x="345" 
d="M173 537c-54 0 -89 34 -89 83s36 87 89 87c54 0 90 -36 90 -84c0 -49 -37 -86 -90 -86zM31 0v83h76v302h-76v83h222v-385h76v-83h-298z" />
    <glyph glyph-name="j" unicode="j" horiz-adv-x="343" 
d="M186 537c-53 0 -89 34 -89 83s36 87 89 87c54 0 90 -36 90 -84c0 -49 -37 -86 -90 -86zM73 -174c-90 0 -141 35 -141 86c0 37 27 70 72 70c50 0 76 -33 76 -67c0 -11 -3 -23 -7 -31c4 -1 11 -2 16 -2c20 1 31 15 31 56v447h-83v83h230v-431c0 -138 -71 -211 -194 -211z
" />
    <glyph glyph-name="k" unicode="k" horiz-adv-x="596" 
d="M494 385l-104 -94l154 -208h50v-83h-257v82h52l-92 131l-60 -54v-77h50v-82h-265v83h68v522h-68v85h215v-449l157 145h-74v82h244v-83h-70z" />
    <glyph glyph-name="l" unicode="l" horiz-adv-x="339" 
d="M20 0v83h76v522h-76v85h223v-607h76v-83h-299z" />
    <glyph glyph-name="m" unicode="m" horiz-adv-x="915" 
d="M532 354c34 75 84 124 162 124c98 0 138 -68 138 -165v-230h68v-83h-264v83h50v210c0 32 -6 57 -21 72c-10 10 -23 15 -42 15c-42 0 -85 -47 -85 -114v-183h48v-83h-244v83h50v210c0 32 -7 57 -22 72c-9 10 -23 15 -41 15c-42 0 -85 -47 -85 -114v-183h48v-83h-263v83h69
v302h-69v83h206v-123c33 79 84 133 165 133c80 0 122 -47 132 -124z" />
    <glyph glyph-name="n" unicode="n" horiz-adv-x="630" 
d="M29 0v83h69v302h-69v83h206v-123c33 79 84 133 170 133c101 0 143 -68 143 -165v-230h67v-83h-267v83h53v210c0 31 -6 56 -21 71c-11 10 -26 16 -46 16c-47 0 -90 -47 -90 -114v-183h52v-83h-267z" />
    <glyph glyph-name="o" unicode="o" 
d="M281 -10c-149 0 -253 97 -253 242c0 144 109 247 254 247c148 0 252 -98 252 -242c0 -145 -109 -247 -253 -247zM284 58c64 0 90 51 90 177s-31 176 -96 176c-63 0 -90 -51 -90 -177c0 -127 32 -176 96 -176z" />
    <glyph glyph-name="p" unicode="p" horiz-adv-x="593" 
d="M325 81c56 0 81 56 81 159c0 97 -27 146 -83 146c-58 0 -96 -69 -96 -155c0 -84 31 -150 98 -150zM21 -161v83h68v463h-68v83h206v-110c28 74 79 121 156 121c49 0 87 -19 117 -49c43 -43 64 -109 64 -188c0 -82 -24 -147 -66 -189c-34 -34 -73 -53 -121 -53
c-69 0 -117 33 -141 78v-156h86v-83h-301z" />
    <glyph glyph-name="q" unicode="q" horiz-adv-x="574" 
d="M273 393c-60 0 -86 -56 -86 -157c0 -100 28 -149 88 -149c56 0 93 67 93 153c0 87 -33 153 -95 153zM359 93c-29 -58 -79 -93 -140 -93c-53 0 -93 17 -126 50c-42 42 -63 109 -63 186c0 81 27 149 68 191c32 32 75 52 131 52c76 0 121 -46 152 -104l47 99h77v-552h68v-83
h-301v83h87v171z" />
    <glyph glyph-name="r" unicode="r" horiz-adv-x="479" 
d="M29 0v83h69v302h-69v83h206v-120c28 87 82 130 146 130c58 0 95 -43 95 -92c0 -50 -35 -86 -78 -86c-44 0 -78 25 -78 71c0 2 1 5 1 8c-27 -2 -60 -32 -77 -90v-206h87v-83h-302z" />
    <glyph glyph-name="s" unicode="s" horiz-adv-x="483" 
d="M35 -9v172h77c41 -63 98 -106 155 -106c42 0 61 19 61 48c0 36 -26 50 -119 74c-112 29 -167 65 -167 149c0 82 66 151 170 151c61 0 105 -23 134 -58l16 56h78v-160h-77c-36 56 -84 95 -134 95c-39 0 -59 -18 -59 -45c0 -34 27 -47 116 -70c102 -27 171 -60 171 -153
c0 -81 -63 -154 -177 -154c-73 0 -122 30 -152 64l-16 -63h-77z" />
    <glyph glyph-name="t" unicode="t" horiz-adv-x="414" 
d="M90 573l143 17v-127h150v-78h-150v-236c0 -43 15 -67 49 -67c30 0 44 23 62 88l60 -17c-22 -114 -71 -163 -165 -163c-102 0 -152 53 -152 160v235h-83v78h86v110z" />
    <glyph glyph-name="u" unicode="u" horiz-adv-x="619" 
d="M224 -9c-99 0 -140 68 -140 164v230h-68v83h214v-293c0 -31 6 -55 21 -71c9 -9 24 -16 45 -16c45 0 88 47 88 115v182h-69v83h215v-385h68v-83h-205v123c-33 -78 -84 -132 -169 -132z" />
    <glyph glyph-name="v" unicode="v" horiz-adv-x="571" 
d="M215 -4l-152 389h-61v83h293v-83h-72l97 -282h5l103 282h-60v83h206v-83h-58l-157 -389h-144z" />
    <glyph glyph-name="w" unicode="w" horiz-adv-x="844" 
d="M590 386h-61l83 -277h4l76 277h-54v82h203v-83h-61l-120 -389h-151l-79 240l-86 -240h-153l-121 389h-61v83h271v-82h-58l79 -277h4l86 240l-12 37h-53v82h264v-82z" />
    <glyph glyph-name="x" unicode="x" horiz-adv-x="549" 
d="M285 387h-57l72 -96l85 96h-50v81h197v-83h-49l-134 -137l134 -165h56v-83h-275v81h58l-73 100l-88 -100h52v-81h-198v83h49l136 141l-134 161h-55v83h274v-81z" />
    <glyph glyph-name="y" unicode="y" 
d="M89 14c51 0 75 -40 75 -79c0 -13 -3 -27 -8 -37c41 5 66 24 95 94l-188 393h-62v83h293v-83h-71l105 -245l94 245h-59v83h205v-83h-57l-160 -372c-48 -113 -102 -187 -210 -187c-85 0 -129 44 -129 104c0 47 31 84 77 84z" />
    <glyph glyph-name="z" unicode="z" horiz-adv-x="497" 
d="M29 0v69l274 331h-87c-62 0 -80 -10 -110 -119h-67v187h427v-69l-275 -330h103c60 0 80 10 109 127h67v-196h-441z" />
    <glyph glyph-name="Aacute" unicode="&#xc1;" horiz-adv-x="734" 
d="M476 87l-42 123h-225l-42 -123h83v-87h-253v87h72l212 575h164l209 -575h78v-87h-345v87h89zM322 729l44 116c23 59 43 100 91 100c35 0 63 -29 63 -60c0 -34 -21 -57 -58 -90l-75 -66h-65zM321 535l-85 -246h172l-83 246h-4z" />
    <glyph glyph-name="aacute" unicode="&#xe1;" horiz-adv-x="548" 
d="M172 -9c-83 0 -143 48 -143 124c0 31 12 60 33 81c31 31 79 51 194 66c55 8 60 9 60 21v41c0 60 -28 82 -86 82c-20 0 -41 -4 -60 -12c15 -11 24 -28 24 -51c0 -35 -30 -62 -71 -62c-51 0 -76 33 -76 70c0 86 107 127 222 127c141 0 191 -66 191 -163v-213
c0 -23 9 -28 25 -28c11 0 22 11 31 45l49 -16c-19 -77 -56 -112 -123 -112c-57 0 -102 30 -110 99h-5c-30 -71 -86 -99 -155 -99zM240 76c45 0 76 42 76 102v46c-9 -2 -20 -3 -45 -8c-71 -12 -93 -35 -93 -80c0 -32 18 -60 62 -60zM225 535l44 116c23 59 43 100 91 100
c35 0 63 -29 63 -60c0 -34 -21 -57 -58 -90l-75 -66h-65z" />
    <glyph glyph-name="Abreve" unicode="&#x102;" horiz-adv-x="734" 
d="M476 87l-42 123h-225l-42 -123h83v-87h-253v87h72l212 575h164l209 -575h78v-87h-345v87h89zM364 727c-98 0 -157 60 -155 184h69c9 -57 38 -85 87 -85c48 0 77 28 86 85h69c2 -124 -57 -184 -156 -184zM321 535l-85 -246h172l-83 246h-4z" />
    <glyph glyph-name="abreve" unicode="&#x103;" horiz-adv-x="548" 
d="M172 -9c-83 0 -143 48 -143 124c0 31 12 60 33 81c31 31 79 51 194 66c55 8 60 9 60 21v41c0 60 -28 82 -86 82c-20 0 -41 -4 -60 -12c15 -11 24 -28 24 -51c0 -35 -30 -62 -71 -62c-51 0 -76 33 -76 70c0 86 107 127 222 127c141 0 191 -66 191 -163v-213
c0 -23 9 -28 25 -28c11 0 22 11 31 45l49 -16c-19 -77 -56 -112 -123 -112c-57 0 -102 30 -110 99h-5c-30 -71 -86 -99 -155 -99zM240 76c45 0 76 42 76 102v46c-9 -2 -20 -3 -45 -8c-71 -12 -93 -35 -93 -80c0 -32 18 -60 62 -60zM267 533c-98 0 -157 60 -155 184h69
c9 -57 38 -85 87 -85c48 0 77 28 86 85h69c2 -124 -57 -184 -156 -184z" />
    <glyph glyph-name="Acircumflex" unicode="&#xc2;" horiz-adv-x="734" 
d="M476 87l-42 123h-225l-42 -123h83v-87h-253v87h72l212 575h164l209 -575h78v-87h-345v87h89zM201 729l124 197h81l122 -197h-85l-80 86l-77 -86h-85zM321 535l-85 -246h172l-83 246h-4z" />
    <glyph glyph-name="acircumflex" unicode="&#xe2;" horiz-adv-x="548" 
d="M172 -9c-83 0 -143 48 -143 124c0 31 12 60 33 81c31 31 79 51 194 66c55 8 60 9 60 21v41c0 60 -28 82 -86 82c-20 0 -41 -4 -60 -12c15 -11 24 -28 24 -51c0 -35 -30 -62 -71 -62c-51 0 -76 33 -76 70c0 86 107 127 222 127c141 0 191 -66 191 -163v-213
c0 -23 9 -28 25 -28c11 0 22 11 31 45l49 -16c-19 -77 -56 -112 -123 -112c-57 0 -102 30 -110 99h-5c-30 -71 -86 -99 -155 -99zM240 76c45 0 76 42 76 102v46c-9 -2 -20 -3 -45 -8c-71 -12 -93 -35 -93 -80c0 -32 18 -60 62 -60zM104 535l124 197h81l122 -197h-85l-80 86
l-77 -86h-85z" />
    <glyph glyph-name="Adieresis" unicode="&#xc4;" horiz-adv-x="734" 
d="M476 87l-42 123h-225l-42 -123h83v-87h-253v87h72l212 575h164l209 -575h78v-87h-345v87h89zM321 535l-85 -246h172l-83 246h-4zM264 732c-46 0 -78 32 -78 76c0 43 33 78 78 78c46 0 78 -33 78 -76s-32 -78 -78 -78zM465 732c-46 0 -78 32 -78 76c0 43 33 78 78 78
c46 0 77 -33 77 -76s-32 -78 -77 -78z" />
    <glyph glyph-name="adieresis" unicode="&#xe4;" horiz-adv-x="548" 
d="M172 -9c-83 0 -143 48 -143 124c0 31 12 60 33 81c31 31 79 51 194 66c55 8 60 9 60 21v41c0 60 -28 82 -86 82c-20 0 -41 -4 -60 -12c15 -11 24 -28 24 -51c0 -35 -30 -62 -71 -62c-51 0 -76 33 -76 70c0 86 107 127 222 127c141 0 191 -66 191 -163v-213
c0 -23 9 -28 25 -28c11 0 22 11 31 45l49 -16c-19 -77 -56 -112 -123 -112c-57 0 -102 30 -110 99h-5c-30 -71 -86 -99 -155 -99zM240 76c45 0 76 42 76 102v46c-9 -2 -20 -3 -45 -8c-71 -12 -93 -35 -93 -80c0 -32 18 -60 62 -60zM368 538c-46 0 -78 32 -78 76
c0 43 33 78 78 78c46 0 77 -33 77 -76s-32 -78 -77 -78zM167 538c-46 0 -78 32 -78 76c0 43 33 78 78 78c46 0 78 -33 78 -76s-32 -78 -78 -78z" />
    <glyph glyph-name="AE" unicode="&#xc6;" horiz-adv-x="1058" 
d="M467 299v266h-9l-167 -266h176zM242 220l-83 -134h78v-86h-257v87h71l314 484h-95v87h733v-234h-86c-26 125 -40 149 -124 149h-162v-199h54c56 0 61 11 75 92h78v-267h-78c-12 82 -20 94 -75 94h-54v-208h158c101 0 113 36 137 175h86v-260h-635v87h90v133h-225z" />
    <glyph glyph-name="ae" unicode="&#xe6;" horiz-adv-x="803" 
d="M773 215h-317c6 -109 49 -145 123 -145c55 0 91 23 112 82h77c-19 -100 -84 -162 -209 -162c-108 0 -181 41 -213 113c-28 -74 -89 -112 -167 -112c-90 0 -150 48 -150 124c0 31 12 60 33 81c31 31 79 51 194 66c55 8 60 9 60 21v41c0 60 -28 82 -86 82
c-20 0 -41 -4 -60 -12c15 -11 24 -28 24 -51c0 -35 -30 -62 -71 -62c-51 0 -76 33 -76 70c0 86 107 127 215 127c71 0 118 -18 144 -56c36 36 85 57 148 57c151 0 226 -112 219 -264zM546 411c-51 0 -83 -33 -89 -133h173c-5 95 -31 133 -84 133zM240 76c45 0 76 42 76 102
v46c-9 -2 -20 -3 -45 -8c-71 -12 -93 -35 -93 -80c0 -32 18 -60 62 -60z" />
    <glyph glyph-name="AEacute" unicode="&#x1fc;" horiz-adv-x="1058" 
d="M545 729l44 116c23 59 43 100 91 100c35 0 63 -29 63 -60c0 -34 -21 -57 -58 -90l-75 -66h-65zM467 299v266h-9l-167 -266h176zM242 220l-83 -134h78v-86h-257v87h71l314 484h-95v87h733v-234h-86c-26 125 -40 149 -124 149h-162v-199h54c56 0 61 11 75 92h78v-267h-78
c-12 82 -20 94 -75 94h-54v-208h158c101 0 113 36 137 175h86v-260h-635v87h90v133h-225z" />
    <glyph glyph-name="aeacute" unicode="&#x1fd;" horiz-adv-x="803" 
d="M773 215h-317c6 -109 49 -145 123 -145c55 0 91 23 112 82h77c-19 -100 -84 -162 -209 -162c-108 0 -181 41 -213 113c-28 -74 -89 -112 -167 -112c-90 0 -150 48 -150 124c0 31 12 60 33 81c31 31 79 51 194 66c55 8 60 9 60 21v41c0 60 -28 82 -86 82
c-20 0 -41 -4 -60 -12c15 -11 24 -28 24 -51c0 -35 -30 -62 -71 -62c-51 0 -76 33 -76 70c0 86 107 127 215 127c71 0 118 -18 144 -56c36 36 85 57 148 57c151 0 226 -112 219 -264zM375 535l44 116c23 59 43 100 91 100c35 0 63 -29 63 -60c0 -34 -21 -57 -58 -90l-75 -66
h-65zM546 411c-51 0 -83 -33 -89 -133h173c-5 95 -31 133 -84 133zM240 76c45 0 76 42 76 102v46c-9 -2 -20 -3 -45 -8c-71 -12 -93 -35 -93 -80c0 -32 18 -60 62 -60z" />
    <glyph glyph-name="Agrave" unicode="&#xc0;" horiz-adv-x="734" 
d="M476 87l-42 123h-225l-42 -123h83v-87h-253v87h72l212 575h164l209 -575h78v-87h-345v87h89zM410 729h-65l-74 66c-38 33 -59 56 -59 90c0 31 28 60 63 60c48 0 68 -41 91 -100zM321 535l-85 -246h172l-83 246h-4z" />
    <glyph glyph-name="agrave" unicode="&#xe0;" horiz-adv-x="548" 
d="M172 -9c-83 0 -143 48 -143 124c0 31 12 60 33 81c31 31 79 51 194 66c55 8 60 9 60 21v41c0 60 -28 82 -86 82c-20 0 -41 -4 -60 -12c15 -11 24 -28 24 -51c0 -35 -30 -62 -71 -62c-51 0 -76 33 -76 70c0 86 107 127 222 127c141 0 191 -66 191 -163v-213
c0 -23 9 -28 25 -28c11 0 22 11 31 45l49 -16c-19 -77 -56 -112 -123 -112c-57 0 -102 30 -110 99h-5c-30 -71 -86 -99 -155 -99zM240 76c45 0 76 42 76 102v46c-9 -2 -20 -3 -45 -8c-71 -12 -93 -35 -93 -80c0 -32 18 -60 62 -60zM313 535h-65l-74 66c-38 33 -59 56 -59 90
c0 31 28 60 63 60c48 0 68 -41 91 -100z" />
    <glyph glyph-name="Amacron" unicode="&#x100;" horiz-adv-x="734" 
d="M476 87l-42 123h-225l-42 -123h83v-87h-253v87h72l212 575h164l209 -575h78v-87h-345v87h89zM215 734v98h299v-98h-299zM321 535l-85 -246h172l-83 246h-4z" />
    <glyph glyph-name="amacron" unicode="&#x101;" horiz-adv-x="548" 
d="M172 -9c-83 0 -143 48 -143 124c0 31 12 60 33 81c31 31 79 51 194 66c55 8 60 9 60 21v41c0 60 -28 82 -86 82c-20 0 -41 -4 -60 -12c15 -11 24 -28 24 -51c0 -35 -30 -62 -71 -62c-51 0 -76 33 -76 70c0 86 107 127 222 127c141 0 191 -66 191 -163v-213
c0 -23 9 -28 25 -28c11 0 22 11 31 45l49 -16c-19 -77 -56 -112 -123 -112c-57 0 -102 30 -110 99h-5c-30 -71 -86 -99 -155 -99zM240 76c45 0 76 42 76 102v46c-9 -2 -20 -3 -45 -8c-71 -12 -93 -35 -93 -80c0 -32 18 -60 62 -60zM118 540v98h299v-98h-299z" />
    <glyph glyph-name="Aogonek" unicode="&#x104;" horiz-adv-x="734" 
d="M567 -250c-81 0 -122 45 -122 100c0 62 39 99 106 147l4 3h-168v87h89l-42 123h-225l-42 -123h83v-87h-253v87h72l212 575h164l209 -575h78v-87h-89l-13 -12c-57 -52 -73 -82 -73 -112s19 -50 55 -50c21 0 40 8 59 19l24 -52c-34 -22 -77 -43 -128 -43zM321 535l-85 -246
h172l-83 246h-4z" />
    <glyph glyph-name="aogonek" unicode="&#x105;" horiz-adv-x="548" 
d="M426 -250c-81 0 -122 45 -122 100c0 59 34 96 102 146c-39 10 -68 40 -74 94h-5c-30 -71 -86 -99 -155 -99c-83 0 -143 48 -143 124c0 30 14 64 40 86c32 28 77 47 192 62c35 5 49 8 55 15v46c0 60 -28 82 -86 82c-20 0 -41 -4 -60 -12c15 -11 24 -28 24 -51
c0 -35 -30 -62 -71 -62c-51 0 -76 33 -76 70c0 86 107 127 222 127c141 0 191 -66 191 -163v-213c0 -23 9 -28 25 -28c11 0 22 11 31 45l49 -16c-10 -45 -25 -70 -52 -94c-83 -71 -97 -103 -97 -133s18 -50 54 -50c22 0 41 8 60 19l23 -52c-34 -22 -77 -43 -127 -43zM240 76
c45 0 76 42 76 102v46c-8 -3 -20 -3 -45 -8c-71 -12 -93 -35 -93 -80c0 -32 18 -60 62 -60z" />
    <glyph glyph-name="Aring" unicode="&#xc5;" horiz-adv-x="734" 
d="M364 682c30 0 51 25 51 66c0 44 -22 66 -53 66c-29 0 -51 -22 -51 -65c0 -42 23 -67 53 -67zM408 289l-83 246h-4l-84 -246h171zM210 210l-43 -123h83v-87h-253v87h72l211 573c-31 19 -47 51 -47 87c0 62 49 117 131 117s129 -53 129 -115c0 -37 -17 -69 -48 -89
c0 1 209 -573 209 -573h78v-87h-345v87h89l-42 123h-224z" />
    <glyph glyph-name="aring" unicode="&#xe5;" horiz-adv-x="548" 
d="M172 -9c-83 0 -143 48 -143 124c0 31 12 60 33 81c31 31 79 51 194 66c55 8 60 9 60 21v41c0 60 -28 82 -86 82c-20 0 -41 -4 -60 -12c15 -11 24 -28 24 -51c0 -35 -30 -62 -71 -62c-51 0 -76 33 -76 70c0 86 107 127 222 127c141 0 191 -66 191 -163v-213
c0 -23 9 -28 25 -28c11 0 22 11 31 45l49 -16c-19 -77 -56 -112 -123 -112c-57 0 -102 30 -110 99h-5c-30 -71 -86 -99 -155 -99zM240 76c45 0 76 42 76 102v46c-9 -2 -20 -3 -45 -8c-71 -12 -93 -35 -93 -80c0 -32 18 -60 62 -60zM268 529c-84 0 -130 53 -130 115
s48 117 130 117s129 -53 129 -115s-48 -117 -129 -117zM269 579c30 0 51 24 51 66c0 43 -22 66 -54 66c-29 0 -51 -23 -51 -65c0 -43 23 -67 54 -67z" />
    <glyph glyph-name="Aringacute" unicode="&#x1fa;" horiz-adv-x="734" 
d="M319 906l44 116c23 59 43 100 91 100c35 0 63 -29 63 -60c0 -34 -21 -57 -58 -90l-75 -66h-65zM364 682c30 0 51 25 51 66c0 44 -22 66 -53 66c-29 0 -51 -22 -51 -65c0 -42 23 -67 53 -67zM408 289l-83 246h-4l-84 -246h171zM210 210l-43 -123h83v-87h-253v87h72
l211 573c-31 19 -47 51 -47 87c0 62 49 117 131 117s129 -53 129 -115c0 -37 -17 -69 -48 -89c0 1 209 -573 209 -573h78v-87h-345v87h89l-42 123h-224z" />
    <glyph glyph-name="aringacute" unicode="&#x1fb;" horiz-adv-x="548" 
d="M172 -9c-83 0 -143 48 -143 124c0 31 12 60 33 81c31 31 79 51 194 66c55 8 60 9 60 21v41c0 60 -28 82 -86 82c-20 0 -41 -4 -60 -12c15 -11 24 -28 24 -51c0 -35 -30 -62 -71 -62c-51 0 -76 33 -76 70c0 86 107 127 222 127c141 0 191 -66 191 -163v-213
c0 -23 9 -28 25 -28c11 0 22 11 31 45l49 -16c-19 -77 -56 -112 -123 -112c-57 0 -102 30 -110 99h-5c-30 -71 -86 -99 -155 -99zM240 76c45 0 76 42 76 102v46c-9 -2 -20 -3 -45 -8c-71 -12 -93 -35 -93 -80c0 -32 18 -60 62 -60zM226 802l44 116c23 59 43 100 91 100
c35 0 63 -29 63 -60c0 -34 -21 -57 -58 -90l-75 -66h-65zM270 529c-84 0 -130 53 -130 115s48 117 130 117s129 -53 129 -115s-48 -117 -129 -117zM271 579c30 0 51 24 51 66c0 43 -22 66 -54 66c-29 0 -51 -23 -51 -65c0 -43 23 -67 54 -67z" />
    <glyph glyph-name="Atilde" unicode="&#xc3;" horiz-adv-x="734" 
d="M476 87l-42 123h-225l-42 -123h83v-87h-253v87h72l212 575h164l209 -575h78v-87h-345v87h89zM182 726c9 107 35 161 112 161c59 0 115 -48 152 -48c19 0 27 15 34 54h66c-8 -107 -35 -161 -112 -161c-59 0 -115 48 -152 48c-18 0 -27 -15 -34 -54h-66zM321 535l-85 -246
h172l-83 246h-4z" />
    <glyph glyph-name="atilde" unicode="&#xe3;" horiz-adv-x="548" 
d="M172 -9c-83 0 -143 48 -143 124c0 31 12 60 33 81c31 31 79 51 194 66c55 8 60 9 60 21v41c0 60 -28 82 -86 82c-20 0 -41 -4 -60 -12c15 -11 24 -28 24 -51c0 -35 -30 -62 -71 -62c-51 0 -76 33 -76 70c0 86 107 127 222 127c141 0 191 -66 191 -163v-213
c0 -23 9 -28 25 -28c11 0 22 11 31 45l49 -16c-19 -77 -56 -112 -123 -112c-57 0 -102 30 -110 99h-5c-30 -71 -86 -99 -155 -99zM240 76c45 0 76 42 76 102v46c-9 -2 -20 -3 -45 -8c-71 -12 -93 -35 -93 -80c0 -32 18 -60 62 -60zM85 532c9 107 35 161 112 161
c59 0 115 -48 152 -48c19 0 27 15 34 54h66c-8 -107 -35 -161 -112 -161c-59 0 -115 48 -152 48c-18 0 -27 -15 -34 -54h-66z" />
    <glyph glyph-name="Cacute" unicode="&#x106;" horiz-adv-x="695" 
d="M318 729l44 116c23 59 43 100 91 100c35 0 63 -29 63 -60c0 -34 -21 -57 -58 -90l-75 -66h-65zM373 -16c-205 0 -337 138 -337 341c0 205 146 349 318 349c84 0 147 -29 187 -78l21 76h90v-262h-99c-40 121 -96 182 -179 182c-94 0 -160 -69 -160 -257
c0 -180 69 -257 182 -257c99 0 156 75 173 185h96c-17 -170 -114 -279 -292 -279z" />
    <glyph glyph-name="cacute" unicode="&#x107;" horiz-adv-x="513" 
d="M237 535l44 116c23 59 43 100 91 100c35 0 63 -29 63 -60c0 -34 -21 -57 -58 -90l-75 -66h-65zM281 -10c-159 0 -253 95 -253 236c0 151 106 253 258 253c135 0 204 -81 204 -152c0 -50 -28 -86 -80 -86c-49 0 -75 33 -75 71c0 32 21 55 42 63c-14 18 -38 32 -77 32
c-66 0 -115 -62 -115 -170c0 -98 40 -162 118 -162c54 0 91 32 110 86h78c-22 -101 -92 -171 -210 -171z" />
    <glyph glyph-name="Ccaron" unicode="&#x10c;" horiz-adv-x="695" 
d="M320 732l-122 197h85l80 -86l77 86h85l-124 -197h-81zM373 -16c-205 0 -337 138 -337 341c0 205 146 349 318 349c84 0 147 -29 187 -78l21 76h90v-262h-99c-40 121 -96 182 -179 182c-94 0 -160 -69 -160 -257c0 -180 69 -257 182 -257c99 0 156 75 173 185h96
c-17 -170 -114 -279 -292 -279z" />
    <glyph glyph-name="ccaron" unicode="&#x10d;" horiz-adv-x="513" 
d="M238 538l-122 197h85l80 -86l77 86h85l-124 -197h-81zM281 -10c-159 0 -253 95 -253 236c0 151 106 253 258 253c135 0 204 -81 204 -152c0 -50 -28 -86 -80 -86c-49 0 -75 33 -75 71c0 32 21 55 42 63c-14 18 -38 32 -77 32c-66 0 -115 -62 -115 -170
c0 -98 40 -162 118 -162c54 0 91 32 110 86h78c-22 -101 -92 -171 -210 -171z" />
    <glyph glyph-name="Ccedilla" unicode="&#xc7;" horiz-adv-x="695" 
d="M354 -249c-45 0 -94 10 -133 32l29 49c25 -12 57 -20 86 -20c32 0 48 11 48 28c0 21 -26 36 -77 36c-8 0 -16 -1 -27 -3l-23 42l83 71c-186 14 -304 147 -304 339c0 205 146 349 318 349c84 0 147 -29 187 -78l21 76h90v-262h-99c-40 121 -96 182 -179 182
c-94 0 -160 -69 -160 -257c0 -180 69 -257 182 -257c99 0 156 75 173 185h96c-16 -155 -98 -260 -247 -276l-45 -46l1 -4c79 -9 114 -45 114 -88c0 -60 -49 -98 -134 -98z" />
    <glyph glyph-name="ccedilla" unicode="&#xe7;" horiz-adv-x="513" 
d="M262 -249c-45 0 -94 10 -133 32l29 49c25 -12 57 -20 86 -20c32 0 48 11 48 28c0 21 -26 36 -77 36c-8 0 -16 -1 -27 -3l-23 42l89 76c-143 10 -226 102 -226 235c0 151 106 253 258 253c135 0 204 -81 204 -152c0 -50 -28 -86 -80 -86c-49 0 -75 33 -75 71
c0 32 21 55 42 63c-14 18 -38 32 -77 32c-66 0 -115 -62 -115 -170c0 -98 40 -162 118 -162c54 0 91 32 110 86h78c-19 -85 -71 -148 -157 -166l-53 -54l1 -4c79 -9 114 -45 114 -88c0 -60 -49 -98 -134 -98z" />
    <glyph glyph-name="Cdotaccent" unicode="&#x10a;" horiz-adv-x="695" 
d="M373 -16c-205 0 -337 138 -337 341c0 205 146 349 318 349c84 0 147 -29 187 -78l21 76h90v-262h-99c-40 121 -96 182 -179 182c-94 0 -160 -69 -160 -257c0 -180 69 -257 182 -257c99 0 156 75 173 185h96c-17 -170 -114 -279 -292 -279zM360 726c-50 0 -85 34 -85 79
c0 46 36 82 85 82c51 0 86 -34 86 -79c0 -46 -36 -82 -86 -82z" />
    <glyph glyph-name="cdotaccent" unicode="&#x10b;" horiz-adv-x="513" 
d="M281 -10c-159 0 -253 95 -253 236c0 151 106 253 258 253c135 0 204 -81 204 -152c0 -50 -28 -86 -80 -86c-49 0 -75 33 -75 71c0 32 21 55 42 63c-14 18 -38 32 -77 32c-66 0 -115 -62 -115 -170c0 -98 40 -162 118 -162c54 0 91 32 110 86h78
c-22 -101 -92 -171 -210 -171zM278 532c-50 0 -85 34 -85 79c0 46 36 82 85 82c51 0 86 -34 86 -79c0 -46 -36 -82 -86 -82z" />
    <glyph glyph-name="Dcaron" unicode="&#x10e;" horiz-adv-x="751" 
d="M348 732l-122 197h85l80 -86l77 86h85l-124 -197h-81zM27 0v87h90v484h-90v87h295c267 0 393 -130 393 -325c0 -194 -122 -333 -387 -333h-301zM280 85h57c145 0 200 63 200 247c0 174 -58 241 -207 241h-50v-488z" />
    <glyph glyph-name="dcaron" unicode="&#x10f;" horiz-adv-x="594" 
d="M631 541h-52c-8 99 -9 149 -9 162c-1 66 27 93 66 93c32 0 61 -25 61 -64c0 -24 -9 -48 -28 -92zM214 -10c-51 0 -91 19 -121 49c-43 43 -64 113 -64 193c0 84 25 155 68 197c31 32 73 50 123 50c67 0 112 -33 141 -80v206h-72v85h218v-607h67v-83h-204v98
c-28 -65 -80 -108 -156 -108zM275 76c58 0 95 66 95 158c0 88 -28 157 -95 157c-61 0 -89 -56 -89 -160c0 -101 30 -155 89 -155z" />
    <glyph glyph-name="Dcroat" unicode="&#x110;" horiz-adv-x="751" 
d="M27 0v87h90v215h-90v82h90v187h-90v87h295c267 0 393 -130 393 -325c0 -194 -122 -333 -387 -333h-301zM280 85h57c145 0 200 63 200 247c0 174 -58 241 -207 241h-50v-189h132v-82h-132v-217z" />
    <glyph glyph-name="dcroat" unicode="&#x111;" horiz-adv-x="594" 
d="M214 -10c-51 0 -91 19 -121 49c-43 43 -64 112 -64 189c0 82 25 152 68 194c31 32 73 50 123 50c67 0 112 -33 141 -80v111h-118v65h118v46h-72v76h218v-122h67v-65h-67v-420h67v-83h-204v98c-28 -65 -80 -108 -156 -108zM275 76c58 0 95 65 95 155c0 85 -28 153 -95 153
c-61 0 -89 -55 -89 -157c0 -99 30 -151 89 -151z" />
    <glyph glyph-name="Eacute" unicode="&#xc9;" horiz-adv-x="707" 
d="M333 729l44 116c23 59 43 100 91 100c35 0 63 -29 63 -60c0 -34 -21 -57 -58 -90l-75 -66h-65zM27 0v87h90v484h-90v87h626v-234h-87c-25 125 -40 149 -124 149h-162v-199h54c56 0 61 11 75 92h78v-267h-78c-12 82 -20 94 -75 94h-54v-208h158c101 0 113 36 137 175h87
v-260h-635z" />
    <glyph glyph-name="eacute" unicode="&#xe9;" horiz-adv-x="528" 
d="M499 215h-319c6 -109 50 -145 124 -145c56 0 91 23 112 82h78c-18 -98 -84 -162 -215 -162c-156 0 -251 96 -251 240c0 142 105 249 246 249c158 0 232 -112 225 -264zM234 535l44 116c23 59 43 100 91 100c35 0 63 -29 63 -60c0 -34 -21 -57 -58 -90l-75 -66h-65z
M271 411c-52 0 -84 -33 -90 -133h175c-5 95 -31 133 -85 133z" />
    <glyph glyph-name="Ebreve" unicode="&#x114;" horiz-adv-x="707" 
d="M27 0v87h90v484h-90v87h626v-234h-87c-25 125 -40 149 -124 149h-162v-199h54c56 0 61 11 75 92h78v-267h-78c-12 82 -20 94 -75 94h-54v-208h158c101 0 113 36 137 175h87v-260h-635zM375 727c-98 0 -157 60 -155 184h69c9 -57 38 -85 87 -85c48 0 77 28 86 85h69
c2 -124 -57 -184 -156 -184z" />
    <glyph glyph-name="ebreve" unicode="&#x115;" horiz-adv-x="528" 
d="M499 215h-319c6 -109 50 -145 124 -145c56 0 91 23 112 82h78c-18 -98 -84 -162 -215 -162c-156 0 -251 96 -251 240c0 142 105 249 246 249c158 0 232 -112 225 -264zM275 533c-98 0 -157 60 -155 184h69c9 -57 38 -85 87 -85c48 0 77 28 86 85h69
c2 -124 -57 -184 -156 -184zM271 411c-52 0 -84 -33 -90 -133h175c-5 95 -31 133 -85 133z" />
    <glyph glyph-name="Ecaron" unicode="&#x11a;" horiz-adv-x="707" 
d="M335 732l-122 197h85l80 -86l77 86h85l-124 -197h-81zM27 0v87h90v484h-90v87h626v-234h-87c-25 125 -40 149 -124 149h-162v-199h54c56 0 61 11 75 92h78v-267h-78c-12 82 -20 94 -75 94h-54v-208h158c101 0 113 36 137 175h87v-260h-635z" />
    <glyph glyph-name="ecaron" unicode="&#x11b;" horiz-adv-x="528" 
d="M499 215h-319c6 -109 50 -145 124 -145c56 0 91 23 112 82h78c-18 -98 -84 -162 -215 -162c-156 0 -251 96 -251 240c0 142 105 249 246 249c158 0 232 -112 225 -264zM235 538l-122 197h85l80 -86l77 86h85l-124 -197h-81zM271 411c-52 0 -84 -33 -90 -133h175
c-5 95 -31 133 -85 133z" />
    <glyph glyph-name="Ecircumflex" unicode="&#xca;" horiz-adv-x="707" 
d="M212 729l124 197h81l122 -197h-85l-80 86l-77 -86h-85zM27 0v87h90v484h-90v87h626v-234h-87c-25 125 -40 149 -124 149h-162v-199h54c56 0 61 11 75 92h78v-267h-78c-12 82 -20 94 -75 94h-54v-208h158c101 0 113 36 137 175h87v-260h-635z" />
    <glyph glyph-name="ecircumflex" unicode="&#xea;" horiz-adv-x="528" 
d="M499 215h-319c6 -109 50 -145 124 -145c56 0 91 23 112 82h78c-18 -98 -84 -162 -215 -162c-156 0 -251 96 -251 240c0 142 105 249 246 249c158 0 232 -112 225 -264zM112 535l124 197h81l122 -197h-85l-80 86l-77 -86h-85zM271 411c-52 0 -84 -33 -90 -133h175
c-5 95 -31 133 -85 133z" />
    <glyph glyph-name="Edieresis" unicode="&#xcb;" horiz-adv-x="707" 
d="M476 732c-46 0 -78 32 -78 76c0 43 33 78 78 78c46 0 77 -33 77 -76s-32 -78 -77 -78zM275 732c-46 0 -78 32 -78 76c0 43 33 78 78 78c46 0 78 -33 78 -76s-32 -78 -78 -78zM27 0v87h90v484h-90v87h626v-234h-87c-25 125 -40 149 -124 149h-162v-199h54
c56 0 61 11 75 92h78v-267h-78c-12 82 -20 94 -75 94h-54v-208h158c101 0 113 36 137 175h87v-260h-635z" />
    <glyph glyph-name="edieresis" unicode="&#xeb;" horiz-adv-x="528" 
d="M499 215h-319c6 -109 50 -145 124 -145c56 0 91 23 112 82h78c-18 -98 -84 -162 -215 -162c-156 0 -251 96 -251 240c0 142 105 249 246 249c158 0 232 -112 225 -264zM175 538c-46 0 -78 32 -78 76c0 43 33 78 78 78c46 0 78 -33 78 -76s-32 -78 -78 -78zM376 538
c-46 0 -78 32 -78 76c0 43 33 78 78 78c46 0 77 -33 77 -76s-32 -78 -77 -78zM271 411c-52 0 -84 -33 -90 -133h175c-5 95 -31 133 -85 133z" />
    <glyph glyph-name="Edotaccent" unicode="&#x116;" horiz-adv-x="707" 
d="M27 0v87h90v484h-90v87h626v-234h-87c-25 125 -40 149 -124 149h-162v-199h54c56 0 61 11 75 92h78v-267h-78c-12 82 -20 94 -75 94h-54v-208h158c101 0 113 36 137 175h87v-260h-635zM375 726c-50 0 -85 34 -85 79c0 46 36 82 85 82c51 0 86 -34 86 -79
c0 -46 -36 -82 -86 -82z" />
    <glyph glyph-name="edotaccent" unicode="&#x117;" horiz-adv-x="528" 
d="M499 215h-319c6 -109 50 -145 124 -145c56 0 91 23 112 82h78c-18 -98 -84 -162 -215 -162c-156 0 -251 96 -251 240c0 142 105 249 246 249c158 0 232 -112 225 -264zM275 532c-50 0 -85 34 -85 79c0 46 36 82 85 82c51 0 86 -34 86 -79c0 -46 -36 -82 -86 -82zM271 411
c-52 0 -84 -33 -90 -133h175c-5 95 -31 133 -85 133z" />
    <glyph glyph-name="Egrave" unicode="&#xc8;" horiz-adv-x="707" 
d="M27 0v87h90v484h-90v87h626v-234h-87c-25 125 -40 149 -124 149h-162v-199h54c56 0 61 11 75 92h78v-267h-78c-12 82 -20 94 -75 94h-54v-208h158c101 0 113 36 137 175h87v-260h-635zM421 729h-65l-74 66c-38 33 -59 56 -59 90c0 31 28 60 63 60c48 0 68 -41 91 -100z
" />
    <glyph glyph-name="egrave" unicode="&#xe8;" horiz-adv-x="528" 
d="M499 215h-319c6 -109 50 -145 124 -145c56 0 91 23 112 82h78c-18 -98 -84 -162 -215 -162c-156 0 -251 96 -251 240c0 142 105 249 246 249c158 0 232 -112 225 -264zM322 535h-65l-74 66c-38 33 -59 56 -59 90c0 31 28 60 63 60c48 0 68 -41 91 -100zM271 411
c-52 0 -84 -33 -90 -133h175c-5 95 -31 133 -85 133z" />
    <glyph glyph-name="Emacron" unicode="&#x112;" horiz-adv-x="707" 
d="M27 0v87h90v484h-90v87h626v-234h-87c-25 125 -40 149 -124 149h-162v-199h54c56 0 61 11 75 92h78v-267h-78c-12 82 -20 94 -75 94h-54v-208h158c101 0 113 36 137 175h87v-260h-635zM226 734v98h299v-98h-299z" />
    <glyph glyph-name="emacron" unicode="&#x113;" horiz-adv-x="528" 
d="M499 215h-319c6 -109 50 -145 124 -145c56 0 91 23 112 82h78c-18 -98 -84 -162 -215 -162c-156 0 -251 96 -251 240c0 142 105 249 246 249c158 0 232 -112 225 -264zM127 540v98h299v-98h-299zM271 411c-52 0 -84 -33 -90 -133h175c-5 95 -31 133 -85 133z" />
    <glyph glyph-name="Eogonek" unicode="&#x118;" horiz-adv-x="707" 
d="M27 0v87h90v484h-90v87h626v-234h-87c-25 125 -40 149 -124 149h-162v-199h54c56 0 61 11 75 92h78v-267h-78c-12 82 -20 94 -75 94h-54v-208h158c101 0 113 36 137 175h87v-260h-62l-13 -12c-57 -52 -73 -82 -73 -112s19 -50 55 -50c21 0 40 8 59 19l24 -52
c-34 -22 -77 -43 -128 -43c-81 0 -122 45 -122 100c0 62 39 99 106 147l4 3h-485z" />
    <glyph glyph-name="eogonek" unicode="&#x119;" horiz-adv-x="528" 
d="M499 215h-319c6 -109 50 -145 124 -145c56 0 91 23 112 82h78c-13 -62 -37 -98 -84 -141l-25 -25c-57 -52 -72 -81 -72 -110c0 -30 18 -50 55 -50c21 0 40 8 59 19l24 -52c-34 -22 -77 -43 -128 -43c-81 0 -122 45 -122 100c0 54 30 89 83 131l11 9h-7
c-168 0 -260 99 -260 240c0 142 105 249 246 249c158 0 232 -112 225 -264zM271 411c-52 0 -84 -33 -90 -133h175c-5 95 -31 133 -85 133z" />
    <glyph glyph-name="Eth" unicode="&#xd0;" horiz-adv-x="751" 
d="M27 0v87h90v213h-90v86h90v185h-90v87h295c267 0 393 -130 393 -325c0 -194 -122 -333 -387 -333h-301zM280 85h57c145 0 200 63 200 247c0 174 -58 241 -207 241h-50v-187h114v-86h-114v-215z" />
    <glyph glyph-name="eth" unicode="&#xf0;" horiz-adv-x="568" 
d="M505 619l-86 -33c70 -81 116 -178 116 -298c0 -200 -108 -298 -260 -298c-151 0 -247 95 -247 237c0 139 83 231 204 231c63 0 113 -25 141 -71c-8 54 -30 108 -62 159l-123 -47l-22 60l107 40c-23 29 -48 55 -75 80l103 16c24 -19 48 -38 70 -59l112 42zM282 58
c62 0 90 49 90 166c0 118 -33 159 -99 159c-58 0 -87 -43 -87 -160c0 -119 32 -165 96 -165z" />
    <glyph glyph-name="Gbreve" unicode="&#x11e;" horiz-adv-x="751" 
d="M536 91c-32 -61 -87 -107 -184 -107c-183 0 -316 140 -316 344c0 199 151 346 321 346c83 0 143 -30 183 -82l21 80h91v-256h-111c-38 120 -90 176 -167 176c-92 0 -160 -76 -160 -257c0 -165 55 -261 165 -261c44 0 72 19 92 44c22 26 32 70 32 118v18h-110v87h347v-87
h-76v-262h-90zM365 727c-98 0 -157 60 -155 184h69c9 -57 38 -85 87 -85c48 0 77 28 86 85h69c2 -124 -57 -184 -156 -184z" />
    <glyph glyph-name="gbreve" unicode="&#x11f;" horiz-adv-x="521" 
d="M453 329c0 -97 -72 -151 -202 -151c-20 0 -46 2 -64 2c-29 0 -48 -15 -48 -33c0 -21 19 -33 72 -33h129c123 0 173 -51 173 -125c0 -94 -85 -163 -288 -163c-152 0 -220 40 -220 102c0 47 40 80 111 89v5c-57 12 -85 48 -85 86c0 47 47 90 117 98
c-67 17 -108 57 -108 124c0 85 74 149 204 149c31 0 60 -3 85 -10c23 65 71 106 134 106c59 0 85 -35 85 -71c0 -35 -24 -62 -63 -62c-35 0 -57 23 -57 53c0 4 1 9 1 13c-20 -2 -40 -20 -54 -56c50 -25 78 -67 78 -123zM241 547c-98 0 -157 60 -155 184h69
c9 -57 38 -85 87 -85c48 0 77 28 86 85h69c2 -124 -57 -184 -156 -184zM241 -107c100 0 142 26 142 63c0 25 -21 41 -79 41h-120c-55 0 -81 -21 -81 -49c0 -30 32 -55 138 -55zM249 228c44 0 63 31 63 98c0 63 -22 99 -68 99c-45 0 -64 -32 -64 -99s23 -98 69 -98z" />
    <glyph glyph-name="Gcommaaccent" unicode="&#x122;" horiz-adv-x="751" 
d="M286 -365l-21 47c70 32 106 68 113 115l-7 4c-7 -8 -19 -16 -37 -16c-35 0 -63 27 -63 69c0 45 34 83 83 83c57 0 95 -42 95 -111c0 -88 -52 -152 -163 -191zM536 91c-32 -61 -87 -107 -184 -107c-183 0 -316 140 -316 344c0 199 151 346 321 346c83 0 143 -30 183 -82
l21 80h91v-256h-111c-38 120 -90 176 -167 176c-92 0 -160 -76 -160 -257c0 -165 55 -261 165 -261c44 0 72 19 92 44c22 26 32 70 32 118v18h-110v87h347v-87h-76v-262h-90z" />
    <glyph glyph-name="gcommaaccent" unicode="&#x123;" horiz-adv-x="521" 
d="M453 329c0 -97 -72 -151 -202 -151c-20 0 -46 2 -64 2c-29 0 -48 -15 -48 -33c0 -21 19 -33 72 -33h129c123 0 173 -51 173 -125c0 -94 -85 -163 -288 -163c-152 0 -220 40 -220 102c0 47 40 80 111 89v5c-57 12 -85 48 -85 86c0 47 47 90 117 98
c-67 17 -108 57 -108 124c0 85 74 149 204 149c31 0 60 -3 85 -10c23 65 71 106 134 106c59 0 85 -35 85 -71c0 -35 -24 -62 -63 -62c-35 0 -57 23 -57 53c0 4 1 9 1 13c-20 -2 -40 -20 -54 -56c50 -25 78 -67 78 -123zM314 841l21 -47c-70 -32 -106 -68 -113 -115l7 -4
c7 8 19 16 37 16c35 0 63 -27 63 -69c0 -45 -34 -83 -83 -83c-57 0 -95 42 -95 111c0 88 52 152 163 191zM241 -107c100 0 142 26 142 63c0 25 -21 41 -79 41h-120c-55 0 -81 -21 -81 -49c0 -30 32 -55 138 -55zM249 228c44 0 63 31 63 98c0 63 -22 99 -68 99
c-45 0 -64 -32 -64 -99s23 -98 69 -98z" />
    <glyph glyph-name="Gdotaccent" unicode="&#x120;" horiz-adv-x="751" 
d="M536 91c-32 -61 -87 -107 -184 -107c-183 0 -316 140 -316 344c0 199 151 346 321 346c83 0 143 -30 183 -82l21 80h91v-256h-111c-38 120 -90 176 -167 176c-92 0 -160 -76 -160 -257c0 -165 55 -261 165 -261c44 0 72 19 92 44c22 26 32 70 32 118v18h-110v87h347v-87
h-76v-262h-90zM365 726c-50 0 -85 34 -85 79c0 46 36 82 85 82c51 0 86 -34 86 -79c0 -46 -36 -82 -86 -82z" />
    <glyph glyph-name="gdotaccent" unicode="&#x121;" horiz-adv-x="521" 
d="M453 329c0 -97 -72 -151 -202 -151c-20 0 -46 2 -64 2c-29 0 -48 -15 -48 -33c0 -21 19 -33 72 -33h129c123 0 173 -51 173 -125c0 -94 -85 -163 -288 -163c-152 0 -220 40 -220 102c0 47 40 80 111 89v5c-57 12 -85 48 -85 86c0 47 47 90 117 98
c-67 17 -108 57 -108 124c0 85 74 149 204 149c31 0 60 -3 85 -10c23 65 71 106 134 106c59 0 85 -35 85 -71c0 -35 -24 -62 -63 -62c-35 0 -57 23 -57 53c0 4 1 9 1 13c-20 -2 -40 -20 -54 -56c50 -25 78 -67 78 -123zM241 -107c100 0 142 26 142 63c0 25 -21 41 -79 41
h-120c-55 0 -81 -21 -81 -49c0 -30 32 -55 138 -55zM238 539c-50 0 -85 34 -85 79c0 46 36 82 85 82c51 0 86 -34 86 -79c0 -46 -36 -82 -86 -82zM249 228c44 0 63 31 63 98c0 63 -22 99 -68 99c-45 0 -64 -32 -64 -99s23 -98 69 -98z" />
    <glyph glyph-name="Hbar" unicode="&#x126;" horiz-adv-x="816" 
d="M27 430v78h90v63h-90v87h342v-87h-89v-69h257v69h-90v87h343v-87h-90v-63h90v-78h-90v-343h90v-87h-343v87h90v195h-257v-195h89v-87h-342v87h90v343h-90zM280 367h257v70h-257v-70z" />
    <glyph glyph-name="hbar" unicode="&#x127;" horiz-adv-x="623" 
d="M22 0v83h68v420h-68v65h68v37h-68v85h215v-122h117v-65h-117v-147c36 71 85 115 161 115c101 0 143 -68 143 -165v-223h67v-83h-267v83h53v203c0 32 -6 56 -21 71c-11 10 -26 16 -47 16c-46 0 -89 -47 -89 -114v-176h52v-83h-267z" />
    <glyph glyph-name="Iacute" unicode="&#xcd;" horiz-adv-x="423" 
d="M38 0v87h92v484h-92v87h347v-87h-92v-484h92v-87h-347zM169 729l44 116c23 59 43 100 91 100c35 0 63 -29 63 -60c0 -34 -21 -57 -58 -90l-75 -66h-65z" />
    <glyph glyph-name="iacute" unicode="&#xed;" horiz-adv-x="345" 
d="M120 535l44 116c23 59 43 100 91 100c35 0 63 -29 63 -60c0 -34 -21 -57 -58 -90l-75 -66h-65zM31 0v83h76v302h-76v83h222v-385h76v-83h-298z" />
    <glyph glyph-name="Ibreve" unicode="&#x12c;" horiz-adv-x="423" 
d="M38 0v87h92v484h-92v87h347v-87h-92v-484h92v-87h-347zM210 727c-98 0 -157 60 -155 184h69c9 -57 38 -85 87 -85c48 0 77 28 86 85h69c2 -124 -57 -184 -156 -184z" />
    <glyph glyph-name="ibreve" unicode="&#x12d;" horiz-adv-x="345" 
d="M31 0v83h76v302h-76v83h222v-385h76v-83h-298zM162 533c-98 0 -157 60 -155 184h69c9 -57 38 -85 87 -85c48 0 77 28 86 85h69c2 -124 -57 -184 -156 -184z" />
    <glyph glyph-name="Icircumflex" unicode="&#xce;" horiz-adv-x="423" 
d="M38 0v87h92v484h-92v87h347v-87h-92v-484h92v-87h-347zM47 729l124 197h81l122 -197h-85l-80 86l-77 -86h-85z" />
    <glyph glyph-name="icircumflex" unicode="&#xee;" horiz-adv-x="345" 
d="M-1 535l124 197h81l122 -197h-85l-80 86l-77 -86h-85zM31 0v83h76v302h-76v83h222v-385h76v-83h-298z" />
    <glyph glyph-name="Idieresis" unicode="&#xcf;" horiz-adv-x="423" 
d="M38 0v87h92v484h-92v87h347v-87h-92v-484h92v-87h-347zM311 732c-46 0 -78 32 -78 76c0 43 33 78 78 78c46 0 77 -33 77 -76s-32 -78 -77 -78zM110 732c-46 0 -78 32 -78 76c0 43 33 78 78 78c46 0 78 -33 78 -76s-32 -78 -78 -78z" />
    <glyph glyph-name="idieresis" unicode="&#xef;" horiz-adv-x="345" 
d="M263 538c-46 0 -78 32 -78 76c0 43 33 78 78 78c46 0 77 -33 77 -76s-32 -78 -77 -78zM62 538c-46 0 -78 32 -78 76c0 43 33 78 78 78c46 0 78 -33 78 -76s-32 -78 -78 -78zM31 0v83h76v302h-76v83h222v-385h76v-83h-298z" />
    <glyph glyph-name="Idotaccent" unicode="&#x130;" horiz-adv-x="423" 
d="M38 0v87h92v484h-92v87h347v-87h-92v-484h92v-87h-347zM210 726c-50 0 -85 34 -85 79c0 46 36 82 85 82c51 0 86 -34 86 -79c0 -46 -36 -82 -86 -82z" />
    <glyph glyph-name="dotlessi" unicode="&#x131;" horiz-adv-x="345" 
d="M31 0v83h76v302h-76v83h222v-385h76v-83h-298z" />
    <glyph glyph-name="Igrave" unicode="&#xcc;" horiz-adv-x="423" 
d="M38 0v87h92v484h-92v87h347v-87h-92v-484h92v-87h-347zM257 729h-65l-74 66c-38 33 -59 56 -59 90c0 31 28 60 63 60c48 0 68 -41 91 -100z" />
    <glyph glyph-name="igrave" unicode="&#xec;" horiz-adv-x="345" 
d="M31 0v83h76v302h-76v83h222v-385h76v-83h-298zM208 535h-65l-74 66c-38 33 -59 56 -59 90c0 31 28 60 63 60c48 0 68 -41 91 -100z" />
    <glyph glyph-name="Imacron" unicode="&#x12a;" horiz-adv-x="423" 
d="M38 0v87h92v484h-92v87h347v-87h-92v-484h92v-87h-347zM62 734v98h299v-98h-299z" />
    <glyph glyph-name="imacron" unicode="&#x12b;" horiz-adv-x="345" 
d="M31 0v83h76v302h-76v83h222v-385h76v-83h-298zM13 540v98h299v-98h-299z" />
    <glyph glyph-name="Iogonek" unicode="&#x12e;" horiz-adv-x="423" 
d="M38 0v87h92v484h-92v87h347v-87h-92v-484h92v-87h-99l-13 -12c-57 -52 -73 -82 -73 -112s19 -50 55 -50c21 0 40 8 59 19l24 -52c-34 -22 -77 -43 -128 -43c-81 0 -122 45 -122 100c0 62 39 99 106 147l4 3h-160z" />
    <glyph glyph-name="iogonek" unicode="&#x12f;" horiz-adv-x="345" 
d="M31 0v83h76v302h-76v83h222v-385h76v-83h-75l-13 -12c-57 -52 -73 -82 -73 -112s19 -50 55 -50c21 0 40 8 59 19l24 -52c-34 -22 -77 -43 -128 -43c-81 0 -122 45 -122 100c0 62 39 99 106 147l4 3h-135zM173 537c-54 0 -89 34 -89 83s36 87 89 87c54 0 90 -36 90 -84
c0 -49 -37 -86 -90 -86z" />
    <glyph glyph-name="Kcommaaccent" unicode="&#x136;" horiz-adv-x="751" 
d="M280 222v-136h81v-86h-334v87h90v484h-90v87h338v-86h-85v-246l246 246h-81v86h279v-87h-81l-174 -171l224 -313h71v-87h-334v86h74l-146 212zM309 -365l-21 47c70 32 106 68 113 115l-7 4c-7 -8 -19 -16 -37 -16c-35 0 -63 27 -63 69c0 45 34 83 83 83
c57 0 95 -42 95 -111c0 -88 -52 -152 -163 -191z" />
    <glyph glyph-name="kcommaaccent" unicode="&#x137;" horiz-adv-x="596" 
d="M494 385l-104 -94l154 -208h50v-83h-257v82h52l-92 131l-60 -54v-77h50v-82h-265v83h68v522h-68v85h215v-449l157 145h-74v82h244v-83h-70zM225 -365l-21 47c70 32 106 68 113 115l-7 4c-7 -8 -19 -16 -37 -16c-35 0 -63 27 -63 69c0 45 34 83 83 83c57 0 95 -42 95 -111
c0 -88 -52 -152 -163 -191z" />
    <glyph glyph-name="Lacute" unicode="&#x139;" horiz-adv-x="637" 
d="M160 729l44 116c23 59 43 100 91 100c35 0 63 -29 63 -60c0 -34 -21 -57 -58 -90l-75 -66h-65zM27 658h352v-85h-99v-488h112c79 0 96 20 139 187h79v-272h-583v87h90v484h-90v87z" />
    <glyph glyph-name="lacute" unicode="&#x13a;" horiz-adv-x="339" 
d="M112 757l44 116c23 59 43 100 91 100c35 0 63 -29 63 -60c0 -34 -21 -57 -58 -90l-75 -66h-65zM20 0v83h76v522h-76v85h223v-607h76v-83h-299z" />
    <glyph glyph-name="Lcaron" unicode="&#x13d;" horiz-adv-x="637" 
d="M497 495h-52c-8 99 -9 149 -9 162c-1 66 27 93 66 93c32 0 61 -25 61 -64c0 -24 -9 -48 -28 -92zM27 658h352v-85h-99v-488h112c79 0 96 20 139 187h79v-272h-583v87h90v484h-90v87z" />
    <glyph glyph-name="lcaron" unicode="&#x13e;" horiz-adv-x="339" 
d="M366 527h-52c-8 99 -9 149 -9 162c-1 66 27 93 66 93c32 0 61 -25 61 -64c0 -24 -9 -48 -28 -92zM20 0v83h76v522h-76v85h223v-607h76v-83h-299z" />
    <glyph glyph-name="Lcommaaccent" unicode="&#x13b;" horiz-adv-x="637" 
d="M254 -365l-21 47c70 32 106 68 113 115l-7 4c-7 -8 -19 -16 -37 -16c-35 0 -63 27 -63 69c0 45 34 83 83 83c57 0 95 -42 95 -111c0 -88 -52 -152 -163 -191zM27 658h352v-85h-99v-488h112c79 0 96 20 139 187h79v-272h-583v87h90v484h-90v87z" />
    <glyph glyph-name="lcommaaccent" unicode="&#x13c;" horiz-adv-x="339" 
d="M95 -365l-21 47c70 32 106 68 113 115l-7 4c-7 -8 -19 -16 -37 -16c-35 0 -63 27 -63 69c0 45 34 83 83 83c57 0 95 -42 95 -111c0 -88 -52 -152 -163 -191zM20 0v83h76v522h-76v85h223v-607h76v-83h-299z" />
    <glyph glyph-name="Ldot" unicode="&#x13f;" horiz-adv-x="637" 
d="M27 658h352v-85h-99v-488h112c79 0 96 19 139 162h79v-247h-583v87h90v484h-90v87zM498 306c-50 0 -83 33 -83 78c0 44 34 80 83 80c51 0 84 -33 84 -78c0 -44 -35 -80 -84 -80z" />
    <glyph glyph-name="ldot" unicode="&#x140;" horiz-adv-x="425" 
d="M382 268c-48 0 -81 33 -81 76c0 44 34 79 81 79c49 0 81 -33 81 -76c0 -44 -33 -79 -81 -79zM20 0v83h76v522h-76v85h223v-607h76v-83h-299z" />
    <glyph glyph-name="Lslash" unicode="&#x141;" horiz-adv-x="640" 
d="M30 658h352v-85h-99v-185l162 55v-81l-162 -56v-221h112c79 0 96 20 139 187h79v-272h-583v87h90v162l-83 -28v83l83 28v239h-90v87z" />
    <glyph glyph-name="lslash" unicode="&#x142;" horiz-adv-x="355" 
d="M28 0v83h76v209l-93 -29v72l93 29v241h-76v85h223v-279l95 31v-72l-95 -31v-256h76v-83h-299z" />
    <glyph glyph-name="Nacute" unicode="&#x143;" horiz-adv-x="786" 
d="M363 729l44 116c23 59 43 100 91 100c35 0 63 -29 63 -60c0 -34 -21 -57 -58 -90l-75 -66h-65zM521 -9l-309 510h-9v-414h90v-87h-265v87h86v484h-86v87h280l279 -460h9v373h-90v87h265v-87h-86v-580h-164z" />
    <glyph glyph-name="nacute" unicode="&#x144;" horiz-adv-x="630" 
d="M284 535l44 116c23 59 43 100 91 100c35 0 63 -29 63 -60c0 -34 -21 -57 -58 -90l-75 -66h-65zM29 0v83h69v302h-69v83h206v-123c33 79 84 133 170 133c101 0 143 -68 143 -165v-230h67v-83h-267v83h53v210c0 31 -6 56 -21 71c-11 10 -26 16 -46 16
c-47 0 -90 -47 -90 -114v-183h52v-83h-267z" />
    <glyph glyph-name="Ncaron" unicode="&#x147;" horiz-adv-x="786" 
d="M365 732l-122 197h85l80 -86l77 86h85l-124 -197h-81zM521 -9l-309 510h-9v-414h90v-87h-265v87h86v484h-86v87h280l279 -460h9v373h-90v87h265v-87h-86v-580h-164z" />
    <glyph glyph-name="ncaron" unicode="&#x148;" horiz-adv-x="630" 
d="M285 538l-122 197h85l80 -86l77 86h85l-124 -197h-81zM29 0v83h69v302h-69v83h206v-123c33 79 84 133 170 133c101 0 143 -68 143 -165v-230h67v-83h-267v83h53v210c0 31 -6 56 -21 71c-11 10 -26 16 -46 16c-47 0 -90 -47 -90 -114v-183h52v-83h-267z" />
    <glyph glyph-name="Ncommaaccent" unicode="&#x145;" horiz-adv-x="786" 
d="M313 -365l-21 47c70 32 106 68 113 115l-7 4c-7 -8 -19 -16 -37 -16c-35 0 -63 27 -63 69c0 45 34 83 83 83c57 0 95 -42 95 -111c0 -88 -52 -152 -163 -191zM521 -9l-309 510h-9v-414h90v-87h-265v87h86v484h-86v87h280l279 -460h9v373h-90v87h265v-87h-86v-580h-164z
" />
    <glyph glyph-name="ncommaaccent" unicode="&#x146;" horiz-adv-x="630" 
d="M248 -365l-21 47c70 32 106 68 113 115l-7 4c-7 -8 -19 -16 -37 -16c-35 0 -63 27 -63 69c0 45 34 83 83 83c57 0 95 -42 95 -111c0 -88 -52 -152 -163 -191zM29 0v83h69v302h-69v83h206v-123c33 79 84 133 170 133c101 0 143 -68 143 -165v-230h67v-83h-267v83h53v210
c0 31 -6 56 -21 71c-11 10 -26 16 -46 16c-47 0 -90 -47 -90 -114v-183h52v-83h-267z" />
    <glyph glyph-name="Ntilde" unicode="&#xd1;" horiz-adv-x="786" 
d="M521 -9l-309 510h-9v-414h90v-87h-265v87h86v484h-86v87h280l279 -460h9v373h-90v87h265v-87h-86v-580h-164zM223 726c9 107 35 161 112 161c59 0 115 -48 152 -48c19 0 27 15 34 54h66c-8 -107 -35 -161 -112 -161c-59 0 -115 48 -152 48c-18 0 -27 -15 -34 -54h-66z
" />
    <glyph glyph-name="ntilde" unicode="&#xf1;" horiz-adv-x="630" 
d="M29 0v83h69v302h-69v83h206v-123c33 79 84 133 170 133c101 0 143 -68 143 -165v-230h67v-83h-267v83h53v210c0 31 -6 56 -21 71c-11 10 -26 16 -46 16c-47 0 -90 -47 -90 -114v-183h52v-83h-267zM144 532c9 107 35 161 112 161c59 0 115 -48 152 -48c19 0 27 15 34 54
h66c-8 -107 -35 -161 -112 -161c-59 0 -115 48 -152 48c-18 0 -27 -15 -34 -54h-66z" />
    <glyph glyph-name="Oacute" unicode="&#xd3;" horiz-adv-x="748" 
d="M332 729l44 116c23 59 43 100 91 100c35 0 63 -29 63 -60c0 -34 -21 -57 -58 -90l-75 -66h-65zM374 -16c-196 0 -338 135 -338 344c0 206 147 346 338 346c196 0 338 -135 338 -344c0 -207 -147 -346 -338 -346zM377 66c106 0 157 81 157 263c0 181 -57 263 -163 263
s-157 -82 -157 -263c0 -182 57 -263 163 -263z" />
    <glyph glyph-name="oacute" unicode="&#xf3;" 
d="M238 535l44 116c23 59 43 100 91 100c35 0 63 -29 63 -60c0 -34 -21 -57 -58 -90l-75 -66h-65zM281 -10c-149 0 -253 97 -253 242c0 144 109 247 254 247c148 0 252 -98 252 -242c0 -145 -109 -247 -253 -247zM284 58c64 0 90 51 90 177s-31 176 -96 176
c-63 0 -90 -51 -90 -177c0 -127 32 -176 96 -176z" />
    <glyph glyph-name="Obreve" unicode="&#x14e;" horiz-adv-x="748" 
d="M374 -16c-196 0 -338 135 -338 344c0 206 147 346 338 346c196 0 338 -135 338 -344c0 -207 -147 -346 -338 -346zM377 66c106 0 157 81 157 263c0 181 -57 263 -163 263s-157 -82 -157 -263c0 -182 57 -263 163 -263zM373 727c-98 0 -157 60 -155 184h69
c9 -57 38 -85 87 -85c48 0 77 28 86 85h69c2 -124 -57 -184 -156 -184z" />
    <glyph glyph-name="obreve" unicode="&#x14f;" 
d="M281 -10c-149 0 -253 97 -253 242c0 144 109 247 254 247c148 0 252 -98 252 -242c0 -145 -109 -247 -253 -247zM284 58c64 0 90 51 90 177s-31 176 -96 176c-63 0 -90 -51 -90 -177c0 -127 32 -176 96 -176zM280 533c-98 0 -157 60 -155 184h69c9 -57 38 -85 87 -85
c48 0 77 28 86 85h69c2 -124 -57 -184 -156 -184z" />
    <glyph glyph-name="Ocircumflex" unicode="&#xd4;" horiz-adv-x="748" 
d="M210 729l124 197h81l122 -197h-85l-80 86l-77 -86h-85zM374 -16c-196 0 -338 135 -338 344c0 206 147 346 338 346c196 0 338 -135 338 -344c0 -207 -147 -346 -338 -346zM377 66c106 0 157 81 157 263c0 181 -57 263 -163 263s-157 -82 -157 -263
c0 -182 57 -263 163 -263z" />
    <glyph glyph-name="ocircumflex" unicode="&#xf4;" 
d="M117 535l124 197h81l122 -197h-85l-80 86l-77 -86h-85zM281 -10c-149 0 -253 97 -253 242c0 144 109 247 254 247c148 0 252 -98 252 -242c0 -145 -109 -247 -253 -247zM284 58c64 0 90 51 90 177s-31 176 -96 176c-63 0 -90 -51 -90 -177c0 -127 32 -176 96 -176z" />
    <glyph glyph-name="Odieresis" unicode="&#xd6;" horiz-adv-x="748" 
d="M474 732c-46 0 -78 32 -78 76c0 43 33 78 78 78c46 0 77 -33 77 -76s-32 -78 -77 -78zM273 732c-46 0 -78 32 -78 76c0 43 33 78 78 78c46 0 78 -33 78 -76s-32 -78 -78 -78zM374 -16c-196 0 -338 135 -338 344c0 206 147 346 338 346c196 0 338 -135 338 -344
c0 -207 -147 -346 -338 -346zM377 66c106 0 157 81 157 263c0 181 -57 263 -163 263s-157 -82 -157 -263c0 -182 57 -263 163 -263z" />
    <glyph glyph-name="odieresis" unicode="&#xf6;" 
d="M381 538c-46 0 -78 32 -78 76c0 43 33 78 78 78c46 0 77 -33 77 -76s-32 -78 -77 -78zM180 538c-46 0 -78 32 -78 76c0 43 33 78 78 78c46 0 78 -33 78 -76s-32 -78 -78 -78zM281 -10c-149 0 -253 97 -253 242c0 144 109 247 254 247c148 0 252 -98 252 -242
c0 -145 -109 -247 -253 -247zM284 58c64 0 90 51 90 177s-31 176 -96 176c-63 0 -90 -51 -90 -177c0 -127 32 -176 96 -176z" />
    <glyph glyph-name="OE" unicode="&#x152;" horiz-adv-x="1063" 
d="M429 0c-267 0 -393 130 -393 325c0 194 123 333 387 333h585v-234h-87c-25 125 -40 149 -124 149h-162v-199h54c56 0 61 11 75 92h78v-267h-78c-12 82 -20 94 -75 94h-54v-208h158c101 0 114 36 137 175h87v-260h-588zM421 85h51v488h-57c-146 0 -200 -63 -200 -247
c0 -174 57 -241 206 -241z" />
    <glyph glyph-name="oe" unicode="&#x153;" horiz-adv-x="872" 
d="M842 215h-318c5 -109 50 -145 124 -145c55 0 91 23 112 82h78c-20 -100 -85 -162 -203 -162c-87 0 -149 30 -185 83c-39 -53 -99 -83 -174 -83c-143 0 -248 97 -248 242c0 144 110 247 249 247c79 0 140 -31 178 -85c38 54 96 85 171 85c149 0 224 -112 216 -264zM284 58
c64 0 90 51 90 177s-31 176 -96 176c-63 0 -90 -51 -90 -177c0 -127 32 -176 96 -176zM614 411c-51 0 -83 -33 -89 -133h175c-5 95 -32 133 -86 133z" />
    <glyph glyph-name="Ograve" unicode="&#xd2;" horiz-adv-x="748" 
d="M374 -16c-196 0 -338 135 -338 344c0 206 147 346 338 346c196 0 338 -135 338 -344c0 -207 -147 -346 -338 -346zM377 66c106 0 157 81 157 263c0 181 -57 263 -163 263s-157 -82 -157 -263c0 -182 57 -263 163 -263zM420 729h-65l-74 66c-38 33 -59 56 -59 90
c0 31 28 60 63 60c48 0 68 -41 91 -100z" />
    <glyph glyph-name="ograve" unicode="&#xf2;" 
d="M281 -10c-149 0 -253 97 -253 242c0 144 109 247 254 247c148 0 252 -98 252 -242c0 -145 -109 -247 -253 -247zM284 58c64 0 90 51 90 177s-31 176 -96 176c-63 0 -90 -51 -90 -177c0 -127 32 -176 96 -176zM326 535h-65l-74 66c-38 33 -59 56 -59 90c0 31 28 60 63 60
c48 0 68 -41 91 -100z" />
    <glyph glyph-name="Ohungarumlaut" unicode="&#x150;" horiz-adv-x="748" 
d="M426 729l48 116c24 59 46 100 91 100c34 0 60 -28 60 -58c0 -33 -21 -57 -57 -90l-74 -68h-68zM253 729l42 116c21 59 39 100 86 100c35 0 60 -28 60 -58c0 -34 -18 -57 -53 -90l-72 -68h-63zM374 -16c-196 0 -338 135 -338 344c0 206 147 346 338 346
c196 0 338 -135 338 -344c0 -207 -147 -346 -338 -346zM377 66c106 0 157 81 157 263c0 181 -57 263 -163 263s-157 -82 -157 -263c0 -182 57 -263 163 -263z" />
    <glyph glyph-name="ohungarumlaut" unicode="&#x151;" 
d="M333 535l48 116c24 59 46 100 91 100c34 0 60 -28 60 -58c0 -33 -21 -57 -57 -90l-74 -68h-68zM160 535l42 116c21 59 39 100 86 100c35 0 60 -28 60 -58c0 -34 -18 -57 -53 -90l-72 -68h-63zM281 -10c-149 0 -253 97 -253 242c0 144 109 247 254 247
c148 0 252 -98 252 -242c0 -145 -109 -247 -253 -247zM284 58c64 0 90 51 90 177s-31 176 -96 176c-63 0 -90 -51 -90 -177c0 -127 32 -176 96 -176z" />
    <glyph glyph-name="Omacron" unicode="&#x14c;" horiz-adv-x="748" 
d="M225 734v98h299v-98h-299zM374 -16c-196 0 -338 135 -338 344c0 206 147 346 338 346c196 0 338 -135 338 -344c0 -207 -147 -346 -338 -346zM377 66c106 0 157 81 157 263c0 181 -57 263 -163 263s-157 -82 -157 -263c0 -182 57 -263 163 -263z" />
    <glyph glyph-name="omacron" unicode="&#x14d;" 
d="M131 540v98h299v-98h-299zM281 -10c-149 0 -253 97 -253 242c0 144 109 247 254 247c148 0 252 -98 252 -242c0 -145 -109 -247 -253 -247zM284 58c64 0 90 51 90 177s-31 176 -96 176c-63 0 -90 -51 -90 -177c0 -127 32 -176 96 -176z" />
    <glyph glyph-name="Oslash" unicode="&#xd8;" horiz-adv-x="748" 
d="M152 -34h-105l86 113c-61 60 -97 146 -97 249c0 206 147 346 334 346c67 0 128 -17 180 -46l46 64h105l-86 -114c61 -61 97 -146 97 -248c0 -207 -147 -346 -335 -346c-67 0 -128 16 -180 46zM213 329c0 -55 4 -100 13 -137l258 354c-27 32 -64 47 -113 47
c-107 0 -158 -82 -158 -264zM377 65c107 0 158 81 158 264c0 54 -4 99 -13 136l-258 -354c27 -32 64 -46 113 -46z" />
    <glyph glyph-name="oslash" unicode="&#xf8;" 
d="M115 -28h-88l70 87c-44 43 -69 104 -69 176c0 142 110 244 252 244c49 0 93 -11 130 -31l38 49h87l-70 -89c43 -43 69 -103 69 -174c0 -143 -109 -244 -252 -244c-49 0 -92 11 -129 30zM284 55c68 0 98 54 98 180c0 30 -2 55 -5 76l-168 -223c16 -24 41 -33 75 -33z
M181 234c0 -30 1 -55 4 -76l169 222c-17 24 -42 33 -76 33c-68 0 -97 -53 -97 -179z" />
    <glyph glyph-name="Oslashacute" unicode="&#x1fe;" horiz-adv-x="748" 
d="M152 -34h-105l86 113c-61 60 -97 146 -97 249c0 206 147 346 334 346c67 0 128 -17 180 -46l46 64h105l-86 -114c61 -61 97 -146 97 -248c0 -207 -147 -346 -335 -346c-67 0 -128 16 -180 46zM213 329c0 -55 4 -100 13 -137l258 354c-27 32 -64 47 -113 47
c-107 0 -158 -82 -158 -264zM377 65c107 0 158 81 158 264c0 54 -4 99 -13 136l-258 -354c27 -32 64 -46 113 -46zM332 729l44 116c23 59 43 100 91 100c35 0 63 -29 63 -60c0 -34 -21 -57 -58 -90l-75 -66h-65z" />
    <glyph glyph-name="oslashacute" unicode="&#x1ff;" 
d="M115 -28h-88l70 87c-44 43 -69 104 -69 176c0 142 110 244 252 244c49 0 93 -11 130 -31l38 49h87l-70 -89c43 -43 69 -103 69 -174c0 -143 -109 -244 -252 -244c-49 0 -92 11 -129 30zM238 535l44 116c23 59 43 100 91 100c35 0 63 -29 63 -60c0 -34 -21 -57 -58 -90
l-75 -66h-65zM284 55c68 0 98 54 98 180c0 30 -2 55 -5 76l-168 -223c16 -24 41 -33 75 -33zM181 234c0 -30 1 -55 4 -76l169 222c-17 24 -42 33 -76 33c-68 0 -97 -53 -97 -179z" />
    <glyph glyph-name="Otilde" unicode="&#xd5;" horiz-adv-x="748" 
d="M374 -16c-196 0 -338 135 -338 344c0 206 147 346 338 346c196 0 338 -135 338 -344c0 -207 -147 -346 -338 -346zM377 66c106 0 157 81 157 263c0 181 -57 263 -163 263s-157 -82 -157 -263c0 -182 57 -263 163 -263zM192 726c9 107 35 161 112 161
c59 0 115 -48 152 -48c19 0 27 15 34 54h66c-8 -107 -35 -161 -112 -161c-59 0 -115 48 -152 48c-18 0 -27 -15 -34 -54h-66z" />
    <glyph glyph-name="otilde" unicode="&#xf5;" 
d="M281 -10c-149 0 -253 97 -253 242c0 144 109 247 254 247c148 0 252 -98 252 -242c0 -145 -109 -247 -253 -247zM284 58c64 0 90 51 90 177s-31 176 -96 176c-63 0 -90 -51 -90 -177c0 -127 32 -176 96 -176zM99 532c9 107 35 161 112 161c59 0 115 -48 152 -48
c19 0 27 15 34 54h66c-8 -107 -35 -161 -112 -161c-59 0 -115 48 -152 48c-18 0 -27 -15 -34 -54h-66z" />
    <glyph glyph-name="Racute" unicode="&#x154;" horiz-adv-x="728" 
d="M325 729l44 116c23 59 43 100 91 100c35 0 63 -29 63 -60c0 -34 -21 -57 -58 -90l-75 -66h-65zM280 287v-200h93v-87h-346v87h90v484h-90v87h361c199 0 266 -84 266 -167c0 -79 -49 -144 -204 -162v-7c126 -11 167 -67 170 -145l3 -39c2 -43 11 -53 31 -53
c14 0 26 14 40 59l59 -19c-19 -79 -59 -139 -149 -139c-103 0 -149 54 -149 164l-1 34c-1 73 -18 103 -92 103h-82zM280 368h87c78 0 112 30 112 106c0 68 -23 101 -109 101h-90v-207z" />
    <glyph glyph-name="racute" unicode="&#x155;" horiz-adv-x="479" 
d="M216 535l44 116c23 59 43 100 91 100c35 0 63 -29 63 -60c0 -34 -21 -57 -58 -90l-75 -66h-65zM29 0v83h69v302h-69v83h206v-120c28 87 82 130 146 130c58 0 95 -43 95 -92c0 -50 -35 -86 -78 -86c-44 0 -78 25 -78 71c0 2 1 5 1 8c-27 -2 -60 -32 -77 -90v-206h87v-83
h-302z" />
    <glyph glyph-name="Rcaron" unicode="&#x158;" horiz-adv-x="728" 
d="M327 732l-122 197h85l80 -86l77 86h85l-124 -197h-81zM280 287v-200h93v-87h-346v87h90v484h-90v87h361c199 0 266 -84 266 -167c0 -79 -49 -144 -204 -162v-7c126 -11 167 -67 170 -145l3 -39c2 -43 11 -53 31 -53c14 0 26 14 40 59l59 -19c-19 -79 -59 -139 -149 -139
c-103 0 -149 54 -149 164l-1 34c-1 73 -18 103 -92 103h-82zM280 368h87c78 0 112 30 112 106c0 68 -23 101 -109 101h-90v-207z" />
    <glyph glyph-name="rcaron" unicode="&#x159;" horiz-adv-x="479" 
d="M217 538l-122 197h85l80 -86l77 86h85l-124 -197h-81zM29 0v83h69v302h-69v83h206v-120c28 87 82 130 146 130c58 0 95 -43 95 -92c0 -50 -35 -86 -78 -86c-44 0 -78 25 -78 71c0 2 1 5 1 8c-27 -2 -60 -32 -77 -90v-206h87v-83h-302z" />
    <glyph glyph-name="Rcommaaccent" unicode="&#x156;" horiz-adv-x="728" 
d="M297 -365l-21 47c70 32 106 68 113 115l-7 4c-7 -8 -19 -16 -37 -16c-35 0 -63 27 -63 69c0 45 34 83 83 83c57 0 95 -42 95 -111c0 -88 -52 -152 -163 -191zM280 287v-200h93v-87h-346v87h90v484h-90v87h361c199 0 266 -84 266 -167c0 -79 -49 -144 -204 -162v-7
c126 -11 167 -67 170 -145l3 -39c2 -43 11 -53 31 -53c14 0 26 14 40 59l59 -19c-19 -79 -59 -139 -149 -139c-103 0 -149 54 -149 164l-1 34c-1 73 -18 103 -92 103h-82zM280 368h87c78 0 112 30 112 106c0 68 -23 101 -109 101h-90v-207z" />
    <glyph glyph-name="rcommaaccent" unicode="&#x157;" horiz-adv-x="479" 
d="M103 -365l-21 47c70 32 106 68 113 115l-7 4c-7 -8 -19 -16 -37 -16c-35 0 -63 27 -63 69c0 45 34 83 83 83c57 0 95 -42 95 -111c0 -88 -52 -152 -163 -191zM29 0v83h69v302h-69v83h206v-120c28 87 82 130 146 130c58 0 95 -43 95 -92c0 -50 -35 -86 -78 -86
c-44 0 -78 25 -78 71c0 2 1 5 1 8c-27 -2 -60 -32 -77 -90v-206h87v-83h-302z" />
    <glyph glyph-name="Sacute" unicode="&#x15a;" horiz-adv-x="618" 
d="M270 729l44 116c23 59 43 100 91 100c35 0 63 -29 63 -60c0 -34 -21 -57 -58 -90l-75 -66h-65zM45 -14v244h88c43 -112 98 -163 204 -163c71 0 111 35 111 87c0 61 -67 76 -167 101c-108 26 -230 63 -230 210c0 122 103 209 231 209c72 0 134 -27 168 -73l21 71h88v-234
h-88c-42 109 -91 153 -176 153c-67 0 -103 -39 -103 -84c0 -66 73 -81 172 -105c107 -26 225 -61 225 -204c0 -125 -99 -214 -242 -214c-82 0 -154 34 -191 80l-24 -78h-87z" />
    <glyph glyph-name="sacute" unicode="&#x15b;" horiz-adv-x="483" 
d="M202 535l44 116c23 59 43 100 91 100c35 0 63 -29 63 -60c0 -34 -21 -57 -58 -90l-75 -66h-65zM35 -9v172h77c41 -63 98 -106 155 -106c42 0 61 19 61 48c0 36 -26 50 -119 74c-112 29 -167 65 -167 149c0 82 66 151 170 151c61 0 105 -23 134 -58l16 56h78v-160h-77
c-36 56 -84 95 -134 95c-39 0 -59 -18 -59 -45c0 -34 27 -47 116 -70c102 -27 171 -60 171 -153c0 -81 -63 -154 -177 -154c-73 0 -122 30 -152 64l-16 -63h-77z" />
    <glyph glyph-name="Scaron" unicode="&#x160;" horiz-adv-x="618" 
d="M272 732l-122 197h85l80 -86l77 86h85l-124 -197h-81zM45 -14v244h88c43 -112 98 -163 204 -163c71 0 111 35 111 87c0 61 -67 76 -167 101c-108 26 -230 63 -230 210c0 122 103 209 231 209c72 0 134 -27 168 -73l21 71h88v-234h-88c-42 109 -91 153 -176 153
c-67 0 -103 -39 -103 -84c0 -66 73 -81 172 -105c107 -26 225 -61 225 -204c0 -125 -99 -214 -242 -214c-82 0 -154 34 -191 80l-24 -78h-87z" />
    <glyph glyph-name="scaron" unicode="&#x161;" horiz-adv-x="483" 
d="M204 538l-122 197h85l80 -86l77 86h85l-124 -197h-81zM35 -9v172h77c41 -63 98 -106 155 -106c42 0 61 19 61 48c0 36 -26 50 -119 74c-112 29 -167 65 -167 149c0 82 66 151 170 151c61 0 105 -23 134 -58l16 56h78v-160h-77c-36 56 -84 95 -134 95
c-39 0 -59 -18 -59 -45c0 -34 27 -47 116 -70c102 -27 171 -60 171 -153c0 -81 -63 -154 -177 -154c-73 0 -122 30 -152 64l-16 -63h-77z" />
    <glyph glyph-name="Scedilla" unicode="&#x15e;" horiz-adv-x="618" 
d="M297 -249c-45 0 -94 10 -133 32l29 49c25 -12 57 -20 86 -20c32 0 48 11 48 28c0 21 -26 36 -77 36c-8 0 -16 -1 -27 -3l-23 42l88 75c-57 11 -104 39 -132 74l-24 -78h-87v244h88c43 -112 98 -163 204 -163c71 0 111 35 111 87c0 61 -67 76 -167 101
c-108 26 -230 63 -230 210c0 122 103 209 231 209c72 0 134 -27 168 -73l21 71h88v-234h-88c-42 109 -91 153 -176 153c-67 0 -103 -39 -103 -84c0 -66 73 -81 172 -105c107 -26 225 -61 225 -204c0 -122 -94 -209 -231 -214l-42 -43l1 -4c79 -9 114 -45 114 -88
c0 -60 -49 -98 -134 -98z" />
    <glyph glyph-name="scedilla" unicode="&#x15f;" horiz-adv-x="483" 
d="M226 -249c-45 0 -94 10 -133 32l29 49c25 -12 57 -20 86 -20c32 0 48 11 48 28c0 21 -26 36 -77 36c-8 0 -16 -1 -27 -3l-23 42l96 81c-44 10 -75 33 -97 58l-16 -63h-77v172h77c41 -63 98 -106 155 -106c42 0 61 19 61 48c0 36 -26 50 -119 74c-112 29 -167 65 -167 149
c0 82 66 151 170 151c61 0 105 -23 134 -58l16 56h78v-160h-77c-36 56 -84 95 -134 95c-39 0 -59 -18 -59 -45c0 -34 27 -47 116 -70c102 -27 171 -60 171 -153c0 -78 -58 -148 -164 -153l-48 -50l1 -4c79 -9 114 -45 114 -88c0 -60 -49 -98 -134 -98z" />
    <glyph glyph-name="Scommaaccent" unicode="&#x218;" horiz-adv-x="618" 
d="M238 -365l-21 47c70 32 106 68 113 115l-7 4c-7 -8 -19 -16 -37 -16c-35 0 -63 27 -63 69c0 45 34 83 83 83c57 0 95 -42 95 -111c0 -88 -52 -152 -163 -191zM45 -14v244h88c43 -112 98 -163 204 -163c71 0 111 35 111 87c0 61 -67 76 -167 101c-108 26 -230 63 -230 210
c0 122 103 209 231 209c72 0 134 -27 168 -73l21 71h88v-234h-88c-42 109 -91 153 -176 153c-67 0 -103 -39 -103 -84c0 -66 73 -81 172 -105c107 -26 225 -61 225 -204c0 -125 -99 -214 -242 -214c-82 0 -154 34 -191 80l-24 -78h-87z" />
    <glyph glyph-name="scommaaccent" unicode="&#x219;" horiz-adv-x="483" 
d="M170 -365l-21 47c70 32 106 68 113 115l-7 4c-7 -8 -19 -16 -37 -16c-35 0 -63 27 -63 69c0 45 34 83 83 83c57 0 95 -42 95 -111c0 -88 -52 -152 -163 -191zM35 -9v172h77c41 -63 98 -106 155 -106c42 0 61 19 61 48c0 36 -26 50 -119 74c-112 29 -167 65 -167 149
c0 82 66 151 170 151c61 0 105 -23 134 -58l16 56h78v-160h-77c-36 56 -84 95 -134 95c-39 0 -59 -18 -59 -45c0 -34 27 -47 116 -70c102 -27 171 -60 171 -153c0 -81 -63 -154 -177 -154c-73 0 -122 30 -152 64l-16 -63h-77z" />
    <glyph glyph-name="Tcaron" unicode="&#x164;" horiz-adv-x="698" 
d="M309 732l-122 197h85l80 -86l77 86h85l-124 -197h-81zM164 0v87h103v496h-25c-81 0 -98 -27 -135 -190h-79v265h642v-265h-79c-37 163 -54 190 -135 190h-25v-496h103v-87h-370z" />
    <glyph glyph-name="tcaron" unicode="&#x165;" horiz-adv-x="414" 
d="M353 527h-52c-8 99 -9 149 -9 162c-1 66 27 93 66 93c32 0 61 -25 61 -64c0 -24 -9 -48 -28 -92zM90 573l143 17v-127h150v-78h-150v-236c0 -43 15 -67 49 -67c30 0 44 23 62 88l60 -17c-22 -114 -71 -163 -165 -163c-102 0 -152 53 -152 160v235h-83v78h86v110z" />
    <glyph glyph-name="Tcommaaccent" unicode="&#x162;" horiz-adv-x="698" 
d="M275 -365l-21 47c70 32 106 68 113 115l-7 4c-7 -8 -19 -16 -37 -16c-35 0 -63 27 -63 69c0 45 34 83 83 83c57 0 95 -42 95 -111c0 -88 -52 -152 -163 -191zM164 0v87h103v496h-25c-81 0 -98 -27 -135 -190h-79v265h642v-265h-79c-37 163 -54 190 -135 190h-25v-496h103
v-87h-370z" />
    <glyph glyph-name="tcommaaccent" unicode="&#x163;" horiz-adv-x="414" 
d="M143 -365l-21 47c70 32 106 68 113 115l-7 4c-7 -8 -19 -16 -37 -16c-35 0 -63 27 -63 69c0 45 34 83 83 83c57 0 95 -42 95 -111c0 -88 -52 -152 -163 -191zM90 573l143 17v-127h150v-78h-150v-236c0 -43 15 -67 49 -67c30 0 44 23 62 88l60 -17
c-22 -114 -71 -163 -165 -163c-102 0 -152 53 -152 160v235h-83v78h86v110z" />
    <glyph glyph-name="Thorn" unicode="&#xde;" horiz-adv-x="670" 
d="M27 0v87h90v484h-90v87h345v-87h-92v-52h78c209 0 287 -76 287 -183c0 -110 -75 -188 -284 -188h-81v-61h92v-87h-345zM280 232h63c95 0 128 33 128 104c0 65 -29 99 -128 99h-63v-203z" />
    <glyph glyph-name="thorn" unicode="&#xfe;" horiz-adv-x="580" 
d="M3 -161v83h68v683h-68v85h215v-315c29 62 78 104 149 104c53 0 90 -19 119 -48c43 -43 64 -113 64 -196c0 -72 -24 -142 -67 -186c-31 -31 -74 -49 -123 -49c-69 0 -118 32 -142 77v-155h86v-83h-301zM312 78c55 0 81 56 81 158c0 97 -26 150 -84 150
c-64 0 -100 -69 -100 -156c0 -89 37 -152 103 -152z" />
    <glyph glyph-name="Uacute" unicode="&#xda;" horiz-adv-x="752" 
d="M364 729l44 116c23 59 43 100 91 100c35 0 63 -29 63 -60c0 -34 -21 -57 -58 -90l-75 -66h-65zM389 -16c-193 0 -287 92 -287 242v345h-85v87h340v-87h-92v-322c0 -123 54 -165 153 -165c47 0 80 13 106 39c29 29 41 75 41 146v302h-88v87h263v-87h-82v-340
c0 -134 -84 -247 -269 -247z" />
    <glyph glyph-name="uacute" unicode="&#xfa;" horiz-adv-x="619" 
d="M254 535l44 116c23 59 43 100 91 100c35 0 63 -29 63 -60c0 -34 -21 -57 -58 -90l-75 -66h-65zM224 -9c-99 0 -140 68 -140 164v230h-68v83h214v-293c0 -31 6 -55 21 -71c9 -9 24 -16 45 -16c45 0 88 47 88 115v182h-69v83h215v-385h68v-83h-205v123
c-33 -78 -84 -132 -169 -132z" />
    <glyph glyph-name="Ubreve" unicode="&#x16c;" horiz-adv-x="752" 
d="M389 -16c-193 0 -287 92 -287 242v345h-85v87h340v-87h-92v-322c0 -123 54 -165 153 -165c47 0 80 13 106 39c29 29 41 75 41 146v302h-88v87h263v-87h-82v-340c0 -134 -84 -247 -269 -247zM406 727c-98 0 -157 60 -155 184h69c9 -57 38 -85 87 -85c48 0 77 28 86 85h69
c2 -124 -57 -184 -156 -184z" />
    <glyph glyph-name="ubreve" unicode="&#x16d;" horiz-adv-x="619" 
d="M224 -9c-99 0 -140 68 -140 164v230h-68v83h214v-293c0 -31 6 -55 21 -71c9 -9 24 -16 45 -16c45 0 88 47 88 115v182h-69v83h215v-385h68v-83h-205v123c-33 -78 -84 -132 -169 -132zM295 533c-98 0 -157 60 -155 184h69c9 -57 38 -85 87 -85c48 0 77 28 86 85h69
c2 -124 -57 -184 -156 -184z" />
    <glyph glyph-name="Ucircumflex" unicode="&#xdb;" horiz-adv-x="752" 
d="M243 729l124 197h81l122 -197h-85l-80 86l-77 -86h-85zM389 -16c-193 0 -287 92 -287 242v345h-85v87h340v-87h-92v-322c0 -123 54 -165 153 -165c47 0 80 13 106 39c29 29 41 75 41 146v302h-88v87h263v-87h-82v-340c0 -134 -84 -247 -269 -247z" />
    <glyph glyph-name="ucircumflex" unicode="&#xfb;" horiz-adv-x="619" 
d="M132 535l124 197h81l122 -197h-85l-80 86l-77 -86h-85zM224 -9c-99 0 -140 68 -140 164v230h-68v83h214v-293c0 -31 6 -55 21 -71c9 -9 24 -16 45 -16c45 0 88 47 88 115v182h-69v83h215v-385h68v-83h-205v123c-33 -78 -84 -132 -169 -132z" />
    <glyph glyph-name="Udieresis" unicode="&#xdc;" horiz-adv-x="752" 
d="M507 732c-46 0 -78 32 -78 76c0 43 33 78 78 78c46 0 77 -33 77 -76s-32 -78 -77 -78zM306 732c-46 0 -78 32 -78 76c0 43 33 78 78 78c46 0 78 -33 78 -76s-32 -78 -78 -78zM389 -16c-193 0 -287 92 -287 242v345h-85v87h340v-87h-92v-322c0 -123 54 -165 153 -165
c47 0 80 13 106 39c29 29 41 75 41 146v302h-88v87h263v-87h-82v-340c0 -134 -84 -247 -269 -247z" />
    <glyph glyph-name="udieresis" unicode="&#xfc;" horiz-adv-x="619" 
d="M396 538c-46 0 -78 32 -78 76c0 43 33 78 78 78c46 0 77 -33 77 -76s-32 -78 -77 -78zM195 538c-46 0 -78 32 -78 76c0 43 33 78 78 78c46 0 78 -33 78 -76s-32 -78 -78 -78zM224 -9c-99 0 -140 68 -140 164v230h-68v83h214v-293c0 -31 6 -55 21 -71c9 -9 24 -16 45 -16
c45 0 88 47 88 115v182h-69v83h215v-385h68v-83h-205v123c-33 -78 -84 -132 -169 -132z" />
    <glyph glyph-name="Ugrave" unicode="&#xd9;" horiz-adv-x="752" 
d="M389 -16c-193 0 -287 92 -287 242v345h-85v87h340v-87h-92v-322c0 -123 54 -165 153 -165c47 0 80 13 106 39c29 29 41 75 41 146v302h-88v87h263v-87h-82v-340c0 -134 -84 -247 -269 -247zM452 729h-65l-74 66c-38 33 -59 56 -59 90c0 31 28 60 63 60
c48 0 68 -41 91 -100z" />
    <glyph glyph-name="ugrave" unicode="&#xf9;" horiz-adv-x="619" 
d="M224 -9c-99 0 -140 68 -140 164v230h-68v83h214v-293c0 -31 6 -55 21 -71c9 -9 24 -16 45 -16c45 0 88 47 88 115v182h-69v83h215v-385h68v-83h-205v123c-33 -78 -84 -132 -169 -132zM342 535h-65l-74 66c-38 33 -59 56 -59 90c0 31 28 60 63 60c48 0 68 -41 91 -100z
" />
    <glyph glyph-name="Uhungarumlaut" unicode="&#x170;" horiz-adv-x="752" 
d="M389 -16c-193 0 -287 92 -287 242v345h-85v87h340v-87h-92v-322c0 -123 54 -165 153 -165c47 0 80 13 106 39c29 29 41 75 41 146v302h-88v87h263v-87h-82v-340c0 -134 -84 -247 -269 -247zM459 729l48 116c24 59 46 100 91 100c34 0 60 -28 60 -58
c0 -33 -21 -57 -57 -90l-74 -68h-68zM286 729l42 116c21 59 39 100 86 100c35 0 60 -28 60 -58c0 -34 -18 -57 -53 -90l-72 -68h-63z" />
    <glyph glyph-name="uhungarumlaut" unicode="&#x171;" horiz-adv-x="619" 
d="M224 -9c-99 0 -140 68 -140 164v230h-68v83h214v-293c0 -31 6 -55 21 -71c9 -9 24 -16 45 -16c45 0 88 47 88 115v182h-69v83h215v-385h68v-83h-205v123c-33 -78 -84 -132 -169 -132zM348 535l48 116c24 59 46 100 91 100c34 0 60 -28 60 -58c0 -33 -21 -57 -57 -90
l-74 -68h-68zM175 535l42 116c21 59 39 100 86 100c35 0 60 -28 60 -58c0 -34 -18 -57 -53 -90l-72 -68h-63z" />
    <glyph glyph-name="Umacron" unicode="&#x16a;" horiz-adv-x="752" 
d="M389 -16c-193 0 -287 92 -287 242v345h-85v87h340v-87h-92v-322c0 -123 54 -165 153 -165c47 0 80 13 106 39c29 29 41 75 41 146v302h-88v87h263v-87h-82v-340c0 -134 -84 -247 -269 -247zM257 734v98h299v-98h-299z" />
    <glyph glyph-name="umacron" unicode="&#x16b;" horiz-adv-x="619" 
d="M224 -9c-99 0 -140 68 -140 164v230h-68v83h214v-293c0 -31 6 -55 21 -71c9 -9 24 -16 45 -16c45 0 88 47 88 115v182h-69v83h215v-385h68v-83h-205v123c-33 -78 -84 -132 -169 -132zM147 540v98h299v-98h-299z" />
    <glyph glyph-name="Uogonek" unicode="&#x172;" horiz-adv-x="752" 
d="M384 -250c-81 0 -122 45 -122 100c0 57 32 93 89 135c-167 12 -249 101 -249 241v345h-85v87h340v-87h-92v-322c0 -123 54 -165 153 -165c47 0 80 13 106 39c29 29 41 75 41 146v302h-88v87h263v-87h-82v-340c0 -119 -67 -222 -211 -243c-57 -52 -73 -82 -73 -112
s19 -50 55 -50c21 0 40 8 59 19l24 -52c-34 -22 -77 -43 -128 -43z" />
    <glyph glyph-name="uogonek" unicode="&#x173;" horiz-adv-x="619" 
d="M224 -9c-99 0 -140 68 -140 164v230h-68v83h214v-293c0 -31 6 -55 21 -71c9 -9 24 -16 45 -16c45 0 88 47 88 115v182h-69v83h215v-385h68v-83h-38l-13 -12c-57 -52 -73 -82 -73 -112s19 -50 55 -50c21 0 40 8 59 19l24 -52c-34 -22 -77 -43 -128 -43
c-81 0 -122 45 -122 100c0 62 39 99 106 147l4 3h-79v123c-33 -78 -84 -132 -169 -132z" />
    <glyph glyph-name="Uring" unicode="&#x16e;" horiz-adv-x="752" 
d="M407 723c-84 0 -130 53 -130 115s48 117 130 117s129 -53 129 -115s-48 -117 -129 -117zM408 773c30 0 51 24 51 66c0 43 -22 66 -54 66c-29 0 -51 -23 -51 -65c0 -43 23 -67 54 -67zM389 -16c-193 0 -287 92 -287 242v345h-85v87h340v-87h-92v-322
c0 -123 54 -165 153 -165c47 0 80 13 106 39c29 29 41 75 41 146v302h-88v87h263v-87h-82v-340c0 -134 -84 -247 -269 -247z" />
    <glyph glyph-name="uring" unicode="&#x16f;" horiz-adv-x="619" 
d="M296 529c-84 0 -130 53 -130 115s48 117 130 117s129 -53 129 -115s-48 -117 -129 -117zM297 579c30 0 51 24 51 66c0 43 -22 66 -54 66c-29 0 -51 -23 -51 -65c0 -43 23 -67 54 -67zM224 -9c-99 0 -140 68 -140 164v230h-68v83h214v-293c0 -31 6 -55 21 -71
c9 -9 24 -16 45 -16c45 0 88 47 88 115v182h-69v83h215v-385h68v-83h-205v123c-33 -78 -84 -132 -169 -132z" />
    <glyph glyph-name="Wacute" unicode="&#x1e82;" horiz-adv-x="1066" 
d="M742 572h-85l114 -416h8l116 416h-82v86h255v-87h-76l-178 -575h-158l-108 367l-133 -367h-156l-172 575h-83v87h340v-86h-80l116 -418h8l121 333l-25 85h-74v86h332v-86zM530 729l44 116c23 59 43 100 91 100c35 0 63 -29 63 -60c0 -34 -21 -57 -58 -90l-75 -66h-65z
" />
    <glyph glyph-name="wacute" unicode="&#x1e83;" horiz-adv-x="844" 
d="M590 386h-61l83 -277h4l76 277h-54v82h203v-83h-61l-120 -389h-151l-79 240l-86 -240h-153l-121 389h-61v83h271v-82h-58l79 -277h4l86 240l-12 37h-53v82h264v-82zM412 535l44 116c23 59 43 100 91 100c35 0 63 -29 63 -60c0 -34 -21 -57 -58 -90l-75 -66h-65z" />
    <glyph glyph-name="Wcircumflex" unicode="&#x174;" horiz-adv-x="1066" 
d="M742 572h-85l114 -416h8l116 416h-82v86h255v-87h-76l-178 -575h-158l-108 367l-133 -367h-156l-172 575h-83v87h340v-86h-80l116 -418h8l121 333l-25 85h-74v86h332v-86zM409 729l124 197h81l122 -197h-85l-80 86l-77 -86h-85z" />
    <glyph glyph-name="wcircumflex" unicode="&#x175;" horiz-adv-x="844" 
d="M590 386h-61l83 -277h4l76 277h-54v82h203v-83h-61l-120 -389h-151l-79 240l-86 -240h-153l-121 389h-61v83h271v-82h-58l79 -277h4l86 240l-12 37h-53v82h264v-82zM291 535l124 197h81l122 -197h-85l-80 86l-77 -86h-85z" />
    <glyph glyph-name="Wdieresis" unicode="&#x1e84;" horiz-adv-x="1066" 
d="M742 572h-85l114 -416h8l116 416h-82v86h255v-87h-76l-178 -575h-158l-108 367l-133 -367h-156l-172 575h-83v87h340v-86h-80l116 -418h8l121 333l-25 85h-74v86h332v-86zM472 732c-46 0 -78 32 -78 76c0 43 33 78 78 78c46 0 78 -33 78 -76s-32 -78 -78 -78zM673 732
c-46 0 -78 32 -78 76c0 43 33 78 78 78c46 0 77 -33 77 -76s-32 -78 -77 -78z" />
    <glyph glyph-name="wdieresis" unicode="&#x1e85;" horiz-adv-x="844" 
d="M590 386h-61l83 -277h4l76 277h-54v82h203v-83h-61l-120 -389h-151l-79 240l-86 -240h-153l-121 389h-61v83h271v-82h-58l79 -277h4l86 240l-12 37h-53v82h264v-82zM354 538c-46 0 -78 32 -78 76c0 43 33 78 78 78c46 0 78 -33 78 -76s-32 -78 -78 -78zM555 538
c-46 0 -78 32 -78 76c0 43 33 78 78 78c46 0 77 -33 77 -76s-32 -78 -77 -78z" />
    <glyph glyph-name="Wgrave" unicode="&#x1e80;" horiz-adv-x="1066" 
d="M742 572h-85l114 -416h8l116 416h-82v86h255v-87h-76l-178 -575h-158l-108 367l-133 -367h-156l-172 575h-83v87h340v-86h-80l116 -418h8l121 333l-25 85h-74v86h332v-86zM618 729h-65l-74 66c-38 33 -59 56 -59 90c0 31 28 60 63 60c48 0 68 -41 91 -100z" />
    <glyph glyph-name="wgrave" unicode="&#x1e81;" horiz-adv-x="844" 
d="M590 386h-61l83 -277h4l76 277h-54v82h203v-83h-61l-120 -389h-151l-79 240l-86 -240h-153l-121 389h-61v83h271v-82h-58l79 -277h4l86 240l-12 37h-53v82h264v-82zM500 535h-65l-74 66c-38 33 -59 56 -59 90c0 31 28 60 63 60c48 0 68 -41 91 -100z" />
    <glyph glyph-name="Yacute" unicode="&#xdd;" horiz-adv-x="676" 
d="M385 361l125 211h-79v86h254v-87h-73l-187 -297v-187h89v-87h-341v87h89v177l-190 307h-69v87h336v-86h-75zM327 729l44 116c23 59 43 100 91 100c35 0 63 -29 63 -60c0 -34 -21 -57 -58 -90l-75 -66h-65z" />
    <glyph glyph-name="yacute" unicode="&#xfd;" 
d="M89 14c51 0 75 -40 75 -79c0 -13 -3 -27 -8 -37c41 5 66 24 95 94l-188 393h-62v83h293v-83h-71l105 -245l94 245h-59v83h205v-83h-57l-160 -372c-48 -113 -102 -187 -210 -187c-85 0 -129 44 -129 104c0 47 31 84 77 84zM259 535l44 116c23 59 43 100 91 100
c35 0 63 -29 63 -60c0 -34 -21 -57 -58 -90l-75 -66h-65z" />
    <glyph glyph-name="Ycircumflex" unicode="&#x176;" horiz-adv-x="676" 
d="M385 361l125 211h-79v86h254v-87h-73l-187 -297v-187h89v-87h-341v87h89v177l-190 307h-69v87h336v-86h-75zM206 729l124 197h81l122 -197h-85l-80 86l-77 -86h-85z" />
    <glyph glyph-name="ycircumflex" unicode="&#x177;" 
d="M89 14c51 0 75 -40 75 -79c0 -13 -3 -27 -8 -37c41 5 66 24 95 94l-188 393h-62v83h293v-83h-71l105 -245l94 245h-59v83h205v-83h-57l-160 -372c-48 -113 -102 -187 -210 -187c-85 0 -129 44 -129 104c0 47 31 84 77 84zM138 535l124 197h81l122 -197h-85l-80 86
l-77 -86h-85z" />
    <glyph glyph-name="Ydieresis" unicode="&#x178;" horiz-adv-x="676" 
d="M385 361l125 211h-79v86h254v-87h-73l-187 -297v-187h89v-87h-341v87h89v177l-190 307h-69v87h336v-86h-75zM470 732c-46 0 -78 32 -78 76c0 43 33 78 78 78c46 0 77 -33 77 -76s-32 -78 -77 -78zM269 732c-46 0 -78 32 -78 76c0 43 33 78 78 78c46 0 78 -33 78 -76
s-32 -78 -78 -78z" />
    <glyph glyph-name="ydieresis" unicode="&#xff;" 
d="M89 14c51 0 75 -40 75 -79c0 -13 -3 -27 -8 -37c41 5 66 24 95 94l-188 393h-62v83h293v-83h-71l105 -245l94 245h-59v83h205v-83h-57l-160 -372c-48 -113 -102 -187 -210 -187c-85 0 -129 44 -129 104c0 47 31 84 77 84zM201 538c-46 0 -78 32 -78 76c0 43 33 78 78 78
c46 0 78 -33 78 -76s-32 -78 -78 -78zM402 538c-46 0 -78 32 -78 76c0 43 33 78 78 78c46 0 77 -33 77 -76s-32 -78 -77 -78z" />
    <glyph glyph-name="Ygrave" unicode="&#x1ef2;" horiz-adv-x="676" 
d="M385 361l125 211h-79v86h254v-87h-73l-187 -297v-187h89v-87h-341v87h89v177l-190 307h-69v87h336v-86h-75zM415 729h-65l-74 66c-38 33 -59 56 -59 90c0 31 28 60 63 60c48 0 68 -41 91 -100z" />
    <glyph glyph-name="ygrave" unicode="&#x1ef3;" 
d="M89 14c51 0 75 -40 75 -79c0 -13 -3 -27 -8 -37c41 5 66 24 95 94l-188 393h-62v83h293v-83h-71l105 -245l94 245h-59v83h205v-83h-57l-160 -372c-48 -113 -102 -187 -210 -187c-85 0 -129 44 -129 104c0 47 31 84 77 84zM347 535h-65l-74 66c-38 33 -59 56 -59 90
c0 31 28 60 63 60c48 0 68 -41 91 -100z" />
    <glyph glyph-name="Zacute" unicode="&#x179;" horiz-adv-x="655" 
d="M295 729l44 116c23 59 43 100 91 100c35 0 63 -29 63 -60c0 -34 -21 -57 -58 -90l-75 -66h-65zM28 0v79l396 494h-160c-79 0 -96 -18 -139 -177h-78v262h570v-79l-397 -494h183c79 0 95 20 139 187h78v-272h-592z" />
    <glyph glyph-name="zacute" unicode="&#x17a;" horiz-adv-x="497" 
d="M215 535l44 116c23 59 43 100 91 100c35 0 63 -29 63 -60c0 -34 -21 -57 -58 -90l-75 -66h-65zM29 0v69l274 331h-87c-62 0 -80 -10 -110 -119h-67v187h427v-69l-275 -330h103c60 0 80 10 109 127h67v-196h-441z" />
    <glyph glyph-name="Zcaron" unicode="&#x17d;" horiz-adv-x="655" 
d="M297 732l-122 197h85l80 -86l77 86h85l-124 -197h-81zM28 0v79l396 494h-160c-79 0 -96 -18 -139 -177h-78v262h570v-79l-397 -494h183c79 0 95 20 139 187h78v-272h-592z" />
    <glyph glyph-name="zcaron" unicode="&#x17e;" horiz-adv-x="497" 
d="M216 538l-122 197h85l80 -86l77 86h85l-124 -197h-81zM29 0v69l274 331h-87c-62 0 -80 -10 -110 -119h-67v187h427v-69l-275 -330h103c60 0 80 10 109 127h67v-196h-441z" />
    <glyph glyph-name="Zdotaccent" unicode="&#x17b;" horiz-adv-x="655" 
d="M28 0v79l396 494h-160c-79 0 -96 -18 -139 -177h-78v262h570v-79l-397 -494h183c79 0 95 20 139 187h78v-272h-592zM337 726c-50 0 -85 34 -85 79c0 46 36 82 85 82c51 0 86 -34 86 -79c0 -46 -36 -82 -86 -82z" />
    <glyph glyph-name="zdotaccent" unicode="&#x17c;" horiz-adv-x="497" 
d="M29 0v69l274 331h-87c-62 0 -80 -10 -110 -119h-67v187h427v-69l-275 -330h103c60 0 80 10 109 127h67v-196h-441zM256 532c-50 0 -85 34 -85 79c0 46 36 82 85 82c51 0 86 -34 86 -79c0 -46 -36 -82 -86 -82z" />
    <glyph glyph-name="schwa" unicode="&#x259;" horiz-adv-x="528" 
d="M254 -11c-158 0 -232 112 -225 264h318c-6 109 -49 145 -123 145c-56 0 -91 -23 -112 -82h-78c18 98 84 162 215 162c156 0 251 -96 251 -240c0 -142 -105 -249 -246 -249zM257 57c51 0 84 33 90 133h-175c5 -95 31 -133 85 -133z" />
    <glyph glyph-name="germandbls" unicode="&#xdf;" horiz-adv-x="643" 
d="M449 -8c-98 0 -155 38 -155 99c0 37 25 68 66 68c44 0 68 -30 68 -68c0 -16 -4 -30 -11 -40c10 -5 23 -8 37 -8c37 0 58 22 58 57c0 44 -34 70 -89 100c-68 38 -109 67 -109 130c0 38 20 68 47 102c33 39 57 74 57 126c0 49 -31 81 -80 81c-58 0 -91 -35 -91 -123v-516
h-215v83h68v302h-85v78h88v7c0 158 108 227 244 227c134 0 210 -58 210 -132c0 -56 -40 -84 -84 -112c-41 -25 -56 -37 -56 -61c0 -28 30 -46 84 -78c63 -35 130 -79 130 -163c0 -88 -67 -159 -182 -159z" />
    <glyph glyph-name="zero" unicode="0" horiz-adv-x="609" 
d="M304 -16c-160 0 -267 126 -267 330c0 206 111 336 268 336c160 0 266 -126 266 -330c0 -207 -110 -336 -267 -336zM307 60c66 0 98 71 98 257c0 187 -37 257 -103 257c-67 0 -98 -71 -98 -257c0 -187 37 -257 103 -257z" />
    <glyph glyph-name="one" unicode="1" horiz-adv-x="489" 
d="M48 0v83h135v406c-14 -5 -36 -8 -60 -8c-27 0 -59 5 -80 12v70c89 -4 166 25 200 79h95v-559h132v-83h-422z" />
    <glyph glyph-name="two" unicode="2" horiz-adv-x="577" 
d="M35 84c0 95 92 157 171 207c95 60 147 96 147 182c0 67 -36 106 -98 106c-44 0 -80 -18 -98 -49c35 -12 55 -39 55 -74c0 -42 -29 -78 -82 -78c-51 0 -87 40 -87 95c0 90 94 177 240 177c156 0 243 -81 243 -186c0 -116 -100 -162 -207 -205c-101 -42 -169 -69 -195 -132
l4 -4c31 23 69 38 117 38c71 0 121 -37 168 -37c38 0 52 24 68 92l59 -5c-9 -168 -59 -227 -140 -227c-113 0 -149 106 -215 106c-6 0 -14 -1 -18 -2c7 -6 16 -21 16 -41c0 -34 -25 -64 -66 -64c-49 0 -82 40 -82 101z" />
    <glyph glyph-name="three" unicode="3" horiz-adv-x="557" 
d="M266 -16c-151 0 -244 65 -244 149c0 53 35 87 87 87c53 0 80 -33 80 -72c0 -29 -19 -54 -43 -66c13 -14 53 -24 101 -24c67 0 110 36 110 108c0 78 -35 115 -155 115h-29v80h27c111 0 146 39 146 117c0 65 -35 98 -104 98c-35 0 -68 -10 -85 -22c27 -11 45 -37 45 -66
c0 -39 -26 -73 -79 -73c-51 0 -86 33 -86 85c0 82 94 150 237 150c158 0 242 -75 242 -163c0 -82 -57 -138 -190 -157v-5c137 -14 201 -70 201 -154c0 -106 -99 -187 -261 -187z" />
    <glyph glyph-name="four" unicode="4" horiz-adv-x="598" 
d="M320 266v262h-5l-200 -262h205zM464 85h93v-85h-340v85h103v95h-302v86l297 379h149v-379h121v-86h-121v-95z" />
    <glyph glyph-name="five" unicode="5" horiz-adv-x="558" 
d="M162 509l-12 -160c40 32 96 50 153 50c160 0 223 -92 223 -194c0 -113 -82 -221 -256 -221c-135 0 -232 55 -232 142c0 51 33 91 87 91c51 0 76 -35 76 -70c0 -30 -15 -55 -38 -69c16 -13 47 -24 80 -24c73 0 114 48 114 134c0 89 -39 128 -112 128
c-38 0 -79 -17 -111 -43l-64 19l23 332l24 22c65 -24 146 -34 208 -34c70 0 115 13 164 38l26 -49c-45 -83 -115 -120 -202 -120c-63 0 -111 13 -151 28z" />
    <glyph glyph-name="six" unicode="6" horiz-adv-x="587" 
d="M205 325c30 44 84 72 149 72c117 0 197 -75 197 -194c0 -114 -83 -219 -243 -219c-173 0 -266 139 -266 310c0 216 117 356 307 356c122 0 187 -60 187 -130c0 -50 -33 -87 -84 -87c-53 0 -79 34 -79 73c0 26 12 49 30 61c-10 8 -29 15 -55 15c-94 0 -145 -70 -143 -257z
M209 196c0 -97 46 -142 100 -142c53 0 83 42 83 131c0 99 -33 140 -90 140c-56 0 -93 -45 -93 -129z" />
    <glyph glyph-name="seven" unicode="7" horiz-adv-x="552" 
d="M323 76c-7 -53 -30 -92 -85 -92s-88 33 -88 81c0 96 66 190 239 373c4 4 45 48 53 55l-6 6c-36 -25 -72 -35 -105 -35c-61 0 -104 37 -145 37c-35 0 -53 -24 -68 -114h-82v254h88l9 -83h7c19 63 51 89 93 89c81 0 110 -101 167 -101c7 0 12 1 15 2c-6 7 -12 22 -12 36
c0 39 26 66 71 66c44 0 72 -32 72 -71c0 -43 -28 -75 -60 -110c-68 -76 -133 -177 -163 -393z" />
    <glyph glyph-name="eight" unicode="8" horiz-adv-x="575" 
d="M54 452c0 108 95 198 240 198c150 0 226 -75 226 -155c0 -65 -47 -114 -123 -136c81 -30 142 -79 142 -167c0 -118 -101 -208 -254 -208c-160 0 -243 80 -243 166c0 65 47 116 130 141c-72 29 -118 75 -118 161zM404 141c0 67 -72 96 -186 126c-38 -27 -55 -64 -55 -106
c0 -62 44 -108 129 -108c70 0 112 38 112 88zM190 500c0 -66 59 -92 161 -120c37 29 51 66 51 104c0 50 -40 97 -114 97c-62 0 -98 -36 -98 -81z" />
    <glyph glyph-name="nine" unicode="9" horiz-adv-x="587" 
d="M382 301c-30 -44 -85 -72 -149 -72c-117 0 -198 75 -198 198c0 118 84 223 244 223c173 0 266 -139 266 -310c0 -217 -115 -356 -306 -356c-129 0 -196 60 -196 132c0 51 33 87 83 87c53 0 80 -33 80 -72c0 -26 -13 -49 -30 -61c17 -11 38 -18 64 -18
c92 0 143 67 142 249zM378 435c0 101 -46 145 -100 145s-83 -42 -83 -136c0 -103 33 -143 90 -143c56 0 93 45 93 134z" />
    <glyph glyph-name="period" unicode="." horiz-adv-x="256" 
d="M128 -17c-50 0 -89 39 -89 88c0 50 39 89 90 89c50 0 89 -39 89 -88s-39 -89 -90 -89z" />
    <glyph glyph-name="comma" unicode="," horiz-adv-x="256" 
d="M35 -166l-22 48c82 34 126 75 136 129l-8 4c-8 -11 -21 -18 -39 -18c-37 0 -63 29 -63 72c0 49 34 91 85 91c60 0 100 -44 100 -116c0 -97 -65 -171 -189 -210z" />
    <glyph glyph-name="colon" unicode=":" horiz-adv-x="270" 
d="M135 269c-50 0 -89 39 -89 88c0 50 39 89 90 89c50 0 89 -39 89 -88s-39 -89 -90 -89zM135 -17c-50 0 -89 39 -89 88c0 50 39 89 90 89c50 0 89 -39 89 -88s-39 -89 -90 -89z" />
    <glyph glyph-name="semicolon" unicode=";" horiz-adv-x="270" 
d="M136 269c-50 0 -89 39 -89 88c0 50 39 89 90 89c50 0 89 -39 89 -88s-39 -89 -90 -89zM41 -166l-23 48c82 34 126 75 136 129l-7 4c-9 -11 -21 -18 -40 -18c-36 0 -63 29 -63 72c0 49 35 91 86 91c60 0 99 -44 99 -116c0 -97 -65 -171 -188 -210z" />
    <glyph glyph-name="ellipsis" unicode="&#x2026;" horiz-adv-x="755" 
d="M627 -17c-49 0 -87 38 -87 87s38 88 89 88c49 0 87 -39 87 -87c0 -49 -38 -88 -89 -88zM377 -17c-50 0 -88 38 -88 87s38 88 89 88c50 0 88 -39 88 -87c0 -49 -38 -88 -89 -88zM126 -17c-49 0 -87 38 -87 87s38 88 89 88c49 0 87 -39 87 -87c0 -49 -38 -88 -89 -88z" />
    <glyph glyph-name="periodcentered" unicode="&#xb7;" horiz-adv-x="263" 
d="M131 232c-50 0 -89 39 -89 88c0 50 39 89 90 89c50 0 89 -39 89 -88s-39 -89 -90 -89z" />
    <glyph glyph-name="bullet" unicode="&#x2022;" horiz-adv-x="490" 
d="M245 168c-85 0 -154 68 -154 153c0 86 69 155 154 155s154 -69 154 -155c0 -85 -69 -153 -154 -153z" />
    <glyph glyph-name="ampersand" unicode="&#x26;" horiz-adv-x="748" 
d="M499 388h225v-84h-71c-33 -61 -74 -116 -116 -161c34 -47 50 -58 74 -58c25 0 39 16 53 63l56 -17c-19 -82 -59 -147 -149 -147c-64 0 -100 20 -144 79c-53 -52 -114 -79 -187 -79c-132 0 -209 76 -209 174c0 95 68 146 154 179c-46 47 -69 83 -69 138
c0 87 79 162 198 162c114 0 172 -70 172 -137c0 -76 -55 -112 -129 -144c56 -54 97 -102 137 -159c29 33 54 71 73 108h-68v83zM288 76c34 0 66 11 99 36c-50 70 -105 132 -160 186c-33 -26 -51 -60 -51 -111c0 -67 42 -111 112 -111zM246 509c0 -37 22 -67 70 -115
c39 28 58 60 58 103c0 41 -20 75 -66 75c-35 0 -62 -25 -62 -63z" />
    <glyph glyph-name="exclam" unicode="!" horiz-adv-x="301" 
d="M150 684c58 0 89 -35 89 -90c0 -31 -7 -79 -17 -139c-12 -69 -26 -153 -38 -247h-67c-12 94 -26 178 -38 247c-11 60 -18 108 -18 139c0 55 32 90 89 90zM150 -17c-50 0 -89 38 -89 86s39 87 90 87c50 0 89 -38 89 -86s-39 -87 -90 -87z" />
    <glyph glyph-name="exclamdown" unicode="&#xa1;" horiz-adv-x="301" 
d="M150 -17c-58 0 -89 35 -89 90c0 31 7 79 17 139c12 69 26 153 38 247h67c12 -94 26 -178 38 -247c11 -60 18 -108 18 -139c0 -55 -32 -90 -89 -90zM150 684c50 0 89 -38 89 -86s-39 -87 -90 -87c-50 0 -89 38 -89 86s39 87 90 87z" />
    <glyph glyph-name="question" unicode="?" horiz-adv-x="494" 
d="M183 219c1 69 24 119 57 165c32 45 61 75 61 132c0 61 -31 96 -91 96c-38 0 -72 -15 -84 -38c33 -11 56 -39 56 -74c0 -42 -28 -78 -80 -78c-50 0 -87 36 -87 92c0 89 84 170 224 170c146 0 229 -82 229 -178c0 -79 -43 -119 -102 -160c-51 -34 -88 -67 -106 -127h-77z
M223 -17c-51 0 -89 38 -89 86s38 87 90 87c50 0 89 -38 89 -86s-39 -87 -90 -87z" />
    <glyph glyph-name="questiondown" unicode="&#xbf;" horiz-adv-x="491" 
d="M311 448c-1 -69 -24 -119 -57 -165c-32 -45 -61 -75 -61 -132c0 -61 31 -96 91 -96c38 0 72 15 84 38c-33 11 -56 39 -56 74c0 42 28 78 80 78c50 0 87 -36 87 -92c0 -89 -84 -170 -224 -170c-146 0 -229 82 -229 178c0 79 43 119 102 160c51 34 88 67 106 127h77z
M271 684c51 0 89 -38 89 -86s-38 -87 -90 -87c-50 0 -89 38 -89 86s39 87 90 87z" />
    <glyph glyph-name="quotedblleft" unicode="&#x201c;" horiz-adv-x="482" 
d="M356 356c-60 0 -99 44 -99 116c0 97 65 171 189 210l22 -48c-82 -34 -126 -75 -136 -129l7 -4c9 11 21 18 40 18c36 0 63 -29 63 -72c0 -49 -35 -91 -86 -91zM130 356c-60 0 -99 44 -99 116c0 97 64 171 188 210l23 -48c-83 -34 -126 -75 -136 -129l7 -4
c8 11 21 18 40 18c36 0 63 -29 63 -72c0 -49 -35 -91 -86 -91z" />
    <glyph glyph-name="quotedblright" unicode="&#x201d;" horiz-adv-x="482" 
d="M264 347l-22 48c82 35 126 76 136 130l-8 3c-8 -10 -21 -17 -39 -17c-37 0 -63 29 -63 72c0 49 34 91 86 91c59 0 99 -44 99 -116c0 -97 -65 -171 -189 -211zM38 347l-23 48c83 35 126 76 136 130l-7 3c-8 -10 -21 -17 -40 -17c-36 0 -62 29 -62 72c0 49 34 91 85 91
c60 0 99 -44 99 -116c0 -97 -64 -171 -188 -211z" />
    <glyph glyph-name="quoteleft" unicode="&#x2018;" horiz-adv-x="256" 
d="M130 356c-60 0 -99 44 -99 116c0 97 65 171 189 210l22 -48c-82 -34 -126 -75 -136 -129l7 -4c9 11 21 18 40 18c36 0 63 -29 63 -72c0 -49 -35 -91 -86 -91z" />
    <glyph glyph-name="quoteright" unicode="&#x2019;" horiz-adv-x="256" 
d="M38 347l-23 48c83 35 126 76 136 130l-7 3c-8 -10 -21 -17 -40 -17c-36 0 -62 29 -62 72c0 49 34 91 85 91c60 0 99 -44 99 -116c0 -97 -64 -171 -188 -211z" />
    <glyph glyph-name="quotedblbase" unicode="&#x201e;" horiz-adv-x="482" 
d="M264 -166l-22 48c82 35 126 76 136 130l-8 3c-8 -10 -21 -17 -39 -17c-37 0 -63 29 -63 72c0 49 34 91 86 91c59 0 99 -44 99 -116c0 -97 -65 -171 -189 -211zM38 -166l-23 48c83 35 126 76 136 130l-7 3c-8 -10 -21 -17 -40 -17c-36 0 -62 29 -62 72c0 49 34 91 85 91
c60 0 99 -44 99 -116c0 -97 -64 -171 -188 -211z" />
    <glyph glyph-name="quotesinglbase" unicode="&#x201a;" horiz-adv-x="256" 
d="M38 -166l-23 48c83 35 126 76 136 130l-7 3c-8 -10 -21 -17 -40 -17c-36 0 -62 29 -62 72c0 49 34 91 85 91c60 0 99 -44 99 -116c0 -97 -64 -171 -188 -211z" />
    <glyph glyph-name="guillemotleft" unicode="&#xab;" horiz-adv-x="521" 
d="M160 229l107 -167l-40 -31l-179 157c-18 17 -24 30 -24 39s6 24 24 40l179 156l40 -31zM375 229l108 -167l-41 -31l-178 157c-19 17 -25 30 -25 39s6 24 25 40l178 156l41 -31z" />
    <glyph glyph-name="guillemotright" unicode="&#xbb;" horiz-adv-x="521" 
d="M361 225l-107 167l40 31l179 -157c18 -17 24 -30 24 -39s-6 -24 -24 -40l-179 -156l-40 31zM146 225l-108 167l41 31l178 -157c19 -17 25 -30 25 -39s-6 -24 -25 -40l-178 -156l-41 31z" />
    <glyph glyph-name="guilsinglleft" unicode="&#x2039;" horiz-adv-x="310" 
d="M164 229l108 -165l-40 -33l-184 156c-19 17 -24 31 -24 40s5 24 24 40l184 157l40 -33z" />
    <glyph glyph-name="guilsinglright" unicode="&#x203a;" horiz-adv-x="310" 
d="M146 226l-108 165l40 33l184 -156c19 -17 24 -31 24 -40s-5 -24 -24 -40l-184 -157l-40 33z" />
    <glyph glyph-name="hyphen" unicode="-" horiz-adv-x="356" 
d="M48 203v100h260v-100h-260z" />
    <glyph glyph-name="endash" unicode="&#x2013;" horiz-adv-x="530" 
d="M48 204v92h434v-92h-434z" />
    <glyph glyph-name="emdash" unicode="&#x2014;" horiz-adv-x="780" 
d="M48 204v92h684v-92h-684z" />
    <glyph glyph-name="underscore" unicode="_" horiz-adv-x="447" 
d="M-2 0v87h451v-87h-451z" />
    <glyph glyph-name="slash" unicode="/" horiz-adv-x="427" 
d="M-61 -203l389 914h98l-389 -914h-98z" />
    <glyph glyph-name="backslash" unicode="\" horiz-adv-x="427" 
d="M390 -203l-388 914h98l388 -914h-98z" />
    <glyph glyph-name="bar" unicode="|" horiz-adv-x="290" 
d="M100 -203v914h90v-914h-90z" />
    <glyph glyph-name="parenleft" unicode="(" horiz-adv-x="389" 
d="M366 -160c-177 69 -306 230 -306 439c0 212 129 377 306 445l34 -58c-113 -78 -193 -200 -193 -381c0 -184 80 -309 193 -387z" />
    <glyph glyph-name="parenright" unicode=")" horiz-adv-x="389" 
d="M23 724c177 -69 306 -230 306 -439c0 -212 -129 -377 -306 -445l-34 58c113 78 193 200 193 381c0 184 -80 309 -193 387z" />
    <glyph glyph-name="bracketleft" unicode="[" horiz-adv-x="366" 
d="M79 -159v883h294v-77h-157v-728h157v-78h-294z" />
    <glyph glyph-name="bracketright" unicode="]" horiz-adv-x="366" 
d="M287 724v-883h-294v78h157v728h-157v77h294z" />
    <glyph glyph-name="braceleft" unicode="{" horiz-adv-x="397" 
d="M18 326h27c91 0 122 31 122 84c0 42 -15 97 -15 144c0 110 81 168 253 170v-76c-95 -9 -113 -35 -113 -104c0 -30 6 -80 6 -116c0 -96 -41 -127 -162 -142v-7c121 -15 162 -46 162 -142c0 -36 -6 -86 -6 -116c0 -69 18 -95 113 -104v-76c-172 2 -253 60 -253 170
c0 47 15 102 15 144c0 53 -31 84 -122 84h-27v87z" />
    <glyph glyph-name="braceright" unicode="}" horiz-adv-x="397" 
d="M379 239h-27c-91 0 -122 -31 -122 -84c0 -42 15 -97 15 -144c0 -110 -81 -168 -253 -170v76c95 9 113 35 113 104c0 30 -6 80 -6 116c0 96 41 127 162 142v7c-121 15 -162 46 -162 142c0 36 6 86 6 116c0 69 -18 95 -113 104v76c172 -2 253 -60 253 -170
c0 -47 -15 -102 -15 -144c0 -53 31 -84 122 -84h27v-87z" />
    <glyph glyph-name="at" unicode="@" horiz-adv-x="900" 
d="M465 -152c-245 0 -422 147 -422 395c0 261 199 446 446 446c212 0 376 -133 376 -348c0 -185 -112 -287 -228 -287c-76 0 -137 33 -130 111l-7 3c-35 -73 -84 -108 -135 -108c-88 0 -132 64 -132 151c0 79 35 165 81 211c39 39 80 58 132 58c53 0 90 -36 99 -83l22 76
h121l-74 -251c-21 -72 -7 -101 49 -101c69 0 139 97 139 218c0 180 -133 297 -316 297c-215 0 -379 -168 -379 -390c0 -212 145 -345 361 -345c102 0 181 29 253 79l28 -46c-79 -54 -170 -86 -284 -86zM411 141c71 0 116 130 116 199c0 43 -15 71 -52 71
c-75 0 -113 -142 -113 -203c0 -42 15 -67 49 -67z" />
    <glyph glyph-name="copyright" unicode="&#xa9;" horiz-adv-x="787" 
d="M393 -34c-209 0 -367 153 -367 363c0 209 158 362 367 362c210 0 367 -153 367 -362c0 -210 -157 -363 -367 -363zM393 15c182 0 308 132 308 314c0 181 -126 313 -308 313c-181 0 -308 -132 -308 -313c0 -182 127 -314 308 -314zM401 140c-113 0 -188 77 -188 189
c0 114 83 192 178 192c46 0 80 -15 102 -43l12 42h51v-143h-56c-23 66 -52 97 -98 97c-52 0 -88 -37 -88 -139c0 -99 37 -141 100 -141c55 0 84 40 93 101h55c-9 -94 -63 -155 -161 -155z" />
    <glyph glyph-name="published" unicode="&#x2117;" horiz-adv-x="787" 
d="M393 -34c-209 0 -367 153 -367 363c0 209 158 362 367 362c210 0 367 -153 367 -362c0 -210 -157 -363 -367 -363zM393 15c182 0 308 132 308 314c0 181 -126 313 -308 313c-181 0 -308 -132 -308 -313c0 -182 127 -314 308 -314zM242 145v49h50v266h-50v49h183
c114 0 159 -46 159 -112c0 -63 -44 -113 -158 -113h-42v-90h53v-49h-195zM384 331h35c52 0 67 21 67 67c0 43 -15 64 -68 64h-34v-131z" />
    <glyph glyph-name="registered.alt" horiz-adv-x="787" 
d="M393 -34c-209 0 -367 153 -367 363c0 209 158 362 367 362c210 0 367 -153 367 -362c0 -210 -157 -363 -367 -363zM393 15c182 0 308 132 308 314c0 181 -126 313 -308 313c-181 0 -308 -132 -308 -313c0 -182 127 -314 308 -314zM357 305v-107h51v-49h-192v49h48v266
h-48v50h201c110 0 148 -47 148 -94c0 -46 -29 -82 -114 -92v-3c69 -6 91 -35 95 -79l1 -20c2 -23 6 -29 17 -29c8 0 15 8 22 34l33 -10c-10 -46 -32 -79 -83 -79c-60 0 -84 31 -84 92v17c0 38 -11 54 -50 54h-45zM357 351h47c42 0 62 16 62 59c0 39 -13 57 -60 57h-49v-116z
" />
    <glyph glyph-name="registered" unicode="&#xae;" horiz-adv-x="505" 
d="M252 247c-128 0 -223 93 -223 222c0 128 95 221 223 221c129 0 225 -93 225 -221c0 -129 -96 -222 -225 -222zM252 284c110 0 182 75 182 185c0 109 -72 185 -182 185c-109 0 -181 -76 -181 -185c0 -110 72 -185 181 -185zM231 455v-65h31v-30h-118v30h30v162h-30v30h124
c67 0 90 -29 90 -58c0 -27 -17 -49 -70 -55v-2c43 -4 55 -21 58 -48l2 -12c1 -15 3 -18 10 -18c5 0 9 5 13 20l21 -6c-7 -27 -20 -48 -52 -48c-36 0 -52 19 -52 56v11c0 23 -6 33 -30 33h-27zM231 483h28c26 0 37 9 37 35c0 24 -7 35 -36 35h-29v-70z" />
    <glyph glyph-name="servicemark" unicode="&#x2120;" horiz-adv-x="845" 
d="M43 342v113h47c22 -47 52 -73 99 -73c29 0 46 15 46 38c0 26 -27 34 -76 46c-56 13 -112 35 -112 101c0 58 49 99 112 99c37 0 67 -14 85 -36l10 35h46v-109h-47c-20 46 -47 68 -83 68c-29 0 -45 -15 -45 -35c0 -28 30 -37 78 -48c54 -13 111 -33 111 -99
c0 -60 -48 -101 -118 -101c-43 0 -78 16 -97 38l-11 -37h-45zM348 347v49h42v213h-42v49h177l53 -175h7l51 175h171v-49h-44v-213h44v-49h-170v48h37v208h-9l-81 -256h-49l-85 256h-10v-208h39v-48h-131z" />
    <glyph glyph-name="trademark" unicode="&#x2122;" horiz-adv-x="882" 
d="M386 347v49h41v213h-41v49h176l54 -175h7l50 175h171v-49h-43v-213h43v-49h-170v48h38v208h-9l-82 -256h-49l-85 256h-9v-208h38v-48h-130zM94 347v49h54v220h-11c-34 0 -43 -14 -64 -90h-42v132h323v-132h-42c-20 75 -30 90 -64 90h-11v-220h55v-49h-198z" />
    <glyph glyph-name="asterisk" unicode="*" horiz-adv-x="430" 
d="M211 352c-9 25 -5 70 1 120l-13 5c-25 -45 -49 -84 -70 -100c-27 -19 -54 -14 -73 11c-19 26 -14 54 13 73c21 15 66 27 115 36v14c-50 9 -94 22 -115 37c-27 19 -32 46 -13 72c19 25 46 30 73 11c21 -15 45 -54 70 -100l13 5c-6 50 -10 96 -1 122c10 31 35 43 65 33
c31 -10 43 -34 33 -66c-8 -24 -37 -60 -73 -97l8 -11c46 22 89 39 116 39c33 0 52 -19 52 -51c0 -33 -19 -52 -52 -52c-27 0 -69 17 -115 39l-8 -11c35 -37 64 -73 72 -97c10 -32 -2 -56 -33 -66c-30 -10 -55 2 -65 34z" />
    <glyph glyph-name="dagger" unicode="&#x2020;" horiz-adv-x="540" 
d="M248 412c-50 18 -85 25 -102 25c-4 0 -8 0 -11 -1c5 -9 9 -21 9 -34c0 -30 -22 -60 -62 -60c-34 0 -65 22 -65 65c0 48 37 88 102 88c37 0 76 -9 126 -30l-45 172l8 19c10 24 31 47 61 47c31 0 53 -23 63 -47l7 -19l-50 -192c52 -17 88 -26 104 -26c5 0 9 0 12 1
c-6 10 -9 22 -9 34c0 31 22 60 62 60c34 0 65 -22 65 -64c0 -48 -37 -89 -102 -89c-37 0 -77 9 -127 31l37 -278v-142c0 -40 -48 -83 -61 -83c-14 0 -61 43 -61 83v142z" />
    <glyph glyph-name="daggerdbl" unicode="&#x2021;" horiz-adv-x="540" 
d="M245 469l-45 169l8 18c10 24 31 47 61 47c31 0 53 -23 63 -47l7 -18l-49 -188c51 -18 87 -26 103 -26c5 0 9 0 12 1c-6 9 -9 22 -9 34c0 31 22 60 62 60c34 0 65 -22 65 -64c0 -48 -37 -89 -102 -89c-36 0 -75 8 -123 29l28 -108l-31 -112c48 -17 83 -25 98 -25
c5 0 9 0 12 1c-6 10 -9 22 -9 34c0 31 22 60 62 60c34 0 65 -22 65 -64c0 -48 -37 -88 -102 -88c-37 0 -76 8 -126 30l44 -169l-7 -18c-10 -23 -32 -47 -62 -47c-31 0 -52 24 -62 47l-8 18l50 188c-51 18 -87 26 -104 26c-4 0 -8 0 -11 -1c5 -9 9 -21 9 -34
c0 -30 -22 -60 -62 -60c-34 0 -65 22 -65 65c0 48 37 88 102 88c36 0 74 -8 123 -29l-29 109l32 112c-48 17 -83 24 -99 24c-4 0 -8 0 -11 -1c5 -9 9 -21 9 -34c0 -31 -22 -60 -62 -60c-34 0 -65 22 -65 64c0 48 37 89 102 89c37 0 76 -8 126 -31z" />
    <glyph glyph-name="asciicircum" unicode="^" horiz-adv-x="372" 
d="M14 491l132 226h83l129 -226h-85l-87 108l-87 -108h-85z" />
    <glyph glyph-name="asciitilde" unicode="~" horiz-adv-x="413" 
d="M32 239c9 107 35 161 112 161c59 0 101 -48 138 -48c18 0 27 15 34 54h66c-9 -107 -35 -161 -112 -161c-59 0 -101 48 -138 48c-18 0 -27 -15 -34 -54h-66z" />
    <glyph glyph-name="dollar" unicode="$" horiz-adv-x="560" 
d="M325 -83h-76v83c-156 8 -225 73 -225 139c0 43 33 78 77 78c41 0 73 -31 73 -71c0 -22 -10 -43 -26 -56c20 -12 57 -24 101 -29v200c-123 33 -207 67 -207 177c0 106 81 182 207 196v76h76v-74c153 -9 203 -81 203 -132c0 -47 -29 -78 -71 -78c-47 0 -76 28 -76 69
c0 22 11 43 25 55c-14 11 -44 21 -82 26v-191c128 -34 206 -73 206 -184c0 -101 -68 -185 -205 -199v-85zM408 152c0 44 -32 68 -86 88v-178c64 10 86 45 86 90zM167 490c0 -47 25 -68 84 -86v171c-59 -10 -84 -44 -84 -85z" />
    <glyph glyph-name="sterling" unicode="&#xa3;" horiz-adv-x="631" 
d="M494 269h-146v-2c0 -38 -13 -69 -39 -105c81 -23 116 -48 166 -48c39 0 58 22 74 95l59 -5c-2 -149 -37 -220 -140 -220c-74 0 -135 47 -208 94c-32 -65 -76 -94 -134 -94c-63 0 -103 36 -103 88c0 63 53 113 157 113c14 0 30 -1 48 -4c-1 33 -11 61 -25 88h-149v80h105
c-13 26 -22 54 -22 87c0 126 108 214 253 214c112 0 194 -60 194 -134c0 -54 -38 -93 -86 -93c-50 0 -78 36 -78 75c0 29 15 54 35 67c-12 12 -36 22 -72 22c-65 0 -98 -36 -98 -91c0 -51 27 -98 45 -147h164v-80zM133 45c29 0 56 17 76 60c-21 9 -42 13 -58 13
c-33 0 -54 -17 -54 -41c0 -18 12 -32 36 -32z" />
    <glyph glyph-name="Euro" unicode="&#x20ac;" horiz-adv-x="669" 
d="M28 343v77h92c37 137 143 230 296 230c122 0 217 -71 217 -155c0 -49 -30 -89 -85 -89c-51 0 -81 33 -81 77c0 29 16 51 34 63c-17 16 -48 26 -84 26c-72 0 -125 -36 -143 -154h153v-75h-160v-32c0 -12 0 -23 1 -33h159v-75h-151c18 -92 66 -128 139 -128
c80 0 122 54 136 142h89c-14 -140 -92 -233 -247 -233c-157 0 -247 85 -276 217h-89v77h78v30c0 12 0 23 1 35h-79z" />
    <glyph glyph-name="yen" unicode="&#xa5;" horiz-adv-x="645" 
d="M81 342h131l-133 206h-66v86h311v-84h-73l115 -196l111 196h-71v84h236v-86h-72l-130 -206h133v-73h-173v-55h173v-73h-173v-58h94v-83h-334v83h95v58h-174v73h174v55h-174v73z" />
    <glyph glyph-name="cent" unicode="&#xa2;" horiz-adv-x="552" 
d="M316 -102l-78 4l5 92c-135 17 -209 106 -209 232c0 138 97 240 247 251l7 84l78 -4l-7 -82c104 -16 173 -79 173 -149c0 -50 -29 -82 -77 -82c-47 0 -75 31 -75 67c0 33 18 56 39 68c-12 14 -33 29 -71 33l-25 -343h2c58 0 98 33 119 92h78c-20 -95 -82 -161 -200 -170z
M184 237c0 -86 21 -140 70 -160l25 334c-61 -12 -95 -70 -95 -174z" />
    <glyph glyph-name="numbersign" unicode="#" horiz-adv-x="677" 
d="M192 404h-129v78h144l34 181h89l-34 -181h145l33 181h90l-34 -181h118v-78h-132l-34 -178h130v-78h-144l-35 -188h-89l35 188h-145l-35 -188h-89l35 188h-118v78h132zM428 405h-147l-35 -180h148z" />
    <glyph glyph-name="paragraph" unicode="&#xb6;" horiz-adv-x="652" 
d="M315 -111v273c-161 1 -280 81 -280 229c0 139 105 229 301 229h291v-83h-75v-648h-85v649h-66v-649h-86z" />
    <glyph glyph-name="section" unicode="&#xa7;" horiz-adv-x="539" 
d="M261 -125c-128 0 -214 55 -214 124c0 41 30 75 75 75s75 -28 75 -66c0 -18 -8 -38 -22 -50c17 -12 52 -21 90 -21c67 0 94 27 94 60c0 45 -38 67 -142 100c-101 32 -179 65 -179 151c0 60 45 107 121 129v7c-54 22 -91 60 -91 113c0 100 102 161 222 161
s191 -54 191 -114c0 -40 -27 -72 -72 -72s-75 27 -75 65c0 16 6 31 18 44c-15 8 -39 15 -67 15c-65 0 -95 -26 -95 -61c0 -38 39 -56 143 -91c92 -30 173 -63 173 -151c0 -56 -41 -105 -116 -129v-7c52 -21 92 -58 92 -116c0 -98 -90 -166 -221 -166zM331 187
c41 16 53 40 53 64c0 42 -49 67 -130 92l-38 12c-42 -16 -56 -40 -56 -66c0 -44 53 -65 135 -90c11 -4 26 -8 36 -12z" />
    <glyph glyph-name="ordfeminine" unicode="&#xaa;" horiz-adv-x="433" 
d="M134 315c-60 0 -103 35 -103 88c0 21 9 45 27 61c23 20 57 35 137 45c25 4 35 6 39 11v30c0 43 -20 58 -59 58c-15 0 -28 -3 -41 -9c11 -7 17 -20 17 -36c0 -25 -22 -44 -52 -44c-36 0 -55 23 -55 50c0 60 76 90 158 90c100 0 139 -46 139 -115v-143c0 -16 6 -21 17 -21
c8 0 16 9 22 33l38 -12c-14 -61 -43 -85 -92 -85c-41 0 -72 20 -78 66h-4c-22 -47 -61 -67 -110 -67zM182 376c30 0 52 30 52 72v31c-6 -2 -14 -3 -30 -6c-50 -9 -63 -22 -63 -55c0 -24 11 -42 41 -42z" />
    <glyph glyph-name="ordmasculine" unicode="&#xba;" horiz-adv-x="413" 
d="M207 314c-108 0 -182 69 -182 171s78 174 182 174c107 0 180 -69 180 -171s-77 -174 -180 -174zM209 366c43 0 61 34 61 121c0 88 -22 120 -66 120c-43 0 -61 -33 -61 -121c0 -87 22 -120 66 -120z" />
    <glyph glyph-name="degree" unicode="&#xb0;" horiz-adv-x="405" 
d="M203 346c-110 0 -175 70 -175 163c0 92 70 165 175 165c109 0 174 -70 174 -162c0 -93 -69 -166 -174 -166zM205 413c46 0 78 33 78 97s-35 97 -83 97c-46 0 -77 -33 -77 -96c0 -65 35 -98 82 -98z" />
    <glyph glyph-name="percent" unicode="%" horiz-adv-x="796" 
d="M158 264c-82 0 -140 55 -140 140c0 115 96 229 204 229c44 0 79 -14 102 -40c25 -11 55 -16 92 -16c62 0 116 22 167 72h78l-441 -675h-97l390 574l-3 3c-34 -28 -73 -42 -119 -42c-14 0 -26 0 -38 2v-6c0 -108 -81 -241 -195 -241zM579 -14c-82 0 -140 54 -140 140
c0 115 96 229 204 229c80 0 131 -48 131 -128c0 -108 -82 -241 -195 -241zM597 44c63 0 114 111 114 187c0 39 -18 61 -48 61c-61 0 -114 -112 -114 -185c0 -42 19 -63 48 -63zM177 322c62 0 113 112 113 187c0 6 0 11 -1 16c-24 10 -44 24 -63 42
c-54 -16 -98 -116 -98 -182c0 -42 20 -63 49 -63z" />
    <glyph glyph-name="quotedbl" unicode="&#x22;" horiz-adv-x="437" 
d="M290 387l-50 22l20 110c10 56 16 81 26 106c11 28 33 44 59 44c36 0 71 -24 71 -64c0 -11 -2 -23 -6 -34c-12 -26 -23 -47 -55 -93zM101 387l-50 22l13 106c8 58 13 82 23 108c11 28 34 46 61 46c36 0 71 -24 71 -64c0 -11 -1 -21 -5 -31c-11 -28 -21 -49 -52 -95z" />
    <glyph glyph-name="quotesingle" unicode="'" horiz-adv-x="242" 
d="M99 387l-51 23l16 107c10 58 13 83 23 108c12 27 35 44 61 44c37 0 74 -26 74 -65c0 -12 -2 -21 -6 -31c-11 -27 -24 -48 -55 -94z" />
    <glyph glyph-name="plus" unicode="+" horiz-adv-x="525" 
d="M218 69v175h-172v81h172v173h89v-173h172v-81h-172v-175h-89z" />
    <glyph glyph-name="minus" unicode="&#x2212;" horiz-adv-x="519" 
d="M455 241h-390v87h390v-87z" />
    <glyph glyph-name="divide" unicode="&#xf7;" horiz-adv-x="519" 
d="M261 521c41 0 75 -33 75 -73s-34 -74 -77 -74c-41 0 -75 33 -75 73c0 41 34 74 77 74zM478 245h-437v80h437v-80zM261 195c41 0 75 -33 75 -73c0 -41 -34 -74 -77 -74c-41 0 -75 33 -75 73s34 74 77 74z" />
    <glyph glyph-name="equal" unicode="=" horiz-adv-x="525" 
d="M54 340v87h417v-87h-417zM54 142v87h417v-87h-417z" />
    <glyph glyph-name="multiply" unicode="&#xd7;" horiz-adv-x="520" 
d="M317 284l137 -139l-60 -61l-134 142l-134 -142l-60 61l137 139l-137 140l60 61l134 -142l134 142l60 -61z" />
    <glyph glyph-name="less" unicode="&#x3c;" horiz-adv-x="524" 
d="M451 60l-377 180v89l377 180v-95l-291 -130l291 -130v-94z" />
    <glyph glyph-name="greater" unicode="&#x3e;" horiz-adv-x="524" 
d="M73 509l377 -180v-89l-377 -180v95l291 130l-291 130v94z" />
    <glyph glyph-name="plusminus" unicode="&#xb1;" horiz-adv-x="539" 
d="M230 163v157h-154v72h154v154h80v-154h153v-72h-153v-157h-80zM462 33h-386v73h386v-73z" />
    <glyph glyph-name="zero.osf" horiz-adv-x="614" 
d="M307 -16c-161 0 -270 116 -270 293c0 178 113 298 270 298c161 0 270 -116 270 -293c0 -179 -112 -298 -270 -298zM310 60c70 0 97 62 97 220c0 157 -33 219 -103 219s-97 -62 -97 -220c0 -157 33 -219 103 -219z" />
    <glyph glyph-name="one.osf" horiz-adv-x="480" 
d="M48 0v83h131v330c-14 -4 -34 -7 -56 -7c-28 0 -60 4 -80 11v71c89 -4 161 24 195 79h95v-484h128v-83h-413z" />
    <glyph glyph-name="two.osf" horiz-adv-x="569" 
d="M512 409c0 -106 -87 -140 -193 -170c-93 -25 -174 -55 -200 -118l5 -3c29 22 66 36 114 36c70 0 121 -30 170 -30c40 0 53 21 68 87l59 -5c-7 -164 -61 -222 -140 -222c-113 0 -151 100 -214 100c-6 0 -14 -1 -19 -2c9 -7 17 -21 17 -39c0 -31 -24 -60 -65 -60
c-47 0 -84 35 -84 93c0 85 69 148 178 202c96 47 132 72 132 141c0 50 -33 85 -98 85c-40 0 -70 -13 -87 -29c33 -11 52 -37 52 -70c0 -40 -27 -74 -79 -74c-50 0 -84 35 -84 86c0 84 89 158 229 158c157 0 239 -76 239 -166z" />
    <glyph glyph-name="three.osf" horiz-adv-x="547" 
d="M262 -92c-150 0 -240 66 -240 152c0 53 35 88 87 88c55 0 83 -34 83 -74c0 -30 -19 -58 -44 -70c14 -13 45 -25 96 -25c63 0 103 38 103 110c0 77 -31 117 -151 117h-22v80h21c110 0 141 40 141 118c0 64 -31 100 -99 100c-35 0 -61 -12 -77 -24c27 -11 45 -41 45 -70
c0 -40 -26 -74 -81 -74c-51 0 -87 34 -87 86c0 85 90 153 232 153c158 0 237 -77 237 -164c0 -81 -54 -137 -186 -157v-4c136 -14 197 -71 197 -155c0 -105 -93 -187 -255 -187z" />
    <glyph glyph-name="four.osf" horiz-adv-x="593" 
d="M316 197v257h-6l-190 -257h196zM460 0h84v-82h-313v82h85v111h-298v79l293 380h149v-373h119v-86h-119v-111z" />
    <glyph glyph-name="five.osf" horiz-adv-x="548" 
d="M159 437l-12 -161c40 32 94 51 151 51c158 0 219 -92 219 -196c0 -120 -87 -223 -258 -223c-131 0 -226 54 -226 143c0 52 35 92 90 92c51 0 77 -35 77 -71c0 -31 -15 -56 -38 -71c16 -12 43 -23 76 -23c72 0 110 48 110 135c0 92 -36 131 -108 131
c-38 0 -77 -17 -109 -43l-64 19l23 332l24 22c63 -23 146 -33 206 -33c69 0 113 12 160 37l26 -48c-43 -83 -114 -120 -199 -120c-62 0 -110 12 -148 27z" />
    <glyph glyph-name="six.osf" horiz-adv-x="586" 
d="M205 321c30 44 84 72 149 72c119 0 200 -74 200 -192c0 -113 -84 -217 -245 -217c-175 0 -267 138 -267 307c0 206 122 354 311 354c124 0 188 -60 188 -129c0 -50 -33 -87 -84 -87c-54 0 -80 33 -80 73c0 25 12 47 32 60c-13 8 -31 15 -58 15c-91 0 -146 -78 -146 -256z
M209 194c0 -96 46 -140 101 -140s84 42 84 129c0 98 -33 138 -91 138s-94 -45 -94 -127z" />
    <glyph glyph-name="seven.osf" horiz-adv-x="537" 
d="M136 -15c0 90 70 196 242 378l50 54l-5 5c-36 -25 -64 -34 -97 -34c-59 0 -103 36 -143 36c-34 0 -49 -24 -64 -110h-82v253h88l9 -86h7c18 67 48 92 89 92c82 0 105 -103 163 -103c4 0 9 1 11 2c-8 9 -14 25 -14 39c0 38 26 65 69 65c46 0 73 -31 73 -72
c0 -42 -29 -80 -59 -111c-75 -80 -132 -177 -163 -394c-8 -53 -31 -92 -85 -92c-55 0 -89 32 -89 78z" />
    <glyph glyph-name="eight.osf" horiz-adv-x="568" 
d="M55 447c0 107 91 197 235 197c150 0 222 -74 222 -154c0 -65 -45 -113 -121 -135c80 -29 140 -77 140 -165c0 -116 -98 -205 -250 -205c-159 0 -239 78 -239 165c0 63 47 113 129 137c-71 28 -116 74 -116 160zM397 140c0 67 -69 93 -182 124c-36 -28 -52 -63 -52 -104
c0 -62 40 -107 126 -107c69 0 108 37 108 87zM190 495c0 -65 56 -92 155 -118c36 29 49 64 49 102c0 50 -36 96 -110 96c-62 0 -94 -36 -94 -80z" />
    <glyph glyph-name="nine.osf" horiz-adv-x="586" 
d="M382 232c-28 -44 -84 -72 -150 -72c-118 0 -199 75 -199 196c0 115 86 219 246 219c177 0 265 -138 265 -311c0 -208 -118 -356 -310 -356c-127 0 -192 60 -192 130c0 50 34 88 84 88c54 0 80 -34 80 -73c0 -26 -12 -48 -31 -61c13 -9 32 -16 61 -16c97 0 144 81 146 256
zM378 363c0 98 -43 142 -98 142s-88 -42 -88 -132c0 -100 33 -140 92 -140c57 0 94 42 94 130z" />
    <glyph glyph-name="dollar.osf" horiz-adv-x="554" 
d="M322 -100h-76v85c-145 8 -220 66 -220 135c0 41 32 74 75 74c44 0 76 -29 76 -67c0 -21 -11 -43 -27 -55c20 -12 54 -23 96 -27v171c-120 30 -204 62 -204 167c0 100 80 171 204 185v74h76v-73c152 -8 198 -79 198 -130c0 -44 -31 -74 -73 -74c-46 0 -75 26 -75 66
c0 21 11 42 25 52c-14 12 -40 22 -76 26v-168c124 -31 204 -66 204 -170c0 -95 -69 -171 -203 -185v-86zM402 123c0 37 -31 57 -83 73v-150c62 8 83 39 83 77zM167 435c0 -42 26 -59 81 -76v149c-57 -8 -81 -36 -81 -73z" />
    <glyph glyph-name="sterling.osf" horiz-adv-x="630" 
d="M478 240h-144c-2 -32 -12 -59 -29 -87c74 -23 113 -47 159 -47c41 0 58 15 77 97l59 -4c-2 -149 -37 -215 -139 -215c-71 0 -137 43 -207 87c-39 -63 -84 -87 -137 -87c-62 0 -103 34 -103 86c0 58 49 105 154 105c18 0 38 -1 59 -4v3c0 22 -12 43 -27 66h-148v75h100
c-11 23 -19 48 -19 78c0 99 96 183 256 183c120 0 196 -55 196 -125c0 -42 -30 -81 -83 -81c-48 0 -76 31 -76 68c0 25 15 47 35 59c-15 8 -36 16 -69 16c-70 0 -105 -38 -105 -81c0 -44 23 -76 37 -117h154v-75zM126 43c32 0 59 18 81 55c-22 11 -45 17 -65 17
c-39 0 -55 -18 -55 -38c0 -19 12 -34 39 -34z" />
    <glyph glyph-name="Euro.osf" horiz-adv-x="669" 
d="M27 300v73h93c39 118 144 203 292 203c130 0 225 -70 225 -155c0 -47 -30 -86 -85 -86c-52 0 -81 33 -81 75c0 29 17 51 35 64c-16 15 -48 27 -88 27c-74 0 -127 -34 -147 -129h158v-72h-167v-26c0 -11 0 -22 1 -32h166v-72h-154c20 -68 66 -98 137 -98
c82 0 129 56 144 142h88c-13 -134 -97 -230 -256 -230c-149 0 -239 75 -271 185h-90v73h77v25c0 11 0 22 1 33h-78z" />
    <glyph glyph-name="yen.osf" horiz-adv-x="660" 
d="M71 344h105l-90 134h-71v82h316v-81h-73l113 -180l111 180h-71v81h239v-82h-74l-91 -134h107v-72h-156l-33 -49v-6h189v-72h-189v-66h93v-79h-329v79h94v66h-190v72h190v2l-36 53h-154v72z" />
    <glyph glyph-name="space" unicode=" " horiz-adv-x="175" 
 />
    <glyph glyph-name="uni00A0" unicode="&#xa0;" horiz-adv-x="175" 
 />
    <glyph glyph-name="emspace" unicode="&#x2003;" horiz-adv-x="1000" 
 />
    <glyph glyph-name="enspace" unicode="&#x2002;" horiz-adv-x="500" 
 />
    <glyph glyph-name="threeperemspace" unicode="&#x2004;" horiz-adv-x="333" 
 />
    <glyph glyph-name="fourperemspace" unicode="&#x2005;" horiz-adv-x="250" 
 />
    <glyph glyph-name="thinspace" unicode="&#x2009;" horiz-adv-x="133" 
 />
    <glyph glyph-name="hairspace" unicode="&#x200a;" horiz-adv-x="75" 
 />
    <glyph glyph-name="hfjslug" horiz-adv-x="694" 
d="M644 -200h-208l-8 14h-163l-8 -14h-207v303c18 0 32 14 32 32c0 17 -14 32 -32 32v554h100l30 79h334l29 -79h101v-921zM400 563v-172h15v78h38v14h-38v66h43v14h-58zM184 563v-172h15v79h47v-79h15v172h-15v-79h-47v79h-15zM460 394c5 -2 14 -4 21 -4c20 0 31 11 31 36
v137h-16v-137c0 -16 -5 -22 -16 -22c-6 0 -15 3 -20 5v-15zM371 465l-13 3c-2 -9 -5 -21 -8 -30h-1l-16 31c13 12 23 26 23 42c0 17 -9 31 -27 31c-17 0 -28 -14 -28 -31c0 -15 6 -24 14 -39c-15 -12 -23 -28 -23 -47c0 -22 12 -37 29 -37c13 0 23 9 29 24h1l12 -24l12 6
l-17 32c5 12 9 25 13 39zM523 323v-46h8v12l8 8l15 -20h10l-20 26l18 20h-10l-20 -24h-1v24h-8zM488 292l10 -15h9l-12 17c5 2 10 6 10 14c0 9 -7 15 -17 15h-20v-46h8v15h12zM426 276c14 0 24 11 24 24c0 12 -10 24 -24 24s-24 -12 -24 -24c0 -13 10 -24 24 -24zM370 301
l-13 22h-9l18 -29v-17h8v17l18 29h-9zM193 323v-46h34v7h-26v13h23v7h-23v12h26v7h-34zM132 323v-46h8v32l25 -32h7v46h-8v-32l-25 32h-7zM241 323l14 -47h8l11 34h1l11 -34h8l14 47h-8l-10 -35h-1l-11 35h-7l-11 -35h-1l-10 35h-8zM327 479c-7 13 -12 22 -12 32
c0 11 6 19 14 19s13 -8 13 -19c0 -12 -5 -21 -15 -32zM342 423c-5 -13 -12 -21 -20 -21c-9 0 -16 10 -16 25c0 13 7 26 16 35zM487 299h-11v17h11c6 0 10 -3 10 -8s-4 -9 -10 -9zM426 283c-10 0 -16 8 -16 17c0 8 6 17 16 17s16 -9 16 -17c0 -9 -6 -17 -16 -17z" />
    <glyph glyph-name="i.dot" horiz-adv-x="345" 
d="M173 537c-54 0 -89 34 -89 83s36 87 89 87c54 0 90 -36 90 -84c0 -49 -37 -86 -90 -86zM31 0v83h76v302h-76v83h222v-385h76v-83h-298z" />
    <glyph glyph-name="acute" unicode="&#xb4;" horiz-adv-x="268" 
d="M38 535l44 116c23 59 43 100 91 100c35 0 63 -29 63 -60c0 -34 -21 -57 -58 -90l-75 -66h-65z" />
    <glyph glyph-name="hungarumlaut" unicode="&#x2dd;" horiz-adv-x="334" 
d="M156 535l48 116c24 59 46 100 91 100c34 0 60 -28 60 -58c0 -33 -21 -57 -57 -90l-74 -68h-68zM-17 535l42 116c21 59 39 100 86 100c35 0 60 -28 60 -58c0 -34 -18 -57 -53 -90l-72 -68h-63z" />
    <glyph glyph-name="caron.alt" horiz-adv-x="238" 
d="M120 527h-52c-8 99 -9 149 -9 162c-1 66 27 93 66 93c32 0 61 -25 61 -64c0 -24 -9 -48 -28 -92z" />
    <glyph glyph-name="grave" unicode="`" horiz-adv-x="268" 
d="M226 535h-65l-74 66c-38 33 -59 56 -59 90c0 31 28 60 63 60c48 0 68 -41 91 -100z" />
    <glyph glyph-name="circumflex" unicode="&#x2c6;" horiz-adv-x="351" 
d="M12 535l124 197h81l122 -197h-85l-80 86l-77 -86h-85z" />
    <glyph glyph-name="caron" unicode="&#x2c7;" horiz-adv-x="351" 
d="M134 538l-122 197h85l80 -86l77 86h85l-124 -197h-81z" />
    <glyph glyph-name="breve" unicode="&#x2d8;" horiz-adv-x="360" 
d="M179 533c-98 0 -157 60 -155 184h69c9 -57 38 -85 87 -85c48 0 77 28 86 85h69c2 -124 -57 -184 -156 -184z" />
    <glyph glyph-name="tilde" unicode="&#x2dc;" horiz-adv-x="401" 
d="M19 532c9 107 35 161 112 161c59 0 115 -48 152 -48c19 0 27 15 34 54h66c-8 -107 -35 -161 -112 -161c-59 0 -115 48 -152 48c-18 0 -27 -15 -34 -54h-66z" />
    <glyph glyph-name="macron" unicode="&#xaf;" horiz-adv-x="363" 
d="M32 540v98h299v-98h-299z" />
    <glyph glyph-name="dieresis" unicode="&#xa8;" horiz-adv-x="385" 
d="M293 538c-46 0 -78 32 -78 76c0 43 33 78 78 78c46 0 77 -33 77 -76s-32 -78 -77 -78zM92 538c-46 0 -78 32 -78 76c0 43 33 78 78 78c46 0 78 -33 78 -76s-32 -78 -78 -78z" />
    <glyph glyph-name="dotaccent" unicode="&#x2d9;" horiz-adv-x="213" 
d="M106 532c-50 0 -85 34 -85 79c0 46 36 82 85 82c51 0 86 -34 86 -79c0 -46 -36 -82 -86 -82z" />
    <glyph glyph-name="ring" unicode="&#x2da;" horiz-adv-x="295" 
d="M148 529c-84 0 -130 53 -130 115s48 117 130 117s129 -53 129 -115s-48 -117 -129 -117zM149 579c30 0 51 24 51 66c0 43 -22 66 -54 66c-29 0 -51 -23 -51 -65c0 -43 23 -67 54 -67z" />
    <glyph glyph-name="commaaccent" unicode="&#x326;" horiz-adv-x="260" 
d="M53 -365l-21 47c70 32 106 68 113 115l-7 4c-7 -8 -19 -16 -37 -16c-35 0 -63 27 -63 69c0 45 34 83 83 83c57 0 95 -42 95 -111c0 -88 -52 -152 -163 -191z" />
    <glyph glyph-name="cedilla" unicode="&#xb8;" horiz-adv-x="337" 
d="M137 -249c-45 0 -94 10 -133 32l29 49c25 -12 57 -20 86 -20c32 0 48 11 48 28c0 21 -26 36 -77 36c-8 0 -16 -1 -27 -3l-23 42l109 92h72l-65 -66l1 -4c79 -9 114 -45 114 -88c0 -60 -49 -98 -134 -98z" />
    <glyph glyph-name="ogonek" unicode="&#x2db;" horiz-adv-x="303" 
d="M135 -250c-81 0 -122 45 -122 100c0 62 39 99 106 147l25 19h86l-32 -28c-57 -52 -73 -82 -73 -112s19 -50 55 -50c21 0 40 8 59 19l24 -52c-34 -22 -77 -43 -128 -43z" />
    </font>
</defs>
</svg>
