<?xml version="1.0" standalone="no"?>
<!DOCTYPE svg PUBLIC "-//W3C//DTD SVG 1.1//EN" "http://www.w3.org/Graphics/SVG/1.1/DTD/svg11.dtd" >
<svg xmlns="http://www.w3.org/2000/svg" xmlns:xlink="http://www.w3.org/1999/xlink" version="1.1">
<metadata>
Created by FontForge 20190801 at Thu Mar 26 12:20:52 2009
 By Jimmy Wärting
Copyright (c) The Font Bureau, Inc., 2008. All rights reserved.
</metadata>
<defs>
<font id="BentonSans-BlackItalic" horiz-adv-x="650" >
  <font-face 
    font-family="BentonSans BlackItalic"
    font-weight="900"
    font-style="italic"
    font-stretch="normal"
    units-per-em="1000"
    panose-1="2 0 5 3 0 0 0 2 0 4"
    ascent="787"
    descent="-213"
    x-height="536"
    cap-height="740"
    bbox="-151 -206 1552 963"
    underline-thickness="50"
    underline-position="-100"
    slope="-10"
    unicode-range="U+0020-FB02"
  />
<missing-glyph horiz-adv-x="286" 
 />
    <glyph glyph-name="fi" unicode="fi" horiz-adv-x="684" 
d="M239 0h-198l69 394h-87l26 142h87l5 32c14 89 59 177 198 177c52 0 101 -6 111 -9l-23 -132c-10 1 -21 3 -41 3c-25 0 -44 -9 -51 -63l-1 -8h86l-26 -142h-86zM560 0h-198l95 536h198zM664 588h-198l26 152h198z" />
    <glyph glyph-name="fl" unicode="fl" horiz-adv-x="684" 
d="M239 0h-198l69 394h-87l26 142h87l5 32c14 89 59 177 198 177c52 0 101 -6 111 -9l-23 -132c-10 1 -21 3 -41 3c-25 0 -44 -9 -51 -63l-1 -8h86l-26 -142h-86zM560 0h-198l131 740h198z" />
    <glyph glyph-name="f_f_l" unicode="ffl" horiz-adv-x="1006" 
d="M59 0l69 394h-87l26 142h87l5 32c14 89 67 177 205 177c39 0 100 -6 110 -9l-24 -133c-8 3 -21 4 -39 4c-25 0 -51 -6 -58 -63l-1 -8h124l5 32c14 89 59 177 198 177c52 0 101 -6 111 -9l-23 -132c-10 1 -21 3 -41 3c-25 0 -44 -9 -51 -63l-1 -8h86l-26 -142h-86
l-69 -394h-198l69 394h-124l-69 -394h-198zM702 0l131 740h198l-131 -740h-198z" />
    <glyph glyph-name="f_f_i" unicode="ffi" horiz-adv-x="1006" 
d="M41 0l69 394h-87l26 142h87l5 32c14 89 67 177 205 177c39 0 100 -6 110 -9l-24 -133c-8 3 -21 4 -39 4c-25 0 -51 -6 -58 -63l-1 -8h124l5 32c14 89 59 177 198 177c52 0 101 -6 111 -9l-23 -132c-10 1 -21 3 -41 3c-25 0 -44 -9 -51 -63l-1 -8h86l-26 -142h-86
l-69 -394h-198l69 394h-124l-69 -394h-198zM684 0l95 536h198l-95 -536h-198zM788 588l26 152h198l-26 -152h-198z" />
    <glyph glyph-name="f_f" unicode="ff" horiz-adv-x="757" 
d="M41 0l69 394h-87l26 142h87l5 32c14 89 67 177 205 177c39 0 100 -6 110 -9l-24 -133c-8 3 -21 4 -39 4c-25 0 -51 -6 -58 -63l-1 -8h124l5 32c14 89 48 177 230 177c39 0 110 -6 120 -9l-24 -135c-8 3 -34 6 -61 6c-25 0 -64 -6 -71 -63l-1 -8h116l-26 -142h-116
l-69 -394h-198l69 394h-124l-69 -394h-198z" />
    <glyph glyph-name="f_j" unicode="fj" horiz-adv-x="684" 
d="M41 0l69 394h-87l26 142h87l5 32c14 89 59 177 198 177c52 0 101 -6 111 -9l-23 -132c-10 1 -21 3 -41 3c-25 0 -44 -9 -51 -63l-1 -8h86l-26 -142h-86l-69 -394h-198zM365 -206c-59 0 -116 5 -149 11l23 130c14 -3 38 -6 60 -6c39 0 52 12 62 68l96 539h198l-104 -591
c-14 -75 -54 -151 -186 -151zM466 588l26 152h198l-26 -152h-198z" />
    <glyph glyph-name=".notdef" horiz-adv-x="286" 
 />
    <glyph glyph-name=".notdef" horiz-adv-x="286" 
 />
    <glyph glyph-name="zero" unicode="0" horiz-adv-x="703" 
d="M323 141c113 0 159 173 159 319c0 87 -31 135 -99 135c-110 0 -159 -170 -159 -317c0 -89 31 -137 99 -137zM316 -14c-197 0 -290 127 -290 306c0 295 176 462 365 462c196 0 289 -130 289 -309c0 -299 -174 -459 -364 -459z" />
    <glyph glyph-name="one" unicode="1" horiz-adv-x="469" 
d="M395 0h-438l27 154h131l72 409c-39 -19 -92 -34 -135 -34l29 163c57 2 103 17 141 48h190l-103 -586h113z" />
    <glyph glyph-name="two" unicode="2" horiz-adv-x="615" 
d="M514 0h-561l2 16c50 399 453 335 453 514c0 35 -23 58 -74 58c-39 0 -98 -22 -151 -82l-121 109c77 91 176 139 287 139c175 0 258 -83 258 -196c0 -286 -390 -299 -411 -404h345z" />
    <glyph glyph-name="three" unicode="3" horiz-adv-x="626" 
d="M274 -14c-157 0 -241 43 -316 143l143 106c42 -56 104 -92 160 -92c61 0 110 26 110 94c0 58 -55 75 -140 75h-31l25 144h32c147 0 152 51 152 83c0 30 -21 52 -88 52c-36 0 -104 -15 -154 -50l-89 128c83 63 167 84 266 84c182 0 270 -69 270 -176
c0 -105 -61 -167 -173 -191c93 -15 137 -86 137 -162c0 -174 -161 -238 -304 -238z" />
    <glyph glyph-name="four" unicode="4" horiz-adv-x="685" 
d="M489 0h-185l23 130h-350l25 145l409 465h208l-80 -455h125l-27 -155h-125zM390 500l-186 -215h150l38 215h-2z" />
    <glyph glyph-name="five" unicode="5" horiz-adv-x="610" 
d="M266 -14c-167 0 -238 42 -303 94l110 134c44 -35 105 -71 186 -71c73 0 121 36 121 127c0 52 -27 90 -101 90c-39 0 -73 -18 -118 -61l-119 38l101 403h463l-36 -148h-302l-33 -125c23 17 71 37 125 37c160 0 223 -97 223 -214c0 -204 -143 -304 -317 -304z" />
    <glyph glyph-name="six" unicode="6" horiz-adv-x="661" 
d="M321 -14c-196 0 -297 118 -297 299c0 330 198 469 375 469c132 0 211 -32 254 -63l-90 -144c-46 29 -93 46 -162 46c-88 0 -146 -62 -172 -170c43 29 107 59 191 59c106 0 201 -62 201 -198c0 -201 -151 -298 -300 -298zM213 297v-26c0 -121 61 -136 112 -136
c75 0 105 72 105 127c0 39 -16 75 -79 75c-54 0 -98 -16 -138 -40z" />
    <glyph glyph-name="seven" unicode="7" horiz-adv-x="525" 
d="M198 0h-202l370 582h-331l27 158h534l-25 -145z" />
    <glyph glyph-name="eight" unicode="8" 
d="M304 -14c-211 0 -313 78 -313 194c0 118 100 184 185 212c-49 36 -86 84 -86 154c0 115 99 208 269 208c210 0 281 -98 281 -187c0 -105 -80 -161 -140 -188c61 -36 111 -85 111 -167c0 -167 -142 -226 -307 -226zM196 197c0 -41 27 -78 101 -78c68 0 111 42 111 94
c0 45 -48 74 -106 105c-65 -32 -106 -74 -106 -121zM443 554c0 30 -15 62 -77 62c-60 0 -84 -37 -84 -76c0 -43 38 -70 88 -96c64 37 73 84 73 110z" />
    <glyph glyph-name="nine" unicode="9" horiz-adv-x="661" 
d="M265 -14c-132 0 -211 32 -254 63l90 135c46 -29 93 -46 162 -46c88 0 146 67 172 179c-43 -30 -107 -59 -191 -59c-106 0 -201 62 -201 198c0 201 151 298 300 298c196 0 297 -118 297 -299c0 -330 -190 -469 -375 -469zM451 469c0 116 -61 131 -112 131
c-75 0 -105 -67 -105 -122c0 -39 16 -75 79 -75c54 0 97 15 137 39c1 9 1 18 1 27z" />
    <glyph glyph-name="A" unicode="A" horiz-adv-x="720" 
d="M135 0h-189l388 743h186l126 -743h-195l-19 138h-227zM382 485l-105 -205h135l-28 205h-2z" />
    <glyph glyph-name="B" unicode="B" horiz-adv-x="714" 
d="M305 587l-26 -142h92c62 0 99 26 99 80c0 40 -27 62 -106 62h-59zM255 307l-28 -157h110c59 0 104 27 104 90c0 45 -33 67 -118 67h-68zM348 0h-343l130 740h263c140 0 271 -33 271 -163c0 -140 -83 -178 -165 -193l-1 -2c75 -14 131 -58 131 -150
c0 -204 -184 -232 -286 -232z" />
    <glyph glyph-name="C" unicode="C" horiz-adv-x="731" 
d="M340 -14c-187 0 -314 106 -314 310c0 288 165 458 389 458c232 0 287 -134 299 -266l-199 -17c-5 61 -28 118 -110 118c-125 0 -178 -143 -178 -289c0 -92 37 -154 122 -154c68 0 118 47 153 141l177 -64c-63 -146 -158 -237 -339 -237z" />
    <glyph glyph-name="D" unicode="D" horiz-adv-x="743" 
d="M304 574l-73 -413h65c160 0 221 93 221 265c0 94 -49 148 -190 148h-23zM267 0h-263l130 740h203c221 0 382 -92 382 -307c0 -331 -213 -433 -452 -433z" />
    <glyph glyph-name="E" unicode="E" horiz-adv-x="635" 
d="M539 0h-535l130 740h518l-29 -166h-318l-21 -120h224l-27 -156h-224l-25 -137h335z" />
    <glyph glyph-name="F" unicode="F" horiz-adv-x="585" 
d="M204 0h-200l130 740h501l-29 -166h-301l-26 -148h207l-27 -156h-207z" />
    <glyph glyph-name="G" unicode="G" horiz-adv-x="772" 
d="M304 -14c-193 0 -278 132 -278 305c0 302 179 463 390 463c170 0 273 -74 300 -245l-192 -29c-9 64 -50 109 -118 109c-111 0 -176 -113 -176 -281c0 -129 72 -162 117 -162c64 0 116 35 146 89h-108l26 146h298l-67 -381h-157l17 98h-2c-16 -36 -85 -112 -196 -112z" />
    <glyph glyph-name="H" unicode="H" horiz-adv-x="774" 
d="M204 0h-200l130 740h200l-48 -275h236l48 275h200l-130 -740h-200l53 299h-236z" />
    <glyph glyph-name="I" unicode="I" horiz-adv-x="350" 
d="M210 0h-200l130 740h200z" />
    <glyph glyph-name="J" unicode="J" horiz-adv-x="550" 
d="M206 -14c-102 0 -189 23 -256 75l96 135c41 -29 98 -52 137 -52c49 0 81 22 95 104l86 492h200l-93 -530c-24 -137 -97 -224 -265 -224z" />
    <glyph glyph-name="K" unicode="K" horiz-adv-x="728" 
d="M653 0h-213l-129 311l-63 -63l-43 -248h-200l130 740h200l-46 -261l262 261h209l-294 -292z" />
    <glyph glyph-name="L" unicode="L" horiz-adv-x="585" 
d="M505 0h-501l130 740h200l-102 -579h301z" />
    <glyph glyph-name="M" unicode="M" horiz-adv-x="913" 
d="M183 0h-178l130 740h265l37 -502h2l200 502h271l-130 -740h-191l81 458h-2c-26 -76 -47 -123 -72 -180l-122 -278h-176l-22 278c-5 60 -10 93 -8 190h-2z" />
    <glyph glyph-name="N" unicode="N" horiz-adv-x="781" 
d="M188 0h-183l130 740h197l188 -415h2l73 415h183l-130 -740h-185l-200 414h-2z" />
    <glyph glyph-name="O" unicode="O" horiz-adv-x="785" 
d="M364 146c103 0 194 101 194 282c0 97 -43 161 -136 161c-104 0 -195 -94 -195 -277c0 -98 44 -166 137 -166zM356 -14c-184 0 -330 110 -330 321c0 303 208 447 415 447c174 0 319 -111 319 -322c0 -301 -202 -446 -404 -446z" />
    <glyph glyph-name="P" unicode="P" horiz-adv-x="680" 
d="M4 0l130 740h227c178 0 322 -47 322 -215c0 -235 -171 -289 -330 -289h-109l-42 -236h-198zM270 388h96c80 0 118 39 118 111c0 45 -28 79 -124 79h-56z" />
    <glyph glyph-name="Q" unicode="Q" horiz-adv-x="785" 
d="M577 -203h-122c-166 0 -234 78 -229 214c-119 39 -200 137 -200 296c0 303 208 447 415 447c174 0 319 -111 319 -322c0 -278 -172 -418 -357 -437c4 -40 33 -42 151 -42h51zM364 146c103 0 194 101 194 282c0 97 -43 161 -136 161c-104 0 -195 -94 -195 -277
c0 -98 44 -166 137 -166z" />
    <glyph glyph-name="R" unicode="R" horiz-adv-x="709" 
d="M201 0h-196l130 740h239c204 0 309 -68 309 -207c0 -185 -115 -236 -190 -250l108 -283h-199l-98 257h-58zM303 578l-30 -169h96c65 0 115 19 115 99c0 47 -34 70 -115 70h-66z" />
    <glyph glyph-name="S" unicode="S" horiz-adv-x="699" 
d="M322 -15c-168 0 -278 60 -340 192l172 72c33 -67 92 -106 183 -106c41 0 102 9 102 64c0 108 -363 71 -363 300c0 182 159 248 294 248c156 0 254 -64 310 -147l-157 -102c-32 47 -91 87 -161 87c-54 0 -87 -18 -87 -60c0 -108 364 -80 364 -290
c0 -156 -117 -258 -317 -258z" />
    <glyph glyph-name="T" unicode="T" 
d="M360 0h-200l101 574h-208l29 166h616l-29 -166h-208z" />
    <glyph glyph-name="U" unicode="U" horiz-adv-x="719" 
d="M324 -11c-246 0 -312 130 -278 326l74 425h200l-76 -437c-18 -102 0 -153 90 -153c70 0 104 35 122 137l79 453h196l-83 -471c-35 -196 -138 -280 -324 -280z" />
    <glyph glyph-name="V" unicode="V" horiz-adv-x="704" 
d="M382 -3h-190l-116 743h199l59 -481h2l235 481h189z" />
    <glyph glyph-name="W" unicode="W" horiz-adv-x="959" 
d="M312 0h-170l-62 740h201l7 -291c1 -48 3 -86 5 -153h2l57 152l112 292h181l15 -293c3 -56 4 -80 6 -151h2c26 72 32 91 54 149l106 295h183l-317 -740h-167l-19 463h-2z" />
    <glyph glyph-name="X" unicode="X" horiz-adv-x="742" 
d="M646 0h-205l-103 231l-161 -231h-208l296 397l-151 343h205l87 -197l136 197h208l-270 -364z" />
    <glyph glyph-name="Y" unicode="Y" horiz-adv-x="711" 
d="M391 0h-200l54 309l-177 431h203l102 -262l195 262h207l-330 -431z" />
    <glyph glyph-name="Z" unicode="Z" horiz-adv-x="665" 
d="M567 0h-606l24 137l429 437h-328l29 166h582l-25 -142l-419 -437h342z" />
    <glyph glyph-name="a" unicode="a" horiz-adv-x="579" 
d="M225 139c39 0 59 15 79 31l13 76c-83 0 -140 -21 -140 -67c0 -23 16 -40 48 -40zM125 -8c-86 0 -150 56 -150 143c0 144 128 204 360 212l1 7c4 28 -10 45 -56 45c-40 0 -99 -12 -160 -38l-61 122c51 32 153 63 263 63c184 0 229 -95 201 -235l-33 -181
c-10 -58 -14 -85 -8 -130h-196c-3 27 -3 50 2 78c-47 -56 -104 -86 -163 -86z" />
    <glyph glyph-name="b" unicode="b" horiz-adv-x="626" 
d="M288 138c59 0 102 70 102 171c0 43 -17 74 -64 74c-28 0 -62 -20 -78 -39l-32 -176c17 -16 43 -30 72 -30zM352 -9c-79 0 -124 24 -156 62l-10 -53h-196l130 740h198l-51 -288c29 46 86 93 155 93c108 0 170 -76 170 -205c0 -197 -95 -349 -240 -349z" />
    <glyph glyph-name="c" unicode="c" horiz-adv-x="554" 
d="M259 -11c-138 0 -258 64 -258 231c0 247 168 326 303 326c166 0 220 -69 240 -192l-175 -29c-10 58 -25 79 -72 79c-54 0 -97 -71 -97 -192c0 -50 12 -86 66 -86c27 0 57 19 87 89l155 -61c-30 -70 -90 -165 -249 -165z" />
    <glyph glyph-name="d" unicode="d" horiz-adv-x="626" 
d="M265 139c31 0 60 20 76 39l32 176c-17 16 -38 30 -72 30c-53 0 -102 -56 -102 -171c0 -44 17 -74 66 -74zM169 -8c-83 0 -170 50 -170 205c0 231 118 349 240 349c72 0 121 -20 156 -62l45 256h198l-107 -610c-11 -64 -14 -103 -7 -130h-202c-6 11 -3 53 2 80
c-36 -51 -76 -88 -155 -88z" />
    <glyph glyph-name="e" unicode="e" horiz-adv-x="579" 
d="M263 -11c-147 0 -262 67 -262 230c0 279 220 327 313 327c161 0 255 -90 219 -305l-5 -30h-334c1 -72 44 -87 98 -87c60 0 110 24 148 49l72 -114c-55 -42 -134 -70 -249 -70zM209 324h164c2 51 -12 84 -70 84c-43 0 -76 -30 -94 -84z" />
    <glyph glyph-name="f" unicode="f" horiz-adv-x="435" 
d="M239 0h-198l69 394h-87l26 142h87l5 32c14 89 48 177 230 177c39 0 110 -6 120 -9l-24 -135c-8 3 -34 6 -61 6c-25 0 -64 -6 -71 -63l-1 -8h116l-26 -142h-116z" />
    <glyph glyph-name="g" unicode="g" horiz-adv-x="625" 
d="M267 164c-36 0 -68 4 -96 11c-7 -8 -10 -15 -10 -20c0 -24 64 -27 138 -36c103 -12 225 -36 225 -147c0 -141 -149 -172 -317 -172c-214 0 -297 55 -297 122c0 60 63 101 101 115c-13 13 -20 29 -20 49c0 26 15 84 103 125c-44 34 -64 82 -64 133c0 128 107 202 268 202
c91 0 150 -26 185 -65c41 37 124 63 159 64l-26 -147c-36 0 -69 -5 -92 -9c1 -9 2 -18 2 -26c0 -125 -100 -199 -259 -199zM96 -47c0 -37 42 -58 151 -58c53 0 97 14 97 35c0 30 -59 39 -129 48c-35 5 -73 9 -107 17c-6 -13 -12 -31 -12 -42zM278 269c42 0 70 37 70 91
c0 35 -10 65 -58 65c-41 0 -75 -37 -75 -90c0 -36 14 -66 63 -66z" />
    <glyph glyph-name="h" unicode="h" horiz-adv-x="623" 
d="M188 0h-198l130 740h198l-50 -287c24 35 81 93 174 93c94 0 155 -51 135 -166l-67 -380h-198l57 326c7 37 -6 58 -39 58c-28 0 -63 -20 -81 -38z" />
    <glyph glyph-name="i" unicode="i" horiz-adv-x="316" 
d="M296 588h-198l26 152h198zM192 0h-198l95 536h198z" />
    <glyph glyph-name="j" unicode="j" horiz-adv-x="316" 
d="M297 588h-198l26 152h198zM-2 -206c-59 0 -116 5 -149 11l23 130c14 -3 38 -6 60 -6c39 0 52 12 62 68l96 539h198l-104 -591c-14 -75 -54 -151 -186 -151z" />
    <glyph glyph-name="k" unicode="k" horiz-adv-x="598" 
d="M188 0h-198l130 740h198l-64 -362l159 158h201l-210 -206l121 -330h-198l-74 201l-36 -35z" />
    <glyph glyph-name="l" unicode="l" horiz-adv-x="316" 
d="M192 0h-198l130 740h198z" />
    <glyph glyph-name="m" unicode="m" horiz-adv-x="929" 
d="M188 0h-198l95 536h198l-15 -83c24 35 73 93 166 93c71 0 122 -29 135 -93c29 40 81 93 179 93c94 0 155 -51 135 -166l-67 -380h-198l57 326c7 37 -6 58 -39 58c-26 0 -54 -19 -73 -36l-61 -348h-198l57 326c7 37 -6 58 -39 58c-25 0 -55 -20 -73 -38z" />
    <glyph glyph-name="n" unicode="n" horiz-adv-x="623" 
d="M188 0h-198l95 536h198l-15 -83c24 35 81 93 174 93c94 0 155 -51 135 -166l-67 -380h-198l57 326c7 37 -6 58 -39 58c-28 0 -63 -20 -81 -38z" />
    <glyph glyph-name="o" unicode="o" horiz-adv-x="612" 
d="M273 126c57 0 103 68 103 186c0 53 -18 92 -74 92c-57 0 -102 -69 -102 -187c0 -52 17 -91 73 -91zM259 -11c-125 0 -258 66 -258 235c0 250 172 322 316 322c126 0 258 -62 258 -233c0 -247 -171 -324 -316 -324z" />
    <glyph glyph-name="p" unicode="p" horiz-adv-x="626" 
d="M288 138c59 0 102 70 102 171c0 43 -17 74 -64 74c-28 0 -62 -20 -78 -39l-32 -176c17 -16 43 -30 72 -30zM152 -201h-198l131 737h198l-16 -84c29 46 86 93 155 93c108 0 170 -76 170 -205c0 -197 -95 -349 -240 -349c-79 0 -124 24 -156 62z" />
    <glyph glyph-name="q" unicode="q" horiz-adv-x="626" 
d="M265 139c31 0 60 20 76 39l32 176c-17 16 -38 30 -72 30c-53 0 -102 -56 -102 -171c0 -44 17 -74 66 -74zM473 -200h-198l48 275c-34 -48 -75 -83 -154 -83c-103 0 -170 70 -170 205c0 237 121 349 241 349c88 0 126 -27 155 -62l10 52h198z" />
    <glyph glyph-name="r" unicode="r" horiz-adv-x="435" 
d="M188 0h-198l95 536h198l-15 -83h1c29 37 85 93 183 93h2l-31 -175c-7 1 -35 4 -49 4c-56 0 -99 -28 -129 -49z" />
    <glyph glyph-name="s" unicode="s" horiz-adv-x="535" 
d="M239 -11c-144 0 -226 34 -277 77l92 111c45 -37 115 -65 186 -65c25 0 56 6 56 35c0 66 -259 32 -259 204c0 146 125 195 219 195c126 0 195 -26 253 -69l-83 -114c-47 33 -100 54 -153 54c-23 0 -46 -6 -46 -34c0 -67 260 -36 260 -196c0 -168 -156 -198 -248 -198z" />
    <glyph glyph-name="t" unicode="t" horiz-adv-x="452" 
d="M238 -7c-182 0 -192 74 -174 178l40 223h-87l26 142h87l31 180h198l-31 -180h137l-26 -142h-137l-33 -189c-10 -57 2 -71 58 -71c17 0 43 3 53 6l-25 -138c-10 -3 -78 -9 -117 -9z" />
    <glyph glyph-name="u" unicode="u" horiz-adv-x="623" 
d="M148 -10c-94 0 -155 51 -135 166l67 380h198l-59 -332c-7 -37 6 -58 39 -58c28 0 63 20 81 38l63 352h198l-95 -536h-198l15 83c-24 -35 -81 -93 -174 -93z" />
    <glyph glyph-name="v" unicode="v" horiz-adv-x="542" 
d="M307 0h-200l-89 536h200l32 -319h2l147 319h187z" />
    <glyph glyph-name="w" unicode="w" horiz-adv-x="776" 
d="M259 0h-183l-53 536h198l3 -163c0 -51 0 -98 -1 -156h2c24 66 40 107 62 161l64 158h150l10 -160c3 -52 6 -91 6 -159h2c24 66 39 105 59 157l64 162h173l-243 -536h-183l-15 281h-2z" />
    <glyph glyph-name="x" unicode="x" horiz-adv-x="553" 
d="M139 0h-200l223 280l-114 256h205l49 -111l80 111h200l-211 -265l122 -271h-205l-57 127z" />
    <glyph glyph-name="y" unicode="y" horiz-adv-x="564" 
d="M79 -205c-90 0 -152 18 -184 30l62 153c19 -9 76 -25 106 -25c28 0 43 7 56 31l7 13l-103 539h203l40 -306h2l148 306h191l-331 -603c-51 -92 -107 -138 -197 -138z" />
    <glyph glyph-name="z" unicode="z" horiz-adv-x="530" 
d="M449 0h-489l17 99l269 295h-201l26 142h451l-19 -103l-270 -295h240z" />
    <glyph glyph-name="ampersand" unicode="&#x26;" horiz-adv-x="742" 
d="M257 -14c-199 0 -285 81 -285 185c0 145 100 201 207 240c-14 47 -22 94 -22 135c0 125 89 208 231 208c158 0 210 -83 210 -161c0 -135 -102 -186 -205 -226c7 -13 16 -27 26 -41c22 -32 41 -58 58 -79c27 39 49 85 66 138h166c-28 -93 -69 -167 -117 -226
c30 -9 67 -11 118 -11l-28 -158c-95 0 -169 14 -234 48c-64 -36 -131 -52 -191 -52zM260 229c-12 19 -24 41 -35 64c-31 -23 -50 -52 -50 -93c0 -48 31 -80 96 -80c21 0 42 3 62 10c-25 28 -49 61 -73 99zM437 584c0 27 -13 45 -38 45c-27 0 -59 -18 -59 -82
c0 -21 3 -46 10 -75c52 24 87 57 87 112z" />
    <glyph glyph-name="period" unicode="." horiz-adv-x="287" 
d="M183 0h-207l32 180h207z" />
    <glyph glyph-name="comma" unicode="," horiz-adv-x="287" 
d="M75 -127h-92l72 127h-79l32 180h207l-27 -153z" />
    <glyph glyph-name="colon" unicode=":" horiz-adv-x="305" 
d="M255 356h-207l32 180h207zM192 0h-207l32 180h207z" />
    <glyph glyph-name="semicolon" unicode=";" horiz-adv-x="305" 
d="M255 356h-207l32 180h207zM81 -127h-92l72 127h-76l32 180h207l-26 -148z" />
    <glyph glyph-name="ellipsis" unicode="&#x2026;" horiz-adv-x="861" 
d="M757 0h-207l32 180h207zM470 0h-207l32 180h207zM183 0h-207l32 180h207z" />
    <glyph glyph-name="exclamdown" unicode="&#xa1;" horiz-adv-x="375" 
d="M323 570h-207l29 170h207zM243 0h-249l135 493h153z" />
    <glyph glyph-name="exclam" unicode="!" horiz-adv-x="385" 
d="M25 0l30 170h207l-30 -170h-207zM96 247l38 493h249l-134 -493h-153z" />
    <glyph glyph-name="questiondown" unicode="&#xbf;" horiz-adv-x="607" 
d="M466 570h-207l30 170h207zM257 -14c-180 0 -249 80 -249 173c0 150 106 165 183 208c43 24 77 57 77 129h163c-1 -30 -3 -48 -7 -75c-12 -88 -71 -121 -124 -146c-49 -23 -93 -40 -93 -86c0 -29 18 -48 69 -48c48 0 125 26 169 66l98 -115c-75 -67 -186 -106 -286 -106z
" />
    <glyph glyph-name="question" unicode="?" horiz-adv-x="608" 
d="M326 0h-207l30 170h207zM347 244h-163c1 30 3 48 7 75c12 88 71 121 124 146c49 23 93 40 93 86c0 29 -18 48 -69 48c-48 0 -125 -26 -169 -66l-98 115c75 67 186 106 286 106c180 0 249 -80 249 -173c0 -150 -106 -165 -183 -208c-43 -24 -77 -57 -77 -129z" />
    <glyph glyph-name="parenleft" unicode="(" horiz-adv-x="406" 
d="M309 -118l-114 -79c-114 123 -180 251 -180 406c0 248 137 432 354 569l75 -102c-132 -113 -225 -300 -225 -490c0 -115 34 -218 90 -304z" />
    <glyph glyph-name="parenright" unicode=")" horiz-adv-x="406" 
d="M11 -199l-82 97c136 113 232 303 232 495c0 113 -32 213 -85 297l109 86c114 -122 181 -251 181 -405c0 -248 -139 -432 -355 -570z" />
    <glyph glyph-name="bracketleft" unicode="[" horiz-adv-x="456" 
d="M336 -200h-373l165 940h373l-23 -136h-174l-118 -668h174z" />
    <glyph glyph-name="bracketright" unicode="]" horiz-adv-x="456" 
d="M295 -200h-373l24 136h174l118 668h-174l23 136h373z" />
    <glyph glyph-name="braceleft" unicode="{" horiz-adv-x="456" 
d="M344 -200h-144c-112 0 -156 66 -140 153l22 128c18 98 -15 120 -90 120l25 138c75 0 115 22 132 120l23 128c15 87 81 153 173 153h164l-23 -136h-34c-54 0 -84 -29 -93 -80l-16 -94c-17 -98 -56 -141 -113 -159l-1 -2c51 -18 75 -61 57 -159l-16 -94
c-9 -51 10 -80 64 -80h34z" />
    <glyph glyph-name="braceright" unicode="}" horiz-adv-x="456" 
d="M98 -200h-184l24 136h34c54 0 83 29 92 80l20 114c17 98 52 121 109 139l1 2c-51 18 -78 41 -61 139l20 114c9 51 -9 80 -63 80h-34l23 136h164c112 0 139 -46 124 -133l-26 -148c-17 -98 15 -120 90 -120l-25 -138c-75 0 -114 -22 -132 -120l-26 -148
c-15 -87 -58 -133 -150 -133z" />
    <glyph glyph-name="hyphen" unicode="-" horiz-adv-x="357" 
d="M297 250h-277l23 128h277z" />
    <glyph glyph-name="hyphen" unicode="&#xad;" horiz-adv-x="357" 
d="M297 250h-277l23 128h277z" />
    <glyph glyph-name="underscore" unicode="_" horiz-adv-x="500" 
d="M406 -171h-500l23 134h500z" />
    <glyph glyph-name="endash" unicode="&#x2013;" horiz-adv-x="690" 
d="M616 228h-590l29 165h590z" />
    <glyph glyph-name="emdash" unicode="&#x2014;" horiz-adv-x="950" 
d="M876 227h-850l29 166h850z" />
    <glyph glyph-name="quoteleft" unicode="&#x2018;" horiz-adv-x="287" 
d="M254 433h-197l29 164l114 143h92l-72 -127h66z" />
    <glyph glyph-name="quoteright" unicode="&#x2019;" horiz-adv-x="287" 
d="M165 433h-92l73 127h-66l31 180h197l-28 -164z" />
    <glyph glyph-name="quotedblleft" unicode="&#x201c;" horiz-adv-x="548" 
d="M515 433h-197l29 164l114 143h92l-72 -127h66zM254 433h-197l29 164l114 143h92l-72 -127h66z" />
    <glyph glyph-name="quotedblright" unicode="&#x201d;" horiz-adv-x="548" 
d="M426 433h-92l73 127h-66l31 180h197l-28 -164zM165 433h-92l73 127h-66l31 180h197l-28 -164z" />
    <glyph glyph-name="quotesinglbase" unicode="&#x201a;" horiz-adv-x="287" 
d="M67 -127h-92l72 127h-66l32 180h197l-29 -164z" />
    <glyph glyph-name="quotedblbase" unicode="&#x201e;" horiz-adv-x="548" 
d="M328 -127h-92l72 127h-66l32 180h197l-29 -164zM67 -127h-92l72 127h-66l32 180h197l-29 -164z" />
    <glyph glyph-name="guillemotleft" unicode="&#xab;" horiz-adv-x="679" 
d="M597 0h-186l-127 268l222 268h186l-213 -268zM311 0h-186l-127 268l222 268h186l-213 -268z" />
    <glyph glyph-name="guillemotright" unicode="&#xbb;" horiz-adv-x="679" 
d="M426 0h-186l212 268l-117 268h186l126 -268zM140 0h-186l212 268l-117 268h186l126 -268z" />
    <glyph glyph-name="guilsinglleft" unicode="&#x2039;" horiz-adv-x="393" 
d="M311 0h-186l-127 268l222 268h186l-213 -268z" />
    <glyph glyph-name="guilsinglright" unicode="&#x203a;" horiz-adv-x="393" 
d="M140 0h-186l212 268l-117 268h186l126 -268z" />
    <glyph glyph-name="brokenbar" unicode="&#xa6;" horiz-adv-x="422" 
d="M308 331h-196v409h196v-409zM308 -200h-196v409h196v-409z" />
    <glyph glyph-name="slash" unicode="/" horiz-adv-x="688" 
d="M171 0h-212l560 740h212z" />
    <glyph glyph-name="backslash" unicode="\" horiz-adv-x="628" 
d="M561 0h-192l-300 740h192z" />
    <glyph glyph-name="bar" unicode="|" horiz-adv-x="422" 
d="M308 -200h-196v940h196v-940z" />
    <glyph glyph-name="asterisk" unicode="*" horiz-adv-x="508" 
d="M416 314l-106 -40l-44 151l-91 -128l-87 74l110 112l-156 16l19 109l154 -38l-66 143l106 40l42 -152l92 129l88 -75l-112 -112l157 -16l-19 -109l-153 38z" />
    <glyph glyph-name="dagger" unicode="&#x2020;" horiz-adv-x="623" 
d="M315 -200h-205l126 546l-219 -19l31 179l213 -20l14 254h205l-74 -254l219 20l-31 -179l-213 19z" />
    <glyph glyph-name="daggerdbl" unicode="&#x2021;" horiz-adv-x="623" 
d="M315 -200h-205l63 191l-194 -20l30 169l187 -19v148l53 149l-195 -19l30 169l188 -20l3 192h210l-68 -192l194 20l-30 -169l-187 19l-1 -149l-52 -148l195 19l-30 -169l-188 20z" />
    <glyph glyph-name="periodcentered" unicode="&#xb7;" horiz-adv-x="297" 
d="M238 254h-217l32 180h217z" />
    <glyph glyph-name="periodcentered" unicode="&#x2219;" horiz-adv-x="297" 
d="M238 254h-217l32 180h217z" />
    <glyph glyph-name="bullet" unicode="&#x2022;" horiz-adv-x="463" 
d="M223 207c-82 0 -143 61 -143 143c0 83 61 144 143 144c83 0 144 -61 144 -144c0 -82 -61 -143 -144 -143z" />
    <glyph glyph-name="quotesingle" unicode="'" horiz-adv-x="276" 
d="M221 463h-130l17 196l14 81h164l-14 -81z" />
    <glyph glyph-name="quotedbl" unicode="&#x22;" horiz-adv-x="482" 
d="M427 463h-130l17 196l14 81h164l-14 -81zM221 463h-130l17 196l14 81h164l-14 -81z" />
    <glyph glyph-name="AE" unicode="&#xc6;" horiz-adv-x="1096" 
d="M566 571l-168 -228h128l41 228h-1zM147 0h-201l551 740h615l-29 -166h-318l-21 -120h224l-27 -156h-224l-25 -137h335l-28 -161h-533l35 198h-209z" />
    <glyph glyph-name="OE" unicode="&#x152;" horiz-adv-x="1106" 
d="M1009 0h-509l10 51c-42 -45 -104 -65 -190 -65c-148 0 -294 110 -294 321c0 303 208 447 399 447c91 0 148 -24 190 -63l9 49h498l-29 -166h-318l-21 -120h224l-27 -156h-224l-25 -137h335zM364 146c103 0 194 101 194 282c0 97 -43 161 -136 161
c-104 0 -195 -94 -195 -277c0 -98 44 -166 137 -166z" />
    <glyph glyph-name="Eth" unicode="&#xd0;" horiz-adv-x="744" 
d="M267 0h-263l52 300h-57l25 146h58l52 294h203c221 0 382 -92 382 -307c0 -331 -213 -433 -452 -433zM255 300l-24 -139h65c160 0 221 93 221 265c0 94 -49 148 -190 148h-23l-23 -128h148l-25 -146h-149z" />
    <glyph glyph-name="Thorn" unicode="&#xde;" horiz-adv-x="680" 
d="M289 474l-34 -192h86c80 0 118 39 118 111c0 45 -28 81 -124 81h-46zM205 0h-200l130 740h200l-17 -100h23c178 0 325 -53 325 -223c0 -250 -186 -291 -336 -291h-103z" />
    <glyph glyph-name="Lslash" unicode="&#x141;" horiz-adv-x="585" 
d="M505 0h-501l54 310l-81 -20l25 146l82 21l50 283h200l-41 -230l143 36l-25 -146l-144 -37l-35 -202h301z" />
    <glyph glyph-name="Oslash" unicode="&#xd8;" horiz-adv-x="785" 
d="M356 -14c-84 0 -159 23 -217 67l-93 -88l-79 75l100 95c-26 47 -41 104 -41 172c0 303 208 447 415 447c79 0 151 -23 207 -68l94 89l78 -75l-101 -96c26 -47 41 -104 41 -172c0 -301 -202 -446 -404 -446zM364 142c103 0 198 105 198 286c0 12 -1 24 -2 35l-296 -282
c23 -25 56 -39 100 -39zM422 593c-104 0 -199 -98 -199 -281c0 -13 0 -25 2 -37l295 280c-23 24 -55 38 -98 38z" />
    <glyph glyph-name="Aacute" unicode="&#xc1;" horiz-adv-x="720" 
d="M135 0h-189l388 743h186l126 -743h-195l-19 138h-227zM382 485l-105 -205h135l-28 205h-2zM488 782h-131l125 181h190z" />
    <glyph glyph-name="Acircumflex" unicode="&#xc2;" horiz-adv-x="720" 
d="M135 0h-189l388 743h186l126 -743h-195l-19 138h-227zM382 485l-105 -205h135l-28 205h-2zM351 787h-111l160 176h130l98 -176h-111l-72 64z" />
    <glyph glyph-name="Adieresis" unicode="&#xc4;" horiz-adv-x="720" 
d="M135 0h-189l388 743h186l126 -743h-195l-19 138h-227zM382 485l-105 -205h135l-28 205h-2zM623 775h-160l31 175h160zM396 775h-160l31 175h160z" />
    <glyph glyph-name="Agrave" unicode="&#xc0;" horiz-adv-x="720" 
d="M135 0h-189l388 743h186l126 -743h-195l-19 138h-227zM382 485l-105 -205h135l-28 205h-2zM504 782h-131l-120 181h190z" />
    <glyph glyph-name="Aring" unicode="&#xc5;" horiz-adv-x="720" 
d="M135 0h-189l381 730c-7 15 -11 32 -11 50c0 79 68 126 134 126c65 0 104 -47 104 -104c0 -34 -12 -62 -30 -84l122 -718h-195l-19 138h-227zM382 485l-105 -205h135l-28 205h-2zM430 745c24 0 49 19 49 52c0 20 -14 37 -39 37c-24 0 -49 -20 -49 -50c0 -22 14 -39 39 -39
z" />
    <glyph glyph-name="Atilde" unicode="&#xc3;" horiz-adv-x="720" 
d="M135 0h-189l388 743h186l126 -743h-195l-19 138h-227zM382 485l-105 -205h135l-28 205h-2zM519 770c-80 0 -98 56 -143 56c-25 0 -44 -15 -50 -54h-104c12 128 74 179 153 179c80 0 98 -56 143 -56c25 0 44 15 51 54h104c-13 -128 -75 -179 -154 -179z" />
    <glyph glyph-name="Ccedilla" unicode="&#xc7;" horiz-adv-x="731" 
d="M303 -205c-86 0 -131 15 -161 38l42 55c27 -20 60 -30 94 -30c25 0 46 8 46 31c0 14 -12 21 -25 21c-14 0 -25 -4 -41 -15l-41 22l38 77c-140 28 -229 130 -229 302c0 288 165 458 389 458c232 0 287 -134 299 -266l-199 -17c-5 61 -28 118 -110 118
c-125 0 -178 -143 -178 -289c0 -92 37 -154 122 -154c68 0 118 47 153 141l177 -64c-63 -146 -158 -237 -339 -237h-12l-12 -31c15 9 36 15 62 15c43 0 72 -26 72 -65c0 -78 -83 -110 -147 -110z" />
    <glyph glyph-name="Eacute" unicode="&#xc9;" horiz-adv-x="635" 
d="M539 0h-535l130 740h518l-29 -166h-318l-21 -120h224l-27 -156h-224l-25 -137h335zM410 782h-131l125 181h190z" />
    <glyph glyph-name="Ecircumflex" unicode="&#xca;" horiz-adv-x="635" 
d="M539 0h-535l130 740h518l-29 -166h-318l-21 -120h224l-27 -156h-224l-25 -137h335zM318 787h-111l160 176h130l98 -176h-111l-72 64z" />
    <glyph glyph-name="Edieresis" unicode="&#xcb;" horiz-adv-x="635" 
d="M539 0h-535l130 740h518l-29 -166h-318l-21 -120h224l-27 -156h-224l-25 -137h335zM590 775h-160l31 175h160zM363 775h-160l31 175h160z" />
    <glyph glyph-name="Egrave" unicode="&#xc8;" horiz-adv-x="635" 
d="M539 0h-535l130 740h518l-29 -166h-318l-21 -120h224l-27 -156h-224l-25 -137h335zM481 782h-131l-120 181h190z" />
    <glyph glyph-name="Iacute" unicode="&#xcd;" horiz-adv-x="350" 
d="M210 0h-200l130 740h200zM288 782h-131l125 181h190z" />
    <glyph glyph-name="Icircumflex" unicode="&#xce;" horiz-adv-x="350" 
d="M210 0h-200l130 740h200zM166 787h-111l160 176h130l98 -176h-111l-72 64z" />
    <glyph glyph-name="Idieresis" unicode="&#xcf;" horiz-adv-x="350" 
d="M210 0h-200l130 740h200zM438 775h-160l31 175h160zM211 775h-160l31 175h160z" />
    <glyph glyph-name="Igrave" unicode="&#xcc;" horiz-adv-x="350" 
d="M210 0h-200l130 740h200zM329 782h-131l-120 181h190z" />
    <glyph glyph-name="Ntilde" unicode="&#xd1;" horiz-adv-x="781" 
d="M188 0h-183l130 740h197l188 -415h2l73 415h183l-130 -740h-185l-200 414h-2zM549 770c-80 0 -98 56 -143 56c-25 0 -44 -15 -50 -54h-104c12 128 74 179 153 179c80 0 98 -56 143 -56c25 0 44 15 51 54h104c-13 -128 -75 -179 -154 -179z" />
    <glyph glyph-name="Oacute" unicode="&#xd3;" horiz-adv-x="785" 
d="M364 146c103 0 194 101 194 282c0 97 -43 161 -136 161c-104 0 -195 -94 -195 -277c0 -98 44 -166 137 -166zM356 -14c-184 0 -330 110 -330 321c0 303 208 447 415 447c174 0 319 -111 319 -322c0 -301 -202 -446 -404 -446zM485 782h-131l125 181h190z" />
    <glyph glyph-name="Ocircumflex" unicode="&#xd4;" horiz-adv-x="785" 
d="M364 146c103 0 194 101 194 282c0 97 -43 161 -136 161c-104 0 -195 -94 -195 -277c0 -98 44 -166 137 -166zM356 -14c-184 0 -330 110 -330 321c0 303 208 447 415 447c174 0 319 -111 319 -322c0 -301 -202 -446 -404 -446zM383 787h-111l160 176h130l98 -176h-111
l-72 64z" />
    <glyph glyph-name="Odieresis" unicode="&#xd6;" horiz-adv-x="785" 
d="M364 146c103 0 194 101 194 282c0 97 -43 161 -136 161c-104 0 -195 -94 -195 -277c0 -98 44 -166 137 -166zM356 -14c-184 0 -330 110 -330 321c0 303 208 447 415 447c174 0 319 -111 319 -322c0 -301 -202 -446 -404 -446zM655 775h-160l31 175h160zM428 775h-160
l31 175h160z" />
    <glyph glyph-name="Ograve" unicode="&#xd2;" horiz-adv-x="785" 
d="M364 146c103 0 194 101 194 282c0 97 -43 161 -136 161c-104 0 -195 -94 -195 -277c0 -98 44 -166 137 -166zM356 -14c-184 0 -330 110 -330 321c0 303 208 447 415 447c174 0 319 -111 319 -322c0 -301 -202 -446 -404 -446zM556 782h-131l-120 181h190z" />
    <glyph glyph-name="Otilde" unicode="&#xd5;" horiz-adv-x="785" 
d="M364 146c103 0 194 101 194 282c0 97 -43 161 -136 161c-104 0 -195 -94 -195 -277c0 -98 44 -166 137 -166zM356 -14c-184 0 -330 110 -330 321c0 303 208 447 415 447c174 0 319 -111 319 -322c0 -301 -202 -446 -404 -446zM551 770c-80 0 -98 56 -143 56
c-25 0 -44 -15 -50 -54h-104c12 128 74 179 153 179c80 0 98 -56 143 -56c25 0 44 15 51 54h104c-13 -128 -75 -179 -154 -179z" />
    <glyph glyph-name="Scaron" unicode="&#x160;" horiz-adv-x="699" 
d="M322 -15c-168 0 -278 60 -340 192l172 72c33 -67 92 -106 183 -106c41 0 102 9 102 64c0 108 -363 71 -363 300c0 182 159 248 294 248c156 0 254 -64 310 -147l-157 -102c-32 47 -91 87 -161 87c-54 0 -87 -18 -87 -60c0 -108 364 -80 364 -290
c0 -156 -117 -258 -317 -258zM486 787h-130l-98 176h111l71 -64l95 64h111z" />
    <glyph glyph-name="Uacute" unicode="&#xda;" horiz-adv-x="719" 
d="M324 -11c-246 0 -312 130 -278 326l74 425h200l-76 -437c-18 -102 0 -153 90 -153c70 0 104 35 122 137l79 453h196l-83 -471c-35 -196 -138 -280 -324 -280zM452 782h-131l125 181h190z" />
    <glyph glyph-name="Ucircumflex" unicode="&#xdb;" horiz-adv-x="719" 
d="M324 -11c-246 0 -312 130 -278 326l74 425h200l-76 -437c-18 -102 0 -153 90 -153c70 0 104 35 122 137l79 453h196l-83 -471c-35 -196 -138 -280 -324 -280zM350 787h-111l160 176h130l98 -176h-111l-72 64z" />
    <glyph glyph-name="Udieresis" unicode="&#xdc;" horiz-adv-x="719" 
d="M324 -11c-246 0 -312 130 -278 326l74 425h200l-76 -437c-18 -102 0 -153 90 -153c70 0 104 35 122 137l79 453h196l-83 -471c-35 -196 -138 -280 -324 -280zM622 775h-160l31 175h160zM395 775h-160l31 175h160z" />
    <glyph glyph-name="Ugrave" unicode="&#xd9;" horiz-adv-x="719" 
d="M324 -11c-246 0 -312 130 -278 326l74 425h200l-76 -437c-18 -102 0 -153 90 -153c70 0 104 35 122 137l79 453h196l-83 -471c-35 -196 -138 -280 -324 -280zM523 782h-131l-120 181h190z" />
    <glyph glyph-name="Yacute" unicode="&#xdd;" horiz-adv-x="711" 
d="M391 0h-200l54 309l-177 431h203l102 -262l195 262h207l-330 -431zM448 782h-131l125 181h190z" />
    <glyph glyph-name="Ydieresis" unicode="&#x178;" horiz-adv-x="711" 
d="M391 0h-200l54 309l-177 431h203l102 -262l195 262h207l-330 -431zM618 775h-160l31 175h160zM391 775h-160l31 175h160z" />
    <glyph glyph-name="Zcaron" unicode="&#x17d;" horiz-adv-x="665" 
d="M567 0h-606l24 137l429 437h-328l29 166h582l-25 -142l-419 -437h342zM469 787h-130l-98 176h111l71 -64l95 64h111z" />
    <glyph glyph-name="ae" unicode="&#xe6;" horiz-adv-x="883" 
d="M125 -8c-86 0 -150 56 -150 143c0 144 128 204 360 212l1 7c4 28 -10 45 -56 45c-40 0 -99 -12 -160 -38l-61 122c51 32 153 63 263 63c74 0 117 -18 141 -48c56 35 115 48 155 48c161 0 255 -90 219 -305l-5 -30h-334c1 -72 44 -87 98 -87c60 0 110 24 148 49l72 -114
c-55 -42 -134 -70 -249 -70c-99 0 -177 30 -218 98c-48 -49 -121 -95 -224 -95zM318 219c0 9 0 18 1 27c-93 -2 -142 -23 -142 -67c0 -23 16 -40 48 -40c38 0 72 20 95 37c-1 14 -2 28 -2 43zM513 324h164c2 51 -12 84 -70 84c-43 0 -76 -30 -94 -84z" />
    <glyph glyph-name="oe" unicode="&#x153;" horiz-adv-x="936" 
d="M620 -11c-75 0 -137 21 -180 61c-52 -41 -117 -61 -181 -61c-125 0 -258 66 -258 235c0 250 172 322 316 322c67 0 129 -23 173 -67c62 48 135 67 181 67c161 0 255 -90 219 -305l-5 -30h-334c1 -72 44 -87 98 -87c60 0 110 24 148 49l72 -114c-55 -42 -134 -70 -249 -70
zM273 126c57 0 103 68 103 186c0 53 -18 92 -74 92c-57 0 -102 -69 -102 -187c0 -52 17 -91 73 -91zM566 324h164c2 51 -12 84 -70 84c-43 0 -76 -30 -94 -84z" />
    <glyph glyph-name="eth" unicode="&#xf0;" horiz-adv-x="610" 
d="M259 -11c-165 0 -259 88 -259 216c0 202 149 271 254 271c53 0 113 -22 146 -63c0 37 -10 76 -24 113l-66 -28l-39 97l58 24c-16 24 -32 43 -45 56l111 103c34 -28 63 -60 86 -95l73 31l39 -97l-62 -26c30 -76 44 -159 44 -238c0 -260 -133 -364 -316 -364zM267 126
c48 0 100 31 100 137c0 53 -26 82 -69 82c-47 0 -100 -37 -100 -140c0 -53 26 -79 69 -79z" />
    <glyph glyph-name="thorn" unicode="&#xfe;" horiz-adv-x="626" 
d="M288 138c59 0 102 70 102 171c0 43 -17 74 -64 74c-28 0 -62 -20 -78 -39l-32 -176c17 -16 43 -30 72 -30zM152 -201h-198l166 941h198l-51 -288c29 46 86 93 155 93c108 0 170 -76 170 -205c0 -197 -95 -349 -240 -349c-79 0 -124 24 -156 62z" />
    <glyph glyph-name="lslash" unicode="&#x142;" horiz-adv-x="355" 
d="M16 0l65 370l-60 -16l25 142l60 16l40 228h198l-30 -174l56 15l-25 -142l-56 -15l-75 -424h-198z" />
    <glyph glyph-name="oslash" unicode="&#xf8;" horiz-adv-x="612" 
d="M259 -11c-56 0 -114 13 -161 43l-87 -77l-60 73l81 72c-20 33 -31 74 -31 124c0 250 172 322 316 322c59 0 121 -14 168 -47l80 70l60 -73l-76 -67c16 -31 26 -70 26 -116c0 -247 -171 -324 -316 -324zM302 408c-54 0 -101 -65 -106 -172l166 146c-12 16 -31 26 -60 26z
M273 122c53 0 99 62 106 165l-163 -143c12 -14 30 -22 57 -22z" />
    <glyph glyph-name="germandbls" unicode="&#xdf;" horiz-adv-x="702" 
d="M432 -11c-127 0 -188 49 -218 78l98 103c20 -20 54 -42 93 -42c49 0 76 31 76 80c0 75 -82 90 -182 93l23 130c109 0 138 36 138 98c0 31 -17 67 -80 67c-58 0 -95 -29 -110 -115l-85 -481h-195l86 489c34 190 159 251 303 251c180 0 268 -73 268 -180
c0 -115 -84 -163 -157 -179c93 -15 175 -64 175 -169c0 -158 -125 -223 -233 -223z" />
    <glyph glyph-name="aacute" unicode="&#xe1;" horiz-adv-x="579" 
d="M225 139c39 0 59 15 79 31l13 76c-83 0 -140 -21 -140 -67c0 -23 16 -40 48 -40zM125 -8c-86 0 -150 56 -150 143c0 144 128 204 360 212l1 7c4 28 -10 45 -56 45c-40 0 -99 -12 -160 -38l-61 122c51 32 153 63 263 63c184 0 229 -95 201 -235l-33 -181
c-10 -58 -14 -85 -8 -130h-196c-3 27 -3 50 2 78c-47 -56 -104 -86 -163 -86zM349 592h-131l125 181h190z" />
    <glyph glyph-name="acircumflex" unicode="&#xe2;" horiz-adv-x="579" 
d="M225 139c39 0 59 15 79 31l13 76c-83 0 -140 -21 -140 -67c0 -23 16 -40 48 -40zM125 -8c-86 0 -150 56 -150 143c0 144 128 204 360 212l1 7c4 28 -10 45 -56 45c-40 0 -99 -12 -160 -38l-61 122c51 32 153 63 263 63c184 0 229 -95 201 -235l-33 -181
c-10 -58 -14 -85 -8 -130h-196c-3 27 -3 50 2 78c-47 -56 -104 -86 -163 -86zM247 597h-111l160 176h130l98 -176h-111l-72 64z" />
    <glyph glyph-name="adieresis" unicode="&#xe4;" horiz-adv-x="579" 
d="M225 139c39 0 59 15 79 31l13 76c-83 0 -140 -21 -140 -67c0 -23 16 -40 48 -40zM125 -8c-86 0 -150 56 -150 143c0 144 128 204 360 212l1 7c4 28 -10 45 -56 45c-40 0 -99 -12 -160 -38l-61 122c51 32 153 63 263 63c184 0 229 -95 201 -235l-33 -181
c-10 -58 -14 -85 -8 -130h-196c-3 27 -3 50 2 78c-47 -56 -104 -86 -163 -86zM519 585h-160l31 175h160zM292 585h-160l31 175h160z" />
    <glyph glyph-name="agrave" unicode="&#xe0;" horiz-adv-x="579" 
d="M225 139c39 0 59 15 79 31l13 76c-83 0 -140 -21 -140 -67c0 -23 16 -40 48 -40zM125 -8c-86 0 -150 56 -150 143c0 144 128 204 360 212l1 7c4 28 -10 45 -56 45c-40 0 -99 -12 -160 -38l-61 122c51 32 153 63 263 63c184 0 229 -95 201 -235l-33 -181
c-10 -58 -14 -85 -8 -130h-196c-3 27 -3 50 2 78c-47 -56 -104 -86 -163 -86zM420 592h-131l-120 181h190z" />
    <glyph glyph-name="aring" unicode="&#xe5;" horiz-adv-x="579" 
d="M225 139c39 0 59 15 79 31l13 76c-83 0 -140 -21 -140 -67c0 -23 16 -40 48 -40zM125 -8c-86 0 -150 56 -150 143c0 144 128 204 360 212l1 7c4 28 -10 45 -56 45c-40 0 -99 -12 -160 -38l-61 122c51 32 153 63 263 63c184 0 229 -95 201 -235l-33 -181
c-10 -58 -14 -85 -8 -130h-196c-3 27 -3 50 2 78c-47 -56 -104 -86 -163 -86zM343 655c24 0 49 19 49 52c0 20 -14 37 -39 37c-24 0 -49 -20 -49 -50c0 -22 14 -39 39 -39zM334 583c-65 0 -105 49 -105 107c0 79 68 126 134 126c65 0 104 -47 104 -104
c0 -81 -65 -129 -133 -129z" />
    <glyph glyph-name="atilde" unicode="&#xe3;" horiz-adv-x="579" 
d="M225 139c39 0 59 15 79 31l13 76c-83 0 -140 -21 -140 -67c0 -23 16 -40 48 -40zM125 -8c-86 0 -150 56 -150 143c0 144 128 204 360 212l1 7c4 28 -10 45 -56 45c-40 0 -99 -12 -160 -38l-61 122c51 32 153 63 263 63c184 0 229 -95 201 -235l-33 -181
c-10 -58 -14 -85 -8 -130h-196c-3 27 -3 50 2 78c-47 -56 -104 -86 -163 -86zM415 580c-80 0 -98 56 -143 56c-25 0 -44 -15 -50 -54h-104c12 128 74 179 153 179c80 0 98 -56 143 -56c25 0 44 15 51 54h104c-13 -128 -75 -179 -154 -179z" />
    <glyph glyph-name="ccedilla" unicode="&#xe7;" horiz-adv-x="554" 
d="M215 -205c-86 0 -131 15 -161 38l42 55c27 -20 60 -30 94 -30c25 0 46 8 46 31c0 14 -12 21 -25 21c-14 0 -25 -4 -41 -15l-41 22l40 82c-96 24 -168 91 -168 221c0 247 168 326 303 326c166 0 220 -69 240 -192l-175 -29c-10 58 -25 79 -72 79c-54 0 -97 -71 -97 -192
c0 -50 12 -86 66 -86c27 0 57 19 87 89l155 -61c-30 -70 -90 -165 -249 -165c-6 0 -12 1 -18 1l-13 -35c15 9 36 15 62 15c43 0 72 -26 72 -65c0 -78 -83 -110 -147 -110z" />
    <glyph glyph-name="eacute" unicode="&#xe9;" horiz-adv-x="579" 
d="M263 -11c-147 0 -262 67 -262 230c0 279 220 327 313 327c161 0 255 -90 219 -305l-5 -30h-334c1 -72 44 -87 98 -87c60 0 110 24 148 49l72 -114c-55 -42 -134 -70 -249 -70zM209 324h164c2 51 -12 84 -70 84c-43 0 -76 -30 -94 -84zM349 592h-131l125 181h190z" />
    <glyph glyph-name="ecircumflex" unicode="&#xea;" horiz-adv-x="579" 
d="M263 -11c-147 0 -262 67 -262 230c0 279 220 327 313 327c161 0 255 -90 219 -305l-5 -30h-334c1 -72 44 -87 98 -87c60 0 110 24 148 49l72 -114c-55 -42 -134 -70 -249 -70zM209 324h164c2 51 -12 84 -70 84c-43 0 -76 -30 -94 -84zM247 597h-111l160 176h130l98 -176
h-111l-72 64z" />
    <glyph glyph-name="edieresis" unicode="&#xeb;" horiz-adv-x="579" 
d="M263 -11c-147 0 -262 67 -262 230c0 279 220 327 313 327c161 0 255 -90 219 -305l-5 -30h-334c1 -72 44 -87 98 -87c60 0 110 24 148 49l72 -114c-55 -42 -134 -70 -249 -70zM209 324h164c2 51 -12 84 -70 84c-43 0 -76 -30 -94 -84zM519 585h-160l31 175h160zM292 585
h-160l31 175h160z" />
    <glyph glyph-name="egrave" unicode="&#xe8;" horiz-adv-x="579" 
d="M263 -11c-147 0 -262 67 -262 230c0 279 220 327 313 327c161 0 255 -90 219 -305l-5 -30h-334c1 -72 44 -87 98 -87c60 0 110 24 148 49l72 -114c-55 -42 -134 -70 -249 -70zM209 324h164c2 51 -12 84 -70 84c-43 0 -76 -30 -94 -84zM420 592h-131l-120 181h190z" />
    <glyph glyph-name="dotlessi" unicode="&#x131;" horiz-adv-x="316" 
d="M193 0h-198l95 536h198z" />
    <glyph glyph-name="iacute" unicode="&#xed;" horiz-adv-x="316" 
d="M193 0h-198l95 536h198zM238 592h-131l125 181h190z" />
    <glyph glyph-name="icircumflex" unicode="&#xee;" horiz-adv-x="316" 
d="M193 0h-198l95 536h198zM116 597h-111l160 176h130l98 -176h-111l-72 64z" />
    <glyph glyph-name="idieresis" unicode="&#xef;" horiz-adv-x="316" 
d="M193 0h-198l95 536h198zM388 585h-160l31 175h160zM161 585h-160l31 175h160z" />
    <glyph glyph-name="igrave" unicode="&#xec;" horiz-adv-x="316" 
d="M193 0h-198l95 536h198zM271 592h-131l-120 181h190z" />
    <glyph glyph-name="ntilde" unicode="&#xf1;" horiz-adv-x="623" 
d="M188 0h-198l95 536h198l-15 -83c24 35 81 93 174 93c94 0 155 -51 135 -166l-67 -380h-198l57 326c7 37 -6 58 -39 58c-28 0 -63 -20 -81 -38zM437 580c-80 0 -98 56 -143 56c-25 0 -44 -15 -50 -54h-104c12 128 74 179 153 179c80 0 98 -56 143 -56c25 0 44 15 51 54
h104c-13 -128 -75 -179 -154 -179z" />
    <glyph glyph-name="oacute" unicode="&#xf3;" horiz-adv-x="612" 
d="M273 126c57 0 103 68 103 186c0 53 -18 92 -74 92c-57 0 -102 -69 -102 -187c0 -52 17 -91 73 -91zM259 -11c-125 0 -258 66 -258 235c0 250 172 322 316 322c126 0 258 -62 258 -233c0 -247 -171 -324 -316 -324zM366 592h-131l125 181h190z" />
    <glyph glyph-name="ocircumflex" unicode="&#xf4;" horiz-adv-x="612" 
d="M273 126c57 0 103 68 103 186c0 53 -18 92 -74 92c-57 0 -102 -69 -102 -187c0 -52 17 -91 73 -91zM259 -11c-125 0 -258 66 -258 235c0 250 172 322 316 322c126 0 258 -62 258 -233c0 -247 -171 -324 -316 -324zM264 597h-111l160 176h130l98 -176h-111l-72 64z" />
    <glyph glyph-name="odieresis" unicode="&#xf6;" horiz-adv-x="612" 
d="M273 126c57 0 103 68 103 186c0 53 -18 92 -74 92c-57 0 -102 -69 -102 -187c0 -52 17 -91 73 -91zM259 -11c-125 0 -258 66 -258 235c0 250 172 322 316 322c126 0 258 -62 258 -233c0 -247 -171 -324 -316 -324zM536 585h-160l31 175h160zM309 585h-160l31 175h160z
" />
    <glyph glyph-name="ograve" unicode="&#xf2;" horiz-adv-x="612" 
d="M273 126c57 0 103 68 103 186c0 53 -18 92 -74 92c-57 0 -102 -69 -102 -187c0 -52 17 -91 73 -91zM259 -11c-125 0 -258 66 -258 235c0 250 172 322 316 322c126 0 258 -62 258 -233c0 -247 -171 -324 -316 -324zM437 592h-131l-120 181h190z" />
    <glyph glyph-name="otilde" unicode="&#xf5;" horiz-adv-x="612" 
d="M273 126c57 0 103 68 103 186c0 53 -18 92 -74 92c-57 0 -102 -69 -102 -187c0 -52 17 -91 73 -91zM259 -11c-125 0 -258 66 -258 235c0 250 172 322 316 322c126 0 258 -62 258 -233c0 -247 -171 -324 -316 -324zM432 580c-80 0 -98 56 -143 56c-25 0 -44 -15 -50 -54
h-104c12 128 74 179 153 179c80 0 98 -56 143 -56c25 0 44 15 51 54h104c-13 -128 -75 -179 -154 -179z" />
    <glyph glyph-name="scaron" unicode="&#x161;" horiz-adv-x="535" 
d="M239 -11c-144 0 -226 34 -277 77l92 111c45 -37 115 -65 186 -65c25 0 56 6 56 35c0 66 -259 32 -259 204c0 146 125 195 219 195c126 0 195 -26 253 -69l-83 -114c-47 33 -100 54 -153 54c-23 0 -46 -6 -46 -34c0 -67 260 -36 260 -196c0 -168 -156 -198 -248 -198z
M371 597h-130l-98 176h111l71 -64l95 64h111z" />
    <glyph glyph-name="uacute" unicode="&#xfa;" horiz-adv-x="623" 
d="M148 -10c-94 0 -155 51 -135 166l67 380h198l-59 -332c-7 -37 6 -58 39 -58c28 0 63 20 81 38l63 352h198l-95 -536h-198l15 83c-24 -35 -81 -93 -174 -93zM371 592h-131l125 181h190z" />
    <glyph glyph-name="ucircumflex" unicode="&#xfb;" horiz-adv-x="623" 
d="M148 -10c-94 0 -155 51 -135 166l67 380h198l-59 -332c-7 -37 6 -58 39 -58c28 0 63 20 81 38l63 352h198l-95 -536h-198l15 83c-24 -35 -81 -93 -174 -93zM269 597h-111l160 176h130l98 -176h-111l-72 64z" />
    <glyph glyph-name="udieresis" unicode="&#xfc;" horiz-adv-x="623" 
d="M148 -10c-94 0 -155 51 -135 166l67 380h198l-59 -332c-7 -37 6 -58 39 -58c28 0 63 20 81 38l63 352h198l-95 -536h-198l15 83c-24 -35 -81 -93 -174 -93zM541 585h-160l31 175h160zM314 585h-160l31 175h160z" />
    <glyph glyph-name="ugrave" unicode="&#xf9;" horiz-adv-x="623" 
d="M148 -10c-94 0 -155 51 -135 166l67 380h198l-59 -332c-7 -37 6 -58 39 -58c28 0 63 20 81 38l63 352h198l-95 -536h-198l15 83c-24 -35 -81 -93 -174 -93zM442 592h-131l-120 181h190z" />
    <glyph glyph-name="yacute" unicode="&#xfd;" horiz-adv-x="564" 
d="M79 -205c-90 0 -152 18 -184 30l62 153c19 -9 76 -25 106 -25c28 0 43 7 56 31l7 13l-103 539h203l40 -306h2l148 306h191l-331 -603c-51 -92 -107 -138 -197 -138zM342 592h-131l125 181h190z" />
    <glyph glyph-name="ydieresis" unicode="&#xff;" horiz-adv-x="564" 
d="M79 -205c-90 0 -152 18 -184 30l62 153c19 -9 76 -25 106 -25c28 0 43 7 56 31l7 13l-103 539h203l40 -306h2l148 306h191l-331 -603c-51 -92 -107 -138 -197 -138zM512 585h-160l31 175h160zM285 585h-160l31 175h160z" />
    <glyph glyph-name="zcaron" unicode="&#x17e;" horiz-adv-x="530" 
d="M449 0h-489l17 99l269 295h-201l26 142h451l-19 -103l-270 -295h240zM369 597h-130l-98 176h111l71 -64l95 64h111z" />
    <glyph glyph-name="at" unicode="@" horiz-adv-x="868" 
d="M402 279c20 0 44 16 56 29l23 132c-17 18 -28 25 -51 25c-56 0 -77 -68 -77 -130c0 -33 5 -56 49 -56zM426 -14c-240 0 -382 164 -382 382s156 386 396 386s392 -157 392 -374c0 -132 -70 -229 -208 -229c-85 0 -121 36 -139 93c-31 -36 -77 -76 -154 -76
c-79 0 -127 56 -127 151c0 170 88 267 184 267c65 0 91 -23 110 -50l7 42h148l-52 -299c-7 -38 3 -53 46 -53c62 0 103 57 103 149c0 177 -118 299 -311 299s-307 -128 -307 -306c0 -179 108 -311 301 -311c72 0 133 15 182 51l40 -56c-57 -43 -139 -66 -229 -66z" />
    <glyph glyph-name="registered" unicode="&#xae;" horiz-adv-x="521" 
d="M166 405v249h102c62 0 100 -27 100 -87c0 -39 -16 -60 -41 -74l44 -88h-74l-38 79h-21v-79h-72zM259 294c-131 0 -229 98 -229 229s101 231 232 231c130 0 229 -98 229 -229s-101 -231 -232 -231zM262 343c102 0 175 75 175 180s-75 182 -178 182
c-102 0 -175 -75 -175 -180s74 -182 178 -182zM238 535h25c24 0 35 9 35 28c0 18 -11 28 -35 28h-25v-56z" />
    <glyph glyph-name="copyright" unicode="&#xa9;" horiz-adv-x="868" 
d="M437 68c171 0 292 125 292 300s-124 304 -296 304c-171 0 -292 -125 -292 -300s124 -304 296 -304zM433 -14c-218 0 -382 164 -382 382s168 386 386 386s382 -164 382 -382s-168 -386 -386 -386zM431 155c-106 0 -179 73 -179 215s70 216 183 216c99 0 154 -55 168 -132
l-107 -28c-9 34 -21 59 -59 59c-43 0 -65 -44 -65 -115s21 -112 64 -112c36 0 53 23 61 68l110 -30c-23 -82 -66 -141 -176 -141z" />
    <glyph glyph-name="trademark" unicode="&#x2122;" horiz-adv-x="945" 
d="M293 317h-132v316h-110v107h351v-107h-109v-316zM571 317h-116v423h181l57 -251l58 251h178v-423h-127v253l-61 -253h-109l-61 250v-250z" />
    <glyph glyph-name="plus" unicode="+" 
d="M403 92h-156v190h-179v154h179v190h156v-190h179v-154h-179v-190z" />
    <glyph glyph-name="minus" unicode="&#x2212;" 
d="M582 282h-514v154h514v-154z" />
    <glyph glyph-name="multiply" unicode="&#xd7;" 
d="M327 211l-153 -153l-115 115l152 152l-152 150l115 115l152 -150l150 150l115 -115l-149 -149l152 -150l-115 -115z" />
    <glyph glyph-name="divide" unicode="&#xf7;" 
d="M403 493h-156v132h156v-132zM582 282h-514v154h514v-154zM403 91h-156v132h156v-132z" />
    <glyph glyph-name="equal" unicode="=" 
d="M573 375h-505v136h505v-136zM573 147h-505v136h505v-136z" />
    <glyph glyph-name="less" unicode="&#x3c;" 
d="M587 38l-529 235v102l529 235v-159l-320 -127l320 -127v-159z" />
    <glyph glyph-name="greater" unicode="&#x3e;" 
d="M589 273l-529 -235v159l320 127l-320 127v159l529 -235v-102z" />
    <glyph glyph-name="dollar" unicode="$" horiz-adv-x="687" 
d="M322 -93h-114l15 90c-93 21 -174 76 -229 184l152 69c23 -45 55 -94 107 -118l31 176c-95 37 -200 83 -200 201c0 172 150 243 271 243h1l12 67h114l-14 -77c97 -19 155 -70 192 -168l-147 -59c-20 46 -46 71 -74 84l-31 -171c97 -36 207 -81 207 -213
c0 -157 -131 -225 -280 -229zM433 202c0 28 -22 49 -53 66l-26 -147c57 7 79 35 79 81zM266 532c0 -28 18 -47 46 -63l26 145c-47 -3 -72 -41 -72 -82z" />
    <glyph glyph-name="cent" unicode="&#xa2;" horiz-adv-x="561" 
d="M259 -11c-26 0 -51 2 -75 7l-60 -125h-97l74 155c-60 35 -100 97 -100 194c0 247 168 326 303 326c16 0 31 -1 46 -2l45 94h97l-56 -115c66 -30 94 -88 108 -169l-167 -28c-4 23 -10 41 -19 54l-122 -255c9 -3 19 -4 30 -4c27 0 62 22 92 92l150 -59
c-30 -70 -90 -165 -249 -165zM188 212c0 -8 0 -16 1 -23l106 220c-54 -2 -107 -78 -107 -197z" />
    <glyph glyph-name="Euro" unicode="&#x20ac;" horiz-adv-x="735" 
d="M395 -14c-158 0 -265 80 -283 247h-114l18 100h94c1 19 3 37 5 55h-90l18 100h94c54 172 178 266 328 266c195 0 251 -106 271 -225l-178 -29c-9 54 -21 100 -96 100c-59 0 -100 -45 -126 -112h134l-18 -100h-142c-3 -18 -6 -36 -7 -55h140l-18 -100h-124
c6 -74 38 -97 101 -97c39 0 80 32 115 117l161 -71c-41 -84 -118 -196 -283 -196z" />
    <glyph glyph-name="sterling" unicode="&#xa3;" horiz-adv-x="712" 
d="M115 -14c-91 0 -156 40 -156 114c0 114 81 149 159 149c49 0 89 -16 125 -36c0 6 1 13 1 20c0 28 -8 58 -18 89h-142l17 100h87c-13 36 -23 73 -23 109c0 138 109 223 253 223c193 0 232 -109 243 -221l-177 -18c-5 53 -18 88 -64 88c-37 0 -64 -23 -64 -80
c0 -34 12 -66 26 -101h171l-17 -100h-124c3 -14 4 -29 4 -45c0 -55 -18 -103 -45 -144c17 -7 34 -11 53 -11c35 0 71 14 77 94h167c-15 -110 -69 -230 -220 -230c-74 0 -129 24 -173 53c-53 -34 -113 -53 -160 -53zM119 150c-20 0 -38 -13 -38 -37c0 -18 11 -33 43 -33
c13 0 42 7 68 29c-27 23 -50 41 -73 41z" />
    <glyph glyph-name="yen" unicode="&#xa5;" horiz-adv-x="701" 
d="M386 0h-200l14 77h-169l17 101h169l10 55h-169l18 100h166l-167 407h202l91 -262l182 262h208l-311 -407h169l-18 -100h-171l-10 -55h171l-17 -101h-171z" />
    <glyph glyph-name="florin" unicode="&#x192;" horiz-adv-x="456" 
d="M-8 -204c-37 0 -108 6 -118 9l24 130c9 -3 34 -6 51 -6c47 0 71 22 81 79l64 364h-92l24 134h92l7 50c15 90 52 189 234 189c39 0 110 -6 120 -9l-25 -135c-9 3 -34 6 -51 6c-35 0 -73 -2 -81 -59l-6 -42h116l-24 -134h-116l-71 -408c-13 -75 -47 -168 -229 -168z" />
    <glyph glyph-name="numbersign" unicode="#" horiz-adv-x="785" 
d="M267 0h-176l36 174h-107v143h137l22 106h-116v143h146l37 174h176l-36 -174h79l37 174h176l-37 -174h128v-143h-158l-22 -106h137v-143h-167l-36 -174h-176l36 174h-79zM356 423l-23 -106h80l22 106h-79z" />
    <glyph glyph-name="section" unicode="&#xa7;" horiz-adv-x="604" 
d="M230 -200c-177 0 -225 88 -244 186l148 28c10 -51 34 -92 89 -92c36 0 54 26 54 56c0 90 -241 130 -241 296c0 80 50 136 111 174c-21 28 -34 60 -34 100c0 128 108 206 230 206c181 0 230 -88 249 -186l-148 -28c-10 51 -39 87 -94 87c-36 0 -59 -26 -59 -56
c0 -82 246 -125 246 -291c0 -84 -53 -136 -116 -174c21 -28 34 -60 34 -99c0 -129 -103 -207 -225 -207zM202 323c0 -58 76 -96 144 -147c17 18 25 37 25 55c0 58 -77 96 -147 146c-15 -18 -22 -37 -22 -54z" />
    <glyph glyph-name="paragraph" unicode="&#xb6;" horiz-adv-x="645" 
d="M288 -200h-128l88 503c-132 8 -208 78 -208 187c0 145 98 250 261 250h358l-165 -940h-128l140 795h-78z" />
    <glyph glyph-name="percent" unicode="%" horiz-adv-x="1145" 
d="M371 0h-168l572 740h168zM860 111c54 0 76 133 76 204c0 33 -10 53 -39 53c-56 0 -77 -131 -77 -202c0 -33 10 -55 40 -55zM854 -10c-129 0 -190 84 -190 201c0 195 114 300 239 300c129 0 190 -85 190 -202c0 -195 -117 -299 -239 -299zM251 373c54 0 76 133 76 204
c0 33 -10 53 -39 53c-56 0 -77 -131 -77 -202c0 -33 10 -55 40 -55zM245 252c-129 0 -190 84 -190 201c0 195 114 300 239 300c129 0 190 -85 190 -202c0 -195 -117 -299 -239 -299z" />
    <glyph glyph-name="perthousand" unicode="&#x2030;" horiz-adv-x="1604" 
d="M371 0h-168l572 740h168zM1319 111c54 0 76 133 76 204c0 33 -10 53 -39 53c-56 0 -77 -131 -77 -202c0 -33 10 -55 40 -55zM1313 -10c-129 0 -190 84 -190 201c0 195 114 300 239 300c129 0 190 -85 190 -202c0 -195 -117 -299 -239 -299zM860 111c54 0 76 133 76 204
c0 33 -10 53 -39 53c-56 0 -77 -131 -77 -202c0 -33 10 -55 40 -55zM854 -10c-129 0 -190 84 -190 201c0 195 114 300 239 300c129 0 190 -85 190 -202c0 -195 -117 -299 -239 -299zM251 373c54 0 76 133 76 204c0 33 -10 53 -39 53c-56 0 -77 -131 -77 -202
c0 -33 10 -55 40 -55zM245 252c-129 0 -190 84 -190 201c0 195 114 300 239 300c129 0 190 -85 190 -202c0 -195 -117 -299 -239 -299z" />
    <glyph glyph-name="degree" unicode="&#xb0;" horiz-adv-x="420" 
d="M240 504c41 0 82 31 82 93c0 39 -23 66 -64 66s-82 -31 -82 -93c0 -39 23 -66 64 -66zM239 415c-105 0 -164 67 -164 151c0 118 99 186 184 186c105 0 164 -65 164 -149c0 -117 -99 -188 -184 -188z" />
    <glyph glyph-name="ordfeminine" unicode="&#xaa;" horiz-adv-x="460" 
d="M225 459c26 0 49 13 62 24l10 53c-68 0 -100 -16 -105 -45c-3 -18 7 -32 33 -32zM151 357c-64 0 -111 48 -100 115c16 91 105 132 258 135l1 5c4 18 -4 31 -46 31c-33 0 -77 -11 -112 -30l-43 78c40 31 105 55 186 55c130 0 164 -62 145 -168l-22 -123
c-8 -45 -10 -72 -6 -91h-137c-2 16 -3 34 1 55c-37 -39 -80 -62 -125 -62z" />
    <glyph glyph-name="ordmasculine" unicode="&#xba;" horiz-adv-x="481" 
d="M264 453c44 0 77 50 77 132c0 36 -14 63 -53 63c-45 0 -77 -49 -77 -131c0 -36 12 -64 53 -64zM262 357c-99 0 -191 47 -191 166c0 191 150 224 220 224c98 0 190 -43 190 -162c0 -185 -148 -228 -219 -228z" />
    <glyph glyph-name="onehalf" unicode="&#xbd;" horiz-adv-x="1158" 
d="M17 250l21 121h86l44 248c-26 -12 -61 -22 -89 -22l19 107c38 1 68 11 92 31h155l-64 -364h74l-21 -121h-317zM368 0h-168l572 740h168zM675 3l5 29c45 264 285 209 285 306c0 15 -12 28 -32 28c-22 0 -63 -6 -105 -50l-91 85c58 65 134 94 219 94
c113 0 162 -53 162 -128c0 -196 -239 -179 -248 -242h210l-22 -122h-383z" />
    <glyph glyph-name="onequarter" unicode="&#xbc;" horiz-adv-x="1117" 
d="M17 250l21 121h86l44 248c-26 -12 -61 -22 -89 -22l19 107c38 1 68 11 92 31h155l-64 -364h74l-21 -121h-317zM368 0h-168l572 740h168zM811 1l17 94h-216l17 97l263 293h159l-48 -273h75l-20 -117h-75l-17 -94h-155zM771 202h86l21 124z" />
    <glyph glyph-name="threequarters" unicode="&#xbe;" horiz-adv-x="1157" 
d="M219 245c-105 0 -174 43 -207 107l105 74c30 -45 64 -57 90 -57c51 0 67 17 67 46c0 25 -23 36 -71 36h-44l19 106h45c59 0 73 13 73 37c0 15 -8 24 -32 24c-39 0 -76 -8 -117 -34l-62 97c70 53 147 64 215 64c100 0 155 -47 155 -120c0 -54 -23 -97 -88 -120
c50 -16 68 -55 68 -94c0 -122 -109 -166 -216 -166zM408 0h-168l572 740h168zM851 1l17 94h-216l17 97l263 293h159l-48 -273h75l-20 -117h-75l-17 -94h-155zM811 202h86l21 124z" />
    <glyph glyph-name="fraction" unicode="&#x2044;" horiz-adv-x="576" 
d="M87 0h-168l572 740h168z" />
    <glyph glyph-name="fraction" unicode="&#x2215;" horiz-adv-x="576" 
d="M87 0h-168l572 740h168z" />
    <glyph glyph-name="lessequal" unicode="&#x2264;" 
d="M593 148l-529 175v102l529 185v-159l-300 -77l300 -67v-159zM64 0v142h529v-142h-529z" />
    <glyph glyph-name="greaterequal" unicode="&#x2265;" 
d="M64 148v159l300 67l-300 77v159l529 -185v-102zM64 0v142h529v-142h-529z" />
    <glyph glyph-name="notequal" unicode="&#x2260;" horiz-adv-x="757" 
d="M41 0l69 394h-87l26 142h87l5 32c14 89 67 177 205 177c39 0 100 -6 110 -9l-24 -133c-8 3 -21 4 -39 4c-25 0 -51 -6 -58 -63l-1 -8h124l5 32c14 89 48 177 230 177c39 0 110 -6 120 -9l-24 -135c-8 3 -34 6 -61 6c-25 0 -64 -6 -71 -63l-1 -8h116l-26 -142h-116
l-69 -394h-198l69 394h-124l-69 -394h-198z" />
    <glyph glyph-name="asciicircum" unicode="^" 
d="M42 321l235 419h102l235 -419h-159l-127 219l-127 -219h-159z" />
    <glyph glyph-name="asciitilde" unicode="~" 
d="M455 253c-99 0 -200 62 -253 62c-20 0 -33 -8 -38 -44l-113 20c16 125 69 173 143 173c106 0 201 -63 254 -63c20 0 34 9 39 45l112 -15c-16 -126 -70 -178 -144 -178z" />
    <glyph glyph-name="plusminus" unicode="&#xb1;" horiz-adv-x="1006" 
d="M59 0l69 394h-87l26 142h87l5 32c14 89 67 177 205 177c39 0 100 -6 110 -9l-24 -133c-8 3 -21 4 -39 4c-25 0 -51 -6 -58 -63l-1 -8h124l5 32c14 89 59 177 198 177c52 0 101 -6 111 -9l-23 -132c-10 1 -21 3 -41 3c-25 0 -44 -9 -51 -63l-1 -8h86l-26 -142h-86
l-69 -394h-198l69 394h-124l-69 -394h-198zM702 0l131 740h198l-131 -740h-198z" />
    <glyph glyph-name="infinity" unicode="&#x221e;" horiz-adv-x="1006" 
d="M41 0l69 394h-87l26 142h87l5 32c14 89 67 177 205 177c39 0 100 -6 110 -9l-24 -133c-8 3 -21 4 -39 4c-25 0 -51 -6 -58 -63l-1 -8h124l5 32c14 89 59 177 198 177c52 0 101 -6 111 -9l-23 -132c-10 1 -21 3 -41 3c-25 0 -44 -9 -51 -63l-1 -8h86l-26 -142h-86
l-69 -394h-198l69 394h-124l-69 -394h-198zM684 0l95 536h198l-95 -536h-198zM788 588l26 152h198l-26 -152h-198z" />
    <glyph glyph-name="mu" unicode="&#xb5;" horiz-adv-x="628" 
d="M153 -200h-198l130 736h198l-59 -332c-7 -37 6 -58 39 -58c29 0 57 17 81 38l63 352h198l-95 -536h-198l14 82c-20 -26 -48 -61 -105 -80c-10 -4 -22 -7 -34 -9z" />
    <glyph glyph-name="mu" unicode="&#x3bc;" horiz-adv-x="628" 
d="M153 -200h-198l130 736h198l-59 -332c-7 -37 6 -58 39 -58c29 0 57 17 81 38l63 352h198l-95 -536h-198l14 82c-20 -26 -48 -61 -105 -80c-10 -4 -22 -7 -34 -9z" />
    <glyph glyph-name="radical" unicode="&#x221a;" horiz-adv-x="542" 
d="M307 0h-200l-89 536h199l32 -319h2l244 523h188z" />
    <glyph glyph-name="approxequal" unicode="&#x2248;" horiz-adv-x="705" 
d="M476 72c-99 0 -201 82 -254 82c-20 0 -33 -8 -38 -44l-112 20c16 125 69 173 142 173c106 0 201 -83 254 -83c20 0 34 9 39 45l114 -15c-17 -126 -71 -178 -145 -178zM488 324c-99 0 -200 82 -253 82c-20 0 -33 -8 -38 -44l-113 20c16 125 69 173 143 173
c106 0 201 -83 254 -83c20 0 34 9 39 45l112 -15c-16 -126 -70 -178 -144 -178z" />
    <glyph glyph-name="lozenge" unicode="&#x25ca;" horiz-adv-x="0" 
 />
    <glyph glyph-name="acute" unicode="&#xb4;" horiz-adv-x="500" 
d="M310 592h-131l125 181h190z" />
    <glyph glyph-name="breve" unicode="&#x2d8;" horiz-adv-x="500" 
d="M310 585c-144 0 -177 89 -174 194h103c0 -70 42 -75 77 -75c25 0 76 5 93 75h103c-13 -105 -92 -194 -202 -194z" />
    <glyph glyph-name="caron" unicode="&#x2c7;" horiz-adv-x="570" 
d="M389 597h-130l-98 176h111l71 -64l95 64h111z" />
    <glyph glyph-name="cedilla" unicode="&#xb8;" horiz-adv-x="500" 
d="M188 -205c-86 0 -131 15 -161 38l42 55c27 -20 60 -30 94 -30c25 0 46 8 46 31c0 14 -12 21 -25 21c-14 0 -25 -4 -41 -15l-41 22l41 83h76l-18 -45c15 9 36 15 62 15c43 0 72 -26 72 -65c0 -78 -83 -110 -147 -110z" />
    <glyph glyph-name="circumflex" unicode="&#x2c6;" horiz-adv-x="570" 
d="M243 597h-111l160 176h130l98 -176h-111l-72 64z" />
    <glyph glyph-name="dieresis" unicode="&#xa8;" horiz-adv-x="540" 
d="M500 585h-160l31 175h160zM273 585h-160l31 175h160z" />
    <glyph glyph-name="dotaccent" unicode="&#x2d9;" horiz-adv-x="500" 
d="M392 608h-198l27 152h198z" />
    <glyph glyph-name="grave" unicode="`" horiz-adv-x="500" 
d="M381 592h-131l-120 181h190z" />
    <glyph glyph-name="hungarumlaut" unicode="&#x2dd;" horiz-adv-x="535" 
d="M410 592h-131l150 181h190zM206 592h-131l140 181h190z" />
    <glyph glyph-name="macron" unicode="&#xaf;" horiz-adv-x="500" 
d="M465 585h-352l24 136h352z" />
    <glyph glyph-name="macron" unicode="&#x2c9;" horiz-adv-x="500" 
d="M465 585h-352l24 136h352z" />
    <glyph glyph-name="ogonek" unicode="&#x2db;" horiz-adv-x="500" 
d="M198 -187c-89 0 -126 31 -126 72c0 52 51 92 108 125h104c-50 -31 -80 -68 -80 -95c0 -14 8 -28 38 -28c33 0 66 11 82 20l28 -58c-45 -25 -90 -36 -154 -36z" />
    <glyph glyph-name="ring" unicode="&#x2da;" horiz-adv-x="540" 
d="M324 655c24 0 49 19 49 52c0 20 -14 37 -39 37c-24 0 -49 -20 -49 -50c0 -22 14 -39 39 -39zM315 583c-65 0 -105 49 -105 107c0 79 68 126 134 126c65 0 104 -47 104 -104c0 -81 -65 -129 -133 -129z" />
    <glyph glyph-name="tilde" unicode="&#x2dc;" horiz-adv-x="530" 
d="M391 580c-80 0 -98 56 -143 56c-25 0 -44 -15 -50 -54h-104c12 128 74 179 153 179c80 0 98 -56 143 -56c25 0 44 15 51 54h104c-13 -128 -75 -179 -154 -179z" />
    <glyph glyph-name="apple" unicode="&#xf8ff;" horiz-adv-x="760" 
d="M450 508v-67h66l-6 61zM450 296v-65l60 6l6 59h-66zM245 502l-6 -61h66v67zM245 237l60 -6v65h-66zM480 0h-205l30 131l-50 -5l3 -26h-139l1 12l-11 -1v139l25 -2l5 48l-131 -30v205l131 -30l-5 50l-25 -2v139l11 -1l-1 10h139l-2 -24l49 -5l-30 132h205l-30 -132l49 5
l-2 24h139l-1 -10l11 1v-139l-25 2l-5 -50l132 30v-205l-132 30l5 -48l25 2v-139l-11 1l1 -12h-139l3 26l-50 5z" />
    <glyph glyph-name="onesuperior" unicode="&#xb9;" horiz-adv-x="401" 
d="M38 255l21 121h86l44 248c-26 -12 -61 -22 -89 -22l19 107c38 1 68 11 92 31h155l-64 -364h74l-21 -121h-317z" />
    <glyph glyph-name="twosuperior" unicode="&#xb2;" horiz-adv-x="491" 
d="M32 258l5 29c45 264 285 209 285 306c0 15 -12 28 -32 28c-22 0 -63 -6 -105 -50l-91 85c58 65 134 94 219 94c113 0 162 -53 162 -128c0 -196 -239 -179 -248 -242h210l-22 -122h-383z" />
    <glyph glyph-name="threesuperior" unicode="&#xb3;" horiz-adv-x="491" 
d="M240 250c-105 0 -174 43 -207 107l105 74c30 -45 64 -57 90 -57c51 0 67 17 67 46c0 25 -23 36 -71 36h-44l19 106h45c59 0 73 13 73 37c0 15 -8 24 -32 24c-39 0 -76 -8 -117 -34l-62 97c70 53 147 64 215 64c100 0 155 -47 155 -120c0 -54 -23 -97 -88 -120
c50 -16 68 -55 68 -94c0 -122 -109 -166 -216 -166z" />
    <glyph glyph-name="Delta" unicode="&#x394;" horiz-adv-x="684" 
d="M41 0l69 394h-87l26 142h87l5 32c14 89 59 177 198 177c52 0 101 -6 111 -9l-23 -132c-10 1 -21 3 -41 3c-25 0 -44 -9 -51 -63l-1 -8h86l-26 -142h-86l-69 -394h-198zM365 -206c-59 0 -116 5 -149 11l23 130c14 -3 38 -6 60 -6c39 0 52 12 62 68l96 539h198l-104 -591
c-14 -75 -54 -151 -186 -151zM466 588l26 152h198l-26 -152h-198z" />
    <glyph glyph-name="Delta" unicode="&#x2206;" horiz-adv-x="684" 
d="M41 0l69 394h-87l26 142h87l5 32c14 89 59 177 198 177c52 0 101 -6 111 -9l-23 -132c-10 1 -21 3 -41 3c-25 0 -44 -9 -51 -63l-1 -8h86l-26 -142h-86l-69 -394h-198zM365 -206c-59 0 -116 5 -149 11l23 130c14 -3 38 -6 60 -6c39 0 52 12 62 68l96 539h198l-104 -591
c-14 -75 -54 -151 -186 -151zM466 588l26 152h198l-26 -152h-198z" />
    <glyph glyph-name="space" unicode=" " horiz-adv-x="286" 
 />
    <glyph glyph-name="space" unicode="&#xa0;" horiz-adv-x="286" 
 />
    <glyph glyph-name="zero.tab" 
d="M276 -14c-178 0 -266 129 -266 309c0 260 145 459 370 459c175 0 262 -129 262 -308c0 -259 -145 -460 -366 -460zM286 141c116 0 166 161 166 314c0 91 -27 140 -86 140c-119 0 -167 -158 -167 -311c0 -93 28 -143 87 -143z" />
    <glyph glyph-name="one.tab" 
d="M27 0l27 154h151l72 409c-39 -19 -112 -34 -155 -34l29 163c57 2 123 17 161 48h190l-103 -586h133l-27 -154h-478z" />
    <glyph glyph-name="two.tab" 
d="M-26 0l2 16c51 408 450 335 450 513c0 46 -26 59 -64 59c-51 0 -111 -30 -165 -90l-119 111c83 95 178 145 305 145c160 0 243 -77 243 -194c0 -293 -356 -261 -406 -406h334l-27 -154h-553z" />
    <glyph glyph-name="three.tab" 
d="M264 -14c-156 0 -241 46 -298 128l137 106c36 -51 98 -77 149 -77c79 0 119 28 119 94c0 57 -52 75 -132 75h-39l25 144h40c127 0 145 39 145 82c1 31 -18 53 -74 53c-43 0 -104 -12 -165 -53l-80 128c79 63 177 87 280 87c154 0 244 -68 244 -165
c0 -99 -61 -173 -169 -196c89 -15 132 -81 132 -156c0 -169 -147 -250 -314 -250z" />
    <glyph glyph-name="four.tab" 
d="M287 0l23 130h-330l25 145l385 465h220l-80 -455h91l-27 -155h-91l-23 -130h-193zM195 285h142l38 215h-2z" />
    <glyph glyph-name="five.tab" 
d="M256 -14c-135 0 -223 37 -282 95l120 123c42 -35 103 -61 172 -61c83 0 129 50 129 131c0 52 -28 86 -90 86c-37 0 -84 -18 -127 -61l-113 38l99 403h460l-36 -148h-301l-33 -125c24 17 77 37 138 37c138 0 205 -97 205 -215c0 -191 -138 -303 -341 -303z" />
    <glyph glyph-name="six.tab" 
d="M295 -14c-172 0 -272 118 -272 299c0 332 204 469 392 469c112 0 188 -32 226 -63l-100 -135c-37 28 -75 41 -134 41c-93 0 -144 -77 -170 -166c57 38 118 51 174 51c101 0 199 -62 199 -198c0 -188 -146 -298 -315 -298zM344 337c-45 0 -91 -11 -129 -37
c-1 -17 -1 -33 -1 -47c0 -89 33 -118 94 -118c81 0 110 71 110 130c0 37 -15 72 -74 72z" />
    <glyph glyph-name="seven.tab" 
d="M58 0l375 582h-341l27 158h544l-25 -145l-378 -595h-202z" />
    <glyph glyph-name="eight.tab" 
d="M276 -14c-178 0 -279 81 -279 206c0 101 77 174 177 206c-57 43 -82 87 -82 145c0 122 108 211 287 211c181 0 256 -93 256 -186c0 -87 -52 -145 -153 -191c82 -49 122 -96 122 -168c0 -164 -143 -223 -328 -223zM286 119c73 0 117 36 117 91c0 35 -20 64 -93 108
c-76 -32 -110 -65 -110 -118c0 -41 25 -81 86 -81zM359 445c59 33 78 61 78 106c0 29 -10 65 -67 65c-62 0 -86 -38 -86 -81c0 -30 17 -55 75 -90z" />
    <glyph glyph-name="nine.tab" 
d="M236 -14c-112 0 -188 32 -226 63l99 132c37 -28 76 -43 135 -43c97 0 148 78 172 172c-58 -39 -120 -52 -176 -52c-101 0 -199 62 -199 198c0 188 138 298 305 298c195 0 282 -118 282 -299c0 -332 -192 -469 -392 -469zM307 403c44 0 91 11 129 37c1 16 1 32 1 47
c0 89 -33 113 -94 113c-81 0 -110 -66 -110 -125c0 -37 15 -72 74 -72z" />
    <glyph glyph-name="plus.tab" 
d="M247 92v190h-179v154h179v190h156v-190h179v-154h-179v-190h-156z" />
    <glyph glyph-name="minus.tab" 
d="M68 282v154h514v-154h-514z" />
    <glyph glyph-name="multiply.tab" 
d="M172 58l-115 115l152 152l-152 150l115 115l152 -150l150 150l115 -115l-149 -149l152 -150l-115 -115l-152 150z" />
    <glyph glyph-name="divide.tab" 
d="M247 91v132h156v-132h-156zM68 282v154h514v-154h-514zM247 493v132h156v-132h-156z" />
    <glyph glyph-name="equal.tab" 
d="M72 147v136h505v-136h-505zM72 375v136h505v-136h-505z" />
    <glyph glyph-name="less.tab" 
d="M593 38l-529 235v102l529 235v-159l-320 -127l320 -127v-159z" />
    <glyph glyph-name="greater.tab" 
d="M64 38v159l320 127l-320 127v159l529 -235v-102z" />
    <glyph glyph-name="dollar.tab" 
d="M208 -93l15 87c-125 15 -191 85 -230 173l148 73c26 -49 51 -100 111 -115l31 176c-118 39 -208 92 -208 204c0 153 118 238 281 246l12 68h98l-13 -73c104 -19 163 -80 196 -144l-147 -84c-17 30 -41 66 -78 84l-28 -164c123 -41 211 -100 211 -207
c0 -144 -95 -229 -287 -240l-14 -84h-98zM421 206c0 27 -14 47 -55 66l-26 -148c59 8 81 36 81 82zM261 532c0 -27 16 -47 52 -64l25 142c-47 -7 -77 -28 -77 -78z" />
    <glyph glyph-name="cent.tab" 
d="M74 -129l73 150c-95 54 -118 167 -100 269c37 212 212 256 308 256c14 0 29 -1 42 -2l45 94h96l-56 -115c60 -26 102 -76 114 -160l-159 -39c-3 28 -13 48 -27 62l-125 -263c4 -1 9 -1 14 -1c32 0 89 20 122 90l137 -66c-45 -80 -131 -157 -273 -157c-20 0 -39 1 -56 4
l-59 -122h-96zM228 273c-6 -32 -9 -68 -1 -97l110 232c-54 -6 -94 -45 -109 -135z" />
    <glyph glyph-name="Euro.tab" 
d="M18 388l18 100h71c51 156 157 266 322 266c170 0 222 -99 235 -221l-177 -38c-6 67 -18 105 -77 105c-48 0 -84 -46 -109 -112h116l-18 -100h-125c-4 -18 -6 -37 -8 -55h124l-18 -101h-111c2 -76 29 -96 74 -96c52 0 82 40 113 117l163 -59c-67 -138 -152 -208 -298 -208
c-109 0 -229 53 -239 246h-83l18 101h68c1 18 4 37 7 55h-66z" />
    <glyph glyph-name="sterling.tab" 
d="M56 322l17 100h80c-11 33 -19 67 -19 101c0 140 103 231 277 231c173 0 210 -107 215 -220l-169 -22c-2 46 -15 91 -65 91c-45 0 -66 -33 -66 -80c0 -33 11 -65 23 -101h173l-17 -100h-129c3 -20 5 -42 5 -66c0 -50 -12 -93 -31 -129c11 -3 21 -5 33 -5c35 0 57 7 68 94
h159c-15 -124 -52 -230 -193 -230c-75 0 -126 18 -164 43c-50 -29 -109 -43 -168 -43c-80 0 -142 42 -140 125c0 98 79 138 151 138c44 0 81 -16 115 -37c0 8 1 15 1 23c0 25 -9 55 -21 87h-135zM101 80c29 0 52 10 69 28c-22 24 -41 42 -67 42c-27 0 -42 -15 -42 -40
c1 -16 11 -30 40 -30z" />
    <glyph glyph-name="yen.tab" 
d="M160 0l14 77h-164l17 101h164l10 55h-164l18 100h161l-162 407h203l88 -244l175 244h207l-306 -407h164l-18 -100h-166l-10 -55h166l-17 -101h-166l-14 -77h-200z" />
    <glyph glyph-name="florin.tab" 
d="M136 -204c-37 0 -108 6 -118 9l24 130c9 -3 34 -6 51 -6c47 0 71 22 81 79l64 364h-92l24 134h92l7 50c13 90 52 189 234 189c39 0 110 -6 120 -9l-25 -135c-9 3 -34 6 -51 6c-35 0 -73 -2 -81 -59l-6 -42h116l-24 -134h-116l-71 -408c-13 -75 -47 -168 -229 -168z" />
    <glyph glyph-name="numbersign.tab" 
d="M81 0l26 174h-58v143h81l16 106h-65v143h87l27 174h151l-30 -174h60l28 174h149l-28 -174h75v-143h-96l-17 -106h81v-143h-102l-27 -174h-150l26 174h-57l-28 -174h-149zM279 317h58l16 106h-56z" />
    <glyph glyph-name="percent.tab" horiz-adv-x="980" 
d="M196 251c-101 0 -162 71 -162 192c0 184 92 305 239 305c104 0 165 -69 165 -189c0 -185 -88 -308 -242 -308zM220 377c48 0 71 110 71 191c0 34 -11 51 -39 51c-49 0 -71 -110 -71 -183c0 -40 11 -59 39 -59zM707 -8c-101 0 -162 71 -162 192c0 184 92 305 239 305
c104 0 165 -69 165 -189c0 -185 -88 -308 -242 -308zM731 118c48 0 71 110 71 191c0 34 -11 51 -39 51c-49 0 -71 -110 -71 -183c0 -40 11 -59 39 -59zM179 0l505 740h118l-505 -740h-118z" />
    <glyph glyph-name="period.tab" horiz-adv-x="325" 
d="M-5 0l32 180h207l-32 -180h-207z" />
    <glyph glyph-name="comma.tab" horiz-adv-x="325" 
d="M1 -127l72 127h-79l32 180h207l-27 -153l-113 -154h-92z" />
    <glyph glyph-name="colon.tab" horiz-adv-x="325" 
d="M-6 0l32 180h207l-32 -180h-207zM57 356l32 180h207l-32 -180h-207z" />
    <glyph glyph-name="semicolon.tab" horiz-adv-x="325" 
d="M-2 -127l72 127h-76l32 180h207l-26 -148l-117 -159h-92zM57 356l32 180h207l-32 -180h-207z" />
    <glyph glyph-name="parenleft.tab" horiz-adv-x="325" 
d="M268 -118l-114 -79c-114 123 -180 251 -180 406c0 248 137 432 354 569l75 -102c-132 -113 -225 -300 -225 -490c0 -115 34 -218 90 -304z" />
    <glyph glyph-name="parenright.tab" horiz-adv-x="325" 
d="M-30 -199l-82 97c136 113 232 303 232 495c0 113 -32 213 -85 297l109 86c114 -122 181 -251 181 -405c0 -248 -139 -432 -355 -570z" />
    <glyph glyph-name="asterisk.tab" 
d="M487 314l-106 -40l-44 151l-91 -128l-87 74l110 112l-156 16l19 109l154 -38l-66 143l106 40l42 -152l92 129l88 -75l-112 -112l157 -16l-19 -109l-153 38z" />
    <glyph glyph-name="periodcentered.tab" horiz-adv-x="325" 
d="M252 254h-217l32 180h217z" />
    <glyph glyph-name="slash.tab" 
d="M-55 0l560 740h202l-560 -740h-202z" />
    <glyph glyph-name="space.tab" unicode="&#x2007;" horiz-adv-x="325" 
 />
    <glyph glyph-name="endash.tab" unicode="&#x2012;" 
d="M596 228h-590l29 165h590z" />
    </font>
</defs>
</svg>
