<svg id="Outlined_Type" data-name="Outlined Type" xmlns="http://www.w3.org/2000/svg" viewBox="0 0 250 249.78"><defs><style>.cls-1{fill:#1d2c27}</style></defs><path class="cls-1" d="M126 238.93a3.13 3.13 0 103.13 3.13 3.13 3.13 0 00-3.13-3.13zM226.87 125.23a101 101 0 01-91.35 100.55c-.49-6.73-1-14.19-1.31-21.67l-.34-9.17c0-.52.3-.88.87-.28 7.75 8.16 8.16 6.9 11.36 6 3.59-1.05 14.42-5 16-6.11 1.43-1 1-1.53-.62-2.22-8.17-3.44-25.51-11.17-27.94-12.19a.47.47 0 01-.29-.42l-.2-5.2a.47.47 0 01.63-.46c4.23 1.58 25.8 10.48 29 11.65 3.48 1.29 5.46 1.13 8.23-.79 2.12-1.47 9.12-9.7 10.28-11.66.43-.73.9-1.45-.49-1.74s-43.27-8.79-47.74-9.63a.48.48 0 01-.38-.44l-.2-5.11a.46.46 0 01.53-.48c4.8.75 37.38 6.5 41 7.09 3.91.64 4.76-.85 6.11-2.55s5.88-11.59 6.38-12.52c.93-1.71 1-2.45-.63-2.56-13.65-.88-49.16-3-53.57-3.25a.47.47 0 01-.44-.44l-.17-4.77a.47.47 0 01.48-.49c4.58.15 41.26 1.27 43.7 1.19s3.55-.36 4.9-3.2c1.21-2.55 2.75-13.49 2.9-14.7.1-.91.21-1.63-1.36-1.34-12.48 2.3-46.06 6-50.58 6.59a.47.47 0 01-.52-.45L131 120a.48.48 0 01.39-.49c3.85-.59 34.56-5.21 38-5.83 3.65-.67 4.3-1.35 5.16-4 .58-1.83 1.21-10.82 1.22-11.78s.1-1.59-1.26-1.19c-20.74 6.06-39.88 10.9-43.35 11.77a.48.48 0 01-.59-.44l-.16-4.24a.46.46 0 01.34-.47c3.25-.88 28.25-7.6 30.34-8.33 2.37-.79 4.37-1.9 4.83-4.67a70.49 70.49 0 00.42-10.11c-.08-1.36-.25-1.71-1.37-1.16-9.41 4.65-30.6 12.58-34.45 14a.48.48 0 01-.64-.43l-.15-4.1a.45.45 0 01.29-.45c2.56-1.05 20.54-8.41 23.51-9.7s3.45-2.26 3.73-4.91a41.42 41.42 0 00-.14-7.77c-.22-1.51-.11-1.87-2.39-.52-4.57 2.76-21.21 11.42-24.73 13.25a.47.47 0 01-.68-.4l-.16-4a.46.46 0 01.25-.43c1.79-1 12.43-6.66 14.93-8 3.24-1.77 4.15-3.14 4.22-4.66a47 47 0 00-.32-7.32c-.29-2.1-.76-2.38-2.14-1.28-6 4.78-14.21 10.16-16.62 11.73a.47.47 0 01-.72-.38l-.14-3.69a.48.48 0 01.17-.39c1.4-1.12 10.29-7.57 10.29-7.57a3.63 3.63 0 001.16-2.17 36.18 36.18 0 00-1-6.65c-.31-.89-.51-1.38-1.48-.41a112.7 112.7 0 01-8.76 8.07c-.5.41-.68.49-.68.07 0-4.14 1.88-12.34-2.21-14.6a.42.42 0 00-.22-.05.44.44 0 00-.22.05c-4.08 2.26-2.2 10.46-2.2 14.6 0 .42-.19.34-.68-.07a112.24 112.24 0 01-8.87-8.06c-1-1-1.16-.48-1.48.41a36.33 36.33 0 00-.94 6.65 3.58 3.58 0 001.15 2.17s8.89 6.45 10.29 7.57a.48.48 0 01.18.39l-.14 3.61a.48.48 0 01-.73.38c-2.41-1.57-10.62-7-16.61-11.73-1.38-1.1-1.86-.82-2.15 1.28a47 47 0 00-.32 7.32c.07 1.52 1 2.89 4.23 4.66 2.49 1.37 13.13 7.07 14.93 8a.45.45 0 01.24.43l-.15 4a.48.48 0 01-.69.4c-3.57-1.76-20.2-10.42-24.73-13.14-2.28-1.35-2.18-1-2.39.52a40.59 40.59 0 00-.14 7.77c.28 2.65.83 3.66 3.72 4.91s21 8.65 23.52 9.7a.47.47 0 01.29.45l-.16 4.1a.47.47 0 01-.63.43c-3.86-1.43-25-9.36-34.46-14-1.11-.55-1.28-.2-1.37 1.16a70.72 70.72 0 00.43 10.11c.45 2.77 2.45 3.88 4.83 4.67 2.09.7 27.11 7.42 30.42 8.31a.46.46 0 01.35.47l-.17 4.24a.47.47 0 01-.58.44c-3.48-.87-22.61-5.71-43.35-11.77-1.36-.4-1.28.19-1.27 1.19s.64 10 1.23 11.78c.85 2.67 1.5 3.35 5.15 4 3.4.62 34.11 5.24 38 5.83a.49.49 0 01.4.49l-.17 4.39a.47.47 0 01-.53.45c-4.52-.56-38.1-4.29-50.57-6.59-1.57-.29-1.47.43-1.36 1.34.14 1.21 1.68 12.15 2.89 14.7 1.35 2.84 2.42 3.11 4.9 3.2s39.13-1 43.7-1.19a.47.47 0 01.48.49l-.17 4.77a.46.46 0 01-.44.44c-4.4.28-39.92 2.37-53.57 3.25-1.63.11-1.55.85-.63 2.56.51.93 5 10.81 6.39 12.52s2.2 3.19 6.1 2.55c3.63-.59 36.22-6.34 41-7.09a.47.47 0 01.54.48l-.21 5.11a.46.46 0 01-.38.44c-4.47.84-46.42 9.35-47.74 9.63s-.91 1-.48 1.74c1.16 2 8.15 10.19 10.28 11.66 2.77 1.92 4.74 2.08 8.23.79 3.17-1.17 24.73-10.07 29-11.65a.47.47 0 01.63.46l-.2 5.2a.46.46 0 01-.29.42c-2.42 1-19.76 8.75-27.94 12.19-1.64.69-2 1.22-.61 2.22 1.61 1.12 12.43 5.06 16 6.11 3.21.94 3.61 2.2 11.36-6 .58-.6.82-.24.87.28l-.34 9.17c-.35 7.48-.82 14.94-1.31 21.67a101 101 0 11110.62-100.5zM115.89 234.46l-2.16 15.31-3.37-.48.84-5.94-6-.85-.84 5.94L101 248l2.16-15.3 3.38.48-.93 6.53 6 .85.92-6.53zM99.69 231.72l-3.79 15-3.28-.83 3.78-15zM92.5 233.61l-2.93.56a4.58 4.58 0 00-3-3.9c-1.48-.54-2.74-.37-3.14.75s.47 1.95 2.18 3.17c2.33 1.66 4.8 3.32 3.69 6.36-1 2.71-3.69 3.57-6.82 2.44a7 7 0 01-4.69-5.08l2.81-.91a4.58 4.58 0 002.82 3.36c1.36.49 2.31.18 2.63-.69.42-1.16-.51-2-2.22-3.18-2.31-1.62-4.72-3.41-3.63-6.41.84-2.34 3.37-3.78 7.41-2.31a6.92 6.92 0 014.89 5.84zM76.7 223.46L71 234.69l4.09 2.1-1.29 2.53-11.23-5.75 1.24-2.57 4.11 2.1 5.75-11.23zM64.37 225.77c-3.09 4.46-7.49 4.57-10.57 2.44s-4.5-6.27-1.41-10.74 7.49-4.57 10.55-2.45 4.52 6.28 1.43 10.75zm-9.19-6.37c-1.85 2.67-1.73 5.14.23 6.49s4.31.6 6.16-2.06 1.79-5.19-.19-6.56-4.38-.53-6.2 2.13zM54.86 209.43l-10.5 11.35-4.26-3.95c-2.79-2.58-3.54-5.13-1.21-7.64a4.13 4.13 0 015.35-1.05L46 201.2l2.64 2.44L47 210.1l1.44 1.34 4-4.28zm-8.2 3.94L45 211.79c-1.44-1.33-2.51-1.55-3.58-.41s-.73 2.18.71 3.51l1.71 1.58zM44 198.87L32.43 209.1l-2.24-2.54 11.59-10.23z"/><path class="cls-1" d="M33.5 198.76c-4.37 3.12-8.32 2.12-10.59-1.06s-1.56-5.77.32-7.93l2.63 2.07c-1.15 1.44-1.7 2.76-.65 4.24 1.36 1.9 3.71 1.77 6.31-.09s3.56-4.14 2.2-6c-1-1.48-2.51-1.54-4.54-.76l-1.28-3c3-1.2 5.8-1 8.06 2.2s1.97 7.16-2.46 10.33zM31.59 182.72l-16.28 2.44-1.52-2.86 11.14-12.11 1.62 3.05-2.55 2.63 2.47 4.65 3.61-.57zm-7.65-1.78l-1.7-3.22-3.82 4zM24.21 168.21l-14.45 5.48-1.21-3.19 11.88-4.5-2.43-6.36 2.58-1zM18.94 153.3l-16.28-2.39-.66-3.17 14.17-8.36.67 3.38-3.17 1.79 1 5.17 3.61.5zm-6.79-3.93l-.7-3.56-4.82 2.75zM8.44 139.35c-5.35.33-8.18-2.61-8.42-6.51s1.74-5.71 4.47-6.56l1.14 3.16c-1.75.61-2.91 1.43-2.79 3.25C3 135 5 136.15 8.23 136s5.21-1.62 5.07-4c-.11-1.81-1.32-2.64-3.46-3.05l.51-3.23c3.16.56 5.44 2.25 5.68 6.13s-2.15 7.15-7.59 7.5zM7.62 123.16c-5.36-.4-7.75-3.7-7.46-7.59s2.5-5.43 5.32-5.89l.69 3.32c-1.8.37-3.07 1-3.2 2.84-.18 2.33 1.71 3.73 4.9 4s5.38-.9 5.56-3.24c.13-1.81-.95-2.79-3-3.49l.95-3.13c3 1 5.07 3 4.79 6.85s-3.12 6.74-8.55 6.33zM9 107c-5.31-1.17-7.08-5.2-6.27-8.85s4.09-6.54 9.4-5.37 7.07 5.19 6.27 8.82-4.11 6.56-9.4 5.4zm2.4-10.92c-3.16-.69-5.4.35-5.92 2.68s1.09 4.22 4.25 4.91 5.48-.31 6-2.66-1.18-4.23-4.34-4.93zM14.85 90.21l-8.93-3.38 1.2-3.18L16 87c2.09.79 3.56.43 4.28-1.47s-.15-3.09-2.26-3.89l-8.87-3.35 1.18-3.12 8.91 3.37c3.56 1.34 5.11 4 3.59 8s-4.44 5.01-7.98 3.67zM26.06 77.87l-13.52-7.5 1.65-3L26 66.51l-8.62-4.78L18.87 59l13.52 7.5-1.52 2.74-12 1.08 8.7 4.83zM36.35 61l-10.09-7.62-2.76 3.68-2.27-1.71 7.57-10.09L31.08 47l-2.77 3.7 10.09 7.53zM40.58 55.17l-7.52-14.64 2.23-2.35 15 6.68L48 47.37l-3.29-1.54L41 49.66l1.69 3.23zm-.75-7.81l2.49-2.64-5-2.33zM51.88 43.53l-9.68-12 4.8-3.92c2.21-1.78 4.73-2.92 6.69-.47a3.39 3.39 0 01-.07 4.61c1.67-.92 3.44-1.08 5 .84 2 2.43.53 5-1.71 6.84zm-3.08-9.17l2-1.57c1.38-1.12 1.6-2.15.85-3.07s-1.75-1-3.16.13l-2 1.59zm4.07 5.06L55 37.71c1.46-1.18 1.64-2.29.82-3.32s-2-1-3.5.22l-2 1.62zM64.06 34.25l-8.42-13 2.84-1.84 8.42 13zM70 30.46l-7.26-13.67 3-1.59 5.93 11.24 6-3.18L79 25.7zM81.32 24.79l-5.95-14.27 3.12-1.3 6 14.27zM91.08 21.09L87.37 9 83 10.39l-.84-2.72L94.2 4l.8 2.67L90.62 8l3.72 12.06zM104.78 17.6l-1.1-6.46-6.75-7.88 3.46-.59L104.88 8l2.49-6.53 3.42-.57-3.79 9.67 1.1 6.46zM119.72 12.14l2.59-1.48a4.6 4.6 0 004.14 2.7c1.57 0 2.7-.54 2.72-1.73s-1.08-1.69-3.09-2.29c-2.75-.82-5.62-1.57-5.57-4.81 0-2.89 2.33-4.58 5.65-4.53a7 7 0 016.1 3.27L129.87 5a4.61 4.61 0 00-3.77-2.25c-1.44 0-2.25.59-2.26 1.51C123.82 5.52 125 6 127 6.57c2.7.78 5.57 1.68 5.52 4.88 0 2.49-2 4.67-6.26 4.6a6.9 6.9 0 01-6.54-3.91zM138 16.5L139.66 4l-4.56-.61.38-2.81L148 2.24l-.37 2.82-4.63-.62L141.35 17zM149.39 12.25L151.91 3l3.28.9-2.49 9.13c-.59 2.16-.09 3.59 1.86 4.13s3.07-.45 3.67-2.62l2.49-9.13 3.22.88-2.51 9.19c-1 3.67-3.48 5.46-7.63 4.32s-5.4-3.9-4.41-7.55zM162.72 22.24l6.12-14.19 4.36 1.88c4.33 1.87 6.8 5.12 4.56 10.3s-6.41 5.74-10.69 3.89zm4.2-1.19l1.45.63c3.09 1.33 4.86.46 6.25-2.76 1.31-3 .73-5-2.38-6.31l-1.42-.61zM176.92 28.7l8-13.26 9 5.42-1.46 2.43-6.11-3.66-1.71 2.85 4.43 2.65-1.39 2.31-4.42-2.65-2 3.3 6.43 3.85-1.42 2.37zM188.3 35.67l9.67-12 2.65 2.13-1.11 11.74 6.17-7.69 2.44 2-9.66 12.06-2.45-2 1-12-6.21 7.75zM203.25 48.67l9.16-8.67-3.17-3.33 2.06-2 8.7 9.18-2.06 1.95-3.18-3.35-9.16 8.69zM213.46 60.49L226.39 52l3.18 4.86c2.09 3.18 2.2 5.83-.67 7.7a4.13 4.13 0 01-5.45-.27l-3.35 6.32-2-3 3.11-5.88-1.07-1.65-4.88 3.2zm8.91-1.84l1.27 1.94c1.08 1.64 2.06 2.12 3.37 1.26s1.23-1.93.16-3.57l-1.27-1.94zM221.38 73.08l13.92-6.73 4.58 9.48-2.56 1.24-3.1-6.42-3 1.45 2.25 4.64-2.43 1.18-2.24-4.65-3.46 1.67 3.26 6.75-2.48 1.21zM230 83l2.28 2a4.58 4.58 0 00-1.16 4.8c.5 1.48 1.41 2.37 2.54 2s1.23-1.58 1.12-3.68c-.15-2.87-.39-5.82 2.68-6.86 2.73-.91 5.09.67 6.15 3.82a7 7 0 01-1.05 6.84l-2.46-1.67a4.59 4.59 0 00.87-4.3c-.46-1.37-1.3-1.92-2.18-1.63-1.16.39-1.21 1.62-1.1 3.72.17 2.81.27 5.82-2.76 6.83-2.35.8-5.05-.28-6.42-4.36A6.9 6.9 0 01230 83zM231.37 98.88l15.17-3 2.05 10.33-2.79.55-1.39-7-3.26.65 1 5.06-2.65.52-1-5.06-3.77.75 1.47 7.32-2.71.54zM233.73 110.79l15.85 4.44.21 3.23-15.13 6.48-.22-3.44 3.36-1.37-.35-5.25-3.52-1zm6.24 4.76l.24 3.62 5.13-2.11zM234.57 127l15.43 1.09-.4 5.79c-.26 3.8-1.77 6-5.19 5.74a4.12 4.12 0 01-4.17-3.51l-6.49 3 .24-3.58 6-2.82.13-1.95-5.81-.4zm8.22 3.91l-.16 2.32c-.13 2 .36 2.93 1.93 3s2.15-.79 2.28-2.75l.16-2.32zM241.12 142.46c5.26 1.09 7.21 4.67 6.42 8.5s-3.18 5.06-6 5.15l-.27-3.34c1.85-.13 3.18-.63 3.55-2.41.48-2.29-1.21-3.92-4.34-4.56s-5.47.19-5.94 2.48c-.37 1.78.58 2.89 2.53 3.85l-1.34 3c-2.9-1.37-4.65-3.61-3.87-7.41.78-3.96 3.92-6.36 9.26-5.26zM230.07 156.58l14.53 5.28-1.16 3.21-5.64-2-2.08 5.71 5.64 2.05-1.16 3.17-14.54-5.29 1.17-3.2 6.2 2.26 2.08-5.71-6.2-2.26zM221.55 177.06l13.23 8-2.91 4.81c-1.71 2.83-4 4.95-7.5 2.84s-2.6-5.38-1-8l1.13-1.88-4.7-2.83zm5.2 7.1l-1.2 2c-1.09 1.81-.8 2.91.47 3.67s2.33.51 3.43-1.31l1.2-2zM214 189.17l12.05 9.67-3.63 4.53c-2.38 3-4.87 3.9-7.54 1.75a4.13 4.13 0 01-1.42-5.27l-7.05-1.23 2.25-2.8 6.56 1.14 1.23-1.54-4.55-3.64zm4.5 7.9l-1.45 1.81c-1.23 1.53-1.38 2.62-.15 3.6s2.21.57 3.44-1l1.45-1.81zM210.54 205.6c3.72 4 2.9 8.28.18 10.84s-7.07 3.09-10.79-.87-2.9-8.28-.19-10.82 7.08-3.11 10.8.85zm-8.14 7.65c2.21 2.36 4.65 2.76 6.39 1.13s1.48-4.09-.73-6.45-4.7-2.83-6.45-1.19-1.43 4.15.79 6.51zM197.66 217.48c2.76 4 2.33 8.07-1.24 10.55-2.4 1.67-5 2.05-7.95-.5l2.06-2.48c1.76 1.4 3.05 1.53 4.3.66 1-.72 2.53-2.66 0-6.22s-4.8-3.25-6.16-2.31a3.11 3.11 0 00-1 4.09l2.21-1.54 1.45 2.08-4.88 3.39-4.42-6.37 2.25-1.56 1.21 1.75a4.24 4.24 0 011.93-4.29c3.91-2.73 7.58-1.08 10.24 2.75zM179.31 220.41l6.95 13.81-5.18 2.61c-3.4 1.71-6 1.52-7.58-1.54a4.12 4.12 0 01.89-5.38l-5.9-4 3.21-1.61 5.49 3.75 1.76-.88-2.63-5.2zm.82 9.06l-2.07 1.05c-1.75.88-2.34 1.8-1.63 3.2s1.77 1.45 3.53.56l2.07-1zM167.31 226.41l-.13 16.46-3.06 1.06L153.9 231l3.26-1.12 2.2 2.89 5-1.71v-3.65zm-3 7.27l-3.43 1.18 3.39 4.41zM152 231.59l2.7 15.23-4.42.78-5.41-10.6-1.19 11.75-4.52.8-2.7-15.22 3.23-.57 1.84 10.39a27.66 27.66 0 01.24-3.55l1-7.39 3-.53 3.5 6.59a28.3 28.3 0 011.52 3.41L149 232.13zM126 238.93a3.13 3.13 0 103.13 3.13 3.13 3.13 0 00-3.13-3.13z"/><path class="cls-1" d="M226.87 125.23a101 101 0 01-91.35 100.55c-.49-6.73-1-14.19-1.31-21.67l-.34-9.17c0-.52.3-.88.87-.28 7.75 8.16 8.16 6.9 11.36 6 3.59-1.05 14.42-5 16-6.11 1.43-1 1-1.53-.62-2.22-8.17-3.44-25.51-11.17-27.94-12.19a.47.47 0 01-.29-.42l-.2-5.2a.47.47 0 01.63-.46c4.23 1.58 25.8 10.48 29 11.65 3.48 1.29 5.46 1.13 8.23-.79 2.12-1.47 9.12-9.7 10.28-11.66.43-.73.9-1.45-.49-1.74s-43.27-8.79-47.74-9.63a.48.48 0 01-.38-.44l-.2-5.11a.46.46 0 01.53-.48c4.8.75 37.38 6.5 41 7.09 3.91.64 4.76-.85 6.11-2.55s5.88-11.59 6.38-12.52c.93-1.71 1-2.45-.63-2.56-13.65-.88-49.16-3-53.57-3.25a.47.47 0 01-.44-.44l-.17-4.77a.47.47 0 01.48-.49c4.58.15 41.26 1.27 43.7 1.19s3.55-.36 4.9-3.2c1.21-2.55 2.75-13.49 2.9-14.7.1-.91.21-1.63-1.36-1.34-12.48 2.3-46.06 6-50.58 6.59a.47.47 0 01-.52-.45L131 120a.48.48 0 01.39-.49c3.85-.59 34.56-5.21 38-5.83 3.65-.67 4.3-1.35 5.16-4 .58-1.83 1.21-10.82 1.22-11.78s.1-1.59-1.26-1.19c-20.74 6.06-39.88 10.9-43.35 11.77a.48.48 0 01-.59-.44l-.16-4.24a.46.46 0 01.34-.47c3.25-.88 28.25-7.6 30.34-8.33 2.37-.79 4.37-1.9 4.83-4.67a70.49 70.49 0 00.42-10.11c-.08-1.36-.25-1.71-1.37-1.16-9.41 4.65-30.6 12.58-34.45 14a.48.48 0 01-.64-.43l-.15-4.1a.45.45 0 01.29-.45c2.56-1.05 20.54-8.41 23.51-9.7s3.45-2.26 3.73-4.91a41.42 41.42 0 00-.14-7.77c-.22-1.51-.11-1.87-2.39-.52-4.57 2.76-21.21 11.42-24.73 13.25a.47.47 0 01-.68-.4l-.16-4a.46.46 0 01.25-.43c1.79-1 12.43-6.66 14.93-8 3.24-1.77 4.15-3.14 4.22-4.66a47 47 0 00-.32-7.32c-.29-2.1-.76-2.38-2.14-1.28-6 4.78-14.21 10.16-16.62 11.73a.47.47 0 01-.72-.38l-.14-3.69a.48.48 0 01.17-.39c1.4-1.12 10.29-7.57 10.29-7.57a3.63 3.63 0 001.16-2.17 36.18 36.18 0 00-1-6.65c-.31-.89-.51-1.38-1.48-.41a112.7 112.7 0 01-8.76 8.07c-.5.41-.68.49-.68.07 0-4.14 1.88-12.34-2.21-14.6a.42.42 0 00-.22-.05.44.44 0 00-.22.05c-4.08 2.26-2.2 10.46-2.2 14.6 0 .42-.19.34-.68-.07a112.24 112.24 0 01-8.87-8.06c-1-1-1.16-.48-1.48.41a36.33 36.33 0 00-.94 6.65 3.58 3.58 0 001.15 2.17s8.89 6.45 10.29 7.57a.48.48 0 01.18.39l-.14 3.61a.48.48 0 01-.73.38c-2.41-1.57-10.62-7-16.61-11.73-1.38-1.1-1.86-.82-2.15 1.28a47 47 0 00-.32 7.32c.07 1.52 1 2.89 4.23 4.66 2.49 1.37 13.13 7.07 14.93 8a.45.45 0 01.24.43l-.15 4a.48.48 0 01-.69.4c-3.57-1.76-20.2-10.42-24.73-13.14-2.28-1.35-2.18-1-2.39.52a40.59 40.59 0 00-.14 7.77c.28 2.65.83 3.66 3.72 4.91s21 8.65 23.52 9.7a.47.47 0 01.29.45l-.16 4.1a.47.47 0 01-.63.43c-3.86-1.43-25-9.36-34.46-14-1.11-.55-1.28-.2-1.37 1.16a70.72 70.72 0 00.43 10.11c.45 2.77 2.45 3.88 4.83 4.67 2.09.7 27.11 7.42 30.42 8.31a.46.46 0 01.35.47l-.17 4.24a.47.47 0 01-.58.44c-3.48-.87-22.61-5.71-43.35-11.77-1.36-.4-1.28.19-1.27 1.19s.64 10 1.23 11.78c.85 2.67 1.5 3.35 5.15 4 3.4.62 34.11 5.24 38 5.83a.49.49 0 01.4.49l-.17 4.39a.47.47 0 01-.53.45c-4.52-.56-38.1-4.29-50.57-6.59-1.57-.29-1.47.43-1.36 1.34.14 1.21 1.68 12.15 2.89 14.7 1.35 2.84 2.42 3.11 4.9 3.2s39.13-1 43.7-1.19a.47.47 0 01.48.49l-.17 4.77a.46.46 0 01-.44.44c-4.4.28-39.92 2.37-53.57 3.25-1.63.11-1.55.85-.63 2.56.51.93 5 10.81 6.39 12.52s2.2 3.19 6.1 2.55c3.63-.59 36.22-6.34 41-7.09a.47.47 0 01.54.48l-.21 5.11a.46.46 0 01-.38.44c-4.47.84-46.42 9.35-47.74 9.63s-.91 1-.48 1.74c1.16 2 8.15 10.19 10.28 11.66 2.77 1.92 4.74 2.08 8.23.79 3.17-1.17 24.73-10.07 29-11.65a.47.47 0 01.63.46l-.2 5.2a.46.46 0 01-.29.42c-2.42 1-19.76 8.75-27.94 12.19-1.64.69-2 1.22-.61 2.22 1.61 1.12 12.43 5.06 16 6.11 3.21.94 3.61 2.2 11.36-6 .58-.6.82-.24.87.28l-.34 9.17c-.35 7.48-.82 14.94-1.31 21.67a101 101 0 11110.62-100.5zM115.89 234.46l-2.16 15.31-3.37-.48.84-5.94-6-.85-.84 5.94L101 248l2.16-15.3 3.38.48-.93 6.53 6 .85.92-6.53zM99.69 231.72l-3.79 15-3.28-.83 3.78-15zM92.5 233.61l-2.93.56a4.58 4.58 0 00-3-3.9c-1.48-.54-2.74-.37-3.14.75s.47 1.95 2.18 3.17c2.33 1.66 4.8 3.32 3.69 6.36-1 2.71-3.69 3.57-6.82 2.44a7 7 0 01-4.69-5.08l2.81-.91a4.58 4.58 0 002.82 3.36c1.36.49 2.31.18 2.63-.69.42-1.16-.51-2-2.22-3.18-2.31-1.62-4.72-3.41-3.63-6.41.84-2.34 3.37-3.78 7.41-2.31a6.92 6.92 0 014.89 5.84zM76.7 223.46L71 234.69l4.09 2.1-1.29 2.53-11.23-5.75 1.24-2.57 4.11 2.1 5.75-11.23zM64.37 225.77c-3.09 4.46-7.49 4.57-10.57 2.44s-4.5-6.27-1.41-10.74 7.49-4.57 10.55-2.45 4.52 6.28 1.43 10.75zm-9.19-6.37c-1.85 2.67-1.73 5.14.23 6.49s4.31.6 6.16-2.06 1.79-5.19-.19-6.56-4.38-.53-6.2 2.13zM54.86 209.43l-10.5 11.35-4.26-3.95c-2.79-2.58-3.54-5.13-1.21-7.64a4.13 4.13 0 015.35-1.05L46 201.2l2.64 2.44L47 210.1l1.44 1.34 4-4.28zm-8.2 3.94L45 211.79c-1.44-1.33-2.51-1.55-3.58-.41s-.73 2.18.71 3.51l1.71 1.58zM44 198.87L32.43 209.1l-2.24-2.54 11.59-10.23z"/><path class="cls-1" d="M33.5 198.76c-4.37 3.12-8.32 2.12-10.59-1.06s-1.56-5.77.32-7.93l2.63 2.07c-1.15 1.44-1.7 2.76-.65 4.24 1.36 1.9 3.71 1.77 6.31-.09s3.56-4.14 2.2-6c-1-1.48-2.51-1.54-4.54-.76l-1.28-3c3-1.2 5.8-1 8.06 2.2s1.97 7.16-2.46 10.33zM31.59 182.72l-16.28 2.44-1.52-2.86 11.14-12.11 1.62 3.05-2.55 2.63 2.47 4.65 3.61-.57zm-7.65-1.78l-1.7-3.22-3.82 4zM24.21 168.21l-14.45 5.48-1.21-3.19 11.88-4.5-2.43-6.36 2.58-1zM18.94 153.3l-16.28-2.39-.66-3.17 14.17-8.36.67 3.38-3.17 1.79 1 5.17 3.61.5zm-6.79-3.93l-.7-3.56-4.82 2.75zM8.44 139.35c-5.35.33-8.18-2.61-8.42-6.51s1.74-5.71 4.47-6.56l1.14 3.16c-1.75.61-2.91 1.43-2.79 3.25C3 135 5 136.15 8.23 136s5.21-1.62 5.07-4c-.11-1.81-1.32-2.64-3.46-3.05l.51-3.23c3.16.56 5.44 2.25 5.68 6.13s-2.15 7.15-7.59 7.5zM7.62 123.16c-5.36-.4-7.75-3.7-7.46-7.59s2.5-5.43 5.32-5.89l.69 3.32c-1.8.37-3.07 1-3.2 2.84-.18 2.33 1.71 3.73 4.9 4s5.38-.9 5.56-3.24c.13-1.81-.95-2.79-3-3.49l.95-3.13c3 1 5.07 3 4.79 6.85s-3.12 6.74-8.55 6.33zM9 107c-5.31-1.17-7.08-5.2-6.27-8.85s4.09-6.54 9.4-5.37 7.07 5.19 6.27 8.82-4.11 6.56-9.4 5.4zm2.4-10.92c-3.16-.69-5.4.35-5.92 2.68s1.09 4.22 4.25 4.91 5.48-.31 6-2.66-1.18-4.23-4.34-4.93zM14.85 90.21l-8.93-3.38 1.2-3.18L16 87c2.09.79 3.56.43 4.28-1.47s-.15-3.09-2.26-3.89l-8.87-3.35 1.18-3.12 8.91 3.37c3.56 1.34 5.11 4 3.59 8s-4.44 5.01-7.98 3.67zM26.06 77.87l-13.52-7.5 1.65-3L26 66.51l-8.62-4.78L18.87 59l13.52 7.5-1.52 2.74-12 1.08 8.7 4.83zM36.35 61l-10.09-7.62-2.76 3.68-2.27-1.71 7.57-10.09L31.08 47l-2.77 3.7 10.09 7.53zM40.58 55.17l-7.52-14.64 2.23-2.35 15 6.68L48 47.37l-3.29-1.54L41 49.66l1.69 3.23zm-.75-7.81l2.49-2.64-5-2.33zM51.88 43.53l-9.68-12 4.8-3.92c2.21-1.78 4.73-2.92 6.69-.47a3.39 3.39 0 01-.07 4.61c1.67-.92 3.44-1.08 5 .84 2 2.43.53 5-1.71 6.84zm-3.08-9.17l2-1.57c1.38-1.12 1.6-2.15.85-3.07s-1.75-1-3.16.13l-2 1.59zm4.07 5.06L55 37.71c1.46-1.18 1.64-2.29.82-3.32s-2-1-3.5.22l-2 1.62zM64.06 34.25l-8.42-13 2.84-1.84 8.42 13zM70 30.46l-7.26-13.67 3-1.59 5.93 11.24 6-3.18L79 25.7zM81.32 24.79l-5.95-14.27 3.12-1.3 6 14.27zM91.08 21.09L87.37 9 83 10.39l-.84-2.72L94.2 4l.8 2.67L90.62 8l3.72 12.06zM104.78 17.6l-1.1-6.46-6.75-7.88 3.46-.59L104.88 8l2.49-6.53 3.42-.57-3.79 9.67 1.1 6.46zM119.72 12.14l2.59-1.48a4.6 4.6 0 004.14 2.7c1.57 0 2.7-.54 2.72-1.73s-1.08-1.69-3.09-2.29c-2.75-.82-5.62-1.57-5.57-4.81 0-2.89 2.33-4.58 5.65-4.53a7 7 0 016.1 3.27L129.87 5a4.61 4.61 0 00-3.77-2.25c-1.44 0-2.25.59-2.26 1.51C123.82 5.52 125 6 127 6.57c2.7.78 5.57 1.68 5.52 4.88 0 2.49-2 4.67-6.26 4.6a6.9 6.9 0 01-6.54-3.91zM138 16.5L139.66 4l-4.56-.61.38-2.81L148 2.24l-.37 2.82-4.63-.62L141.35 17zM149.39 12.25L151.91 3l3.28.9-2.49 9.13c-.59 2.16-.09 3.59 1.86 4.13s3.07-.45 3.67-2.62l2.49-9.13 3.22.88-2.51 9.19c-1 3.67-3.48 5.46-7.63 4.32s-5.4-3.9-4.41-7.55zM162.72 22.24l6.12-14.19 4.36 1.88c4.33 1.87 6.8 5.12 4.56 10.3s-6.41 5.74-10.69 3.89zm4.2-1.19l1.45.63c3.09 1.33 4.86.46 6.25-2.76 1.31-3 .73-5-2.38-6.31l-1.42-.61zM176.92 28.7l8-13.26 9 5.42-1.46 2.43-6.11-3.66-1.71 2.85 4.43 2.65-1.39 2.31-4.42-2.65-2 3.3 6.43 3.85-1.42 2.37zM188.3 35.67l9.67-12 2.65 2.13-1.11 11.74 6.17-7.69 2.44 2-9.66 12.06-2.45-2 1-12-6.21 7.75zM203.25 48.67l9.16-8.67-3.17-3.33 2.06-2 8.7 9.18-2.06 1.95-3.18-3.35-9.16 8.69zM213.46 60.49L226.39 52l3.18 4.86c2.09 3.18 2.2 5.83-.67 7.7a4.13 4.13 0 01-5.45-.27l-3.35 6.32-2-3 3.11-5.88-1.07-1.65-4.88 3.2zm8.91-1.84l1.27 1.94c1.08 1.64 2.06 2.12 3.37 1.26s1.23-1.93.16-3.57l-1.27-1.94zM221.38 73.08l13.92-6.73 4.58 9.48-2.56 1.24-3.1-6.42-3 1.45 2.25 4.64-2.43 1.18-2.24-4.65-3.46 1.67 3.26 6.75-2.48 1.21zM230 83l2.28 2a4.58 4.58 0 00-1.16 4.8c.5 1.48 1.41 2.37 2.54 2s1.23-1.58 1.12-3.68c-.15-2.87-.39-5.82 2.68-6.86 2.73-.91 5.09.67 6.15 3.82a7 7 0 01-1.05 6.84l-2.46-1.67a4.59 4.59 0 00.87-4.3c-.46-1.37-1.3-1.92-2.18-1.63-1.16.39-1.21 1.62-1.1 3.72.17 2.81.27 5.82-2.76 6.83-2.35.8-5.05-.28-6.42-4.36A6.9 6.9 0 01230 83zM231.37 98.88l15.17-3 2.05 10.33-2.79.55-1.39-7-3.26.65 1 5.06-2.65.52-1-5.06-3.77.75 1.47 7.32-2.71.54zM233.73 110.79l15.85 4.44.21 3.23-15.13 6.48-.22-3.44 3.36-1.37-.35-5.25-3.52-1zm6.24 4.76l.24 3.62 5.13-2.11zM234.57 127l15.43 1.09-.4 5.79c-.26 3.8-1.77 6-5.19 5.74a4.12 4.12 0 01-4.17-3.51l-6.49 3 .24-3.58 6-2.82.13-1.95-5.81-.4zm8.22 3.91l-.16 2.32c-.13 2 .36 2.93 1.93 3s2.15-.79 2.28-2.75l.16-2.32zM241.12 142.46c5.26 1.09 7.21 4.67 6.42 8.5s-3.18 5.06-6 5.15l-.27-3.34c1.85-.13 3.18-.63 3.55-2.41.48-2.29-1.21-3.92-4.34-4.56s-5.47.19-5.94 2.48c-.37 1.78.58 2.89 2.53 3.85l-1.34 3c-2.9-1.37-4.65-3.61-3.87-7.41.78-3.96 3.92-6.36 9.26-5.26zM230.07 156.58l14.53 5.28-1.16 3.21-5.64-2-2.08 5.71 5.64 2.05-1.16 3.17-14.54-5.29 1.17-3.2 6.2 2.26 2.08-5.71-6.2-2.26zM221.55 177.06l13.23 8-2.91 4.81c-1.71 2.83-4 4.95-7.5 2.84s-2.6-5.38-1-8l1.13-1.88-4.7-2.83zm5.2 7.1l-1.2 2c-1.09 1.81-.8 2.91.47 3.67s2.33.51 3.43-1.31l1.2-2zM214 189.17l12.05 9.67-3.63 4.53c-2.38 3-4.87 3.9-7.54 1.75a4.13 4.13 0 01-1.42-5.27l-7.05-1.23 2.25-2.8 6.56 1.14 1.23-1.54-4.55-3.64zm4.5 7.9l-1.45 1.81c-1.23 1.53-1.38 2.62-.15 3.6s2.21.57 3.44-1l1.45-1.81zM210.54 205.6c3.72 4 2.9 8.28.18 10.84s-7.07 3.09-10.79-.87-2.9-8.28-.19-10.82 7.08-3.11 10.8.85zm-8.14 7.65c2.21 2.36 4.65 2.76 6.39 1.13s1.48-4.09-.73-6.45-4.7-2.83-6.45-1.19-1.43 4.15.79 6.51zM197.66 217.48c2.76 4 2.33 8.07-1.24 10.55-2.4 1.67-5 2.05-7.95-.5l2.06-2.48c1.76 1.4 3.05 1.53 4.3.66 1-.72 2.53-2.66 0-6.22s-4.8-3.25-6.16-2.31a3.11 3.11 0 00-1 4.09l2.21-1.54 1.45 2.08-4.88 3.39-4.42-6.37 2.25-1.56 1.21 1.75a4.24 4.24 0 011.93-4.29c3.91-2.73 7.58-1.08 10.24 2.75zM179.31 220.41l6.95 13.81-5.18 2.61c-3.4 1.71-6 1.52-7.58-1.54a4.12 4.12 0 01.89-5.38l-5.9-4 3.21-1.61 5.49 3.75 1.76-.88-2.63-5.2zm.82 9.06l-2.07 1.05c-1.75.88-2.34 1.8-1.63 3.2s1.77 1.45 3.53.56l2.07-1zM167.31 226.41l-.13 16.46-3.06 1.06L153.9 231l3.26-1.12 2.2 2.89 5-1.71v-3.65zm-3 7.27l-3.43 1.18 3.39 4.41zM152 231.59l2.7 15.23-4.42.78-5.41-10.6-1.19 11.75-4.52.8-2.7-15.22 3.23-.57 1.84 10.39a27.66 27.66 0 01.24-3.55l1-7.39 3-.53 3.5 6.59a28.3 28.3 0 011.52 3.41L149 232.13zM115.93 234.47l-2.15 15.31-3.37-.47.83-5.94-6-.85-.84 5.94-3.4-.46 2.16-15.31 3.37.48-.92 6.53 6 .85.92-6.54zM99.73 231.73l-3.79 15-3.28-.83 3.79-15zM92.54 233.62l-2.94.56a4.59 4.59 0 00-3-3.9c-1.48-.53-2.74-.37-3.14.75s.47 1.95 2.18 3.17c2.33 1.67 4.8 3.32 3.69 6.36-1 2.71-3.69 3.57-6.82 2.44a7 7 0 01-4.69-5.08l2.83-.88a4.65 4.65 0 002.83 3.36c1.36.49 2.32.17 2.63-.7.42-1.15-.51-2-2.22-3.18-2.31-1.61-4.73-3.4-3.63-6.41.84-2.33 3.37-3.77 7.41-2.31a6.92 6.92 0 014.87 5.82zM76.74 223.48L71 234.72l4.09 2.09-1.29 2.53-11.24-5.74 1.3-2.53 4.11 2.1 5.74-11.24zM64.41 225.79c-3.09 4.46-7.49 4.57-10.56 2.44s-4.51-6.23-1.42-10.73 7.49-4.58 10.57-2.5 4.5 6.32 1.41 10.79zm-9.2-6.36c-1.84 2.66-1.72 5.13.24 6.49s4.31.59 6.16-2.07 1.78-5.19-.19-6.56-4.36-.53-6.21 2.14zM54.88 209.45l-10.5 11.34-4.26-3.94c-2.8-2.58-3.54-5.13-1.22-7.64a4.12 4.12 0 015.36-1.05l1.74-6.94 2.63 2.44-1.63 6.46 1.44 1.33 4-4.27zm-8.2 3.94L45 211.81c-1.44-1.33-2.52-1.56-3.58-.41s-.73 2.17.71 3.51l1.7 1.57zM44.05 198.9l-11.58 10.23-2.24-2.54 11.58-10.23z"/><path class="cls-1" d="M33.52 198.8c-4.36 3.12-8.32 2.11-10.59-1.06s-1.55-5.77.32-7.93l2.63 2.07c-1.15 1.44-1.7 2.75-.64 4.23 1.36 1.91 3.7 1.77 6.3-.09s3.57-4.13 2.21-6c-1.06-1.48-2.52-1.54-4.55-.76l-1.28-3c3-1.2 5.81-1 8.07 2.2s2.01 7.17-2.47 10.34zM31.59 182.72l-16.28 2.45-1.52-2.86 11.14-12.11 1.62 3-2.5 2.63 2.46 4.65 3.61-.57zM24 180.94l-1.71-3.21-3.82 4zM24.21 168.21l-14.45 5.47-1.21-3.18 11.88-4.5-2.43-6.37 2.58-1zM19 153.34L2.66 151 2 147.77l14.19-8.36.66 3.39-3.16 1.79 1 5.17 3.61.5zm-6.79-3.93l-.7-3.57-4.83 2.75zM8.44 139.37c-5.35.34-8.17-2.6-8.42-6.5s1.73-5.72 4.46-6.56l1.14 3.15c-1.74.62-2.9 1.44-2.78 3.26C3 135.05 5 136.18 8.23 136s5.21-1.63 5.07-4c-.12-1.82-1.32-2.64-3.46-3.05l.51-3.24c3.15.56 5.43 2.26 5.68 6.13.25 4.05-2.15 7.16-7.59 7.53zM7.62 123.19c-5.36-.4-7.75-3.7-7.46-7.59s2.49-5.43 5.31-5.89l.7 3.27c-1.81.37-3.07 1-3.2 2.85-.18 2.33 1.71 3.72 4.9 4s5.38-.9 5.55-3.23c.14-1.81-.94-2.79-3-3.49l.94-3.14c3.05 1 5.08 3 4.79 6.85s-3.1 6.77-8.53 6.37zM9 107c-5.3-1.17-7.07-5.19-6.27-8.84s4.09-6.55 9.4-5.38 7.07 5.19 6.27 8.82-4.11 6.59-9.4 5.4zm2.4-10.91c-3.16-.7-5.4.35-5.91 2.67s1.08 4.22 4.24 4.91 5.48-.31 6-2.66-1.19-4.21-4.35-4.9zM14.86 90.21l-8.93-3.38 1.21-3.19L16 87c2.09.8 3.57.44 4.29-1.46s-.15-3.09-2.26-3.89l-8.87-3.36 1.19-3.12 8.9 3.37c3.56 1.35 5.1 4 3.58 8s-4.44 5.01-7.97 3.67zM26.05 77.89l-13.52-7.5 1.65-3L26 66.53l-8.62-4.78L18.87 59l13.51 7.5-1.52 2.74-12 1.08 8.69 4.83zM36.34 61l-10.09-7.6-2.76 3.68-2.27-1.7 7.57-10.1L31.06 47l-2.77 3.69 10.09 7.57zM40.56 55.18L33 40.55l2.22-2.36 15 6.68-2.36 2.51-3.3-1.53L41 49.67l1.69 3.24zm-.75-7.81l2.5-2.64-5.05-2.32zM51.88 43.53l-9.68-12 4.8-3.92c2.21-1.78 4.73-2.92 6.69-.48a3.4 3.4 0 01-.07 4.62c1.67-.92 3.44-1.08 5 .84 2 2.42.54 5-1.71 6.84zm-3.09-9.17l2-1.57c1.38-1.12 1.6-2.15.85-3.08s-1.75-1-3.16.13l-2 1.6zm4.08 5.06L55 37.7c1.46-1.17 1.64-2.28.82-3.31s-2-1-3.5.22l-2 1.62zM64.06 34.25l-8.42-13 2.84-1.84 8.41 13zM70 30.46l-7.26-13.67 3-1.59 5.93 11.23 6-3.18L79 25.69zM81.32 24.79l-5.95-14.27 3.13-1.3 6 14.27zM91.08 21.09L87.37 9 83 10.39l-.84-2.72L94.2 4l.8 2.67L90.62 8l3.72 12.06zM104.78 17.6l-1.1-6.47-6.75-7.88 3.46-.59L104.88 8l2.49-6.53 3.42-.58-3.79 9.67 1.12 6.44zM119.72 12.14l2.59-1.48a4.6 4.6 0 004.14 2.7c1.56 0 2.7-.54 2.72-1.73s-1.08-1.69-3.1-2.29c-2.74-.82-5.61-1.57-5.56-4.81 0-2.88 2.33-4.58 5.65-4.53a7 7 0 016.09 3.28L129.86 5a4.58 4.58 0 00-3.77-2.25c-1.44 0-2.24.59-2.26 1.51C123.81 5.52 125 6 127 6.58c2.71.77 5.58 1.67 5.53 4.87 0 2.48-2 4.67-6.26 4.6a6.91 6.91 0 01-6.55-3.91zM138 16.5L139.68 4l-4.56-.62.38-2.81L148 2.25l-.38 2.81-4.58-.61L141.37 17zM149.39 12.25L151.9 3l3.29.9-2.49 9.13c-.59 2.15-.09 3.59 1.86 4.12s3.07-.44 3.66-2.62l2.49-9.13 3.23.88-2.51 9.19c-1 3.67-3.48 5.46-7.63 4.33s-5.4-3.9-4.41-7.55zM162.74 22.25l6.13-14.19 4.35 1.88c4.34 1.87 6.8 5.12 4.57 10.3-2.31 5.33-6.42 5.74-10.7 3.89zm4.2-1.19l1.46.63c3.08 1.33 4.85.46 6.24-2.76 1.31-3 .74-5-2.37-6.31l-1.42-.62zM176.94 28.71l8-13.25 9 5.42-1.46 2.43-6.11-3.67-1.71 2.85 4.42 2.66-1.39 2.31-4.42-2.66-2 3.3 6.44 3.9-1.42 2.37zM188.32 35.69L198 23.63l2.65 2.13-1.12 11.75 6.17-7.69 2.44 2-9.64 12.04-2.44-2 1-12-6.23 7.76zM203.26 48.68l9.16-8.68-3.16-3.34 2.06-1.95 8.68 9.16-2.07 2-3.17-3.35-9.16 8.68zM213.47 60.51L226.41 52l3.18 4.86c2.09 3.19 2.2 5.84-.67 7.71a4.13 4.13 0 01-5.45-.28l-3.36 6.32-2-3 3.12-5.88-1.08-1.65-4.88 3.2zm8.91-1.84l1.27 1.94c1.08 1.65 2.07 2.13 3.38 1.27s1.23-1.93.16-3.58l-1.27-1.94zM221.4 73.11l13.93-6.73 4.58 9.49-2.56 1.23-3.1-6.41-3 1.44 2.24 4.65-2.41 1.22-2.25-4.64-3.46 1.64 3.26 6.75-2.48 1.2zM230 83.08l2.27 2a4.58 4.58 0 00-1.17 4.8c.5 1.48 1.41 2.37 2.54 2s1.23-1.58 1.12-3.69c-.14-2.86-.39-5.82 2.68-6.85 2.74-.91 5.1.67 6.16 3.82a7 7 0 01-1.06 6.84l-2.45-1.67A4.59 4.59 0 00241 86c-.46-1.37-1.31-1.92-2.18-1.63-1.17.39-1.22 1.62-1.11 3.72.17 2.81.28 5.82-2.75 6.83-2.36.79-5.06-.28-6.43-4.36a6.93 6.93 0 011.47-7.48zM231.38 98.9l15.16-3 2.05 10.33-2.79.55-1.38-7-3.26.65 1 5.06-2.64.52-1-5.06-3.77.75 1.46 7.35-2.71.54zM233.73 110.81l15.85 4.44.21 3.23-15.13 6.52-.22-3.44 3.36-1.37-.35-5.25-3.51-1zm6.24 4.76l.24 3.63 5.13-2.12zM234.57 127.05l15.43 1.07-.4 5.79c-.26 3.79-1.77 6-5.19 5.74a4.14 4.14 0 01-4.18-3.51l-6.49 3 .25-3.58 6-2.81.14-2-5.82-.4zm8.21 3.92l-.15 2.31c-.14 2 .36 2.94 1.92 3.05s2.15-.8 2.28-2.76l.16-2.31zM241.12 142.51c5.26 1.09 7.2 4.67 6.41 8.5s-3.18 5.06-6 5.15l-.27-3.35c1.84-.13 3.18-.62 3.55-2.4.48-2.29-1.21-3.92-4.35-4.57s-5.46.19-5.93 2.48c-.37 1.78.57 2.9 2.53 3.86l-1.34 3c-2.9-1.36-4.66-3.61-3.87-7.41s3.93-6.37 9.27-5.26zM230.06 156.62l14.52 5.29-1.17 3.2-5.63-2.05-2.08 5.71 5.63 2-1.17 3.2-14.52-5.29 1.17-3.2 6.2 2.26 2.08-5.71-6.2-2.26zM221.53 177.09l13.22 8-2.91 4.8c-1.71 2.83-4 4.95-7.5 2.84s-2.6-5.39-1-8l1.14-1.88-4.7-2.84zm5.2 7.11l-1.2 2c-1.09 1.8-.81 2.9.46 3.67s2.33.51 3.43-1.31l1.21-2zM214 189.2l12 9.69-3.64 4.53c-2.39 3-4.87 3.88-7.54 1.74a4.13 4.13 0 01-1.42-5.27l-7-1.25 2.25-2.8 6.56 1.15 1.23-1.53-4.55-3.65zm4.5 7.91l-1.5 1.81c-1.23 1.53-1.38 2.61-.15 3.59s2.21.58 3.44-.95l1.46-1.81zM210.51 205.63c3.72 4 2.9 8.28.17 10.84s-7.07 3.09-10.79-.87-2.9-8.28-.19-10.83 7.09-3.1 10.81.86zm-8.15 7.65c2.22 2.36 4.66 2.76 6.39 1.13s1.49-4.09-.72-6.45-4.7-2.84-6.45-1.19-1.43 4.15.78 6.51zM197.61 217.52c2.76 4 2.32 8.08-1.25 10.56-2.4 1.67-5 2-8-.51l2.06-2.48c1.76 1.4 3.05 1.53 4.3.66 1-.72 2.54-2.65.06-6.22s-4.81-3.26-6.16-2.31a3.11 3.11 0 00-1 4.09l2.22-1.54 1.44 2.08-4.88 3.38-4.4-6.36 2.25-1.57 1.22 1.76a4.27 4.27 0 011.93-4.29c3.88-2.7 7.6-1.08 10.21 2.75zM179.27 220.43l6.95 13.81-5.22 2.61c-3.4 1.71-6 1.52-7.58-1.54a4.13 4.13 0 01.89-5.38l-5.89-4.05 3.21-1.62 5.49 3.76 1.75-.88-2.61-5.2zm.82 9.06l-2.07 1c-1.76.89-2.35 1.81-1.64 3.21s1.78 1.45 3.53.56l2.07-1zM167.27 226.43l-.13 16.46-3.06 1.05L153.86 231l3.26-1.12 2.21 2.89 5-1.71v-3.65zm-3 7.27l-3.44 1.18 3.39 4.4zM151.93 231.6l2.69 15.22-4.43.78-5.37-10.6-1.19 11.75-4.52.8-2.69-15.22 3.23-.57 1.83 10.38a27.58 27.58 0 01.25-3.55l1-7.39 3-.52 3.49 6.59a26.57 26.57 0 011.52 3.4l-1.87-10.55z"/></svg>