<svg id="Outlined_Type" data-name="Outlined Type" xmlns="http://www.w3.org/2000/svg" viewBox="0 0 283 22.76"><defs><style>.cls-1{fill:#1d2c27}</style></defs><path class="cls-1" d="M34.12 9.32h1.82v2.51h2.24V9.32H40v6.74h-1.82v-2.72h-2.24v2.72h-1.82zM41.35 10.71V9.32h1.8v1.39zm0 5.35v-4.88h1.8v4.88zM44 15.46l.66-1a3 3 0 001.75.59c.31 0 .58-.09.58-.32s-.23-.33-.75-.41c-.83-.11-2-.31-2-1.57 0-1.09.89-1.65 2-1.65a3.55 3.55 0 012.27.67l-.66 1a3.14 3.14 0 00-1.44-.5c-.3 0-.5.1-.5.31s.25.31.75.38c.83.11 2 .29 2 1.47s-1.11 1.74-2.24 1.74a3.92 3.92 0 01-2.42-.71zM49.82 14.6v-2.13H49v-1.29h.79V9.54h1.81v1.64h1.24v1.29h-1.21v1.73c0 .51.12.64.63.64a2 2 0 00.48-.05V16a7.71 7.71 0 01-1.1.09c-1.64.04-1.82-.55-1.82-1.49zM53.45 13.63a2.61 2.61 0 015.21 0 2.61 2.61 0 01-5.21 0zm3.4 0c0-.71-.18-1.26-.8-1.26s-.8.49-.8 1.26.17 1.28.8 1.28.8-.5.8-1.27zM59.55 16.06v-4.88h1.81v.76a1.68 1.68 0 011.52-.85v1.59h-.46a1.67 1.67 0 00-1.09.44v3zM63.74 10.71V9.32h1.8v1.39zm0 5.35v-4.88h1.8v4.88zM66.49 13.63a2.37 2.37 0 012.57-2.54 2.07 2.07 0 012.23 1.55l-1.51.47c-.16-.59-.4-.73-.74-.73-.54 0-.75.49-.75 1.26s.13 1.28.73 1.28c.3 0 .63-.15.8-.79l1.49.5A2.27 2.27 0 0169 16.16a2.3 2.3 0 01-2.51-2.53zM71.64 14.75c0-1.09 1-1.76 3-1.85v-.06c0-.24-.12-.41-.54-.41a2.67 2.67 0 00-1.5.53l-.74-1a3.6 3.6 0 012.52-.85c1.44 0 2 .67 2 2.05v1.74a3.32 3.32 0 00.13 1.18h-1.74a2.41 2.41 0 01-.11-.71 2 2 0 01-1.62.79 1.32 1.32 0 01-1.4-1.41zm3-.24v-.69c-.87 0-1.26.26-1.26.63s.18.35.4.35a1.18 1.18 0 00.88-.29zM77.57 16.06V9.32h1.8v6.74zM82.7 16.06l2.38-6.77h1.7l2.38 6.77h-1.84l-.41-1.25h-2.12l-.44 1.25zm2.52-2.55h1.28l-.62-1.86zM89.48 13.63a2.36 2.36 0 012.57-2.54 2.07 2.07 0 012.23 1.55l-1.51.47c-.16-.59-.4-.73-.74-.73-.54 0-.75.49-.75 1.26s.13 1.28.73 1.28c.29 0 .63-.15.79-.79l1.5.5a2.51 2.51 0 01-4.82-1zM94.75 13.63a2.36 2.36 0 012.57-2.54 2.07 2.07 0 012.23 1.55l-1.55.47c-.16-.59-.4-.73-.74-.73-.54 0-.75.49-.75 1.26s.13 1.28.73 1.28c.29 0 .63-.15.8-.79l1.49.5a2.51 2.51 0 01-4.82-1zM100 13.63a2.61 2.61 0 015.21 0 2.61 2.61 0 01-5.21 0zm3.41 0c0-.71-.18-1.26-.8-1.26s-.81.49-.81 1.26.18 1.28.81 1.28.82-.5.82-1.27zM106.08 14.75v-3.57h1.81v3c0 .34.11.53.41.53a1.31 1.31 0 00.81-.34v-3.19h1.8v4.88h-1.8v-.74a1.88 1.88 0 01-1.62.84 1.27 1.27 0 01-1.41-1.41zM112.08 11.18h1.81v.76a1.86 1.86 0 011.62-.85 1.26 1.26 0 011.4 1.41v3.56h-1.8v-3c0-.33-.11-.52-.41-.52a1.29 1.29 0 00-.81.34v3.15h-1.81zM118.43 14.6v-2.13h-.79v-1.29h.79V9.54h1.8v1.64h1.25v1.29h-1.25v1.73c0 .51.13.64.64.64a1.92 1.92 0 00.47-.05V16a7.57 7.57 0 01-1.1.09c-1.66.04-1.81-.55-1.81-1.49zM122 14.75c0-1.09 1-1.76 3-1.85v-.06c0-.24-.12-.41-.54-.41A2.62 2.62 0 00123 13l-.74-1a3.58 3.58 0 012.52-.85c1.44 0 2 .67 2 2.05v1.74a3.26 3.26 0 00.14 1.18h-1.82a2.43 2.43 0 01-.1-.71 2 2 0 01-1.63.79 1.31 1.31 0 01-1.37-1.45zm3-.24v-.69c-.88 0-1.26.26-1.26.63s.17.35.4.35a1.19 1.19 0 00.86-.29zM129.67 15.53v.53h-1.81V9.32h1.81v2.62a1.67 1.67 0 011.44-.85c1.11 0 1.82.86 1.82 2.53s-.72 2.52-1.84 2.52a1.7 1.7 0 01-1.42-.61zm1.46-1.9c0-.6-.13-1.06-.74-1.06a1.12 1.12 0 00-.72.35v1.57a1 1 0 00.74.31c.59 0 .72-.48.72-1.17zM133.88 10.71V9.32h1.8v1.39zm0 5.35v-4.88h1.8v4.88zM136.94 16.06V9.32h1.8v6.74zM140 10.71V9.32h1.8v1.39zm0 5.35v-4.88h1.8v4.88zM143.42 14.6v-2.13h-.79v-1.29h.79V9.54h1.8v1.64h1.25v1.29h-1.25v1.73c0 .51.13.64.64.64a1.92 1.92 0 00.47-.05V16a7.57 7.57 0 01-1.1.09c-1.66.04-1.81-.55-1.81-1.49zM146.78 17.73l.37-1.38a4.42 4.42 0 001 .14.43.43 0 00.47-.28v-.12l-1.86-4.91h1.85l.9 2.79.9-2.79h1.74l-2 5.38a1.79 1.79 0 01-1.8 1.37 5.54 5.54 0 01-1.57-.2zM155.35 14.58l1.34-.84a2.08 2.08 0 001.77 1c.56 0 1-.16 1-.58s-.54-.59-1.21-.76c-1.1-.28-2.57-.56-2.57-2.09s1-2.14 2.57-2.14a3.48 3.48 0 012.83 1.33l-1.22 1a2.3 2.3 0 00-1.62-.85c-.51 0-.78.17-.78.49s.53.61 1.19.78c1.11.26 2.58.6 2.58 2.11 0 1.07-.75 2.14-2.83 2.14a3.31 3.31 0 01-3.05-1.59zM162.64 14.6v-2.13h-.79v-1.29h.79V9.54h1.8v1.64h1.25v1.29h-1.25v1.73c0 .51.13.64.64.64a2 2 0 00.47-.05V16a7.57 7.57 0 01-1.1.09c-1.66.04-1.81-.55-1.81-1.49zM166.48 14.75v-3.57h1.8v3c0 .34.11.53.41.53a1.29 1.29 0 00.81-.34v-3.19h1.81v4.88h-1.81v-.74a1.88 1.88 0 01-1.62.84 1.26 1.26 0 01-1.4-1.41zM172.21 13.68c0-1.68.72-2.59 1.84-2.59a1.57 1.57 0 011.43.67V9.32h1.8v5.56a3 3 0 00.15 1.18h-1.84a1.78 1.78 0 01-.11-.73 1.67 1.67 0 01-1.45.81c-1.1 0-1.82-.79-1.82-2.46zm3.27.76v-1.57a1 1 0 00-.75-.3c-.54 0-.72.41-.72 1.1s.14 1.13.74 1.13a1.13 1.13 0 00.73-.36zM178.18 13.63a2.44 2.44 0 012.57-2.54c1 0 2.35.35 2.35 2.78v.27H180c.09.64.45.79 1 .79a3 3 0 001.4-.44l.65 1.09a4 4 0 01-2.19.58 2.32 2.32 0 01-2.68-2.53zm3.32-.52c-.07-.58-.33-.76-.76-.76s-.64.21-.75.76zM184 11.18h1.8v.76a1.86 1.86 0 011.62-.85 1.26 1.26 0 011.4 1.41v3.56H187v-3c0-.33-.11-.52-.41-.52a1.31 1.31 0 00-.81.34v3.15H184zM190.34 14.6v-2.13h-.79v-1.29h.79V9.54h1.8v1.64h1.25v1.29h-1.25v1.73c0 .51.13.64.64.64a2.08 2.08 0 00.48-.05V16a7.75 7.75 0 01-1.11.09c-1.65.04-1.81-.55-1.81-1.49zM197.15 16.06V9.32h2.63c1.73 0 2.79.58 2.79 2.2a1.86 1.86 0 01-1.33 2l1.43 2.57h-1.93l-1.3-2.34h-.5v2.34zm1.79-3.72h.78c.75 0 1.07-.21 1.07-.78s-.32-.76-1.07-.76h-.78zM203.2 13.63a2.45 2.45 0 012.57-2.54c1 0 2.35.35 2.35 2.78v.27H205c.09.64.45.79 1 .79a3.09 3.09 0 001.41-.44l.64 1.09a4 4 0 01-2.18.58 2.33 2.33 0 01-2.67-2.53zm3.33-.52c-.07-.58-.34-.76-.77-.76s-.63.21-.74.76zM208.56 15.46l.66-1A3.07 3.07 0 00211 15c.31 0 .58-.09.58-.32s-.22-.33-.75-.41c-.83-.11-2-.31-2-1.57 0-1.09.9-1.65 2-1.65a3.6 3.6 0 012.28.67l-.67 1a3.14 3.14 0 00-1.44-.5c-.3 0-.5.1-.5.31s.26.31.75.38c.83.11 2 .29 2 1.47s-1.11 1.74-2.24 1.74a3.92 3.92 0 01-2.45-.66zM213.76 13.63a2.44 2.44 0 012.57-2.54c1 0 2.34.35 2.34 2.78v.27h-3.12c.09.64.45.79 1 .79a3 3 0 001.4-.44l.65 1.09a4 4 0 01-2.19.58 2.32 2.32 0 01-2.65-2.53zm3.32-.52c-.07-.58-.34-.76-.76-.76s-.64.21-.75.76zM219.18 14.75c0-1.09 1-1.76 3-1.85v-.06c0-.24-.12-.41-.54-.41a2.64 2.64 0 00-1.5.53l-.74-1a3.6 3.6 0 012.52-.85c1.44 0 2 .67 2 2.05v1.74a3.32 3.32 0 00.13 1.18h-1.78a2.12 2.12 0 01-.11-.71 2 2 0 01-1.62.79 1.32 1.32 0 01-1.36-1.41zm3-.24v-.69c-.88 0-1.26.26-1.26.63s.17.35.4.35a1.18 1.18 0 00.88-.29zM225.06 16.06v-4.88h1.81v.76a1.67 1.67 0 011.52-.85v1.59h-.46a1.67 1.67 0 00-1.09.44v3zM228.76 13.63a2.36 2.36 0 012.57-2.54 2.07 2.07 0 012.23 1.55l-1.51.47c-.16-.59-.4-.73-.74-.73-.54 0-.75.49-.75 1.26s.13 1.28.73 1.28c.29 0 .63-.15.79-.79l1.5.5a2.51 2.51 0 01-4.82-1zM234.34 16.06V9.32h1.8v2.62a1.86 1.86 0 011.63-.85 1.26 1.26 0 011.4 1.41v3.56h-1.8v-3c0-.33-.11-.52-.41-.52a1.34 1.34 0 00-.82.34v3.15zM243.21 16.06V9.32h2.52c1.44 0 2.92.3 2.92 2.3s-1.6 2.29-2.92 2.29H245v2.15zm1.8-3.53h.78c.85 0 1.08-.36 1.08-.87s-.23-.86-1.08-.86H245zM249.35 16.06v-4.88h1.81v.76a1.67 1.67 0 011.52-.85v1.59h-.45a1.67 1.67 0 00-1.09.44v3zM253.14 13.63a2.61 2.61 0 015.21 0 2.61 2.61 0 01-5.21 0zm3.41 0c0-.71-.19-1.26-.8-1.26s-.81.49-.81 1.26.18 1.28.81 1.28.8-.5.8-1.27zM258.67 16.83a1.13 1.13 0 01.76-.93.7.7 0 01-.29-.57 1.46 1.46 0 01.76-1.1 1.56 1.56 0 01-.83-1.4c0-1 .76-1.74 2.29-1.74a2.52 2.52 0 011.73.54 2.37 2.37 0 011.31-.53v1.34a3.82 3.82 0 00-.8.08 2.54 2.54 0 010 .31c0 1-.73 1.74-2.26 1.74a5.39 5.39 0 01-.73-.06.37.37 0 00-.07.18c0 .17.2.18.47.19h.61c1.88 0 2.58.46 2.58 1.45s-1.31 1.54-3 1.54c-1.89.02-2.53-.39-2.53-1.04zm4-.17c0-.24-.07-.33-1.29-.38h-.69a1.88 1.88 0 01-.34 0 .66.66 0 00-.05.26c0 .38.33.53 1.23.53.65-.07 1.14-.16 1.14-.41zM262 12.9a.64.64 0 10-1.28 0 .64.64 0 101.28 0zM265.21 16.06v-4.88H267v.76a1.68 1.68 0 011.53-.85v1.59h-.45a1.67 1.67 0 00-1.09.44v3zM268.88 14.75c0-1.09 1-1.76 3-1.85v-.06c0-.24-.12-.41-.54-.41a2.62 2.62 0 00-1.5.53l-.74-1a3.58 3.58 0 012.52-.85c1.44 0 2 .67 2 2.05v1.74a3.26 3.26 0 00.14 1.18H272a2.43 2.43 0 01-.1-.71 2 2 0 01-1.63.79 1.31 1.31 0 01-1.39-1.41zm3-.24v-.69c-.88 0-1.26.26-1.26.63s.17.35.4.35a1.18 1.18 0 00.88-.29zM274.76 16.06v-4.88h1.81v.76a1.8 1.8 0 011.52-.85c.81 0 1.19.32 1.33.85a1.82 1.82 0 011.52-.85 1.35 1.35 0 011.44 1.5v3.47h-1.81v-3c0-.33 0-.52-.37-.52a1.18 1.18 0 00-.73.34v3.15h-1.8v-3c0-.33-.05-.52-.38-.52a1.13 1.13 0 00-.72.34V16zM11.38 0a11.41 11.41 0 00-1.09 22.76c.05-.76.11-1.6.15-2.45v-1c0-.06 0-.1-.1 0-.88.92-.92.77-1.28.67a13.63 13.63 0 01-1.81-.69c-.16-.11-.11-.17.07-.25.92-.39 2.88-1.26 3.15-1.38v-.59h-.07c-.47.17-2.9 1.18-3.26 1.31a.85.85 0 01-.93-.09 8.31 8.31 0 01-1.15-1.31c-.05-.09-.11-.17 0-.2l5.38-1.09v-.57s0-.06-.06-.06l-4.38.6a.56.56 0 01-.68-.29A14.6 14.6 0 014.56 14c-.11-.19-.12-.28.07-.29l6-.37.05-.05v-.53s0-.06-.05-.06c-.52 0-4.65.14-4.93.13a.5.5 0 01-.55-.36 10.61 10.61 0 01-.32-1.66c0-.1 0-.18.15-.15 1.4.26 5.19.68 5.7.75a.06.06 0 00.06 0v-.5-.06c-.43-.06-3.89-.58-4.28-.65S6 10 5.9 9.65a11.66 11.66 0 01-.13-1.33c0-.11 0-.18.14-.13 2.33.68 4.49 1.23 4.88 1.33h.07v-.48a.07.07 0 000-.06c-.38-.1-3.19-.85-3.43-.93s-.49-.22-.54-.53a6.87 6.87 0 010-1.14c0-.16 0-.2.15-.13 1.06.52 3.45 1.42 3.88 1.58a.05.05 0 00.07 0v-.46L8.26 6.12c-.32-.14-.39-.25-.42-.55a4.45 4.45 0 010-.88c0-.17 0-.21.27-.06.51.31 2.39 1.29 2.78 1.49h.08v-.46L9.3 4.67c-.37-.2-.47-.36-.48-.53a5.81 5.81 0 010-.83c0-.23.08-.27.24-.14.67.54 1.6 1.15 1.87 1.32a.05.05 0 00.08 0v-.41c-.16-.13-1.16-.86-1.16-.86a.41.41 0 01-.13-.24 4.9 4.9 0 01.1-.75c0-.1.06-.16.17 0A11.74 11.74 0 0011 3c.06.05.08.06.08 0 0-.47-.22-1.39.25-1.65.46.26.25 1.18.25 1.65h.08a11.74 11.74 0 001-.91c.11-.11.13-.05.17 0a4.9 4.9 0 01.1.75.41.41 0 01-.13.24s-1 .73-1.16.86v.41a.05.05 0 00.08 0c.27-.17 1.2-.78 1.87-1.32.16-.13.21-.09.24.14a5.81 5.81 0 010 .83c0 .17-.11.33-.48.53l-1.68.9v.46s0 .06.08 0c.39-.2 2.27-1.18 2.78-1.49.26-.15.25-.11.27.06a4.45 4.45 0 010 .88c0 .3-.1.41-.42.55l-2.65 1.1v.46a.05.05 0 00.07 0c.43-.16 2.82-1.06 3.88-1.58.12-.07.14 0 .15.13a6.87 6.87 0 010 1.14c-.05.31-.27.44-.54.53s-3 .83-3.43.93a.07.07 0 000 .06v.48h.07c.39-.1 2.55-.65 4.88-1.33.16 0 .15 0 .14.13a11.66 11.66 0 01-.13 1.33c-.1.3-.17.38-.58.46s-3.85.59-4.28.65a.06.06 0 00-.05.06v.5a.06.06 0 00.06 0c.51-.07 4.3-.49 5.7-.75.18 0 .17.05.15.15A10.61 10.61 0 0117.5 12a.5.5 0 01-.55.36c-.28 0-4.41-.11-4.93-.13 0 0-.05 0-.05.06V12.87l6 .37c.19 0 .18.1.07.29a14.6 14.6 0 01-.72 1.41.56.56 0 01-.68.29l-4.62-.8s-.07 0-.06.06v.57l5.38 1.09c.16 0 .1.11.05.2a8.31 8.31 0 01-1.15 1.31.85.85 0 01-.93.09c-.36-.13-2.79-1.14-3.26-1.31h-.07v.59c.27.12 2.23 1 3.15 1.38.18.08.23.14.07.25a13.63 13.63 0 01-1.81.69c-.36.1-.4.25-1.28-.67-.06-.07-.09 0-.1 0v1c0 .85.09 1.69.15 2.45A11.41 11.41 0 0011.38 0z"/></svg>