<svg data-name="Outlined Type" xmlns="http://www.w3.org/2000/svg" viewBox="0 0 240 239.47"><path d="M119.74 14.43a.52.52 0 01.52 0c4.85 2.68 2.62 12.42 2.62 17.34 0 .5.22.4.81-.08a133.73 133.73 0 0010.53-9.58c1.15-1.15 1.38-.57 1.76.48a43.67 43.67 0 011.12 7.91 4.3 4.3 0 01-1.38 2.58s-10.55 7.65-12.22 9a.61.61 0 00-.21.46l.17 4.28a.56.56 0 00.86.45c2.87-1.85 12.62-8.24 19.74-13.92 1.64-1.31 2.2-1 2.55 1.51a58.1 58.1 0 01.38 8.7c-.09 1.8-1.18 3.43-5 5.54-3 1.62-15.61 8.39-17.74 9.53a.55.55 0 00-.29.52l.19 4.8a.55.55 0 00.81.47c4.18-2.17 23.94-12.46 29.37-15.69 2.71-1.61 2.58-1.17 2.84.61a49.7 49.7 0 01.17 9.24c-.34 3.14-1 4.34-4.43 5.83S128 74.68 125 75.92a.55.55 0 00-.35.54l.19 4.87a.56.56 0 00.75.5c4.58-1.7 29.75-11.12 40.93-16.64 1.33-.65 1.53-.23 1.63 1.38a84.18 84.18 0 01-.51 12c-.54 3.29-2.91 4.6-5.73 5.55-2.49.83-32.21 8.81-36.14 9.87a.54.54 0 00-.41.56l.19 5a.55.55 0 00.69.52c4.13-1 26.86-6.77 51.5-14 1.62-.47 1.51.23 1.5 1.42s-.76 11.82-1.45 14c-1 3.16-1.79 4-6.13 4.77-4 .74-40.52 6.22-45.09 6.93a.55.55 0 00-.47.57l.21 5.22a.55.55 0 00.62.53c5.37-.66 45.26-5.09 60.07-7.83 1.87-.34 1.74.52 1.62 1.6-.17 1.43-2 14.43-3.44 17.46-1.6 3.38-2.87 3.7-5.82 3.8s-46.47-1.24-51.91-1.41a.54.54 0 00-.57.58l.21 5.66a.55.55 0 00.52.53c5.23.33 47.42 2.82 63.63 3.86 1.94.12 1.85 1 .75 3-.6 1.11-6 12.84-7.59 14.87s-2.61 3.79-7.25 3c-4.31-.7-43-7.54-48.71-8.42a.55.55 0 00-.64.57l.2 6.22a.56.56 0 00.46.53c5.31 1 55.14 11.11 56.7 11.44s1.09 1.2.58 2.07c-1.38 2.33-9.69 12.1-12.21 13.85-3.29 2.27-5.64 2.47-9.78.94-3.76-1.39-29.38-12-34.4-13.84a.55.55 0 00-.75.54l.24 6.18a.56.56 0 00.34.5c2.88 1.21 23.48 10.39 33.19 14.48 1.95.82 2.44 1.45.73 2.64-1.91 1.32-14.77 6-19 7.25-3.81 1.11-4.29 2.61-13.5-7.07-.68-.72-1-.29-1 .32l.4 10.9c1.08 22.77.33 18 1.46 25.7v.07a120 120 0 10-22.82 0v-.07c1.13-7.66.38-2.93 1.46-25.7l.4-10.9c-.06-.61-.35-1-1-.32-9.21 9.68-9.69 8.18-13.5 7.07-4.26-1.25-17.12-5.93-19-7.25-1.71-1.19-1.22-1.82.73-2.64 9.71-4.09 30.31-13.27 33.19-14.48a.57.57 0 00.34-.5l.24-6.18a.55.55 0 00-.75-.54c-5 1.87-30.64 12.45-34.4 13.84-4.14 1.53-6.49 1.33-9.78-.94C64 189.11 55.64 179.34 54.26 177c-.51-.87-1.07-1.72.58-2.07s51.39-10.45 56.7-11.44a.54.54 0 00.46-.49l.25-6.06a.56.56 0 00-.64-.57c-5.7.88-44.4 7.72-48.71 8.42-4.64.76-5.65-1-7.25-3s-7-13.76-7.59-14.87c-1.09-2-1.19-2.92.75-3 16.21-1 58.4-3.53 63.63-3.86a.55.55 0 00.52-.53l.21-5.66a.55.55 0 00-.57-.58c-5.44.17-49 1.5-51.91 1.41s-4.22-.42-5.82-3.8c-1.44-3-3.27-16-3.44-17.46-.12-1.08-.25-1.94 1.62-1.6 14.81 2.74 54.7 7.17 60.07 7.83a.55.55 0 00.62-.53l.2-5.22a.54.54 0 00-.47-.57c-4.56-.71-41-6.19-45.08-6.93-4.34-.79-5.11-1.61-6.13-4.77-.69-2.18-1.44-12.86-1.45-14s-.12-1.89 1.5-1.42c24.64 7.21 47.36 13 51.5 14a.55.55 0 00.69-.52l.19-5a.54.54 0 00-.41-.56c-3.93-1.06-33.65-9-36.14-9.87-2.82-.95-5.19-2.26-5.73-5.55a84.18 84.18 0 01-.51-12c.1-1.61.3-2 1.63-1.38 11.18 5.52 36.35 14.94 40.93 16.64a.56.56 0 00.75-.5l.19-4.87a.55.55 0 00-.35-.54c-3-1.24-24.4-10-27.93-11.52s-4.12-2.85-4.44-5.99a49.7 49.7 0 01.17-9.24c.26-1.78.13-2.22 2.84-.61 5.43 3.23 25.19 13.52 29.37 15.69a.55.55 0 00.81-.47l.19-4.8a.57.57 0 00-.29-.52C113.63 57.48 101 50.71 98 49.09c-3.84-2.11-4.93-3.74-5-5.54a55.49 55.49 0 01.38-8.7c.35-2.49.91-2.82 2.55-1.51 7.12 5.68 16.87 12.07 19.74 13.92a.56.56 0 00.86-.45l.16-4.28a.55.55 0 00-.21-.46c-1.66-1.34-12.21-9-12.21-9a4.3 4.3 0 01-1.38-2.58 42.79 42.79 0 011.11-7.9c.38-1.05.61-1.63 1.76-.48a133.73 133.73 0 0010.53 9.58c.59.48.81.58.81.08 0-4.92-2.24-14.66 2.62-17.34" fill="#1d2c27" data-name="Lone Pine"/></svg>