<svg id="Outlined_Type" data-name="Outlined Type" xmlns="http://www.w3.org/2000/svg" viewBox="0 0 247.02 147.65"><defs><style>.cls-1{fill:#1d2c27}</style></defs><path class="cls-1" d="M123.51 0a46.28 46.28 0 00-4.44 92.35c.23-3.08.44-6.5.6-9.93l.16-4.2c0-.24-.13-.41-.4-.13-3.55 3.74-3.73 3.16-5.2 2.73a56 56 0 01-7.34-2.8c-.66-.45-.47-.7.28-1 3.74-1.58 11.69-5.12 12.8-5.59a.21.21 0 00.13-.19l.09-2.38a.21.21 0 00-.29-.21c-1.94.72-11.82 4.8-13.27 5.33a3.46 3.46 0 01-3.77-.36 35.14 35.14 0 01-4.71-5.34c-.19-.34-.41-.66.23-.8s19.82-4 21.87-4.41a.2.2 0 00.17-.2l.1-2.34a.22.22 0 00-.25-.22c-2.2.34-17.13 3-18.79 3.25a2.36 2.36 0 01-2.8-1.17c-.61-.78-2.69-5.31-2.92-5.74-.42-.78-.46-1.12.29-1.17 6.25-.4 22.52-1.36 24.54-1.49a.21.21 0 00.2-.2l.08-2.19a.21.21 0 00-.22-.22c-2.1.07-18.9.58-20 .54a2 2 0 01-2.24-1.46c-.56-1.17-1.27-6.18-1.33-6.74s-.1-.75.62-.61c5.72 1 21.1 2.76 23.17 3a.21.21 0 00.24-.21l.08-2a.22.22 0 00-.18-.22c-1.76-.28-15.84-2.39-17.39-2.67s-2-.62-2.36-1.84a43.12 43.12 0 01-.56-5.4c0-.46-.05-.73.58-.55 9.5 2.78 18.26 5 19.86 5.39a.2.2 0 00.26-.2l.08-1.94a.22.22 0 00-.16-.22c-1.52-.4-13-3.48-13.94-3.8s-2-.87-2.21-2.14a33.72 33.72 0 01-.2-4.64c0-.62.12-.78.63-.53 4.31 2.13 14 5.77 15.79 6.42a.22.22 0 00.29-.19l.07-1.88a.23.23 0 00-.13-.21c-1.18-.48-9.42-3.85-10.78-4.44s-1.58-1-1.7-2.25a18.86 18.86 0 01.06-3.56c.1-.69 0-.86 1.09-.24C112.37 20 120 24 121.6 24.84a.22.22 0 00.32-.18l.07-1.85a.23.23 0 00-.11-.2c-.83-.44-5.7-3.05-6.84-3.68-1.49-.81-1.91-1.44-1.94-2.13a21.19 21.19 0 01.15-3.36c.13-1 .35-1.09 1-.58 2.74 2.19 6.51 4.65 7.61 5.37a.21.21 0 00.33-.17l.07-1.66a.25.25 0 00-.08-.18c-.65-.51-4.72-3.46-4.72-3.46a1.68 1.68 0 01-.53-1 16.25 16.25 0 01.44-3c.14-.4.23-.63.67-.18a49.42 49.42 0 004.07 3.69c.22.19.31.22.31 0 0-1.89-.86-5.65 1-6.69h.2c1.87 1 1 4.8 1 6.69 0 .19.08.16.31 0A49.84 49.84 0 00129 8.53c.45-.45.54-.22.68.18a17.28 17.28 0 01.43 3 1.63 1.63 0 01-.53 1s-4.07 3-4.71 3.46a.25.25 0 00-.08.18l.06 1.66a.22.22 0 00.34.17c1.1-.72 4.86-3.18 7.61-5.37.63-.51.85-.38 1 .58a21.19 21.19 0 01.15 3.36c0 .69-.46 1.32-1.94 2.13-1.14.63-6 3.24-6.84 3.68a.21.21 0 00-.11.2l.07 1.85a.21.21 0 00.31.18c1.62-.84 9.24-4.8 11.33-6.05 1-.62 1-.45 1.1.24a18.86 18.86 0 01.06 3.56 2.24 2.24 0 01-1.71 2.25c-1.36.59-9.6 4-10.77 4.44a.22.22 0 00-.13.21l.07 1.88a.22.22 0 00.29.19c1.77-.65 11.47-4.29 15.78-6.42.52-.25.59-.09.63.53a32 32 0 01-.19 4.64c-.21 1.27-1.13 1.77-2.21 2.14s-12.43 3.4-13.94 3.8a.21.21 0 00-.16.22l.07 1.94a.21.21 0 00.27.2c1.59-.4 10.36-2.61 19.86-5.39.63-.18.59.09.58.55a43.12 43.12 0 01-.56 5.4c-.39 1.22-.69 1.53-2.36 1.84S127.79 43.4 126 43.68a.21.21 0 00-.18.22l.08 2a.21.21 0 00.24.21c2.07-.26 17.45-2 23.16-3 .72-.14.68.2.63.61s-.77 5.57-1.33 6.74a2 2 0 01-2.24 1.46c-1.12 0-17.93-.47-20-.54a.2.2 0 00-.22.22l.08 2.19a.21.21 0 00.2.2c2 .13 18.29 1.09 24.54 1.49.75.05.71.39.29 1.17-.23.43-2.31 5-2.93 5.74a2.35 2.35 0 01-2.79 1.17c-1.67-.28-16.6-2.91-18.79-3.25a.21.21 0 00-.25.22l.1 2.34a.2.2 0 00.17.2c2 .38 21.27 4.28 21.87 4.41s.42.46.22.8a34.6 34.6 0 01-4.71 5.34 3.46 3.46 0 01-3.77.36c-1.45-.53-11.33-4.61-13.27-5.33a.21.21 0 00-.29.21l.1 2.38a.21.21 0 00.13.19c1.11.47 9 4 12.8 5.59.75.31.94.56.28 1a57.15 57.15 0 01-7.34 2.8c-1.47.43-1.65 1-5.2-2.73-.27-.28-.38-.11-.4.13l.15 4.2a407 407 0 00.6 9.93A46.28 46.28 0 00123.51 0zM9.82 108.73h3.6v5h4.43v-5h3.6v13.32h-3.6v-5.38h-4.43v5.38h-3.6zM23.93 111.46v-2.73h3.57v2.73zm0 10.59v-9.65h3.57v9.65zM29 120.86l1.31-2a6.1 6.1 0 003.45 1.14c.61 0 1.15-.18 1.15-.63s-.45-.66-1.49-.81c-1.64-.23-4-.61-4-3.11 0-2.16 1.76-3.26 3.94-3.26a7 7 0 014.5 1.33l-1.31 2a6.18 6.18 0 00-2.85-1c-.59 0-1 .18-1 .61s.51.62 1.48.74c1.64.22 4 .58 4 2.92 0 2.56-2.2 3.44-4.43 3.44a7.73 7.73 0 01-4.75-1.37zM40.33 119.15V115h-1.57v-2.6h1.57v-3.24h3.56v3.24h2.47v2.6h-2.47v3.4c0 1 .26 1.28 1.27 1.28a4.39 4.39 0 00.93-.11V122a15.42 15.42 0 01-2.18.17c-3.27.01-3.58-1.17-3.58-3.02zM47.31 117.24c0-4 2.81-5 5.15-5s5.15 1 5.15 5-2.82 5-5.15 5-5.15-1.04-5.15-5zm6.74 0c0-1.4-.36-2.48-1.59-2.48s-1.58 1-1.58 2.48.34 2.52 1.58 2.52 1.59-.97 1.59-2.5zM59.21 122.05v-9.65h3.57v1.49a3.35 3.35 0 013-1.67v3.15c-.15 0-.65-.07-.9-.07a3.33 3.33 0 00-2.16.88v5.87zM67.31 111.46v-2.73h3.57v2.73zm0 10.59v-9.65h3.57v9.65zM72.57 117.24c0-4 3-5 5.07-5 2.85 0 3.86 1.44 4.42 3.06l-3 .94c-.31-1.17-.79-1.44-1.46-1.44-1.06 0-1.48 1-1.48 2.48s.25 2.52 1.44 2.52c.58 0 1.25-.29 1.57-1.55l3 1a4.51 4.51 0 01-4.57 3c-2.31 0-4.99-1.05-4.99-5.01zM82.57 119.46c0-2.16 2-3.48 6-3.66v-.12c0-.47-.23-.81-1.06-.81a5.22 5.22 0 00-3 1l-1.46-2a7.13 7.13 0 015-1.67c2.85 0 4 1.33 4 4v3.44a6.52 6.52 0 00.27 2.34h-3.57a4.47 4.47 0 01-.22-1.4 3.82 3.82 0 01-3.2 1.54 2.59 2.59 0 01-2.76-2.66zm6-.47v-1.37c-1.72 0-2.48.5-2.48 1.24 0 .47.34.69.79.69a2.31 2.31 0 001.65-.55zM94.11 122.05v-13.32h3.57v13.32zM103.89 122.05l4.71-13.38h3.4l4.72 13.38H113l-.81-2.48H108l-.87 2.48zm5-5h2.54l-1.22-3.69zM117.12 117.24c0-4 2.95-5 5.07-5 2.85 0 3.86 1.44 4.42 3.06l-3 .94c-.31-1.17-.79-1.44-1.46-1.44-1.06 0-1.48 1-1.48 2.48s.25 2.52 1.44 2.52c.58 0 1.25-.29 1.57-1.55l3 1a4.51 4.51 0 01-4.57 3c-2.31 0-4.99-1.05-4.99-5.01zM127.36 117.24c0-4 3-5 5.08-5 2.84 0 3.85 1.44 4.41 3.06l-3 .94c-.31-1.17-.79-1.44-1.46-1.44-1.06 0-1.48 1-1.48 2.48s.26 2.52 1.44 2.52c.58 0 1.25-.29 1.57-1.55l2.95 1a4.5 4.5 0 01-4.57 3c-2.3 0-4.94-1.05-4.94-5.01zM137.6 117.24c0-4 2.81-5 5.15-5s5.15 1 5.15 5-2.83 5-5.15 5-5.15-1.04-5.15-5zm6.73 0c0-1.4-.36-2.48-1.58-2.48s-1.58 1-1.58 2.48.34 2.52 1.58 2.52 1.58-.97 1.58-2.5zM149.41 119.46v-7.06H153v6c0 .66.22 1 .81 1a2.57 2.57 0 001.61-.68v-6.32H159v9.65h-3.56v-1.48a3.7 3.7 0 01-3.21 1.68 2.5 2.5 0 01-2.82-2.79zM161.09 112.4h3.57v1.49a3.68 3.68 0 013.2-1.67 2.5 2.5 0 012.77 2.79v7h-3.56v-5.87c0-.67-.22-1-.81-1a2.54 2.54 0 00-1.6.68v6.23h-3.57zM173.46 119.15V115h-1.57v-2.6h1.57v-3.24H177v3.24h2.47v2.6H177v3.4c0 1 .25 1.28 1.26 1.28a4.41 4.41 0 00.94-.11V122a15.42 15.42 0 01-2.18.17c-3.26.01-3.56-1.17-3.56-3.02zM180.3 119.46c0-2.16 2-3.48 6-3.66v-.12c0-.47-.24-.81-1.07-.81a5.22 5.22 0 00-3 1l-1.46-2a7.15 7.15 0 015-1.67c2.85 0 4 1.33 4 4v3.44a6.52 6.52 0 00.27 2.34h-3.53a4.8 4.8 0 01-.21-1.4 3.86 3.86 0 01-3.21 1.54 2.59 2.59 0 01-2.79-2.66zm6-.47v-1.37c-1.73 0-2.49.5-2.49 1.24 0 .47.34.69.79.69a2.34 2.34 0 001.66-.55zM195.31 121v1h-3.56v-13.27h3.56v5.16a3.34 3.34 0 012.86-1.67c2.18 0 3.6 1.69 3.6 5s-1.44 5-3.63 5a3.45 3.45 0 01-2.83-1.22zm2.9-3.77c0-1.19-.27-2.1-1.46-2.1a2.22 2.22 0 00-1.44.7v3.1a2 2 0 001.48.61c1.06.01 1.42-.93 1.42-2.3zM203.46 111.46v-2.73H207v2.73zm0 10.59v-9.65H207v9.65zM209.33 122.05v-13.32h3.56v13.32zM215.2 111.46v-2.73h3.56v2.73zm0 10.59v-9.65h3.56v9.65zM221.79 119.15V115h-1.57v-2.6h1.57v-3.24h3.56v3.24h2.47v2.6h-2.47v3.4c0 1 .25 1.28 1.26 1.28a4.41 4.41 0 00.94-.11V122a15.42 15.42 0 01-2.18.17c-3.28.01-3.58-1.17-3.58-3.02zM228.25 125.35l.74-2.74a7.77 7.77 0 002 .29.84.84 0 00.92-.56l.09-.24-3.68-9.7H232l1.78 5.51 1.78-5.51H239l-4 10.6c-.63 1.66-1.59 2.72-3.57 2.72a10.84 10.84 0 01-3.18-.37zM0 141.12l2.67-1.66a4.11 4.11 0 003.49 2c1.1 0 1.92-.33 1.92-1.16s-1.08-1.15-2.37-1.47c-2.18-.56-5.08-1.12-5.08-4.14 0-2.72 2.05-4.22 5.08-4.22a6.85 6.85 0 015.58 2.62l-2.41 2a4.57 4.57 0 00-3.19-1.68c-1 0-1.55.34-1.55 1 0 .89 1.05 1.21 2.36 1.53 2.18.53 5.1 1.19 5.1 4.18 0 2.13-1.5 4.23-5.6 4.23a6.57 6.57 0 01-6-3.23zM14.24 141.15V137h-1.57v-2.6h1.57v-3.24h3.56v3.24h2.47v2.6H17.8v3.4c0 1 .26 1.28 1.26 1.28a4.41 4.41 0 00.94-.11V144a15.42 15.42 0 01-2.18.17c-3.28.01-3.58-1.17-3.58-3.02zM21.65 141.46v-7.06h3.57v6c0 .66.21 1 .81 1a2.57 2.57 0 001.6-.68v-6.32h3.57v9.65h-3.57v-1.48a3.66 3.66 0 01-3.2 1.68 2.51 2.51 0 01-2.78-2.79zM32.8 139.33c0-3.31 1.44-5.11 3.63-5.11a3.1 3.1 0 012.83 1.33v-4.82h3.57v11a6.25 6.25 0 00.28 2.34h-3.63a3.65 3.65 0 01-.22-1.44 3.28 3.28 0 01-2.86 1.59c-2.18-.02-3.6-1.57-3.6-4.89zm6.46 1.52v-3.1a2 2 0 00-1.48-.61c-1.06 0-1.42.81-1.42 2.18 0 1.18.27 2.23 1.46 2.23a2.27 2.27 0 001.44-.7zM44.42 139.24a4.84 4.84 0 015.08-5c1.91 0 4.65.68 4.65 5.49v.54H48c.18 1.26.88 1.57 1.93 1.57a6.08 6.08 0 002.77-.88l1.3 2.14a7.91 7.91 0 01-4.32 1.15c-2.68 0-5.26-1.1-5.26-5.01zm6.58-1c-.15-1.16-.67-1.51-1.52-1.51-.7 0-1.26.41-1.47 1.51zM55.75 134.4h3.56v1.49a3.69 3.69 0 013.21-1.67 2.5 2.5 0 012.77 2.78v7h-3.57v-5.87c0-.67-.21-1-.81-1a2.57 2.57 0 00-1.6.68v6.23h-3.56zM68.11 141.15V137h-1.57v-2.6h1.57v-3.24h3.57v3.24h2.46v2.6h-2.46v3.4c0 1 .25 1.28 1.26 1.28a4.39 4.39 0 00.93-.11V144a15.29 15.29 0 01-2.18.17c-3.27.01-3.58-1.17-3.58-3.02zM81.21 144.05v-13.32h5.21c3.42 0 5.51 1.13 5.51 4.34A3.65 3.65 0 0189.3 139l2.83 5.09h-3.82l-2.58-4.63h-1v4.63zm3.53-7.36h1.55c1.48 0 2.13-.42 2.13-1.53s-.65-1.52-2.13-1.52h-1.55zM93 139.24a4.84 4.84 0 015.08-5c1.91 0 4.65.68 4.65 5.49v.54h-6.18c.18 1.26.88 1.57 1.93 1.57a6.08 6.08 0 002.77-.88l1.28 2.16a7.89 7.89 0 01-4.32 1.15c-2.65-.02-5.21-1.12-5.21-5.03zm6.58-1c-.15-1.16-.67-1.51-1.52-1.51s-1.26.41-1.47 1.51zM103.41 142.86l1.31-2a6.1 6.1 0 003.46 1.17c.61 0 1.15-.18 1.15-.63s-.45-.66-1.49-.81c-1.64-.23-4-.61-4-3.11 0-2.16 1.76-3.26 3.94-3.26a7 7 0 014.5 1.33l-1.31 2a6.18 6.18 0 00-2.85-1c-.59 0-1 .18-1 .61s.51.62 1.48.74c1.64.22 4 .58 4 2.92 0 2.56-2.2 3.44-4.43 3.44a7.73 7.73 0 01-4.76-1.4zM113.51 139.24a4.83 4.83 0 015.07-5c1.91 0 4.65.68 4.65 5.49v.54h-6.18c.18 1.26.89 1.57 1.93 1.57a6.08 6.08 0 002.77-.88l1.25 2.14a7.89 7.89 0 01-4.32 1.15c-2.62 0-5.17-1.1-5.17-5.01zm6.57-1c-.15-1.16-.67-1.51-1.51-1.51s-1.26.41-1.48 1.51zM124.05 141.46c0-2.16 2-3.48 6-3.66v-.12c0-.47-.23-.81-1.06-.81a5.22 5.22 0 00-3 1l-1.46-2a7.15 7.15 0 015-1.67c2.85 0 4 1.33 4 4.05v3.44a6.52 6.52 0 00.27 2.34h-3.53a4.47 4.47 0 01-.22-1.4 3.83 3.83 0 01-3.2 1.55 2.6 2.6 0 01-2.8-2.72zm6-.47v-1.37c-1.72.06-2.48.51-2.48 1.24 0 .47.34.69.79.69A2.3 2.3 0 00130 141zM135.5 144.05v-9.65h3.57v1.49a3.32 3.32 0 013-1.67v3.15c-.15 0-.65-.07-.9-.07a3.33 3.33 0 00-2.16.88v5.87zM142.63 139.24c0-4 3-5 5.08-5 2.84 0 3.85 1.44 4.41 3.06l-3 .94c-.31-1.17-.79-1.44-1.46-1.44-1.06 0-1.47 1-1.47 2.48s.25 2.52 1.44 2.52c.57 0 1.24-.29 1.56-1.55l3 1a4.52 4.52 0 01-4.58 3c-2.3 0-4.98-1.05-4.98-5.01zM153.49 144.05v-13.32h3.56v5.16a3.68 3.68 0 013.2-1.67A2.51 2.51 0 01163 137v7h-3.57v-5.87c0-.67-.21-1-.81-1a2.57 2.57 0 00-1.6.68v6.23zM170.66 144.05v-13.32h5c2.85 0 5.77.59 5.77 4.53s-3.16 4.54-5.77 4.54h-1.42v4.25zm3.56-7h1.55c1.67 0 2.12-.7 2.12-1.71s-.45-1.71-2.12-1.71h-1.55zM182.63 144.05v-9.65h3.56v1.49a3.33 3.33 0 013-1.67v3.15c-.14 0-.65-.07-.9-.07a3.33 3.33 0 00-2.16.88v5.87zM189.93 139.24c0-4 2.81-5 5.15-5s5.15 1 5.15 5-2.82 5-5.15 5-5.15-1.04-5.15-5zm6.74 0c0-1.4-.36-2.48-1.59-2.48s-1.58 1-1.58 2.48.34 2.52 1.58 2.52 1.59-.97 1.59-2.5zM200.68 145.56c0-.92.79-1.47 1.51-1.83a1.36 1.36 0 01-.57-1.12 2.84 2.84 0 011.49-2.18 3.1 3.1 0 01-1.64-2.77c0-1.89 1.52-3.44 4.54-3.44a5 5 0 013.42 1.06 4.56 4.56 0 012.59-1v2.64a6.93 6.93 0 00-1.58.17 4.9 4.9 0 010 .61c0 1.89-1.44 3.44-4.47 3.44a9 9 0 01-1.44-.13.72.72 0 00-.14.36c0 .34.39.36.93.38h1.19c3.73.1 5.11.91 5.11 2.86s-2.59 3-5.94 3c-3.68.04-5-.75-5-2.05zm7.9-.34c0-.47-.12-.65-2.53-.74h-1.37a3.63 3.63 0 01-.67-.06 1.62 1.62 0 00-.11.53c0 .75.67 1 2.43 1 1.3-.01 2.25-.22 2.25-.73zm-1.26-7.42a1.27 1.27 0 10-1.26 1.41 1.25 1.25 0 001.26-1.41zM213.44 144.05v-9.65H217v1.49a3.32 3.32 0 013-1.67v3.15c-.15 0-.65-.07-.9-.07a3.33 3.33 0 00-2.16.88v5.87zM220.52 141.46c0-2.16 2-3.48 6-3.66v-.12c0-.47-.24-.81-1.07-.81a5.22 5.22 0 00-3 1l-1.46-2a7.15 7.15 0 015-1.67c2.85 0 4 1.33 4 4.05v3.44a6.52 6.52 0 00.27 2.34h-3.53a4.8 4.8 0 01-.21-1.4 3.86 3.86 0 01-3.21 1.55 2.59 2.59 0 01-2.79-2.72zm6-.47v-1.37c-1.73.06-2.49.51-2.49 1.24 0 .47.34.69.79.69a2.34 2.34 0 001.66-.55zM232 144.05v-9.65h3.57v1.49a3.64 3.64 0 013-1.67c1.6 0 2.36.63 2.63 1.67a3.62 3.62 0 013-1.67 2.66 2.66 0 012.85 3v6.86h-3.57v-5.87c0-.67-.09-1-.74-1a2.3 2.3 0 00-1.44.68v6.23h-3.56v-5.87c0-.67-.09-1-.74-1a2.28 2.28 0 00-1.44.68v6.23z"/></svg>