<?xml version="1.0" standalone="no"?>
<!DOCTYPE svg PUBLIC "-//W3C//DTD SVG 1.1//EN" "http://www.w3.org/Graphics/SVG/1.1/DTD/svg11.dtd" >
<svg>
<metadata>
Created by FontForge 20090622 at Tue Jul  2 17:30:08 2019
 By deploy user
Copyright &#194;&#169; 1995, 2002 Adobe Systems Incorporated.  All Rights Reserved.
</metadata>
<defs>
<font id="ITCFranklinGothicStd-DmCpIt" horiz-adv-x="460" >
  <font-face 
    font-family="ITC Franklin Gothic Std Bk Cp"
    font-weight="600"
    font-style="italic"
    font-stretch="extra-condensed"
    units-per-em="1000"
    panose-1="2 11 8 8 3 5 2 9 2 4"
    ascent="686"
    descent="-314"
    x-height="493"
    cap-height="667"
    bbox="-180 -250 868 901"
    underline-thickness="50"
    underline-position="-50"
    slope="-9.5"
    unicode-range="U+0020-U+FB02"
  />
<missing-glyph horiz-adv-x="566" 
d="M66 0v700h500v-700h-500zM316 395l170 255h-340zM346 350l170 -255v510zM146 50h340l-170 255zM116 605v-510l170 255z" />
    <glyph glyph-name="f_i" unicode="fi" horiz-adv-x="442" 
d="M282 493l-17 -108h-57l-65 -385h-131l65 385h-44l18 108h44q14 89 36 135q36 69 139 69q16 0 45 -5l-19 -109h-20q-18 0 -33.5 -20.5t-20.5 -69.5h60zM316 493h130l-83 -493h-129zM477 674l-23 -136h-131l23 136h131z" />
    <glyph glyph-name="f_l" unicode="fl" horiz-adv-x="442" 
d="M282 493l-17 -108h-57l-65 -385h-131l65 385h-44l18 108h44q14 89 36 135q36 69 139 69q16 0 45 -5l-19 -109h-20q-18 0 -33.5 -20.5t-20.5 -69.5h60zM345 667h131l-113 -667h-129z" />
    <glyph glyph-name=".notdef" horiz-adv-x="566" 
d="M66 0v700h500v-700h-500zM316 395l170 255h-340zM346 350l170 -255v510zM146 50h340l-170 255zM116 605v-510l170 255z" />
    <glyph glyph-name=".null" horiz-adv-x="0" 
 />
    <glyph glyph-name="nonmarkingreturn" horiz-adv-x="333" 
 />
    <glyph glyph-name="space" unicode=" " horiz-adv-x="221" 
 />
    <glyph glyph-name="exclam" unicode="!" horiz-adv-x="306" 
d="M147 667h151l-115 -465h-75zM74 149h126l-26 -149h-126z" />
    <glyph glyph-name="quotedbl" unicode="&#x22;" horiz-adv-x="357" 
d="M157 377h-74l38 289h105zM311 377h-74l38 289h105z" />
    <glyph glyph-name="numbersign" unicode="#" 
d="M144 0h-90l44 204h-69l17 81h69l22 108h-68l17 81h69l41 193h89l-40 -193h59l41 193h89l-41 -193h67l-17 -81h-67l-23 -108h67l-17 -81h-67l-43 -204h-91l45 204h-60zM289 393h-65l-23 -108h65z" />
    <glyph glyph-name="dollar" unicode="$" 
d="M274 735h71l-15 -86q44 -13 72 -49q27 -33 41 -88l-96 -39q-5 38 -25 60t-52 22q-31 0 -52.5 -21t-21.5 -52q0 -23 14.5 -40t48.5 -34l38 -22q52 -32 62 -41q33 -29 47 -60.5t14 -76.5q0 -56 -23 -102t-64 -72q-43 -28 -110 -30l-17 -95h-70l18 103q-116 25 -131 183
l104 31q9 -63 28 -89q23 -30 63 -30q33 0 54.5 22.5t21.5 57.5q0 26 -14.5 44t-54.5 40l-49 29q-98 55 -98 155q0 86 49.5 140.5t132.5 59.5z" />
    <glyph glyph-name="percent" unicode="%" horiz-adv-x="578" 
d="M215 679q96 -3 96 -126q0 -96 -40 -157t-103 -61q-48 0 -75.5 34t-27.5 94q0 95 41 155.5t105 60.5h4zM203 605q-22 -1 -37.5 -45t-15.5 -102q0 -50 23 -50q22 0 38 45.5t16 107.5q0 44 -22 44h-2zM445 331q96 -3 96 -126q0 -96 -40 -157t-103 -61q-48 0 -75.5 34
t-27.5 94q0 95 41 155.5t105 60.5h4zM433 258q-22 -2 -38 -46t-16 -102q0 -48 23 -48q22 0 38 45t16 106q0 45 -21 45h-2zM473 667h65l-404 -667h-65z" />
    <glyph glyph-name="ampersand" unicode="&#x26;" horiz-adv-x="562" 
d="M444 382l97 -20q-20 -77 -45 -124q-27 -52 -70 -97q20 -28 42 -28q12 0 34 10l-20 -118q-24 -11 -50 -11q-39 0 -65 20q-9 7 -32 32q-31 -25 -46 -33q-46 -26 -100 -26q-76 0 -121 49.5t-45 131.5q0 74 36.5 123.5t111.5 86.5q-27 73 -27 122q0 79 48 129t125 50
q65 0 104 -41t39 -108q0 -36 -20 -79q-17 -35 -43 -59.5t-78 -52.5q22 -59 54 -117q28 43 44 80q15 37 27 80zM264 512q0 -45 17 -87q66 36 66 99q0 59 -40 59q-43 0 -43 -71zM150 179q0 -36 19 -57t52 -21q29 0 65 26q-34 59 -77 159q-59 -39 -59 -107z" />
    <glyph glyph-name="quotesingle" unicode="'" horiz-adv-x="204" 
d="M86 378l38 289h105l-69 -289h-74z" />
    <glyph glyph-name="parenleft" unicode="(" horiz-adv-x="306" 
d="M247 667h95q-53 -61 -77.5 -103t-56.5 -131q-56 -150 -56 -312q0 -68 9 -131q10 -68 41 -157h-85q-15 28 -19 39q-65 143 -65 310q0 181 104 347q30 49 50.5 74.5t59.5 63.5z" />
    <glyph glyph-name="parenright" unicode=")" horiz-adv-x="306" 
d="M60 -167h-96q54 61 78.5 103.5t55.5 129.5q57 153 57 312q0 64 -11 132q-10 75 -40 157h86q8 -14 19 -40q64 -139 64 -309q0 -180 -104 -347q-30 -50 -50 -75t-59 -63z" />
    <glyph glyph-name="asterisk" unicode="*" 
d="M258 673l80 -13l-30 -115l100 49l25 -78l-104 -28l91 -64l-48 -65l-80 82l-8 -120l-79 13l29 116l-100 -50l-25 78l104 29l-90 63l48 66l79 -82z" />
    <glyph glyph-name="plus" unicode="+" 
d="M299 386h126v-105h-126v-129h-110v129h-127v105h127v129h110v-129z" />
    <glyph glyph-name="comma" unicode="," horiz-adv-x="221" 
d="M28 149h132l-22 -133l-100 -170h-57l78 154h-56z" />
    <glyph glyph-name="hyphen" unicode="-" horiz-adv-x="255" 
d="M46 328h190l-19 -108h-189z" />
    <glyph glyph-name="period" unicode="." horiz-adv-x="221" 
d="M28 149h132l-25 -149h-132z" />
    <glyph glyph-name="slash" unicode="/" horiz-adv-x="357" 
d="M328 667h80l-414 -840h-79z" />
    <glyph glyph-name="zero" unicode="0" 
d="M42 216q0 172 50 305q59 157 194 157q152 0 152 -222q0 -198 -66 -343q-27 -61 -73.5 -94t-105.5 -33q-151 0 -151 230zM169 161q0 -37 9.5 -53.5t31.5 -16.5q39 0 57 70q17 66 30 186q14 123 14 153q0 74 -34 74h-2q-29 -2 -44 -32.5t-32 -122.5q-30 -163 -30 -258z" />
    <glyph glyph-name="one" unicode="1" 
d="M380 670l-94 -557h101l-20 -113h-326l19 113h96l61 366q-52 -24 -124 -24l20 125q41 1 62.5 6t46.5 20q33 19 57 64h101z" />
    <glyph glyph-name="two" unicode="2" 
d="M385 121l-21 -121h-363l22 132q55 38 114.5 96t96.5 104q71 87 71 166q0 63 -45 63q-29 0 -45 -28q-13 -23 -29 -99l-123 32q10 52 17 74t24 51q51 88 163 88q81 0 126.5 -47t45.5 -132q0 -106 -69 -190q-29 -36 -87 -89q-53 -50 -122 -100h224z" />
    <glyph glyph-name="three" unicode="3" 
d="M179 488l-107 37q44 153 197 154q78 0 120 -42t42 -119q0 -79 -42 -127q-14 -17 -29 -26.5t-45 -20.5q35 -17 54 -41q32 -41 32 -100q0 -42 -13 -80q-46 -136 -190 -136q-99 0 -147 62q-20 26 -28.5 51t-13.5 77l111 27q12 -103 74 -103q32 0 51.5 28t19.5 75t-21.5 68
t-69.5 21h-17l17 104q5 0 16.5 -0.5t14.5 -0.5q35 0 54 12q18 11 29.5 40.5t11.5 64.5q0 62 -47 62q-25 0 -42.5 -20t-31.5 -67z" />
    <glyph glyph-name="four" unicode="4" 
d="M340 149l-25 -149h-124l25 149h-205l19 114l268 407h128l-68 -408h63l-18 -113h-63zM235 256l46 247l-161 -247h115z" />
    <glyph glyph-name="five" unicode="5" 
d="M454 667l-26 -119h-209l-34 -151q25 24 44.5 32.5t47.5 8.5q64 0 100.5 -48t36.5 -134q0 -123 -58 -196t-156 -73q-95 0 -143 65q-17 23 -24 43.5t-12 64.5l111 30q9 -89 68 -89q78 0 78 151q0 82 -56 82q-23 0 -37.5 -13.5t-25.5 -44.5l-95 39l77 352h313z" />
    <glyph glyph-name="six" unicode="6" 
d="M447 493l-116 -20q0 55 -11 78.5t-36 23.5q-22 0 -37.5 -17.5t-28.5 -57.5q-11 -33 -18 -61q-4 -16 -13 -77q24 34 47 47.5t54 13.5q57 0 90.5 -46.5t33.5 -125.5q0 -118 -54.5 -191t-143.5 -73q-83 0 -126.5 57t-43.5 167q0 74 17.5 166t44.5 158q29 69 78.5 106.5
t113.5 37.5q147 0 149 -186zM237 319q-31 0 -48.5 -38t-17.5 -107q0 -44 10.5 -63t33.5 -19q28 0 40 26q22 48 22 135q0 66 -40 66z" />
    <glyph glyph-name="seven" unicode="7" 
d="M88 546l23 121h349l-17 -109q-34 -41 -51.5 -69t-50.5 -92q-105 -211 -118 -397h-151q21 107 38.5 162.5t55.5 131.5q43 85 94 157q28 40 76 95h-248z" />
    <glyph glyph-name="eight" unicode="8" 
d="M18 142q0 87 55 144q21 22 69 50q-56 60 -56 138q0 91 56 148t145 57q72 0 113.5 -40.5t41.5 -110.5q0 -124 -107 -166q69 -62 69 -155q0 -99 -59.5 -159.5t-157.5 -60.5q-81 0 -125 40.5t-44 114.5zM208 499q0 -38 23 -64q13 -16 46 -34q51 39 51 115q0 35 -13.5 54.5
t-38.5 19.5q-30 0 -49 -25.5t-19 -65.5zM132 169q0 -43 20 -67.5t55 -24.5q34 0 54.5 26.5t20.5 70.5q0 36 -17.5 60t-64.5 53q-68 -41 -68 -118z" />
    <glyph glyph-name="nine" unicode="9" 
d="M20 132l102 46q13 -86 65 -86q32 0 50 26q26 38 47 181q-35 -51 -89 -51q-61 0 -98 48.5t-37 129.5q0 112 57 182.5t149 70.5q69 0 111 -45q52 -56 52 -188q0 -183 -68 -325q-64 -134 -185 -134q-67 0 -107 37q-19 18 -29.5 40.5t-19.5 67.5zM196 427q0 -74 44 -74
q24 0 38 23q24 44 24 130q0 69 -42 69h-2q-27 -1 -41 -30q-21 -46 -21 -118z" />
    <glyph glyph-name="colon" unicode=":" horiz-adv-x="221" 
d="M28 149h132l-25 -149h-132zM85 493h133l-25 -149h-133z" />
    <glyph glyph-name="semicolon" unicode=";" horiz-adv-x="221" 
d="M28 149h132l-22 -133l-100 -170h-57l78 154h-56zM85 493h133l-25 -149h-133z" />
    <glyph glyph-name="less" unicode="&#x3c;" 
d="M64 385l358 209v-121l-246 -140l246 -140v-120l-358 209v103z" />
    <glyph glyph-name="equal" unicode="=" 
d="M426 362h-363v105h363v-105zM426 199h-363v106h363v-106z" />
    <glyph glyph-name="greater" unicode="&#x3e;" 
d="M64 594l358 -209v-103l-358 -209v120l246 140l-246 140v121z" />
    <glyph glyph-name="question" unicode="?" horiz-adv-x="425" 
d="M171 473l-97 36q14 47 23 67t27 43q48 60 143 60q75 0 119 -44t44 -119q0 -70 -34 -117q-26 -36 -80 -75q-38 -27 -50 -49t-18 -73h-115q4 49 12 82t26.5 57.5t29.5 34.5t40 34q33 26 45 49t12 58q0 60 -48 60q-27 0 -45 -24t-34 -80zM122 149h126l-24 -149h-126z" />
    <glyph glyph-name="at" unicode="@" horiz-adv-x="579" 
d="M435 504l-28 -201q-5 -45 -5 -59q0 -34 27 -34q11 0 20.5 6.5t13 12.5t4.5 9q22 48 22 141q0 27 -2.5 53t-13 61.5t-28 61t-50 43.5t-76.5 18q-95 0 -145 -82t-50 -201q0 -146 70 -223q52 -58 141 -58q68 0 124 27l21 -64q-68 -34 -148 -34q-141 0 -215.5 100.5
t-74.5 249.5q0 150 74.5 253.5t202.5 103.5q63 0 112 -25.5t77.5 -69t43 -95.5t14.5 -110q0 -59 -14.5 -113.5t-49.5 -95.5t-85 -41q-36 0 -53 15t-27 39q-7 -17 -12 -25.5t-19 -18.5t-33 -10q-39 0 -61 38t-22 108q0 89 31 158t87 69q23 0 35 -12t21 -35l6 40h65zM271 280
q0 -55 21 -55q19 0 28 24q19 53 19 122q0 53 -26 53q-20 0 -31 -47.5t-11 -96.5z" />
    <glyph glyph-name="A" unicode="A" 
d="M366 667l46 -667h-136l-5 146h-123l-52 -146h-132l262 667h140zM187 260h80l-4 172v22v30v22l-5 -23l-8 -24l-6 -21z" />
    <glyph glyph-name="B" unicode="B" horiz-adv-x="494" 
d="M11 0l111 667h173q89 0 135.5 -40.5t46.5 -117.5q0 -79 -48 -124q-25 -21 -76 -37q44 -21 62 -42q35 -40 35 -105q0 -44 -19 -87q-27 -59 -79.5 -86.5t-139.5 -27.5h-201zM238 562l-28 -168h28q55 0 78 27q26 31 26 75q0 66 -80 66h-24zM193 294l-31 -184h44q50 0 76 24
q33 35 33 84q0 76 -91 76h-31z" />
    <glyph glyph-name="C" unicode="C" 
d="M460 427l-127 -8q2 28 2 54q0 47 -10.5 67.5t-35.5 20.5q-39 0 -60 -68q-20 -65 -33.5 -152t-13.5 -150q0 -85 49 -85q27 0 44.5 29.5t31.5 96.5l124 -24q-24 -114 -76.5 -167.5t-138.5 -53.5q-88 0 -134 60.5t-46 174.5q0 88 19.5 179.5t53.5 157.5q62 120 183 120
q83 0 126.5 -52t43.5 -152q0 -21 -2 -48z" />
    <glyph glyph-name="D" unicode="D" horiz-adv-x="476" 
d="M11 0l111 667h129q61 0 100 -12q29 -9 57 -37q59 -59 59 -199q0 -210 -89 -331q-35 -47 -83.5 -67.5t-125.5 -20.5h-158zM237 558l-75 -448h28q71 0 103 90q39 109 39 235q0 65 -17 94t-56 29h-22z" />
    <glyph glyph-name="E" unicode="E" horiz-adv-x="425" 
d="M122 667h345l-18 -114h-213l-25 -156h174l-20 -110h-173l-28 -170h219l-21 -117h-351z" />
    <glyph glyph-name="F" unicode="F" horiz-adv-x="391" 
d="M122 667h330l-20 -114h-196l-28 -170h161l-18 -111h-161l-46 -272h-133z" />
    <glyph glyph-name="G" unicode="G" horiz-adv-x="476" 
d="M273 346h184l-58 -346h-60l-6 69q-42 -82 -129 -82q-168 0 -168 237q0 173 64 316q63 139 198 139q82 0 128 -48t46 -132q0 -6 -2 -34l-122 -14l2 32q0 44 -12.5 63.5t-40.5 19.5q-34 0 -54 -29q-30 -39 -52 -152q-19 -110 -19 -188q0 -52 13.5 -74t45.5 -22
q36 0 56.5 31.5t31.5 103.5h-64z" />
    <glyph glyph-name="H" unicode="H" horiz-adv-x="477" 
d="M494 667l-111 -667h-134l48 284h-106l-47 -284h-133l111 667h134l-45 -266h105l45 266h133z" />
    <glyph glyph-name="I" unicode="I" horiz-adv-x="238" 
d="M122 667h134l-112 -667h-133z" />
    <glyph glyph-name="J" unicode="J" horiz-adv-x="306" 
d="M190 667h133l-76 -459q-15 -90 -40 -137q-44 -84 -158 -84q-38 0 -82 13l19 115q28 -9 46 -9q36 0 55 26q18 22 29 87z" />
    <glyph glyph-name="K" unicode="K" 
d="M122 667h134l-41 -240l147 240h145l-166 -255l78 -412h-147l-45 300l-43 -60l-40 -240h-133z" />
    <glyph glyph-name="L" unicode="L" horiz-adv-x="374" 
d="M122 667h134l-92 -550h171l-19 -117h-305z" />
    <glyph glyph-name="M" unicode="M" horiz-adv-x="647" 
d="M11 0l111 667h182l12 -349q2 -48 1 -98q19 67 37 115l124 332h186l-111 -667h-131l53 315q15 89 37 191l-19.5 -54.5t-21.5 -59.5l-155 -392h-89l-22 339q-4 72 2 178q-2 -10 -7 -49t-10.5 -76.5t-9.5 -57.5l-56 -334h-113z" />
    <glyph glyph-name="N" unicode="N" horiz-adv-x="494" 
d="M11 0l111 667h135l68 -282q7 -33 16 -101l7.5 66.5t9.5 76.5l39 240h114l-112 -667h-106l-83 350q-9 41 -18 106q-1 -9 -6 -66.5t-9 -80.5l-53 -309h-113z" />
    <glyph glyph-name="O" unicode="O" horiz-adv-x="476" 
d="M35 223q0 166 57 303q31 73 84.5 113t121.5 40h6q162 -5 162 -228q0 -200 -74 -342q-63 -122 -186 -122q-84 0 -127.5 60t-43.5 176zM170 173q0 -72 45 -72t70 78q19 59 32.5 149.5t13.5 156.5q0 44 -10 62.5t-34 18.5q-38 0 -63 -67q-22 -64 -38 -159.5t-16 -166.5z" />
    <glyph glyph-name="P" unicode="P" horiz-adv-x="442" 
d="M122 667h150q72 0 113 -22q39 -19 60 -62t21 -103q0 -103 -58.5 -166t-153.5 -63h-68l-42 -251h-133zM204 362h46q81 0 81 122q0 38 -14.5 55.5t-46.5 17.5h-33z" />
    <glyph glyph-name="Q" unicode="Q" horiz-adv-x="476" 
d="M409 -17l-11 -110q-40 -8 -64 -8q-48 0 -74.5 26t-26.5 73q0 13 2 25q-26 -2 -34 -2q-77 0 -120 62t-43 174q0 174 57 303q30 73 84 113t121 40q169 0 169 -228q0 -202 -74 -342q-24 -43 -65 -80v-10q0 -41 42 -41q9 0 37 5zM290 566q-38 0 -63 -67q-22 -64 -38 -159.5
t-16 -165.5q0 -73 45 -73t70 78q19 60 32.5 150t13.5 157q0 44 -10 62t-34 18z" />
    <glyph glyph-name="R" unicode="R" horiz-adv-x="476" 
d="M122 667h170q75 0 115 -27q66 -41 66 -153q0 -97 -51 -154q-20 -23 -64 -43l54 -290h-146l-32 267h-45l-45 -267h-133zM206 372h34q98 0 98 117q0 73 -70 73h-30z" />
    <glyph glyph-name="S" unicode="S" horiz-adv-x="443" 
d="M440 515l-114 -39q-17 85 -69 85q-25 0 -41 -18.5t-16 -46.5q0 -18 10 -36q15 -25 77 -66q60 -40 88 -70q42 -46 42 -115q0 -98 -58.5 -160t-149.5 -62q-86 0 -136 52t-59 150l118 23q3 -45 19 -71q22 -35 64 -35q31 0 49 20.5t18 56.5q0 27 -13.5 44.5t-53.5 44.5
q-55 37 -73 51t-34 32q-39 44 -39 109q0 92 54.5 153.5t135.5 61.5q69 0 117.5 -42.5t63.5 -121.5z" />
    <glyph glyph-name="T" unicode="T" horiz-adv-x="391" 
d="M85 667h361l-19 -118h-114l-92 -549h-133l92 549h-115z" />
    <glyph glyph-name="U" unicode="U" horiz-adv-x="477" 
d="M116 667h132l-64 -385q-10 -60 -10 -61q-4 -34 -4 -52q0 -63 55 -63q37 0 56 34q19 39 36 146l65 381h118l-64 -385q-19 -113 -35 -160q-45 -135 -193 -135q-82 0 -124.5 45.5t-42.5 132.5q0 59 11 121z" />
    <glyph glyph-name="V" unicode="V" horiz-adv-x="425" 
d="M100 0l-29 667h141l6 -373q2 -60 -1 -116q12 51 38 136l112 353h120l-236 -667h-151z" />
    <glyph glyph-name="W" unicode="W" horiz-adv-x="664" 
d="M100 0l-24 667h137l-3 -301q0 -25 -2 -66t-2 -61q23 91 30 112l104 316h124l6 -301v-127q25 104 34 135l89 293h123l-227 -667h-116l-13 351q-2 37 1 103q-18 -72 -27 -98l-121 -356h-113z" />
    <glyph glyph-name="X" unicode="X" horiz-adv-x="442" 
d="M76 667h148l32 -172l89 172h139l-186 -312l96 -355h-147l-42 199l-106 -199h-134l198 344z" />
    <glyph glyph-name="Y" unicode="Y" horiz-adv-x="425" 
d="M65 667h136l51 -241l118 241h126l-203 -388l-47 -279h-138l47 286z" />
    <glyph glyph-name="Z" unicode="Z" horiz-adv-x="425" 
d="M101 667h366l-17 -104l-294 -446h229l-20 -117h-385l17 106l296 447h-210z" />
    <glyph glyph-name="bracketleft" unicode="[" horiz-adv-x="289" 
d="M135 667h173l-10 -61h-60l-119 -713h68l-10 -60h-182z" />
    <glyph glyph-name="backslash" unicode="\" horiz-adv-x="357" 
d="M178 667l249 -834h-82l-249 834h82z" />
    <glyph glyph-name="bracketright" unicode="]" horiz-adv-x="289" 
d="M155 -167h-174l10 60h60l119 713h-68l10 61h181z" />
    <glyph glyph-name="asciicircum" unicode="^" 
d="M474 316h-121l-110 246l-110 -246h-120l179 358h103z" />
    <glyph glyph-name="underscore" unicode="_" horiz-adv-x="500" 
d="M0 -75h500v-50h-500v50z" />
    <glyph glyph-name="grave" unicode="`" 
d="M217 713l135 -117l-35 -48l-150 95z" />
    <glyph glyph-name="a" unicode="a" horiz-adv-x="408" 
d="M177 339l-116 19q35 149 180 149q66 0 105.5 -36t39.5 -95q0 -24 -11 -88l-29 -178q-10 -50 -10 -87q0 -1 2 -23h-112q-3 16 -3 26q0 2 0.5 10t0.5 14q-12 -16 -33 -35q-25 -21 -69 -21q-52 0 -82 31t-30 86q0 30 13 67q22 61 72 91t146 39l18 2q8 38 8 60q0 50 -35 50
q-29 0 -42 -30q-8 -18 -13 -51zM143 130q0 -51 38 -51q40 0 60 116l6 43q-35 -6 -57 -19q-21 -13 -34 -38.5t-13 -50.5z" />
    <glyph glyph-name="b" unicode="b" horiz-adv-x="391" 
d="M-5 0l112 667h126l-37 -218q20 29 37 40t42 11q48 0 76.5 -42.5t28.5 -115.5q0 -100 -39 -214q-45 -134 -142 -134q-45 0 -70 25q-16 16 -26 50q-20 -36 -35 -69h-73zM248 339q0 65 -28 65q-19 0 -30 -23q-5 -12 -12 -44l-29 -170q-1 -6 -2 -13.5t-2 -12.5t-1 -8
q0 -19 9 -32t23 -13q29 0 48 86q24 111 24 165z" />
    <glyph glyph-name="c" unicode="c" horiz-adv-x="374" 
d="M369 315l-111 -8q2 32 2 33q0 71 -36 71q-34 0 -50 -65q-18 -75 -26 -152q-5 -60 -5 -65q0 -47 34 -47q45 0 66 108l108 -20q-17 -90 -64 -137t-120 -47q-151 0 -151 190q0 151 57.5 241t154.5 90q66 0 105 -42t39 -114q0 -9 -3 -36z" />
    <glyph glyph-name="d" unicode="d" horiz-adv-x="391" 
d="M298 667h126l-111 -667h-113l10 56q-29 -36 -49.5 -49t-47.5 -13q-49 0 -75 41t-26 119q0 142 51 244t123 102q51 0 74 -57zM244 340q2 16 2 23q0 43 -28 43q-18 0 -30 -29q-16 -38 -29 -112q-15 -77 -15 -124q0 -53 26 -53q31 0 48 98z" />
    <glyph glyph-name="e" unicode="e" horiz-adv-x="391" 
d="M360 224h-214l-1 -11q-2 -37 -2 -57q0 -41 8 -57.5t28 -16.5q22 0 34 17.5t25 68.5l105 -20q-14 -52 -28 -79q-45 -83 -148 -83q-151 0 -151 198q0 146 57.5 234.5t151.5 88.5q141 0 141 -183q0 -39 -6 -100zM243 302q4 39 4 68q0 50 -30 50q-43 0 -62 -118h88z" />
    <glyph glyph-name="f" unicode="f" horiz-adv-x="255" 
d="M293 493l-18 -108h-64l-65 -385h-130l64 385h-44l17 108h45q14 89 36 135q36 69 139 69q27 0 62 -5l-19 -110q-4 0 -14 0.5t-15 0.5q-28 0 -39.5 -16.5t-22.5 -73.5h68z" />
    <glyph glyph-name="g" unicode="g" horiz-adv-x="409" 
d="M418 604l-9 -92q-13 1 -24 1q-19 0 -28 -8.5t-17 -34.5q48 -38 48 -111q0 -74 -44.5 -119.5t-117.5 -45.5q-30 0 -61 11q-32 -24 -32 -44q0 -12 7 -19q11 -15 73 -22q9 -1 20.5 -3t12.5 -2q51 -9 75 -31q33 -33 33 -86q0 -81 -59.5 -128.5t-162.5 -47.5q-74 0 -115 28
t-41 80q0 37 20 60.5t67 43.5q-41 28 -41 80q0 72 87 119q-4 4 -8.5 9.5t-5.5 6.5q-30 35 -30 90q0 73 47 120.5t119 47.5q33 0 62 -13q15 62 37 87t63 25q13 0 25 -2zM234 427q-48 -1 -48 -99q0 -29 8 -41.5t27 -12.5q47 0 47 103q0 50 -33 50h-1zM116 11q-35 -18 -35 -54
q0 -48 72 -48q40 0 64.5 14.5t24.5 37.5q0 31 -32 37q-38 11 -94 13z" />
    <glyph glyph-name="h" unicode="h" horiz-adv-x="391" 
d="M237 667l-36 -220q36 60 91 60q40 0 62.5 -24.5t22.5 -67.5q0 -31 -10 -87l-54 -328h-124l52 315q7 40 7 61q0 28 -20 28t-33.5 -25.5t-23.5 -86.5l-49 -292h-127l112 667h130z" />
    <glyph glyph-name="i" unicode="i" horiz-adv-x="204" 
d="M77 493h131l-83 -493h-130zM85 538l23 136h130l-23 -136h-130z" />
    <glyph glyph-name="j" unicode="j" horiz-adv-x="204" 
d="M77 493h131l-79 -470q-16 -101 -38 -143q-32 -63 -127 -63q-23 0 -65 7l17 109q18 -2 26 -2q25 0 36 18.5t21 76.5zM85 538l23 136h130l-23 -136h-130z" />
    <glyph glyph-name="k" unicode="k" horiz-adv-x="391" 
d="M107 667h130l-52 -316l106 142h132l-140 -165l73 -328h-134l-39 236l-22 -27l-35 -209h-131z" />
    <glyph glyph-name="l" unicode="l" horiz-adv-x="204" 
d="M107 667h130l-112 -667h-130z" />
    <glyph glyph-name="m" unicode="m" horiz-adv-x="579" 
d="M-5 0l83 493h120l-10 -59q20 40 44 56.5t59 16.5q36 0 55 -17.5t29 -59.5q23 42 46 59.5t57 17.5q40 0 63.5 -24t23.5 -65q0 -30 -14 -110l-51 -308h-124l52 308q8 42 8 64q0 33 -24 33q-19 0 -29.5 -20.5t-20.5 -76.5l-51 -308h-123l51 308q10 53 10 68q0 28 -22 28
q-37 0 -54 -101l-51 -303h-127z" />
    <glyph glyph-name="n" unicode="n" horiz-adv-x="391" 
d="M-5 0l83 493h120l-10 -59q25 40 48 56.5t54 16.5q41 0 63.5 -25t22.5 -70q0 -30 -13 -108l-50 -304h-124l50 304q8 52 8 72q0 28 -21 28q-19 0 -30.5 -22t-21.5 -78l-52 -304h-127z" />
    <glyph glyph-name="o" unicode="o" horiz-adv-x="391" 
d="M17 190q0 146 56 231.5t151 85.5h11q59 0 99 -51t40 -144q0 -117 -39 -207q-23 -56 -67 -87.5t-99 -31.5q-152 0 -152 204zM247 364q0 47 -27 47q-20 0 -31 -21.5t-22 -81.5q-23 -131 -23 -185q0 -41 27 -41q20 0 31 24t24 92q21 105 21 166z" />
    <glyph glyph-name="p" unicode="p" horiz-adv-x="391" 
d="M78 493h119l-10 -62q37 69 87 69q49 0 76 -45t27 -125q0 -144 -52 -254q-20 -39 -50.5 -61t-67.5 -22q-21 0 -32 5q-15 6 -24 15t-22 29l-35 -209h-126zM180 348l-32 -188q-4 -21 -4 -28q0 -20 8 -32t22 -12q28 0 50 83q21 84 21 164q0 39 -6.5 54.5t-22.5 15.5
q-10 0 -20 -11t-12 -25z" />
    <glyph glyph-name="q" unicode="q" horiz-adv-x="391" 
d="M316 498h81q-8 -29 -23 -114l-15 -88l-77 -463h-127l35 208q-15 -23 -30 -33q-21 -14 -49 -14q-47 0 -73 41t-26 118q0 148 52.5 247.5t130.5 99.5q58 0 89 -71q18 28 32 69zM236 322q6 26 6 43t-7.5 28t-18.5 11q-26 0 -40 -53q-32 -112 -32 -202q0 -61 26 -61
q16 0 26 23q9 22 19 83z" />
    <glyph glyph-name="r" unicode="r" horiz-adv-x="289" 
d="M78 493h115l-18 -105q29 61 53 86q28 26 66 26q14 0 27 -2l-24 -141q-10 2 -21 2q-50 0 -77.5 -47t-48.5 -168l-24 -144h-131z" />
    <glyph glyph-name="s" unicode="s" horiz-adv-x="357" 
d="M351 381l-93 -34q-8 36 -21 51.5t-36 15.5q-17 0 -29.5 -13.5t-12.5 -32.5q0 -15 7 -26q7 -14 49 -37q46 -26 71 -48q43 -40 43 -104q0 -76 -45.5 -121.5t-121.5 -45.5q-73 0 -115 33t-56 102l104 29q19 -71 65 -71q22 0 35.5 15.5t13.5 38.5q0 17 -11 30t-40 30l-37 22
q-81 48 -81 131q0 71 47 116t121 45q122 0 143 -126z" />
    <glyph glyph-name="t" unicode="t" horiz-adv-x="289" 
d="M306 493l-19 -108h-74l-33 -197q-7 -53 -7 -56q0 -32 43 -32q15 0 33 3l-18 -108q-42 -9 -80 -9q-55 0 -84.5 28t-29.5 79q0 16 13 98l32 194h-52l18 108h58l27 140l122 4l-25 -144h76z" />
    <glyph glyph-name="u" unicode="u" horiz-adv-x="392" 
d="M390 494l-83 -494h-118l9 56q-24 -36 -44 -51q-25 -19 -57 -19q-39 0 -61.5 26.5t-22.5 72.5q0 38 9 92l53 317h124l-53 -317q-9 -58 -9 -66q0 -22 22 -22q18 0 30 21q13 21 24 87l50 297h127z" />
    <glyph glyph-name="v" unicode="v" horiz-adv-x="358" 
d="M374 493l-187 -493h-109l-40 493h126l5 -192q2 -102 2 -122q5 28 36 125l60 189h107z" />
    <glyph glyph-name="w" unicode="w" horiz-adv-x="546" 
d="M565 493l-180 -493h-111l-3 236q0 13 5 101q-7 -34 -32 -120l-66 -217h-109l-27 493h123l2 -205q0 -45 -6 -131q11 53 33 125l65 211h114l-1 -212q0 -28 -5 -116q11 56 34 129l66 199h98z" />
    <glyph glyph-name="x" unicode="x" horiz-adv-x="358" 
d="M392 493l-147 -223l73 -270h-134l-28 132l-82 -132h-117l164 245l-69 248h135l24 -111l67 111h114z" />
    <glyph glyph-name="y" unicode="y" horiz-adv-x="389" 
d="M398 493l-197 -497q-28 -70 -45 -98t-44 -48q-33 -25 -90 -25q-19 0 -33 3l13 112q20 -2 22 -2q36 0 53.5 17.5t33.5 69.5l-57 468h130l11 -179q1 -12 1.5 -31t1 -44.5t0.5 -38.5q13 64 29 114l61 179h110z" />
    <glyph glyph-name="z" unicode="z" horiz-adv-x="340" 
d="M350 493l-17 -99l-194 -296h149l-16 -98h-290l17 96l196 298h-138l17 99h276z" />
    <glyph glyph-name="braceleft" unicode="{" horiz-adv-x="289" 
d="M20 221l10 61q14 1 22.5 5t19 23.5t16.5 55.5l26 155q6 39 10.5 58.5t17.5 41.5t34 33q16 9 37.5 11t92.5 2l-9 -55q-40 1 -51 -14.5t-21 -76.5l-26 -155q-10 -61 -26.5 -82.5t-50.5 -35.5q15 -6 22.5 -10.5t15 -17.5t7.5 -33q0 -13 -8 -61l-19 -109q-11 -64 -11 -90
q0 -20 6.5 -29.5t14 -11.5t25.5 -3l-9 -50q-71 2 -91 5t-35 14q-25 20 -25 59q0 19 14 106l20 115q4 28 4 46q0 21 -7.5 30.5t-25.5 12.5z" />
    <glyph glyph-name="bar" unicode="|" horiz-adv-x="500" 
d="M328 750v-1000h-128v1000h128z" />
    <glyph glyph-name="braceright" unicode="}" horiz-adv-x="289" 
d="M269 279l-10 -61q-14 -1 -22.5 -5t-19 -23.5t-16.5 -55.5l-26 -155q-6 -39 -10.5 -58.5t-17.5 -41.5t-34 -33q-16 -9 -37.5 -11t-92.5 -2l9 55q40 -1 51 14.5t21 76.5l26 155q10 61 26.5 82.5t50.5 35.5q-15 6 -22.5 10.5t-15 17.5t-7.5 33q0 13 8 61l19 109q11 64 11 90
q0 20 -6.5 29.5t-14 11.5t-25.5 3l9 50q71 -2 91 -5t35 -14q25 -20 25 -59q0 -19 -14 -106l-20 -115q-4 -28 -4 -46q0 -21 7.5 -30.5t25.5 -12.5z" />
    <glyph glyph-name="asciitilde" unicode="~" 
d="M77 238l-68 53q32 65 47 83q38 46 98 46q30 0 98 -25q61 -23 82 -23q26 0 41 13.5t28 38.5l69 -49q-12 -26 -22 -42.5t-28 -39t-43.5 -34t-57.5 -11.5q-25 0 -97 26q-63 22 -78 22q-19 0 -33 -9.5t-20 -19t-16 -29.5z" />
    <glyph glyph-name="uni00A0" unicode="&#xa0;" horiz-adv-x="221" 
 />
    <glyph glyph-name="exclamdown" unicode="&#xa1;" horiz-adv-x="306" 
d="M158 -174h-152l116 465h76zM232 343h-126l25 150h126z" />
    <glyph glyph-name="cent" unicode="&#xa2;" 
d="M244 98l-21 -127h-62l23 136q-50 20 -73 65t-23 124q0 128 55 211q44 64 120 74l17 96h60l-16 -104q91 -29 93 -170l-108 -9q0 10 0.5 21.5t0.5 14.5q0 50 -28 50q-19 0 -30 -24t-24 -92q-13 -70 -13 -117q0 -39 29 -39q17 0 27 17.5t19 60.5l104 -19q-30 -156 -150 -169
z" />
    <glyph glyph-name="sterling" unicode="&#xa3;" 
d="M340 404l-16 -99h-77q-5 -125 -92 -192h67q45 0 71 15q40 23 55 90l102 -40q-16 -49 -26.5 -70.5t-33.5 -47.5q-27 -31 -68 -46q-37 -14 -108 -14h-258l18 115h36q43 0 75.5 44.5t34.5 145.5h-71l16 99h58q0 46 9 100q30 175 178 175q71 0 106 -43q22 -30 34 -85l-99 -49
q-9 59 -43 59q-24 0 -36 -24q-15 -32 -18 -133h86z" />
    <glyph glyph-name="currency" unicode="&#xa4;" 
d="M314 471l58 58l63 -63l-58 -58q19 -36 19 -74q0 -37 -18 -73l58 -59l-66 -65l-58 58q-36 -18 -74 -18q-36 0 -74 19l-58 -58l-63 63l58 58q-19 38 -19 75q0 34 18 72l-58 59l65 65l59 -58q40 18 73 18q37 0 75 -19zM239 274q25 0 42.5 17t17.5 42t-17.5 42.5t-42.5 17.5
q-24 0 -42 -17.5t-18 -42.5t17.5 -42t42.5 -17z" />
    <glyph glyph-name="yen" unicode="&#xa5;" 
d="M455 405l-10 -61h-110l-30 -57h130l-10 -61h-133l-38 -226h-138l37 226h-133l10 61h133l-14 57h-109l10 61h85l-62 262h136l51 -241l118 241h126l-137 -262h88z" />
    <glyph glyph-name="brokenbar" unicode="&#xa6;" horiz-adv-x="500" 
d="M200 325v350h128v-350h-128zM200 -175v350h128v-350h-128z" />
    <glyph glyph-name="section" unicode="&#xa7;" 
d="M436 556l-97 -33q-7 34 -19.5 47t-38.5 13t-41.5 -14t-15.5 -38q0 -23 17 -42q13 -15 52 -40q11 -7 53 -37q53 -41 53 -113q0 -54 -28 -98q-14 -21 -49 -51q30 -29 41 -56t11 -69q0 -90 -55.5 -146.5t-144.5 -56.5q-85 0 -131 57q-24 31 -34 92l105 29q12 -82 76 -82
q30 0 47.5 18.5t17.5 50.5q0 29 -19 53q-14 16 -70 45q-41 21 -57 34q-53 39 -53 111q0 66 38 120q17 20 50 47q-39 46 -39 106q0 77 50.5 126.5t129.5 49.5q75 0 115 -43q23 -25 36 -80zM202 352q-41 -31 -41 -63q0 -42 55 -72l31 -16l12 -7q34 31 34 66q0 36 -46 64
l-33 20z" />
    <glyph glyph-name="dieresis" unicode="&#xa8;" 
d="M221 560q-23 0 -38.5 15t-15.5 38t15.5 38t39.5 15q22 0 36 -14t14 -37q0 -25 -14 -40t-37 -15zM362 560q-22 0 -37.5 15t-15.5 38t15.5 38t38.5 15t37 -14t14 -37q0 -25 -14.5 -40t-37.5 -15z" />
    <glyph glyph-name="copyright" unicode="&#xa9;" horiz-adv-x="736" 
d="M789 387q0 -84 -37 -160.5t-96 -128t-131.5 -82t-144.5 -30.5q-122 0 -208.5 81t-86.5 214q0 96 54 188t150 151.5t205 59.5q129 0 212 -84t83 -209zM730 381q0 104 -69 172.5t-176 68.5q-120 0 -219 -84.5t-118 -204.5q-4 -25 -4 -54q3 -101 72 -168t173 -67
q127 0 234 100.5t107 236.5zM577 388l-79 -6q3 25 3 43q0 46 -38 46q-27 0 -42.5 -30t-28.5 -111q-8 -47 -8 -81q0 -27 8 -37.5t26 -10.5q25 0 38 17t26 64l75 -6q-37 -146 -154 -146q-111 0 -111 139q0 13 2 35t12.5 66.5t28 80.5t54 63.5t85.5 27.5q62 0 86 -36t17 -118z
" />
    <glyph glyph-name="ordfeminine" unicode="&#xaa;" horiz-adv-x="425" 
d="M230 560l-94 13q27 106 133 106q49 0 78.5 -24.5t29.5 -65.5q0 -15 -3 -32l-4 -23l-19 -112q-6 -40 -6 -48q0 -7 3 -28h-88q-2 9 -2 18v11q-21 -20 -35 -26.5t-35 -6.5q-38 0 -60.5 22t-22.5 59q0 43 35 80q37 37 129 45l8 1q4 18 4 35q0 28 -20 28q-21 0 -26 -29z
M209 433q0 -25 20 -25q13 0 21 15t15 53l4 23q-60 -11 -60 -66z" />
    <glyph glyph-name="guillemotleft" unicode="&#xab;" horiz-adv-x="340" 
d="M284 108h-64l-55 146l94 151h68l-63 -151zM148 108h-64l-55 146l92 151h69l-62 -151z" />
    <glyph glyph-name="logicalnot" unicode="&#xac;" 
d="M316 199v163h-253v105h363v-268h-110z" />
    <glyph glyph-name="uni00AD" unicode="&#xad;" horiz-adv-x="255" 
d="M46 328h190l-19 -108h-189z" />
    <glyph glyph-name="registered" unicode="&#xae;" horiz-adv-x="736" 
d="M223 367l36 219h66q14 0 23 -1.5t23 -6.5t20 -20t2 -38q-8 -43 -40 -59l22 -94h-57l-14 83h-14l-13 -83h-54zM306 546l-9 -54h8q37 0 37 35q0 9 -5 13t-11.5 5t-19.5 1zM511 514q0 -107 -75 -173.5t-161 -66.5q-73 0 -121 47t-48 118q0 102 75.5 168.5t159.5 66.5
q72 0 121 -48t49 -112zM333 623q-63 0 -118 -51t-55 -121q0 -57 35 -91.5t89 -34.5q63 0 117.5 50.5t54.5 123.5q0 53 -34.5 88.5t-88.5 35.5z" />
    <glyph glyph-name="macron" unicode="&#xaf;" 
d="M178 646h236l-11 -65h-236z" />
    <glyph glyph-name="degree" unicode="&#xb0;" 
d="M115 528q0 63 44.5 106t102.5 43q62 0 105.5 -44t43.5 -105q0 -63 -44.5 -106.5t-103.5 -43.5t-103.5 43t-44.5 107zM198 528q0 -30 18.5 -52.5t46.5 -22.5q29 0 47 22.5t18 52.5t-18 52t-46 22q-31 0 -48.5 -23t-17.5 -51z" />
    <glyph glyph-name="plusminus" unicode="&#xb1;" 
d="M425 0h-363v105h363v-105zM299 386h126v-105h-126v-129h-110v129h-127v105h127v129h110v-129z" />
    <glyph glyph-name="two.superior" unicode="&#xb2;" horiz-adv-x="306" 
d="M299 351l-15 -84h-244l15 85q75 50 134 117q41 45 41 91q0 34 -23 34q-13 0 -23 -13q-10 -17 -19 -62l-89 20q8 51 27 80q34 55 108 55q56 0 87 -30t31 -83q0 -60 -45 -111q-50 -55 -114 -99h129z" />
    <glyph glyph-name="three.superior" unicode="&#xb3;" horiz-adv-x="306" 
d="M157 549l-79 26q19 53 50 75.5t83 22.5q53 0 81.5 -25.5t28.5 -74.5q0 -75 -63 -100q47 -29 47 -83q0 -59 -37 -95t-98 -36q-65 0 -98 38q-14 16 -20 32t-11 51l83 18q9 -61 44 -61q18 0 28.5 14t10.5 38q0 49 -55 49h-17l12 72q13 -1 24 -1q29 0 41.5 14t12.5 46
q0 33 -25 33q-15 0 -24.5 -11.5t-18.5 -41.5z" />
    <glyph glyph-name="acute" unicode="&#xb4;" 
d="M378 709l39 -69l-166 -89l-32 47z" />
    <glyph glyph-name="mu" unicode="&#xb5;" horiz-adv-x="392" 
d="M390 492l-83 -493h-118l9 56l-21.5 -30t-25 -22.5t-36.5 -14.5l-27 -155h-123l110 659h124l-53 -317q-9 -58 -9 -66q0 -22 22 -22q18 0 30 21q13 21 24 87l50 297h127z" />
    <glyph glyph-name="paragraph" unicode="&#xb6;" horiz-adv-x="450" 
d="M410 667v-834h-70v755h-49v-755h-70v425q-28 0 -50 3t-50 15.5t-47 34t-32 61.5t-13 94q0 123 74 174q39 27 141 27h166z" />
    <glyph glyph-name="periodcentered" unicode="&#xb7;" horiz-adv-x="221" 
d="M46 259l25 149h132l-25 -149h-132z" />
    <glyph glyph-name="cedilla" unicode="&#xb8;" 
d="M241 0l-21 -48q41 -2 59 -18t18 -50q0 -40 -29.5 -66t-74.5 -26q-49 0 -89 34l21 44q33 -25 58 -25q17 0 26.5 9.5t9.5 26.5q0 34 -37 34q-12 0 -31 -3l45 88h45z" />
    <glyph glyph-name="one.superior" unicode="&#xb9;" horiz-adv-x="306" 
d="M300 344l-13 -77h-228l13 77h65l34 199q-35 -11 -63 -11q-3 0 -8.5 0.5t-7.5 0.5l14 82q44 1 72 15q18 9 35 39h74l-54 -325h67z" />
    <glyph glyph-name="ordmasculine" unicode="&#xba;" horiz-adv-x="425" 
d="M109 477q0 94 39.5 148t107.5 54h8q50 -2 77 -37t27 -96q0 -96 -39.5 -152.5t-106.5 -56.5q-113 0 -113 140zM210 434q0 -24 14 -24q10 0 16.5 14.5t13.5 53.5q13 69 13 105q0 23 -14 23q-11 0 -16.5 -12t-12.5 -47q-14 -67 -14 -113z" />
    <glyph glyph-name="guillemotright" unicode="&#xbb;" horiz-adv-x="340" 
d="M58 405h64l56 -147l-93 -150h-68l61 150zM195 405h64l55 -147l-93 -150h-68l62 150z" />
    <glyph glyph-name="onequarter" unicode="&#xbc;" horiz-adv-x="800" 
d="M614 154l32 148l-112 -148h80zM584 667h69l-404 -667h-69zM583 0l18 87h-146l14 71l187 244h100l-48 -245h44l-12 -70h-44l-18 -87h-95zM300 344l-13 -77h-228l13 77h65l34 199q-35 -11 -63 -11q-3 0 -8.5 0.5t-7.5 0.5l14 82q44 1 72 15q18 9 35 39h74l-54 -325h67z" />
    <glyph glyph-name="onehalf" unicode="&#xbd;" horiz-adv-x="825" 
d="M300 344l-13 -77h-228l13 77h65l34 199q-35 -11 -63 -11q-3 0 -8.5 0.5t-7.5 0.5l14 82q44 1 72 15q18 9 35 39h74l-54 -325h67zM653 667l-404 -667h-69l404 667h69zM756 91l-15 -84h-244l15 85q75 50 134 117q41 45 41 91q0 34 -23 34q-13 0 -23 -13q-10 -17 -19 -62
l-89 20q8 51 27 80q34 55 108 55q56 0 87 -30t31 -83q0 -60 -45 -111q-50 -55 -114 -99h129z" />
    <glyph glyph-name="threequarters" unicode="&#xbe;" horiz-adv-x="800" 
d="M614 154l32 148l-112 -148h80zM653 667l-404 -667h-69l404 667h69zM583 0l18 87h-146l14 71l187 244h100l-48 -245h44l-12 -70h-44l-18 -87h-95zM157 549l-79 26q19 53 50 75.5t83 22.5q53 0 81.5 -25.5t28.5 -74.5q0 -75 -63 -100q47 -29 47 -83q0 -59 -37 -95t-98 -36
q-65 0 -98 38q-14 16 -20 32t-11 51l83 18q9 -61 44 -61q18 0 28.5 14t10.5 38q0 49 -55 49h-17l12 72q13 -1 24 -1q29 0 41.5 14t12.5 46q0 33 -25 33q-15 0 -24.5 -11.5t-18.5 -41.5z" />
    <glyph glyph-name="questiondown" unicode="&#xbf;" horiz-adv-x="425" 
d="M254 20l97 -36q-14 -47 -23 -67t-27 -43q-48 -60 -143 -60q-75 0 -119 44t-44 119q0 70 34 117q26 36 80 75q38 27 50 49t18 73h115q-4 -49 -12 -82t-26.5 -57.5t-29.5 -34.5t-40 -34q-33 -26 -45 -49t-12 -58q0 -60 48 -60q27 0 45 24t34 80zM302 343h-126l25 150h127z
" />
    <glyph glyph-name="Agrave" unicode="&#xc0;" 
d="M366 667l46 -667h-136l-5 146h-123l-52 -146h-132l262 667h140zM187 260h80l-4 172v22v30v22l-5 -23l-8 -24l-6 -21zM237 883l135 -117l-35 -48l-150 95z" />
    <glyph glyph-name="Aacute" unicode="&#xc1;" 
d="M366 667l46 -667h-136l-5 146h-123l-52 -146h-132l262 667h140zM187 260h80l-4 172v22v30v22l-5 -23l-8 -24l-6 -21zM418 879l39 -69l-166 -89l-32 47z" />
    <glyph glyph-name="Acircumflex" unicode="&#xc2;" 
d="M366 667l46 -667h-136l-5 146h-123l-52 -146h-132l262 667h140zM187 260h80l-4 172v22v30v22l-5 -23l-8 -24l-6 -21zM181 727l150 133l110 -133h-79l-46 42l-52 -42h-83z" />
    <glyph glyph-name="Atilde" unicode="&#xc3;" 
d="M366 667l46 -667h-136l-5 146h-123l-52 -146h-132l262 667h140zM187 260h80l-4 172v22v30v22l-5 -23l-8 -24l-6 -21zM404 843l31 -40q-47 -69 -98 -69q-20 0 -45 15t-43 15q-24 0 -50 -25l-31 43q44 55 90 55q19 0 52 -16q29 -14 43 -14q24 0 51 36z" />
    <glyph glyph-name="Adieresis" unicode="&#xc4;" 
d="M366 667l46 -667h-136l-5 146h-123l-52 -146h-132l262 667h140zM187 260h80l-4 172v22v30v22l-5 -23l-8 -24l-6 -21zM251 730q-23 0 -38.5 15t-15.5 38t15.5 38t39.5 15q22 0 36 -14t14 -37q0 -25 -14 -40t-37 -15zM392 730q-22 0 -37.5 15t-15.5 38t15.5 38t38.5 15
t37 -14t14 -37q0 -25 -14.5 -40t-37.5 -15z" />
    <glyph glyph-name="Aring" unicode="&#xc5;" 
d="M366 667l46 -667h-136l-5 146h-123l-52 -146h-132l262 667h140zM187 260h80l-4 172v22v30v22l-5 -23l-8 -24l-6 -21zM314 711q-39 -1 -67 27t-28 67q0 40 27.5 68t67.5 28t68 -28t28 -67q0 -40 -28 -67.5t-68 -27.5zM314 769q16 0 26.5 10.5t10.5 26.5q0 15 -10.5 26
t-26.5 11q-15 0 -25.5 -11t-10.5 -26q0 -16 10.5 -26.5t25.5 -10.5z" />
    <glyph glyph-name="AE" unicode="&#xc6;" horiz-adv-x="646" 
d="M584 117l-20 -117h-322l28 169h-109l-77 -169h-128l317 667h403l-19 -114h-189l-27 -156h153l-19 -110h-152l-29 -170h190zM289 282l49 292l-131 -292h82z" />
    <glyph glyph-name="Ccedilla" unicode="&#xc7;" 
d="M307 232l124 -24q-23 -107 -70.5 -160.5t-124.5 -58.5l-16 -37q41 -2 59 -18t18 -50q0 -40 -29.5 -66t-74.5 -26q-49 0 -89 34l21 44q33 -25 58 -25q17 0 26.5 9.5t9.5 26.5q0 34 -37 34q-12 0 -31 -3l40 78q-76 7 -115.5 67t-39.5 165q0 88 19.5 179.5t53.5 157.5
q62 120 183 120q83 0 126.5 -52t43.5 -152q0 -21 -2 -48l-127 -8q2 28 2 54q0 47 -10.5 67.5t-35.5 20.5q-39 0 -60 -68q-20 -65 -33.5 -152t-13.5 -150q0 -85 49 -85q27 0 44.5 29.5t31.5 96.5z" />
    <glyph glyph-name="Egrave" unicode="&#xc8;" horiz-adv-x="425" 
d="M122 667h345l-18 -114h-213l-25 -156h174l-20 -110h-173l-28 -170h219l-21 -117h-351zM217 883l135 -117l-35 -48l-150 95z" />
    <glyph glyph-name="Eacute" unicode="&#xc9;" horiz-adv-x="425" 
d="M122 667h345l-18 -114h-213l-25 -156h174l-20 -110h-173l-28 -170h219l-21 -117h-351zM378 879l39 -69l-166 -89l-32 47z" />
    <glyph glyph-name="Ecircumflex" unicode="&#xca;" horiz-adv-x="425" 
d="M122 667h345l-18 -114h-213l-25 -156h174l-20 -110h-173l-28 -170h219l-21 -117h-351zM171 727l150 133l110 -133h-79l-46 42l-52 -42h-83z" />
    <glyph glyph-name="Edieresis" unicode="&#xcb;" horiz-adv-x="425" 
d="M122 667h345l-18 -114h-213l-25 -156h174l-20 -110h-173l-28 -170h219l-21 -117h-351zM231 730q-23 0 -38.5 15t-15.5 38t15.5 38t39.5 15q22 0 36 -14t14 -37q0 -25 -14 -40t-37 -15zM372 730q-22 0 -37.5 15t-15.5 38t15.5 38t38.5 15t37 -14t14 -37q0 -25 -14.5 -40
t-37.5 -15z" />
    <glyph glyph-name="Igrave" unicode="&#xcc;" horiz-adv-x="238" 
d="M122 667h134l-112 -667h-133zM127 883l135 -117l-35 -48l-150 95z" />
    <glyph glyph-name="Iacute" unicode="&#xcd;" horiz-adv-x="238" 
d="M122 667h134l-112 -667h-133zM288 879l39 -69l-166 -89l-32 47z" />
    <glyph glyph-name="Icircumflex" unicode="&#xce;" horiz-adv-x="238" 
d="M122 667h134l-112 -667h-133zM76 727l150 133l110 -133h-79l-46 42l-52 -42h-83z" />
    <glyph glyph-name="Idieresis" unicode="&#xcf;" horiz-adv-x="238" 
d="M122 667h134l-112 -667h-133zM131 730q-23 0 -38.5 15t-15.5 38t15.5 38t39.5 15q22 0 36 -14t14 -37q0 -25 -14 -40t-37 -15zM272 730q-22 0 -37.5 15t-15.5 38t15.5 38t38.5 15t37 -14t14 -37q0 -25 -14.5 -40t-37.5 -15z" />
    <glyph glyph-name="Eth" unicode="&#xd0;" horiz-adv-x="476" 
d="M122 667h129q63 0 100 -12q34 -11 57 -37q59 -59 59 -199q0 -210 -89 -331q-35 -47 -83.5 -67.5t-125.5 -20.5h-158l49 294h-53l16 92h52zM162 110h28q71 0 103 90q39 110 39 235q0 65 -17 94t-56 29h-22l-29 -172h71l-16 -92h-70z" />
    <glyph glyph-name="Ntilde" unicode="&#xd1;" horiz-adv-x="494" 
d="M11 0l111 667h135l68 -282q7 -33 16 -101l7.5 66.5t9.5 76.5l39 240h114l-112 -667h-106l-83 350q-9 41 -18 106q-1 -9 -6 -66.5t-9 -80.5l-53 -309h-113zM409 843l31 -40q-46 -69 -98 -69q-20 0 -45 15t-43 15q-24 0 -50 -25l-31 43q44 55 90 55q19 0 52 -16
q29 -14 43 -14q24 0 51 36z" />
    <glyph glyph-name="Ograve" unicode="&#xd2;" horiz-adv-x="476" 
d="M35 223q0 166 57 303q31 73 84.5 113t121.5 40h6q162 -5 162 -228q0 -200 -74 -342q-63 -122 -186 -122q-84 0 -127.5 60t-43.5 176zM170 173q0 -72 45 -72t70 78q19 59 32.5 149.5t13.5 156.5q0 44 -10 62.5t-34 18.5q-38 0 -63 -67q-22 -64 -38 -159.5t-16 -166.5z
M217 883l135 -117l-35 -48l-150 95z" />
    <glyph glyph-name="Oacute" unicode="&#xd3;" horiz-adv-x="476" 
d="M35 223q0 166 57 303q31 73 84.5 113t121.5 40h6q162 -5 162 -228q0 -200 -74 -342q-63 -122 -186 -122q-84 0 -127.5 60t-43.5 176zM170 173q0 -72 45 -72t70 78q19 59 32.5 149.5t13.5 156.5q0 44 -10 62.5t-34 18.5q-38 0 -63 -67q-22 -64 -38 -159.5t-16 -166.5z
M403 879l39 -69l-166 -89l-32 47z" />
    <glyph glyph-name="Ocircumflex" unicode="&#xd4;" horiz-adv-x="476" 
d="M35 223q0 166 57 303q31 73 84.5 113t121.5 40h6q162 -5 162 -228q0 -200 -74 -342q-63 -122 -186 -122q-84 0 -127.5 60t-43.5 176zM170 173q0 -72 45 -72t70 78q19 59 32.5 149.5t13.5 156.5q0 44 -10 62.5t-34 18.5q-38 0 -63 -67q-22 -64 -38 -159.5t-16 -166.5z
M176 727l150 133l110 -133h-79l-46 42l-52 -42h-83z" />
    <glyph glyph-name="Otilde" unicode="&#xd5;" horiz-adv-x="476" 
d="M35 223q0 166 57 303q31 73 84.5 113t121.5 40h6q162 -5 162 -228q0 -200 -74 -342q-63 -122 -186 -122q-84 0 -127.5 60t-43.5 176zM170 173q0 -72 45 -72t70 78q19 59 32.5 149.5t13.5 156.5q0 44 -10 62.5t-34 18.5q-38 0 -63 -67q-22 -64 -38 -159.5t-16 -166.5z
M414 843l31 -40q-47 -69 -98 -69q-20 0 -45 15t-43 15q-24 0 -50 -25l-31 43q44 55 90 55q19 0 52 -16q29 -14 43 -14q24 0 51 36z" />
    <glyph glyph-name="Odieresis" unicode="&#xd6;" horiz-adv-x="476" 
d="M35 223q0 166 57 303q31 73 84.5 113t121.5 40h6q162 -5 162 -228q0 -200 -74 -342q-63 -122 -186 -122q-84 0 -127.5 60t-43.5 176zM170 173q0 -72 45 -72t70 78q19 59 32.5 149.5t13.5 156.5q0 44 -10 62.5t-34 18.5q-38 0 -63 -67q-22 -64 -38 -159.5t-16 -166.5z
M251 730q-23 0 -38.5 15t-15.5 38t15.5 38t39.5 15q22 0 36 -14t14 -37q0 -25 -14 -40t-37 -15zM392 730q-22 0 -37.5 15t-15.5 38t15.5 38t38.5 15t37 -14t14 -37q0 -25 -14.5 -40t-37.5 -15z" />
    <glyph glyph-name="multiply" unicode="&#xd7;" 
d="M246 409l97 98l75 -75l-98 -97l100 -99l-79 -78l-99 99l-98 -98l-74 76l97 96l-99 100l78 78z" />
    <glyph glyph-name="Oslash" unicode="&#xd8;" horiz-adv-x="476" 
d="M473 705l-45 -87q41 -60 41 -167q0 -200 -74 -342q-63 -122 -186 -122q-47 0 -92 26l-29 -53h-57l48 91q-41 66 -41 172q0 170 57 303q30 72 84 112.5t120 40.5q53 0 91 -23l26 49h57zM292 569q-39 0 -69 -70q-38 -91 -48 -206q-5 -52 -7 -80l162 326q-6 30 -38 30z
M214 98q24 0 45 21t34 60q30 88 41 200q2 21 5 70l-161 -326q3 -25 36 -25z" />
    <glyph glyph-name="Ugrave" unicode="&#xd9;" horiz-adv-x="477" 
d="M116 667h132l-64 -385q-10 -60 -10 -61q-4 -34 -4 -52q0 -63 55 -63q37 0 56 34q19 39 36 146l65 381h118l-64 -385q-19 -113 -35 -160q-45 -135 -193 -135q-82 0 -124.5 45.5t-42.5 132.5q0 59 11 121zM227 883l135 -117l-35 -48l-150 95z" />
    <glyph glyph-name="Uacute" unicode="&#xda;" horiz-adv-x="477" 
d="M116 667h132l-64 -385q-10 -60 -10 -61q-4 -34 -4 -52q0 -63 55 -63q37 0 56 34q19 39 36 146l65 381h118l-64 -385q-19 -113 -35 -160q-45 -135 -193 -135q-82 0 -124.5 45.5t-42.5 132.5q0 59 11 121zM428 879l39 -69l-166 -89l-32 47z" />
    <glyph glyph-name="Ucircumflex" unicode="&#xdb;" horiz-adv-x="477" 
d="M116 667h132l-64 -385q-10 -60 -10 -61q-4 -34 -4 -52q0 -63 55 -63q37 0 56 34q19 39 36 146l65 381h118l-64 -385q-19 -113 -35 -160q-45 -135 -193 -135q-82 0 -124.5 45.5t-42.5 132.5q0 59 11 121zM191 727l150 133l110 -133h-79l-46 42l-52 -42h-83z" />
    <glyph glyph-name="Udieresis" unicode="&#xdc;" horiz-adv-x="477" 
d="M116 667h132l-64 -385q-10 -60 -10 -61q-4 -34 -4 -52q0 -63 55 -63q37 0 56 34q19 39 36 146l65 381h118l-64 -385q-19 -113 -35 -160q-45 -135 -193 -135q-82 0 -124.5 45.5t-42.5 132.5q0 59 11 121zM261 730q-23 0 -38.5 15t-15.5 38t15.5 38t39.5 15q22 0 36 -14
t14 -37q0 -25 -14 -40t-37 -15zM402 730q-22 0 -37.5 15t-15.5 38t15.5 38t38.5 15t37 -14t14 -37q0 -25 -14.5 -40t-37.5 -15z" />
    <glyph glyph-name="Yacute" unicode="&#xdd;" horiz-adv-x="425" 
d="M65 667h136l51 -241l118 241h126l-203 -388l-47 -279h-138l47 286zM403 879l39 -69l-166 -89l-32 47z" />
    <glyph glyph-name="Thorn" unicode="&#xde;" horiz-adv-x="442" 
d="M122 667h134l-18 -103h14q74 0 113 -21q38 -19 59.5 -62.5t21.5 -102.5q0 -103 -58.5 -166t-153.5 -63h-66l-24 -149h-133zM187 259h43q36 0 53 22q28 35 28 101q0 38 -14.5 55t-47.5 17h-29z" />
    <glyph glyph-name="germandbls" unicode="&#xdf;" horiz-adv-x="494" 
d="M34 355l17 99h46q15 97 35 141q23 51 74 82t110 31q68 0 109 -36.5t41 -96.5q0 -63 -44 -105q-22 -22 -42.5 -35t-66.5 -35q6 -12 22 -22l33 -23q91 -62 91 -163q0 -87 -47.5 -143t-121.5 -56q-58 0 -113 31l41 91q31 -19 60 -19q24 0 38.5 19t14.5 50q0 24 -9.5 39.5
t-37.5 37.5q-35 26 -46.5 45.5t-11.5 50.5q0 35 14 65.5t47 71.5q33 11 47 28t14 46q0 57 -49 57q-31 0 -47 -28q-11 -21 -16 -47q-1 -6 -18 -85l-83 -498h-126l68 407h-43z" />
    <glyph glyph-name="agrave" unicode="&#xe0;" horiz-adv-x="408" 
d="M177 339l-116 19q35 149 180 149q66 0 105.5 -36t39.5 -95q0 -24 -11 -88l-29 -178q-10 -50 -10 -87q0 -1 2 -23h-112q-3 16 -3 26q0 2 0.5 10t0.5 14q-12 -16 -33 -35q-25 -21 -69 -21q-52 0 -82 31t-30 86q0 30 13 67q22 61 72 91t146 39l18 2q8 38 8 60q0 50 -35 50
q-29 0 -42 -30q-8 -18 -13 -51zM143 130q0 -51 38 -51q40 0 60 116l6 43q-35 -6 -57 -19q-21 -13 -34 -38.5t-13 -50.5zM191 713l135 -117l-35 -48l-150 95z" />
    <glyph glyph-name="aacute" unicode="&#xe1;" horiz-adv-x="408" 
d="M177 339l-116 19q35 149 180 149q66 0 105.5 -36t39.5 -95q0 -24 -11 -88l-29 -178q-10 -50 -10 -87q0 -1 2 -23h-112q-3 16 -3 26q0 2 0.5 10t0.5 14q-12 -16 -33 -35q-25 -21 -69 -21q-52 0 -82 31t-30 86q0 30 13 67q22 61 72 91t146 39l18 2q8 38 8 60q0 50 -35 50
q-29 0 -42 -30q-8 -18 -13 -51zM143 130q0 -51 38 -51q40 0 60 116l6 43q-35 -6 -57 -19q-21 -13 -34 -38.5t-13 -50.5zM352 709l39 -69l-166 -89l-32 47z" />
    <glyph glyph-name="acircumflex" unicode="&#xe2;" horiz-adv-x="408" 
d="M177 339l-116 19q35 149 180 149q66 0 105.5 -36t39.5 -95q0 -24 -11 -88l-29 -178q-10 -50 -10 -87q0 -1 2 -23h-112q-3 16 -3 26q0 2 0.5 10t0.5 14q-12 -16 -33 -35q-25 -21 -69 -21q-52 0 -82 31t-30 86q0 30 13 67q22 61 72 91t146 39l18 2q8 38 8 60q0 50 -35 50
q-29 0 -42 -30q-8 -18 -13 -51zM143 130q0 -51 38 -51q40 0 60 116l6 43q-35 -6 -57 -19q-21 -13 -34 -38.5t-13 -50.5zM125 557l150 133l110 -133h-79l-46 42l-52 -42h-83z" />
    <glyph glyph-name="atilde" unicode="&#xe3;" horiz-adv-x="408" 
d="M177 339l-116 19q35 149 180 149q66 0 105.5 -36t39.5 -95q0 -24 -11 -88l-29 -178q-10 -50 -10 -87q0 -1 2 -23h-112q-3 16 -3 26q0 2 0.5 10t0.5 14q-12 -16 -33 -35q-25 -21 -69 -21q-52 0 -82 31t-30 86q0 30 13 67q22 61 72 91t146 39l18 2q8 38 8 60q0 50 -35 50
q-29 0 -42 -30q-8 -18 -13 -51zM143 130q0 -51 38 -51q40 0 60 116l6 43q-35 -6 -57 -19q-21 -13 -34 -38.5t-13 -50.5zM358 673l31 -40q-47 -69 -98 -69q-20 0 -45 15t-43 15q-24 0 -50 -25l-31 43q44 55 90 55q19 0 52 -16q29 -14 43 -14q24 0 51 36z" />
    <glyph glyph-name="adieresis" unicode="&#xe4;" horiz-adv-x="408" 
d="M177 339l-116 19q35 149 180 149q66 0 105.5 -36t39.5 -95q0 -24 -11 -88l-29 -178q-10 -50 -10 -87q0 -1 2 -23h-112q-3 16 -3 26q0 2 0.5 10t0.5 14q-12 -16 -33 -35q-25 -21 -69 -21q-52 0 -82 31t-30 86q0 30 13 67q22 61 72 91t146 39l18 2q8 38 8 60q0 50 -35 50
q-29 0 -42 -30q-8 -18 -13 -51zM143 130q0 -51 38 -51q40 0 60 116l6 43q-35 -6 -57 -19q-21 -13 -34 -38.5t-13 -50.5zM195 560q-23 0 -38.5 15t-15.5 38t15.5 38t39.5 15q22 0 36 -14t14 -37q0 -25 -14 -40t-37 -15zM336 560q-22 0 -37.5 15t-15.5 38t15.5 38t38.5 15
t37 -14t14 -37q0 -25 -14.5 -40t-37.5 -15z" />
    <glyph glyph-name="aring" unicode="&#xe5;" horiz-adv-x="408" 
d="M177 339l-116 19q35 149 180 149q66 0 105.5 -36t39.5 -95q0 -24 -11 -88l-29 -178q-10 -50 -10 -87q0 -1 2 -23h-112q-3 16 -3 26q0 2 0.5 10t0.5 14q-12 -16 -33 -35q-25 -21 -69 -21q-52 0 -82 31t-30 86q0 30 13 67q22 61 72 91t146 39l18 2q8 38 8 60q0 50 -35 50
q-29 0 -42 -30q-8 -18 -13 -51zM143 130q0 -51 38 -51q40 0 60 116l6 43q-35 -6 -57 -19q-21 -13 -34 -38.5t-13 -50.5zM268 541q-39 -1 -67 27t-28 67q0 40 27.5 68t67.5 28t68 -28t28 -67q0 -40 -28 -67.5t-68 -27.5zM268 599q16 0 26.5 10.5t10.5 26.5q0 15 -10.5 26
t-26.5 11q-15 0 -25.5 -11t-10.5 -26q0 -16 10.5 -26.5t25.5 -10.5z" />
    <glyph glyph-name="ae" unicode="&#xe6;" horiz-adv-x="613" 
d="M578 224h-211q-3 -34 -3 -73t7.5 -54t25.5 -15q39 0 59 86l104 -20q-12 -49 -29 -79q-47 -83 -143 -83q-86 0 -109 94q-54 -87 -151 -87q-57 0 -87.5 31t-30.5 87q0 31 13 67q12 35 37 60q30 33 69.5 48t111.5 22l18 2q8 35 8 60q0 50 -35 50q-29 0 -42 -30
q-7 -17 -13 -51l-116 19q17 72 62.5 110.5t112.5 38.5q22 0 47 -7q32 -10 63 -46q43 53 104 53q65 0 99.5 -46.5t34.5 -134.5q0 -43 -6 -102zM143 130q0 -50 37 -50q23 0 35 25q18 38 26 90l7 43q-36 -6 -58 -19q-20 -13 -33.5 -38.5t-13.5 -50.5zM472 370q0 50 -31 50
q-43 0 -62 -118h87q6 39 6 68z" />
    <glyph glyph-name="ccedilla" unicode="&#xe7;" horiz-adv-x="374" 
d="M243 190l108 -20q-34 -178 -176 -183l-15 -35q41 -2 59 -18t18 -50q0 -40 -29.5 -66t-74.5 -26q-49 0 -89 34l21 44q33 -25 58 -25q17 0 26.5 9.5t9.5 26.5q0 34 -37 34q-12 0 -31 -3l40 78q-45 7 -74 39q-41 45 -41 147q0 151 57.5 241t154.5 90q66 0 105 -42t39 -114
q0 -9 -3 -36l-111 -8q2 32 2 33q0 71 -36 71q-34 0 -50 -65q-18 -75 -26 -152q-5 -60 -5 -65q0 -47 34 -47q45 0 66 108z" />
    <glyph glyph-name="egrave" unicode="&#xe8;" horiz-adv-x="391" 
d="M360 224h-214l-1 -11q-2 -37 -2 -57q0 -41 8 -57.5t28 -16.5q22 0 34 17.5t25 68.5l105 -20q-14 -52 -28 -79q-45 -83 -148 -83q-151 0 -151 198q0 146 57.5 234.5t151.5 88.5q141 0 141 -183q0 -39 -6 -100zM243 302q4 39 4 68q0 50 -30 50q-43 0 -62 -118h88zM132 713
l135 -117l-35 -48l-150 95z" />
    <glyph glyph-name="eacute" unicode="&#xe9;" horiz-adv-x="391" 
d="M360 224h-214l-1 -11q-2 -37 -2 -57q0 -41 8 -57.5t28 -16.5q22 0 34 17.5t25 68.5l105 -20q-14 -52 -28 -79q-45 -83 -148 -83q-151 0 -151 198q0 146 57.5 234.5t151.5 88.5q141 0 141 -183q0 -39 -6 -100zM243 302q4 39 4 68q0 50 -30 50q-43 0 -62 -118h88zM344 709
l39 -69l-166 -89l-32 47z" />
    <glyph glyph-name="ecircumflex" unicode="&#xea;" horiz-adv-x="391" 
d="M360 224h-214l-1 -11q-2 -37 -2 -57q0 -41 8 -57.5t28 -16.5q22 0 34 17.5t25 68.5l105 -20q-14 -52 -28 -79q-45 -83 -148 -83q-151 0 -151 198q0 146 57.5 234.5t151.5 88.5q141 0 141 -183q0 -39 -6 -100zM243 302q4 39 4 68q0 50 -30 50q-43 0 -62 -118h88zM81 557
l150 133l110 -133h-79l-46 42l-52 -42h-83z" />
    <glyph glyph-name="edieresis" unicode="&#xeb;" horiz-adv-x="391" 
d="M360 224h-214l-1 -11q-2 -37 -2 -57q0 -41 8 -57.5t28 -16.5q22 0 34 17.5t25 68.5l105 -20q-14 -52 -28 -79q-45 -83 -148 -83q-151 0 -151 198q0 146 57.5 234.5t151.5 88.5q141 0 141 -183q0 -39 -6 -100zM243 302q4 39 4 68q0 50 -30 50q-43 0 -62 -118h88zM187 560
q-23 0 -38.5 15t-15.5 38t15.5 38t39.5 15q22 0 36 -14t14 -37q0 -25 -14 -40t-37 -15zM328 560q-22 0 -37.5 15t-15.5 38t15.5 38t38.5 15t37 -14t14 -37q0 -25 -14.5 -40t-37.5 -15z" />
    <glyph glyph-name="igrave" unicode="&#xec;" horiz-adv-x="204" 
d="M77 493h131l-83 -493h-130zM69 713l135 -117l-35 -48l-150 95z" />
    <glyph glyph-name="iacute" unicode="&#xed;" horiz-adv-x="204" 
d="M77 493h131l-83 -493h-130zM250 709l39 -69l-166 -89l-32 47z" />
    <glyph glyph-name="icircumflex" unicode="&#xee;" horiz-adv-x="204" 
d="M77 493h131l-83 -493h-130zM23 557l150 133l110 -133h-79l-46 42l-52 -42h-83z" />
    <glyph glyph-name="idieresis" unicode="&#xef;" horiz-adv-x="204" 
d="M77 493h131l-83 -493h-130zM93 560q-23 0 -38.5 15t-15.5 38t15.5 38t39.5 15q22 0 36 -14t14 -37q0 -25 -14 -40t-37 -15zM234 560q-22 0 -37.5 15t-15.5 38t15.5 38t38.5 15t37 -14t14 -37q0 -25 -14.5 -40t-37.5 -15z" />
    <glyph glyph-name="eth" unicode="&#xf0;" horiz-adv-x="391" 
d="M247 364q0 47 -27 47q-20 0 -31 -21.5t-22 -81.5q-15 -69 -20 -140q-3 -34 -3 -45q0 -41 27 -41q20 0 31 24t24 92q21 105 21 166zM427 641l-113 -43q60 -163 60 -286q0 -117 -39 -207q-23 -56 -67 -87.5t-99 -31.5q-152 0 -152 204q0 145 56 231t147 86q13 0 23 -2
q-4 23 -16 60l-101 -38l-27 71l102 39l-8 20l-9 22l84 33q10 -22 18 -43l114 43z" />
    <glyph glyph-name="ntilde" unicode="&#xf1;" horiz-adv-x="391" 
d="M-5 0l83 493h120l-10 -59q25 40 48 56.5t54 16.5q41 0 63.5 -25t22.5 -70q0 -30 -13 -108l-50 -304h-124l50 304q8 52 8 72q0 28 -21 28q-19 0 -30.5 -22t-21.5 -78l-52 -304h-127zM339 673l31 -40q-46 -69 -98 -69q-20 0 -45 15t-43 15q-24 0 -50 -25l-31 43
q44 55 90 55q19 0 52 -16q29 -14 43 -14q24 0 51 36z" />
    <glyph glyph-name="ograve" unicode="&#xf2;" horiz-adv-x="391" 
d="M17 190q0 146 56 231.5t151 85.5h11q59 0 99 -51t40 -144q0 -117 -39 -207q-23 -56 -67 -87.5t-99 -31.5q-152 0 -152 204zM247 364q0 47 -27 47q-20 0 -31 -21.5t-22 -81.5q-23 -131 -23 -185q0 -41 27 -41q20 0 31 24t24 92q21 105 21 166zM142 713l135 -117l-35 -48
l-150 95z" />
    <glyph glyph-name="oacute" unicode="&#xf3;" horiz-adv-x="391" 
d="M17 190q0 146 56 231.5t151 85.5h11q59 0 99 -51t40 -144q0 -117 -39 -207q-23 -56 -67 -87.5t-99 -31.5q-152 0 -152 204zM247 364q0 47 -27 47q-20 0 -31 -21.5t-22 -81.5q-23 -131 -23 -185q0 -41 27 -41q20 0 31 24t24 92q21 105 21 166zM344 709l39 -69l-166 -89
l-32 47z" />
    <glyph glyph-name="ocircumflex" unicode="&#xf4;" horiz-adv-x="391" 
d="M17 190q0 146 56 231.5t151 85.5h11q59 0 99 -51t40 -144q0 -117 -39 -207q-23 -56 -67 -87.5t-99 -31.5q-152 0 -152 204zM247 364q0 47 -27 47q-20 0 -31 -21.5t-22 -81.5q-23 -131 -23 -185q0 -41 27 -41q20 0 31 24t24 92q21 105 21 166zM96 557l150 133l110 -133
h-79l-46 42l-52 -42h-83z" />
    <glyph glyph-name="otilde" unicode="&#xf5;" horiz-adv-x="391" 
d="M17 190q0 146 56 231.5t151 85.5h11q59 0 99 -51t40 -144q0 -117 -39 -207q-23 -56 -67 -87.5t-99 -31.5q-152 0 -152 204zM247 364q0 47 -27 47q-20 0 -31 -21.5t-22 -81.5q-23 -131 -23 -185q0 -41 27 -41q20 0 31 24t24 92q21 105 21 166zM339 673l31 -40
q-46 -69 -98 -69q-20 0 -45 15t-43 15q-24 0 -50 -25l-31 43q44 55 90 55q19 0 52 -16q29 -14 43 -14q24 0 51 36z" />
    <glyph glyph-name="odieresis" unicode="&#xf6;" horiz-adv-x="391" 
d="M17 190q0 146 56 231.5t151 85.5h11q59 0 99 -51t40 -144q0 -117 -39 -207q-23 -56 -67 -87.5t-99 -31.5q-152 0 -152 204zM247 364q0 47 -27 47q-20 0 -31 -21.5t-22 -81.5q-23 -131 -23 -185q0 -41 27 -41q20 0 31 24t24 92q21 105 21 166zM187 560q-23 0 -38.5 15
t-15.5 38t15.5 38t39.5 15q22 0 36 -14t14 -37q0 -25 -14 -40t-37 -15zM328 560q-22 0 -37.5 15t-15.5 38t15.5 38t38.5 15t37 -14t14 -37q0 -25 -14.5 -40t-37.5 -15z" />
    <glyph glyph-name="divide" unicode="&#xf7;" 
d="M425 281h-363v105h363v-105zM303 432h-118v132h118v-132zM303 103h-118v132h118v-132z" />
    <glyph glyph-name="oslash" unicode="&#xf8;" horiz-adv-x="391" 
d="M302 487l31 58h52l-49 -91q38 -55 38 -143q0 -116 -39 -206q-23 -56 -66.5 -87.5t-98.5 -31.5q-40 0 -75 18l-32 -61h-52l49 91q-43 55 -43 157q0 145 55.5 230.5t150.5 85.5q40 0 79 -20zM222 414q-31 0 -50 -55q-30 -93 -30 -190l106 214q0 31 -26 31zM168 78
q32 0 51 54q29 83 29 173l-103 -208q3 -19 23 -19z" />
    <glyph glyph-name="ugrave" unicode="&#xf9;" horiz-adv-x="392" 
d="M390 494l-83 -494h-118l9 56q-24 -36 -44 -51q-25 -19 -57 -19q-39 0 -61.5 26.5t-22.5 72.5q0 38 9 92l53 317h124l-53 -317q-9 -58 -9 -66q0 -22 22 -22q18 0 30 21q13 21 24 87l50 297h127zM143 713l135 -117l-35 -48l-150 95z" />
    <glyph glyph-name="uacute" unicode="&#xfa;" horiz-adv-x="392" 
d="M390 494l-83 -494h-118l9 56q-24 -36 -44 -51q-25 -19 -57 -19q-39 0 -61.5 26.5t-22.5 72.5q0 38 9 92l53 317h124l-53 -317q-9 -58 -9 -66q0 -22 22 -22q18 0 30 21q13 21 24 87l50 297h127zM344 709l39 -69l-166 -89l-32 47z" />
    <glyph glyph-name="ucircumflex" unicode="&#xfb;" horiz-adv-x="392" 
d="M390 494l-83 -494h-118l9 56q-24 -36 -44 -51q-25 -19 -57 -19q-39 0 -61.5 26.5t-22.5 72.5q0 38 9 92l53 317h124l-53 -317q-9 -58 -9 -66q0 -22 22 -22q18 0 30 21q13 21 24 87l50 297h127zM107 557l150 133l110 -133h-79l-46 42l-52 -42h-83z" />
    <glyph glyph-name="udieresis" unicode="&#xfc;" horiz-adv-x="392" 
d="M390 494l-83 -494h-118l9 56q-24 -36 -44 -51q-25 -19 -57 -19q-39 0 -61.5 26.5t-22.5 72.5q0 38 9 92l53 317h124l-53 -317q-9 -58 -9 -66q0 -22 22 -22q18 0 30 21q13 21 24 87l50 297h127zM187 560q-23 0 -38.5 15t-15.5 38t15.5 38t39.5 15q22 0 36 -14t14 -37
q0 -25 -14 -40t-37 -15zM328 560q-22 0 -37.5 15t-15.5 38t15.5 38t38.5 15t37 -14t14 -37q0 -25 -14.5 -40t-37.5 -15z" />
    <glyph glyph-name="yacute" unicode="&#xfd;" horiz-adv-x="389" 
d="M398 493l-197 -497q-28 -70 -45 -98t-44 -48q-33 -25 -90 -25q-19 0 -33 3l13 112q20 -2 22 -2q36 0 53.5 17.5t33.5 69.5l-57 468h130l11 -179q1 -12 1.5 -31t1 -44.5t0.5 -38.5q13 64 29 114l61 179h110zM343 709l39 -69l-166 -89l-32 47z" />
    <glyph glyph-name="thorn" unicode="&#xfe;" horiz-adv-x="391" 
d="M107 667h127l-36 -213q34 46 74 46q49 0 77 -44.5t28 -124.5q0 -146 -52 -255q-20 -39 -51 -61t-67 -22q-51 0 -78 49l-35 -209h-126zM148 160q-4 -21 -4 -29q0 -19 8.5 -31t22.5 -12q28 0 49 83q21 92 21 164q0 39 -6 54.5t-22 15.5q-15 0 -23.5 -13t-13.5 -44z" />
    <glyph glyph-name="ydieresis" unicode="&#xff;" horiz-adv-x="389" 
d="M398 493l-197 -497q-28 -70 -45 -98t-44 -48q-33 -25 -90 -25q-19 0 -33 3l13 112q20 -2 22 -2q36 0 53.5 17.5t33.5 69.5l-57 468h130l11 -179q1 -12 1.5 -31t1 -44.5t0.5 -38.5q13 64 29 114l61 179h110zM186 560q-23 0 -38.5 15t-15.5 38t15.5 38t39.5 15q22 0 36 -14
t14 -37q0 -25 -14 -40t-37 -15zM327 560q-23 0 -38 15t-15 38t15.5 38t38.5 15t37 -14t14 -37q0 -25 -14.5 -40t-37.5 -15z" />
    <glyph glyph-name="dotlessi" unicode="&#x131;" horiz-adv-x="204" 
d="M77 493h131l-83 -493h-130z" />
    <glyph glyph-name="Lslash" unicode="&#x141;" horiz-adv-x="374" 
d="M122 667h133l-40 -239l101 84l-18 -104l-100 -85l-35 -206h172l-19 -117h-305l38 226l-58 -48l17 104l58 49z" />
    <glyph glyph-name="lslash" unicode="&#x142;" horiz-adv-x="238" 
d="M123 667h131l-36 -218l71 57l-15 -86l-71 -59l-60 -361h-131l44 264l-72 -59l17 97l71 56z" />
    <glyph glyph-name="OE" unicode="&#x152;" horiz-adv-x="680" 
d="M618 0h-346q-22 -8 -34 -10q-16 -3 -35 -3q-79 0 -122 61.5t-43 174.5q0 170 57 303q63 153 209 153q36 0 80 -12h339l-19 -114h-213l-25 -156h173l-18 -110h-173l-29 -170h219zM292 117l71 428q-23 21 -59 21q-53 0 -77 -67q-22 -64 -38 -159.5t-16 -166.5
q0 -39 11.5 -55.5t37.5 -16.5q36 0 70 16z" />
    <glyph glyph-name="oe" unicode="&#x153;" horiz-adv-x="613" 
d="M577 224h-214l-1 -11q-2 -44 -2 -58q0 -42 8 -57.5t29 -15.5q23 0 36.5 17.5t27.5 68.5l99 -20q-14 -52 -29 -79q-45 -83 -145 -83q-68 0 -112 59q-44 -59 -114 -59q-68 0 -105.5 53.5t-37.5 150.5q0 144 56 230.5t148 86.5q68 0 103 -63q50 63 120 63q68 0 103.5 -46.5
t35.5 -135.5q0 -39 -6 -101zM220 411q-20 0 -31 -21.5t-22 -81.5q-15 -69 -20 -140q-3 -34 -3 -45q0 -41 27 -41q20 0 31 24t24 92q21 105 21 166q0 47 -27 47zM466 302q2 24 2 58q0 60 -32 60q-45 0 -64 -118h94z" />
    <glyph glyph-name="Scaron" unicode="&#x160;" horiz-adv-x="443" 
d="M440 515l-114 -39q-17 85 -69 85q-25 0 -41 -18.5t-16 -46.5q0 -18 10 -36q15 -25 77 -66q60 -40 88 -70q42 -46 42 -115q0 -98 -58.5 -160t-149.5 -62q-86 0 -136 52t-59 150l118 23q3 -45 19 -71q22 -35 64 -35q31 0 49 20.5t18 56.5q0 27 -13.5 44.5t-53.5 44.5
q-55 37 -73 51t-34 32q-39 44 -39 109q0 92 54.5 153.5t135.5 61.5q69 0 117.5 -42.5t63.5 -121.5zM422 854l-150 -135l-110 135h79l46 -44l54 44h81z" />
    <glyph glyph-name="scaron" unicode="&#x161;" horiz-adv-x="357" 
d="M351 381l-93 -34q-8 36 -21 51.5t-36 15.5q-17 0 -29.5 -13.5t-12.5 -32.5q0 -15 7 -26q7 -14 49 -37q46 -26 71 -48q43 -40 43 -104q0 -76 -45.5 -121.5t-121.5 -45.5q-73 0 -115 33t-56 102l104 29q19 -71 65 -71q22 0 35.5 15.5t13.5 38.5q0 17 -11 30t-40 30l-37 22
q-81 48 -81 131q0 71 47 116t121 45q122 0 143 -126zM360 684l-150 -135l-110 135h79l46 -44l54 44h81z" />
    <glyph glyph-name="Ydieresis" unicode="&#x178;" horiz-adv-x="425" 
d="M65 667h136l51 -241l118 241h126l-203 -388l-47 -279h-138l47 286zM236 730q-23 0 -38.5 15t-15.5 38t15.5 38t39.5 15q22 0 36 -14t14 -37q0 -25 -14 -40t-37 -15zM377 730q-23 0 -38 15t-15 38t15.5 38t38.5 15t37 -14t14 -37q0 -25 -14.5 -40t-37.5 -15z" />
    <glyph glyph-name="Zcaron" unicode="&#x17d;" horiz-adv-x="425" 
d="M101 667h366l-17 -104l-294 -446h229l-20 -117h-385l17 106l296 447h-210zM442 854l-150 -135l-110 135h79l46 -44l54 44h81z" />
    <glyph glyph-name="zcaron" unicode="&#x17e;" horiz-adv-x="340" 
d="M350 493l-17 -99l-194 -296h149l-16 -98h-290l17 96l196 298h-138l17 99h276zM372 684l-150 -135l-110 135h79l46 -44l54 44h81z" />
    <glyph glyph-name="florin" unicode="&#x192;" 
d="M410 479l-27 -107h-70l-72 -278q-21 -86 -38 -126.5t-41 -68.5q-38 -44 -109 -44q-23 0 -57 7l28 105q12 -3 17 -3q29 0 46 28t38 110l69 270h-49l28 107h50l7 24q19 59 33.5 87.5t36.5 51.5q41 41 113 41q27 0 56 -10l-27 -96q-15 4 -22 4q-26 0 -43 -19t-31 -64l-6 -19
h70z" />
    <glyph glyph-name="circumflex" unicode="&#x2c6;" 
d="M151 557l150 133l110 -133h-79l-46 42l-52 -42h-83z" />
    <glyph glyph-name="caron" unicode="&#x2c7;" 
d="M432 684l-150 -135l-110 135h79l46 -44l54 44h81z" />
    <glyph glyph-name="uni02C9" unicode="&#x2c9;" 
d="M178 646h236l-11 -65h-236z" />
    <glyph glyph-name="breve" unicode="&#x2d8;" 
d="M167 661h64q11 -35 63 -35q25 0 40 7.5t29 27.5h65q-39 -104 -138 -104q-67 0 -101 49q-12 16 -22 55z" />
    <glyph glyph-name="dotaccent" unicode="&#x2d9;" 
d="M292 557q-25 0 -41.5 16t-16.5 40t17 40.5t42 16.5t40 -15.5t15 -40.5t-16 -41t-40 -16z" />
    <glyph glyph-name="ring" unicode="&#x2da;" 
d="M294 541q-39 -1 -67 27t-28 67q0 40 27.5 68t67.5 28t68 -28t28 -67q0 -40 -28 -67.5t-68 -27.5zM294 599q16 0 26.5 10.5t10.5 26.5q0 15 -10.5 26t-26.5 11q-15 0 -25.5 -11t-10.5 -26q0 -16 10.5 -26.5t25.5 -10.5z" />
    <glyph glyph-name="ogonek" unicode="&#x2db;" 
d="M372 0q-32 -16 -44 -29q-24 -27 -24 -65q0 -39 37 -39q23 0 44 12l18 -40q-45 -24 -87 -24q-44 0 -70 22t-26 59q0 46 38 76q13 12 51 28h63z" />
    <glyph glyph-name="tilde" unicode="&#x2dc;" 
d="M394 673l31 -40q-47 -69 -98 -69q-20 0 -45 15t-43 15q-24 0 -50 -25l-31 43q44 55 90 55q19 0 52 -16q29 -14 43 -14q24 0 51 36z" />
    <glyph glyph-name="hungarumlaut" unicode="&#x2dd;" 
d="M172 588l122 114l44 -64l-133 -91zM322 588l122 114l44 -64l-133 -91z" />
    <glyph glyph-name="uni03A9" unicode="&#x3a9;" horiz-adv-x="574" 
d="M108 96v3q-78 115 -52 272q21 129 105.5 217.5t194.5 88.5q77 0 125.5 -47t63 -113t2.5 -138q-14 -84 -55 -158.5t-90 -121.5l-1 -3h111l-16 -96h-216l12 70q43 30 81 102.5t56 179.5q15 95 -7 160t-84 65q-61 0 -108 -64.5t-64 -165.5q-15 -107 -1.5 -178t45.5 -99
l-12 -70h-215l16 96h109z" />
    <glyph glyph-name="uni03BC" unicode="&#x3bc;" horiz-adv-x="392" 
d="M390 492l-83 -493h-118l9 56l-21.5 -30t-25 -22.5t-36.5 -14.5l-27 -155h-123l110 659h124l-53 -317q-9 -58 -9 -66q0 -22 22 -22q18 0 30 21q13 21 24 87l50 297h127z" />
    <glyph glyph-name="pi" unicode="&#x3c0;" horiz-adv-x="507" 
d="M507 400h-58l-45 -267q-14 -86 -11 -133h-108q-10 31 7 131l45 269h-110q-19 -91 -53.5 -208.5t-68.5 -191.5h-107q35 84 69.5 201.5t49.5 198.5q-53 0 -80 -8v79q46 31 144 31h351z" />
    <glyph glyph-name="endash" unicode="&#x2013;" horiz-adv-x="391" 
d="M51 328h316l-17 -108h-318z" />
    <glyph glyph-name="emdash" unicode="&#x2014;" horiz-adv-x="579" 
d="M51 328h504l-19 -108h-504z" />
    <glyph glyph-name="quoteleft" unicode="&#x2018;" horiz-adv-x="204" 
d="M180 396h-114l24 142l85 135h58l-75 -135h46z" />
    <glyph glyph-name="quoteright" unicode="&#x2019;" horiz-adv-x="204" 
d="M118 667h114l-24 -144l-85 -134h-58l75 134h-46z" />
    <glyph glyph-name="quotesinglbase" unicode="&#x201a;" horiz-adv-x="204" 
d="M144 144l-24 -144l-84 -134h-58l74 134h-46l24 144h114z" />
    <glyph glyph-name="quotedblleft" unicode="&#x201c;" horiz-adv-x="357" 
d="M334 396h-114l24 142l84 135h57l-73 -135h46zM180 396h-114l24 142l85 135h58l-75 -135h46z" />
    <glyph glyph-name="quotedblright" unicode="&#x201d;" horiz-adv-x="357" 
d="M118 667h114l-24 -144l-85 -134h-58l75 134h-46zM271 667h114l-23 -144l-85 -134h-58l74 134h-46z" />
    <glyph glyph-name="quotedblbase" unicode="&#x201e;" horiz-adv-x="357" 
d="M30 144h114l-24 -144l-84 -134h-58l74 134h-46zM184 144h113l-24 -144l-84 -134h-57l74 134h-46z" />
    <glyph glyph-name="dagger" unicode="&#x2020;" 
d="M238 667h123l-30 -181h120l-18 -106h-120l-91 -547h-124l92 547h-120l17 106h121z" />
    <glyph glyph-name="daggerdbl" unicode="&#x2021;" 
d="M238 667h124l-31 -181h121l-19 -106h-120l-43 -260h120l-18 -106h-120l-30 -181h-124l31 181h-120l18 106h119l44 260h-120l18 106h120z" />
    <glyph glyph-name="bullet" unicode="&#x2022;" horiz-adv-x="221" 
d="M178 258h-135v151h135v-151z" />
    <glyph glyph-name="ellipsis" unicode="&#x2026;" horiz-adv-x="675" 
d="M-5 0l25 149h132l-25 -149h-132zM220 0l25 149h132l-25 -149h-132zM445 0l25 149h132l-25 -149h-132z" />
    <glyph glyph-name="perthousand" unicode="&#x2030;" horiz-adv-x="851" 
d="M215 679q96 -3 96 -126q0 -96 -40 -157t-103 -61q-48 0 -75.5 34t-27.5 94q0 95 41 155.5t105 60.5h4zM203 605q-22 -1 -37.5 -45t-15.5 -102q0 -50 23 -50q22 0 38 45.5t16 107.5q0 44 -22 44h-2zM445 331q96 -3 96 -126q0 -96 -40 -157t-103 -61q-48 0 -75.5 34
t-27.5 94q0 95 41 155.5t105 60.5h4zM433 258q-22 -2 -38 -46t-16 -102q0 -48 23 -48q22 0 38 45t16 106q0 45 -21 45h-2zM718 331q95 -3 95 -126q0 -96 -40 -157t-102 -61q-49 0 -76 34t-27 94q0 95 40.5 155.5t104.5 60.5h5zM706 258q-23 -2 -39 -46t-16 -102
q0 -48 24 -48q22 0 38.5 44.5t16.5 106.5q0 45 -23 45h-1zM473 667h65l-404 -667h-65z" />
    <glyph glyph-name="guilsinglleft" unicode="&#x2039;" horiz-adv-x="204" 
d="M148 108h-64l-55 146l92 151h69l-62 -151z" />
    <glyph glyph-name="guilsinglright" unicode="&#x203a;" horiz-adv-x="204" 
d="M58 405h64l56 -147l-93 -150h-68l61 150z" />
    <glyph glyph-name="fraction" unicode="&#x2044;" horiz-adv-x="85" 
d="M224 667h69l-404 -667h-69z" />
    <glyph glyph-name="Euro" unicode="&#x20ac;" 
d="M331 316l-21 -67h-95q-2 -52 -2 -59q0 -100 50 -100q25 0 40.5 23.5t27.5 78.5l119 -24q-34 -106 -81 -144t-123 -38q-85 0 -122.5 58.5t-37.5 176.5v28h-72l21 67h56q1 16 5 48h-66l21 67h58q16 69 41 121.5t69.5 89t102.5 36.5q74 0 120 -45t46 -122q0 -9 -0.5 -22
t-0.5 -14l-120 -8q1 11 1 35q0 72 -45 72q-28 0 -49 -36q-22 -35 -37 -107h129l-21 -67h-119l-6 -48h111z" />
    <glyph glyph-name="afii61289" unicode="&#x2113;" horiz-adv-x="429" 
d="M352 162l37 -46q-81 -127 -193 -127q-77 0 -106.5 45t-21.5 115q0 2 0.5 6t0.5 6q-10 -8 -50 -38l-17 62q65 50 82 66l41 246q19 115 73 175t120 60q57 0 78.5 -46t8.5 -121q-25 -149 -215 -326l-8 -50q-8 -53 7 -80.5t48 -27.5q54 0 115 81zM232 487l-23 -138
q116 124 132 223q12 74 -32 74q-50 0 -77 -159z" />
    <glyph glyph-name="trademark" unicode="&#x2122;" horiz-adv-x="817" 
d="M266 591v-324h-89v324h-71v76h233v-76h-73zM368 267v400h123l32 -169q10 -53 14 -114q7 68 19 122l37 161h119v-400h-85v227q0 9 2 51.5t3 69.5q-16 -107 -19 -117l-53 -231h-56l-50 234q-6 32 -17 114q-1 -30 0.5 -70t1.5 -41v-237h-71z" />
    <glyph glyph-name="Omega" unicode="&#x2126;" horiz-adv-x="574" 
d="M108 96v3q-78 115 -52 272q21 129 105.5 217.5t194.5 88.5q77 0 125.5 -47t63 -113t2.5 -138q-14 -84 -55 -158.5t-90 -121.5l-1 -3h111l-16 -96h-216l12 70q43 30 81 102.5t56 179.5q15 95 -7 160t-84 65q-61 0 -108 -64.5t-64 -165.5q-15 -107 -1.5 -178t45.5 -99
l-12 -70h-215l16 96h109z" />
    <glyph glyph-name="estimated" unicode="&#x212e;" horiz-adv-x="901" 
d="M868 322h-623q-5 0 -5 -4v-188q0 -13 9 -22q99 -102 235 -102q148 0 248 115h55q-53 -62 -133 -98t-171 -36q-159 0 -271.5 101t-112.5 244t112.5 244.5t271.5 101.5q160 0 272.5 -101.5t112.5 -244.5v-10zM727 347v189q0 14 -10 23q-100 98 -233 98q-135 0 -234 -101
q-10 -9 -10 -24v-185q0 -6 5 -6h477q5 0 5 6z" />
    <glyph glyph-name="partialdiff" unicode="&#x2202;" horiz-adv-x="486" 
d="M145 609l-15 91q73 52 162 52q97 0 148.5 -92t22.5 -268q-32 -189 -111.5 -295t-192.5 -106q-81 0 -116 67.5t-20 156.5q20 115 84.5 183.5t141.5 68.5q42 0 69 -21t35 -43h1q3 12 6 30q15 89 -12 155t-88 66q-60 0 -115 -45zM187 90h1q42 0 81 64t59 147q-3 26 -22 48.5
t-52 22.5q-41 0 -75.5 -49t-45.5 -114q-8 -52 6 -85.5t48 -33.5z" />
    <glyph glyph-name="Delta" unicode="&#x2206;" horiz-adv-x="548" 
d="M-22 0l11 69l289 612h132l78 -609l-12 -72h-498zM106 95h270l-40 269q-2 25 -9.5 89t-8.5 86h-2q-7 -19 -33.5 -76.5t-37.5 -85.5z" />
    <glyph glyph-name="product" unicode="&#x220f;" horiz-adv-x="675" 
d="M651 560h-81v-652h-113v652h-175v-652h-112v652h-82v107h563v-107z" />
    <glyph glyph-name="summation" unicode="&#x2211;" horiz-adv-x="530" 
d="M515 -92h-428v78l201 304l-195 294v83h409v-98h-262v-3l173 -254l-195 -291v-3h297v-110z" />
    <glyph glyph-name="minus" unicode="&#x2212;" 
d="M425 281h-363v105h363v-105z" />
    <glyph glyph-name="uni2215" unicode="&#x2215;" horiz-adv-x="85" 
d="M224 667h69l-404 -667h-69z" />
    <glyph glyph-name="uni2219" unicode="&#x2219;" horiz-adv-x="221" 
d="M46 259l25 149h132l-25 -149h-132z" />
    <glyph glyph-name="radical" unicode="&#x221a;" horiz-adv-x="573" 
d="M576 803l-187 -933h-90l-122 417l-64 -25l-17 67l149 60l81 -289q2 -14 8.5 -45t8.5 -43l1 -1q12 86 14 95l141 697h77z" />
    <glyph glyph-name="infinity" unicode="&#x221e;" horiz-adv-x="715" 
d="M673 276v-1q0 -70 -42.5 -113t-100.5 -43q-42 0 -79 22t-79 78q-40 -49 -77.5 -74.5t-87.5 -25.5q-57 0 -98.5 43t-41.5 109q0 68 42 111t106 43q84 0 159 -98q47 54 74 72q40 26 87 26q59 0 98.5 -41.5t39.5 -107.5zM215 182h2q23 0 46 14t37 29t37 43q-44 59 -66 75
q-27 20 -59 20q-37 0 -59 -26t-22 -67q0 -37 24.5 -62.5t59.5 -25.5zM529 363h-1q-13 0 -26.5 -5t-23 -10.5t-22 -17.5t-18 -18.5l-17.5 -20.5t-15 -17q42 -53 67.5 -72.5t58.5 -19.5q34 0 55.5 28t21.5 60q0 41 -22 67t-58 26z" />
    <glyph glyph-name="integral" unicode="&#x222b;" horiz-adv-x="423" 
d="M397 815l-12 -82q-14 7 -29 7q-26 0 -42 -24q-23 -30 -23 -161q0 -76 6 -223.5t6 -235.5q0 -133 -31 -193q-33 -68 -115 -68q-40 0 -66 15l14 85q24 -9 36 -9q24 0 36 19q22 35 22 148q0 89 -6.5 240.5t-6.5 232.5q0 155 52 215q38 44 105 44q32 0 54 -10z" />
    <glyph glyph-name="approxequal" unicode="&#x2248;" horiz-adv-x="490" 
d="M417 422l40 -35q-19 -42 -49.5 -68.5t-66.5 -26.5q-41 0 -94 35q-46 31 -73 31q-18 0 -33.5 -11.5t-22.5 -21t-21 -32.5l-40 35q19 42 51.5 68t71.5 26q37 0 90 -32l10.5 -7t10.5 -6.5t9 -5t9 -5l8 -4t8.5 -3t8.5 -1.5t9 -1q23 0 38.5 16t35.5 49zM417 255l40 -35
q-19 -42 -49.5 -68.5t-66.5 -26.5q-39 0 -94 35q-46 31 -73 31q-18 0 -33.5 -11.5t-22.5 -21t-21 -32.5l-40 35q19 42 51.5 68t71.5 26q37 0 90 -32q5 -3 15.5 -10t15.5 -9.5l13 -6.5t15 -5.5t14 -1.5q23 0 39 16t35 49z" />
    <glyph glyph-name="notequal" unicode="&#x2260;" horiz-adv-x="502" 
d="M381 476l-33 -78h113v-67h-136l-51 -121h187v-67h-210l-42 -98l-51 19l33 79h-114v67h138l50 121h-188v67h211l41 97z" />
    <glyph glyph-name="lessequal" unicode="&#x2264;" horiz-adv-x="515" 
d="M472 95l-376 202v73l375 203v-80l-312 -158v-2l313 -158v-80zM476 -8h-384v68h384v-68z" />
    <glyph glyph-name="greaterequal" unicode="&#x2265;" horiz-adv-x="515" 
d="M98 573l376 -203v-73l-376 -202v80l312 158v2l-312 158v80zM475 -8h-382v68h382v-68z" />
    <glyph glyph-name="lozenge" unicode="&#x25ca;" horiz-adv-x="571" 
d="M529 333l-166 -377h-93l-159 377l166 378h92zM429 331l-90 218q-12 37 -16 63h-3q-7 -33 -17 -63l-92 -213l91 -223q10 -35 14 -60h5q8 41 15 58z" />
    </font>
</defs>
</svg>
