<?xml version="1.0" standalone="no"?>
<!DOCTYPE svg PUBLIC "-//W3C//DTD SVG 1.1//EN" "http://www.w3.org/Graphics/SVG/1.1/DTD/svg11.dtd" >
<svg>
<metadata>
Created by FontForge 20090622 at Tue Jul  2 17:27:25 2019
 By deploy user
Copyright &#194;&#169; 1995, 2002 Adobe Systems Incorporated. All Rights Reserved.
</metadata>
<defs>
<font id="ITCFranklinGothicStd-MdCd" horiz-adv-x="511" >
  <font-face 
    font-family="ITC Franklin Gothic Std MedCd"
    font-weight="500"
    font-stretch="condensed"
    units-per-em="1000"
    panose-1="2 11 7 6 3 5 3 2 2 4"
    ascent="686"
    descent="-314"
    x-height="493"
    cap-height="667"
    bbox="-156 -250 945 898"
    underline-thickness="50"
    underline-position="-50"
    unicode-range="U+0020-U+FB02"
  />
<missing-glyph horiz-adv-x="500" 
d="M0 0v700h500v-700h-500zM250 395l170 255h-340zM280 350l170 -255v510zM80 50h340l-170 255zM50 605v-510l170 255z" />
    <glyph glyph-name="f_i" unicode="fi" horiz-adv-x="477" 
d="M174 493h86v-82h-86v-411h-99v411h-65v82h65q1 38 2 56.5t9 50t22 46.5t42 27.5t69 12.5q19 0 47 -4v-82q-14 2 -25 2q-43 0 -55 -19.5t-12 -61.5v-28zM315 493h102v-493h-102v493zM419 560h-106v108h106v-108z" />
    <glyph glyph-name="f_l" unicode="fl" horiz-adv-x="477" 
d="M174 493h86v-82h-86v-411h-99v411h-65v82h65q1 38 2 56.5t9 50t22 46.5t42 27.5t69 12.5q19 0 47 -4v-82q-14 2 -25 2q-43 0 -55 -19.5t-12 -61.5v-28zM315 667h102v-667h-102v667z" />
    <glyph glyph-name=".notdef" horiz-adv-x="500" 
d="M0 0v700h500v-700h-500zM250 395l170 255h-340zM280 350l170 -255v510zM80 50h340l-170 255zM50 605v-510l170 255z" />
    <glyph glyph-name=".null" horiz-adv-x="0" 
 />
    <glyph glyph-name="nonmarkingreturn" horiz-adv-x="333" 
 />
    <glyph glyph-name="space" unicode=" " horiz-adv-x="250" 
 />
    <glyph glyph-name="exclam" unicode="!" horiz-adv-x="341" 
d="M103 667h135l-34 -487h-67zM115 123h111v-123h-111v123z" />
    <glyph glyph-name="quotedbl" unicode="&#x22;" horiz-adv-x="375" 
d="M163 667l-16 -274h-71l-16 274h103zM316 667l-16 -274h-71l-16 274h103z" />
    <glyph glyph-name="numbersign" unicode="#" 
d="M183 667h72l-33 -194h111l32 194h72l-32 -194h96l-11 -68h-96l-22 -129h96l-11 -68h-96l-35 -208h-72l35 208h-111l-35 -208h-72l35 208h-96l11 68h96l22 129h-96l11 68h96zM322 405h-111l-22 -129h111z" />
    <glyph glyph-name="dollar" unicode="$" 
d="M289 720v-66q72 -9 108 -41t55 -93l-79 -33q-15 42 -34.5 62t-52.5 27v-184q29 -8 46.5 -14t46 -21.5t45 -33.5t29.5 -48.5t13 -68.5q0 -94 -68 -148q-39 -30 -109 -39v-85h-61v85q-85 11 -124 51.5t-58 109.5l87 29q12 -45 33 -71t65 -37v199q-26 8 -45 16t-50 28
t-48.5 54.5t-17.5 79.5t19 83.5t51 60.5q38 25 88 32v66h61zM231 409v165q-67 -18 -67 -83q0 -62 67 -82zM286 284v-183q85 13 85 91q0 25 -8.5 42.5t-24.5 27.5t-26.5 14t-25.5 8z" />
    <glyph glyph-name="percent" unicode="%" horiz-adv-x="681" 
d="M174 673q60 0 95.5 -45.5t35.5 -126.5q0 -86 -36.5 -129.5t-94.5 -43.5q-59 0 -95.5 44.5t-36.5 128.5q0 82 36 127t96 45zM174 612q-25 0 -39.5 -22.5t-14.5 -88.5q0 -65 14.5 -88.5t39.5 -23.5q53 0 53 112q0 111 -53 111zM508 339q59 0 95 -45t36 -128q0 -82 -36 -127
t-95 -45q-60 0 -95.5 45t-35.5 127q0 85 36 129t95 44zM508 278q-26 0 -40 -24.5t-14 -88.5q0 -46 9 -73q13 -37 45 -37q26 0 39.5 24.5t13.5 86.5q0 112 -53 112zM471 667h66l-325 -667h-66z" />
    <glyph glyph-name="ampersand" unicode="&#x26;" horiz-adv-x="630" 
d="M504 372l82 -18q-24 -131 -89 -227q36 -45 70 -45q9 0 31 4v-86q-36 -9 -55 -9q-27 0 -50.5 11.5t-34.5 22.5t-28 32q-22 -19 -38.5 -31t-53.5 -25t-78 -13q-99 0 -150 59t-51 137q0 129 145 197q-58 93 -58 154q0 55 42.5 99.5t114.5 44.5q75 0 112.5 -43.5t37.5 -101.5
q0 -104 -122 -173l114 -164q38 60 59 175zM243 537q0 -48 45 -116q77 46 77 114q0 31 -16.5 50t-43.5 19q-26 0 -44 -18t-18 -49zM383 121l-136 198q-21 -13 -35 -24.5t-30.5 -40.5t-16.5 -65q0 -51 29.5 -84.5t79.5 -33.5q28 0 51.5 9.5t33 17.5t24.5 23z" />
    <glyph glyph-name="quotesingle" unicode="'" horiz-adv-x="221" 
d="M162 667l-16 -274h-71l-16 274h103z" />
    <glyph glyph-name="parenleft" unicode="(" horiz-adv-x="324" 
d="M188 667h81q-114 -189 -114 -417q0 -229 114 -417h-81q-135 193 -135 417q0 226 135 417z" />
    <glyph glyph-name="parenright" unicode=")" horiz-adv-x="324" 
d="M136 -167h-81q114 189 114 417t-114 417h81q55 -79 83 -150q52 -129 52 -267q0 -222 -135 -417z" />
    <glyph glyph-name="asterisk" unicode="*" 
d="M219 667h73l-11 -132l110 73l34 -67l-115 -51l115 -52l-34 -66l-110 73l11 -132h-73l11 132l-110 -73l-34 66l115 52l-115 51l34 67l110 -73z" />
    <glyph glyph-name="plus" unicode="+" 
d="M298 374h162v-81h-162v-164h-85v164h-162v81h162v164h85v-164z" />
    <glyph glyph-name="comma" unicode="," horiz-adv-x="239" 
d="M69 126h111v-120l-72 -147h-49l61 141h-51v126z" />
    <glyph glyph-name="hyphen" unicode="-" horiz-adv-x="290" 
d="M39 291h211v-82h-211v82z" />
    <glyph glyph-name="period" unicode="." horiz-adv-x="239" 
d="M64 126h111v-126h-111v126z" />
    <glyph glyph-name="slash" unicode="/" horiz-adv-x="477" 
d="M353 667h76l-368 -834h-76z" />
    <glyph glyph-name="zero" unicode="0" 
d="M255 679q51 0 90 -19.5t63 -51t39 -77t20.5 -91t5.5 -98.5q0 -57 -4.5 -103.5t-19 -94.5t-37.5 -81t-63.5 -54t-93.5 -21q-217 0 -217 337q0 57 5 104t19 95t37.5 81t63 53.5t92.5 20.5zM255 597q-32 0 -53 -20.5t-31.5 -59.5t-14.5 -82t-4 -102q0 -61 4 -104.5t15 -81.5
t32 -57.5t52 -19.5q30 0 51 18.5t32.5 54.5t16 81.5t4.5 108.5q0 61 -4.5 105t-15 82t-32 57.5t-52.5 19.5z" />
    <glyph glyph-name="one" unicode="1" 
d="M438 82v-82h-331v82h115v457q-45 -54 -118 -95v103q87 50 145 127h81v-592h108z" />
    <glyph glyph-name="two" unicode="2" 
d="M132 453l-100 21q5 24 9.5 41.5t20.5 51.5t37 55.5t60 39t88 17.5q99 0 149.5 -57.5t50.5 -138.5q0 -83 -60.5 -169.5t-236.5 -216.5h301l-5 -97h-414v96q183 155 255 254q46 62 46 126q0 44 -22.5 78t-71.5 34q-90 0 -107 -135z" />
    <glyph glyph-name="three" unicode="3" 
d="M131 495l-93 22q46 162 208 162q86 0 139.5 -46t53.5 -133q0 -36 -10 -63t-29 -44t-32 -25t-33 -17q61 -19 91 -59q31 -42 31 -105q0 -96 -61.5 -147.5t-156.5 -51.5q-111 0 -170 67q-35 38 -49 111l95 23q24 -114 119 -114q44 0 75.5 28.5t31.5 88.5q0 32 -10.5 54.5
t-24.5 33.5t-35.5 17t-34 7t-30.5 1h-42v82h42q62 0 87 19q35 26 35 84q0 45 -23 74.5t-69 29.5q-27 0 -47.5 -10t-32 -28.5t-16.5 -31t-9 -29.5z" />
    <glyph glyph-name="four" unicode="4" 
d="M271 679h126v-436h83v-84h-83v-159h-107v159h-260v81zM118 240h177v341z" />
    <glyph glyph-name="five" unicode="5" 
d="M89 667h346l-10 -97h-253l-10 -185q14 18 25 28.5t38 22t61 11.5q79 0 131 -56t52 -166q0 -119 -63 -178t-156 -59q-95 0 -152 57q-42 41 -57 114l99 24q6 -22 10.5 -34t16.5 -31.5t33.5 -29t51.5 -9.5q53 0 80 35q30 38 30 107q0 57 -24.5 96t-82.5 39q-25 0 -44 -7
t-31 -20.5t-17.5 -22.5t-11.5 -23l-83 18z" />
    <glyph glyph-name="six" unicode="6" 
d="M474 517l-91 -29q-5 20 -9.5 32t-15.5 32t-30.5 30.5t-46.5 10.5q-31 0 -53.5 -16t-35.5 -40t-21 -61.5t-11 -69.5t-4 -75q8 18 16 30t24.5 30.5t42.5 28.5t59 10q73 0 127.5 -57t54.5 -161q0 -103 -56.5 -163.5t-148.5 -60.5q-42 0 -77 14.5t-55.5 33.5t-36.5 45
t-21.5 40.5t-9.5 28.5q-21 79 -21 168q0 249 122 330q47 31 107 31q151 0 191 -162zM276 344q-58 0 -83 -42.5t-25 -92.5q0 -56 27 -96t79 -40q99 0 99 137q0 12 -0.5 22.5t-6 33t-14.5 38t-29 28t-47 12.5z" />
    <glyph glyph-name="seven" unicode="7" 
d="M56 570l8 97h385v-78q-27 -36 -45.5 -64.5t-48.5 -96t-52 -148.5q-36 -130 -36 -280h-117q1 306 200 570h-294z" />
    <glyph glyph-name="eight" unicode="8" 
d="M353 360q124 -62 124 -177q0 -79 -57 -137t-170 -58q-103 0 -160 49q-56 49 -56 133q0 38 12 68t34.5 50t38 30t38.5 21q-20 12 -32.5 22t-31 29t-28 46t-9.5 60q0 32 10.5 62.5t33 58.5t64.5 45t97 17q113 0 165 -70q31 -44 31 -100q0 -33 -10.5 -59.5t-30 -44.5
t-32 -26.5t-31.5 -18.5zM270 395q28 15 43.5 25.5t31.5 34t16 52.5q0 39 -26.5 67t-73.5 28q-43 0 -71 -25t-28 -66q0 -45 29.5 -71t78.5 -45zM236 298q-21 -10 -33.5 -17t-31.5 -22t-28.5 -36t-9.5 -47q0 -53 35 -81t86 -28q48 0 82.5 26t34.5 73q0 27 -10.5 48t-33.5 37
t-41 25t-50 22z" />
    <glyph glyph-name="nine" unicode="9" 
d="M44 134l95 28q5 -18 9.5 -29.5t14.5 -27.5t27.5 -24t42.5 -8q30 0 52 16.5t34 40.5t19.5 61t10 65.5t3.5 67.5q-10 -18 -17.5 -28.5t-24 -26.5t-40 -24.5t-54.5 -8.5q-80 0 -132 62.5t-52 156.5t55 159t155 65q214 0 214 -321q0 -370 -230 -370q-38 0 -68.5 11t-48 24.5
t-32 37t-20 37t-13.5 36.5zM241 593q-43 0 -72.5 -34t-29.5 -101q0 -58 26 -94.5t75 -36.5q54 0 78.5 41.5t24.5 91.5q0 52 -25.5 92.5t-76.5 40.5z" />
    <glyph glyph-name="colon" unicode=":" horiz-adv-x="239" 
d="M64 126h111v-126h-111v126zM64 493h111v-126h-111v126z" />
    <glyph glyph-name="semicolon" unicode=";" horiz-adv-x="239" 
d="M69 126h111v-120l-72 -147h-49l61 141h-51v126zM69 493h111v-126h-111v126z" />
    <glyph glyph-name="less" unicode="&#x3c;" 
d="M472 588v-100l-325 -155l325 -154v-101l-433 212v87z" />
    <glyph glyph-name="equal" unicode="=" 
d="M460 361h-409v81h409v-81zM460 224h-409v81h409v-81z" />
    <glyph glyph-name="greater" unicode="&#x3e;" 
d="M39 78v101l325 155l-325 154v100l433 -212v-86z" />
    <glyph glyph-name="question" unicode="?" horiz-adv-x="494" 
d="M133 454l-95 18q9 89 47 139q52 68 155 68q91 0 141 -51t50 -131q0 -44 -16.5 -81t-34 -55t-49.5 -45q-46 -38 -55.5 -60t-7.5 -78h-92q2 96 12.5 122.5t71.5 78.5q60 53 60 120q0 46 -23.5 69.5t-62.5 23.5q-91 0 -101 -138zM167 120h109v-120h-109v120z" />
    <glyph glyph-name="at" unicode="@" horiz-adv-x="596" 
d="M389 507h58l-29 -207q-6 -42 -6 -66q0 -20 6 -27t19 -7q35 0 59.5 49t24.5 127q0 125 -58 187t-147 62q-109 0 -172.5 -86t-63.5 -210t65 -205t183 -81q92 0 177 52l23 -53q-104 -58 -203 -58q-143 0 -230.5 92.5t-87.5 249.5q0 153 83.5 255.5t227.5 102.5
q129 0 200 -83.5t71 -216.5q0 -111 -47 -179.5t-115 -68.5q-20 0 -33.5 4.5t-21 14.5t-10.5 17t-7 21q-9 -16 -15.5 -25.5t-26 -21.5t-45.5 -12q-48 0 -78 43t-30 118q0 90 39 154.5t103 64.5q55 0 79 -61zM306 441q-34 0 -51.5 -44.5t-17.5 -99.5q0 -42 12.5 -66t33.5 -24
q23 0 39 21t21.5 52.5t7 48t1.5 27.5q0 85 -46 85z" />
    <glyph glyph-name="A" unicode="A" horiz-adv-x="494" 
d="M189 667h124l178 -667h-112l-42 167h-194l-41 -167h-106zM164 254h151l-75 306z" />
    <glyph glyph-name="B" unicode="B" horiz-adv-x="545" 
d="M64 667h201q43 0 66 -1.5t55 -14t51 -36.5q38 -48 38 -118q0 -37 -10 -65t-28.5 -44t-30.5 -23t-30 -14q48 -16 74 -40q46 -50 46 -125q0 -48 -19.5 -90.5t-56.5 -63.5q-36 -21 -68.5 -26.5t-83.5 -5.5h-204v667zM172 582v-192h70q18 0 31 1t31.5 6.5t29.5 15t19.5 29
t8.5 46.5q0 33 -11.5 54t-32 28.5t-33.5 9.5t-33 2h-80zM172 305v-217h89q122 0 122 108q0 109 -131 109h-80z" />
    <glyph glyph-name="C" unicode="C" horiz-adv-x="528" 
d="M399 224l102 -14q-33 -222 -218 -222q-62 0 -108 26t-70.5 62.5t-39.5 87t-19 89t-4 78.5t3.5 77.5t18.5 89.5t39.5 89.5t71.5 64.5t110 27q44 0 79.5 -12t58 -35t37.5 -44.5t24 -53t12 -46t6 -37.5l-103 -14q-4 30 -8 49t-15.5 46t-34 41.5t-54.5 14.5q-128 0 -128 -260
q0 -249 128 -249q49 0 74 34.5t38 110.5z" />
    <glyph glyph-name="D" unicode="D" horiz-adv-x="562" 
d="M65 667h150q154 0 227 -82q78 -91 78 -246q0 -103 -34.5 -179.5t-91.5 -116.5q-61 -43 -171 -43h-158v667zM221 579h-46v-491h46q78 0 116 40q66 63 66 205q0 246 -182 246z" />
    <glyph glyph-name="E" unicode="E" horiz-adv-x="460" 
d="M64 667h381v-88h-271v-192h213v-88h-213v-209h276v-90h-386v667z" />
    <glyph glyph-name="F" unicode="F" horiz-adv-x="426" 
d="M64 667h370v-88h-260v-200h208v-88h-208v-291h-110v667z" />
    <glyph glyph-name="G" unicode="G" horiz-adv-x="562" 
d="M291 342h222v-347h-59l-14 85q-14 -23 -26.5 -39t-49 -34.5t-84.5 -18.5q-67 0 -116 31.5t-74.5 84.5t-36.5 107.5t-11 112.5q0 35 3.5 69t12 77t26.5 78t44 65.5t68.5 48t95.5 17.5q55 0 95.5 -16.5t64.5 -47.5t37 -63t21 -76l-100 -25q-7 32 -12.5 49t-18.5 41
t-34 35.5t-52 11.5q-134 0 -134 -254q0 -255 136 -255q115 0 115 175h-119v88z" />
    <glyph glyph-name="H" unicode="H" horiz-adv-x="545" 
d="M64 667h110v-277h197v277h110v-667h-110v297h-197v-297h-110v667z" />
    <glyph glyph-name="I" unicode="I" horiz-adv-x="239" 
d="M64 667h110v-667h-110v667z" />
    <glyph glyph-name="J" unicode="J" horiz-adv-x="307" 
d="M135 667h110v-415q0 -38 -0.5 -57.5t-3.5 -52.5t-9.5 -51t-19 -40.5t-31 -34t-46.5 -20t-65 -8.5q-32 0 -86 12v91q36 -9 65 -9q25 0 41 7t25.5 17.5t13.5 35t5 46t1 64.5v415z" />
    <glyph glyph-name="K" unicode="K" 
d="M64 667h110v-318l201 318h117l-172 -245l201 -422h-119l-149 330l-79 -111v-219h-110v667z" />
    <glyph glyph-name="L" unicode="L" horiz-adv-x="409" 
d="M64 667h110v-574h236v-93h-346v667z" />
    <glyph glyph-name="M" unicode="M" horiz-adv-x="715" 
d="M62 667h163l133 -481l136 481h157v-667h-104v569l-158 -569h-80l-155 570v-570h-92v667z" />
    <glyph glyph-name="N" unicode="N" horiz-adv-x="562" 
d="M60 667h130l220 -481v481h92v-667h-103l-247 534v-534h-92v667z" />
    <glyph glyph-name="O" unicode="O" horiz-adv-x="562" 
d="M282 679q71 0 120.5 -31t74 -85t34.5 -109t10 -121q0 -47 -4.5 -89t-20 -91t-40 -83.5t-69.5 -58t-104 -23.5q-58 0 -102 21.5t-69.5 55t-42 80.5t-22 92t-5.5 96q0 65 10 120t34.5 109t74.5 85.5t121 31.5zM282 588q-67 0 -97 -68q-27 -62 -27 -187q0 -122 27 -186
q15 -34 37.5 -51t60.5 -17q65 0 95 68q27 64 27 186q0 124 -27 187q-31 68 -96 68z" />
    <glyph glyph-name="P" unicode="P" horiz-adv-x="494" 
d="M64 667h165q68 0 113.5 -10.5t77.5 -44.5q54 -57 54 -149q0 -45 -17 -92.5t-59 -75.5q-50 -35 -167 -35h-57v-260h-110v667zM229 582h-55v-234h55q21 0 33.5 1t33 7t32.5 17.5t21 35t9 56.5q0 49 -23 82q-17 24 -39.5 29.5t-66.5 5.5z" />
    <glyph glyph-name="Q" unicode="Q" horiz-adv-x="562" 
d="M484 -58v-84q-31 -12 -65 -12q-87 0 -119 60q-16 28 -18 83q-240 0 -240 344q0 66 10.5 121.5t35 109t74 84.5t120.5 31q61 0 106 -24.5t69.5 -60t39.5 -85.5t19 -90.5t4 -85.5q0 -80 -18 -158q-10 -42 -25.5 -73t-37 -50t-35.5 -27.5t-36 -19.5q0 -37 12.5 -54.5
t52.5 -17.5q28 0 51 9zM281 79q23 0 40.5 7.5t38.5 30.5t32.5 78t11.5 138q0 124 -27 186q-14 32 -35.5 50.5t-60.5 18.5q-67 0 -96 -68q-27 -62 -27 -187q0 -136 30.5 -195t92.5 -59z" />
    <glyph glyph-name="R" unicode="R" horiz-adv-x="528" 
d="M64 667h201q95 0 143 -34q70 -51 70 -156q0 -122 -103 -175l127 -302h-119l-105 279h-104v-279h-110v667zM260 582h-86v-218h85q57 0 83.5 30.5t26.5 83.5q0 104 -109 104z" />
    <glyph glyph-name="S" unicode="S" 
d="M461 518l-94 -33q-17 52 -43.5 77.5t-74.5 25.5q-47 0 -69 -27t-22 -57q0 -22 8 -37.5t30.5 -29.5t39 -21.5t55.5 -22.5q32 -12 50 -20t48 -26t46.5 -37t29.5 -50.5t13 -69.5q0 -81 -57.5 -141.5t-166.5 -60.5q-53 0 -95 16t-64 35.5t-39.5 50.5t-22.5 46.5t-10 37.5
l98 28l6.5 -25t13 -30.5t23.5 -33.5t37.5 -23.5t55.5 -10.5q60 0 84 31t24 65q0 43 -29 65.5t-85 43.5q-63 24 -89.5 36.5t-51.5 34.5q-60 52 -60 136q0 76 53 132t152 56q45 0 80.5 -13t55.5 -29.5t36.5 -43t22 -40.5t11.5 -35z" />
    <glyph glyph-name="T" unicode="T" horiz-adv-x="375" 
d="M-16 667h406v-94h-149v-573h-110v573h-147v94z" />
    <glyph glyph-name="U" unicode="U" horiz-adv-x="545" 
d="M59 667h108v-414q0 -35 1 -53t6.5 -45.5t16.5 -41t33 -24t54 -10.5t53.5 10t32 23t16 40.5t6.5 46t1 56.5v412h99v-407q0 -61 -3 -94.5t-18.5 -73t-47.5 -63.5q-56 -41 -145 -41q-44 0 -78 9t-56 22t-38 36.5t-23.5 43t-12 51t-5 51t-0.5 52.5v414z" />
    <glyph glyph-name="V" unicode="V" horiz-adv-x="460" 
d="M-4 667h116l127 -532l127 532h97l-175 -669l-120 2z" />
    <glyph glyph-name="W" unicode="W" horiz-adv-x="698" 
d="M2 667h113l90 -500l104 500h96l103 -500l95 500h93l-140 -669h-100l-105 490l-104 -490h-101z" />
    <glyph glyph-name="X" unicode="X" horiz-adv-x="443" 
d="M8 667h123l95 -213l107 213h103l-155 -303l175 -364h-123l-114 255l-128 -255h-105l179 345z" />
    <glyph glyph-name="Y" unicode="Y" horiz-adv-x="409" 
d="M-31 667h120l122 -278l124 278h106l-185 -385v-282h-110v282z" />
    <glyph glyph-name="Z" unicode="Z" horiz-adv-x="426" 
d="M19 667h400v-77l-296 -497h303v-93h-425v85l292 492h-274v90z" />
    <glyph glyph-name="bracketleft" unicode="[" horiz-adv-x="324" 
d="M79 667h173v-56h-78v-722h78v-56h-173v834z" />
    <glyph glyph-name="backslash" unicode="\" horiz-adv-x="477" 
d="M124 667l368 -834h-76l-368 834h76z" />
    <glyph glyph-name="bracketright" unicode="]" horiz-adv-x="324" 
d="M245 -167h-173v56h78v722h-78v56h173v-834z" />
    <glyph glyph-name="asciicircum" unicode="^" 
d="M496 316h-96l-145 278l-144 -278h-96l189 358h103z" />
    <glyph glyph-name="underscore" unicode="_" horiz-adv-x="500" 
d="M0 -125v50h500v-50h-500z" />
    <glyph glyph-name="grave" unicode="`" horiz-adv-x="500" 
d="M325 590l-37 -38l-172 108l53 67z" />
    <glyph glyph-name="a" unicode="a" horiz-adv-x="460" 
d="M151 353l-98 13q8 44 31 74.5t54.5 43t54.5 17t46 4.5q91 0 136 -53q14 -16 21.5 -44t8.5 -48t1 -56v-167q0 -103 8 -137h-95q-7 34 -7 82q-10 -19 -18 -30.5t-24.5 -28.5t-41 -26t-55.5 -9q-62 0 -100 37.5t-38 104.5q0 58 28 98t74 56q68 23 167 20v20q0 20 -1.5 33
t-7.5 32.5t-22 30t-42 10.5q-65 0 -80 -77zM304 216v25q-16 1 -30 1q-79 0 -106 -30t-27 -75q0 -74 66 -74q37 0 67 39t30 114z" />
    <glyph glyph-name="b" unicode="b" horiz-adv-x="477" 
d="M59 667h101v-230q13 18 23 29t35.5 23.5t56.5 12.5q49 0 83.5 -24t51.5 -64t24.5 -79.5t7.5 -82.5q0 -39 -4.5 -77.5t-28.5 -90.5t-65 -74q-37 -20 -84 -20q-29 0 -51 6.5t-35.5 20t-20 23.5t-14.5 27q-12 -28 -22 -67h-58v667zM160 301v-92q0 -142 87 -142q48 0 67.5 45
t19.5 142q0 85 -18 129t-67 44q-34 0 -57 -27q-32 -38 -32 -99z" />
    <glyph glyph-name="c" unicode="c" horiz-adv-x="409" 
d="M401 327l-98 -10q-6 53 -20.5 80t-53.5 27q-50 0 -68.5 -46t-18.5 -142q0 -164 87 -164q22 0 37 10t22.5 29t10 32.5t4.5 35.5l98 -9q-3 -26 -6.5 -43t-15.5 -46.5t-29.5 -47t-51 -31.5t-77.5 -14q-57 0 -96 24.5t-57.5 66t-25.5 81t-7 85.5q0 38 4.5 71.5t17.5 69.5
t33.5 61t56 41.5t81.5 16.5q42 0 74 -14t48.5 -32.5t28.5 -47t15.5 -45t6.5 -39.5z" />
    <glyph glyph-name="d" unicode="d" horiz-adv-x="477" 
d="M317 667h101v-667h-94v75q-7 -16 -13.5 -26t-20.5 -26t-37 -24t-53 -8q-40 0 -70.5 17.5t-48 44t-28.5 62t-14.5 66.5t-3.5 63q0 123 46.5 190.5t122.5 67.5q35 0 61 -13.5t34.5 -24.5t17.5 -28v231zM317 205v85q0 64 -21 96q-28 41 -68 41q-85 0 -85 -174q0 -37 3 -65
t11 -58t26.5 -46t45.5 -16q42 0 67 39q21 32 21 98z" />
    <glyph glyph-name="e" unicode="e" horiz-adv-x="443" 
d="M418 231h-278q0 -20 0.5 -32t3 -35t8.5 -37.5t16 -30t27 -23.5t40 -8t39.5 8.5t26 25.5t13.5 28t8 30l92 -13l-8.5 -31.5t-17.5 -38.5t-32 -42.5t-50.5 -30t-73.5 -13.5q-102 0 -149 71.5t-47 179.5q0 131 55 198.5t142 67.5q55 0 93 -25.5t56 -60.5q16 -31 24 -67
t9.5 -58.5t2.5 -62.5zM142 300h173q0 41 -9 70q-11 33 -33 46.5t-43 13.5q-78 0 -88 -130z" />
    <glyph glyph-name="f" unicode="f" horiz-adv-x="256" 
d="M174 493h89v-82h-89v-411h-99v411h-65v82h65q1 24 1.5 35t2 33t5.5 33.5t10.5 28.5t17 26t25 19t35 14t46.5 4q28 0 60 -6v-81q-18 4 -38 4q-45 0 -55.5 -22.5t-10.5 -87.5z" />
    <glyph glyph-name="g" unicode="g" horiz-adv-x="443" 
d="M444 572l-1 -75q-13 3 -23 3q-23 0 -35.5 -12t-18.5 -42q38 -47 38 -106q0 -64 -44.5 -111t-126.5 -47q-32 0 -63 9q-9 -4 -12.5 -6t-11 -7.5t-10.5 -13t-3 -17.5q0 -26 21.5 -32.5t103.5 -10.5q33 -2 48.5 -3.5t43 -6.5t41.5 -13.5t30 -22t22.5 -35.5t6.5 -52
q0 -46 -21.5 -78.5t-57.5 -47.5t-70.5 -21t-74.5 -6q-33 0 -62 4t-63 16t-54 38.5t-20 65.5q0 69 72 95q-16 10 -24 16t-19 24.5t-11 41.5q0 61 73 98q-18 13 -28.5 23t-23 38t-12.5 65q0 73 48.5 117.5t124.5 44.5q45 0 94 -21q4 20 7 31t12.5 27.5t27 24.5t44.5 8
q2 0 32 -3zM232 438q-73 0 -73 -97q0 -95 70 -95q24 0 40 12t21.5 32t7 30.5t1.5 20.5q0 13 -2 25.5t-7.5 31t-20.5 29.5t-37 11zM162 21q-43 -21 -43 -63q0 -38 29.5 -53.5t89.5 -15.5q117 0 117 68q0 52 -59 57q-11 1 -134 7z" />
    <glyph glyph-name="h" unicode="h" horiz-adv-x="460" 
d="M60 667h102v-240q11 22 20 35.5t35 28t62 14.5q76 0 107 -59q17 -33 17 -135v-311h-102v311q0 28 -1 42.5t-6.5 33.5t-18.5 27.5t-35 8.5q-78 0 -78 -141v-282h-102v667z" />
    <glyph glyph-name="i" unicode="i" horiz-adv-x="222" 
d="M60 493h102v-493h-102v493zM164 560h-107v108h107v-108z" />
    <glyph glyph-name="j" unicode="j" horiz-adv-x="222" 
d="M62 493h102v-475q0 -39 -1 -59t-7.5 -51t-19 -46t-37.5 -27t-62 -12q-20 0 -62 7v85q17 -5 36 -5q36 0 43.5 20.5t7.5 89.5v473zM166 560h-106v108h106v-108z" />
    <glyph glyph-name="k" unicode="k" horiz-adv-x="426" 
d="M60 667h102v-394l159 220h101l-128 -170l142 -323h-110l-98 247l-66 -90v-157h-102v667z" />
    <glyph glyph-name="l" unicode="l" horiz-adv-x="222" 
d="M60 667h102v-667h-102v667z" />
    <glyph glyph-name="m" unicode="m" horiz-adv-x="698" 
d="M60 0v493h94v-75q9 19 15.5 29.5t20.5 26.5t35.5 23.5t50.5 7.5q32 0 54.5 -9t34 -26.5t15.5 -28t9 -28.5q7 17 13 27.5t20.5 28t38 27t53.5 9.5q75 0 107 -52q21 -34 21 -141v-312h-102v304q0 26 -0.5 38.5t-3.5 31t-9 27t-18 15.5t-29 7q-78 0 -78 -134v-289h-102v300
q0 56 -1.5 70.5t-8.5 26.5q-14 26 -49 26q-23 0 -38.5 -10t-23.5 -22.5t-12 -34.5t-4.5 -34.5t-0.5 -34.5v-287h-102z" />
    <glyph glyph-name="n" unicode="n" horiz-adv-x="460" 
d="M60 0v493h94v-76q7 17 13 26.5t20 26.5t36.5 26t52.5 9q79 0 110 -61q17 -33 17 -126v-318h-102v312q0 25 -0.5 37t-3.5 29t-9 25t-17.5 14t-28.5 6q-28 0 -46 -14.5t-24.5 -41.5t-8 -45t-1.5 -46v-276h-102z" />
    <glyph glyph-name="o" unicode="o" horiz-adv-x="460" 
d="M231 505q55 0 94.5 -22t60 -60t29.5 -80t9 -91q0 -264 -195 -264q-55 0 -94.5 22t-60 60.5t-29.5 81.5t-9 95q0 258 195 258zM230 428q-46 0 -66 -45t-20 -137q0 -95 21 -138t65 -43t65 42.5t21 139.5q0 94 -21 137.5t-65 43.5z" />
    <glyph glyph-name="p" unicode="p" horiz-adv-x="477" 
d="M59 493h94v-81q8 18 15 28.5t21.5 27.5t36 25.5t49.5 8.5q76 0 121.5 -66t45.5 -182q0 -151 -68 -222q-39 -41 -103 -41q-31 0 -55 11t-33.5 21t-22.5 28v-218h-101v660zM160 288v-82q0 -70 19 -100q25 -38 68 -38q87 0 87 183q0 176 -86 176q-37 0 -61 -34
q-27 -39 -27 -105z" />
    <glyph glyph-name="q" unicode="q" horiz-adv-x="477" 
d="M363 497h55q-2 -43 -2 -115v-549h-102v230q-13 -20 -22 -31.5t-35 -26t-59 -14.5q-75 0 -119 66t-44 181q0 186 97 243q36 21 78 21q27 0 49 -8t36 -23t21 -25t15 -26q18 36 32 77zM314 226v64q0 70 -26.5 103.5t-59.5 33.5q-48 0 -66.5 -46.5t-18.5 -132.5
q0 -180 84 -180q32 0 59.5 36t27.5 122z" />
    <glyph glyph-name="r" unicode="r" horiz-adv-x="273" 
d="M60 493h90v-110q40 121 123 121q8 0 18 -2v-106q-38 4 -64.5 -7t-40 -33.5t-19 -48t-5.5 -56.5v-251h-102v493z" />
    <glyph glyph-name="s" unicode="s" horiz-adv-x="392" 
d="M357 378l-80 -22q-24 74 -83 74q-30 0 -47 -18t-17 -43q0 -22 12.5 -36t29 -21t57.5 -20q31 -10 49.5 -18t44.5 -25t39 -43.5t13 -61.5q0 -63 -47 -109.5t-134 -46.5q-43 0 -76 12t-50.5 27t-29.5 39t-15.5 35.5t-6.5 29.5l87 17q15 -85 95 -85q44 0 60.5 21.5t16.5 43.5
q0 17 -7 29.5t-22 21.5t-26 13t-32 11q-36 12 -54.5 19.5t-46.5 25t-41 43.5t-13 62q0 62 44.5 107t119.5 45q125 0 160 -127z" />
    <glyph glyph-name="t" unicode="t" horiz-adv-x="273" 
d="M257 493v-82h-94v-218q0 -32 0.5 -46t3.5 -32t10.5 -24.5t20.5 -11.5t33 -5q6 0 42 3v-80q-45 -9 -76 -9q-28 0 -49.5 6t-35.5 14t-24 24.5t-14.5 29.5t-7 38t-3 40.5t-0.5 45.5v225h-64v82h67l5 129l92 8v-137h94z" />
    <glyph glyph-name="u" unicode="u" horiz-adv-x="460" 
d="M57 493h102v-313q0 -26 0.5 -38.5t3 -29.5t8.5 -24t17 -12.5t28 -5.5q24 0 40 11.5t24.5 26.5t12.5 44.5t4.5 48t0.5 55.5v237h102v-493h-94v74q-13 -26 -22.5 -40t-37 -30t-65.5 -16q-30 0 -52 7.5t-35 24t-21 32t-11.5 41.5t-4 41.5t-0.5 43.5v315z" />
    <glyph glyph-name="v" unicode="v" horiz-adv-x="358" 
d="M-5 493h99l93 -354l90 354h88l-139 -493h-90z" />
    <glyph glyph-name="w" unicode="w" horiz-adv-x="562" 
d="M-1 493h101l72 -339l71 339h90l70 -341l78 341h83l-123 -493h-86l-75 342l-71 -342h-86z" />
    <glyph glyph-name="x" unicode="x" horiz-adv-x="358" 
d="M-1 493h113l72 -143l75 143h95l-125 -223l146 -270h-114l-89 174l-93 -174h-96l143 256z" />
    <glyph glyph-name="y" unicode="y" horiz-adv-x="358" 
d="M0 493h102l86 -338l88 338h92l-160 -524q-9 -30 -15 -45.5t-18 -38.5t-25 -34t-35 -19.5t-50 -8.5q-21 0 -53 6v82q18 -3 36 -3q41 0 57 20t35 88z" />
    <glyph glyph-name="z" unicode="z" horiz-adv-x="341" 
d="M32 493h300v-62l-208 -354h210v-77h-319v77l200 339h-183v77z" />
    <glyph glyph-name="braceleft" unicode="{" horiz-adv-x="324" 
d="M250 666v-58q-41 -1 -50.5 -18t-9.5 -79v-106q0 -83 -9.5 -109t-51.5 -40q41 -15 51 -41t10 -109v-117q0 -63 9.5 -80.5t50.5 -17.5v-58q-84 -4 -119 26.5t-35 129.5v119q0 32 -0.5 45.5t-3 30.5t-8 22.5t-15.5 10t-26 4.5v70q37 0 45 21t8 91v108q0 96 33.5 128
t120.5 27z" />
    <glyph glyph-name="bar" unicode="|" horiz-adv-x="500" 
d="M301 750v-1000h-102v1000h102z" />
    <glyph glyph-name="braceright" unicode="}" horiz-adv-x="324" 
d="M74 -167v58q40 0 50 18t10 80v117q0 83 9.5 109t51.5 41q-42 15 -51.5 41t-9.5 108v106q0 62 -9.5 79.5t-50.5 18.5v58q83 4 118.5 -26t35.5 -130v-108q0 -32 0.5 -45t3 -30t8 -22.5t15.5 -10t26 -4.5v-70q-37 0 -45 -21t-8 -92v-119q0 -97 -34 -128.5t-120 -27.5z" />
    <glyph glyph-name="asciitilde" unicode="~" 
d="M71 251l-57 38q14 30 23 46.5t26.5 38.5t41 32t53.5 10q35 0 108 -30q65 -28 91 -28q21 0 37.5 10t24.5 20t19 29l59 -34q-12 -25 -21 -39.5t-27.5 -37.5t-45 -34.5t-59.5 -11.5q-29 0 -142 46q-32 12 -52 12q-46 0 -79 -67z" />
    <glyph glyph-name="uni00A0" unicode="&#xa0;" horiz-adv-x="250" 
 />
    <glyph glyph-name="exclamdown" unicode="&#xa1;" horiz-adv-x="341" 
d="M238 -174h-135l34 487h67zM226 370h-111v123h111v-123z" />
    <glyph glyph-name="cent" unicode="&#xa2;" 
d="M234 667h58v-91q58 -9 93 -47.5t47 -116.5l-86 -11q-6 45 -18.5 65.5t-38.5 34.5v-318q27 13 38.5 32.5t18.5 65.5l86 -11q-3 -21 -6 -34t-12.5 -38t-23 -41t-39 -31.5t-59.5 -21.5v-109h-58v109q-45 7 -73 28t-46.5 52.5t-25 65t-8.5 50.5t-2 33q0 151 79 213
q28 22 76 30v91zM236 185v312q-25 -13 -36 -33q-23 -42 -23 -123q0 -42 6 -72.5t17 -47t18 -23t18 -13.5z" />
    <glyph glyph-name="sterling" unicode="&#xa3;" 
d="M266 390h127v-79h-117q4 -28 4 -51q0 -50 -15.5 -88.5t-29.5 -52.5t-37 -32h75q73 0 109 17t61 72l79 -41q-14 -37 -31 -61.5t-36 -39.5t-48.5 -22.5t-58 -9.5t-75.5 -2h-253v88h34q67 0 99 45q26 35 26 98q0 29 -7 80h-96v79h83q-11 68 -11 106q0 31 8.5 60.5t27 58.5
t55.5 46.5t88 17.5q32 0 58.5 -8.5t41.5 -18.5t29 -28t18.5 -27l11.5 -24l-79 -49q-26 71 -81 71q-72 0 -72 -99q0 -24 3 -44z" />
    <glyph glyph-name="currency" unicode="&#xa4;" 
d="M341 485l69 69l56 -56l-69 -70q24 -37 24 -84q0 -43 -23 -84l69 -70l-58 -57l-69 69q-41 -24 -85 -24q-43 0 -84 24l-69 -69l-56 56l68 69q-24 45 -24 85q0 46 24 85l-70 69l58 58l69 -69q40 23 84 23q41 0 86 -24zM255 258q36 0 61 25t25 61q0 35 -25 60t-61 25
q-35 0 -60 -25.5t-25 -60.5t25 -60t60 -25z" />
    <glyph glyph-name="yen" unicode="&#xa5;" 
d="M28 667h112l123 -299l127 299h94l-123 -266h111v-61h-139l-29 -69h168v-61h-168v-210h-99v210h-157v61h156l-30 69h-126v61h99z" />
    <glyph glyph-name="brokenbar" unicode="&#xa6;" horiz-adv-x="500" 
d="M301 675v-350h-102v350h102zM301 175v-350h-102v350h102z" />
    <glyph glyph-name="section" unicode="&#xa7;" 
d="M446 549l-85 -20q-4 15 -8.5 25t-14.5 24t-28 21.5t-42 7.5q-43 0 -59.5 -24t-16.5 -49q0 -38 23 -56t89 -45q34 -14 52 -23t42.5 -27.5t36 -45t11.5 -61.5q0 -34 -13 -63t-25 -41t-33 -31q15 -10 24.5 -18.5t23.5 -25t21.5 -40.5t7.5 -54q0 -77 -53.5 -126t-143.5 -49
q-163 0 -196 151l90 16q3 -15 7.5 -26t15.5 -28t33 -26.5t52 -9.5q49 0 73.5 23.5t24.5 61.5q0 43 -26.5 63t-99.5 48l-44 17.5t-40 20.5t-36.5 29t-22 38.5t-9.5 52.5q0 84 80 140q-17 14 -26.5 24t-21.5 38t-12 62q0 67 45.5 111.5t124.5 44.5q85 0 134 -46q29 -28 45 -84
zM214 367q-48 -38 -48 -83q0 -46 55 -75q7 -4 48.5 -20.5t42.5 -16.5q47 36 47 80q0 41 -38 65q-17 10 -107 50z" />
    <glyph glyph-name="dieresis" unicode="&#xa8;" horiz-adv-x="500" 
d="M172 568q-19 0 -36 13.5t-17 36.5q0 22 16 36.5t37 14.5t37 -14.5t16 -36.5q0 -23 -17 -36.5t-36 -13.5zM328 568q-19 0 -36 14t-17 36t16 36.5t37 14.5t37 -14.5t16 -36.5q0 -23 -17 -36.5t-36 -13.5z" />
    <glyph glyph-name="copyright" unicode="&#xa9;" horiz-adv-x="781" 
d="M466 275l78 -9q-11 -74 -50 -108q-38 -32 -97 -32q-50 0 -85 21.5t-50 56.5t-20.5 65t-5.5 62q0 38 7 71.5t23.5 66t50 52t81.5 19.5q127 0 146 -143l-79 -10q-3 27 -7 42t-19 31t-40 16q-75 0 -75 -146q0 -140 76 -140q28 0 42.5 19.5t23.5 65.5zM390 -12
q-144 0 -246 101t-102 244t102 244.5t246 101.5q145 0 247 -101.5t102 -244.5t-102 -244t-247 -101zM390 54q114 0 195 82t81 197q0 116 -81 198t-195 82t-194.5 -82t-80.5 -198t80.5 -197.5t194.5 -81.5z" />
    <glyph glyph-name="ordfeminine" unicode="&#xaa;" 
d="M202 572l-84 9q4 17 8 27.5t18 26.5t36 27q32 17 77 17q44 0 71.5 -12.5t38 -37.5t13 -42t2.5 -47v-108q0 -71 9 -96h-73q-4 32 -5 52q-12 -17 -20 -26t-31 -21.5t-52 -12.5q-44 0 -74 25.5t-30 75.5q0 122 190 119q0 21 -1 32t-12 23.5t-32 12.5q-14 0 -23.5 -4
t-14.5 -13.5t-6.5 -13t-4.5 -13.5zM196 433q0 -42 39 -42q61 0 61 101q-12 0 -34 1.5t-44 -14t-22 -46.5z" />
    <glyph glyph-name="guillemotleft" unicode="&#xab;" horiz-adv-x="392" 
d="M348 97h-57l-94 159l94 160h57l-53 -160zM195 100h-57l-94 156l94 156h57l-53 -156z" />
    <glyph glyph-name="logicalnot" unicode="&#xac;" 
d="M375 224v137h-324v81h409v-218h-85z" />
    <glyph glyph-name="uni00AD" unicode="&#xad;" horiz-adv-x="290" 
d="M39 291h211v-82h-211v82z" />
    <glyph glyph-name="registered" unicode="&#xae;" 
d="M184 580h75q82 0 82 -63q0 -43 -38 -56l44 -101h-52l-34 90h-29v-90h-48v220zM258 548h-26v-66h26q34 0 34 35q0 31 -34 31zM256 667q82 0 140.5 -58.5t58.5 -142.5q0 -83 -59 -141t-140 -58q-82 0 -141 58t-59 141q0 84 58.5 142.5t141.5 58.5zM256 622
q-63 0 -107.5 -45.5t-44.5 -110.5q0 -64 45 -109t107 -45t106.5 45t44.5 109q0 65 -44.5 110.5t-106.5 45.5z" />
    <glyph glyph-name="macron" unicode="&#xaf;" horiz-adv-x="500" 
d="M115 650h270v-64h-270v64z" />
    <glyph glyph-name="degree" unicode="&#xb0;" 
d="M256 679q64 0 109.5 -45.5t45.5 -110.5t-45.5 -110.5t-109.5 -45.5q-65 0 -110.5 45.5t-45.5 110.5q0 66 45.5 111t110.5 45zM256 613q-32 0 -55 -26.5t-23 -63.5q0 -38 23 -64t55 -26t54.5 26t22.5 64q0 37 -22.5 63.5t-54.5 26.5z" />
    <glyph glyph-name="plusminus" unicode="&#xb1;" 
d="M298 374h162v-81h-162v-159h-85v159h-162v81h162v164h85v-164zM460 5h-409v81h409v-81z" />
    <glyph glyph-name="two.superior" unicode="&#xb2;" horiz-adv-x="341" 
d="M99 528l-77 15q26 131 143 131q65 0 99 -35.5t34 -84.5q0 -68 -73 -136q-41 -41 -104 -81h180l-4 -70h-273v65q123 102 160 149q27 33 27 69q0 24 -12.5 41t-38.5 17q-51 0 -61 -80z" />
    <glyph glyph-name="three.superior" unicode="&#xb3;" horiz-adv-x="341" 
d="M98 553l-73 16q30 105 140 105q59 0 93 -30t34 -79q0 -26 -12.5 -46t-22.5 -26.5t-26 -14.5q73 -26 73 -97q0 -55 -39.5 -88t-104.5 -33q-35 0 -62 10t-41 21.5t-24.5 31t-13 29t-5.5 23.5l74 16q3 -13 5.5 -20.5t10 -20.5t21 -19.5t32.5 -6.5q23 0 41 14t18 47
q0 26 -13.5 40t-27.5 17t-35 3h-33v58h33q19 0 30 1.5t24.5 14.5t13.5 38q0 55 -50 55q-16 0 -27 -5.5t-17.5 -15.5t-9.5 -18t-6 -20z" />
    <glyph glyph-name="acute" unicode="&#xb4;" horiz-adv-x="500" 
d="M202 590l156 137l53 -67l-172 -108z" />
    <glyph glyph-name="mu" unicode="&#xb5;" horiz-adv-x="460" 
d="M298 493h102v-493h-94v74q-6 -25 -11 -39t-22.5 -30.5t-44.5 -16.5q-20 0 -34.5 8t-23 23.5t-12 26.5t-7.5 28v-241h-94v660h102v-237q0 -117 13 -146q17 -40 56 -40q41 0 58 40q12 31 12 146v237z" />
    <glyph glyph-name="paragraph" unicode="&#xb6;" horiz-adv-x="528" 
d="M451 667v-834h-67v767h-50v-767h-67v447h-37q-33 0 -50.5 1t-45 9.5t-48.5 24.5q-62 50 -62 159q0 114 72 165q41 28 137 28h218z" />
    <glyph glyph-name="periodcentered" unicode="&#xb7;" horiz-adv-x="239" 
d="M64 320h111v-126h-111v126z" />
    <glyph glyph-name="cedilla" unicode="&#xb8;" horiz-adv-x="500" 
d="M235 -1l48 1l-16 -47q31 2 51 -5q47 -16 47 -66q0 -34 -27 -57.5t-73 -23.5q-41 0 -96 30l14 36q41 -18 73 -18q40 0 40 30q0 15 -8.5 23.5t-21.5 11t-29 3.5t-31 0z" />
    <glyph glyph-name="one.superior" unicode="&#xb9;" horiz-adv-x="341" 
d="M170 671h61v-343h68v-61h-222v61h73v242q-34 -29 -75 -49v74q56 30 95 76z" />
    <glyph glyph-name="ordmasculine" unicode="&#xba;" 
d="M256 679q76 0 108 -49.5t32 -122.5q0 -179 -141 -179q-140 0 -140 175q0 176 141 176zM256 624q-57 0 -57 -121q0 -120 56 -120q57 0 57 120q0 121 -56 121z" />
    <glyph glyph-name="guillemotright" unicode="&#xbb;" horiz-adv-x="392" 
d="M44 416h57l94 -160l-94 -159h-57l52 159zM197 416h57l94 -160l-94 -159h-57l53 159z" />
    <glyph glyph-name="onequarter" unicode="&#xbc;" horiz-adv-x="767" 
d="M496 150h102v184zM510 667h71l-325 -667h-71zM584 407h91v-252h52v-62h-52v-93h-82v93h-164v55zM162 671h61v-343h68v-61h-222v61h73v242q-34 -29 -75 -49v74q56 30 95 76z" />
    <glyph glyph-name="onehalf" unicode="&#xbd;" horiz-adv-x="767" 
d="M150 671h61v-343h68v-61h-222v61h73v242q-34 -29 -75 -49v74q56 30 95 76zM497 667h72l-326 -667h-71zM506 262l-77 14q3 17 6 28t13.5 32.5t24.5 35t40 24.5t59 11q66 0 99.5 -36t33.5 -84q0 -69 -73 -136q-41 -41 -104 -81h180l-4 -70h-274v65q120 96 161 149
q27 35 27 69q0 22 -11.5 40t-39.5 18q-51 0 -61 -79z" />
    <glyph glyph-name="threequarters" unicode="&#xbe;" horiz-adv-x="767" 
d="M502 150h102v184zM530 667h71l-326 -667h-71zM590 407h91v-252h52v-62h-52v-93h-82v93h-164v55zM114 553l-72 16q30 105 140 105q59 0 93 -30t34 -79q0 -27 -12.5 -46.5t-23 -26t-26.5 -14.5q73 -26 73 -97q0 -55 -39.5 -88t-104.5 -33q-35 0 -62 10t-41 21.5t-24.5 31
t-13 29t-5.5 23.5l74 16q3 -13 5.5 -20.5t10 -20.5t21 -19.5t32.5 -6.5q23 0 41 14t18 47q0 26 -13.5 40t-27.5 17t-35 3h-32v58h33q19 0 30 1.5t24.5 14.5t13.5 38q0 55 -50 55q-20 0 -34 -11t-18 -21t-9 -27z" />
    <glyph glyph-name="questiondown" unicode="&#xbf;" horiz-adv-x="494" 
d="M361 39l95 -18q-9 -107 -63 -157t-139 -50q-94 0 -143 52t-49 130q0 44 16.5 80.5t34.5 55.5t49 45q46 37 56 59t8 79h92q-1 -78 -9 -111t-41 -61q-57 -48 -76 -75t-19 -74t24 -70t62 -23q94 0 102 138zM326 373h-109v120h109v-120z" />
    <glyph glyph-name="Agrave" unicode="&#xc0;" horiz-adv-x="494" 
d="M189 667h124l178 -667h-112l-42 167h-194l-41 -167h-106zM164 254h151l-75 306zM298 774l-27 -48l-200 62l35 81z" />
    <glyph glyph-name="Aacute" unicode="&#xc1;" horiz-adv-x="494" 
d="M189 667h124l178 -667h-112l-42 167h-194l-41 -167h-106zM164 254h151l-75 306zM174 774l192 95l35 -81l-200 -62z" />
    <glyph glyph-name="Acircumflex" unicode="&#xc2;" horiz-adv-x="494" 
d="M189 667h124l178 -667h-112l-42 167h-194l-41 -167h-106zM164 254h151l-75 306zM70 733l180 127l180 -127l-90 -7l-90 50l-90 -50z" />
    <glyph glyph-name="Atilde" unicode="&#xc3;" horiz-adv-x="494" 
d="M189 667h124l178 -667h-112l-42 167h-194l-41 -167h-106zM164 254h151l-75 306zM356 834l45 -29q-47 -74 -107 -74q-25 0 -67 20q-36 17 -54 17q-25 0 -50 -34l-44 29q48 73 106 73q16 0 27.5 -4t55.5 -22q26 -11 41 -11q25 0 47 35z" />
    <glyph glyph-name="Adieresis" unicode="&#xc4;" horiz-adv-x="494" 
d="M189 667h124l178 -667h-112l-42 167h-194l-41 -167h-106zM164 254h151l-75 306zM170 733q-20 0 -37.5 14t-17.5 37t17 38t38 15q23 0 39 -15t16 -37q0 -23 -17 -37.5t-38 -14.5zM330 733q-20 0 -37.5 14t-17.5 38q0 22 16.5 37t38.5 15t38.5 -15t16.5 -38t-17.5 -37
t-37.5 -14z" />
    <glyph glyph-name="Aring" unicode="&#xc5;" horiz-adv-x="494" 
d="M189 667h124l178 -667h-112l-42 167h-194l-41 -167h-106zM164 254h151l-75 306zM250 709q-34 0 -64 25t-30 69q0 41 28 68t66 27t66 -27t28 -69t-30 -67.5t-64 -25.5zM250 759q16 0 29.5 12t13.5 32t-13.5 32.5t-29.5 12.5t-29.5 -12.5t-13.5 -32.5t13.5 -32t29.5 -12z
" />
    <glyph glyph-name="AE" unicode="&#xc6;" horiz-adv-x="698" 
d="M689 90v-90h-376v182h-174l-79 -182h-100l303 667h425v-88h-268v-192h210v-88h-210v-209h269zM314 268v327l-140 -327h140z" />
    <glyph glyph-name="Ccedilla" unicode="&#xc7;" horiz-adv-x="528" 
d="M501 451l-102 -14q-3 24 -5.5 38t-11 38.5t-19 38.5t-30.5 25t-46 11q-128 0 -128 -260q0 -249 128 -249q49 0 74 34.5t38 110.5l102 -14q-19 -117 -73 -169q-52 -49 -139 -53l-12 -39q32 2 52 -5q50 -17 50 -68q0 -34 -27 -59t-76 -25q-46 0 -99 32l14 37q46 -18 75 -18
q39 0 39 30q0 27 -32 35q-15 3 -58 3l26 80q-80 19 -117 62q-82 94 -82 278q0 40 3.5 77.5t18.5 89.5t39 89.5t71 64.5t110 27q189 0 217 -228z" />
    <glyph glyph-name="Egrave" unicode="&#xc8;" horiz-adv-x="460" 
d="M64 667h381v-88h-271v-192h213v-88h-213v-209h276v-90h-386v667zM318 774l-27 -48l-200 62l35 81z" />
    <glyph glyph-name="Eacute" unicode="&#xc9;" horiz-adv-x="460" 
d="M64 667h381v-88h-271v-192h213v-88h-213v-209h276v-90h-386v667zM189 774l192 95l35 -81l-200 -62z" />
    <glyph glyph-name="Ecircumflex" unicode="&#xca;" horiz-adv-x="460" 
d="M64 667h381v-88h-271v-192h213v-88h-213v-209h276v-90h-386v667zM55 733l180 127l180 -127l-90 -7l-90 50l-90 -50z" />
    <glyph glyph-name="Edieresis" unicode="&#xcb;" horiz-adv-x="460" 
d="M64 667h381v-88h-271v-192h213v-88h-213v-209h276v-90h-386v667zM170 733q-20 0 -37.5 14t-17.5 37t17 38t38 15q23 0 39 -15t16 -37q0 -23 -17 -37.5t-38 -14.5zM330 733q-20 0 -37.5 14t-17.5 38q0 22 16.5 37t38.5 15t38.5 -15t16.5 -38t-17.5 -37t-37.5 -14z" />
    <glyph glyph-name="Igrave" unicode="&#xcc;" horiz-adv-x="239" 
d="M64 667h110v-667h-110v667zM178 774l-27 -48l-200 62l35 81z" />
    <glyph glyph-name="Iacute" unicode="&#xcd;" horiz-adv-x="239" 
d="M64 667h110v-667h-110v667zM69 774l192 95l35 -81l-200 -62z" />
    <glyph glyph-name="Icircumflex" unicode="&#xce;" horiz-adv-x="239" 
d="M64 667h110v-667h-110v667zM-65 733l180 127l180 -127l-90 -7l-90 50l-90 -50z" />
    <glyph glyph-name="Idieresis" unicode="&#xcf;" horiz-adv-x="239" 
d="M64 667h110v-667h-110v667zM40 733q-20 0 -37.5 14t-17.5 37t17 38t38 15q23 0 39 -15t16 -37q0 -23 -17 -37.5t-38 -14.5zM200 733q-20 0 -37.5 14t-17.5 38q0 22 16.5 37t38.5 15t38.5 -15t16.5 -38t-17.5 -37t-37.5 -14z" />
    <glyph glyph-name="Eth" unicode="&#xd0;" horiz-adv-x="562" 
d="M7 299v88h57v280h150q156 0 227 -82q79 -91 79 -246q0 -102 -34 -179t-92 -117q-61 -43 -172 -43h-158v299h-57zM174 299v-211h46q77 0 117 40q66 64 66 205q0 246 -183 246h-46v-192h123v-88h-123z" />
    <glyph glyph-name="Ntilde" unicode="&#xd1;" horiz-adv-x="562" 
d="M60 667h130l220 -481v481h92v-667h-103l-247 534v-534h-92v667zM406 834l45 -29q-47 -74 -107 -74q-25 0 -67 20q-36 17 -54 17q-25 0 -50 -34l-44 29q48 73 106 73q16 0 27.5 -4t55.5 -22q26 -11 41 -11q25 0 47 35z" />
    <glyph glyph-name="Ograve" unicode="&#xd2;" horiz-adv-x="562" 
d="M282 679q71 0 120.5 -31t74 -85t34.5 -109t10 -121q0 -47 -4.5 -89t-20 -91t-40 -83.5t-69.5 -58t-104 -23.5q-58 0 -102 21.5t-69.5 55t-42 80.5t-22 92t-5.5 96q0 65 10 120t34.5 109t74.5 85.5t121 31.5zM282 588q-67 0 -97 -68q-27 -62 -27 -187q0 -122 27 -186
q15 -34 37.5 -51t60.5 -17q65 0 95 68q27 64 27 186q0 124 -27 187q-31 68 -96 68zM338 774l-27 -48l-200 62l35 81z" />
    <glyph glyph-name="Oacute" unicode="&#xd3;" horiz-adv-x="562" 
d="M282 679q71 0 120.5 -31t74 -85t34.5 -109t10 -121q0 -47 -4.5 -89t-20 -91t-40 -83.5t-69.5 -58t-104 -23.5q-58 0 -102 21.5t-69.5 55t-42 80.5t-22 92t-5.5 96q0 65 10 120t34.5 109t74.5 85.5t121 31.5zM282 588q-67 0 -97 -68q-27 -62 -27 -187q0 -122 27 -186
q15 -34 37.5 -51t60.5 -17q65 0 95 68q27 64 27 186q0 124 -27 187q-31 68 -96 68zM229 774l192 95l35 -81l-200 -62z" />
    <glyph glyph-name="Ocircumflex" unicode="&#xd4;" horiz-adv-x="562" 
d="M282 679q71 0 120.5 -31t74 -85t34.5 -109t10 -121q0 -47 -4.5 -89t-20 -91t-40 -83.5t-69.5 -58t-104 -23.5q-58 0 -102 21.5t-69.5 55t-42 80.5t-22 92t-5.5 96q0 65 10 120t34.5 109t74.5 85.5t121 31.5zM282 588q-67 0 -97 -68q-27 -62 -27 -187q0 -122 27 -186
q15 -34 37.5 -51t60.5 -17q65 0 95 68q27 64 27 186q0 124 -27 187q-31 68 -96 68zM100 733l180 127l180 -127l-90 -7l-90 50l-90 -50z" />
    <glyph glyph-name="Otilde" unicode="&#xd5;" horiz-adv-x="562" 
d="M282 679q71 0 120.5 -31t74 -85t34.5 -109t10 -121q0 -47 -4.5 -89t-20 -91t-40 -83.5t-69.5 -58t-104 -23.5q-58 0 -102 21.5t-69.5 55t-42 80.5t-22 92t-5.5 96q0 65 10 120t34.5 109t74.5 85.5t121 31.5zM282 588q-67 0 -97 -68q-27 -62 -27 -187q0 -122 27 -186
q15 -34 37.5 -51t60.5 -17q65 0 95 68q27 64 27 186q0 124 -27 187q-31 68 -96 68zM396 834l45 -29q-47 -74 -107 -74q-25 0 -67 20q-36 17 -54 17q-25 0 -50 -34l-44 29q48 73 106 73q16 0 27.5 -4t55.5 -22q26 -11 41 -11q25 0 47 35z" />
    <glyph glyph-name="Odieresis" unicode="&#xd6;" horiz-adv-x="562" 
d="M282 679q71 0 120.5 -31t74 -85t34.5 -109t10 -121q0 -47 -4.5 -89t-20 -91t-40 -83.5t-69.5 -58t-104 -23.5q-58 0 -102 21.5t-69.5 55t-42 80.5t-22 92t-5.5 96q0 65 10 120t34.5 109t74.5 85.5t121 31.5zM282 588q-67 0 -97 -68q-27 -62 -27 -187q0 -122 27 -186
q15 -34 37.5 -51t60.5 -17q65 0 95 68q27 64 27 186q0 124 -27 187q-31 68 -96 68zM200 733q-20 0 -37.5 14t-17.5 37t17 38t38 15q23 0 39 -15t16 -37q0 -23 -17 -37.5t-38 -14.5zM360 733q-20 0 -37.5 14t-17.5 38q0 22 16.5 37t38.5 15t38.5 -15t16.5 -38t-17.5 -37
t-37.5 -14z" />
    <glyph glyph-name="multiply" unicode="&#xd7;" 
d="M255 394l122 121l60 -60l-121 -122l121 -121l-60 -60l-122 121l-121 -121l-60 60l121 121l-121 122l60 60z" />
    <glyph glyph-name="Oslash" unicode="&#xd8;" horiz-adv-x="562" 
d="M434 704h70l-53 -105q67 -91 67 -266q0 -54 -6 -100.5t-22.5 -92.5t-42.5 -79t-68.5 -53t-97.5 -20q-70 0 -119 33l-30 -61h-70l52 105q-70 83 -70 271q0 46 5 88t20.5 90t40 83t69 58.5t102.5 23.5q68 0 125 -35zM170 162l189 406q-30 25 -77 25q-72 0 -103 -69
q-28 -64 -28 -193q0 -110 19 -169zM394 497l-186 -402q27 -21 72 -21q90 0 116 107q15 72 15 152q0 109 -17 164z" />
    <glyph glyph-name="Ugrave" unicode="&#xd9;" horiz-adv-x="545" 
d="M59 667h108v-414q0 -35 1 -53t6.5 -45.5t16.5 -41t33 -24t54 -10.5t53.5 10t32 23t16 40.5t6.5 46t1 56.5v412h99v-407q0 -61 -3 -94.5t-18.5 -73t-47.5 -63.5q-56 -41 -145 -41q-44 0 -78 9t-56 22t-38 36.5t-23.5 43t-12 51t-5 51t-0.5 52.5v414zM318 774l-27 -48
l-200 62l35 81z" />
    <glyph glyph-name="Uacute" unicode="&#xda;" horiz-adv-x="545" 
d="M59 667h108v-414q0 -35 1 -53t6.5 -45.5t16.5 -41t33 -24t54 -10.5t53.5 10t32 23t16 40.5t6.5 46t1 56.5v412h99v-407q0 -61 -3 -94.5t-18.5 -73t-47.5 -63.5q-56 -41 -145 -41q-44 0 -78 9t-56 22t-38 36.5t-23.5 43t-12 51t-5 51t-0.5 52.5v414zM229 774l192 95
l35 -81l-200 -62z" />
    <glyph glyph-name="Ucircumflex" unicode="&#xdb;" horiz-adv-x="545" 
d="M59 667h108v-414q0 -35 1 -53t6.5 -45.5t16.5 -41t33 -24t54 -10.5t53.5 10t32 23t16 40.5t6.5 46t1 56.5v412h99v-407q0 -61 -3 -94.5t-18.5 -73t-47.5 -63.5q-56 -41 -145 -41q-44 0 -78 9t-56 22t-38 36.5t-23.5 43t-12 51t-5 51t-0.5 52.5v414zM95 733l180 127
l180 -127l-90 -7l-90 50l-90 -50z" />
    <glyph glyph-name="Udieresis" unicode="&#xdc;" horiz-adv-x="545" 
d="M59 667h108v-414q0 -35 1 -53t6.5 -45.5t16.5 -41t33 -24t54 -10.5t53.5 10t32 23t16 40.5t6.5 46t1 56.5v412h99v-407q0 -61 -3 -94.5t-18.5 -73t-47.5 -63.5q-56 -41 -145 -41q-44 0 -78 9t-56 22t-38 36.5t-23.5 43t-12 51t-5 51t-0.5 52.5v414zM200 733
q-20 0 -37.5 14t-17.5 37t17 38t38 15q23 0 39 -15t16 -37q0 -23 -17 -37.5t-38 -14.5zM360 733q-20 0 -37.5 14t-17.5 38q0 22 16.5 37t38.5 15t38.5 -15t16.5 -38t-17.5 -37t-37.5 -14z" />
    <glyph glyph-name="Yacute" unicode="&#xdd;" horiz-adv-x="409" 
d="M-31 667h120l122 -278l124 278h106l-185 -385v-282h-110v282zM169 774l192 95l35 -81l-200 -62z" />
    <glyph glyph-name="Thorn" unicode="&#xde;" horiz-adv-x="494" 
d="M64 667h110v-104h55q69 0 114 -10.5t77 -44.5q54 -57 54 -149q0 -45 -17.5 -92t-58.5 -75q-50 -35 -167 -35h-57v-157h-110v667zM229 478h-55v-233h55q21 0 33.5 1t33 7t32.5 17.5t21 35t9 56.5q0 48 -23 81q-17 24 -39.5 29.5t-66.5 5.5z" />
    <glyph glyph-name="germandbls" unicode="&#xdf;" 
d="M8 366v82h58q0 36 1 56t10.5 55.5t28.5 62.5q55 78 166 78q75 0 119.5 -41t44.5 -101q0 -114 -160 -152q7 -13 18.5 -21.5t50.5 -26.5q32 -15 52 -27t46 -34t39 -54t13 -72q0 -77 -47 -130t-133 -53q-43 0 -97 18l25 75q40 -16 74 -16q38 0 60 25t22 66q0 22 -6 39
t-21.5 31t-28.5 22t-40 23q-51 29 -75 55.5t-24 63.5q0 25 13 60q121 24 121 97q0 35 -22 57t-58 22q-48 0 -72 -43q-18 -31 -18 -133v-496h-102v412h-58z" />
    <glyph glyph-name="agrave" unicode="&#xe0;" horiz-adv-x="460" 
d="M151 353l-98 13q8 44 31 74.5t54.5 43t54.5 17t46 4.5q91 0 136 -53q14 -16 21.5 -44t8.5 -48t1 -56v-167q0 -103 8 -137h-95q-7 34 -7 82q-10 -19 -18 -30.5t-24.5 -28.5t-41 -26t-55.5 -9q-62 0 -100 37.5t-38 104.5q0 58 28 98t74 56q68 23 167 20v20q0 20 -1.5 33
t-7.5 32.5t-22 30t-42 10.5q-65 0 -80 -77zM304 216v25q-16 1 -30 1q-79 0 -106 -30t-27 -75q0 -74 66 -74q37 0 67 39t30 114zM305 590l-37 -38l-172 108l53 67z" />
    <glyph glyph-name="aacute" unicode="&#xe1;" horiz-adv-x="460" 
d="M151 353l-98 13q8 44 31 74.5t54.5 43t54.5 17t46 4.5q91 0 136 -53q14 -16 21.5 -44t8.5 -48t1 -56v-167q0 -103 8 -137h-95q-7 34 -7 82q-10 -19 -18 -30.5t-24.5 -28.5t-41 -26t-55.5 -9q-62 0 -100 37.5t-38 104.5q0 58 28 98t74 56q68 23 167 20v20q0 20 -1.5 33
t-7.5 32.5t-22 30t-42 10.5q-65 0 -80 -77zM304 216v25q-16 1 -30 1q-79 0 -106 -30t-27 -75q0 -74 66 -74q37 0 67 39t30 114zM182 590l156 137l53 -67l-172 -108z" />
    <glyph glyph-name="acircumflex" unicode="&#xe2;" horiz-adv-x="460" 
d="M151 353l-98 13q8 44 31 74.5t54.5 43t54.5 17t46 4.5q91 0 136 -53q14 -16 21.5 -44t8.5 -48t1 -56v-167q0 -103 8 -137h-95q-7 34 -7 82q-10 -19 -18 -30.5t-24.5 -28.5t-41 -26t-55.5 -9q-62 0 -100 37.5t-38 104.5q0 58 28 98t74 56q68 23 167 20v20q0 20 -1.5 33
t-7.5 32.5t-22 30t-42 10.5q-65 0 -80 -77zM304 216v25q-16 1 -30 1q-79 0 -106 -30t-27 -75q0 -74 66 -74q37 0 67 39t30 114zM56 563l174 134l174 -134l-86 -7l-88 59l-88 -59z" />
    <glyph glyph-name="atilde" unicode="&#xe3;" horiz-adv-x="460" 
d="M151 353l-98 13q8 44 31 74.5t54.5 43t54.5 17t46 4.5q91 0 136 -53q14 -16 21.5 -44t8.5 -48t1 -56v-167q0 -103 8 -137h-95q-7 34 -7 82q-10 -19 -18 -30.5t-24.5 -28.5t-41 -26t-55.5 -9q-62 0 -100 37.5t-38 104.5q0 58 28 98t74 56q68 23 167 20v20q0 20 -1.5 33
t-7.5 32.5t-22 30t-42 10.5q-65 0 -80 -77zM304 216v25q-16 1 -30 1q-79 0 -106 -30t-27 -75q0 -74 66 -74q37 0 67 39t30 114zM339 669l42 -28q-46 -75 -100 -75q-25 0 -63 22q-35 20 -50 20q-10 0 -19.5 -6t-14.5 -11.5t-14 -18.5l-41 28q45 74 99 74q23 0 63 -21
q36 -21 54 -21q23 0 44 37z" />
    <glyph glyph-name="adieresis" unicode="&#xe4;" horiz-adv-x="460" 
d="M151 353l-98 13q8 44 31 74.5t54.5 43t54.5 17t46 4.5q91 0 136 -53q14 -16 21.5 -44t8.5 -48t1 -56v-167q0 -103 8 -137h-95q-7 34 -7 82q-10 -19 -18 -30.5t-24.5 -28.5t-41 -26t-55.5 -9q-62 0 -100 37.5t-38 104.5q0 58 28 98t74 56q68 23 167 20v20q0 20 -1.5 33
t-7.5 32.5t-22 30t-42 10.5q-65 0 -80 -77zM304 216v25q-16 1 -30 1q-79 0 -106 -30t-27 -75q0 -74 66 -74q37 0 67 39t30 114zM152 568q-19 0 -36 13.5t-17 36.5q0 22 16 36.5t37 14.5t37 -14.5t16 -36.5q0 -23 -17 -36.5t-36 -13.5zM308 568q-19 0 -36 14t-17 36t16 36.5
t37 14.5t37 -14.5t16 -36.5q0 -23 -17 -36.5t-36 -13.5z" />
    <glyph glyph-name="aring" unicode="&#xe5;" horiz-adv-x="460" 
d="M151 353l-98 13q8 44 31 74.5t54.5 43t54.5 17t46 4.5q91 0 136 -53q14 -16 21.5 -44t8.5 -48t1 -56v-167q0 -103 8 -137h-95q-7 34 -7 82q-10 -19 -18 -30.5t-24.5 -28.5t-41 -26t-55.5 -9q-62 0 -100 37.5t-38 104.5q0 58 28 98t74 56q68 23 167 20v20q0 20 -1.5 33
t-7.5 32.5t-22 30t-42 10.5q-65 0 -80 -77zM304 216v25q-16 1 -30 1q-79 0 -106 -30t-27 -75q0 -74 66 -74q37 0 67 39t30 114zM230 544q-33 0 -62.5 24.5t-29.5 66.5q0 40 27.5 66.5t64.5 26.5t64.5 -26.5t27.5 -66.5q0 -41 -29 -66t-63 -25zM230 593q16 0 29 11.5t13 30.5
t-12.5 31.5t-29.5 12.5q-16 0 -29 -12t-13 -31q0 -20 13 -31.5t29 -11.5z" />
    <glyph glyph-name="ae" unicode="&#xe6;" horiz-adv-x="698" 
d="M674 231h-277q0 -19 0.5 -30t2.5 -34t8.5 -37.5t16 -31t27 -25t40.5 -8.5t39 8.5t25 25.5t12.5 27.5t8.5 29.5l91 -12q-4 -20 -8.5 -34t-18 -39t-30.5 -41.5t-48.5 -29t-71.5 -12.5q-102 0 -150 93q-10 -17 -19.5 -28.5t-28.5 -28.5t-48 -26.5t-65 -9.5q-75 0 -110 42.5
t-35 101.5q0 55 28 96.5t75 57.5q58 19 161 19q0 17 0.5 34t-3.5 33.5t-11 29.5t-22 21t-37 8q-66 0 -81 -79l-93 13q13 83 81 118q42 22 98 22q57 0 93 -23q19 -12 38 -37q52 58 132 58q57 0 98.5 -36t57.5 -80q22 -59 24 -156zM399 300h171q-5 131 -83 131q-80 0 -88 -131
zM299 241q-15 2 -28 2q-132 0 -132 -105q0 -75 64 -75q7 0 15 1t25 10.5t29 26.5t20.5 53.5t6.5 86.5z" />
    <glyph glyph-name="ccedilla" unicode="&#xe7;" horiz-adv-x="409" 
d="M402 327l-98 -10q-3 21 -5.5 33.5t-8 28.5t-12.5 24.5t-19.5 14.5t-29.5 6q-50 0 -68.5 -46t-18.5 -142q0 -164 88 -164q22 0 37 10t22.5 29t10 32t4.5 35l98 -8q-6 -40 -14.5 -67t-26.5 -54.5t-50.5 -42.5t-80.5 -18l-12 -35q34 2 51 -5q48 -15 48 -66q0 -35 -27.5 -58
t-72.5 -23q-42 0 -97 30l14 37q40 -19 74 -19q40 0 40 31q0 14 -8.5 22.5t-21.5 11t-29.5 3.5t-31.5 0l27 74q-63 14 -95 54q-54 68 -54 200q0 38 4.5 71.5t17 69t33.5 61t56.5 42t82.5 16.5q42 0 73.5 -14.5t48.5 -32t29 -47t15 -44.5t7 -40z" />
    <glyph glyph-name="egrave" unicode="&#xe8;" horiz-adv-x="443" 
d="M418 231h-278q0 -20 0.5 -32t3 -35t8.5 -37.5t16 -30t27 -23.5t40 -8t39.5 8.5t26 25.5t13.5 28t8 30l92 -13l-8.5 -31.5t-17.5 -38.5t-32 -42.5t-50.5 -30t-73.5 -13.5q-102 0 -149 71.5t-47 179.5q0 131 55 198.5t142 67.5q55 0 93 -25.5t56 -60.5q16 -31 24 -67
t9.5 -58.5t2.5 -62.5zM142 300h173q0 41 -9 70q-11 33 -33 46.5t-43 13.5q-78 0 -88 -130zM297 590l-37 -38l-172 108l53 67z" />
    <glyph glyph-name="eacute" unicode="&#xe9;" horiz-adv-x="443" 
d="M418 231h-278q0 -20 0.5 -32t3 -35t8.5 -37.5t16 -30t27 -23.5t40 -8t39.5 8.5t26 25.5t13.5 28t8 30l92 -13l-8.5 -31.5t-17.5 -38.5t-32 -42.5t-50.5 -30t-73.5 -13.5q-102 0 -149 71.5t-47 179.5q0 131 55 198.5t142 67.5q55 0 93 -25.5t56 -60.5q16 -31 24 -67
t9.5 -58.5t2.5 -62.5zM142 300h173q0 41 -9 70q-11 33 -33 46.5t-43 13.5q-78 0 -88 -130zM174 590l156 137l53 -67l-172 -108z" />
    <glyph glyph-name="ecircumflex" unicode="&#xea;" horiz-adv-x="443" 
d="M418 231h-278q0 -20 0.5 -32t3 -35t8.5 -37.5t16 -30t27 -23.5t40 -8t39.5 8.5t26 25.5t13.5 28t8 30l92 -13l-8.5 -31.5t-17.5 -38.5t-32 -42.5t-50.5 -30t-73.5 -13.5q-102 0 -149 71.5t-47 179.5q0 131 55 198.5t142 67.5q55 0 93 -25.5t56 -60.5q16 -31 24 -67
t9.5 -58.5t2.5 -62.5zM142 300h173q0 41 -9 70q-11 33 -33 46.5t-43 13.5q-78 0 -88 -130zM48 563l174 134l174 -134l-86 -7l-88 59l-88 -59z" />
    <glyph glyph-name="edieresis" unicode="&#xeb;" horiz-adv-x="443" 
d="M418 231h-278q0 -20 0.5 -32t3 -35t8.5 -37.5t16 -30t27 -23.5t40 -8t39.5 8.5t26 25.5t13.5 28t8 30l92 -13l-8.5 -31.5t-17.5 -38.5t-32 -42.5t-50.5 -30t-73.5 -13.5q-102 0 -149 71.5t-47 179.5q0 131 55 198.5t142 67.5q55 0 93 -25.5t56 -60.5q16 -31 24 -67
t9.5 -58.5t2.5 -62.5zM142 300h173q0 41 -9 70q-11 33 -33 46.5t-43 13.5q-78 0 -88 -130zM144 568q-19 0 -36 13.5t-17 36.5q0 22 16 36.5t37 14.5t37 -14.5t16 -36.5q0 -23 -17 -36.5t-36 -13.5zM300 568q-19 0 -36 14t-17 36t16 36.5t37 14.5t37 -14.5t16 -36.5
q0 -23 -17 -36.5t-36 -13.5z" />
    <glyph glyph-name="igrave" unicode="&#xec;" horiz-adv-x="222" 
d="M60 493h102v-493h-102v493zM186 590l-37 -38l-172 108l53 67z" />
    <glyph glyph-name="iacute" unicode="&#xed;" horiz-adv-x="222" 
d="M60 493h102v-493h-102v493zM63 590l156 137l53 -67l-172 -108z" />
    <glyph glyph-name="icircumflex" unicode="&#xee;" horiz-adv-x="222" 
d="M60 493h102v-493h-102v493zM-63 563l174 134l174 -134l-86 -7l-88 59l-88 -59z" />
    <glyph glyph-name="idieresis" unicode="&#xef;" horiz-adv-x="222" 
d="M60 493h102v-493h-102v493zM33 568q-19 0 -36 13.5t-17 36.5q0 22 16 36.5t37 14.5t37 -14.5t16 -36.5q0 -23 -17 -36.5t-36 -13.5zM189 568q-19 0 -36 14t-17 36t16 36.5t37 14.5t37 -14.5t16 -36.5q0 -23 -17 -36.5t-36 -13.5z" />
    <glyph glyph-name="eth" unicode="&#xf0;" horiz-adv-x="443" 
d="M135 247q0 -96 21.5 -139t65.5 -43q43 0 64.5 42.5t21.5 139.5q0 95 -21 138t-66 43t-65.5 -45t-20.5 -136zM420 677l-113 -59q109 -196 109 -378q0 -33 -3.5 -63.5t-16 -66.5t-33 -61.5t-57.5 -43t-86 -17.5q-55 0 -94.5 22t-60 60.5t-29.5 81.5t-9 95q0 63 12.5 111.5
t31 75.5t43 44t44 22t38.5 5q37 0 70 -25q-16 48 -42 94l-105 -55l-31 56l104 55l-26 40l82 43l26 -40l115 60z" />
    <glyph glyph-name="ntilde" unicode="&#xf1;" horiz-adv-x="460" 
d="M60 0v493h94v-76q7 17 13 26.5t20 26.5t36.5 26t52.5 9q79 0 110 -61q17 -33 17 -126v-318h-102v312q0 25 -0.5 37t-3.5 29t-9 25t-17.5 14t-28.5 6q-28 0 -46 -14.5t-24.5 -41.5t-8 -45t-1.5 -46v-276h-102zM339 669l42 -28q-46 -75 -100 -75q-25 0 -63 22
q-35 20 -50 20q-10 0 -19.5 -6t-14.5 -11.5t-14 -18.5l-41 28q45 74 99 74q23 0 63 -21q36 -21 54 -21q23 0 44 37z" />
    <glyph glyph-name="ograve" unicode="&#xf2;" horiz-adv-x="460" 
d="M231 505q55 0 94.5 -22t60 -60t29.5 -80t9 -91q0 -264 -195 -264q-55 0 -94.5 22t-60 60.5t-29.5 81.5t-9 95q0 258 195 258zM230 428q-46 0 -66 -45t-20 -137q0 -95 21 -138t65 -43t65 42.5t21 139.5q0 94 -21 137.5t-65 43.5zM305 590l-37 -38l-172 108l53 67z" />
    <glyph glyph-name="oacute" unicode="&#xf3;" horiz-adv-x="460" 
d="M231 505q55 0 94.5 -22t60 -60t29.5 -80t9 -91q0 -264 -195 -264q-55 0 -94.5 22t-60 60.5t-29.5 81.5t-9 95q0 258 195 258zM230 428q-46 0 -66 -45t-20 -137q0 -95 21 -138t65 -43t65 42.5t21 139.5q0 94 -21 137.5t-65 43.5zM182 590l156 137l53 -67l-172 -108z" />
    <glyph glyph-name="ocircumflex" unicode="&#xf4;" horiz-adv-x="460" 
d="M231 505q55 0 94.5 -22t60 -60t29.5 -80t9 -91q0 -264 -195 -264q-55 0 -94.5 22t-60 60.5t-29.5 81.5t-9 95q0 258 195 258zM230 428q-46 0 -66 -45t-20 -137q0 -95 21 -138t65 -43t65 42.5t21 139.5q0 94 -21 137.5t-65 43.5zM56 563l174 134l174 -134l-86 -7l-88 59
l-88 -59z" />
    <glyph glyph-name="otilde" unicode="&#xf5;" horiz-adv-x="460" 
d="M231 505q55 0 94.5 -22t60 -60t29.5 -80t9 -91q0 -264 -195 -264q-55 0 -94.5 22t-60 60.5t-29.5 81.5t-9 95q0 258 195 258zM230 428q-46 0 -66 -45t-20 -137q0 -95 21 -138t65 -43t65 42.5t21 139.5q0 94 -21 137.5t-65 43.5zM339 669l42 -28q-46 -75 -100 -75
q-25 0 -63 22q-35 20 -50 20q-10 0 -19.5 -6t-14.5 -11.5t-14 -18.5l-41 28q45 74 99 74q23 0 63 -21q36 -21 54 -21q23 0 44 37z" />
    <glyph glyph-name="odieresis" unicode="&#xf6;" horiz-adv-x="460" 
d="M231 505q55 0 94.5 -22t60 -60t29.5 -80t9 -91q0 -264 -195 -264q-55 0 -94.5 22t-60 60.5t-29.5 81.5t-9 95q0 258 195 258zM230 428q-46 0 -66 -45t-20 -137q0 -95 21 -138t65 -43t65 42.5t21 139.5q0 94 -21 137.5t-65 43.5zM152 568q-19 0 -36 13.5t-17 36.5
q0 22 16 36.5t37 14.5t37 -14.5t16 -36.5q0 -23 -17 -36.5t-36 -13.5zM308 568q-19 0 -36 14t-17 36t16 36.5t37 14.5t37 -14.5t16 -36.5q0 -23 -17 -36.5t-36 -13.5z" />
    <glyph glyph-name="divide" unicode="&#xf7;" 
d="M460 293h-409v81h409v-81zM305 424h-99v111h99v-111zM305 132h-99v111h99v-111z" />
    <glyph glyph-name="oslash" unicode="&#xf8;" horiz-adv-x="460" 
d="M352 537h59l-44 -89q57 -71 57 -198q0 -262 -195 -262q-45 0 -88 18l-29 -58h-59l45 90q-62 75 -62 208q0 51 9 93.5t29 81.5t59.5 61.5t94.5 22.5q53 0 97 -22zM147 120l138 298q-22 14 -53 14q-49 0 -74.5 -41t-25.5 -145q0 -77 15 -126zM316 361l-135 -291
q28 -10 47 -10q21 0 36.5 6t31 24t24 57.5t8.5 98.5q0 58 -12 115z" />
    <glyph glyph-name="ugrave" unicode="&#xf9;" horiz-adv-x="460" 
d="M57 493h102v-313q0 -26 0.5 -38.5t3 -29.5t8.5 -24t17 -12.5t28 -5.5q24 0 40 11.5t24.5 26.5t12.5 44.5t4.5 48t0.5 55.5v237h102v-493h-94v74q-13 -26 -22.5 -40t-37 -30t-65.5 -16q-30 0 -52 7.5t-35 24t-21 32t-11.5 41.5t-4 41.5t-0.5 43.5v315zM305 590l-37 -38
l-172 108l53 67z" />
    <glyph glyph-name="uacute" unicode="&#xfa;" horiz-adv-x="460" 
d="M57 493h102v-313q0 -26 0.5 -38.5t3 -29.5t8.5 -24t17 -12.5t28 -5.5q24 0 40 11.5t24.5 26.5t12.5 44.5t4.5 48t0.5 55.5v237h102v-493h-94v74q-13 -26 -22.5 -40t-37 -30t-65.5 -16q-30 0 -52 7.5t-35 24t-21 32t-11.5 41.5t-4 41.5t-0.5 43.5v315zM182 590l156 137
l53 -67l-172 -108z" />
    <glyph glyph-name="ucircumflex" unicode="&#xfb;" horiz-adv-x="460" 
d="M57 493h102v-313q0 -26 0.5 -38.5t3 -29.5t8.5 -24t17 -12.5t28 -5.5q24 0 40 11.5t24.5 26.5t12.5 44.5t4.5 48t0.5 55.5v237h102v-493h-94v74q-13 -26 -22.5 -40t-37 -30t-65.5 -16q-30 0 -52 7.5t-35 24t-21 32t-11.5 41.5t-4 41.5t-0.5 43.5v315zM56 563l174 134
l174 -134l-86 -7l-88 59l-88 -59z" />
    <glyph glyph-name="udieresis" unicode="&#xfc;" horiz-adv-x="460" 
d="M57 493h102v-313q0 -26 0.5 -38.5t3 -29.5t8.5 -24t17 -12.5t28 -5.5q24 0 40 11.5t24.5 26.5t12.5 44.5t4.5 48t0.5 55.5v237h102v-493h-94v74q-13 -26 -22.5 -40t-37 -30t-65.5 -16q-30 0 -52 7.5t-35 24t-21 32t-11.5 41.5t-4 41.5t-0.5 43.5v315zM152 568
q-19 0 -36 13.5t-17 36.5q0 22 16 36.5t37 14.5t37 -14.5t16 -36.5q0 -23 -17 -36.5t-36 -13.5zM308 568q-19 0 -36 14t-17 36t16 36.5t37 14.5t37 -14.5t16 -36.5q0 -23 -17 -36.5t-36 -13.5z" />
    <glyph glyph-name="yacute" unicode="&#xfd;" horiz-adv-x="358" 
d="M0 493h102l86 -338l88 338h92l-160 -524q-9 -30 -15 -45.5t-18 -38.5t-25 -34t-35 -19.5t-50 -8.5q-21 0 -53 6v82q18 -3 36 -3q41 0 57 20t35 88zM131 590l156 137l53 -67l-172 -108z" />
    <glyph glyph-name="thorn" unicode="&#xfe;" horiz-adv-x="477" 
d="M59 667h101v-250q9 17 15.5 27.5t21 26t35 23.5t46.5 8q72 0 118 -65t46 -183q0 -151 -68 -222q-39 -41 -103 -41q-30 0 -54 11t-33.5 21.5t-22.5 27.5l-1 -218h-101v834zM160 288v-82q0 -70 19 -100q25 -38 68 -38q47 0 67 46t20 137q0 176 -83 176q-41 0 -66 -43
t-25 -96z" />
    <glyph glyph-name="ydieresis" unicode="&#xff;" horiz-adv-x="358" 
d="M0 493h102l86 -338l88 338h92l-160 -524q-9 -30 -15 -45.5t-18 -38.5t-25 -34t-35 -19.5t-50 -8.5q-21 0 -53 6v82q18 -3 36 -3q41 0 57 20t35 88zM101 568q-19 0 -36 13.5t-17 36.5q0 22 16 36.5t37 14.5t37 -14.5t16 -36.5q0 -23 -17 -36.5t-36 -13.5zM257 568
q-19 0 -36 14t-17 36t16 36.5t37 14.5t37 -14.5t16 -36.5q0 -23 -17 -36.5t-36 -13.5z" />
    <glyph glyph-name="dotlessi" unicode="&#x131;" horiz-adv-x="222" 
d="M60 493h102v-493h-102v493z" />
    <glyph glyph-name="Lslash" unicode="&#x141;" horiz-adv-x="409" 
d="M64 667h110v-261l117 118v-103l-117 -117v-211h236v-93h-346v231l-57 -57v102l57 57v334z" />
    <glyph glyph-name="lslash" unicode="&#x142;" horiz-adv-x="238" 
d="M68 667h102v-245l63 64v-82l-63 -63v-341h-102v277l-63 -64v82l63 63v309z" />
    <glyph glyph-name="OE" unicode="&#x152;" horiz-adv-x="801" 
d="M789 667v-88h-278v-192h218v-88h-218v-209h280v-90h-383v62q-16 -23 -27.5 -35.5t-39 -25.5t-64.5 -13q-115 0 -180 101q-56 87 -56 241q0 201 87 288q61 61 154 61q35 0 63.5 -13t40 -25t25.5 -30v56h378zM405 169v338q-9 17 -15 27t-19.5 24.5t-34 22t-47.5 7.5
q-61 0 -89 -46q-42 -68 -42 -223q0 -240 133 -240q81 0 114 90z" />
    <glyph glyph-name="oe" unicode="&#x153;" horiz-adv-x="716" 
d="M691 231h-277q0 -30 2 -50t9.5 -51t29 -48t54.5 -17q23 0 39 8.5t25 25t13 28t8 30.5l93 -13l-8.5 -31.5t-17.5 -38.5t-32 -42.5t-50.5 -30t-73.5 -13.5q-89 0 -142 73q-52 -73 -137 -73q-55 0 -94 22.5t-59 62t-28.5 81.5t-8.5 92q0 48 8 89.5t27.5 82t59 64t95.5 23.5
q93 0 143 -74q16 21 27.5 33t42 26.5t68.5 14.5q54 0 92 -25.5t56 -60.5q16 -31 24 -66.5t9.5 -58t2.5 -63.5zM229 428q-44 0 -64.5 -44.5t-20.5 -137.5q0 -95 20.5 -138t64.5 -43q47 0 65.5 48t18.5 133q0 55 -6 92.5t-25.5 63.5t-52.5 26zM416 300h171q1 56 -18.5 93
t-64.5 37q-78 0 -88 -130z" />
    <glyph glyph-name="Scaron" unicode="&#x160;" 
d="M461 518l-94 -33q-17 52 -43.5 77.5t-74.5 25.5q-47 0 -69 -27t-22 -57q0 -22 8 -37.5t30.5 -29.5t39 -21.5t55.5 -22.5q32 -12 50 -20t48 -26t46.5 -37t29.5 -50.5t13 -69.5q0 -81 -57.5 -141.5t-166.5 -60.5q-53 0 -95 16t-64 35.5t-39.5 50.5t-22.5 46.5t-10 37.5
l98 28l6.5 -25t13 -30.5t23.5 -33.5t37.5 -23.5t55.5 -10.5q60 0 84 31t24 65q0 43 -29 65.5t-85 43.5q-63 24 -89.5 36.5t-51.5 34.5q-60 52 -60 136q0 76 53 132t152 56q45 0 80.5 -13t55.5 -29.5t36.5 -43t22 -40.5t11.5 -35zM95 844l90 7l90 -50l90 50l90 -7l-180 -126z
" />
    <glyph glyph-name="scaron" unicode="&#x161;" horiz-adv-x="392" 
d="M357 378l-80 -22q-24 74 -83 74q-30 0 -47 -18t-17 -43q0 -22 12.5 -36t29 -21t57.5 -20q31 -10 49.5 -18t44.5 -25t39 -43.5t13 -61.5q0 -63 -47 -109.5t-134 -46.5q-43 0 -76 12t-50.5 27t-29.5 39t-15.5 35.5t-6.5 29.5l87 17q15 -85 95 -85q44 0 60.5 21.5t16.5 43.5
q0 17 -7 29.5t-22 21.5t-26 13t-32 11q-36 12 -54.5 19.5t-46.5 25t-41 43.5t-13 62q0 62 44.5 107t119.5 45q125 0 160 -127zM22 682l86 7l88 -60l88 60l86 -7l-174 -134z" />
    <glyph glyph-name="Ydieresis" unicode="&#x178;" horiz-adv-x="409" 
d="M-31 667h120l122 -278l124 278h106l-185 -385v-282h-110v282zM130 733q-20 0 -37.5 14t-17.5 37t17 38t38 15q23 0 39 -15t16 -37q0 -23 -17 -37.5t-38 -14.5zM290 733q-20 0 -37.5 14t-17.5 38q0 22 16.5 37t38.5 15t38.5 -15t16.5 -38t-17.5 -37t-37.5 -14z" />
    <glyph glyph-name="Zcaron" unicode="&#x17d;" horiz-adv-x="426" 
d="M19 667h400v-77l-296 -497h303v-93h-425v85l292 492h-274v90zM30 844l90 7l90 -50l90 50l90 -7l-180 -126z" />
    <glyph glyph-name="zcaron" unicode="&#x17e;" horiz-adv-x="341" 
d="M32 493h300v-62l-208 -354h210v-77h-319v77l200 339h-183v77zM-3 682l86 7l88 -60l88 60l86 -7l-174 -134z" />
    <glyph glyph-name="florin" unicode="&#x192;" 
d="M302 460h101l-12 -82h-102l-50 -317q-6 -39 -12 -64t-19 -55.5t-31.5 -48t-49.5 -30t-72 -12.5q-14 0 -49 5l13 85q24 -2 30 -2q46 0 63.5 24.5t30.5 104.5l49 310h-79l12 82h80l9 47t11 43.5t15.5 42.5t21.5 34t30.5 29t40.5 17t54 7q33 0 56 -6l-13 -82q-16 4 -30 4
q-49 0 -66.5 -28.5t-31.5 -107.5z" />
    <glyph glyph-name="circumflex" unicode="&#x2c6;" horiz-adv-x="500" 
d="M76 563l174 134l174 -134l-86 -7l-88 59l-88 -59z" />
    <glyph glyph-name="caron" unicode="&#x2c7;" horiz-adv-x="500" 
d="M76 682l86 7l88 -60l88 60l86 -7l-174 -134z" />
    <glyph glyph-name="uni02C9" unicode="&#x2c9;" horiz-adv-x="500" 
d="M115 650h270v-64h-270v64z" />
    <glyph glyph-name="breve" unicode="&#x2d8;" horiz-adv-x="500" 
d="M100 675h69q7 -24 19 -35q20 -20 62 -20q23 0 38.5 5t24 15t12 17t6.5 18h69q-5 -20 -10.5 -33t-21 -36.5t-45.5 -36.5t-73 -13q-35 0 -62 10t-41.5 22t-25.5 32t-14 29.5t-7 25.5z" />
    <glyph glyph-name="dotaccent" unicode="&#x2d9;" horiz-adv-x="500" 
d="M250 560q-22 0 -40.5 15.5t-18.5 41.5q0 25 17.5 42t41.5 17t41.5 -17t17.5 -42t-18.5 -41t-40.5 -16z" />
    <glyph glyph-name="ring" unicode="&#x2da;" horiz-adv-x="500" 
d="M250 544q-33 0 -62.5 24.5t-29.5 66.5q0 40 27.5 66.5t64.5 26.5t64.5 -26.5t27.5 -66.5q0 -41 -29 -66t-63 -25zM250 593q16 0 29 11.5t13 30.5t-12.5 31.5t-29.5 12.5q-16 0 -29 -12t-13 -31q0 -20 13 -31.5t29 -11.5z" />
    <glyph glyph-name="ogonek" unicode="&#x2db;" horiz-adv-x="500" 
d="M382 -122l9 -39q-33 -11 -66 -11q-56 0 -82 24.5t-26 57.5q0 52 66 89h45q-42 -39 -42 -75q0 -49 64 -49q20 0 32 3z" />
    <glyph glyph-name="tilde" unicode="&#x2dc;" horiz-adv-x="500" 
d="M359 669l42 -28q-46 -75 -100 -75q-25 0 -63 22q-35 20 -50 20q-10 0 -19.5 -6t-14.5 -11.5t-14 -18.5l-41 28q45 74 99 74q23 0 63 -21q36 -21 54 -21q23 0 44 37z" />
    <glyph glyph-name="hungarumlaut" unicode="&#x2dd;" horiz-adv-x="500" 
d="M272 713l54 -57l-135 -104l-31 33zM411 713l53 -57l-135 -104l-31 33z" />
    <glyph glyph-name="uni03A9" unicode="&#x3a9;" horiz-adv-x="652" 
d="M169 79v3q-51 48 -84 121t-33 161q0 134 78 223t198 89q82 0 145 -45.5t94 -114t31 -146.5q0 -91 -34 -166.5t-84 -121.5v-3h131v-79h-231v58q51 36 86 111t35 181q0 98 -46.5 171t-127.5 73q-80 0 -129 -70t-49 -178q0 -99 36 -177t86 -111v-58h-232v79h130z" />
    <glyph glyph-name="uni03BC" unicode="&#x3bc;" horiz-adv-x="460" 
d="M298 493h102v-493h-94v74q-6 -25 -11 -39t-22.5 -30.5t-44.5 -16.5q-20 0 -34.5 8t-23 23.5t-12 26.5t-7.5 28v-241h-94v660h102v-237q0 -117 13 -146q17 -40 56 -40q41 0 58 40q12 31 12 146v237z" />
    <glyph glyph-name="pi" unicode="&#x3c0;" horiz-adv-x="541" 
d="M518 415h-69v-276q0 -94 13 -139h-94q-15 30 -15 134v281h-144q-4 -95 -22 -221.5t-41 -193.5h-94q24 79 42 202t20 213q-65 0 -95 -11l-12 65q39 29 142 29h376z" />
    <glyph glyph-name="endash" unicode="&#x2013;" horiz-adv-x="409" 
d="M32 290h345v-79h-345v79z" />
    <glyph glyph-name="emdash" unicode="&#x2014;" horiz-adv-x="630" 
d="M31 290h568v-79h-568v79z" />
    <glyph glyph-name="quoteleft" unicode="&#x2018;" horiz-adv-x="221" 
d="M159 432h-106v121l67 125h49l-57 -122h47v-124z" />
    <glyph glyph-name="quoteright" unicode="&#x2019;" horiz-adv-x="221" 
d="M63 543v124h106v-121l-67 -125h-49l57 122h-47z" />
    <glyph glyph-name="quotesinglbase" unicode="&#x201a;" horiz-adv-x="221" 
d="M63 124h106v-121l-67 -125h-49l57 122h-47v124z" />
    <glyph glyph-name="quotedblleft" unicode="&#x201c;" horiz-adv-x="375" 
d="M310 432h-106v121l67 125h49l-57 -122h47v-124zM160 432h-106v121l67 125h49l-57 -122h47v-124z" />
    <glyph glyph-name="quotedblright" unicode="&#x201d;" horiz-adv-x="375" 
d="M64 667h106v-121l-67 -125h-49l57 122h-47v124zM214 667h106v-121l-67 -125h-49l57 122h-47v124z" />
    <glyph glyph-name="quotedblbase" unicode="&#x201e;" horiz-adv-x="375" 
d="M64 124h106v-121l-67 -125h-49l57 122h-47v124zM214 124h106v-121l-67 -125h-49l57 122h-47v124z" />
    <glyph glyph-name="dagger" unicode="&#x2020;" 
d="M207 667h97v-188h147v-87h-147v-559h-97v559h-147v87h147v188z" />
    <glyph glyph-name="daggerdbl" unicode="&#x2021;" 
d="M207 667h97v-188h147v-87h-147v-284h147v-87h-147v-188h-97v188h-147v87h147v284h-147v87h147v188z" />
    <glyph glyph-name="bullet" unicode="&#x2022;" horiz-adv-x="121" 
d="M0 409h121v-137h-121v137z" />
    <glyph glyph-name="ellipsis" unicode="&#x2026;" horiz-adv-x="716" 
d="M64 126h111v-126h-111v126zM303 126h111v-126h-111v126zM542 126h111v-126h-111v126z" />
    <glyph glyph-name="perthousand" unicode="&#x2030;" horiz-adv-x="988" 
d="M174 673q60 0 95.5 -45.5t35.5 -126.5q0 -86 -36.5 -129.5t-94.5 -43.5q-59 0 -95.5 44.5t-36.5 128.5q0 82 36 127t96 45zM174 612q-25 0 -39.5 -22.5t-14.5 -88.5q0 -65 14.5 -88.5t39.5 -23.5q53 0 53 112q0 111 -53 111zM508 339q59 0 95 -45t36 -128q0 -82 -36 -127
t-95 -45q-60 0 -95.5 45t-35.5 127q0 85 36 129t95 44zM508 278q-26 0 -40 -24.5t-14 -88.5q0 -46 9 -73q13 -37 45 -37q26 0 39.5 24.5t13.5 86.5q0 112 -53 112zM814 339q59 0 95 -45t36 -128t-36.5 -127.5t-94.5 -44.5q-60 0 -95.5 45.5t-35.5 126.5q0 84 36 128.5
t95 44.5zM814 278q-53 0 -53 -113q0 -45 9 -73q12 -37 44 -37q26 0 39.5 24.5t13.5 86.5q0 112 -53 112zM471 667h66l-325 -667h-66z" />
    <glyph glyph-name="guilsinglleft" unicode="&#x2039;" horiz-adv-x="239" 
d="M195 97h-57l-94 159l94 160h57l-53 -160z" />
    <glyph glyph-name="guilsinglright" unicode="&#x203a;" horiz-adv-x="239" 
d="M44 416h57l94 -160l-94 -159h-57l52 159z" />
    <glyph glyph-name="fraction" unicode="&#x2044;" horiz-adv-x="85" 
d="M169 667h72l-325 -667h-72z" />
    <glyph glyph-name="Euro" unicode="&#x20ac;" 
d="M505 491l-94 -15q-6 29 -11.5 46t-16 37t-28.5 29t-43 9q-48 0 -73 -38.5t-32 -126.5h165l-10 -61h-158q0 -7 -0.5 -21t-0.5 -22v-22h148l-10 -61h-135q7 -90 32.5 -132.5t73.5 -42.5q37 0 61.5 25t36.5 89l93 -14q-22 -102 -72 -142t-134 -40q-86 0 -139.5 65.5
t-64.5 191.5h-79l10 61h65v28q0 7 0.5 19t0.5 18h-76l10 61h70q29 247 218 247q85 0 130 -46.5t63 -141.5z" />
    <glyph glyph-name="afii61289" unicode="&#x2113;" horiz-adv-x="461" 
d="M401 157l41 -40q-62 -125 -182 -125q-77 0 -116 46.5t-44 120.5q0 7 -1 11q-5 -4 -22.5 -19t-27.5 -22l-25 53l33.5 29l41.5 37v251q0 119 44 176.5t111 57.5q60 0 90.5 -45t30.5 -117q0 -154 -184 -338v-38q1 -63 26 -94.5t64 -31.5q37 0 68 25.5t52 62.5zM191 500v-175
q123 144 123 249q0 88 -57 88q-27 0 -46.5 -38.5t-19.5 -123.5z" />
    <glyph glyph-name="trademark" unicode="&#x2122;" horiz-adv-x="716" 
d="M99 287v321h-84v59h244v-59h-86v-321h-74zM289 287v380h109l70 -273l74 273h106v-380h-69v319l-87 -319h-59l-82 320v-320h-62z" />
    <glyph glyph-name="Omega" unicode="&#x2126;" horiz-adv-x="652" 
d="M169 79v3q-51 48 -84 121t-33 161q0 134 78 223t198 89q82 0 145 -45.5t94 -114t31 -146.5q0 -91 -34 -166.5t-84 -121.5v-3h131v-79h-231v58q51 36 86 111t35 181q0 98 -46.5 171t-127.5 73q-80 0 -129 -70t-49 -178q0 -99 36 -177t86 -111v-58h-232v79h130z" />
    <glyph glyph-name="estimated" unicode="&#x212e;" horiz-adv-x="833" 
d="M800 324h-622q-5 0 -5 -4v-188q0 -12 8 -22q100 -102 236 -102q73 0 137 30.5t110 83.5h55q-52 -61 -132 -97t-171 -36q-159 0 -271.5 101t-112.5 243q0 143 112.5 244.5t271.5 101.5t271.5 -101.5t112.5 -244.5v-9zM659 348v189q0 14 -9 23q-101 98 -233 98
q-134 0 -235 -101q-9 -9 -9 -24v-185q0 -6 5 -6h477q4 0 4 6z" />
    <glyph glyph-name="partialdiff" unicode="&#x2202;" horiz-adv-x="518" 
d="M95 623l-29 73q67 54 162 54q102 0 173 -93.5t71 -267.5q0 -180 -66 -288.5t-184 -108.5q-88 0 -136.5 67.5t-48.5 155.5q0 111 58 179t140 68q52 0 89 -26t52 -54h1q1 9 1 36q0 106 -46 178.5t-116 72.5q-69 0 -121 -46zM231 74h1q54 0 90.5 66t45.5 155
q-10 32 -41 60.5t-74 28.5q-51 0 -86 -51t-35 -121q0 -60 27.5 -99t71.5 -39z" />
    <glyph glyph-name="Delta" unicode="&#x2206;" horiz-adv-x="600" 
d="M27 0v60l219 622h113l213 -620v-62h-545zM125 79h345l-114 317q-6 22 -28 86.5t-28 87.5h-3q-4 -18 -24 -76.5t-27 -83.5z" />
    <glyph glyph-name="product" unicode="&#x220f;" horiz-adv-x="655" 
d="M631 577h-96v-669h-95v669h-225v-669h-95v669h-96v89h607v-89z" />
    <glyph glyph-name="summation" unicode="&#x2211;" 
d="M492 -92h-470v64l233 315l-224 311v68h447v-83h-318v-3l204 -277l-224 -301v-2h352v-92z" />
    <glyph glyph-name="minus" unicode="&#x2212;" 
d="M460 293h-409v81h409v-81z" />
    <glyph glyph-name="uni2215" unicode="&#x2215;" horiz-adv-x="85" 
d="M169 667h72l-325 -667h-72z" />
    <glyph glyph-name="uni2219" unicode="&#x2219;" horiz-adv-x="239" 
d="M64 320h111v-126h-111v126z" />
    <glyph glyph-name="radical" unicode="&#x221a;" horiz-adv-x="540" 
d="M542 796l-205 -933h-80l-141 429l-69 -27l-16 56l144 58l104 -324q3 -12 9 -39t8 -38l2 -1q10 64 13 81l163 738h68z" />
    <glyph glyph-name="infinity" unicode="&#x221e;" horiz-adv-x="726" 
d="M679 276v-1q0 -70 -43.5 -113t-102.5 -43q-43 0 -82 25t-87 83q-44 -53 -83.5 -80.5t-91.5 -27.5q-58 0 -100.5 43.5t-42.5 108.5q0 68 42.5 111.5t108.5 43.5q48 0 88 -27.5t82 -79.5q3 3 8 9q28 31 45 47.5t50 33.5t69 17q61 0 100.5 -41.5t39.5 -108.5zM197 175h1
q20 0 38 7t38.5 26t28 26.5t30.5 34.5q-49 62 -73 80q-32 23 -68 23q-41 0 -65 -29t-24 -73q1 -40 27.5 -67.5t66.5 -27.5zM533 372h-1q-17 0 -33 -6t-32.5 -19.5t-25.5 -22t-25.5 -28t-19.5 -22.5q48 -56 76.5 -77.5t62.5 -21.5q40 0 63.5 29.5t23.5 66.5q0 45 -25 73
t-64 28z" />
    <glyph glyph-name="integral" unicode="&#x222b;" horiz-adv-x="354" 
d="M334 807l-12 -67q-20 9 -33 9q-30 0 -47 -24q-28 -36 -28 -165q0 -75 6.5 -229.5t6.5 -238.5q0 -130 -36 -192q-32 -59 -108 -59q-40 0 -66 15l14 70q20 -10 40 -10q28 0 42 20q28 38 28 155q0 84 -6.5 242.5t-6.5 235.5q0 82 12 130.5t40 78.5q37 41 100 41q32 0 54 -12
z" />
    <glyph glyph-name="approxequal" unicode="&#x2248;" horiz-adv-x="513" 
d="M438 419l36 -32q-48 -94 -123 -94q-40 0 -105 38q-53 32 -83 32q-20 0 -37 -11.5t-26.5 -23t-24.5 -34.5l-37 32q22 43 56 68t75 25q9 0 18 -1t18 -4t14.5 -4.5t15 -6.5l12.5 -6.5t12.5 -7.5t10.5 -6q4 -2 14.5 -8.5t14.5 -8.5l12.5 -6t14 -5.5t13 -3t14.5 -1.5
q26 0 45.5 17t39.5 52zM438 251l36 -32q-48 -93 -123 -93q-41 0 -105 38q-52 32 -83 32q-28 0 -47.5 -18t-40.5 -51l-37 32q22 42 56.5 67.5t74.5 25.5q13 0 25 -2t24 -7t18 -8t18 -10t15 -8q4 -2 20.5 -11.5t22.5 -12.5t18 -6.5t23 -3.5q26 0 44.5 16.5t40.5 51.5z" />
    <glyph glyph-name="notequal" unicode="&#x2260;" horiz-adv-x="513" 
d="M372 481l-39 -87h134v-58h-156l-58 -131h214v-58h-236l-48 -108l-46 20l40 88h-131v58h153l58 131h-211v58h233l47 106z" />
    <glyph glyph-name="lessequal" unicode="&#x2264;" horiz-adv-x="513" 
d="M465 94l-414 210v63l413 210v-69l-354 -171v-2l355 -172v-69zM468 -2h-422v59h422v-59z" />
    <glyph glyph-name="greaterequal" unicode="&#x2265;" horiz-adv-x="513" 
d="M52 577l414 -210v-63l-414 -210v69l355 172v2l-355 171v69zM467 -2h-420v59h420v-59z" />
    <glyph glyph-name="lozenge" unicode="&#x25ca;" horiz-adv-x="540" 
d="M491 332l-185 -376h-77l-180 376l184 378h77zM405 330l-116 243q-11 29 -18 56h-3q-7 -30 -18 -56l-116 -238l117 -247q12 -29 16 -53h4q7 32 16 52z" />
    </font>
</defs>
</svg>
