<?xml version="1.0" standalone="no"?>
<!DOCTYPE svg PUBLIC "-//W3C//DTD SVG 1.1//EN" "http://www.w3.org/Graphics/SVG/1.1/DTD/svg11.dtd" >
<svg xmlns="http://www.w3.org/2000/svg">
<metadata></metadata>
<defs>
<font id="callunabold" horiz-adv-x="1064" >
<font-face units-per-em="2048" ascent="1536" descent="-512" />
<missing-glyph horiz-adv-x="444" />
<glyph unicode="&#xfb01;" horiz-adv-x="1251" d="M57 801v88l125 45v53q0 241 132 381.5t374 140.5q39 0 81 -5.5t92 -19t82 -44t32 -74.5t-32.5 -76.5t-76.5 -32.5q-30 0 -58.5 16t-53 39t-49.5 46t-58 39t-69 16q-72 0 -103 -87.5t-31 -283.5v-114h344q162 0 302 57l6 -6q-19 -68 -19 -234v-548q0 -27 -2.5 -55 t-4.5 -42l-3 -14l174 -18l-8 -62l-545 -12v69q127 14 127 134v479q0 38 -1.5 57.5t-7 40.5t-18.5 29t-34 8h-285l-25 -25v-589q0 -27 -2.5 -55t-5.5 -42l-2 -14l121 -18l-8 -62l-481 -12v69q116 14 116 134v604h-125z" />
<glyph unicode="&#xfb02;" horiz-adv-x="1253" d="M57 801v88l125 45v63q0 146 63 264t169 183t231 65q133 0 229 -41q74 18 128.5 34t71.5 23l18 7l6 -6q-21 -74 -21 -232v-1097q0 -27 -2.5 -55t-4.5 -42l-3 -14l164 -18l-8 -62l-525 -12v69q117 14 117 134v1030q0 37 -2 53q-42 7 -90 38t-89 58t-69 27q-66 0 -93.5 -84 t-27.5 -277v-110h236l-21 -125h-190l-25 -25v-585q0 -27 -2.5 -55t-5.5 -42l-2 -14l131 -18l-8 -62l-491 -12v69q116 14 116 134v604h-125z" />
<glyph unicode="&#xfb03;" horiz-adv-x="1884" d="M57 801v88l125 45v27q0 214 137 351.5t359 137.5q73 0 152.5 -20t115.5 -62q135 141 365 141q45 0 88.5 -5.5t94.5 -19t82.5 -44t31.5 -74.5t-32.5 -76.5t-76.5 -32.5q-35 0 -72 24.5t-64 53.5t-67.5 53.5t-81.5 24.5q-74 0 -105.5 -86.5t-31.5 -284.5v-114h344 q145 0 301 57l7 -6q-19 -68 -19 -234v-548q0 -27 -2.5 -55t-5.5 -42l-2 -14l174 -18l-8 -62l-545 -12v69q127 14 127 134v479q0 37 -1.5 57.5t-7.5 40.5t-18.5 28.5t-34.5 8.5h-284l-25 -25v-589q0 -27 -2.5 -55t-4.5 -42l-3 -14l121 -18l-8 -62l-482 -12v69q117 14 117 134 v614h-346l-25 -25v-589q0 -27 -2.5 -55t-5.5 -42l-2 -14l131 -18l-8 -62l-491 -12v69q116 14 116 134v604h-125zM444 928h371v59q0 125 37 223q-35 1 -74 22t-68 46.5t-67.5 46.5t-73.5 21q-68 0 -96.5 -81t-28.5 -270v-67z" />
<glyph unicode="&#xfb04;" horiz-adv-x="1886" d="M57 801v88l125 45v27q0 214 137 351.5t359 137.5q76 0 157 -20t115 -66q63 69 148 107t180 38q133 0 229 -41q74 18 128 34t71 23l18 7l7 -6q-21 -74 -21 -232v-1097q0 -27 -2.5 -55t-5.5 -42l-2 -14l164 -18l-9 -62l-524 -12v69q117 14 117 134v1030q0 37 -2 53 q-42 7 -90 38t-89 58t-69 27q-66 0 -93.5 -84t-27.5 -277v-110h236l-21 -125h-190l-25 -25v-585q0 -27 -2.5 -55t-4.5 -42l-3 -14l131 -18l-8 -62l-492 -12v69q117 14 117 134v614h-346l-25 -25v-589q0 -27 -2.5 -55t-5.5 -42l-2 -14l131 -18l-8 -62l-491 -12v69 q116 14 116 134v604h-125zM444 928h371v69q0 115 39 213q-35 0 -74 21t-68.5 47t-68.5 47t-74 21q-68 0 -96.5 -81t-28.5 -270v-67z" />
<glyph horiz-adv-x="2048" />
<glyph horiz-adv-x="2048" />
<glyph unicode="&#xd;" horiz-adv-x="2048" />
<glyph unicode=" "  horiz-adv-x="444" />
<glyph unicode="&#x09;" horiz-adv-x="444" />
<glyph unicode="&#xa0;" horiz-adv-x="444" />
<glyph unicode="!" horiz-adv-x="610" d="M127 1350q81 16 168.5 37t134.5 34l47 13l12 -17q-31 -75 -51 -241l-104 -756h-76zM135 133q0 66 46.5 113t111.5 47q66 0 113 -47t47 -113q0 -65 -47 -111.5t-113 -46.5q-65 0 -111.5 46.5t-46.5 111.5z" />
<glyph unicode="&#x22;" horiz-adv-x="778" d="M109 821v545h237v-76l-108 -469h-129zM479 821v545h238v-76l-109 -469h-129z" />
<glyph unicode="#" horiz-adv-x="1366" d="M61 250l21 123h272l58 278h-271l21 123h274l84 410h129l-84 -410h312l84 410h129l-84 -410h294l-20 -123h-299l-57 -278h297l-21 -123h-301l-88 -432h-131l88 432h-309l-88 -432h-131l88 432h-267zM483 373h312l57 278h-311z" />
<glyph unicode="$" horiz-adv-x="915" d="M57 166q0 38 56 211h71q0 -74 18 -130.5t49 -89.5t66 -51t76 -24l15 362q-46 22 -69 34t-64.5 36t-64.5 42.5t-53 48.5t-45 59t-26.5 68t-11.5 83q0 135 93 228t269 110l8 170h93l-9 -166q90 -2 308 -35l-60 -305h-71q7 227 -181 244l-12 -350q141 -65 197 -104 q150 -107 151 -275q0 -153 -104.5 -242.5t-274.5 -101.5l-6 -170h-92l6 170q-61 2 -117.5 14t-106 32.5t-79 54.5t-29.5 77zM291 915q0 -52 33 -89.5t96 -71.5l12 303q-66 -10 -103.5 -48t-37.5 -94zM485 82q69 10 113.5 47t44.5 98q0 54 -37 94t-106 78z" />
<glyph unicode="%" horiz-adv-x="1554" d="M63 1044q0 133 99 227.5t237 94.5t237 -94.5t99 -227.5t-99 -228t-237 -95t-237 95t-99 228zM231 1044q0 -74 50.5 -131t117.5 -57t117.5 57t50.5 131t-50.5 131.5t-117.5 57.5t-117.5 -57.5t-50.5 -131.5zM240 0l964 1389l90 -60l-923 -1329h-131zM821 299 q0 133 99 227.5t237 94.5t237 -94.5t99 -227.5t-99 -228.5t-237 -95.5t-237 95.5t-99 228.5zM989 299q0 -74 50.5 -131t117.5 -57t117.5 57t50.5 131t-50.5 131t-117.5 57t-117.5 -57t-50.5 -131z" />
<glyph unicode="&#x26;" horiz-adv-x="1394" d="M55 317q0 100 75 190t224 183q-114 211 -114 383q0 59 23 114t67.5 101.5t118.5 74.5t167 28q155 0 252 -67t97 -194q0 -177 -320 -393q132 -212 336 -432q80 99 126 219t46 211q0 65 -32 96t-101 39v62h313l10 -31q-14 -22 -25 -51t-25.5 -80t-20.5 -70 q-90 -295 -225 -464q104 -107 194.5 -184t138.5 -101l-28 -53q-216 23 -457 190q-161 -113 -371 -113q-69 0 -134 11.5t-126.5 38t-107.5 65t-73.5 97t-27.5 130.5zM305 395q0 -150 86.5 -222.5t222.5 -72.5q98 0 195 54q-249 198 -406 450q-98 -82 -98 -209zM498 1135 q0 -131 102 -320q71 59 103 130t32 175q0 71 -33.5 125.5t-95.5 54.5q-54 0 -81 -48.5t-27 -116.5z" />
<glyph unicode="'" horiz-adv-x="407" d="M109 821v545h237v-76l-108 -469h-129z" />
<glyph unicode="(" horiz-adv-x="579" d="M66 553q0 110 19.5 217.5t51.5 191.5t70 160t76 130t70 94t51 60l20 19l82 -34q-10 -14 -25.5 -40.5t-56 -113t-71 -178.5t-56 -230.5t-25.5 -275.5q0 -150 29 -297.5t71 -250t83.5 -183.5t70.5 -120l29 -40l-80 -43q-9 8 -23.5 22t-57 63t-81 102.5t-86 138t-81 172.5 t-57 203.5t-23.5 232.5z" />
<glyph unicode=")" horiz-adv-x="577" d="M31 -338q11 14 29.5 41.5t65.5 117.5t82.5 187t65 246t29.5 299q0 137 -23 272.5t-55.5 231t-65.5 172t-56 113.5l-23 38l82 45q7 -7 19.5 -20t49 -58.5t69 -95.5t73 -128.5t69 -161t48.5 -190.5t20 -218q0 -117 -22 -231.5t-57 -204.5t-77.5 -171.5t-85.5 -139.5 t-78 -101.5t-57 -64.5l-22 -21z" />
<glyph unicode="*" horiz-adv-x="1032" d="M106 1081q-3 26 6 55.5t23 53.5q23 40 60.5 68.5t58.5 3.5l162 -199q11 -13 18.5 -26t9.5 -20l2 -7q-26 -6 -61 0l-254 41q-22 4 -25 30zM106.5 861q3.5 26 26.5 30l252 41q16 3 31.5 3t22.5 -1l7 -2q-7 -26 -30 -53l-162 -199q-21 -25 -58.5 3.5t-60.5 68.5 q-14 24 -23 53.5t-5.5 55.5zM391 600l92 240q5 15 13 28t13 19l5 6q19 -18 31 -53l92 -240q11 -30 -33 -49t-90 -19t-90 19t-33 49zM391 1341q-11 30 33 49t90 19t90 -19t33 -49l-92 -239q-5 -16 -13 -29t-13 -19l-5 -5q-19 20 -31 53zM582 932q24 6 61 0l254 -41 q22 -4 25 -30t-6 -55.5t-23 -53.5q-23 -40 -60.5 -68.5t-58.5 -3.5l-162 199q-10 12 -17.5 25.5t-10.5 20.5zM582 1010q5 24 30 53l162 199q21 25 58.5 -3.5t60.5 -68.5q14 -24 23 -53.5t5.5 -55.5t-26.5 -30l-252 -41q-16 -3 -31 -3t-22 1z" />
<glyph unicode="+" d="M63 451v145h396v424h153v-424h389v-145h-389v-451h-153v451h-396z" />
<glyph unicode="," horiz-adv-x="487" d="M74 -317q83 76 119 125.5t36 107.5q0 93 -141 186v105l203 106q110 -135 110 -272q0 -120 -69 -222.5t-193 -209.5z" />
<glyph unicode="-" horiz-adv-x="765" d="M111 440v164h544v-164h-544z" />
<glyph unicode="." horiz-adv-x="501" d="M92 133q0 66 46.5 113t111.5 47q66 0 113 -47t47 -113q0 -65 -47 -111.5t-113 -46.5q-64 0 -111 46.5t-47 111.5z" />
<glyph unicode="/" horiz-adv-x="716" d="M-70 -401l682 1767h162l-680 -1767h-164z" />
<glyph unicode="0" horiz-adv-x="1173" d="M96 475q0 97 32.5 189t93.5 167t159 120.5t219 45.5q115 0 207.5 -41t150.5 -110t88.5 -155t30.5 -181q0 -78 -20 -154t-61.5 -145t-100 -121.5t-142 -83.5t-180.5 -31q-115 0 -207.5 42.5t-150.5 114t-88.5 159.5t-30.5 184zM358 481q0 -75 12.5 -139.5t38 -118.5 t71 -85.5t106.5 -31.5q62 0 108 31.5t71.5 86.5t37.5 119.5t12 139.5q0 76 -12 142t-38 121.5t-71 87.5t-106 32q-62 0 -108 -32.5t-72 -88.5t-38 -122t-12 -142z" />
<glyph unicode="1" horiz-adv-x="808" d="M88 893v80h627l-8 -76l-183 -23v-673q0 -27 -2.5 -54.5t-5.5 -40.5l-2 -14l211 -20l-8 -72l-619 -10v80q97 0 134.5 29.5t37.5 101.5v571q0 71 -37 96t-145 25z" />
<glyph unicode="2" horiz-adv-x="995" d="M80 78q18 16 62.5 53t72.5 61t72 64.5t72.5 72t62.5 75t53.5 82t33 83.5t13.5 88q0 85 -46 125.5t-120 40.5q-55 0 -116 -18t-107 -47l-45 57q6 7 18 19.5t51.5 44t81.5 55.5t106 43.5t128 19.5q136 0 227 -76.5t91 -189.5q0 -60 -27.5 -119.5t-90 -128.5t-130.5 -129.5 t-181 -152.5h267q43 0 75 9t51 22.5t34.5 36.5t23.5 42t18 49q1 3 1.5 5t1.5 5t2 5h90l-66 -375h-760z" />
<glyph unicode="3" horiz-adv-x="831" d="M25 -319q62 7 118 19.5t118 39t106 64t73 97t29 134.5q0 71 -24 122t-65 77t-86 37.5t-97 11.5l-60 -4v112q86 8 155 58.5t102.5 116.5t33.5 132q0 64 -37 104t-108 40q-50 0 -104 -21t-83 -42l-28 -21l-37 51q6 8 16.5 20.5t46 45t75 57t100.5 45t124 20.5 q131 0 221.5 -73t90.5 -187q0 -207 -340 -348q178 -17 282.5 -105t104.5 -225q0 -75 -31.5 -142.5t-84 -117t-120 -90t-141.5 -65.5t-146 -38.5t-135 -13.5l-57 2z" />
<glyph unicode="4" horiz-adv-x="1071" d="M27 131l551 817l227 51l10 -4q-16 -78 -16 -223v-547h225l-29 -166h-196v-329q0 -36 -2.5 -64t-5.5 -38l-3 -11l-249 -25l-9 7q11 46 11 120v340h-498zM215 225h326v371q0 57 8 135z" />
<glyph unicode="5" horiz-adv-x="854" d="M74 -319q196 14 321 107.5t125 234.5q0 55 -24.5 101.5t-63 77t-85.5 54.5t-94 37.5t-85.5 22.5t-63.5 12l-24 2l35 643h477q36 0 71.5 3t53.5 6l18 3l-28 -209h-496l-12 -211q12 -2 33 -6t81.5 -20t115.5 -37.5t122.5 -61t116 -86t81.5 -116.5t33 -150q0 -143 -90 -258 t-235 -176.5t-312 -61.5l-59 2z" />
<glyph unicode="6" horiz-adv-x="1073" d="M90 563q0 123 30 241t94.5 224.5t155 187t221 128t283.5 47.5l13 -82q-135 -21 -237 -89.5t-161.5 -170.5t-88.5 -221.5t-29 -254.5q0 -132 25 -245.5t77 -187.5t121 -74q78 0 120 84.5t42 211.5q0 43 -7 93t-24 107.5t-43 102t-68 72t-94 21.5l-16 84q24 12 66.5 20 t74.5 8q158 0 265.5 -115t107.5 -294q0 -90 -30 -175.5t-85.5 -155.5t-145 -112.5t-198.5 -42.5q-92 0 -169.5 31t-132 85.5t-93 129t-56.5 161t-18 181.5z" />
<glyph unicode="7" horiz-adv-x="991" d="M39 588l72 385h725q33 0 64.5 2t47.5 4l15 2l8 -59q-88 -158 -115 -217l-420 -938q-7 -15 -18.5 -42t-17 -39t-15.5 -31t-17.5 -27.5t-19 -18.5t-24.5 -13.5t-29 -3.5q-38 0 -63 26t-25 67q0 19 7 37t14 29t29.5 40.5t35.5 46.5q163 223 346 625l123 270q-78 -8 -135 -8 h-291q-103 0 -137.5 -22.5t-69.5 -114.5h-90z" />
<glyph unicode="8" horiz-adv-x="1060" d="M88 301q0 57 20 110.5t47 91t71.5 77t76.5 61.5t78 51q-117 102 -181.5 193.5t-64.5 197.5q0 136 112 222t296 86q176 0 278.5 -76.5t102.5 -198.5q0 -88 -60 -171.5t-188 -172.5q55 -48 88.5 -78.5t78 -79t69.5 -88t43 -90.5t18 -102q0 -154 -131 -256.5t-324 -102.5 q-63 0 -123.5 12t-116.5 38t-98 63t-67 92t-25 121zM315 350q0 -129 58.5 -206.5t146.5 -77.5q78 0 138.5 53.5t60.5 142.5q0 49 -20 96t-64 97t-80 84t-102 90q-67 -55 -102.5 -115.5t-35.5 -163.5zM385 1153q0 -41 16 -82t48.5 -82t65.5 -73.5t83 -77.5q46 46 70 113.5 t24 140.5q0 101 -44 154.5t-116 53.5q-63 0 -105 -40t-42 -107z" />
<glyph unicode="9" horiz-adv-x="1101" d="M102 514q0 70 18 139t55.5 131t90 109.5t127 75.5t160.5 28q113 0 203.5 -47.5t147 -129t86.5 -186t30 -222.5q0 -122 -30 -239t-94.5 -222.5t-155 -185t-221 -126.5t-283.5 -47l-13 82q135 21 237 88t161.5 167.5t88.5 217.5t29 250q0 132 -25.5 247t-77 189t-118.5 74 q-48 0 -83 -41t-51.5 -106t-16.5 -144q0 -44 5 -92.5t20.5 -107t39 -102.5t65 -70.5t93.5 -18.5l16 -84q-65 -28 -143 -28q-151 0 -256 113t-105 288z" />
<glyph unicode=":" horiz-adv-x="563" d="M123 133q0 66 46.5 113t111.5 47q66 0 112.5 -47t46.5 -113q0 -65 -46.5 -111.5t-112.5 -46.5q-65 0 -111.5 46.5t-46.5 111.5zM123 797q0 66 46.5 112.5t111.5 46.5q66 0 112.5 -46.5t46.5 -112.5q0 -65 -46.5 -111.5t-112.5 -46.5q-65 0 -111.5 46.5t-46.5 111.5z" />
<glyph unicode=";" horiz-adv-x="552" d="M111 797q0 66 46 112.5t111 46.5q66 0 113 -46.5t47 -112.5q0 -65 -47 -111.5t-113 -46.5q-64 0 -110.5 46.5t-46.5 111.5zM117 -317q83 76 119 125.5t36 107.5q0 93 -141 186v105l203 106q110 -135 110 -272q0 -120 -69 -222.5t-193 -209.5z" />
<glyph unicode="&#x3c;" d="M51 473v94l873 469l41 -149l-711 -367l711 -387l-41 -147z" />
<glyph unicode="=" d="M84 262v144h897v-144h-897zM84 621v143h897v-143h-897z" />
<glyph unicode="&#x3e;" d="M98 133l711 387l-711 367l41 149l873 -469v-94l-873 -487z" />
<glyph unicode="?" horiz-adv-x="759" d="M74 1184l53 268q13 -4 35 -12t86 -33.5t122 -52.5t128.5 -67.5t121.5 -80.5t86 -89.5t35 -96.5q0 -36 -22 -74t-57.5 -72.5t-78.5 -71.5t-85.5 -78.5t-78 -86t-57.5 -100.5t-22 -115h-72q-10 46 -10 113q0 63 18.5 119.5t45.5 95.5t54 72t45.5 64.5t18.5 57.5 q0 33 -37.5 69.5t-91.5 65.5t-108 53.5t-91 37.5zM150 133q0 66 46 113t111 47q66 0 113 -47t47 -113q0 -65 -47 -111.5t-113 -46.5q-64 0 -110.5 46.5t-46.5 111.5z" />
<glyph unicode="@" horiz-adv-x="1734" d="M47 381q0 168 70.5 324t189 271t282.5 184t341 69q205 0 373 -87t264 -242t96 -345q0 -71 -13.5 -141.5t-45 -141.5t-78.5 -126.5t-119.5 -94t-161.5 -47.5l-309 -31l-4 9q16 59 16 110v68q-103 -185 -254 -185q-47 0 -92.5 17.5t-90 56.5t-72 114t-27.5 177 q0 171 76 308t209.5 213.5t297.5 76.5q45 0 102.5 -6t92.5 -12l35 -7q-23 -90 -23 -172v-548q0 -97 68 -97q23 0 47 10.5t50 38.5t46.5 69.5t33.5 110t13 154.5q0 191 -64 335t-194.5 227t-312.5 83q-124 0 -228.5 -38.5t-178 -104.5t-125.5 -155.5t-76.5 -190.5t-24.5 -209 q0 -126 34 -241t97.5 -209.5t165 -157t227.5 -76.5l-20 -92q-202 8 -365.5 106.5t-255.5 263t-92 361.5zM690 395q0 -241 115 -241q56 0 135 61v627q-5 -1 -14 -3t-35 -14t-49.5 -29t-52.5 -52t-50 -80t-35 -115t-14 -154z" />
<glyph unicode="A" horiz-adv-x="1280" d="M-35 0v70q103 10 137 96l476 1190l124 26l449 -1165q29 -75 58.5 -109.5t84.5 -41.5l-8 -66h-84l-399 -8v80q48 2 73 21q15 12 15 32q0 13 -6 29l-97 264h-436l-35 -25l-114 -301l176 -22l-12 -70h-402zM371 530h379l-129 361q-27 72 -52 158z" />
<glyph unicode="B" horiz-adv-x="1280" d="M78 1305v61h526q265 0 392.5 -83.5t127.5 -215.5q0 -55 -23.5 -107.5t-55.5 -88.5t-75 -68.5t-71 -48.5t-55 -29q45 -10 87.5 -23.5t95.5 -41t91.5 -62.5t65 -91t26.5 -122q0 -167 -153.5 -276t-419.5 -109h-188l-351 -6v76q66 8 102 40t36 87v958q0 41 -3.5 61 t-20.5 38.5t-47 28.5t-87 22zM500 106h112q141 0 219 71t78 177q0 122 -90 208.5t-252 86.5h-32l-25 -24v-406q0 -27 -2.5 -55.5t-5.5 -43.5zM510 756h166q48 4 100.5 76t52.5 186q0 51 -12 92.5t-38 76.5t-73 54t-112 19h-59l-25 -25v-479z" />
<glyph unicode="C" horiz-adv-x="1404" d="M70 664q0 105 30.5 208.5t94 197t152.5 165t216 114t275 42.5q105 0 285.5 -28t197.5 -30l-61 -321h-80q-3 74 -33 129t-81.5 86.5t-114 46t-136.5 14.5q-119 0 -211 -44.5t-147 -121.5t-83 -172.5t-28 -204.5q0 -139 47 -252t126.5 -186t182.5 -112t218 -39 q66 0 131 14.5t110 35t81 41.5t54 35l17 15l35 -53q-7 -11 -20.5 -29t-63.5 -64.5t-108.5 -82t-156.5 -64.5t-206 -29q-132 0 -248.5 37.5t-202 103t-148 152.5t-93.5 188.5t-31 207.5z" />
<glyph unicode="D" horiz-adv-x="1544" d="M78 1305v61h608q129 0 243.5 -22.5t215.5 -72t173.5 -122t114.5 -178t42 -234.5q0 -172 -67.5 -313t-184 -233t-270 -141.5t-328.5 -49.5h-176l-351 -6v76q66 8 102 40t36 87v958q0 41 -3.5 61t-20.5 38.5t-47 28.5t-87 22zM500 106h125q267 0 406.5 147.5t139.5 424.5 q0 265 -126 423.5t-357 158.5h-153l-25 -25v-1014q0 -27 -2.5 -56t-5.5 -44z" />
<glyph unicode="E" horiz-adv-x="1226" d="M78 1305v61h891q37 0 76.5 2t60.5 4l20 2l-63 -362h-80q1 22 1 41q0 51 -8 87q-10 49 -39 75.5t-69 35.5t-106 9h-227l-25 -25v-485h342l16 118l86 13v-392h-106v154h-313l-25 -25v-397q0 -27 -2.5 -56t-5.5 -44l-2 -15h284q47 0 76.5 2.5t57.5 13t45 24t39 45t39.5 64.5 t45.5 93h80l-75 -348h-643l-351 -6v76q66 8 102 40t36 87v958q0 41 -3.5 61t-20.5 38.5t-47 28.5t-87 22z" />
<glyph unicode="F" horiz-adv-x="1134" d="M78 1305v61h891q37 0 76.5 2t60.5 4l20 2l-63 -362h-80q1 22 1 41q0 51 -8 87q-10 49 -39 75.5t-69 35.5t-106 9h-227l-25 -25v-494h342l16 119l86 12v-389h-106v152h-313l-25 -25v-407q0 -27 -2.5 -55t-5.5 -42l-2 -14l225 -18l-8 -68l-619 -12v76q65 8 101.5 43 t36.5 90v952q0 41 -3.5 61t-20.5 38.5t-47 28.5t-87 22z" />
<glyph unicode="G" horiz-adv-x="1468" d="M70 653q0 113 29.5 218.5t93.5 200.5t155.5 165.5t225.5 112t294 41.5q78 0 170.5 -9.5t184 -22.5t125.5 -16l-62 -331h-80q-1 65 -22.5 115t-55 79.5t-80 48.5t-91.5 26t-95 7q-121 0 -217.5 -47.5t-156 -129.5t-90.5 -186t-31 -223q0 -175 65.5 -313.5t189 -218.5 t285.5 -80q79 0 168 21v264q0 34 -2.5 51t-11.5 35t-30.5 27.5t-54.5 18.5t-89 17v62h518l10 -39q-3 -2 -8.5 -5t-19.5 -18t-24.5 -35t-19 -56.5t-8.5 -80.5v-323q-43 -3 -218.5 -28.5t-276.5 -25.5q-157 0 -296 45t-245 129t-167.5 214t-61.5 290z" />
<glyph unicode="H" horiz-adv-x="1673" d="M92 1305v61h150q114 0 194.5 2t104.5 4l24 2l10 -8q-3 -4 -7.5 -10.5t-16 -31t-20.5 -52t-16 -72t-7 -92.5v-356h649l25 24v379q0 30 -0.5 43.5t-5 31.5t-12.5 25.5t-24.5 18t-40 17t-59.5 14.5v61h150q114 0 194.5 2t104.5 4l24 2l11 -8q-3 -4 -7.5 -10.5t-16 -31 t-20.5 -52t-16.5 -72t-7.5 -92.5v-905q0 -27 -2.5 -55t-5.5 -42l-2 -14l174 -18l-8 -68l-568 -12v76q64 8 101 41.5t37 85.5v442h-650l-24 -25v-411q0 -27 -2.5 -55t-5.5 -42l-2 -14l174 -18l-8 -68l-568 -12v76q65 8 101 43t36 90v952q0 31 -0.5 44t-5 31t-12 25.5t-24 18 t-40 17t-59.5 14.5z" />
<glyph unicode="I" horiz-adv-x="724" d="M92 1305v61h150q114 0 194.5 2t104.5 4l24 2l10 -8q-3 -4 -7.5 -10.5t-16 -31t-20.5 -52t-16 -72t-7 -92.5v-905q0 -27 -2.5 -55t-5.5 -42l-2 -14l174 -18l-8 -68l-568 -12v76q65 8 101 43t36 90v952q0 31 -0.5 44t-5 31t-12 25.5t-24 18t-40 17t-59.5 14.5z" />
<glyph unicode="J" horiz-adv-x="675" d="M-6 -274q89 12 155 131.5t66 285.5v1012q0 31 -0.5 44t-5 31t-12 25.5t-24 18t-40 17t-59.5 14.5v61h149q115 0 196 2t105 4l23 2l10 -8q-8 -9 -19 -26.5t-30 -81.5t-19 -140v-817q0 -295 -125 -465t-346 -170z" />
<glyph unicode="K" horiz-adv-x="1398" d="M92 1305v61h150q115 0 195.5 2t104.5 4l23 2l10 -8q-3 -3 -7.5 -9.5t-16 -29t-20.5 -48.5t-16 -69.5t-7 -91.5v-360h37q59 37 98 78l356 368q20 21 24.5 40.5t-17 36.5t-72.5 24v61h409l13 -39q-14 -5 -37.5 -14.5t-82 -44.5t-99.5 -78l-351 -365v-34l461 -596 q57 -74 84 -94t68 -23l22 -2l-8 -76h-393l-8 8q-2 7 -7.5 21.5t-39 70t-86.5 123.5l-330 426h-41v-452q0 -26 -2.5 -52.5t-5.5 -39.5l-2 -13l174 -18l-8 -68l-568 -12v76q63 8 100 41.5t37 85.5v958q0 31 -0.5 44t-5 31t-12 25.5t-24 18t-40 17t-59.5 14.5z" />
<glyph unicode="L" horiz-adv-x="1179" d="M92 1305v61h150q110 0 191 2t107 4l25 2l10 -8q-3 -4 -7.5 -10.5t-16 -31t-20.5 -52t-16 -72t-7 -92.5v-887q0 -27 -2.5 -56t-5.5 -44l-2 -15h295q36 0 64.5 5.5t51.5 14t45 28t38 37.5t36.5 53t36 64t41.5 81h80l-86 -389h-654l-350 -6v76q65 8 101 40t36 87v958 q0 31 -0.5 44t-5 31t-12 25.5t-24 18t-40 17t-59.5 14.5z" />
<glyph unicode="M" horiz-adv-x="1859" d="M68 -6v76q66 8 105 40.5t42 86.5l41 958q2 41 -1.5 61.5t-21.5 38t-47 27.5t-88 23v61h154q90 0 171.5 2t118.5 4l36 2l8 -8q20 -73 59 -188l248 -648q22 -55 39 -118l325 807q8 20 19.5 57t19.5 64l7 26h100q74 0 141 2t97 4l30 2l10 -8q-3 -4 -7.5 -10.5t-16 -30.5 t-19.5 -51q-10 -28 -16 -73q-5 -34 -4 -71v-22l39 -918q1 -28 -1 -54t-3 -38l-2 -12l170 -12l-9 -68l-565 -12v76q66 8 102 38.5t35 81.5l-34 951l-463 -1141l-82 25l-430 1124q-2 -43 -4 -82l-35 -870q-1 -25 -4.5 -53t-6.5 -43l-3 -15l188 -12l-8 -68z" />
<glyph unicode="N" horiz-adv-x="1607" d="M78 1305v61h59l269 8q24 -49 79 -106l717 -756q37 -40 84 -98v729q0 28 -1 42t-5.5 34t-15 30t-28.5 21t-46.5 17.5t-69.5 10.5v68h414l10 -39q-6 -2 -15.5 -5.5t-33.5 -19t-43 -36t-34 -59.5t-15 -87v-1130h-86l-873 934q-38 38 -84 100v-827q0 -27 -2.5 -55t-5.5 -42 l-2 -14l185 -12l-9 -68l-430 -12v76q70 8 109 40t39 87v880q0 100 -33.5 147.5t-132.5 80.5z" />
<glyph unicode="O" horiz-adv-x="1638" d="M72 662q0 109 31 214t95 198.5t155 164t219.5 111.5t279.5 41q143 0 263 -37t202.5 -100t140 -147.5t84.5 -179.5t27 -196q0 -111 -32 -219t-98 -205t-157.5 -171t-219.5 -117.5t-276 -43.5q-138 0 -256 38t-201 104t-142 153.5t-87 187t-28 204.5zM373 721 q0 -118 31.5 -231.5t88.5 -206t147 -149t198 -56.5q102 0 185 50.5t134.5 135.5t79 190.5t27.5 221.5q0 92 -17.5 179.5t-55 166t-90.5 137.5t-129 94t-165 35q-105 0 -189.5 -47.5t-137 -127.5t-80 -180.5t-27.5 -211.5z" />
<glyph unicode="P" horiz-adv-x="1200" d="M78 1305v61h575q77 0 148 -10.5t140.5 -37t120 -66.5t81.5 -103.5t31 -144.5q0 -136 -78 -244q-78 -106 -200 -158q-98 -41 -202 -42q-26 0 -53 3v78q116 10 173.5 88t57.5 205q0 153 -83 239.5t-207 86.5h-47l-25 -25v-1038q0 -26 -2.5 -52.5t-5.5 -39.5l-2 -13l194 -18 l-8 -68l-588 -12v76q64 8 101 41.5t37 85.5v958q0 41 -3.5 61t-20.5 38.5t-47 28.5t-87 22z" />
<glyph unicode="Q" horiz-adv-x="1640" d="M72 659q0 110 31 215t95 199t155 164.5t219.5 112t279.5 41.5q143 0 263 -37t202.5 -100t140 -147.5t84.5 -179.5t27 -196q0 -110 -33.5 -218.5t-96.5 -204.5t-162.5 -173t-223.5 -119q26 -16 67.5 -60.5t86 -92.5t98.5 -95t123 -77.5t141 -30.5q31 0 65 6v-74 q-4 -3 -12.5 -8t-35.5 -18t-56 -23t-72.5 -18t-87.5 -8q-64 0 -124 18.5t-102.5 43t-89.5 67t-72 71.5t-64 76t-52 62q-25 28 -51.5 49.5t-45 34t-47.5 23.5t-42 14.5t-47 11t-45 10.5q-166 40 -285 142.5t-175 235.5t-56 283zM373 721q0 -118 31.5 -230.5t88.5 -203.5 t147 -147t198 -56q102 0 185 50.5t134.5 135t79 188.5t27.5 216q0 92 -17.5 179.5t-55 165.5t-90.5 136.5t-129 92.5t-165 34q-85 0 -156.5 -31t-122 -84.5t-86 -125t-52.5 -152.5t-17 -168z" />
<glyph unicode="R" horiz-adv-x="1351" d="M78 1305v61h579q130 0 229 -27t156.5 -74.5t86 -105t28.5 -123.5q0 -195 -252 -352v-35l297 -446q28 -42 51.5 -68.5t44 -37.5t30.5 -14t30 -5l22 -2l-8 -76h-393l-8 8q-27 88 -117 223l-231 351h-88l-25 -25v-360q0 -26 -2.5 -52.5t-5.5 -39.5l-2 -13l184 -18l-8 -68 l-578 -12v76q64 8 101 41.5t37 85.5v958q0 41 -3.5 61t-20.5 38.5t-47 28.5t-87 22zM510 688h149q75 0 136 76t61 209q0 130 -67 208.5t-203 78.5h-51l-25 -25v-547z" />
<glyph unicode="S" horiz-adv-x="1058" d="M78 184q0 51 61 228h80q0 -77 19 -137.5t48.5 -96.5t70 -59.5t79.5 -32t80 -8.5q92 0 157.5 46t65.5 134q0 64 -35 118t-90.5 93.5t-123.5 78t-135.5 81t-123 92t-90.5 122.5t-35 161q0 171 125.5 279t356.5 108q35 0 71 -2t81.5 -7.5t68 -8.5t79.5 -11.5t66 -9.5 l-67 -340h-80v13q-1 119 -53 189q-56 74 -183 74q-103 0 -163 -48t-60 -130q0 -65 35 -118.5t90.5 -91.5t123 -74t135.5 -77t123.5 -90t90.5 -123.5t35 -166.5q0 -128 -65 -218.5t-170.5 -133t-239.5 -42.5q-73 0 -144.5 11.5t-135.5 35.5t-105 66t-43 96z" />
<glyph unicode="T" horiz-adv-x="1335" d="M-6 1012l63 366q54 -12 138 -12h1007q37 0 74 3t56 6l18 3l-64 -366h-80q0 77 -12.5 126t-41 76t-67.5 36.5t-100 9.5h-162l-24 -25v-1032q0 -27 -2.5 -55t-5.5 -42l-3 -14l205 -18l-8 -68l-598 -12v76q65 8 101 43t36 90v1057h-176q-102 0 -158 -48.5t-116 -199.5h-80z " />
<glyph unicode="U" horiz-adv-x="1509" d="M35 1305v61h149q115 0 196 2t104 4l24 2l10 -8q-3 -3 -7.5 -9.5t-16 -30.5t-20.5 -51t-16 -72.5t-7 -94.5v-612q0 -101 32.5 -180t86.5 -126.5t120 -71.5t139 -24q97 0 180 42.5t138 132.5t55 212v664q0 28 -1 42t-5 33.5t-13.5 29t-26.5 21t-44 17.5t-65 10v68h423 l11 -39q-6 -2 -16.5 -6.5t-36.5 -22t-46 -40t-36.5 -62.5t-16.5 -88v-621q0 -165 -76.5 -282.5t-202.5 -173.5t-288 -56q-86 0 -167 16t-158 54.5t-134.5 95t-92 143.5t-34.5 195v676q0 31 -0.5 44t-5 31t-12 25.5t-24 18t-40 17t-59.5 14.5z" />
<glyph unicode="V" horiz-adv-x="1253" d="M-18 1305v61h114q71 0 146 2t114 4l39 2l8 -8q-20 -38 -24 -90q-1 -10 -1 -21q0 -40 13 -77l266 -709q16 -43 39 -127l322 784q18 39 18 71q0 23 -9 41q-21 44 -103 67v61h340l10 -39q-8 -5 -21 -16.5t-49.5 -65t-66.5 -127.5l-469 -1136l-103 24l-471 1186 q-15 40 -43 68t-49 36z" />
<glyph unicode="W" horiz-adv-x="1953" d="M-23 1305v61h115l293 8l8 -8q-20 -39 -24 -91q-1 -10 -1 -21q0 -40 13 -76l262 -695q22 -59 37 -127l229 727l-39 109q-15 40 -43 68t-49 36l-20 9v61h114l293 8l9 -8q-19 -38 -23 -90q-1 -12 -1 -23q0 -40 11 -75l240 -699q21 -68 33 -127l247 774q15 39 15 70 q0 22 -8 42q-20 44 -101 67v61h336l10 -39q-3 -2 -9 -5.5t-23.5 -19.5t-33.5 -37t-36 -60t-35 -87l-358 -1136l-121 24l-342 905l-295 -929l-119 24l-471 1186q-16 40 -44 68t-48 36z" />
<glyph unicode="X" horiz-adv-x="1314" d="M6 0v70q100 10 170 98l365 485l-375 561q-20 33 -52.5 55.5t-55.5 28.5l-23 7v61h117l305 8l8 -8q-4 -8 -8 -22.5t-1.5 -53t23.5 -71.5l240 -371l250 334q17 27 17 49q0 21 -13 37q-28 36 -84 37v61h377l10 -39q-8 -3 -22.5 -10.5t-55 -41.5t-76.5 -81l-338 -444 l443 -664l88 -18l-8 -68h-86l-404 -6v74q57 7 68.5 25.5t-15.5 56.5l-262 403l-342 -455l187 -24l-9 -74h-438z" />
<glyph unicode="Y" horiz-adv-x="1212" d="M-10 1305v61h108q81 0 153.5 2t104.5 4l33 2l8 -8q-4 -9 -9 -24t-5 -54t18 -69l226 -381q35 -64 57 -115l277 455q15 28 16.5 53t-23.5 45.5t-75 28.5v61h348l10 -39q-7 -3 -19.5 -9t-45 -36t-58.5 -72l-364 -581v-426q0 -27 -3 -55t-5 -42l-3 -14l174 -18l-8 -68 l-567 -12v76q65 8 101 43t36 90v401l-377 610q-22 36 -49 58.5t-43 27.5z" />
<glyph unicode="Z" horiz-adv-x="1226" d="M39 66q43 32 113 145l583 948q25 41 70 101h-322q-59 0 -100 -9t-80.5 -35.5t-71 -76t-61.5 -127.5h-80l53 354h854q36 0 68.5 2t47.5 4l15 2l9 -74q-44 -45 -103 -145l-577 -944q-18 -33 -76 -105h391q117 0 181.5 57t142.5 226h80l-86 -389h-908q-36 0 -68.5 -2 t-47.5 -4l-15 -2z" />
<glyph unicode="[" horiz-adv-x="598" d="M156 -332v1698h409v-115h-231v-1468h231v-115h-409z" />
<glyph unicode="\" horiz-adv-x="716" d="M-57 1366h161l682 -1767h-163z" />
<glyph unicode="]" horiz-adv-x="598" d="M33 -217h231v1468h-231v115h409v-1698h-409v115z" />
<glyph unicode="^" horiz-adv-x="1167" d="M74 512l438 879h143l439 -879h-166l-346 696l-346 -696h-162z" />
<glyph unicode="_" horiz-adv-x="1032" d="M4 -76h1024v-121h-1024v121z" />
<glyph unicode="`" horiz-adv-x="1024" d="M313 1399v55l248 -22l156 -351l-82 -43z" />
<glyph unicode="a" horiz-adv-x="989" d="M37 205q0 74 39.5 134.5t107 100t142.5 64.5t159 37l72 10q0 166 -10 215q-20 98 -96 98q-33 0 -65 -22.5t-55 -55t-41 -64.5t-27 -54l-9 -23h-94l-45 180q7 5 19.5 14t56 31.5t90.5 40t120 31.5t148 14q157 0 212.5 -64.5t55.5 -227.5v-461q0 -49 10.5 -73t38.5 -24 q19 0 41.5 9t35.5 17l13 9l33 -55q-4 -5 -11.5 -12t-33.5 -26.5t-53.5 -34t-70 -26.5t-85.5 -12q-79 0 -125.5 36.5t-46.5 101.5v32q-4 -7 -12.5 -18.5t-36.5 -40.5t-59 -51.5t-80 -41t-99 -18.5q-98 0 -168.5 60.5t-70.5 169.5zM303 256q0 -52 24.5 -85.5t73.5 -33.5 q77 0 154 66v256l-55 -10q-87 -15 -142 -63t-55 -130z" />
<glyph unicode="b" horiz-adv-x="1097" d="M2 1362v65q146 29 249.5 55.5t134.5 37.5l30 12l6 -6q-21 -74 -21 -232v-282q0 -62 -4 -123t-4 -64q94 131 269 131q74 0 137 -25t107 -67t75 -99t46 -120.5t15 -130.5q0 -100 -35 -193.5t-102.5 -172t-179.5 -126t-252 -47.5q-64 0 -188.5 12.5t-159.5 12.5l-6 6 q20 72 20 205v1016q0 38 -1.5 57.5t-7 40.5t-18.5 29t-34 8h-76zM401 98q36 -20 99 -20q129 0 199.5 105t70.5 263q0 67 -13.5 127.5t-41 111t-75 80.5t-108.5 30q-55 0 -131 -31v-666z" />
<glyph unicode="c" horiz-adv-x="917" d="M55 440q0 93 32.5 183.5t92 165.5t154.5 121t209 46q51 0 104.5 -8.5t105.5 -26.5t85.5 -51t33.5 -77q0 -40 -28 -70.5t-72 -30.5q-32 0 -57 18t-43 43.5t-37.5 51t-50 43.5t-70.5 18q-100 0 -157.5 -98t-57.5 -240q0 -163 79.5 -265.5t231.5 -102.5q63 0 123.5 18 t89.5 36l29 17l25 -59q-5 -8 -14 -21.5t-42.5 -47.5t-73 -59.5t-106.5 -47t-141 -21.5q-104 0 -189.5 39t-140.5 104t-85 148t-30 174z" />
<glyph unicode="d" horiz-adv-x="1140" d="M55 410q0 102 37 199t104.5 175t171.5 125t228 47q25 0 51.5 -2t40.5 -4l14 -2v279q0 38 -1.5 57.5t-7 40.5t-18.5 29t-34 8h-76v65q146 29 249.5 55.5t133.5 37.5l31 12l6 -6q-20 -74 -20 -232v-1089q0 -42 7 -67t25.5 -35.5t33.5 -12.5t48 -2h47l-6 -65 q-122 -10 -227 -20.5t-149 -15.5l-44 -5l-4 4q15 61 15 112v33q-42 -68 -119.5 -112t-161.5 -44q-158 0 -266.5 126t-108.5 309zM328 487q0 -61 13 -120t39 -110t71 -82.5t102 -31.5q75 0 149 41v564q0 34 -9 56.5t-26 32t-31.5 12.5t-33.5 3q-87 0 -151 -53.5t-93.5 -134.5 t-29.5 -177z" />
<glyph unicode="e" horiz-adv-x="946" d="M55 449q0 212 134.5 359.5t332.5 147.5q72 0 135 -21.5t115 -64t83 -114t34 -164.5q-94 -33 -135 -39l-435 -66l-18 -24q9 -63 30.5 -115t58 -95.5t94.5 -68t134 -24.5q65 0 126 20.5t90 41.5l28 20l25 -60q-5 -8 -14 -22t-42 -50t-71.5 -63t-104 -49.5t-137.5 -22.5 q-109 0 -198.5 39.5t-146.5 106t-87.5 151t-30.5 177.5zM297 582l336 43q0 9 -1.5 25t-10.5 56t-24 71t-46 56t-72 25q-79 0 -127.5 -79t-54.5 -197z" />
<glyph unicode="f" horiz-adv-x="716" d="M57 801v88l125 45v63q0 146 63 264t169 183t231 65q63 0 122 -14t102.5 -48t43.5 -81t-31.5 -78t-76.5 -31q-33 0 -69.5 23t-62.5 50t-56 50t-52 23q-66 0 -93.5 -84t-27.5 -277v-110h267l-21 -125h-221l-25 -25v-585q0 -27 -2.5 -55t-5.5 -42l-2 -14l215 -18l-8 -62 l-575 -12v69q116 14 116 134v604h-125z" />
<glyph unicode="g" horiz-adv-x="1017" d="M35 -244q0 36 16.5 68t39.5 54.5t60 44t66.5 34t69.5 27.5q-183 51 -183 155q0 18 5 34.5t16.5 31t21.5 26.5t30 24t31 19.5t35.5 18t33 14t33 13t26.5 10.5q-122 28 -197.5 104t-75.5 195q0 102 60 178t153 112.5t203 36.5q67 0 154 -20.5t143 -20.5h98q29 0 63 6.5 t53 13.5l20 7l-23 -160h-84q-20 0 -38 1.5t-26 2.5l-8 2q3 -2 7.5 -6t16.5 -19t21.5 -32.5t17 -47t7.5 -62.5q0 -95 -60 -166.5t-154.5 -106.5t-207.5 -35q-51 0 -98 6q-31 -36 -31 -69q0 -47 212 -86l30 -6q67 -13 113 -24t104 -33.5t93.5 -49t60 -69t24.5 -95.5 q0 -78 -48.5 -149t-125.5 -119t-172 -76t-188 -28q-70 0 -142 15.5t-134.5 44.5t-102 76.5t-39.5 104.5zM258 -205q0 -84 68.5 -134t165.5 -50q61 0 121.5 19t104.5 59.5t44 91.5q0 18 -4.5 33t-17 27.5t-23.5 22t-34.5 19t-40 15.5t-50 14.5t-53.5 13t-62 13.5q-15 3 -43 9 t-50.5 11t-41.5 10q-84 -79 -84 -174zM319 635q0 -102 39.5 -167t124.5 -65q84 0 123 60t39 155q0 100 -43 174t-127 74q-55 0 -91 -33.5t-50.5 -83.5t-14.5 -114z" />
<glyph unicode="h" horiz-adv-x="1189" d="M29 1362v65q146 29 249 55.5t134 37.5l30 12l7 -6q-21 -74 -21 -232v-356q0 -62 -4 -122.5t-4 -63.5q156 204 358 204q113 0 178.5 -67t65.5 -209v-483q0 -27 -2.5 -54.5t-5.5 -40.5l-2 -14l164 -20l-9 -62l-499 -12v69q92 13 92 134v403q0 103 -26 139.5t-89 36.5 q-119 0 -217 -76v-503q0 -27 -2.5 -55t-5.5 -42l-2 -14l129 -18l-8 -62l-490 -12v69q117 14 117 134v1030q0 37 -1.5 57.5t-7.5 40.5t-18.5 28.5t-34.5 8.5h-75z" />
<glyph unicode="i" horiz-adv-x="616" d="M37 817v66q108 17 212.5 42.5t154.5 42.5l51 17l6 -6q-19 -68 -19 -234v-548q0 -27 -2.5 -55t-5.5 -42l-2 -14l164 -18l-8 -62l-525 -12v69q117 14 117 134v485q0 38 -1.5 57.5t-7 40.5t-18.5 29t-34 8h-82zM141 1278q0 64 43 104.5t109 40.5t108.5 -40.5t42.5 -104.5 q0 -63 -42.5 -103t-108.5 -40t-109 40t-43 103z" />
<glyph unicode="j" horiz-adv-x="567" d="M-55 -426q89 12 155 123t66 264v721q0 37 -1.5 57.5t-7.5 40.5t-18.5 28.5t-34.5 8.5h-81v66q108 17 212 42.5t155 42.5l50 17l6 -6q-18 -68 -18 -234v-647q0 -288 -120 -435.5t-339 -147.5zM127 1278q0 64 43 104.5t109 40.5t108.5 -40.5t42.5 -104.5q0 -63 -42.5 -103 t-108.5 -40t-109 40t-43 103z" />
<glyph unicode="k" horiz-adv-x="1138" d="M29 1362v65q146 29 249 55.5t134 37.5l30 12l7 -6q-21 -74 -21 -232v-739h35l201 176q29 26 40 36.5t22 27t11 30.5q0 31 -63 45v62h395l10 -33q-16 -5 -41.5 -15t-83.5 -39.5t-90 -58.5l-192 -172v-28q14 -23 26 -37l281 -365q54 -68 84 -87.5t70 -22.5l22 -2l-8 -72 l-373 -6q-20 75 -69 141l-242 330h-35v-268q0 -27 -2.5 -55t-5.5 -42l-2 -14l143 -18l-8 -62l-504 -12v69q117 14 117 134v1030q0 37 -1.5 57.5t-7.5 40.5t-18.5 28.5t-34.5 8.5h-75z" />
<glyph unicode="l" horiz-adv-x="604" d="M29 1362v65q146 29 249 55.5t134 37.5l30 12l7 -6q-21 -74 -21 -232v-1097q0 -27 -2.5 -55t-5.5 -42l-2 -14l164 -18l-9 -62l-524 -12v69q117 14 117 134v1030q0 37 -1.5 57.5t-7.5 40.5t-18.5 28.5t-34.5 8.5h-75z" />
<glyph unicode="m" horiz-adv-x="1777" d="M37 817v66q108 17 211.5 42.5t153.5 42.5l49 17l6 -6q-19 -45 -29 -227q152 204 348 204q95 0 160.5 -48t81.5 -146q155 194 344 194q114 0 181 -67t67 -209v-483q0 -27 -3 -54.5t-5 -40.5l-3 -14l164 -20l-8 -62l-495 -12v69q88 14 88 134v403q0 102 -27 139t-86 37 q-43 0 -89 -12t-83 -41t-37 -68v-458q0 -27 -2.5 -54.5t-5.5 -40.5l-2 -14l131 -14l-10 -68l-461 -12v69q88 14 88 134v403q0 103 -26.5 139.5t-86.5 36.5q-118 0 -209 -76v-503q0 -27 -2.5 -54.5t-5.5 -40.5l-2 -14l131 -14l-10 -68l-490 -12v69q117 14 117 134v485 q0 38 -1.5 57.5t-7 40.5t-18.5 29t-34 8h-82z" />
<glyph unicode="n" horiz-adv-x="1204" d="M37 817v66q108 17 211.5 42.5t153.5 42.5l49 17l6 -6q-19 -45 -29 -227q65 85 158 144.5t207 59.5q112 0 177.5 -67t65.5 -209v-483q0 -27 -2.5 -54.5t-5.5 -40.5l-2 -14l164 -20l-8 -62l-500 -12v69q92 13 92 134v403q0 103 -26 139.5t-89 36.5q-119 0 -217 -76v-503 q0 -27 -2.5 -54.5t-5.5 -40.5l-2 -14l129 -20l-8 -62l-490 -12v69q117 14 117 134v485q0 38 -1.5 57.5t-7 40.5t-18.5 29t-34 8h-82z" />
<glyph unicode="o" horiz-adv-x="1118" d="M55 446q0 75 18 146t58.5 137.5t98.5 116.5t145.5 80t193.5 30q227 0 360.5 -126t133.5 -328q0 -79 -20.5 -154t-63 -143t-103 -119t-146.5 -81t-187 -30q-220 0 -354 131.5t-134 339.5zM338 500q0 -78 14 -152.5t41 -138.5t74.5 -103.5t107.5 -39.5q61 0 104.5 40.5 t63.5 105.5q21 64 29 126q7 51 6 101v24q-1 73 -14.5 141.5t-40 128.5t-72 96.5t-104.5 36.5q-53 0 -94 -30t-65.5 -82t-37 -116.5t-12.5 -137.5z" />
<glyph unicode="p" horiz-adv-x="1120" d="M29 817v66q103 17 203.5 42.5t149.5 42.5l50 17l6 -6q-16 -55 -22 -178q117 155 278 155t266 -125.5t105 -310.5q0 -81 -21.5 -159t-66 -148t-107 -123t-150 -84t-188.5 -31q-27 0 -54 2t-40 5l-14 2v-217q0 -27 -2.5 -56.5t-5.5 -44.5l-2 -16h204l-8 -60 q-364 -45 -544 -94v70q59 36 77.5 78.5t18.5 119.5v918q0 37 -1.5 57.5t-7.5 40.5t-18.5 28.5t-34.5 8.5h-71zM424 184q0 -62 29.5 -83t74.5 -21q127 0 196 103t69 257q0 64 -12.5 123.5t-38 111t-70.5 82.5t-103 31q-61 0 -145 -40v-564z" />
<glyph unicode="q" horiz-adv-x="1099" d="M55 414q0 102 37 197.5t106 173t181.5 124.5t251.5 47q62 0 185 -12t159 -12l6 -6q-18 -90 -18 -205v-965q0 -26 -2.5 -54.5t-5.5 -43.5l-3 -16h144l-9 -60q-109 -15 -235 -37t-197 -37l-71 -14v70q64 39 90 82.5t26 113.5v160q0 62 4.5 122.5t4.5 63.5 q-96 -131 -269 -131q-92 0 -167.5 38t-121.5 101t-71 140.5t-25 159.5zM328 483q0 -65 13.5 -124.5t41 -110.5t75 -81t109.5 -30q54 0 133 31v666q-35 20 -98 20q-127 0 -200.5 -106.5t-73.5 -264.5z" />
<glyph unicode="r" horiz-adv-x="843" d="M37 815v66q108 17 211.5 43t153.5 44l49 17l6 -6q-19 -45 -29 -250q5 9 15 24.5t41 54.5t63 69t79.5 54.5t92.5 24.5q61 0 94 -36t33 -86q0 -53 -35.5 -92.5t-95.5 -39.5q-35 0 -69 20.5t-58 20.5q-29 0 -65.5 -16.5t-58.5 -32.5l-22 -16v-481q0 -27 -2.5 -55t-5.5 -42 l-2 -14l184 -18l-8 -62l-545 -12v69q117 14 117 134v483q0 38 -1.5 57.5t-7 40.5t-18.5 29t-34 8h-82z" />
<glyph unicode="s" horiz-adv-x="802" d="M61 119q0 22 9.5 64.5t18.5 74.5l9 31h68q5 -62 27.5 -108.5t56 -71.5t68.5 -36.5t71 -11.5q58 0 93.5 30t35.5 83q0 41 -24 74t-62 57t-84.5 47.5t-93 51t-84.5 61t-62 85.5t-24 116q0 135 97 212.5t251 77.5q54 0 124.5 -9.5t114.5 -18.5l44 -10l-47 -232h-70 q-4 56 -21.5 95t-44 57t-50.5 25t-50 7q-56 0 -88.5 -29.5t-32.5 -80.5q0 -42 24 -74.5t62 -55.5t84 -45t92 -48.5t84 -59.5t62 -85t24 -118q0 -146 -101.5 -222.5t-260.5 -76.5q-49 0 -102 8t-103.5 24.5t-82.5 45.5t-32 66z" />
<glyph unicode="t" horiz-adv-x="757" d="M33 801v88q94 18 143 63l78 232l176 -6l6 -7q-18 -44 -18 -200v-39h291l-15 -125h-250l-24 -25v-454q0 -97 27 -143t102 -46q40 0 83.5 11.5t67.5 23.5l23 12l33 -53q-6 -6 -16.5 -17t-45.5 -38t-72.5 -48t-96 -38t-117.5 -17q-116 0 -183 66t-67 203v424l6 133h-131z " />
<glyph unicode="u" horiz-adv-x="1175" d="M27 817v68q156 27 255 47.5t120 27.5l22 7l6 -6q-18 -58 -18 -216v-415q0 -103 30 -144t86 -41q29 0 60.5 10t56 23.5t45.5 27.5t32 24l11 10v438q0 32 -0.5 49t-4 37.5t-9.5 30t-18 16t-29 6.5h-51v70q149 26 246 46t119 27l22 7l6 -6q-19 -58 -19 -216v-540 q0 -29 3.5 -49.5t12 -33t16 -20t24 -10.5t27 -3.5t32.5 -0.5h47l-6 -65q-122 -10 -225.5 -20.5t-145.5 -15.5l-43 -5l-4 4q15 61 15 112v86q-6 -8 -16 -22.5t-45 -50.5t-72 -63.5t-93.5 -50t-113.5 -22.5q-117 0 -187.5 68t-70.5 209v426q0 39 -1.5 60t-7.5 41.5t-18.5 29 t-34.5 8.5h-61z" />
<glyph unicode="v" horiz-adv-x="958" d="M-16 870v62h96q81 0 155.5 2t108.5 4l35 2l8 -8q-2 -4 -4.5 -10.5t-8 -27.5t-7.5 -42.5t1.5 -51.5t14.5 -57l139 -358q23 -61 39 -123l203 461q11 25 11 47q0 72 -124 100v62h303l11 -33q-25 -14 -66 -108l-360 -816l-136 27l-301 750q-18 45 -47.5 74.5t-50.5 36.5z" />
<glyph unicode="w" horiz-adv-x="1511" d="M-16 870v62h96q81 0 154 2t106 4l33 2l8 -8q-2 -4 -4.5 -10t-8 -27t-7.5 -42t1.5 -51t14.5 -59l133 -360q21 -65 37 -127l143 324q13 28 13 60t-13 67l-18 45q-19 45 -46.5 74.5t-45.5 36.5l-17 7v62h86q81 0 154 2t106 4l33 2l8 -8q-2 -4 -4.5 -10t-8 -27t-7.5 -42 t1.5 -51t14.5 -59l133 -356q21 -65 37 -127l205 463q12 26 12 48q0 70 -121 99v62h297l11 -33q-23 -12 -66 -108l-362 -816l-123 27l-205 512l-240 -539l-125 27l-297 750q-18 46 -47.5 75.5t-50.5 36.5z" />
<glyph unicode="x" horiz-adv-x="1030" d="M20 -6v69q89 11 140 72l241 301l-233 336q-26 43 -60.5 67.5t-55.5 27.5l-21 3v62h123q60 0 128 2t106 4l38 2l8 -8q-3 -8 -5.5 -22t3.5 -53t29 -73l117 -176l141 178q10 13 12 24t-4.5 19t-16 15t-24.5 12t-28 8t-29 6v62h350l10 -33q-8 -2 -22 -7.5t-51 -31.5t-66 -63 l-217 -273l313 -450l84 -8l-8 -60l-475 -12v74q46 0 60 18t-11 59l-139 209l-213 -268l143 -18l-8 -62z" />
<glyph unicode="y" horiz-adv-x="966" d="M-18 870v62h96q81 0 155.5 2t108.5 4l35 2l8 -8q-19 -38 -20 -92v-5q0 -50 16 -92l149 -364q19 -49 39 -121l199 465q8 21 8 39q0 30 -22 54q-34 37 -99 54v62h301l11 -33q-31 -28 -66 -108l-309 -723q-7 -15 -24.5 -56.5t-29 -67.5t-32.5 -70.5t-38 -75t-41.5 -71 t-47 -68t-52 -57t-57.5 -47t-62 -29t-69 -11.5q-53 0 -82.5 29.5t-29.5 74.5q0 43 32.5 74t102.5 31q95 0 156.5 45.5t103.5 142.5l18 45q-20 62 -63 162l-277 633q-20 45 -49.5 74.5t-48.5 36.5z" />
<glyph unicode="z" horiz-adv-x="923" d="M43 55q31 27 74 99l362 587q19 33 74 101h-205q-44 0 -80 -18.5t-58.5 -48.5t-35 -55t-20.5 -50h-88l36 262h613q36 0 68.5 2t47.5 4l15 2l16 -63q-26 -27 -69 -99l-355 -583q-18 -31 -76 -103h179q56 0 101 20t70 48t42 56.5t22 48.5l6 20h90l-55 -285h-618 q-39 0 -74 -2t-51 -4l-15 -2z" />
<glyph unicode="{" horiz-adv-x="698" d="M8 496v84q34 1 63 12t50 30t39 45t29.5 57.5t21 66.5t14 72.5t8 76.5t4 76.5t1.5 73.5t0 68v32q0 112 58 187t154 108t226 33l10 -84q-68 -5 -112 -20t-72 -38t-42 -67t-19 -94.5t-5 -133.5q0 -456 -227 -540v-4q45 -17 83 -54t71.5 -101t53 -169t19.5 -240 q0 -69 3 -113.5t12.5 -85.5t26 -65t45 -43.5t67.5 -29.5t96 -15l-10 -84q-438 0 -438 328v32v78t-2 83t-5.5 89.5t-11.5 85t-19 83t-29 69.5t-40.5 58.5t-53.5 36.5t-69 16z" />
<glyph unicode="|" horiz-adv-x="491" d="M154 -461v1995h184v-1995h-184z" />
<glyph unicode="}" horiz-adv-x="698" d="M12 -379q57 5 96.5 15t68 29.5t45 43t25.5 65t12 86t3 113.5q0 135 19.5 240t53 169t71.5 101t83 54v4q-227 84 -227 540q0 83 -5 133.5t-19 94.5t-42 67t-72 38t-112 20l11 84q130 0 226 -33t154 -108t58 -187v-34v-76.5t2 -81t5.5 -86.5t11.5 -81.5t19 -79.5t28.5 -66 t40 -55.5t53.5 -34.5t69 -15v-84q-34 -1 -62.5 -12.5t-50 -31t-39 -47t-29 -60t-21 -69t-14 -75.5t-8 -79t-4 -78.5t-1.5 -75.5t0 -69v-34q0 -328 -438 -328z" />
<glyph unicode="~" horiz-adv-x="1206" d="M115 344q0 175 75 260.5t205 85.5q65 0 116.5 -22t84.5 -53t62 -62.5t65.5 -53.5t79.5 -22q41 0 70.5 20.5t43.5 54t19.5 65.5t5.5 65h148q0 -175 -75.5 -260.5t-205.5 -85.5q-65 0 -116.5 22t-84.5 53.5t-62 62.5t-65.5 53t-79.5 22q-41 0 -70.5 -20.5t-43.5 -54 t-19.5 -65.5t-5.5 -65h-147z" />
<glyph unicode="&#xa1;" horiz-adv-x="604" d="M115 -485q31 75 51 241l104 756h76l131 -930q-81 -16 -168.5 -37t-134.5 -34l-47 -13zM152 799q0 65 46.5 111t112.5 46q65 0 111.5 -46.5t46.5 -110.5q0 -66 -46.5 -113t-111.5 -47q-66 0 -112.5 47t-46.5 113z" />
<glyph unicode="&#xa2;" horiz-adv-x="933" d="M66 559q0 82 29 159.5t83.5 141.5t141 104t192.5 44l10 184h92l-10 -191q64 -9 119.5 -27.5t97 -53.5t41.5 -78q0 -44 -23.5 -69t-66.5 -25q-35 0 -63 22.5t-60 64.5t-49 58l-31 -606h25q124 0 252 96l26 -55q-4 -7 -11 -18t-34.5 -40t-60.5 -53t-88 -46.5t-117 -29.5 l-8 -186h-92l8 184q-99 7 -177.5 44.5t-126.5 96t-73.5 130t-25.5 149.5zM332 657q0 -103 39 -196t108 -139l29 606q-86 -6 -131 -83t-45 -188z" />
<glyph unicode="&#xa3;" horiz-adv-x="1091" d="M80 70q4 2 11.5 6t27 20t35 35t30.5 52t19 71l28 246h-125v92h136l22 180q22 185 125.5 290t302.5 105q44 0 86.5 -6.5t82 -21t63.5 -40.5t24 -61q0 -44 -25.5 -68t-72.5 -24q-27 0 -51 13t-41.5 31t-35 36.5t-41.5 31.5t-52 13q-54 0 -73.5 -58.5t-35.5 -246.5l-16 -174 h336l-15 -92h-329v-8q-7 -80 -31 -154t-44 -108l-20 -35q15 -7 42 -17.5t106.5 -27.5t155.5 -17q219 0 249 137l15 70h78q-6 -65 -17 -116.5t-34.5 -105t-57.5 -89t-89.5 -58t-127.5 -22.5q-88 0 -158 22l-186 56q-34 10 -78 10q-69 0 -195 -37z" />
<glyph unicode="&#xa5;" horiz-adv-x="1120" d="M59 1081v62h82l283 6l6 -6q-3 -7 -6 -18t-3 -40.5t13 -52.5l148 -258q23 -43 55 -112l190 321q52 83 -59 98v62h281l8 -33q-5 -1 -13.5 -4t-32.5 -24t-46 -56l-236 -381h270v-92h-307v-129h307v-92h-307v-135q0 -27 -2.5 -55t-5.5 -42l-2 -14l129 -18l-8 -62l-490 -12v69 q117 14 117 134v135h-295v92h295v129h-295v92h244l-223 369q-16 26 -40.5 43t-40.5 21z" />
<glyph unicode="&#xa6;" horiz-adv-x="446" d="M129 365h188v-734h-188v734zM129 682v733h188v-733h-188z" />
<glyph unicode="&#xa7;" horiz-adv-x="970" d="M41 -354l33 69q3 -3 9.5 -8.5t30.5 -18.5t51 -23t72.5 -18.5t94.5 -8.5q72 0 127.5 24.5t87.5 66.5t50.5 98.5t17.5 120t-11 130.5l-106 586q-8 41 -12 66.5t-9.5 76t-5 85.5t7 81t22 77t43.5 58t68 39l11 -10q-22 -129 12 -316l129 -727q16 -71 13.5 -141.5t-16.5 -135 t-47.5 -120t-79.5 -96t-113.5 -63.5t-147.5 -23q-58 0 -113.5 13.5t-93.5 32.5t-67.5 38.5t-43.5 32.5zM154.5 953.5q3.5 70.5 17 135t47 120t79 96t112.5 63.5t147 23q58 0 113.5 -13.5t93.5 -32.5t67.5 -38.5t43.5 -32.5l14 -14l-33 -70q-3 3 -9.5 8.5t-30.5 19t-51 23.5 t-72.5 18.5t-94.5 8.5q-72 0 -127.5 -24.5t-87.5 -67t-50.5 -99t-17.5 -120t11 -130.5l106 -585q9 -47 13.5 -79.5t10.5 -90.5t0.5 -101t-18.5 -89.5t-44 -78t-77 -45.5l-10 11q12 72 9.5 141.5t-21.5 173.5l-129 727q-15 72 -11.5 142.5z" />
<glyph unicode="&#xa8;" horiz-adv-x="1024" d="M139 1276q0 61 40 99t102 38t101.5 -38t39.5 -99q0 -60 -39.5 -97.5t-101.5 -37.5t-102 37.5t-40 97.5zM602 1276q0 61 39.5 99t101.5 38t102 -38t40 -99q0 -60 -40 -97.5t-102 -37.5t-101.5 37.5t-39.5 97.5z" />
<glyph unicode="&#xa9;" horiz-adv-x="1540" d="M63 682q0 191 95 354t258 258t354 95t354 -95t258 -258t95 -354t-95 -354t-258 -258t-354 -95t-354 95t-258 258t-95 354zM168 682q0 -167 79.5 -307.5t218 -222.5t304.5 -82t304.5 82t218 222.5t79.5 307.5t-79.5 307.5t-218 222.5t-304.5 82t-304.5 -82t-218 -222.5 t-79.5 -307.5zM354 674q0 63 17 124.5t54 118t89 99.5t128.5 68.5t166.5 25.5q46 0 96 -10.5t99 -26t63 -18.5l-35 -238h-74q-7 123 -55 167t-125 44q-93 0 -152 -88.5t-59 -216.5q0 -148 76 -236t193 -88q61 0 121 21.5t90 43.5l30 21l23 -69q-49 -64 -137.5 -104 t-165.5 -40q-184 0 -313.5 110.5t-129.5 291.5z" />
<glyph unicode="&#xaa;" horiz-adv-x="800" d="M70 866q0 70 50 122.5t127.5 81t178.5 40.5v39q0 83 -14.5 126.5t-51.5 43.5q-34 0 -67.5 -38.5t-50.5 -76.5l-17 -39h-71l-33 131q5 4 14 10.5t40.5 22.5t65.5 28.5t86.5 23t106.5 10.5q113 0 153 -45.5t40 -161.5v-316q0 -35 5.5 -51t22.5 -16q13 0 29 7.5t26 15.5l9 7 l29 -49q-9 -9 -24.5 -22.5t-64.5 -35.5t-98 -22q-61 0 -96 28t-35 79q-3 -4 -9 -11.5t-25 -26t-39.5 -32.5t-50.5 -25.5t-60 -11.5q-74 0 -125 42.5t-51 121.5zM268 901q0 -34 15.5 -56t48.5 -22q17 0 40 10.5t38 20.5l14 10v168q-76 -9 -116 -43t-40 -88z" />
<glyph unicode="&#xab;" horiz-adv-x="1046" d="M55 514v8q32 23 91 82t341 352l74 -20q-100 -172 -162 -276.5t-74 -123.5l-12 -18q23 -34 248 -416l-74 -20q-253 263 -324.5 334t-107.5 98zM467 514v8q32 23 91 82t341 352l74 -20q-100 -172 -162 -276.5t-74 -123.5l-12 -18q23 -34 248 -416l-74 -20 q-253 263 -324.5 334t-107.5 98z" />
<glyph unicode="&#xac;" d="M43 664v143h928v-580h-152v437h-776z" />
<glyph unicode="&#xad;" horiz-adv-x="765" d="M111 440v164h544v-164h-544z" />
<glyph unicode="&#xae;" horiz-adv-x="835" d="M63 1087q0 146 104.5 250.5t250.5 104.5t250 -104.5t104 -250.5t-104 -250t-250 -104t-250.5 104t-104.5 250zM139 1087q0 -116 82.5 -202t196.5 -86q111 0 194.5 86.5t83.5 201.5t-83.5 201t-194.5 86q-114 0 -196.5 -85.5t-82.5 -201.5zM248 1241v25h149q154 0 154 -86 q0 -49 -68 -88q13 -27 29 -50l45 -65q4 -7 9 -11.5t8 -7t8 -4.5t7 -2.5t8 -1t7 -0.5l-2 -35l-115 -2q-9 27 -32 62l-56 82h-16v-76l-4 -25l51 -6l-2 -32l-174 -5v37q15 2 25 10.5t10 20.5v221q0 19 -6.5 25.5t-34.5 13.5zM383 1098h33q12 2 24.5 18.5t12.5 46.5 q0 26 -16.5 44t-47.5 18h-6v-127z" />
<glyph unicode="&#xaf;" horiz-adv-x="1024" d="M248 1186v151h528v-151h-528z" />
<glyph unicode="&#xb0;" horiz-adv-x="618" d="M59 1145q0 102 73 174t177 72t177 -72t73 -174t-73 -174t-177 -72t-177 72t-73 174zM176 1145q0 -58 38.5 -97.5t94.5 -39.5t94.5 39.5t38.5 97.5t-38.5 96.5t-94.5 38.5t-94.5 -38.5t-38.5 -96.5z" />
<glyph unicode="&#xb1;" d="M96 635v145h355v363h153v-363h348v-145h-348v-389h-153v389h-355zM127 0v145h836v-145h-836z" />
<glyph unicode="&#xb2;" horiz-adv-x="702" d="M37 834q11 11 44.5 43t44.5 43t37.5 37t38.5 39.5t30.5 33.5t31 36t23.5 32q82 122 82 221q0 72 -37.5 108.5t-95.5 36.5q-78 0 -152 -51l-45 51q5 6 14.5 16t41 35.5t65 45t84.5 35.5t102 16q101 0 176.5 -54t75.5 -147q0 -65 -48 -144t-100 -135t-176 -178l-26 -26h223 q56 0 79 23.5t42 84.5h67l-36 -266h-568z" />
<glyph unicode="&#xb3;" horiz-adv-x="671" d="M27 856q0 24 20.5 39.5t46.5 15.5q33 0 57.5 -14.5t38 -32.5t35.5 -32.5t51 -14.5q39 0 70 55t31 121q0 70 -40 115t-110 45l-59 -6v82q168 31 168 176q0 42 -27 62t-69 20q-68 0 -125 -37l-41 53l11.5 11.5t32.5 26.5t52 33t69.5 26t86.5 12q104 0 173.5 -42t69.5 -124 q0 -72 -62.5 -127.5t-144.5 -85.5q111 -17 186 -79.5t75 -139.5q0 -106 -103.5 -182t-249.5 -76q-39 0 -76 4t-77.5 14t-65 31t-24.5 51z" />
<glyph unicode="&#xb4;" horiz-adv-x="1052" d="M309 1081l156 351l248 22v-55l-322 -361z" />
<glyph unicode="&#xb5;" horiz-adv-x="1165" d="M121 897l282 55l9 -6q-15 -63 -15 -221v-381q0 -199 117 -199q78 0 195 84v469q0 57 -3.5 109.5t-7.5 76.5l-4 23l283 56l8 -7q-14 -63 -14 -221v-530q0 -64 18.5 -90.5t69.5 -26.5h63l6 -59q-145 -54 -227 -54q-178 0 -178 154v45q-49 -89 -124.5 -144t-168.5 -55 q-92 0 -164 72q5 -97 42.5 -245.5t37.5 -184.5q0 -49 -29 -75.5t-71 -26.5q-50 0 -84.5 37.5t-34.5 109.5q0 29 4 102.5t4 118.5v805q0 57 -3.5 109.5t-7.5 76.5z" />
<glyph unicode="&#xb6;" horiz-adv-x="1341" d="M35 844q0 79 23 154t71 142t116 117t165 79.5t211 29.5h469q120 0 161 8l-20 -129h-135v-1245h-138v1245h-153v-1071v-43v-46.5t-0.5 -41.5t-1.5 -46t-3 -41.5t-5 -46t-7 -41t-9.5 -45.5t-12.5 -42q-42 -119 -120.5 -192.5t-192.5 -73.5q-51 0 -81 29.5t-30 68.5 q0 38 29 67t73 29q17 0 49 -8t46 -8q22 0 39 5t29.5 18t21 26t14.5 39t9 47t4.5 59t2 66.5t0.5 77.5v295h-28q-149 0 -266 43.5t-187.5 117t-106.5 164.5t-36 193z" />
<glyph unicode="&#xb7;" horiz-adv-x="522" d="M102 522q0 66 46.5 113t111.5 47q66 0 113 -47t47 -113q0 -65 -47 -111t-113 -46q-65 0 -111.5 46.5t-46.5 110.5z" />
<glyph unicode="&#xb8;" horiz-adv-x="1024" d="M283 -408l34 80q8 -6 22 -15t53 -24.5t75 -15.5q37 0 65.5 15t28.5 42q0 22 -23.5 40t-52 29.5t-52 32t-23.5 46.5q0 28 20 72.5t40 75.5l19 30h74q-20 -63 -20 -86q0 -16 19.5 -29.5t47 -25.5t55 -28t47 -45t19.5 -69q0 -86 -69 -144t-175 -58q-59 0 -110 19.5t-73 38.5 z" />
<glyph unicode="&#xb9;" horiz-adv-x="598" d="M29 1503q116 29 220.5 58.5t150.5 44.5l46 14l7 -8q-17 -43 -17 -139v-564l-4 -61l162 -10l-6 -64l-535 -8v68l86 4q25 1 41 7.5t22.5 17.5t8.5 21t2 25v494q0 32 -5 45.5t-14.5 13t-23.5 -3.5l-123 -28z" />
<glyph unicode="&#xba;" horiz-adv-x="841" d="M63 1034q0 52 12.5 101.5t41 96.5t70 82t104 56t137.5 21q162 0 258 -89t96 -231q0 -69 -24 -134t-68.5 -118t-117.5 -85t-162 -32q-157 0 -252 93t-95 239zM279 1071q0 -54 9 -104.5t26.5 -94t48.5 -70t71 -26.5q32 0 56.5 18.5t38.5 46.5t22.5 66t11 70.5t2.5 66.5 q-1 68 -16 127.5t-50 102.5t-85 43q-66 0 -100.5 -71.5t-34.5 -174.5z" />
<glyph unicode="&#xbb;" horiz-adv-x="1046" d="M74 102l248 416q-23 32 -248 418l73 20q276 -286 338 -348t95 -86v-8q-37 -27 -110 -99.5t-323 -332.5zM485 102l248 416q-23 32 -248 418l74 20q282 -293 341 -352t91 -82v-8q-36 -27 -107.5 -98t-324.5 -334z" />
<glyph unicode="&#xbc;" horiz-adv-x="1738" d="M68 1272q116 29 220.5 58.5t150.5 43.5l46 15l7 -9q-17 -43 -17 -139v-563l-4 -62l162 -10l-6 -63l-535 -8v67l86 4q25 1 41 7.5t22.5 18t8.5 21.5t2 25v493q0 32 -5 46t-14.5 13.5t-23.5 -3.5l-123 -29zM408 0l809 1403l106 -43l-780 -1360h-135zM987 295l391 528 l168 19q-6 -42 -6 -142v-381h139l-20 -104h-119v-80l-4 -61l115 -11l-4 -59l-418 -8v61q42 4 67 25.5t25 52.5v80h-317zM1096 319h225v295z" />
<glyph unicode="&#xbd;" horiz-adv-x="1839" d="M63 1272q116 29 220.5 58.5t150.5 43.5l47 15l6 -9q-16 -43 -16 -139v-563l-4 -62l162 -10l-6 -63l-535 -8v67l86 4q25 1 41 7.5t22.5 18t8.5 21.5t2 25v493q0 32 -5 46t-14.5 13.5t-23.5 -3.5l-123 -29zM444 0l809 1403l107 -43l-780 -1360h-136zM1153 63q8 8 35 34 t35 34t30.5 30t31.5 31.5t27 28t27.5 29t22.5 25.5t22.5 28t18.5 25q82 122 82 221q0 72 -37.5 108.5t-95.5 36.5q-78 0 -152 -51l-45 51q5 6 14.5 16t41 35.5t65 45t84.5 35.5t102 16q101 0 176.5 -54t75.5 -147q0 -65 -48 -144t-100 -135t-176 -178l-9 -9l-8 -8l-9 -9h223 q56 0 79 23.5t42 84.5h68l-37 -266h-568z" />
<glyph unicode="&#xbe;" horiz-adv-x="1746" d="M61 625q0 24 21 39.5t47 15.5q27 0 48 -9.5t34.5 -23.5t26 -28t31 -23.5t42.5 -9.5q39 0 70 55t31 121q0 70 -40 115t-110 45l-59 -7v82q168 31 168 177q0 41 -27.5 61t-69.5 20q-68 0 -124 -36l-41 53l11.5 11.5t32 26t52 33t69.5 26t86 11.5q104 0 174 -42t70 -124 q0 -72 -62.5 -127.5t-144.5 -85.5q111 -17 185.5 -79.5t74.5 -139.5q0 -106 -103 -182t-249 -76q-38 0 -76 4.5t-78 14.5t-65 31t-25 51zM412 0l809 1403l106 -43l-780 -1360h-135zM991 295l391 528l168 19q-6 -42 -6 -142v-381h139l-20 -104h-119v-80l-4 -61l115 -11 l-4 -59l-418 -8v61q42 4 67 25.5t25 52.5v80h-317zM1100 319h225v295z" />
<glyph unicode="&#xbf;" horiz-adv-x="792" d="M27 -88q0 36 22 74t57.5 72.5t78.5 71.5t85.5 78.5t78 86t57.5 100.5t22 115h72q10 -46 10 -113q0 -63 -18.5 -119.5t-45.5 -95.5t-54 -72t-45.5 -64.5t-18.5 -57.5q0 -33 37.5 -69.5t91.5 -65.5t108 -53.5t91 -37.5l38 -14l-53 -268q-13 4 -35 12t-86 33.5t-122 52.5 t-128.5 67.5t-121.5 80.5t-86 89.5t-35 96.5zM301 799q0 65 47 111t113 46q65 0 111 -46t46 -111q0 -66 -46 -113t-111 -47q-66 0 -113 47t-47 113z" />
<glyph unicode="&#xc0;" horiz-adv-x="1280" d="M-35 0v70q103 10 137 96l476 1190l124 26l449 -1165q29 -75 58.5 -109.5t84.5 -41.5l-8 -66h-84l-399 -8v80q48 2 73 21t9 61l-97 264h-436l-35 -25l-114 -301l176 -22l-12 -70h-402zM367 1579v59l88 146h10l393 -232l-39 -84zM371 530h379l-129 361q-27 72 -52 158z" />
<glyph unicode="&#xc1;" horiz-adv-x="1280" d="M-35 0v70q103 10 137 96l476 1190l124 26l449 -1165q29 -75 58.5 -109.5t84.5 -41.5l-8 -66h-84l-399 -8v80q48 2 73 21t9 61l-97 264h-436l-35 -25l-114 -301l176 -22l-12 -70h-402zM371 530h379l-129 361q-27 72 -52 158zM424 1552l393 232h10l88 -146v-59l-452 -111z " />
<glyph unicode="&#xc2;" horiz-adv-x="1280" d="M-35 0v70q103 10 137 96l476 1190l124 26l449 -1165q29 -75 58.5 -109.5t84.5 -41.5l-8 -66h-84l-399 -8v80q48 2 73 21t9 61l-97 264h-436l-35 -25l-114 -301l176 -22l-12 -70h-402zM293 1530l274 254h150l272 -254l-69 -62l-269 146h-20l-269 -146zM371 530h379 l-129 361q-27 72 -52 158z" />
<glyph unicode="&#xc3;" horiz-adv-x="1280" d="M-35 0v70q103 10 137 96l476 1190l124 26l449 -1165q29 -75 58.5 -109.5t84.5 -41.5l-8 -66h-84l-399 -8v80q48 2 73 21t9 61l-97 264h-436l-35 -25l-114 -301l176 -22l-12 -70h-402zM266 1516q0 5 1 13.5t6.5 33.5t14 48t26 51t40 48t57.5 33.5t78 13.5 q56 0 116.5 -26.5t115 -53t96.5 -26.5q41 0 68.5 26.5t34.5 52.5l8 27l90 -10q0 -5 -1 -14t-6 -35t-13.5 -49.5t-26.5 -52.5t-42 -50t-62 -35t-85 -14t-95 16.5t-80.5 37t-71 37t-70.5 16.5q-25 0 -45.5 -11t-32 -27t-19.5 -31.5t-11 -26.5l-3 -11zM371 530h379l-129 361 q-27 72 -52 158z" />
<glyph unicode="&#xc4;" horiz-adv-x="1280" d="M-35 0v70q103 10 137 96l476 1190l124 26l449 -1165q29 -75 58.5 -109.5t84.5 -41.5l-8 -66h-84l-399 -8v80q48 2 73 21t9 61l-97 264h-436l-35 -25l-114 -301l176 -22l-12 -70h-402zM244 1626q0 61 39.5 99t101.5 38t101.5 -38t39.5 -99q0 -60 -39.5 -97.5t-101.5 -37.5 t-101.5 37.5t-39.5 97.5zM371 530h379l-129 361q-27 72 -52 158zM758 1626q0 61 39.5 99t101.5 38t101.5 -38t39.5 -99q0 -60 -39.5 -97.5t-101.5 -37.5t-101.5 37.5t-39.5 97.5z" />
<glyph unicode="&#xc5;" horiz-adv-x="1280" d="M-35 0v70q103 10 137 96l476 1190l124 26l449 -1165q29 -75 58.5 -109.5t84.5 -41.5l-8 -66h-84l-399 -8v80q48 2 73 21t9 61l-97 264h-436l-35 -25l-114 -301l176 -22l-12 -70h-402zM371 530h379l-129 361q-27 72 -52 158zM434 1622q0 66 52.5 114t154.5 48t154.5 -48 t52.5 -114q0 -74 -52 -123t-155 -49t-155 49t-52 123zM549 1620q0 -38 24 -63t68 -25q43 0 68.5 25t25.5 63q0 32 -25 57t-69 25q-46 0 -69 -24.5t-23 -57.5z" />
<glyph unicode="&#xc6;" horiz-adv-x="1820" d="M-51 0v70q54 5 83.5 30t53.5 66l557 1001q28 49 -9 82.5t-142 55.5v61h1071q37 0 76.5 2t60.5 4l20 2l-63 -362h-80q4 79 -6.5 128t-39.5 75.5t-69 35.5t-106 9h-228l-24 -25v-506h342l16 139l86 13v-392h-106v134h-314l-24 -25v-377q0 -27 -2.5 -56t-5.5 -44l-2 -15h284 q47 0 76.5 2.5t57.5 13t45 24t39 45t39.5 64.5t45.5 93h80l-75 -348h-644l-350 -6v76q65 8 101 40t36 87v426h-335l-35 -23l-277 -508l176 -22l-12 -70h-397zM528 729h301v510q-39 -31 -71 -88z" />
<glyph unicode="&#xc7;" horiz-adv-x="1404" d="M70 664q0 105 30.5 208.5t94 197t152.5 165t216 114t275 42.5q105 0 285.5 -28t197.5 -30l-61 -321h-80q-3 74 -33 129t-81.5 86.5t-114 46t-136.5 14.5q-119 0 -211 -44.5t-147 -121.5t-83 -172.5t-28 -204.5q0 -139 47 -252t126.5 -186t182.5 -112t218 -39 q66 0 131 14.5t110 35t81 41.5t54 35l17 15l35 -53q-7 -11 -20.5 -29t-63.5 -64.5t-108.5 -82t-156.5 -64.5t-206 -29q-5 0 -15.5 1t-15.5 1q-12 -40 -12 -63q0 -16 19.5 -29.5t47 -25.5t55 -28t47 -45t19.5 -69q0 -86 -69 -144t-175 -58q-59 0 -110.5 19.5t-73.5 38.5 l-21 19l35 80q8 -6 22 -15t53 -24.5t75 -15.5q37 0 65.5 15t28.5 42q0 22 -24 40t-52 29.5t-52 32t-24 46.5q0 57 68 160q-187 24 -329 125.5t-213.5 246.5t-71.5 310z" />
<glyph unicode="&#xc8;" horiz-adv-x="1226" d="M78 1305v61h891q37 0 76.5 2t60.5 4l20 2l-63 -362h-80q4 79 -6.5 128t-39.5 75.5t-69 35.5t-106 9h-227l-25 -25v-485h342l16 118l86 13v-392h-106v154h-313l-25 -25v-397q0 -27 -2.5 -56t-5.5 -44l-2 -15h284q47 0 76.5 2.5t57.5 13t45 24t39 45t39.5 64.5t45.5 93h80 l-75 -348h-643l-351 -6v76q66 8 102 40t36 87v958q0 41 -3.5 61t-20.5 38.5t-47 28.5t-87 22zM379 1579v59l88 146h10l393 -232l-39 -84z" />
<glyph unicode="&#xc9;" horiz-adv-x="1226" d="M78 1305v61h891q37 0 76.5 2t60.5 4l20 2l-63 -362h-80q4 79 -6.5 128t-39.5 75.5t-69 35.5t-106 9h-227l-25 -25v-485h342l16 118l86 13v-392h-106v154h-313l-25 -25v-397q0 -27 -2.5 -56t-5.5 -44l-2 -15h284q47 0 76.5 2.5t57.5 13t45 24t39 45t39.5 64.5t45.5 93h80 l-75 -348h-643l-351 -6v76q66 8 102 40t36 87v958q0 41 -3.5 61t-20.5 38.5t-47 28.5t-87 22zM436 1552l393 232h11l88 -146v-59l-453 -111z" />
<glyph unicode="&#xca;" horiz-adv-x="1226" d="M78 1305v61h891q37 0 76.5 2t60.5 4l20 2l-63 -362h-80q4 79 -6.5 128t-39.5 75.5t-69 35.5t-106 9h-227l-25 -25v-485h342l16 118l86 13v-392h-106v154h-313l-25 -25v-397q0 -27 -2.5 -56t-5.5 -44l-2 -15h284q47 0 76.5 2.5t57.5 13t45 24t39 45t39.5 64.5t45.5 93h80 l-75 -348h-643l-351 -6v76q66 8 102 40t36 87v958q0 41 -3.5 61t-20.5 38.5t-47 28.5t-87 22zM305 1530l275 254h149l272 -254l-69 -62l-268 146h-21l-268 -146z" />
<glyph unicode="&#xcb;" horiz-adv-x="1226" d="M78 1305v61h891q37 0 76.5 2t60.5 4l20 2l-63 -362h-80q4 79 -6.5 128t-39.5 75.5t-69 35.5t-106 9h-227l-25 -25v-485h342l16 118l86 13v-392h-106v154h-313l-25 -25v-397q0 -27 -2.5 -56t-5.5 -44l-2 -15h284q47 0 76.5 2.5t57.5 13t45 24t39 45t39.5 64.5t45.5 93h80 l-75 -348h-643l-351 -6v76q66 8 102 40t36 87v958q0 41 -3.5 61t-20.5 38.5t-47 28.5t-87 22zM256 1626q0 61 39.5 99t101.5 38t102 -38t40 -99q0 -60 -40 -97.5t-102 -37.5t-101.5 37.5t-39.5 97.5zM770 1626q0 61 39.5 99t101.5 38t102 -38t40 -99q0 -60 -40 -97.5 t-102 -37.5t-101.5 37.5t-39.5 97.5z" />
<glyph unicode="&#xcc;" horiz-adv-x="724" d="M82 1579v59l88 146h10l393 -232l-38 -84zM92 1305v61h150q114 0 194.5 2t104.5 4l24 2l10 -8q-3 -4 -7.5 -10.5t-16 -31t-20.5 -52t-16 -72t-7 -92.5v-905q0 -27 -2.5 -55t-5.5 -42l-2 -14l174 -18l-8 -68l-568 -12v76q65 8 101 43t36 90v952q0 31 -0.5 44t-5 31 t-12 25.5t-24 18t-40 17t-59.5 14.5z" />
<glyph unicode="&#xcd;" horiz-adv-x="724" d="M92 1305v61h150q114 0 194.5 2t104.5 4l24 2l10 -8q-3 -4 -7.5 -10.5t-16 -31t-20.5 -52t-16 -72t-7 -92.5v-905q0 -27 -2.5 -55t-5.5 -42l-2 -14l174 -18l-8 -68l-568 -12v76q65 8 101 43t36 90v952q0 31 -0.5 44t-5 31t-12 25.5t-24 18t-40 17t-59.5 14.5zM139 1552 l393 232h11l88 -146v-59l-453 -111z" />
<glyph unicode="&#xce;" horiz-adv-x="724" d="M8 1530l275 254h149l273 -254l-70 -62l-268 146h-21l-268 -146zM92 1305v61h150q114 0 194.5 2t104.5 4l24 2l10 -8q-3 -4 -7.5 -10.5t-16 -31t-20.5 -52t-16 -72t-7 -92.5v-905q0 -27 -2.5 -55t-5.5 -42l-2 -14l174 -18l-8 -68l-568 -12v76q65 8 101 43t36 90v952 q0 31 -0.5 44t-5 31t-12 25.5t-24 18t-40 17t-59.5 14.5z" />
<glyph unicode="&#xcf;" horiz-adv-x="724" d="M10 1626q0 61 40 99t102 38t101.5 -38t39.5 -99q0 -60 -39.5 -97.5t-101.5 -37.5t-102 37.5t-40 97.5zM92 1305v61h150q114 0 194.5 2t104.5 4l24 2l10 -8q-3 -4 -7.5 -10.5t-16 -31t-20.5 -52t-16 -72t-7 -92.5v-905q0 -27 -2.5 -55t-5.5 -42l-2 -14l174 -18l-8 -68 l-568 -12v76q65 8 101 43t36 90v952q0 31 -0.5 44t-5 31t-12 25.5t-24 18t-40 17t-59.5 14.5zM422 1626q0 61 39.5 99t101.5 38t102 -38t40 -99q0 -60 -40 -97.5t-102 -37.5t-101.5 37.5t-39.5 97.5z" />
<glyph unicode="&#xd0;" horiz-adv-x="1562" d="M78 639v113h176v403q0 41 -3.5 61t-20.5 38.5t-47 28.5t-87 22v61h609q162 0 301 -37t249.5 -111t174 -197.5t63.5 -283.5q0 -172 -67.5 -313t-184 -233t-270 -141.5t-328.5 -49.5h-176l-350 -6v76q65 8 101 40t36 87v442h-176zM518 106h125q267 0 407 147.5t140 424.5 q0 265 -126 423.5t-357 158.5h-154l-25 -25v-483h297v-113h-297v-418q0 -27 -2.5 -56t-5.5 -44z" />
<glyph unicode="&#xd1;" horiz-adv-x="1607" d="M78 1305v61h59l269 8q24 -49 79 -106l717 -756q37 -40 84 -98v729q0 28 -1 42t-5.5 34t-15 30t-28.5 21t-46.5 17.5t-69.5 10.5v68h414l10 -39q-6 -2 -15.5 -5.5t-33.5 -19t-43 -36t-34 -59.5t-15 -87v-1130h-86l-873 934q-38 38 -84 100v-827q0 -27 -2.5 -55t-5.5 -42 l-2 -14l185 -12l-9 -68l-430 -12v76q70 8 109 40t39 87v880q0 100 -33.5 147.5t-132.5 80.5zM449 1516q0 5 1 13.5t6.5 33.5t14 48t26 51t40 48t57.5 33.5t78 13.5q56 0 116.5 -26.5t114.5 -53t96 -26.5q41 0 68.5 26.5t34.5 52.5l8 27l90 -10q0 -5 -1 -14t-6 -35 t-13.5 -49.5t-26 -52.5t-41.5 -50t-62 -35t-85 -14t-95.5 16.5t-81 37t-71 37t-70.5 16.5q-39 0 -66.5 -27t-35.5 -53l-8 -27z" />
<glyph unicode="&#xd2;" horiz-adv-x="1638" d="M72 662q0 109 31 214t95 198.5t155 164t219.5 111.5t279.5 41q143 0 263 -37t202.5 -100t140 -147.5t84.5 -179.5t27 -196q0 -111 -32 -219t-98 -205t-157.5 -171t-219.5 -117.5t-276 -43.5q-138 0 -256 38t-201 104t-142 153.5t-87 187t-28 204.5zM373 721 q0 -118 31.5 -231.5t88.5 -206t147 -149t198 -56.5q102 0 185 50.5t134.5 135.5t79 190.5t27.5 221.5q0 92 -17.5 179.5t-55 166t-90.5 137.5t-129 94t-165 35q-105 0 -189.5 -47.5t-137 -127.5t-80 -180.5t-27.5 -211.5zM545 1579v59l88 146h10l393 -232l-39 -84z" />
<glyph unicode="&#xd3;" horiz-adv-x="1638" d="M72 662q0 109 31 214t95 198.5t155 164t219.5 111.5t279.5 41q143 0 263 -37t202.5 -100t140 -147.5t84.5 -179.5t27 -196q0 -111 -32 -219t-98 -205t-157.5 -171t-219.5 -117.5t-276 -43.5q-138 0 -256 38t-201 104t-142 153.5t-87 187t-28 204.5zM373 721 q0 -118 31.5 -231.5t88.5 -206t147 -149t198 -56.5q102 0 185 50.5t134.5 135.5t79 190.5t27.5 221.5q0 92 -17.5 179.5t-55 166t-90.5 137.5t-129 94t-165 35q-105 0 -189.5 -47.5t-137 -127.5t-80 -180.5t-27.5 -211.5zM602 1552l393 232h11l88 -146v-59l-453 -111z" />
<glyph unicode="&#xd4;" horiz-adv-x="1638" d="M72 662q0 109 31 214t95 198.5t155 164t219.5 111.5t279.5 41q143 0 263 -37t202.5 -100t140 -147.5t84.5 -179.5t27 -196q0 -111 -32 -219t-98 -205t-157.5 -171t-219.5 -117.5t-276 -43.5q-138 0 -256 38t-201 104t-142 153.5t-87 187t-28 204.5zM373 721 q0 -118 31.5 -231.5t88.5 -206t147 -149t198 -56.5q102 0 185 50.5t134.5 135.5t79 190.5t27.5 221.5q0 92 -17.5 179.5t-55 166t-90.5 137.5t-129 94t-165 35q-105 0 -189.5 -47.5t-137 -127.5t-80 -180.5t-27.5 -211.5zM471 1530l274 254h150l272 -254l-69 -62l-269 146 h-20l-268 -146z" />
<glyph unicode="&#xd5;" horiz-adv-x="1638" d="M72 662q0 109 31 214t95 198.5t155 164t219.5 111.5t279.5 41q143 0 263 -37t202.5 -100t140 -147.5t84.5 -179.5t27 -196q0 -111 -32 -219t-98 -205t-157.5 -171t-219.5 -117.5t-276 -43.5q-138 0 -256 38t-201 104t-142 153.5t-87 187t-28 204.5zM373 721 q0 -118 31.5 -231.5t88.5 -206t147 -149t198 -56.5q102 0 185 50.5t134.5 135.5t79 190.5t27.5 221.5q0 92 -17.5 179.5t-55 166t-90.5 137.5t-129 94t-165 35q-105 0 -189.5 -47.5t-137 -127.5t-80 -180.5t-27.5 -211.5zM444 1516q0 5 1 13.5t7 33.5t14.5 48t26 51t39.5 48 t57.5 33.5t78.5 13.5q56 0 116.5 -26.5t114.5 -53t96 -26.5q41 0 68.5 26.5t34.5 52.5l8 27l90 -10q0 -5 -1 -14t-6 -35t-13.5 -49.5t-26 -52.5t-41.5 -50t-62 -35t-85 -14t-95.5 16.5t-81 37t-71 37t-70.5 16.5q-25 0 -45.5 -11t-32 -27t-19.5 -31.5t-11 -26.5l-3 -11z" />
<glyph unicode="&#xd6;" horiz-adv-x="1638" d="M72 662q0 109 31 214t95 198.5t155 164t219.5 111.5t279.5 41q143 0 263 -37t202.5 -100t140 -147.5t84.5 -179.5t27 -196q0 -111 -32 -219t-98 -205t-157.5 -171t-219.5 -117.5t-276 -43.5q-138 0 -256 38t-201 104t-142 153.5t-87 187t-28 204.5zM373 721 q0 -118 31.5 -231.5t88.5 -206t147 -149t198 -56.5q102 0 185 50.5t134.5 135.5t79 190.5t27.5 221.5q0 92 -17.5 179.5t-55 166t-90.5 137.5t-129 94t-165 35q-105 0 -189.5 -47.5t-137 -127.5t-80 -180.5t-27.5 -211.5zM422 1626q0 61 39.5 99t101.5 38t102 -38t40 -99 q0 -60 -40 -97.5t-102 -37.5t-101.5 37.5t-39.5 97.5zM936 1626q0 61 39.5 99t101.5 38t102 -38t40 -99q0 -60 -40 -97.5t-102 -37.5t-101.5 37.5t-39.5 97.5z" />
<glyph unicode="&#xd7;" d="M57 150l373 372l-367 367l105 100l364 -364l367 368l100 -104l-364 -367l377 -372l-105 -103l-375 373l-372 -375z" />
<glyph unicode="&#xd8;" horiz-adv-x="1638" d="M72 662q0 109 31 214t95 198.5t155 164t219.5 111.5t279.5 41q214 0 371 -80l88 116h131l-129 -170q127 -92 191.5 -231t64.5 -295q0 -111 -32 -219t-98 -205t-157.5 -171t-219.5 -117.5t-276 -43.5q-214 0 -380 91l-97 -127h-133l141 186q-120 96 -182.5 238t-62.5 299z M373 721q0 -222 96 -397l635 831q-120 133 -297 133q-105 0 -189.5 -47.5t-137 -127.5t-80 -180.5t-27.5 -211.5zM530 231q127 -153 308 -153q102 0 185 50.5t134.5 135.5t79 190.5t27.5 221.5q0 217 -97 391z" />
<glyph unicode="&#xd9;" horiz-adv-x="1509" d="M35 1305v61h149q115 0 196 2t104 4l24 2l10 -8q-3 -3 -7.5 -9.5t-16 -30.5t-20.5 -51t-16 -72.5t-7 -94.5v-612q0 -101 32.5 -180t86.5 -126.5t120 -71.5t139 -24q97 0 180 42.5t138 132.5t55 212v664q0 28 -1 42t-5 33.5t-13.5 29t-26.5 21t-44 17.5t-65 10v68h423 l11 -39q-6 -2 -16.5 -6.5t-36.5 -22t-46 -40t-36.5 -62.5t-16.5 -88v-621q0 -165 -76.5 -282.5t-202.5 -173.5t-288 -56q-86 0 -167 16t-158 54.5t-134.5 95t-92 143.5t-34.5 195v676q0 31 -0.5 44t-5 31t-12 25.5t-24 18t-40 17t-59.5 14.5zM508 1579v59l88 146h10 l393 -232l-38 -84z" />
<glyph unicode="&#xda;" horiz-adv-x="1509" d="M35 1305v61h149q115 0 196 2t104 4l24 2l10 -8q-3 -3 -7.5 -9.5t-16 -30.5t-20.5 -51t-16 -72.5t-7 -94.5v-612q0 -101 32.5 -180t86.5 -126.5t120 -71.5t139 -24q97 0 180 42.5t138 132.5t55 212v664q0 28 -1 42t-5 33.5t-13.5 29t-26.5 21t-44 17.5t-65 10v68h423 l11 -39q-6 -2 -16.5 -6.5t-36.5 -22t-46 -40t-36.5 -62.5t-16.5 -88v-621q0 -165 -76.5 -282.5t-202.5 -173.5t-288 -56q-86 0 -167 16t-158 54.5t-134.5 95t-92 143.5t-34.5 195v676q0 31 -0.5 44t-5 31t-12 25.5t-24 18t-40 17t-59.5 14.5zM565 1552l393 232h11l88 -146 v-59l-453 -111z" />
<glyph unicode="&#xdb;" horiz-adv-x="1509" d="M35 1305v61h149q115 0 196 2t104 4l24 2l10 -8q-3 -3 -7.5 -9.5t-16 -30.5t-20.5 -51t-16 -72.5t-7 -94.5v-612q0 -101 32.5 -180t86.5 -126.5t120 -71.5t139 -24q97 0 180 42.5t138 132.5t55 212v664q0 28 -1 42t-5 33.5t-13.5 29t-26.5 21t-44 17.5t-65 10v68h423 l11 -39q-6 -2 -16.5 -6.5t-36.5 -22t-46 -40t-36.5 -62.5t-16.5 -88v-621q0 -165 -76.5 -282.5t-202.5 -173.5t-288 -56q-86 0 -167 16t-158 54.5t-134.5 95t-92 143.5t-34.5 195v676q0 31 -0.5 44t-5 31t-12 25.5t-24 18t-40 17t-59.5 14.5zM434 1530l275 254h149l272 -254 l-69 -62l-268 146h-21l-268 -146z" />
<glyph unicode="&#xdc;" horiz-adv-x="1509" d="M35 1305v61h149q115 0 196 2t104 4l24 2l10 -8q-3 -3 -7.5 -9.5t-16 -30.5t-20.5 -51t-16 -72.5t-7 -94.5v-612q0 -101 32.5 -180t86.5 -126.5t120 -71.5t139 -24q97 0 180 42.5t138 132.5t55 212v664q0 28 -1 42t-5 33.5t-13.5 29t-26.5 21t-44 17.5t-65 10v68h423 l11 -39q-6 -2 -16.5 -6.5t-36.5 -22t-46 -40t-36.5 -62.5t-16.5 -88v-621q0 -165 -76.5 -282.5t-202.5 -173.5t-288 -56q-86 0 -167 16t-158 54.5t-134.5 95t-92 143.5t-34.5 195v676q0 31 -0.5 44t-5 31t-12 25.5t-24 18t-40 17t-59.5 14.5zM385 1626q0 61 39.5 99 t101.5 38t102 -38t40 -99q0 -60 -40 -97.5t-102 -37.5t-101.5 37.5t-39.5 97.5zM899 1626q0 61 39.5 99t101.5 38t102 -38t40 -99q0 -60 -40 -97.5t-102 -37.5t-101.5 37.5t-39.5 97.5z" />
<glyph unicode="&#xdd;" horiz-adv-x="1212" d="M-10 1305v61h108q81 0 153.5 2t104.5 4l33 2l8 -8q-4 -9 -9 -24t-5 -54t18 -69l226 -381q35 -64 57 -115l277 455q15 28 16.5 53t-23.5 45.5t-75 28.5v61h348l10 -39q-7 -3 -19.5 -9t-45 -36t-58.5 -72l-364 -581v-426q0 -27 -3 -55t-5 -42l-3 -14l174 -18l-8 -68 l-567 -12v76q65 8 101 43t36 90v401l-377 610q-22 36 -49 58.5t-43 27.5zM410 1552l393 232h10l88 -146v-59l-452 -111z" />
<glyph unicode="&#xde;" horiz-adv-x="1200" d="M92 1305v61h150q114 0 194.5 2t104.5 4l24 2l10 -8q-3 -4 -7.5 -10.5t-16 -31t-20.5 -52t-16 -72t-7 -92.5v-49h123q79 0 153.5 -11t145.5 -36t124 -62.5t85 -94.5t32 -128q0 -95 -46 -177.5t-120.5 -136t-171 -80t-194.5 -16.5v78q116 10 173.5 80t57.5 182 q0 139 -83 217t-207 78h-48l-24 -24v-725q0 -27 -2.5 -55t-5.5 -42l-2 -14l174 -18l-8 -68l-568 -12v76q65 8 101 43t36 90v952q0 31 -0.5 44t-5 31t-12 25.5t-24 18t-40 17t-59.5 14.5z" />
<glyph unicode="&#xdf;" horiz-adv-x="1200" d="M55 801v88l125 45v57q0 89 31 175t89 158t154 116.5t214 44.5q151 0 249.5 -63.5t98.5 -182.5q0 -48 -22.5 -96t-54 -87.5t-63.5 -76t-54.5 -74t-22.5 -69.5t20.5 -63t54 -58.5t73.5 -57t79.5 -65t73 -75.5t54 -95t20.5 -117q0 -143 -99 -236.5t-258 -93.5 q-44 0 -88.5 7.5t-89.5 23.5t-73.5 47.5t-28.5 73.5q0 22 7 54.5t14 54.5l7 22h76q18 -99 63.5 -149t108.5 -50q56 0 98.5 34t42.5 95q0 39 -19 75t-49.5 65t-67.5 58.5t-74 62t-67.5 69t-49.5 85.5t-19 106q0 58 21 108.5t51 89t60.5 76.5t51.5 87.5t21 105.5q0 88 -45 147 t-131 59q-110 0 -152.5 -84t-42.5 -272v-917q0 -27 2 -52t4 -36l3 -11l-7 -6l-381 -10v59q117 14 117 127v621h-125z" />
<glyph unicode="&#xe0;" horiz-adv-x="989" d="M37 205q0 74 39.5 134.5t107 100t142.5 64.5t159 37l72 10q0 166 -10 215q-20 98 -96 98q-33 0 -65 -22.5t-55 -55t-41 -64.5t-27 -54l-9 -23h-94l-45 180q7 5 19.5 14t56 31.5t90.5 40t120 31.5t148 14q157 0 212.5 -64.5t55.5 -227.5v-461q0 -49 10.5 -73t38.5 -24 q19 0 41.5 9t35.5 17l13 9l33 -55q-4 -5 -11.5 -12t-33.5 -26.5t-53.5 -34t-70 -26.5t-85.5 -12q-79 0 -125.5 36.5t-46.5 101.5v32q-4 -7 -12.5 -18.5t-36.5 -40.5t-59 -51.5t-80 -41t-99 -18.5q-98 0 -168.5 60.5t-70.5 169.5zM178 1399v55l248 -22l156 -351l-82 -43z M303 256q0 -52 24.5 -85.5t73.5 -33.5q77 0 154 66v256l-55 -10q-87 -15 -142 -63t-55 -130z" />
<glyph unicode="&#xe1;" horiz-adv-x="989" d="M37 205q0 74 39.5 134.5t107 100t142.5 64.5t159 37l72 10q0 166 -10 215q-20 98 -96 98q-33 0 -65 -22.5t-55 -55t-41 -64.5t-27 -54l-9 -23h-94l-45 180q7 5 19.5 14t56 31.5t90.5 40t120 31.5t148 14q157 0 212.5 -64.5t55.5 -227.5v-461q0 -49 10.5 -73t38.5 -24 q19 0 41.5 9t35.5 17l13 9l33 -55q-4 -5 -11.5 -12t-33.5 -26.5t-53.5 -34t-70 -26.5t-85.5 -12q-79 0 -125.5 36.5t-46.5 101.5v32q-4 -7 -12.5 -18.5t-36.5 -40.5t-59 -51.5t-80 -41t-99 -18.5q-98 0 -168.5 60.5t-70.5 169.5zM303 256q0 -52 24.5 -85.5t73.5 -33.5 q77 0 154 66v256l-55 -10q-87 -15 -142 -63t-55 -130zM369 1081l155 351l248 22v-55l-321 -361z" />
<glyph unicode="&#xe2;" horiz-adv-x="989" d="M37 205q0 74 39.5 134.5t107 100t142.5 64.5t159 37l72 10q0 166 -10 215q-20 98 -96 98q-33 0 -65 -22.5t-55 -55t-41 -64.5t-27 -54l-9 -23h-94l-45 180q7 5 19.5 14t56 31.5t90.5 40t120 31.5t148 14q157 0 212.5 -64.5t55.5 -227.5v-461q0 -49 10.5 -73t38.5 -24 q19 0 41.5 9t35.5 17l13 9l33 -55q-4 -5 -11.5 -12t-33.5 -26.5t-53.5 -34t-70 -26.5t-85.5 -12q-79 0 -125.5 36.5t-46.5 101.5v32q-4 -7 -12.5 -18.5t-36.5 -40.5t-59 -51.5t-80 -41t-99 -18.5q-98 0 -168.5 60.5t-70.5 169.5zM174 1081l248 363h108l244 -363l-76 -51 l-223 225l-223 -225zM303 256q0 -52 24.5 -85.5t73.5 -33.5q77 0 154 66v256l-55 -10q-87 -15 -142 -63t-55 -130z" />
<glyph unicode="&#xe3;" horiz-adv-x="989" d="M37 205q0 74 39.5 134.5t107 100t142.5 64.5t159 37l72 10q0 166 -10 215q-20 98 -96 98q-33 0 -65 -22.5t-55 -55t-41 -64.5t-27 -54l-9 -23h-94l-45 180q7 5 19.5 14t56 31.5t90.5 40t120 31.5t148 14q157 0 212.5 -64.5t55.5 -227.5v-461q0 -49 10.5 -73t38.5 -24 q19 0 41.5 9t35.5 17l13 9l33 -55q-4 -5 -11.5 -12t-33.5 -26.5t-53.5 -34t-70 -26.5t-85.5 -12q-79 0 -125.5 36.5t-46.5 101.5v32q-4 -7 -12.5 -18.5t-36.5 -40.5t-59 -51.5t-80 -41t-99 -18.5q-98 0 -168.5 60.5t-70.5 169.5zM148.5 1157.5q-0.5 10.5 0 40.5t4.5 57 t17 60.5t33 57.5t55.5 40.5t81.5 16.5q40 0 74.5 -15t58.5 -37t46 -44t45.5 -37t47.5 -15q30 0 51 13.5t30 33t13.5 39.5t4.5 34v13h94q1 -6 1.5 -16.5t-0.5 -41t-6 -58t-18.5 -61.5t-34 -58.5t-57 -41t-84.5 -16.5q-39 0 -72.5 15t-56.5 37t-44 44t-44 37t-47 15 q-31 0 -52 -13.5t-29.5 -32t-13 -37.5t-3.5 -33v-13h-94q-1 6 -1.5 16.5zM303 256q0 -52 24.5 -85.5t73.5 -33.5q77 0 154 66v256l-55 -10q-87 -15 -142 -63t-55 -130z" />
<glyph unicode="&#xe4;" horiz-adv-x="989" d="M37 205q0 74 39.5 134.5t107 100t142.5 64.5t159 37l72 10q0 166 -10 215q-20 98 -96 98q-33 0 -65 -22.5t-55 -55t-41 -64.5t-27 -54l-9 -23h-94l-45 180q7 5 19.5 14t56 31.5t90.5 40t120 31.5t148 14q157 0 212.5 -64.5t55.5 -227.5v-461q0 -49 10.5 -73t38.5 -24 q19 0 41.5 9t35.5 17l13 9l33 -55q-4 -5 -11.5 -12t-33.5 -26.5t-53.5 -34t-70 -26.5t-85.5 -12q-79 0 -125.5 36.5t-46.5 101.5v32q-4 -7 -12.5 -18.5t-36.5 -40.5t-59 -51.5t-80 -41t-99 -18.5q-98 0 -168.5 60.5t-70.5 169.5zM102 1276q0 61 40 99t102 38t101.5 -38 t39.5 -99q0 -60 -39.5 -97.5t-101.5 -37.5t-102 37.5t-40 97.5zM303 256q0 -52 24.5 -85.5t73.5 -33.5q77 0 154 66v256l-55 -10q-87 -15 -142 -63t-55 -130zM565 1276q0 61 40 99t102 38t101.5 -38t39.5 -99q0 -60 -39.5 -97.5t-101.5 -37.5t-102 37.5t-40 97.5z" />
<glyph unicode="&#xe5;" horiz-adv-x="989" d="M37 205q0 74 39.5 134.5t107 100t142.5 64.5t159 37l72 10q0 166 -10 215q-20 98 -96 98q-33 0 -65 -22.5t-55 -55t-41 -64.5t-27 -54l-9 -23h-94l-45 180q7 5 19.5 14t56 31.5t90.5 40t120 31.5t148 14q157 0 212.5 -64.5t55.5 -227.5v-461q0 -49 10.5 -73t38.5 -24 q19 0 41.5 9t35.5 17l13 9l33 -55q-4 -5 -11.5 -12t-33.5 -26.5t-53.5 -34t-70 -26.5t-85.5 -12q-79 0 -125.5 36.5t-46.5 101.5v32q-4 -7 -12.5 -18.5t-36.5 -40.5t-59 -51.5t-80 -41t-99 -18.5q-98 0 -168.5 60.5t-70.5 169.5zM268 1282q0 71 53 125.5t154 54.5t154 -54.5 t53 -125.5q0 -72 -53.5 -129t-153.5 -57t-153.5 57t-53.5 129zM303 256q0 -52 24.5 -85.5t73.5 -33.5q77 0 154 66v256l-55 -10q-87 -15 -142 -63t-55 -130zM383 1280q0 -41 24 -68.5t68 -27.5q43 0 68.5 28t25.5 68q0 39 -24.5 66.5t-69.5 27.5q-46 0 -69 -27t-23 -67z" />
<glyph unicode="&#xe6;" horiz-adv-x="1449" d="M33 207q0 76 43 139t119 105.5t169.5 70t204.5 41.5v49q0 55 -3.5 93.5t-13 78t-31 60t-54.5 20.5q-35 0 -68.5 -22.5t-56.5 -55t-41 -64.5t-27 -54l-8 -23h-94l-45 180q7 5 20 14t56.5 31.5t89.5 40t116.5 31.5t141.5 14q93 0 141 -25t76 -73q120 98 262 98 q147 0 251 -93t110 -271q-89 -29 -136 -35l-446 -59q4 -66 23 -124t55.5 -107.5t97 -78t139.5 -28.5q43 0 84 8.5t69 20.5t50 24t33 21l10 8l25 -60q-5 -8 -14.5 -22t-44 -50t-75.5 -63t-109 -49.5t-144 -22.5q-134 0 -228.5 63.5t-144.5 170.5q-16 -41 -39.5 -78t-62 -74.5 t-97 -59.5t-129.5 -22q-117 0 -195.5 60t-78.5 172zM299 258q0 -52 25.5 -86.5t70.5 -34.5q70 0 121 69.5t51 155.5v107q-268 -39 -268 -211zM811 596l319 39q0 9 -1 24t-8.5 53.5t-21.5 68t-43.5 53.5t-70.5 24q-67 0 -114.5 -75t-59.5 -187z" />
<glyph unicode="&#xe7;" horiz-adv-x="917" d="M55 440q0 93 32.5 183.5t92 165.5t154.5 121t209 46q51 0 104.5 -8.5t105.5 -26.5t85.5 -51t33.5 -77q0 -40 -28 -70.5t-72 -30.5q-32 0 -57 18t-43 43.5t-37.5 51t-50 43.5t-70.5 18q-100 0 -157.5 -98t-57.5 -240q0 -163 79.5 -265.5t231.5 -102.5q63 0 123.5 18 t89.5 36l29 17l25 -59q-5 -8 -14 -21.5t-42.5 -47.5t-73 -59.5t-106.5 -47t-141 -21.5h-2q-13 -43 -13 -61q0 -16 19.5 -29.5t47.5 -25.5t55.5 -28t47 -45t19.5 -69q0 -86 -69 -144t-175 -58q-59 0 -110.5 19.5t-73.5 38.5l-21 19l35 80q8 -6 22 -15t53 -24.5t75 -15.5 q37 0 65.5 15t28.5 42q0 22 -24 40t-52 29.5t-52 32t-24 46.5q0 57 68 160q-170 27 -267.5 157t-97.5 301z" />
<glyph unicode="&#xe8;" horiz-adv-x="946" d="M55 449q0 212 134.5 359.5t332.5 147.5q72 0 135 -21.5t115 -64t83 -114t34 -164.5q-94 -33 -135 -39l-435 -66l-18 -24q9 -63 30.5 -115t58 -95.5t94.5 -68t134 -24.5q65 0 126 20.5t90 41.5l28 20l25 -60q-5 -8 -14 -22t-42 -50t-71.5 -63t-104 -49.5t-137.5 -22.5 q-109 0 -198.5 39.5t-146.5 106t-87.5 151t-30.5 177.5zM186 1397v55l248 -22l156 -351l-82 -43zM297 582l336 43q0 9 -1.5 25t-10.5 56t-24 71t-46 56t-72 25q-79 0 -127.5 -79t-54.5 -197z" />
<glyph unicode="&#xe9;" horiz-adv-x="946" d="M55 449q0 212 134.5 359.5t332.5 147.5q72 0 135 -21.5t115 -64t83 -114t34 -164.5q-94 -33 -135 -39l-435 -66l-18 -24q9 -63 30.5 -115t58 -95.5t94.5 -68t134 -24.5q65 0 126 20.5t90 41.5l28 20l25 -60q-5 -8 -14 -22t-42 -50t-71.5 -63t-104 -49.5t-137.5 -22.5 q-109 0 -198.5 39.5t-146.5 106t-87.5 151t-30.5 177.5zM297 582l336 43q0 9 -1.5 25t-10.5 56t-24 71t-46 56t-72 25q-79 0 -127.5 -79t-54.5 -197zM377 1079l155 351l248 22v-55l-321 -361z" />
<glyph unicode="&#xea;" horiz-adv-x="946" d="M55 449q0 212 134.5 359.5t332.5 147.5q72 0 135 -21.5t115 -64t83 -114t34 -164.5q-94 -33 -135 -39l-435 -66l-18 -24q9 -63 30.5 -115t58 -95.5t94.5 -68t134 -24.5q65 0 126 20.5t90 41.5l28 20l25 -60q-5 -8 -14 -22t-42 -50t-71.5 -63t-104 -49.5t-137.5 -22.5 q-109 0 -198.5 39.5t-146.5 106t-87.5 151t-30.5 177.5zM182 1079l248 363h109l243 -363l-75 -51l-224 225l-223 -225zM297 582l336 43q0 9 -1.5 25t-10.5 56t-24 71t-46 56t-72 25q-79 0 -127.5 -79t-54.5 -197z" />
<glyph unicode="&#xeb;" horiz-adv-x="946" d="M55 449q0 212 134.5 359.5t332.5 147.5q72 0 135 -21.5t115 -64t83 -114t34 -164.5q-94 -33 -135 -39l-435 -66l-18 -24q9 -63 30.5 -115t58 -95.5t94.5 -68t134 -24.5q65 0 126 20.5t90 41.5l28 20l25 -60q-5 -8 -14 -22t-42 -50t-71.5 -63t-104 -49.5t-137.5 -22.5 q-109 0 -198.5 39.5t-146.5 106t-87.5 151t-30.5 177.5zM111 1274q0 61 39.5 99t101.5 38t101.5 -38t39.5 -99q0 -60 -39.5 -97.5t-101.5 -37.5t-101.5 37.5t-39.5 97.5zM297 582l336 43q0 9 -1.5 25t-10.5 56t-24 71t-46 56t-72 25q-79 0 -127.5 -79t-54.5 -197zM573 1274 q0 61 40 99t102 38t101.5 -38t39.5 -99q0 -60 -39.5 -97.5t-101.5 -37.5t-102 37.5t-40 97.5z" />
<glyph unicode="&#xec;" horiz-adv-x="616" d="M-4 1399v55l248 -22l155 -351l-82 -43zM37 817v66q108 17 212.5 42.5t154.5 42.5l51 17l6 -6q-19 -68 -19 -234v-548q0 -27 -2.5 -55t-5.5 -42l-2 -14l164 -18l-8 -62l-525 -12v69q117 14 117 134v485q0 38 -1.5 57.5t-7 40.5t-18.5 29t-34 8h-82z" />
<glyph unicode="&#xed;" horiz-adv-x="616" d="M37 817v66q108 17 212.5 42.5t154.5 42.5l51 17l6 -6q-19 -68 -19 -234v-548q0 -27 -2.5 -55t-5.5 -42l-2 -14l164 -18l-8 -62l-525 -12v69q117 14 117 134v485q0 38 -1.5 57.5t-7 40.5t-18.5 29t-34 8h-82zM186 1081l156 351l248 22v-55l-322 -361z" />
<glyph unicode="&#xee;" horiz-adv-x="616" d="M-8 1081l248 363h108l244 -363l-76 -51l-223 225l-223 -225zM37 817v66q108 17 212.5 42.5t154.5 42.5l51 17l6 -6q-19 -68 -19 -234v-548q0 -27 -2.5 -55t-5.5 -42l-2 -14l164 -18l-8 -62l-525 -12v69q117 14 117 134v485q0 38 -1.5 57.5t-7 40.5t-18.5 29t-34 8h-82z " />
<glyph unicode="&#xef;" horiz-adv-x="616" d="M-49 1276q0 61 39.5 99t101.5 38t101.5 -38t39.5 -99q0 -60 -39.5 -97.5t-101.5 -37.5t-101.5 37.5t-39.5 97.5zM37 817v66q108 17 212.5 42.5t154.5 42.5l51 17l6 -6q-19 -68 -19 -234v-548q0 -27 -2.5 -55t-5.5 -42l-2 -14l164 -18l-8 -62l-525 -12v69q117 14 117 134 v485q0 38 -1.5 57.5t-7 40.5t-18.5 29t-34 8h-82zM350 1276q0 61 40 99t102 38t101.5 -38t39.5 -99q0 -60 -39.5 -97.5t-101.5 -37.5t-102 37.5t-40 97.5z" />
<glyph unicode="&#xf0;" horiz-adv-x="1095" d="M55 430q0 98 35 192.5t96.5 168.5t153 119.5t197.5 45.5q63 0 129 -20q-60 149 -152 258l-270 -154l-49 90l247 140q-124 118 -295 178l23 74q237 -45 424 -166l289 164l47 -90l-246 -140q160 -136 247 -323t87 -392q0 -171 -58 -305.5t-175 -214.5t-277 -80 q-107 0 -194.5 37.5t-143 101t-85.5 145t-30 171.5zM326 467q0 -69 11.5 -137t34 -128.5t62.5 -98t90 -37.5q93 0 158.5 116t65.5 324q0 88 -15 182q-30 174 -162 174q-108 0 -176.5 -112.5t-68.5 -282.5z" />
<glyph unicode="&#xf1;" horiz-adv-x="1204" d="M37 817v66q108 17 211.5 42.5t153.5 42.5l49 17l6 -6q-19 -45 -29 -227q65 85 158 144.5t207 59.5q112 0 177.5 -67t65.5 -209v-483q0 -27 -2.5 -54.5t-5.5 -40.5l-2 -14l164 -20l-8 -62l-500 -12v69q92 13 92 134v403q0 103 -26 139.5t-89 36.5q-119 0 -217 -76v-503 q0 -27 -2.5 -54.5t-5.5 -40.5l-2 -14l129 -20l-8 -62l-490 -12v69q117 14 117 134v485q0 38 -1.5 57.5t-7 40.5t-18.5 29t-34 8h-82zM281.5 1157.5q-0.5 10.5 0 40.5t4.5 57t17 60.5t33 57.5t55.5 40.5t81.5 16.5q40 0 74.5 -15t58.5 -37t46 -44t45.5 -37t47.5 -15 q30 0 51 13.5t30 33t13.5 39.5t4.5 34v13h94q1 -6 1.5 -16.5t-0.5 -41t-6 -58t-18.5 -61.5t-34 -58.5t-57 -41t-84.5 -16.5q-39 0 -72.5 15t-56.5 37t-44 44t-44 37t-47 15q-31 0 -52 -13.5t-29.5 -32t-13 -37.5t-4.5 -33l1 -13h-94q-1 6 -1.5 16.5z" />
<glyph unicode="&#xf2;" horiz-adv-x="1118" d="M55 446q0 75 18 146t58.5 137.5t98.5 116.5t145.5 80t193.5 30q227 0 360.5 -126t133.5 -328q0 -79 -20.5 -154t-63 -143t-103 -119t-146.5 -81t-187 -30q-220 0 -354 131.5t-134 339.5zM262 1399v55l248 -22l156 -351l-82 -43zM338 500q0 -78 14 -152.5t41 -138.5 t74.5 -103.5t107.5 -39.5q61 0 104.5 40.5t63.5 105t28.5 127t6.5 124.5q-1 73 -14.5 141.5t-40 128.5t-72 96.5t-104.5 36.5q-53 0 -94 -30t-65.5 -82t-37 -116.5t-12.5 -137.5z" />
<glyph unicode="&#xf3;" horiz-adv-x="1118" d="M55 446q0 75 18 146t58.5 137.5t98.5 116.5t145.5 80t193.5 30q227 0 360.5 -126t133.5 -328q0 -79 -20.5 -154t-63 -143t-103 -119t-146.5 -81t-187 -30q-220 0 -354 131.5t-134 339.5zM338 500q0 -78 14 -152.5t41 -138.5t74.5 -103.5t107.5 -39.5q61 0 104.5 40.5 t63.5 105t28.5 127t6.5 124.5q-1 73 -14.5 141.5t-40 128.5t-72 96.5t-104.5 36.5q-53 0 -94 -30t-65.5 -82t-37 -116.5t-12.5 -137.5zM453 1081l155 351l248 22v-55l-321 -361z" />
<glyph unicode="&#xf4;" horiz-adv-x="1118" d="M55 446q0 75 18 146t58.5 137.5t98.5 116.5t145.5 80t193.5 30q227 0 360.5 -126t133.5 -328q0 -79 -20.5 -154t-63 -143t-103 -119t-146.5 -81t-187 -30q-220 0 -354 131.5t-134 339.5zM258 1081l248 363h108l244 -363l-76 -51l-223 225l-223 -225zM338 500 q0 -78 14 -152.5t41 -138.5t74.5 -103.5t107.5 -39.5q61 0 104.5 40.5t63.5 105t28.5 127t6.5 124.5q-1 73 -14.5 141.5t-40 128.5t-72 96.5t-104.5 36.5q-53 0 -94 -30t-65.5 -82t-37 -116.5t-12.5 -137.5z" />
<glyph unicode="&#xf5;" horiz-adv-x="1118" d="M55 446q0 75 18 146t58.5 137.5t98.5 116.5t145.5 80t193.5 30q227 0 360.5 -126t133.5 -328q0 -79 -20.5 -154t-63 -143t-103 -119t-146.5 -81t-187 -30q-220 0 -354 131.5t-134 339.5zM231.5 1157.5q-0.5 10.5 0 40.5t5 57t17.5 60.5t33 57.5t55.5 40.5t81.5 16.5 q40 0 74.5 -15t58.5 -37t46 -44t45.5 -37t47.5 -15q30 0 51 13.5t30 33t13.5 39.5t4.5 34v13h94q1 -6 1.5 -16.5t-0.5 -41t-6 -58t-18.5 -61.5t-34 -58.5t-57 -41t-84.5 -16.5q-39 0 -72.5 15t-56.5 37t-44 44t-44 37t-47 15q-31 0 -52 -13.5t-29.5 -32t-13 -37.5t-3.5 -33 v-13h-95q-1 6 -1.5 16.5zM338 500q0 -78 14 -152.5t41 -138.5t74.5 -103.5t107.5 -39.5q61 0 104.5 40.5t63.5 105t28.5 127t6.5 124.5q-1 73 -14.5 141.5t-40 128.5t-72 96.5t-104.5 36.5q-53 0 -94 -30t-65.5 -82t-37 -116.5t-12.5 -137.5z" />
<glyph unicode="&#xf6;" horiz-adv-x="1118" d="M55 446q0 75 18 146t58.5 137.5t98.5 116.5t145.5 80t193.5 30q227 0 360.5 -126t133.5 -328q0 -79 -20.5 -154t-63 -143t-103 -119t-146.5 -81t-187 -30q-220 0 -354 131.5t-134 339.5zM186 1276q0 61 40 99t102 38t101.5 -38t39.5 -99q0 -60 -39.5 -97.5t-101.5 -37.5 t-102 37.5t-40 97.5zM338 500q0 -78 14 -152.5t41 -138.5t74.5 -103.5t107.5 -39.5q61 0 104.5 40.5t63.5 105t28.5 127t6.5 124.5q-1 73 -14.5 141.5t-40 128.5t-72 96.5t-104.5 36.5q-53 0 -94 -30t-65.5 -82t-37 -116.5t-12.5 -137.5zM649 1276q0 61 40 99t102 38 t101.5 -38t39.5 -99q0 -60 -39.5 -97.5t-101.5 -37.5t-102 37.5t-40 97.5z" />
<glyph unicode="&#xf7;" d="M74 446v146h917v-146h-917zM391 135q0 60 41.5 103t99.5 43q60 0 102 -43t42 -103q0 -59 -42 -100t-102 -41q-58 0 -99.5 41t-41.5 100zM391 901q0 59 41.5 101t99.5 42q60 0 102 -42t42 -101t-42 -101t-102 -42q-58 0 -99.5 42t-41.5 101z" />
<glyph unicode="&#xf8;" horiz-adv-x="1118" d="M55 446q0 75 18 146t58.5 137.5t98.5 116.5t145.5 80t193.5 30q140 0 248 -51l68 88h123l-105 -141q77 -60 118.5 -150t41.5 -200q0 -79 -20.5 -154t-63 -143t-103 -119t-146.5 -81t-187 -30q-138 0 -250 56l-70 -92h-125l111 149q-154 132 -154 358zM338 500 q0 -108 24 -207l347 465q-61 108 -162 108q-53 0 -94 -30t-65.5 -82t-37 -116.5t-12.5 -137.5zM406 182q61 -116 169 -116q49 0 87 28t59.5 69.5t35 97.5t18 104.5t3.5 97.5q-3 103 -26 186z" />
<glyph unicode="&#xf9;" horiz-adv-x="1175" d="M27 817v68q156 27 255 47.5t120 27.5l22 7l6 -6q-18 -58 -18 -216v-415q0 -103 30 -144t86 -41q29 0 60.5 10t56 23.5t45.5 27.5t32 24l11 10v438q0 32 -0.5 49t-4 37.5t-9.5 30t-18 16t-29 6.5h-51v70q149 26 246 46t119 27l22 7l6 -6q-19 -58 -19 -216v-540 q0 -29 3.5 -49.5t12 -33t16 -20t24 -10.5t27 -3.5t32.5 -0.5h47l-6 -65q-122 -10 -225.5 -20.5t-145.5 -15.5l-43 -5l-4 4q15 61 15 112v86q-6 -8 -16 -22.5t-45 -50.5t-72 -63.5t-93.5 -50t-113.5 -22.5q-117 0 -187.5 68t-70.5 209v426q0 39 -1.5 60t-7.5 41.5t-18.5 29 t-34.5 8.5h-61zM274 1399v55l248 -22l156 -351l-82 -43z" />
<glyph unicode="&#xfa;" horiz-adv-x="1175" d="M27 817v68q156 27 255 47.5t120 27.5l22 7l6 -6q-18 -58 -18 -216v-415q0 -103 30 -144t86 -41q29 0 60.5 10t56 23.5t45.5 27.5t32 24l11 10v438q0 32 -0.5 49t-4 37.5t-9.5 30t-18 16t-29 6.5h-51v70q149 26 246 46t119 27l22 7l6 -6q-19 -58 -19 -216v-540 q0 -29 3.5 -49.5t12 -33t16 -20t24 -10.5t27 -3.5t32.5 -0.5h47l-6 -65q-122 -10 -225.5 -20.5t-145.5 -15.5l-43 -5l-4 4q15 61 15 112v86q-6 -8 -16 -22.5t-45 -50.5t-72 -63.5t-93.5 -50t-113.5 -22.5q-117 0 -187.5 68t-70.5 209v426q0 39 -1.5 60t-7.5 41.5t-18.5 29 t-34.5 8.5h-61zM465 1081l156 351l247 22v-55l-321 -361z" />
<glyph unicode="&#xfb;" horiz-adv-x="1175" d="M27 817v68q156 27 255 47.5t120 27.5l22 7l6 -6q-18 -58 -18 -216v-415q0 -103 30 -144t86 -41q29 0 60.5 10t56 23.5t45.5 27.5t32 24l11 10v438q0 32 -0.5 49t-4 37.5t-9.5 30t-18 16t-29 6.5h-51v70q149 26 246 46t119 27l22 7l6 -6q-19 -58 -19 -216v-540 q0 -29 3.5 -49.5t12 -33t16 -20t24 -10.5t27 -3.5t32.5 -0.5h47l-6 -65q-122 -10 -225.5 -20.5t-145.5 -15.5l-43 -5l-4 4q15 61 15 112v86q-6 -8 -16 -22.5t-45 -50.5t-72 -63.5t-93.5 -50t-113.5 -22.5q-117 0 -187.5 68t-70.5 209v426q0 39 -1.5 60t-7.5 41.5t-18.5 29 t-34.5 8.5h-61zM270 1081l248 363h109l243 -363l-75 -51l-224 225l-223 -225z" />
<glyph unicode="&#xfc;" horiz-adv-x="1175" d="M27 817v68q156 27 255 47.5t120 27.5l22 7l6 -6q-18 -58 -18 -216v-415q0 -103 30 -144t86 -41q29 0 60.5 10t56 23.5t45.5 27.5t32 24l11 10v438q0 32 -0.5 49t-4 37.5t-9.5 30t-18 16t-29 6.5h-51v70q149 26 246 46t119 27l22 7l6 -6q-19 -58 -19 -216v-540 q0 -29 3.5 -49.5t12 -33t16 -20t24 -10.5t27 -3.5t32.5 -0.5h47l-6 -65q-122 -10 -225.5 -20.5t-145.5 -15.5l-43 -5l-4 4q15 61 15 112v86q-6 -8 -16 -22.5t-45 -50.5t-72 -63.5t-93.5 -50t-113.5 -22.5q-117 0 -187.5 68t-70.5 209v426q0 39 -1.5 60t-7.5 41.5t-18.5 29 t-34.5 8.5h-61zM199 1276q0 61 39.5 99t101.5 38t101.5 -38t39.5 -99q0 -60 -39.5 -97.5t-101.5 -37.5t-101.5 37.5t-39.5 97.5zM662 1276q0 61 39.5 99t101.5 38t101.5 -38t39.5 -99q0 -60 -39.5 -97.5t-101.5 -37.5t-101.5 37.5t-39.5 97.5z" />
<glyph unicode="&#xfd;" horiz-adv-x="966" d="M-18 870v62h96q81 0 155.5 2t108.5 4l35 2l8 -8q-19 -38 -20 -91.5t16 -97.5l149 -364q19 -49 39 -121l199 465q21 55 -13.5 92.5t-99.5 54.5v62h301l11 -33q-31 -28 -66 -108l-309 -723q-7 -15 -24.5 -56.5t-29 -67.5t-32.5 -70.5t-38 -75t-41.5 -71t-47 -68t-52 -57 t-57.5 -47t-62 -29t-69 -11.5q-53 0 -82.5 29.5t-29.5 74.5q0 43 32.5 74t102.5 31q95 0 156.5 45.5t103.5 142.5l18 45q-20 62 -63 162l-277 633q-20 45 -49.5 74.5t-48.5 36.5zM424 1081l156 351l247 22v-55l-321 -361z" />
<glyph unicode="&#xfe;" horiz-adv-x="1097" d="M2 1362v65q146 29 249.5 55.5t134.5 37.5l30 12l6 -6q-21 -74 -21 -232v-315q0 -36 -2 -80.5t-4 -70.5l-2 -27q117 155 279 155q161 0 265.5 -125.5t104.5 -310.5q0 -81 -21.5 -159t-66 -148t-106.5 -123t-149.5 -84t-188.5 -31q-26 0 -109 9v-217q0 -27 -2.5 -56.5 t-4.5 -44.5l-3 -16h205l-8 -60q-365 -45 -545 -94v70q59 36 77.5 78.5t18.5 119.5v1463q0 38 -1.5 57.5t-7 40.5t-18.5 29t-34 8h-76zM401 184q0 -104 105 -104q127 0 195.5 103t68.5 257q0 64 -12.5 123.5t-38 111t-70 82.5t-102.5 31q-62 0 -146 -40v-564z" />
<glyph unicode="&#xff;" horiz-adv-x="966" d="M-18 870v62h96q81 0 155.5 2t108.5 4l35 2l8 -8q-19 -38 -20 -91.5t16 -97.5l149 -364q19 -49 39 -121l199 465q21 55 -13.5 92.5t-99.5 54.5v62h301l11 -33q-31 -28 -66 -108l-309 -723q-7 -15 -24.5 -56.5t-29 -67.5t-32.5 -70.5t-38 -75t-41.5 -71t-47 -68t-52 -57 t-57.5 -47t-62 -29t-69 -11.5q-53 0 -82.5 29.5t-29.5 74.5q0 43 32.5 74t102.5 31q95 0 156.5 45.5t103.5 142.5l18 45q-20 62 -63 162l-277 633q-20 45 -49.5 74.5t-48.5 36.5zM158 1276q0 61 39.5 99t101.5 38t101.5 -38t39.5 -99q0 -60 -39.5 -97.5t-101.5 -37.5 t-101.5 37.5t-39.5 97.5zM621 1276q0 61 39.5 99t101.5 38t101.5 -38t39.5 -99q0 -60 -39.5 -97.5t-101.5 -37.5t-101.5 37.5t-39.5 97.5z" />
<glyph unicode="&#x152;" horiz-adv-x="2056" d="M72 659q0 109 31.5 215t96 199.5t153.5 164t212.5 112t265.5 41.5q68 0 191 -12.5t156 -12.5h620q37 0 76.5 2t60.5 4l21 2l-64 -362h-80q4 79 -6.5 128t-39.5 75.5t-69 35.5t-106 9h-227l-25 -25v-485h342l17 118l86 13v-392h-107v154h-313l-25 -25v-397q0 -27 -2.5 -56 t-4.5 -44l-3 -15h285q47 0 76.5 2.5t57.5 13t45 24t39 45t39.5 64.5t45.5 93h80l-76 -348h-688q-40 0 -216 -12.5t-241 -12.5q-134 0 -249 38t-197.5 103.5t-141.5 153t-87.5 186.5t-28.5 203zM373 725q0 -121 30 -234t87.5 -207t152.5 -151t215 -57q24 0 50.5 3t66 13.5 t65 37t25.5 65.5v929q0 37 -9.5 65t-33 52.5t-68.5 37.5t-110 13q-120 0 -213 -46.5t-148 -126.5t-82.5 -179.5t-27.5 -214.5z" />
<glyph unicode="&#x153;" horiz-adv-x="1673" d="M55 446q0 75 18 146t58.5 137.5t98.5 116.5t145.5 80t193.5 30q231 0 351 -165q62 77 146.5 121t182.5 44q72 0 135 -21.5t115 -64t83 -114t34 -164.5q-94 -33 -135 -39l-434 -66l-19 -26q17 -131 95 -216t223 -85q65 0 126 20.5t89 41.5l28 20l25 -60q-5 -8 -14 -22 t-44 -50t-76 -63t-109.5 -49.5t-145.5 -22.5q-208 0 -320 183q-131 -183 -362 -183q-220 0 -354 131.5t-134 339.5zM338 500q0 -78 14 -152.5t41 -138.5t74.5 -103.5t107.5 -39.5q49 0 87 28t59.5 69.5t35 97.5t18 104.5t3.5 97.5q-2 73 -15.5 141t-39.5 128.5t-71.5 97 t-104.5 36.5q-53 0 -94 -30t-65.5 -82t-37 -116.5t-12.5 -137.5zM1026 582l334 43q0 9 -1.5 25t-10.5 56t-24 71t-46 56t-72 25q-79 0 -125.5 -78t-54.5 -198z" />
<glyph unicode="&#x178;" horiz-adv-x="1212" d="M-10 1305v61h108q81 0 153.5 2t104.5 4l33 2l8 -8q-4 -9 -9 -24t-5 -54t18 -69l226 -381q35 -64 57 -115l277 455q15 28 16.5 53t-23.5 45.5t-75 28.5v61h348l10 -39q-7 -3 -19.5 -9t-45 -36t-58.5 -72l-364 -581v-426q0 -27 -3 -55t-5 -42l-3 -14l174 -18l-8 -68 l-567 -12v76q65 8 101 43t36 90v401l-377 610q-22 36 -49 58.5t-43 27.5zM229 1626q0 61 40 99t102 38t101.5 -38t39.5 -99q0 -60 -39.5 -97.5t-101.5 -37.5t-102 37.5t-40 97.5zM743 1626q0 61 40 99t102 38t101.5 -38t39.5 -99q0 -60 -39.5 -97.5t-101.5 -37.5t-102 37.5 t-40 97.5z" />
<glyph unicode="&#x2c6;" horiz-adv-x="1024" d="M211 1081l248 363h108l244 -363l-76 -51l-223 225l-223 -225z" />
<glyph unicode="&#x2dc;" horiz-adv-x="1024" d="M191.5 1157.5q-0.5 10.5 0 40.5t4.5 57t17 60.5t33 57.5t55.5 40.5t81.5 16.5q40 0 74.5 -15t58.5 -37t46 -44t45.5 -37t47.5 -15q30 0 51 13.5t30 33t13.5 39.5t4.5 34v13h94q1 -6 1.5 -16.5t-0.5 -41t-6 -58t-18.5 -61.5t-34 -58.5t-57 -41t-84.5 -16.5q-39 0 -72.5 15 t-56.5 37t-44 44t-44 37t-47 15q-31 0 -52 -13.5t-29.5 -32t-13 -37.5t-4.5 -33l1 -13h-94q-1 6 -1.5 16.5z" />
<glyph unicode="&#x2000;" horiz-adv-x="892" />
<glyph unicode="&#x2001;" horiz-adv-x="1784" />
<glyph unicode="&#x2002;" horiz-adv-x="892" />
<glyph unicode="&#x2003;" horiz-adv-x="1784" />
<glyph unicode="&#x2004;" horiz-adv-x="594" />
<glyph unicode="&#x2005;" horiz-adv-x="446" />
<glyph unicode="&#x2006;" horiz-adv-x="297" />
<glyph unicode="&#x2007;" horiz-adv-x="297" />
<glyph unicode="&#x2008;" horiz-adv-x="223" />
<glyph unicode="&#x2009;" horiz-adv-x="356" />
<glyph unicode="&#x200a;" horiz-adv-x="99" />
<glyph unicode="&#x2010;" horiz-adv-x="765" d="M111 440v164h544v-164h-544z" />
<glyph unicode="&#x2011;" horiz-adv-x="765" d="M111 440v164h544v-164h-544z" />
<glyph unicode="&#x2012;" horiz-adv-x="765" d="M111 440v164h544v-164h-544z" />
<glyph unicode="&#x2013;" d="M113 453v145h839v-145h-839z" />
<glyph unicode="&#x2014;" horiz-adv-x="1863" d="M113 453v145h1638v-145h-1638z" />
<glyph unicode="&#x2018;" horiz-adv-x="430" d="M68 1122q0 194 247 387l56 -65q-69 -67 -104.5 -119t-35.5 -100q0 -90 144 -162v-94l-191 -103q-116 124 -116 256z" />
<glyph unicode="&#x2019;" horiz-adv-x="430" d="M74 1313v94l190 102q117 -126 117 -256q0 -193 -248 -387l-55 66q68 66 103.5 118.5t35.5 100.5q0 91 -143 162z" />
<glyph unicode="&#x201a;" horiz-adv-x="481" d="M88 115v94l191 102q116 -124 116 -256q0 -193 -248 -387l-55 66q68 66 103.5 118.5t35.5 100.5q0 91 -143 162z" />
<glyph unicode="&#x201c;" horiz-adv-x="819" d="M68 1122q0 194 247 387l56 -65q-69 -67 -104.5 -119t-35.5 -100q0 -90 144 -162v-94l-191 -103q-116 124 -116 256zM457 1122q0 193 248 387l55 -65q-68 -66 -103.5 -118.5t-35.5 -100.5q0 -91 143 -162v-94l-191 -103q-116 124 -116 256z" />
<glyph unicode="&#x201d;" horiz-adv-x="819" d="M74 1313v94l190 102q117 -126 117 -256q0 -193 -248 -387l-55 66q68 66 103.5 118.5t35.5 100.5q0 91 -143 162zM463 1313v94l190 102q117 -126 117 -256q0 -193 -248 -387l-55 66q68 66 103.5 118.5t35.5 100.5q0 91 -143 162z" />
<glyph unicode="&#x201e;" horiz-adv-x="870" d="M88 115v94l191 102q116 -124 116 -256q0 -193 -248 -387l-55 66q68 66 103.5 118.5t35.5 100.5q0 91 -143 162zM477 115v94l191 102q116 -124 116 -256q0 -194 -247 -387l-56 66q69 67 104.5 119t35.5 100q0 90 -144 162z" />
<glyph unicode="&#x2022;" horiz-adv-x="876" d="M127 524q0 132 89.5 222t221.5 90t222 -90t90 -222t-90 -221.5t-222 -89.5t-221.5 89.5t-89.5 221.5z" />
<glyph unicode="&#x2026;" horiz-adv-x="1644" d="M92 133q0 66 46.5 113t111.5 47q66 0 113 -47t47 -113q0 -65 -47 -111.5t-113 -46.5q-64 0 -111 46.5t-47 111.5zM664 133q0 66 46 113t111 47q66 0 113 -47t47 -113q0 -65 -47 -111.5t-113 -46.5q-64 0 -110.5 46.5t-46.5 111.5zM1235 133q0 66 46.5 113t111.5 47 q66 0 112.5 -47t46.5 -113q0 -65 -46.5 -111.5t-112.5 -46.5q-65 0 -111.5 46.5t-46.5 111.5z" />
<glyph unicode="&#x202f;" horiz-adv-x="356" />
<glyph unicode="&#x2039;" horiz-adv-x="643" d="M53 514v8q35 25 102.5 91t340.5 343l73 -20q-100 -172 -162 -276.5t-73 -123.5l-12 -18q22 -34 247 -416l-73 -20q-262 267 -334 336.5t-109 95.5z" />
<glyph unicode="&#x203a;" horiz-adv-x="643" d="M74 102l248 416q-23 32 -248 418l73 20q273 -277 340.5 -343t102.5 -91v-8q-37 -26 -109 -95.5t-334 -336.5z" />
<glyph unicode="&#x205f;" horiz-adv-x="446" />
<glyph unicode="&#x20ac;" horiz-adv-x="1120" d="M68 406v92h102v45q0 26 4 84h-106v92h122q23 93 68 172.5t111.5 142t159 98t200.5 35.5q73 0 156 -16.5t129 -33.5l47 -17l-70 -234h-69q-3 100 -53.5 156.5t-139.5 56.5q-81 0 -140.5 -49t-91.5 -127.5t-44 -183.5h495l-26 -92h-476v-17q0 -56 9 -112h428l-27 -92h-383 q38 -131 121 -209t199 -78q56 0 113.5 14.5t87.5 28.5l30 14l31 -59q-5 -6 -15 -15.5t-44.5 -34t-72.5 -43t-98.5 -34t-124.5 -15.5q-110 0 -201.5 34t-154 94.5t-103.5 136.5t-59 166h-114z" />
<glyph unicode="&#x2122;" horiz-adv-x="1552" d="M51 1194l27 176q37 -4 80 -4h409l84 4l-26 -176h-50q0 66 -21 89.5t-69 23.5h-65v-387l-4 -46l94 -8l-2 -49l-305 -4v53q33 1 52 16.5t19 37.5v387h-57q-41 0 -64.5 -22.5t-50.5 -90.5h-51zM668 813v53q26 1 41.5 14.5t17.5 34.5l16 355q1 29 -9 39.5t-48 21.5v35h74 l180 4l4 -4q13 -37 27 -76l71 -203l15 -53l102 275l21 57h24l191 4l4 -4q-3 -4 -8.5 -11.5t-13 -34.5t-5.5 -58l19 -349q1 -10 -0.5 -21t-2.5 -16l-2 -6l87 -4l-5 -49l-297 -4v53q72 3 72 47l-14 373l-178 -471l-66 8l-168 461l-14 -369l-6 -45l88 -4l-4 -49z" />
<glyph unicode="&#xe000;" horiz-adv-x="942" d="M0 0v942h942v-942h-942z" />
</font>
</defs>
</svg>
