<svg id="Layer_1" data-name="Layer 1" xmlns="http://www.w3.org/2000/svg" viewBox="0 0 75 75"><defs><style>.cls-1{fill:#ffc565}</style></defs><path class="cls-1" d="M37.5 0A37.5 37.5 0 1075 37.5 37.54 37.54 0 0037.5 0zm0 72.12A34.62 34.62 0 1172.12 37.5 34.66 34.66 0 0137.5 72.12z"/><path class="cls-1" d="M50 38.2a1.83 1.83 0 00-1.82 1.8v8.2H26.77V26.82H35a1.84 1.84 0 000-3.67h-8.39a3.51 3.51 0 00-3.51 3.51v21.73a3.52 3.52 0 003.51 3.51h21.73a3.51 3.51 0 003.51-3.51V40A1.83 1.83 0 0050 38.2z"/><path class="cls-1" d="M51.89 24.79v-.13a1.76 1.76 0 00-.36-.85l-.07-.1a2.3 2.3 0 00-.37-.32 1.55 1.55 0 00-.41-.19h-.09a1.64 1.64 0 00-.48-.07h-7.7a1.8 1.8 0 100 3.6h3.42L34.44 38.35a1.77 1.77 0 00-.51 1.28 1.81 1.81 0 001.79 1.78 1.78 1.78 0 001.28-.54l11.3-11.56v3.24a1.8 1.8 0 103.6 0V24.9a.8.8 0 000-.11z"/></svg>