<svg id="Layer_1" data-name="Layer 1" xmlns="http://www.w3.org/2000/svg" viewBox="0 0 50 49.09"><defs><style>.cls-1{fill:#fff}</style></defs><path class="cls-1" d="M20.19 0H1a1 1 0 00-1 1v19.17a2.71 2.71 0 005.42 0V5.4h14.77a2.71 2.71 0 000-5.42zM20.19 43.69H5.42V28.92a2.71 2.71 0 00-5.42 0v19.23a1 1 0 001 1h19.19a2.71 2.71 0 000-5.42zM49 0H29.81a2.71 2.71 0 100 5.42h14.77v14.76a2.71 2.71 0 005.42 0V1a1 1 0 00-1-1zM47.29 26.21a2.71 2.71 0 00-2.71 2.71v14.77H29.81a2.71 2.71 0 100 5.42H49a1 1 0 001-1V28.92a2.71 2.71 0 00-2.71-2.71z"/></svg>