<svg id="Layer_1" data-name="Layer 1" xmlns="http://www.w3.org/2000/svg" viewBox="0 0 42.14 30"><defs><style>.cls-1{fill:#f2e55b}</style></defs><g id="Hamburger_Menu" data-name="Hamburger Menu"><path class="cls-1" d="M40.88 2.86H1.26A1.93 1.93 0 010 1.26 1.27 1.27 0 011.26 0h39.62a1.26 1.26 0 011.26 1.26 1.92 1.92 0 01-1.26 1.6zM40.88 15.71H13.49a.92.92 0 01-1.27-1c0-.7.57-1.26 1.27-1.89h27.39c.7.63 1.26 1.19 1.26 1.89s-.56 1.29-1.26 1zM40.88 30H27a2.41 2.41 0 01-1.26-1.76 1 1 0 011.26-1.1h13.88a1 1 0 011.26 1.1A2.41 2.41 0 0140.88 30z"/></g></svg>