<svg xmlns="http://www.w3.org/2000/svg" viewBox="0 0 92.82 103.16"><g style="isolation:isolate"><g style="mix-blend-mode:multiply" opacity=".6" data-name="Layer 1"><path d="M11.12 100.17C6.11 100.16 3 96 3 89.32V13.85C3 7.16 6.11 3 11.12 3a14.21 14.21 0 017 2.15l65.31 37.73c4.12 2.38 6.39 5.47 6.39 8.7s-2.27 6.32-6.39 8.7L18.07 98a14.32 14.32 0 01-6.94 2.15z"/><path d="M11.12 4.5a12.74 12.74 0 016.2 2l65.36 37.68c3.64 2.1 5.64 4.73 5.64 7.4s-2 5.3-5.64 7.4L17.32 96.72a12.82 12.82 0 01-6.19 1.94c-4.13 0-6.63-3.49-6.63-9.34V13.85C4.5 8 7 4.5 11.12 4.5m0-3C5.43 1.5 1.5 6 1.5 13.85v75.47c0 7.81 3.93 12.34 9.63 12.34a15.62 15.62 0 007.69-2.34l65.36-37.74c9.53-5.5 9.53-14.5 0-20L18.82 3.85a15.54 15.54 0 00-7.7-2.35z" fill="#fff"/></g></g></svg>