<svg id="Layer_1" data-name="Layer 1" xmlns="http://www.w3.org/2000/svg" viewBox="0 0 50 50"><defs><style>.cls-1{fill:#fff;}</style></defs><title>circle_white</title><path class="cls-1" d="M25,0a25.06,25.06,0,0,0-2.4,50c.13-1.67.24-3.52.33-5.37L23,42.35c0-.13-.07-.22-.21-.07-1.92,2-2,1.71-2.81,1.48a30.91,30.91,0,0,1-4-1.52c-.35-.24-.25-.38.15-.55,2-.85,6.32-2.77,6.92-3a.12.12,0,0,0,.07-.1l.05-1.29a.12.12,0,0,0-.16-.12c-1,.39-6.38,2.6-7.17,2.89a1.87,1.87,0,0,1-2-.19A19.2,19.2,0,0,1,11.3,37c-.1-.18-.22-.36.12-.43s10.71-2.18,11.82-2.39a.11.11,0,0,0,.09-.11l.05-1.26a.11.11,0,0,0-.13-.12c-1.19.18-9.25,1.61-10.15,1.76a1.28,1.28,0,0,1-1.51-.64c-.33-.42-1.45-2.87-1.58-3.1-.23-.43-.25-.61.16-.64,3.37-.22,12.16-.74,13.25-.8a.12.12,0,0,0,.11-.11l0-1.19a.13.13,0,0,0-.12-.12c-1.14,0-10.21.32-10.82.3a1.09,1.09,0,0,1-1.21-.8,23.92,23.92,0,0,1-.72-3.64c0-.23-.05-.41.34-.34,3.09.58,11.4,1.5,12.51,1.64a.11.11,0,0,0,.13-.11l0-1.09a.12.12,0,0,0-.1-.12c-.95-.15-8.55-1.29-9.4-1.45s-1.06-.33-1.27-1a24.32,24.32,0,0,1-.3-2.92c0-.25,0-.39.31-.29,5.13,1.5,9.87,2.7,10.73,2.92a.12.12,0,0,0,.14-.11l0-1.05a.11.11,0,0,0-.08-.12c-.82-.22-7-1.89-7.53-2.06s-1.09-.47-1.2-1.16A18,18,0,0,1,15,13.9c0-.33.06-.42.34-.29,2.33,1.16,7.57,3.12,8.52,3.48A.12.12,0,0,0,24,17l0-1a.14.14,0,0,0-.07-.12c-.64-.26-5.09-2.08-5.82-2.4a1.2,1.2,0,0,1-.92-1.22,9.77,9.77,0,0,1,0-1.93c0-.37,0-.46.59-.13C19,10.85,23.1,13,24,13.45a.11.11,0,0,0,.17-.1l0-1a.11.11,0,0,0-.06-.11l-3.7-2c-.8-.44-1-.78-1-1.16a10.87,10.87,0,0,1,.08-1.81c.07-.52.19-.59.53-.32,1.48,1.19,3.51,2.52,4.11,2.91a.12.12,0,0,0,.18-.09l0-.9a.13.13,0,0,0,0-.1c-.35-.27-2.55-1.87-2.55-1.87a.93.93,0,0,1-.28-.54,8.78,8.78,0,0,1,.23-1.65c.08-.22.13-.34.37-.1,1.07,1.07,1.75,1.63,2.19,2,.12.1.17.12.17,0,0-1-.47-3.06.55-3.62h.1c1,.56.55,2.6.55,3.62,0,.11,0,.09.17,0,.44-.37,1.12-.93,2.19-2,.24-.24.29-.12.37.1a8.78,8.78,0,0,1,.23,1.65.93.93,0,0,1-.28.54s-2.2,1.6-2.55,1.87a.13.13,0,0,0,0,.1l0,.9a.11.11,0,0,0,.18.09C26.5,9.48,28.53,8.15,30,7c.34-.27.46-.2.53.32a10.87,10.87,0,0,1,.08,1.81c0,.38-.24.72-1,1.16l-3.7,2a.11.11,0,0,0-.06.11l0,1a.11.11,0,0,0,.17.1c.87-.45,5-2.6,6.12-3.28.56-.33.54-.24.59.13a9.77,9.77,0,0,1,0,1.93,1.2,1.2,0,0,1-.92,1.22c-.73.32-5.18,2.14-5.82,2.4A.14.14,0,0,0,26,16l0,1a.12.12,0,0,0,.16.11c.95-.36,6.19-2.32,8.52-3.48.28-.13.32,0,.34.29a18,18,0,0,1-.1,2.51c-.11.69-.61,1-1.2,1.16S27,19.41,26.19,19.63a.11.11,0,0,0-.08.12l0,1.05a.12.12,0,0,0,.14.11c.86-.22,5.6-1.42,10.73-2.92.34-.1.32,0,.31.29A24.32,24.32,0,0,1,37,21.2c-.21.67-.37.84-1.28,1s-8.44,1.3-9.39,1.45a.12.12,0,0,0-.1.12l0,1.09a.11.11,0,0,0,.13.11c1.11-.14,9.42-1.06,12.51-1.64.39-.07.36.11.34.34a23.92,23.92,0,0,1-.72,3.64,1.09,1.09,0,0,1-1.21.8c-.61,0-9.68-.26-10.82-.3a.13.13,0,0,0-.12.12l0,1.19a.12.12,0,0,0,.11.11c1.09.06,9.88.58,13.25.8.41,0,.39.21.16.64-.13.23-1.25,2.68-1.58,3.1a1.28,1.28,0,0,1-1.51.64c-.9-.15-9-1.58-10.15-1.76a.11.11,0,0,0-.13.12L26.67,34a.11.11,0,0,0,.09.11c1.11.21,11.49,2.32,11.82,2.39s.22.25.12.43a19.2,19.2,0,0,1-2.55,2.9,1.89,1.89,0,0,1-2,.19c-.78-.29-6.12-2.5-7.16-2.89a.12.12,0,0,0-.16.12l.05,1.29a.12.12,0,0,0,.07.1c.6.25,4.89,2.17,6.92,3,.4.17.5.31.15.55a30.91,30.91,0,0,1-4,1.52c-.79.23-.89.54-2.81-1.48-.14-.15-.2-.06-.21.07l.08,2.28c.09,1.85.2,3.7.33,5.37A25.06,25.06,0,0,0,25,0Z"/></svg>