<svg id="Layer_1" data-name="Layer 1" xmlns="http://www.w3.org/2000/svg" viewBox="0 0 250 250"><defs><style>.cls-1{fill:#fff;}.cls-2{fill:#74af9d;}</style></defs><title>icon_trans_green_mark</title><path class="cls-1" d="M137.44,249.45c-.64-8.78-1.19-17.88-1.59-26.35l-.41-11.37a.57.57,0,0,1,0-.15l.18.17c6,6.36,8.71,8.39,11,8.39a7.86,7.86,0,0,0,2.49-.54l1-.33c4.5-1.32,17.9-6.2,20-7.64.64-.45,1.37-1.06,1.3-1.83s-.92-1.27-2.15-1.8c-6.52-2.75-17.61-7.65-25.71-11.22-4.35-1.93-7.79-3.45-8.86-3.9l-.3-6.52.07-.09c2.77,1,11.33,4.52,19.61,7.89,7.4,3,14.39,5.87,16.26,6.57a14.08,14.08,0,0,0,4.88,1.06,9.77,9.77,0,0,0,5.76-2.1c2.65-1.84,11.38-12.09,12.87-14.62.4-.68.8-1.36.51-2a1.81,1.81,0,0,0-1.44-.9c-2.48-.53-53.77-10.95-59.08-11.95l-.32-6.41.08-.08c3.57.55,19.7,3.38,32.66,5.65,8.74,1.53,16.29,2.85,18.09,3.14a13.43,13.43,0,0,0,2.15.2c3.12,0,4.31-1.53,5.56-3.15l.32-.4c1.28-1.63,4.66-8.73,6.68-13,.62-1.31,1.12-2.35,1.27-2.63.73-1.36,1.1-2.34.7-3.06a2.24,2.24,0,0,0-1.89-.85c-12.34-.79-38.9-2.38-54.77-3.33l-11.52-.69a.1.1,0,0,1-.07-.08l-.22-5.91.08-.09c4.78.16,47.78,1.48,53.62,1.48h.48c3.24-.11,4.74-.52,6.5-4.25,1.53-3.23,3.43-16.68,3.63-18.38a2.3,2.3,0,0,0-.26-1.88,1.46,1.46,0,0,0-1.17-.43,4.63,4.63,0,0,0-.84.09c-12.79,2.37-43.67,6-56.86,7.5l-5.68.67h0a.08.08,0,0,1-.08-.08l-.21-5.45a.06.06,0,0,1,.06-.08l10.27-1.57c13.41-2,33.67-5.11,36.71-5.67,4.75-.87,5.66-1.86,6.77-5.32.75-2.35,1.52-13.67,1.54-14.76v-.2a2.21,2.21,0,0,0-.35-1.63,1.17,1.17,0,0,0-.86-.32,3.59,3.59,0,0,0-1,.18c-25.52,7.49-49.14,13.47-53.62,14.59h0a.08.08,0,0,1-.09-.07l-.2-5.26a.08.08,0,0,1,.06-.08c10.56-2.85,35.33-9.53,37.67-10.31,2.91-1,5.69-2.41,6.31-6.19a87.72,87.72,0,0,0,.53-12.66c-.06-.93-.14-2.21-1.24-2.21a2.77,2.77,0,0,0-1.18.36C161.58,73.37,135.68,83.08,130.61,85h0c-.05,0-.09,0-.09-.07l-.19-5.09c4.27-1.81,25.54-10.54,29.15-12.11,3.78-1.65,4.54-3.07,4.91-6.49a52.2,52.2,0,0,0-.18-9.77l0-.33c-.13-.91-.25-1.78-1.16-1.78a5.84,5.84,0,0,0-2.5,1.11c-5.86,3.49-28.06,15.06-30.57,16.37h0s-.09,0-.09-.08l-.2-5,.51-.33c10-5.38,16.08-8.64,18-9.7,3.79-2.09,5.38-3.88,5.49-6.21a59.15,59.15,0,0,0-.4-9.17c-.19-1.35-.49-2.8-1.65-2.8a3.12,3.12,0,0,0-1.81.9c-7.4,5.92-17.58,12.6-20.52,14.51h0c-.05,0-.08,0-.08-.07l-.18-4.48c1.74-1.44,12.63-9.36,12.74-9.44a4.94,4.94,0,0,0,1.64-3.1,45.25,45.25,0,0,0-1.19-8.42c-.27-.73-.54-1.5-1.28-1.5-.41,0-.82.25-1.38.81a139.48,139.48,0,0,1-10.85,9.9l-.1.08c0-1.06.12-2.25.22-3.49.45-5.46,1-12.25-3.22-14.59a1.07,1.07,0,0,0-1,0c-4.23,2.34-3.67,9.13-3.22,14.59.1,1.27.2,2.47.23,3.5l-.11-.09a139.24,139.24,0,0,1-10.85-9.9c-.56-.56-1-.81-1.38-.81-.74,0-1,.77-1.28,1.5a44.87,44.87,0,0,0-1.19,8.42,4.94,4.94,0,0,0,1.59,3.06c.16.12,11,8,12.76,9.41l-.15,4.55a.08.08,0,0,1-.08.08c-3-1.92-13.18-8.62-20.56-14.52a3.12,3.12,0,0,0-1.81-.9c-1.16,0-1.46,1.45-1.65,2.8a57.9,57.9,0,0,0-.4,9.17c.11,2.33,1.7,4.12,5.49,6.21,2.83,1.55,14.58,7.86,18.47,9.95l-.15,5.09a.08.08,0,0,1-.08.08c-5.83-3-25.14-13.12-30.61-16.38A5.84,5.84,0,0,0,87,49.33c-.91,0-1,.87-1.16,1.79l0,.32a51.37,51.37,0,0,0-.18,9.77c.37,3.42,1.12,4.84,4.91,6.49,3.58,1.56,24.87,10.3,29.1,12l-.14,5.17a.09.09,0,0,1-.08.08c-5.11-1.9-31.06-11.64-42.61-17.36a2.77,2.77,0,0,0-1.18-.36c-1.1,0-1.18,1.28-1.24,2.21a87.77,87.77,0,0,0,.53,12.66c.62,3.78,3.4,5.21,6.31,6.19,2.53.85,31.83,8.73,37.67,10.31a.08.08,0,0,1,.06.08l-.2,5.26a.09.09,0,0,1-.08.08C114.2,102.92,90.63,97,65,89.45a3.66,3.66,0,0,0-1-.18,1.17,1.17,0,0,0-.86.32,2.22,2.22,0,0,0-.35,1.64v.19c0,1.12.78,12.37,1.54,14.76,1.11,3.46,2,4.45,6.76,5.32,3,.56,23.28,3.63,36.67,5.67,5.06.76,9,1.36,10.31,1.57a.07.07,0,0,1,.07.08l-.21,5.45a.08.08,0,0,1-.08.08l-5.71-.67c-13.18-1.54-44.06-5.13-56.84-7.5a4.63,4.63,0,0,0-.84-.09,1.48,1.48,0,0,0-1.18.43,2.25,2.25,0,0,0-.26,1.83c0,.19,2,15,3.64,18.43,1.76,3.73,3.26,4.14,6.49,4.25h.49c5.85,0,48.84-1.32,53.61-1.48l.09.09-.22,5.91s0,.07-.08.08l-11.57.69c-15.86.95-42.39,2.54-54.71,3.33a2.24,2.24,0,0,0-1.89.85c-.4.72,0,1.7.7,3.06.15.28.64,1.31,1.26,2.61,2,4.25,5.41,11.36,6.69,13l.32.41c1.26,1.61,2.44,3.14,5.56,3.14a13.43,13.43,0,0,0,2.15-.2c1.8-.29,9.35-1.61,18.09-3.14,13-2.27,29.09-5.1,32.65-5.65l.09.08-.26,6.33c-5.32,1.07-56.64,11.5-59.14,12a1.85,1.85,0,0,0-1.45.9c-.28.64.12,1.33.48,1.93,1.53,2.6,10.26,12.85,12.91,14.69a9.75,9.75,0,0,0,5.76,2.1,14.08,14.08,0,0,0,4.88-1.06c1.87-.7,8.86-3.55,16.27-6.57,8.27-3.37,16.83-6.86,19.57-7.89l.1.09-.25,6.45c-1.12.53-4.59,2.06-9,4-8.08,3.57-19.14,8.46-25.64,11.2-1.23.53-2.07,1-2.15,1.8s.65,1.38,1.3,1.83c2.07,1.44,15.46,6.32,20,7.64l1,.33a8,8,0,0,0,2.5.54c2.32,0,5-2,11-8.39a1.31,1.31,0,0,1,.18-.17c0,.06,0,.13,0,.21l-.43,11.32c-.4,8.45-.94,17.55-1.58,26.34A124.68,124.68,0,0,1,.5,125.29C.5,56.48,56.35.5,125,.5s124.5,56,124.5,124.79A124.68,124.68,0,0,1,137.44,249.45Z"/><path class="cls-2" d="M125,1A124.14,124.14,0,0,1,249,125.29,124.17,124.17,0,0,1,137.9,248.9c-.62-8.64-1.16-17.54-1.55-25.81L136,212.82c5.72,6,8.28,7.82,10.7,7.82a8.37,8.37,0,0,0,2.65-.56l1-.33c4-1.18,17.9-6.17,20.12-7.71.75-.53,1.61-1.27,1.5-2.29s-1.32-1.73-2.45-2.21c-6.5-2.74-17.58-7.64-25.67-11.21-4.08-1.8-7.36-3.25-8.66-3.8L135,187c3.23,1.24,11.22,4.5,19,7.66,7.41,3,14.4,5.87,16.28,6.57a14.57,14.57,0,0,0,5.05,1.09,10.19,10.19,0,0,0,6.05-2.19c2.77-1.92,11.47-12.16,13-14.78l0-.07a2.57,2.57,0,0,0,.5-2.38,2.41,2.41,0,0,0-1.79-1.19c-2.43-.52-52-10.58-58.77-11.89l-.22-5.49c4.38.71,19.72,3.39,32.14,5.57,8.74,1.53,16.29,2.85,18.09,3.15a14.27,14.27,0,0,0,2.23.2c3.36,0,4.68-1.7,5.95-3.34l.32-.4c1.22-1.54,4.12-7.56,6.74-13.07.62-1.3,1.11-2.33,1.26-2.6.66-1.24,1.27-2.52.7-3.55a2.64,2.64,0,0,0-2.3-1.09c-12.34-.8-38.91-2.39-54.78-3.34l-11.12-.67-.19-5.09c6.55.22,47.49,1.47,53.18,1.47h.5c3.31-.11,5.07-.59,6.94-4.53,1.67-3.54,3.65-18.4,3.67-18.54v0h0a2.63,2.63,0,0,0-.38-2.21,2,2,0,0,0-1.55-.6,4.77,4.77,0,0,0-.93.1c-12.78,2.37-43.66,6-56.85,7.5l-5.21.61-.18-4.63,9.86-1.5c13.43-2,33.71-5.12,36.76-5.68,4.67-.85,5.94-1.86,7.15-5.66.79-2.46,1.55-13.78,1.57-14.91v-.19a2.58,2.58,0,0,0-.5-2,1.65,1.65,0,0,0-1.21-.47,4.27,4.27,0,0,0-1.14.2c-24.74,7.26-47.59,13.08-53.1,14.46L131.55,99c10.55-2.84,35.06-9.45,37.38-10.23,2.91-1,6-2.53,6.64-6.58a88.13,88.13,0,0,0,.54-12.77c-.06-.94-.17-2.68-1.74-2.68a3.28,3.28,0,0,0-1.4.41C161.75,72.73,137.13,82,131,84.3l-.16-4.22c6.25-2.56,25.42-10.43,28.84-11.92,4-1.73,4.82-3.32,5.21-6.9a52.62,52.62,0,0,0-.18-9.89l-.05-.32c-.13-.94-.3-2.22-1.65-2.22-.59,0-1.26.29-2.76,1.18-5.46,3.26-24.76,13.34-30,16.05l-.16-4.1.11-.05c12.55-6.74,16.79-9,18.14-9.78,4-2.17,5.63-4.09,5.75-6.62a58.84,58.84,0,0,0-.41-9.26c-.15-1.13-.44-3.23-2.14-3.23a3.5,3.5,0,0,0-2.12,1c-6.93,5.53-16.31,11.76-19.86,14.08l-.14-3.54c2.13-1.67,12.42-9.15,12.53-9.23l0,0,0,0a5.33,5.33,0,0,0,1.76-3.43,45.67,45.67,0,0,0-1.22-8.58c-.28-.78-.65-1.83-1.75-1.83a2.63,2.63,0,0,0-1.74.95,135.78,135.78,0,0,1-10,9.23c0-.73.11-1.53.18-2.35.46-5.6,1-12.57-3.49-15.08A1.56,1.56,0,0,0,125,14h0a1.53,1.53,0,0,0-.76.19c-4.5,2.5-3.93,9.47-3.47,15.07.07.82.13,1.62.18,2.35a133.74,133.74,0,0,1-10-9.23,2.63,2.63,0,0,0-1.74-.95c-1.1,0-1.47,1.05-1.75,1.82a45.67,45.67,0,0,0-1.22,8.59A5.28,5.28,0,0,0,108,35.27l0,0,0,0c.11.08,10.4,7.56,12.53,9.23l-.14,3.54c-3.56-2.33-13-8.57-19.86-14.08a3.5,3.5,0,0,0-2.12-1c-1.7,0-2,2.1-2.15,3.23a60.39,60.39,0,0,0-.4,9.26C96,48,97.67,50,101.64,52.13c3.14,1.73,16.34,8.81,18.25,9.84l-.16,4.09c-6.41-3.34-24.68-12.9-30-16.05-1.5-.89-2.17-1.18-2.76-1.18-1.35,0-1.52,1.28-1.65,2.22l0,.32a52.22,52.22,0,0,0-.18,9.89c.38,3.58,1.23,5.16,5.21,6.9,3.41,1.49,22.58,9.36,28.84,11.92L119,84.3C112.86,82,88.2,72.7,77,67.17a3.28,3.28,0,0,0-1.4-.41c-1.57,0-1.68,1.74-1.74,2.68a88.08,88.08,0,0,0,.54,12.77c.66,4.05,3.73,5.6,6.64,6.58,2.42.81,28.79,7.92,37.38,10.23l-.17,4.41c-5.5-1.38-28.3-7.19-53.1-14.46a4.27,4.27,0,0,0-1.14-.2,1.65,1.65,0,0,0-1.21.47,2.55,2.55,0,0,0-.5,2v.18c0,1.14.79,12.48,1.57,14.91,1.21,3.8,2.48,4.81,7.14,5.66,3.06.56,23.35,3.64,36.77,5.68l9.86,1.5-.18,4.63-5.23-.61c-13.18-1.54-44.06-5.13-56.83-7.5a4.77,4.77,0,0,0-.93-.1,2,2,0,0,0-1.55.6,2.74,2.74,0,0,0-.38,2.27c0,.14,2,15,3.67,18.54,1.87,3.94,3.63,4.42,6.94,4.53h.5c5.7,0,46.68-1.26,53.18-1.47l-.19,5.09-11.18.67c-15.86.95-42.4,2.54-54.72,3.34a2.64,2.64,0,0,0-2.3,1.09c-.57,1,0,2.31.7,3.55.15.27.63,1.29,1.25,2.58,2.63,5.53,5.53,11.55,6.75,13.09l.32.41c1.27,1.63,2.59,3.33,5.95,3.33a14.27,14.27,0,0,0,2.23-.2c1.8-.3,9.35-1.62,18.09-3.15,12.42-2.18,27.76-4.86,32.14-5.57l-.23,5.49c-6.79,1.3-56.31,11.37-58.76,11.89a2.44,2.44,0,0,0-1.8,1.19,2.6,2.6,0,0,0,.51,2.38l0,.07c1.55,2.62,10.24,12.86,13,14.78a10.19,10.19,0,0,0,6,2.19,14.57,14.57,0,0,0,5-1.09c1.88-.7,8.87-3.55,16.28-6.57,7.74-3.16,15.74-6.42,19-7.66l-.21,5.56c-1.31.55-4.62,2-8.73,3.83C98,199.93,87,204.81,80.48,207.54c-1.13.48-2.34,1.08-2.45,2.21s.75,1.76,1.51,2.29c2.21,1.54,16.09,6.53,20.11,7.71l1,.33a8.37,8.37,0,0,0,2.65.56c2.42,0,5-1.84,10.7-7.82l-.38,10.26c-.39,8.26-.92,17.17-1.54,25.82A124.37,124.37,0,0,1,37.32,37.4,123.06,123.06,0,0,1,125,1m0-1C56,0,0,56.1,0,125.29A125.19,125.19,0,0,0,113,250c.61-8.34,1.19-17.6,1.62-26.87l.42-11.38c0-.4-.17-.73-.44-.73a1,1,0,0,0-.64.39c-6.27,6.62-8.65,8.23-10.66,8.23a13,13,0,0,1-3.39-.85c-4.44-1.3-17.83-6.19-19.82-7.57-1.78-1.24-1.27-1.9.76-2.75,10.11-4.28,31.56-13.86,34.57-15.13a.55.55,0,0,0,.35-.51l.25-6.45a.57.57,0,0,0-.57-.61.52.52,0,0,0-.21,0c-5.23,2-31.92,13-35.84,14.45a13.58,13.58,0,0,1-4.7,1,9.35,9.35,0,0,1-5.48-2c-2.63-1.83-11.28-12-12.72-14.46-.53-.91-1.11-1.8.6-2.16s53.54-10.91,59.07-11.95a.58.58,0,0,0,.47-.55l.26-6.33a.58.58,0,0,0-.58-.6h-.09c-5.93.93-46.25,8.06-50.74,8.8a12.71,12.71,0,0,1-2.07.19c-3.12,0-4.09-1.59-5.49-3.36-1.66-2.11-7.27-14.37-7.9-15.53-1.14-2.11-1.24-3,.78-3.17,16.89-1.09,60.84-3.69,66.29-4a.58.58,0,0,0,.54-.56l.22-5.91a.59.59,0,0,0-.58-.61h0c-5.46.18-47.9,1.48-53.6,1.48h-.47c-3.07-.1-4.39-.44-6.06-4-1.5-3.17-3.41-16.73-3.59-18.23-.11-1-.22-1.75.94-1.75a4.8,4.8,0,0,1,.75.08c15.43,2.86,57,7.48,62.57,8.18h.07a.58.58,0,0,0,.58-.56l.21-5.45a.59.59,0,0,0-.49-.6c-4.76-.74-42.76-6.46-47-7.23-4.51-.83-5.32-1.68-6.37-5-.72-2.26-1.5-13.42-1.52-14.61,0-1-.08-1.64.71-1.64a3,3,0,0,1,.86.16c25.66,7.52,49.33,13.52,53.64,14.6l.14,0a.58.58,0,0,0,.58-.57l.2-5.25a.57.57,0,0,0-.43-.59c-4.09-1.1-35-9.43-37.64-10.3-2.94-1-5.42-2.36-6-5.79a87.51,87.51,0,0,1-.52-12.55c.07-1.17.2-1.74.74-1.74a2.35,2.35,0,0,1,1,.31c11.64,5.76,37.86,15.6,42.62,17.37a.52.52,0,0,0,.21,0,.59.59,0,0,0,.58-.56l.19-5.09a.58.58,0,0,0-.36-.56c-3.17-1.3-25.42-10.43-29.09-12s-4.26-2.81-4.61-6.09a51.39,51.39,0,0,1,.17-9.64c.16-1.07.18-1.68.71-1.68a6.14,6.14,0,0,1,2.25,1C94.92,54.24,115.5,65,119.85,67.25a.54.54,0,0,0,.27.07.58.58,0,0,0,.58-.56l.2-5a.59.59,0,0,0-.31-.54c-2.22-1.19-15.39-8.26-18.47-10-4-2.2-5.14-3.9-5.23-5.79a58.78,58.78,0,0,1,.39-9.08c.23-1.62.54-2.37,1.16-2.37a2.8,2.8,0,0,1,1.5.79c7.41,5.93,17.57,12.6,20.56,14.54a.58.58,0,0,0,.89-.47l.18-4.48a.64.64,0,0,0-.22-.48c-1.74-1.39-12.73-9.38-12.73-9.38a4.47,4.47,0,0,1-1.43-2.69,44.71,44.71,0,0,1,1.17-8.26c.24-.68.42-1.16.8-1.16s.56.19,1,.65a136.76,136.76,0,0,0,11,10c.33.27.55.43.68.43s.16-.11.16-.35c0-5.13-2.33-15.31,2.73-18.11A.6.6,0,0,1,125,15h0a.58.58,0,0,1,.26.06c5.06,2.8,2.73,13,2.73,18.11,0,.24.05.35.16.35s.35-.16.68-.43a138.57,138.57,0,0,0,11-10c.46-.46.78-.65,1-.65s.56.48.8,1.16a44.71,44.71,0,0,1,1.17,8.26,4.47,4.47,0,0,1-1.43,2.69s-11,8-12.73,9.38a.64.64,0,0,0-.22.48l.18,4.48a.58.58,0,0,0,.58.56.61.61,0,0,0,.31-.09c3-1.94,13.15-8.61,20.56-14.54a2.8,2.8,0,0,1,1.5-.79c.62,0,.93.75,1.15,2.37a58.5,58.5,0,0,1,.4,9.08c-.09,1.89-1.22,3.59-5.23,5.79-3.08,1.69-16.25,8.76-18.47,10a.59.59,0,0,0-.31.54l.2,5a.58.58,0,0,0,.58.56.54.54,0,0,0,.27-.07c4.35-2.27,24.93-13,30.59-16.38a6.14,6.14,0,0,1,2.25-1c.53,0,.55.61.71,1.68a51.39,51.39,0,0,1,.17,9.64c-.35,3.28-1,4.53-4.61,6.09s-25.92,10.73-29.09,12a.58.58,0,0,0-.36.56l.19,5.09a.58.58,0,0,0,.58.56.45.45,0,0,0,.2,0c4.77-1.77,31-11.61,42.63-17.37a2.35,2.35,0,0,1,1-.31c.54,0,.67.57.74,1.74a87.73,87.73,0,0,1-.53,12.55c-.55,3.43-3,4.8-6,5.79C166,88.71,135.06,97,131,98.14a.57.57,0,0,0-.43.59l.2,5.25a.58.58,0,0,0,.58.57l.14,0c4.3-1.08,28-7.08,53.64-14.6a3,3,0,0,1,.86-.16c.79,0,.72.66.71,1.64,0,1.19-.8,12.35-1.52,14.61-1.05,3.31-1.86,4.16-6.38,5-4.2.77-42.21,6.49-47,7.23a.58.58,0,0,0-.49.6l.21,5.45a.58.58,0,0,0,.58.56h.07c5.59-.7,47.14-5.32,62.57-8.18a4.8,4.8,0,0,1,.75-.08c1.16,0,1,.79.94,1.75-.18,1.5-2.09,15.06-3.59,18.23-1.67,3.52-3,3.86-6.06,4h-.47c-5.69,0-48.14-1.3-53.6-1.48h0a.59.59,0,0,0-.58.61l.22,5.91a.58.58,0,0,0,.54.56c5.45.33,49.4,2.93,66.29,4,2,.13,1.92,1.06.78,3.17-.63,1.16-6.24,13.42-7.91,15.53-1.39,1.77-2.36,3.36-5.48,3.36a12.71,12.71,0,0,1-2.07-.19c-4.49-.74-44.81-7.87-50.74-8.8h-.09a.58.58,0,0,0-.58.6l.26,6.33a.58.58,0,0,0,.47.55c5.53,1,57.44,11.6,59.07,11.95s1.13,1.25.6,2.16c-1.44,2.43-10.09,12.63-12.72,14.46a9.35,9.35,0,0,1-5.48,2,13.68,13.68,0,0,1-4.71-1c-3.91-1.46-30.6-12.49-35.83-14.45a.52.52,0,0,0-.21,0,.59.59,0,0,0-.58.61l.26,6.45a.55.55,0,0,0,.35.51c3,1.27,24.46,10.85,34.57,15.13,2,.85,2.54,1.51.76,2.75-2,1.38-15.38,6.27-19.82,7.57a13,13,0,0,1-3.39.85c-2,0-4.39-1.61-10.67-8.23a1,1,0,0,0-.63-.39c-.27,0-.4.33-.44.73l.42,11.38c.43,9.27,1,18.53,1.62,26.87A125.18,125.18,0,0,0,250,125.29C250,56.1,194,0,125,0Z"/></svg>