<svg id="Layer_1" data-name="Layer 1" xmlns="http://www.w3.org/2000/svg" viewBox="0 0 250 158.85"><defs><style>.cls-1{font-size:20.16px;font-family:BentonSans-Black, BentonSans;font-weight:800;letter-spacing:0.01em;}.cls-1,.cls-11{fill:#1d2c27;}.cls-2{letter-spacing:0.02em;}.cls-3{letter-spacing:0.01em;}.cls-4{letter-spacing:0.02em;}.cls-5{letter-spacing:0em;}.cls-6{letter-spacing:0.01em;}.cls-7{letter-spacing:0.03em;}.cls-8{letter-spacing:0em;}.cls-9{letter-spacing:0.01em;}.cls-10{letter-spacing:0.01em;}</style></defs><title>stacked_mark</title><text class="cls-1" transform="translate(13.1 132.94)">D<tspan class="cls-2" x="15.38" y="0">artmouth Hi</tspan><tspan class="cls-3" x="143.59" y="0">s</tspan><tspan class="cls-4" x="154.78" y="0">tori</tspan><tspan class="cls-3" x="193.18" y="0">c</tspan><tspan class="cls-4" x="204.75" y="0">al</tspan><tspan class="cls-5"><tspan x="-13.1" y="21.78">A</tspan><tspan class="cls-6" x="1.61" y="21.78">cc</tspan><tspan class="cls-4" x="24.95" y="21.78">ountabili</tspan><tspan class="cls-7" x="119.55" y="21.78">t</tspan><tspan class="cls-4" x="129.26" y="21.78">y </tspan><tspan class="cls-8" x="147.4" y="21.78">P</tspan><tspan class="cls-9" x="161.31" y="21.78">r</tspan><tspan class="cls-2" x="170.28" y="21.78">og</tspan><tspan class="cls-10" x="196.42" y="21.78">r</tspan><tspan class="cls-2" x="205.29" y="21.78">am</tspan></tspan></text><path class="cls-11" d="M125,0a46.28,46.28,0,0,0-4.43,92.35c.22-3.08.43-6.5.6-9.93l.15-4.2c0-.24-.13-.41-.4-.13-3.55,3.74-3.73,3.16-5.2,2.73a57.15,57.15,0,0,1-7.34-2.8c-.66-.45-.47-.7.28-1,3.74-1.58,11.69-5.12,12.8-5.59a.21.21,0,0,0,.13-.19l.09-2.38a.2.2,0,0,0-.28-.21c-1.94.72-11.82,4.8-13.27,5.33a3.47,3.47,0,0,1-3.78-.36,35.06,35.06,0,0,1-4.7-5.34c-.2-.34-.42-.66.22-.8s19.82-4,21.87-4.41a.2.2,0,0,0,.17-.2l.1-2.34a.22.22,0,0,0-.25-.22c-2.2.34-17.12,3-18.79,3.25a2.34,2.34,0,0,1-2.79-1.17c-.62-.78-2.7-5.31-2.93-5.74-.42-.78-.46-1.12.29-1.17,6.25-.4,22.52-1.36,24.54-1.49a.21.21,0,0,0,.2-.2l.08-2.19a.2.2,0,0,0-.22-.22c-2.09.07-18.9.58-20,.54a2,2,0,0,1-2.24-1.46c-.56-1.17-1.26-6.18-1.33-6.74s-.1-.75.62-.61c5.72,1,21.1,2.76,23.17,3a.21.21,0,0,0,.24-.21l.08-2a.21.21,0,0,0-.18-.22c-1.76-.28-15.83-2.39-17.39-2.67s-2-.62-2.36-1.84a43.12,43.12,0,0,1-.56-5.4c0-.46,0-.73.58-.55,9.5,2.78,18.26,5,19.86,5.39a.2.2,0,0,0,.26-.2l.08-1.94a.22.22,0,0,0-.16-.22c-1.51-.4-13-3.48-13.94-3.8s-2-.87-2.21-2.14a32,32,0,0,1-.19-4.64c0-.62.11-.78.62-.53,4.32,2.13,14,5.77,15.79,6.42a.22.22,0,0,0,.29-.19l.07-1.88a.23.23,0,0,0-.13-.21c-1.18-.48-9.41-3.85-10.78-4.44a2.24,2.24,0,0,1-1.7-2.25,18.86,18.86,0,0,1,.06-3.56c.1-.69,0-.86,1.1-.24,2.09,1.25,9.71,5.21,11.32,6.05a.21.21,0,0,0,.32-.18l.07-1.85a.23.23,0,0,0-.11-.2c-.83-.44-5.7-3.05-6.84-3.68-1.49-.81-1.91-1.44-1.94-2.13a21.19,21.19,0,0,1,.15-3.36c.13-1,.35-1.09,1-.58,2.75,2.19,6.51,4.65,7.61,5.37a.21.21,0,0,0,.33-.17l.07-1.66a.25.25,0,0,0-.08-.18c-.64-.51-4.71-3.46-4.71-3.46a1.63,1.63,0,0,1-.53-1,15.58,15.58,0,0,1,.43-3c.14-.4.23-.63.68-.18a49.84,49.84,0,0,0,4.06,3.69c.22.19.31.22.31,0,0-1.89-.86-5.65,1-6.69l.1,0,.1,0c1.87,1,1,4.8,1,6.69,0,.19.09.16.31,0a49.84,49.84,0,0,0,4.06-3.69c.45-.45.54-.22.68.18a15.58,15.58,0,0,1,.43,3,1.63,1.63,0,0,1-.53,1s-4.07,3-4.71,3.46a.25.25,0,0,0-.08.18l.07,1.66a.21.21,0,0,0,.33.17c1.1-.72,4.86-3.18,7.61-5.37.63-.51.85-.38,1,.58a21.19,21.19,0,0,1,.15,3.36c0,.69-.45,1.32-1.94,2.13-1.14.63-6,3.24-6.84,3.68a.23.23,0,0,0-.11.2l.07,1.85a.22.22,0,0,0,.32.18c1.61-.84,9.23-4.8,11.32-6.05,1.05-.62,1-.45,1.1.24a18.86,18.86,0,0,1,.06,3.56,2.24,2.24,0,0,1-1.7,2.25c-1.37.59-9.6,4-10.78,4.44a.23.23,0,0,0-.13.21l.07,1.88a.22.22,0,0,0,.29.19c1.77-.65,11.47-4.29,15.79-6.42.51-.25.59-.09.62.53a32,32,0,0,1-.19,4.64c-.21,1.27-1.12,1.77-2.21,2.14s-12.43,3.4-13.94,3.8a.22.22,0,0,0-.16.22l.08,1.94a.2.2,0,0,0,.26.2c1.6-.4,10.36-2.61,19.86-5.39.63-.18.59.09.58.55a43.12,43.12,0,0,1-.56,5.4c-.39,1.22-.69,1.53-2.36,1.84s-15.63,2.39-17.39,2.67a.21.21,0,0,0-.18.22l.08,2a.21.21,0,0,0,.24.21c2.07-.26,17.45-2,23.17-3,.72-.14.67.2.62.61s-.77,5.57-1.33,6.74a2,2,0,0,1-2.24,1.46c-1.12,0-17.92-.47-20-.54a.2.2,0,0,0-.22.22l.08,2.19a.21.21,0,0,0,.2.2c2,.13,18.29,1.09,24.54,1.49.75.05.71.39.29,1.17-.23.43-2.31,5-2.93,5.74A2.34,2.34,0,0,1,147,63.55c-1.67-.28-16.59-2.91-18.79-3.25a.22.22,0,0,0-.25.22l.1,2.34a.2.2,0,0,0,.17.2c2.05.38,21.27,4.28,21.87,4.41s.42.46.22.8a35.06,35.06,0,0,1-4.7,5.34,3.47,3.47,0,0,1-3.78.36c-1.45-.53-11.33-4.61-13.26-5.33a.21.21,0,0,0-.29.21l.09,2.38a.21.21,0,0,0,.13.19c1.11.47,9.06,4,12.8,5.59.75.31.94.56.28,1a56,56,0,0,1-7.34,2.8c-1.47.43-1.65,1-5.2-2.73-.27-.28-.38-.11-.4.13l.15,4.2c.17,3.43.38,6.85.6,9.93A46.28,46.28,0,0,0,125,0Z"/></svg>