<?xml version="1.0" standalone="no"?>
<!DOCTYPE svg PUBLIC "-//W3C//DTD SVG 1.1//EN" "http://www.w3.org/Graphics/SVG/1.1/DTD/svg11.dtd" >
<svg xmlns="http://www.w3.org/2000/svg" xmlns:xlink="http://www.w3.org/1999/xlink" version="1.1">
<metadata>
Created by FontForge 20190801 at Wed Dec  3 18:31:26 2008
 By Jimmy Wärting
Copyright (C) 2004, 2009 Hoefler &#38; Frere-Jones. http://www.typography.com
</metadata>
<defs>
<font id="Sentinel-Black" horiz-adv-x="760" >
  <font-face 
    font-family="Sentinel Black"
    font-weight="450"
    font-stretch="normal"
    units-per-em="1000"
    panose-1="0 0 0 0 0 0 0 0 0 0"
    ascent="800"
    descent="-200"
    x-height="473"
    cap-height="658"
    bbox="-71 -386 1277 1133"
    underline-thickness="50"
    underline-position="-100"
    stemh="91"
    stemv="169"
    unicode-range="U+0020-FB04"
  />
<missing-glyph horiz-adv-x="500" 
d="M0 -200v1000h500v-1000h-500zM71 750l179 -390l179 390h-358zM50 -76l172 376l-172 376v-752zM450 676l-172 -376l172 -376v752zM250 240l-179 -390h358z" />
    <glyph glyph-name="f_b" unicode="fb" horiz-adv-x="938" 
d="M32 0v91h66v291h-83v86h83v4c0 153 116 227 252 227c46 0 81 -5 108 -15l124 13v-317c27 61 72 104 147 104c52 0 90 -19 120 -49c43 -43 64 -115 64 -198c0 -88 -25 -157 -67 -199c-31 -31 -73 -49 -125 -49c-88 0 -139 39 -170 101l-51 -97h-87v389h-146v-291h56v-91
h-291zM659 79c55 0 74 53 74 155c0 96 -20 145 -75 145c-60 0 -88 -67 -88 -150c0 -86 27 -150 89 -150zM257 512v-44h156v55c-32 8 -51 30 -51 67c0 17 6 36 15 45c-7 2 -17 4 -31 4c-49 0 -89 -20 -89 -127z" />
    <glyph glyph-name="f_f" unicode="ff" horiz-adv-x="710" 
d="M350 695c73 0 119 -14 145 -37c40 27 91 41 147 41c109 0 153 -42 153 -100c0 -45 -33 -79 -81 -79c-47 0 -78 25 -78 71c0 17 7 35 17 44c-5 2 -13 4 -21 4c-37 0 -64 -23 -64 -102v-69h145v-86h-135v-291h97v-91h-315v91h49v291h-142v-291h49v-91h-284v91h66v291h-83
v86h83v2c0 153 116 225 252 225zM409 468v19c0 11 0 22 2 32c-31 9 -49 31 -49 67c0 17 6 36 15 45c-7 2 -17 4 -31 4c-49 0 -89 -20 -89 -127v-40h152z" />
    <glyph glyph-name="f_h" unicode="fh" horiz-adv-x="981" 
d="M367 0v91h56v291h-156v-291h56v-91h-291v91h66v291h-83v86h83v4c0 153 116 227 252 227c47 0 83 -6 110 -16l132 14v-326c29 65 77 113 157 113c113 0 152 -75 152 -174v-219h65v-91h-282v91h48v205c0 30 -6 52 -20 66c-10 10 -24 15 -43 15c-43 0 -77 -43 -77 -100v-186
h46v-91h-271zM257 512v-44h166v53c-38 5 -61 28 -61 69c0 17 6 36 15 45c-7 2 -17 4 -31 4c-49 0 -89 -20 -89 -127z" />
    <glyph glyph-name="fi" unicode="fi" horiz-adv-x="670" 
d="M413 382h-146v-291h51v-91h-286v91h66v291h-83v86h83v4c0 151 114 227 263 227c139 0 192 -45 192 -101c0 -44 -37 -78 -95 -78c-60 0 -94 26 -94 72c0 16 5 33 14 42c-7 3 -15 5 -27 5c-66 0 -94 -35 -94 -127v-44h325v-377h73v-91h-293v91h51v291z" />
    <glyph glyph-name="f_j" unicode="fj" horiz-adv-x="659" 
d="M582 468v-427c0 -147 -80 -218 -206 -218c-101 0 -154 37 -154 89c0 39 28 72 77 72c55 0 82 -36 82 -72c0 -11 -2 -22 -6 -30c4 -1 10 -2 15 -2c15 1 23 9 23 42v460h-146v-291h51v-91h-286v91h66v291h-83v86h83v4c0 151 114 227 263 227c139 0 192 -45 192 -101
c0 -44 -37 -78 -95 -78c-60 0 -94 26 -94 72c0 16 5 33 14 42c-7 3 -15 5 -27 5c-66 0 -94 -35 -94 -127v-44h325z" />
    <glyph glyph-name="f_k" unicode="fk" horiz-adv-x="954" 
d="M32 0v91h66v291h-83v86h83v4c0 153 116 227 252 227c47 0 83 -6 110 -16l132 14v-446l153 133h-73v89h253v-91h-71l-97 -83l152 -208h49v-91h-275v89h51l-85 123l-57 -50v-73h47v-89h-272v91h56v291h-156v-291h56v-91h-291zM257 512v-44h166v53c-38 5 -61 28 -61 69
c0 17 6 36 15 45c-7 2 -17 4 -31 4c-49 0 -89 -20 -89 -127z" />
    <glyph glyph-name="fl" unicode="fl" horiz-adv-x="686" 
d="M32 0v91h66v291h-83v86h83v4c0 153 116 227 252 227c47 0 83 -6 109 -16h1l132 14v-606h73v-91h-298v91h56v291h-156v-291h56v-91h-291zM257 512v-44h166v53c-38 5 -61 28 -61 69c0 17 6 36 15 45c-7 2 -17 4 -31 4c-49 0 -89 -20 -89 -127z" />
    <glyph glyph-name="f_f_b" unicode="ffb" horiz-adv-x="1249" 
d="M893 697v-317c27 61 72 104 147 104c52 0 90 -19 120 -49c43 -43 64 -115 64 -198c0 -88 -25 -157 -67 -199c-31 -31 -73 -49 -125 -49c-88 0 -139 39 -170 101l-51 -97h-87v389h-146v-291h56v-91h-274v91h49v291h-142v-291h49v-91h-284v91h66v291h-83v86h83
c0 153 116 227 252 227c77 0 124 -16 149 -41c44 30 101 45 162 45c46 0 81 -5 108 -15zM970 79c55 0 74 53 74 155c0 96 -20 145 -75 145c-60 0 -88 -67 -88 -150c0 -86 27 -150 89 -150zM568 512v-44h156v55c-32 8 -51 30 -51 67c0 17 6 36 15 45c-7 2 -17 4 -31 4
c-49 0 -89 -20 -89 -127zM409 468v4c0 16 1 32 4 47c-32 8 -51 30 -51 67c0 17 6 36 15 45c-7 2 -17 4 -31 4c-49 0 -89 -20 -89 -127v-40h152z" />
    <glyph glyph-name="f_f_h" unicode="ffh" horiz-adv-x="1292" 
d="M678 0v91h56v291h-156v-291h56v-91h-274v91h49v291h-142v-291h49v-91h-284v91h66v291h-83v86h83c0 153 116 227 252 227c77 0 124 -16 149 -41c44 30 101 45 162 45c47 0 83 -6 110 -16l132 14v-326c29 65 77 113 157 113c113 0 152 -75 152 -174v-219h65v-91h-282v91h48
v205c0 30 -6 52 -20 66c-10 10 -24 15 -43 15c-43 0 -77 -43 -77 -100v-186h46v-91h-271zM568 512v-44h166v53c-38 5 -61 28 -61 69c0 17 6 36 15 45c-7 2 -17 4 -31 4c-49 0 -89 -20 -89 -127zM409 472c0 16 1 32 4 47c-32 8 -51 30 -51 67c0 17 6 36 15 45
c-7 2 -17 4 -31 4c-49 0 -89 -20 -89 -127v-40h152v4z" />
    <glyph glyph-name="f_f_i" unicode="ffi" horiz-adv-x="981" 
d="M568 512v-44h325v-377h73v-91h-293v91h51v291h-146v-291h51v-91h-269v91h49v291h-142v-291h49v-91h-284v91h66v291h-83v86h83c0 153 116 227 252 227c77 0 125 -16 150 -42c45 31 105 46 172 46c139 0 192 -45 192 -101c0 -44 -37 -78 -95 -78c-60 0 -94 26 -94 72
c0 16 5 33 14 42c-7 3 -15 5 -27 5c-66 0 -94 -35 -94 -127zM409 472c0 16 1 32 4 47c-32 8 -51 30 -51 67c0 17 6 36 15 45c-7 2 -17 4 -31 4c-49 0 -89 -20 -89 -127v-40h152v4z" />
    <glyph glyph-name="f_f_j" unicode="ffj" horiz-adv-x="970" 
d="M893 468v-427c0 -147 -80 -218 -206 -218c-101 0 -154 37 -154 89c0 39 28 72 77 72c55 0 82 -36 82 -72c0 -11 -2 -22 -6 -30c4 -1 10 -2 15 -2c15 1 23 9 23 42v460h-146v-291h51v-91h-269v91h49v291h-142v-291h49v-91h-284v91h66v291h-83v86h83c0 153 116 227 252 227
c77 0 125 -16 150 -42c45 31 105 46 172 46c139 0 192 -45 192 -101c0 -44 -37 -78 -95 -78c-60 0 -94 26 -94 72c0 16 5 33 14 42c-7 3 -15 5 -27 5c-66 0 -94 -35 -94 -127v-44h325zM409 472c0 16 1 32 4 47c-32 8 -51 30 -51 67c0 17 6 36 15 45c-7 2 -17 4 -31 4
c-49 0 -89 -20 -89 -127v-40h152v4z" />
    <glyph glyph-name="f_f_k" unicode="ffk" horiz-adv-x="1265" 
d="M903 697v-446l153 133h-73v89h253v-91h-71l-97 -83l152 -208h49v-91h-275v89h51l-85 123l-57 -50v-73h47v-89h-272v91h56v291h-156v-291h56v-91h-274v91h49v291h-142v-291h49v-91h-284v91h66v291h-83v86h83c0 153 116 227 252 227c77 0 124 -16 149 -41
c44 30 101 45 162 45c47 0 83 -6 110 -16zM568 512v-44h166v53c-38 5 -61 28 -61 69c0 17 6 36 15 45c-7 2 -17 4 -31 4c-49 0 -89 -20 -89 -127zM409 472c0 16 1 32 4 47c-32 8 -51 30 -51 67c0 17 6 36 15 45c-7 2 -17 4 -31 4c-49 0 -89 -20 -89 -127v-40h152v4z" />
    <glyph glyph-name="f_f_l" unicode="ffl" horiz-adv-x="997" 
d="M678 0v91h56v291h-156v-291h56v-91h-274v91h49v291h-142v-291h49v-91h-284v91h66v291h-83v86h83c0 153 116 227 252 227c77 0 124 -16 149 -41c44 30 101 45 162 45c47 0 83 -6 109 -16h1l132 14v-606h73v-91h-298zM568 512v-44h166v53c-38 5 -61 28 -61 69
c0 17 6 36 15 45c-7 2 -17 4 -31 4c-49 0 -89 -20 -89 -127zM409 468v4c0 16 1 32 4 47c-32 8 -51 30 -51 67c0 17 6 36 15 45c-7 2 -17 4 -31 4c-49 0 -89 -20 -89 -127v-40h152z" />
    <glyph glyph-name=".notdef" horiz-adv-x="500" 
d="M0 -200v1000h500v-1000h-500zM71 750l179 -390l179 390h-358zM50 -76l172 376l-172 376v-752zM450 676l-172 -376l172 -376v752zM250 240l-179 -390h358z" />
    <glyph glyph-name="A" unicode="A" 
d="M470 96l-35 105h-219l-35 -105h83v-96h-263v96h73l204 566h191l207 -566h73v-96h-362v96h83zM323 525l-78 -236h160l-78 236h-4z" />
    <glyph glyph-name="B" unicode="B" horiz-adv-x="697" 
d="M25 0v96h81v466h-81v96h355c222 0 271 -84 271 -159c0 -72 -49 -133 -181 -152v-7c140 -17 201 -70 201 -161c0 -101 -74 -179 -283 -179h-363zM295 388h63c79 0 104 34 104 92s-21 82 -103 82h-64v-174zM295 96h66c91 0 119 25 119 101c0 61 -30 95 -121 95h-64v-196z
" />
    <glyph glyph-name="C" unicode="C" horiz-adv-x="703" 
d="M383 -16c-213 0 -348 131 -348 338c0 213 148 352 321 352c86 0 149 -28 189 -79l22 77h100v-264h-115c-38 123 -89 177 -170 177c-87 0 -144 -66 -144 -251c0 -180 66 -246 171 -246c90 0 141 67 160 175h107c-17 -167 -105 -279 -293 -279z" />
    <glyph glyph-name="D" unicode="D" horiz-adv-x="764" 
d="M25 0v96h81v466h-81v96h302c276 0 402 -130 402 -328c0 -199 -128 -330 -398 -330h-306zM295 93h48c136 0 182 59 182 236c0 173 -50 236 -187 236h-43v-472z" />
    <glyph glyph-name="E" unicode="E" horiz-adv-x="720" 
d="M25 0v96h81v466h-81v96h645v-243h-103c-21 129 -38 150 -125 150h-147v-187h48c48 0 52 11 63 88h89v-269h-89c-9 76 -16 88 -63 88h-48v-192h143c107 0 120 38 138 178h103v-271h-654z" />
    <glyph glyph-name="F" unicode="F" horiz-adv-x="690" 
d="M25 0v96h81v466h-81v96h632v-248h-103c-26 138 -51 155 -138 155h-121v-199h36c48 0 52 11 63 88h89v-272h-89c-9 79 -16 91 -63 91h-36v-177h104v-96h-374z" />
    <glyph glyph-name="G" unicode="G" horiz-adv-x="765" 
d="M537 95c-28 -62 -80 -111 -184 -111c-182 0 -318 134 -318 343c0 205 155 347 325 347c85 0 143 -30 183 -84l23 82h101v-254h-133c-34 120 -79 167 -152 167c-83 0 -144 -76 -144 -251c0 -159 47 -251 146 -251c31 0 55 10 74 29c26 26 37 67 37 122v15h-106v96h362v-96
h-70v-257h-101z" />
    <glyph glyph-name="H" unicode="H" horiz-adv-x="828" 
d="M25 0v96h81v466h-81v96h357v-96h-87v-173h238v173h-87v96h357v-96h-81v-466h81v-96h-357v96h87v197h-238v-197h87v-96h-357z" />
    <glyph glyph-name="I" unicode="I" horiz-adv-x="431" 
d="M37 0v96h84v466h-84v96h357v-96h-84v-466h84v-96h-357z" />
    <glyph glyph-name="J" unicode="J" horiz-adv-x="599" 
d="M260 -16c-156 0 -248 73 -248 180c0 65 44 115 106 115c51 0 88 -30 88 -87c0 -42 -22 -74 -57 -91c16 -18 46 -30 81 -30c57 0 88 40 88 105v386h-93v96h364v-96h-81v-335c0 -147 -77 -243 -248 -243z" />
    <glyph glyph-name="K" unicode="K" horiz-adv-x="763" 
d="M295 217v-123h76v-94h-346v96h81v466h-81v96h351v-94h-81v-232l238 232h-80v94h287v-96h-80l-161 -156l220 -310h65v-96h-351v94h69l-131 196z" />
    <glyph glyph-name="L" unicode="L" horiz-adv-x="648" 
d="M25 658h364v-93h-94v-472h102c78 0 95 21 136 190h91v-283h-599v96h81v466h-81v96z" />
    <glyph glyph-name="M" unicode="M" horiz-adv-x="968" 
d="M25 0v96h79v466h-79v96h336l131 -371h4l117 371h330v-96h-81v-466h81v-96h-350v96h80v440h-9l-186 -537h-74l-195 537h-9v-440h78v-96h-253z" />
    <glyph glyph-name="N" unicode="N" horiz-adv-x="784" 
d="M491 -6l-282 497h-9v-395h84v-96h-259v96h79v466h-79v96h307l256 -452h9v356h-84v96h259v-96h-79v-568h-202z" />
    <glyph glyph-name="O" unicode="O" 
d="M380 -16c-203 0 -345 131 -345 343c0 211 147 347 345 347c203 0 345 -132 345 -343c0 -212 -147 -347 -345 -347zM384 73c95 0 138 71 138 256c0 184 -51 256 -146 256s-138 -72 -138 -256c0 -185 51 -256 146 -256z" />
    <glyph glyph-name="P" unicode="P" horiz-adv-x="682" 
d="M25 0v96h81v466h-81v96h344c208 0 292 -80 292 -205c0 -122 -87 -205 -292 -205h-74v-152h87v-96h-357zM295 342h59c82 0 109 32 109 113c0 82 -25 112 -109 112h-59v-225z" />
    <glyph glyph-name="Q" unicode="Q" 
d="M380 -11c-203 0 -345 131 -345 338c0 211 147 347 345 347c203 0 345 -132 345 -343c0 -113 -52 -208 -131 -269c25 -56 40 -69 68 -69c30 0 41 17 52 77h67c-11 -143 -67 -187 -152 -187c-87 0 -125 34 -163 117c-27 -7 -56 -11 -86 -11zM259 171c16 61 57 108 126 108
c61 0 101 -27 131 -89c7 36 11 82 11 139c0 184 -51 256 -151 256c-95 0 -138 -72 -138 -256c0 -78 10 -136 21 -158zM384 73c17 0 32 2 45 5c-24 63 -46 96 -86 96c-31 0 -49 -26 -49 -52c0 -28 21 -49 90 -49z" />
    <glyph glyph-name="R" unicode="R" horiz-adv-x="747" 
d="M295 285v-189h87v-96h-357v96h81v466h-81v96h379c198 0 270 -82 270 -165c0 -84 -53 -147 -219 -163v-6c135 -7 181 -65 184 -147l1 -25c2 -46 11 -56 31 -56c14 0 26 15 39 67l65 -18c-18 -90 -59 -160 -164 -160c-123 0 -164 66 -164 183v15c0 75 -18 102 -83 102h-69z
M295 376h79c66 0 101 22 101 96c0 66 -19 95 -101 95h-79v-191z" />
    <glyph glyph-name="S" unicode="S" horiz-adv-x="632" 
d="M41 -14v246h100c31 -102 89 -156 201 -156c68 0 105 33 105 78c0 52 -59 64 -163 88c-111 25 -238 63 -238 215c0 133 112 217 242 217c78 0 137 -29 170 -74l21 72h97v-236h-100c-33 100 -79 146 -168 146c-68 0 -102 -38 -102 -77c0 -56 66 -69 168 -93
c110 -26 233 -63 233 -210c0 -130 -102 -218 -251 -218c-85 0 -159 37 -195 83l-23 -81h-97z" />
    <glyph glyph-name="T" unicode="T" horiz-adv-x="707" 
d="M161 0v96h98v479h-17c-78 0 -94 -26 -126 -195h-93v278h661v-278h-93c-32 169 -48 195 -126 195h-17v-479h98v-96h-385z" />
    <glyph glyph-name="U" unicode="U" horiz-adv-x="753" 
d="M396 -16c-205 0 -300 93 -300 254v324h-81v96h359v-96h-89v-306c0 -121 49 -160 139 -160c44 0 76 11 100 35c27 27 41 74 41 143v288h-82v96h260v-96h-77v-317c0 -143 -80 -261 -270 -261z" />
    <glyph glyph-name="V" unicode="V" 
d="M299 -4l-215 566h-73v96h362v-96h-83l142 -405h6l141 405h-83v96h263v-96h-73l-212 -566h-175z" />
    <glyph glyph-name="W" unicode="W" horiz-adv-x="1098" 
d="M766 564h-72l109 -392h7l104 392h-82v94h265v-96h-77l-170 -566h-183l-103 343l-127 -343h-181l-165 566h-80v96h353v-94h-68l105 -395h7l114 302l-28 93h-67v94h339v-94z" />
    <glyph glyph-name="X" unicode="X" horiz-adv-x="732" 
d="M451 564v94h268v-96h-74l-180 -200l202 -266h66v-96h-362v94h72l-108 156l-129 -156h71v-94h-268v96h74l184 212l-197 254h-66v96h362v-94h-72l103 -145l125 145h-71z" />
    <glyph glyph-name="Y" unicode="Y" horiz-adv-x="689" 
d="M401 372l114 192h-76v94h263v-96h-71l-185 -288v-178h84v-96h-357v96h84v164l-194 302h-63v96h356v-94h-68z" />
    <glyph glyph-name="Z" unicode="Z" horiz-adv-x="666" 
d="M22 0v91l389 474h-144c-78 0 -95 -21 -135 -180h-91v273h590v-91l-391 -474h167c78 0 95 21 136 190h91v-283h-612z" />
    <glyph glyph-name="a" unicode="a" horiz-adv-x="573" 
d="M170 -11c-83 0 -148 48 -148 127c0 31 13 60 33 80c28 28 75 51 205 68c53 7 55 8 55 17v39c0 60 -28 83 -83 83c-17 0 -37 -3 -53 -10c14 -12 22 -28 22 -52c0 -37 -34 -64 -77 -64c-56 0 -82 35 -82 76c0 91 116 131 236 131c157 0 203 -76 203 -174v-205
c0 -22 10 -26 22 -26c10 0 21 10 29 50l55 -14c-17 -87 -55 -126 -132 -126c-63 0 -110 32 -121 107h-5c-33 -81 -86 -107 -159 -107zM249 83c44 0 66 43 66 107v32c-9 -2 -20 -3 -45 -8c-60 -11 -78 -38 -78 -76c0 -28 16 -55 57 -55z" />
    <glyph glyph-name="b" unicode="b" horiz-adv-x="594" 
d="M315 79c55 0 74 53 74 155c0 96 -20 145 -75 145c-60 0 -88 -67 -88 -150c0 -86 27 -150 89 -150zM69 -7v608h-66v91h235v-312c27 61 72 104 147 104c52 0 90 -19 120 -49c43 -43 64 -115 64 -198c0 -88 -25 -157 -67 -199c-31 -31 -73 -49 -125 -49
c-88 0 -139 39 -170 101l-51 -97h-87z" />
    <glyph glyph-name="c" unicode="c" horiz-adv-x="527" 
d="M291 -11c-167 0 -266 94 -266 239c0 154 107 256 267 256c150 0 215 -86 215 -161c0 -52 -30 -89 -86 -89c-52 0 -81 35 -81 76c0 34 21 55 44 64c-14 17 -36 29 -71 29c-64 0 -109 -61 -109 -165c0 -91 36 -154 108 -154c53 0 86 31 103 81h91
c-20 -100 -89 -176 -215 -176z" />
    <glyph glyph-name="d" unicode="d" horiz-adv-x="612" 
d="M208 -11c-52 0 -90 19 -120 49c-43 43 -64 115 -64 198c0 88 25 157 67 199c31 31 73 49 122 49c67 0 113 -32 142 -80v197h-71v91h240v-601h66v-91h-223v100c-26 -64 -76 -111 -159 -111zM282 86c57 0 85 67 85 150c0 86 -25 150 -85 150c-57 0 -78 -53 -78 -155
c0 -96 20 -145 78 -145z" />
    <glyph glyph-name="e" unicode="e" horiz-adv-x="545" 
d="M517 212h-319c6 -107 47 -135 117 -135c55 0 88 23 106 80h90c-15 -98 -78 -168 -222 -168c-162 0 -264 95 -264 243c0 145 109 252 255 252c167 0 246 -107 237 -272zM278 410c-46 0 -75 -31 -80 -129h156c-4 100 -29 129 -76 129z" />
    <glyph glyph-name="f" unicode="f" horiz-adv-x="399" 
d="M32 0v91h66v291h-83v86h83v19c0 138 105 212 233 212c109 0 153 -42 153 -100c0 -45 -33 -79 -81 -79c-47 0 -78 25 -78 71c0 17 7 35 17 44c-5 2 -13 4 -21 4c-37 0 -64 -23 -64 -102v-69h145v-86h-135v-291h97v-91h-332z" />
    <glyph glyph-name="g" unicode="g" horiz-adv-x="540" 
d="M466 333c0 -97 -69 -152 -209 -152c-19 0 -48 2 -65 2c-29 0 -48 -13 -48 -31c0 -19 19 -30 74 -30h132c131 0 184 -52 184 -130c0 -100 -87 -169 -309 -169c-164 0 -228 38 -228 102c0 48 41 78 117 89v5c-58 9 -90 47 -90 88c0 53 52 97 131 104
c-74 14 -119 55 -119 125c0 81 70 148 211 148c33 0 62 -3 88 -9c21 70 72 113 139 113c68 0 94 -39 94 -77c0 -37 -26 -67 -71 -67c-38 0 -62 26 -62 59c0 4 1 9 1 13c-21 -4 -39 -21 -51 -57c53 -25 81 -68 81 -126zM245 -103c106 0 139 24 139 58c0 21 -22 35 -83 35
h-124c-53 0 -77 -21 -77 -44c0 -28 35 -49 145 -49zM253 233c39 0 54 30 54 96c0 65 -18 98 -58 98s-55 -32 -55 -98c0 -65 18 -96 59 -96z" />
    <glyph glyph-name="h" unicode="h" horiz-adv-x="646" 
d="M22 0v91h66v510h-66v91h235v-321c29 65 77 113 157 113c113 0 152 -75 152 -174v-219h65v-91h-282v91h48v205c0 30 -6 52 -20 66c-10 10 -24 15 -43 15c-43 0 -77 -43 -77 -100v-186h46v-91h-281z" />
    <glyph glyph-name="i" unicode="i" horiz-adv-x="357" 
d="M177 529c-60 0 -100 39 -100 91c0 53 41 95 100 95c60 0 100 -39 100 -91c0 -53 -41 -95 -100 -95zM27 0v91h73v291h-73v91h242v-382h73v-91h-315z" />
    <glyph glyph-name="j" unicode="j" horiz-adv-x="366" 
d="M197 529c-60 0 -100 39 -100 91c0 53 41 95 100 95c60 0 100 -39 100 -91c0 -53 -41 -95 -100 -95zM83 -177c-101 0 -154 37 -154 89c0 39 28 72 77 72c55 0 82 -36 82 -72c0 -11 -2 -22 -6 -30c4 -1 10 -2 15 -2c15 1 23 9 23 42v460h-83v91h252v-432
c0 -147 -80 -218 -206 -218z" />
    <glyph glyph-name="k" unicode="k" horiz-adv-x="619" 
d="M519 382l-97 -83l152 -208h49v-91h-275v89h51l-85 123l-57 -50v-73h47v-89h-282v91h66v510h-66v91h235v-441l153 133h-73v89h253v-91h-71z" />
    <glyph glyph-name="l" unicode="l" horiz-adv-x="357" 
d="M21 0v91h73v510h-73v91h242v-601h73v-91h-315z" />
    <glyph glyph-name="m" unicode="m" horiz-adv-x="940" 
d="M553 357c26 71 74 127 160 127c108 0 147 -75 147 -174v-219h65v-91h-278v91h44v205c0 30 -6 53 -20 67c-9 9 -21 14 -38 14c-38 0 -72 -43 -72 -100v-186h42v-91h-255v91h44v205c0 30 -6 53 -20 67c-9 9 -21 14 -38 14c-38 0 -72 -43 -72 -100v-186h42v-91h-277v91h66
v291h-66v91h223v-126c25 75 74 137 164 137c86 0 127 -52 139 -127z" />
    <glyph glyph-name="n" unicode="n" horiz-adv-x="651" 
d="M27 0v91h66v291h-66v91h223v-126c25 75 74 137 169 137c113 0 152 -75 152 -174v-219h65v-91h-282v91h48v205c0 30 -6 52 -20 66c-10 10 -24 15 -43 15c-43 0 -77 -43 -77 -100v-186h46v-91h-281z" />
    <glyph glyph-name="o" unicode="o" horiz-adv-x="577" 
d="M288 -11c-152 0 -263 98 -263 245s116 250 264 250c152 0 263 -98 263 -245s-116 -250 -264 -250zM291 63c57 0 77 48 77 174c0 127 -24 173 -82 173c-57 0 -77 -48 -77 -174c0 -127 24 -173 82 -173z" />
    <glyph glyph-name="p" unicode="p" horiz-adv-x="609" 
d="M336 89c49 0 68 53 68 150c0 91 -20 140 -73 140c-58 0 -86 -67 -86 -145c0 -81 27 -145 91 -145zM22 -164v91h66v455h-66v91h223v-113c27 72 73 124 157 124c50 0 88 -19 118 -49c43 -43 64 -110 64 -190c0 -86 -23 -149 -65 -191c-35 -35 -73 -54 -123 -54
c-68 0 -116 31 -139 74v-147h82v-91h-317z" />
    <glyph glyph-name="q" unicode="q" horiz-adv-x="590" 
d="M278 388c-54 0 -73 -53 -73 -150c0 -91 20 -140 76 -140c55 0 83 67 83 145c0 81 -27 145 -86 145zM352 91c-29 -55 -76 -91 -138 -91c-53 0 -91 15 -125 49c-43 43 -64 110 -64 190c0 86 27 153 68 194c32 32 74 51 134 51c78 0 124 -48 153 -108l54 104h87v-553h66v-91
h-317v91h82v164z" />
    <glyph glyph-name="r" unicode="r" horiz-adv-x="504" 
d="M27 0v91h66v291h-66v91h223v-127c30 91 82 138 151 138c61 0 101 -47 101 -98c0 -56 -38 -95 -86 -95s-84 27 -84 76c0 1 1 3 1 4c-19 -4 -53 -25 -71 -81v-199h87v-91h-322z" />
    <glyph glyph-name="s" unicode="s" horiz-adv-x="501" 
d="M31 -9v172h84c47 -59 105 -98 158 -98c37 0 54 15 54 40c0 34 -23 47 -118 70c-113 28 -172 64 -172 152c0 86 67 157 176 157c66 0 112 -24 144 -59l18 57h86v-162h-84c-39 52 -94 90 -140 90c-40 0 -53 -17 -53 -40c0 -31 24 -41 115 -64c101 -26 178 -59 178 -158
c0 -86 -64 -159 -183 -159c-79 0 -129 33 -160 67l-18 -65h-85z" />
    <glyph glyph-name="t" unicode="t" horiz-adv-x="436" 
d="M88 576l164 20v-128h150v-86h-150v-222c0 -42 15 -67 46 -67s42 23 59 92l66 -16c-20 -125 -68 -180 -174 -180c-112 0 -166 56 -166 177v216h-80v86h85v108z" />
    <glyph glyph-name="u" unicode="u" horiz-adv-x="642" 
d="M230 -11c-111 0 -150 75 -150 174v219h-65v91h234v-296c0 -29 5 -52 20 -67c8 -8 22 -14 41 -14c41 0 75 43 75 100v186h-65v91h234v-382h66v-91h-223v126c-25 -75 -74 -137 -167 -137z" />
    <glyph glyph-name="v" unicode="v" horiz-adv-x="596" 
d="M216 -3l-153 385h-60v91h315v-91h-69l92 -271h5l100 271h-57v91h211v-91h-58l-158 -385h-168z" />
    <glyph glyph-name="w" unicode="w" horiz-adv-x="877" 
d="M621 384h-52l75 -263h4l67 263h-49v89h207v-91h-62l-113 -385h-176l-76 233l-78 -233h-180l-115 385h-60v91h287v-89h-51l71 -264h4l80 236l-9 28h-50v89h276v-89z" />
    <glyph glyph-name="x" unicode="x" horiz-adv-x="568" 
d="M304 384h-51l63 -85l76 85h-44v89h201v-91h-48l-131 -129l132 -162h57v-91h-297v89h53l-64 90l-79 -90h46v-89h-203v91h48l135 134l-132 157h-57v91h295v-89z" />
    <glyph glyph-name="y" unicode="y" horiz-adv-x="587" 
d="M96 30c56 0 82 -45 82 -88c0 -14 -3 -28 -9 -40c42 3 67 21 95 85l-202 395h-61v91h315v-91h-68l105 -226l86 226h-57v91h209v-91h-56l-160 -368c-43 -100 -94 -191 -220 -191c-95 0 -143 49 -143 115c0 53 33 92 84 92z" />
    <glyph glyph-name="z" unicode="z" horiz-adv-x="511" 
d="M25 0v76l269 322h-75c-58 0 -80 -7 -110 -122h-75v197h446v-76l-270 -322h88c57 0 80 7 111 129h75v-204h-459z" />
    <glyph glyph-name="Aacute" unicode="&#xc1;" 
d="M470 96l-35 105h-219l-35 -105h83v-96h-263v96h73l204 566h191l207 -566h73v-96h-362v96h83zM328 724l43 113c24 63 45 110 101 110c41 0 72 -32 72 -66c0 -41 -25 -66 -66 -97l-78 -60h-72zM323 525l-78 -236h160l-78 236h-4z" />
    <glyph glyph-name="aacute" unicode="&#xe1;" horiz-adv-x="573" 
d="M170 -11c-83 0 -148 48 -148 127c0 31 13 60 33 80c28 28 75 51 205 68c53 7 55 8 55 17v39c0 60 -28 83 -83 83c-17 0 -37 -3 -53 -10c14 -12 22 -28 22 -52c0 -37 -34 -64 -77 -64c-56 0 -82 35 -82 76c0 91 116 131 236 131c157 0 203 -76 203 -174v-205
c0 -22 10 -26 22 -26c10 0 21 10 29 50l55 -14c-17 -87 -55 -126 -132 -126c-63 0 -110 32 -121 107h-5c-33 -81 -86 -107 -159 -107zM249 83c44 0 66 43 66 107v32c-9 -2 -20 -3 -45 -8c-60 -11 -78 -38 -78 -76c0 -28 16 -55 57 -55zM228 536l43 113c24 63 45 110 101 110
c41 0 72 -32 72 -66c0 -41 -25 -66 -66 -97l-78 -60h-72z" />
    <glyph glyph-name="Abreve" unicode="&#x102;" 
d="M470 96l-35 105h-219l-35 -105h83v-96h-263v96h73l204 566h191l207 -566h73v-96h-362v96h83zM374 718c-106 0 -166 61 -162 195h81c7 -57 35 -84 83 -84c46 0 75 27 82 84h81c4 -134 -58 -195 -165 -195zM323 525l-78 -236h160l-78 236h-4z" />
    <glyph glyph-name="abreve" unicode="&#x103;" horiz-adv-x="573" 
d="M170 -11c-83 0 -148 48 -148 127c0 31 13 60 33 80c28 28 75 51 205 68c53 7 55 8 55 17v39c0 60 -28 83 -83 83c-17 0 -37 -3 -53 -10c14 -12 22 -28 22 -52c0 -37 -34 -64 -77 -64c-56 0 -82 35 -82 76c0 91 116 131 236 131c157 0 203 -76 203 -174v-205
c0 -22 10 -26 22 -26c10 0 21 10 29 50l55 -14c-17 -87 -55 -126 -132 -126c-63 0 -110 32 -121 107h-5c-33 -81 -86 -107 -159 -107zM249 83c44 0 66 43 66 107v32c-9 -2 -20 -3 -45 -8c-60 -11 -78 -38 -78 -76c0 -28 16 -55 57 -55zM274 530c-106 0 -166 61 -162 195h81
c7 -57 35 -84 83 -84c46 0 75 27 82 84h81c4 -134 -58 -195 -165 -195z" />
    <glyph glyph-name="Acircumflex" unicode="&#xc2;" 
d="M470 96l-35 105h-219l-35 -105h83v-96h-263v96h73l204 566h191l207 -566h73v-96h-362v96h83zM198 724l130 203h98l127 -203h-101l-78 83l-75 -83h-101zM323 525l-78 -236h160l-78 236h-4z" />
    <glyph glyph-name="acircumflex" unicode="&#xe2;" horiz-adv-x="573" 
d="M170 -11c-83 0 -148 48 -148 127c0 31 13 60 33 80c28 28 75 51 205 68c53 7 55 8 55 17v39c0 60 -28 83 -83 83c-17 0 -37 -3 -53 -10c14 -12 22 -28 22 -52c0 -37 -34 -64 -77 -64c-56 0 -82 35 -82 76c0 91 116 131 236 131c157 0 203 -76 203 -174v-205
c0 -22 10 -26 22 -26c10 0 21 10 29 50l55 -14c-17 -87 -55 -126 -132 -126c-63 0 -110 32 -121 107h-5c-33 -81 -86 -107 -159 -107zM249 83c44 0 66 43 66 107v32c-9 -2 -20 -3 -45 -8c-60 -11 -78 -38 -78 -76c0 -28 16 -55 57 -55zM98 536l130 203h98l127 -203h-101
l-78 83l-75 -83h-101z" />
    <glyph glyph-name="Adieresis" unicode="&#xc4;" 
d="M470 96l-35 105h-219l-35 -105h83v-96h-263v96h73l204 566h191l207 -566h73v-96h-362v96h83zM480 718c-51 0 -86 35 -86 82c0 48 36 86 86 86c51 0 85 -35 85 -82c0 -48 -35 -86 -85 -86zM271 718c-51 0 -86 35 -86 82c0 48 36 86 86 86c51 0 85 -35 85 -82
c0 -48 -35 -86 -85 -86zM323 525l-78 -236h160l-78 236h-4z" />
    <glyph glyph-name="adieresis" unicode="&#xe4;" horiz-adv-x="573" 
d="M170 -11c-83 0 -148 48 -148 127c0 31 13 60 33 80c28 28 75 51 205 68c53 7 55 8 55 17v39c0 60 -28 83 -83 83c-17 0 -37 -3 -53 -10c14 -12 22 -28 22 -52c0 -37 -34 -64 -77 -64c-56 0 -82 35 -82 76c0 91 116 131 236 131c157 0 203 -76 203 -174v-205
c0 -22 10 -26 22 -26c10 0 21 10 29 50l55 -14c-17 -87 -55 -126 -132 -126c-63 0 -110 32 -121 107h-5c-33 -81 -86 -107 -159 -107zM249 83c44 0 66 43 66 107v32c-9 -2 -20 -3 -45 -8c-60 -11 -78 -38 -78 -76c0 -28 16 -55 57 -55zM380 530c-51 0 -86 35 -86 82
c0 48 36 86 86 86c51 0 85 -35 85 -82c0 -48 -35 -86 -85 -86zM171 530c-51 0 -86 35 -86 82c0 48 36 86 86 86c51 0 85 -35 85 -82c0 -48 -35 -86 -85 -86z" />
    <glyph glyph-name="AE" unicode="&#xc6;" horiz-adv-x="1088" 
d="M474 299v254h-10l-162 -254h172zM246 211l-74 -117h73v-94h-259v96h66l312 466h-92v96h766v-243h-103c-21 129 -38 150 -125 150h-147v-187h48c48 0 52 11 63 88h89v-269h-89c-9 76 -16 88 -63 88h-48v-192h143c107 0 120 38 138 178h103v-271h-654v96h81v115h-228z" />
    <glyph glyph-name="ae" unicode="&#xe6;" horiz-adv-x="823" 
d="M795 212h-319c6 -107 47 -135 117 -135c55 0 88 23 106 80h90c-17 -100 -79 -168 -215 -168c-115 0 -194 41 -228 117c-22 -74 -77 -117 -166 -117c-93 0 -158 48 -158 127c0 31 13 60 33 80c28 28 75 51 205 68c53 7 55 8 55 17v39c0 60 -28 83 -83 83
c-17 0 -37 -3 -53 -10c14 -12 22 -28 22 -52c0 -37 -34 -64 -77 -64c-56 0 -82 35 -82 76c0 91 116 131 226 131c71 0 119 -18 147 -53c37 34 87 53 150 53c157 0 239 -107 230 -272zM556 410c-46 0 -75 -31 -80 -129h156c-4 100 -29 129 -76 129zM249 83c44 0 66 43 66 107
v32c-9 -2 -20 -3 -45 -8c-60 -11 -78 -38 -78 -76c0 -28 16 -55 57 -55z" />
    <glyph glyph-name="AEacute" unicode="&#x1fc;" horiz-adv-x="1088" 
d="M474 299v254h-10l-162 -254h172zM246 211l-74 -117h73v-94h-259v96h66l312 466h-92v96h766v-243h-103c-21 129 -38 150 -125 150h-147v-187h48c48 0 52 11 63 88h89v-269h-89c-9 76 -16 88 -63 88h-48v-192h143c107 0 120 38 138 178h103v-271h-654v96h81v115h-228z
M569 724l43 113c24 63 45 110 101 110c41 0 72 -32 72 -66c0 -41 -25 -66 -66 -97l-78 -60h-72z" />
    <glyph glyph-name="aeacute" unicode="&#x1fd;" horiz-adv-x="823" 
d="M795 212h-319c6 -107 47 -135 117 -135c55 0 88 23 106 80h90c-17 -100 -79 -168 -215 -168c-115 0 -194 41 -228 117c-22 -74 -77 -117 -166 -117c-93 0 -158 48 -158 127c0 31 13 60 33 80c28 28 75 51 205 68c53 7 55 8 55 17v39c0 60 -28 83 -83 83
c-17 0 -37 -3 -53 -10c14 -12 22 -28 22 -52c0 -37 -34 -64 -77 -64c-56 0 -82 35 -82 76c0 91 116 131 226 131c71 0 119 -18 147 -53c37 34 87 53 150 53c157 0 239 -107 230 -272zM378 536l43 113c24 63 45 110 101 110c41 0 72 -32 72 -66c0 -41 -25 -66 -66 -97
l-78 -60h-72zM556 410c-46 0 -75 -31 -80 -129h156c-4 100 -29 129 -76 129zM249 83c44 0 66 43 66 107v32c-9 -2 -20 -3 -45 -8c-60 -11 -78 -38 -78 -76c0 -28 16 -55 57 -55z" />
    <glyph glyph-name="Agrave" unicode="&#xc0;" 
d="M470 96l-35 105h-219l-35 -105h83v-96h-263v96h73l204 566h191l207 -566h73v-96h-362v96h83zM428 724h-72l-78 60c-41 31 -66 56 -66 97c0 34 31 66 72 66c56 0 77 -47 101 -110zM323 525l-78 -236h160l-78 236h-4z" />
    <glyph glyph-name="agrave" unicode="&#xe0;" horiz-adv-x="573" 
d="M170 -11c-83 0 -148 48 -148 127c0 31 13 60 33 80c28 28 75 51 205 68c53 7 55 8 55 17v39c0 60 -28 83 -83 83c-17 0 -37 -3 -53 -10c14 -12 22 -28 22 -52c0 -37 -34 -64 -77 -64c-56 0 -82 35 -82 76c0 91 116 131 236 131c157 0 203 -76 203 -174v-205
c0 -22 10 -26 22 -26c10 0 21 10 29 50l55 -14c-17 -87 -55 -126 -132 -126c-63 0 -110 32 -121 107h-5c-33 -81 -86 -107 -159 -107zM249 83c44 0 66 43 66 107v32c-9 -2 -20 -3 -45 -8c-60 -11 -78 -38 -78 -76c0 -28 16 -55 57 -55zM328 536h-72l-78 60
c-41 31 -66 56 -66 97c0 34 31 66 72 66c56 0 77 -47 101 -110z" />
    <glyph glyph-name="Amacron" unicode="&#x100;" 
d="M470 96l-35 105h-219l-35 -105h83v-96h-263v96h73l204 566h191l207 -566h73v-96h-362v96h83zM216 724v107h319v-107h-319zM323 525l-78 -236h160l-78 236h-4z" />
    <glyph glyph-name="amacron" unicode="&#x101;" horiz-adv-x="573" 
d="M170 -11c-83 0 -148 48 -148 127c0 31 13 60 33 80c28 28 75 51 205 68c53 7 55 8 55 17v39c0 60 -28 83 -83 83c-17 0 -37 -3 -53 -10c14 -12 22 -28 22 -52c0 -37 -34 -64 -77 -64c-56 0 -82 35 -82 76c0 91 116 131 236 131c157 0 203 -76 203 -174v-205
c0 -22 10 -26 22 -26c10 0 21 10 29 50l55 -14c-17 -87 -55 -126 -132 -126c-63 0 -110 32 -121 107h-5c-33 -81 -86 -107 -159 -107zM249 83c44 0 66 43 66 107v32c-9 -2 -20 -3 -45 -8c-60 -11 -78 -38 -78 -76c0 -28 16 -55 57 -55zM116 536v107h319v-107h-319z" />
    <glyph glyph-name="Aogonek" unicode="&#x104;" 
d="M580 -253c-87 0 -129 49 -129 105c0 67 43 104 109 148h-173v96h83l-35 105h-219l-35 -105h83v-96h-263v96h73l204 566h191l207 -566h73v-96h-87l-14 -12c-52 -45 -71 -75 -71 -106c0 -26 16 -49 57 -49c21 0 40 7 61 18l24 -59c-36 -22 -82 -45 -139 -45zM323 525
l-78 -236h160l-78 236h-4z" />
    <glyph glyph-name="aogonek" unicode="&#x105;" horiz-adv-x="573" 
d="M439 -253c-87 0 -129 49 -129 105c0 64 39 101 101 143c-40 12 -69 44 -77 101h-5c-33 -81 -86 -107 -159 -107c-83 0 -148 48 -148 127c0 26 13 58 33 78c30 30 75 54 205 70c30 4 47 7 55 10v46c0 60 -28 83 -83 83c-17 0 -37 -3 -53 -10c14 -12 22 -28 22 -52
c0 -37 -34 -64 -77 -64c-56 0 -82 35 -82 76c0 91 116 131 236 131c157 0 203 -76 203 -174v-205c0 -22 10 -26 22 -26c10 0 21 10 29 50l55 -14c-11 -55 -27 -83 -54 -105c-81 -66 -97 -97 -97 -128c0 -26 16 -49 57 -49c21 0 40 7 61 18l24 -59c-36 -22 -82 -45 -139 -45z
M249 83c44 0 66 43 66 107v32c-8 -3 -20 -3 -45 -8c-60 -11 -78 -38 -78 -76c0 -28 16 -55 57 -55z" />
    <glyph glyph-name="Aring" unicode="&#xc5;" 
d="M376 680c28 0 49 21 49 65c0 45 -23 66 -52 66c-27 0 -49 -21 -49 -65c0 -45 24 -66 52 -66zM406 289l-79 236h-4l-78 -236h161zM216 201l-35 -105h83v-96h-263v96h73l203 563c-28 20 -43 50 -43 85c0 65 54 123 141 123c88 0 140 -55 140 -121c0 -36 -16 -66 -45 -87
c0 1 206 -563 206 -563h73v-96h-362v96h83l-35 105h-219z" />
    <glyph glyph-name="aring" unicode="&#xe5;" horiz-adv-x="573" 
d="M170 -11c-83 0 -148 48 -148 127c0 31 13 60 33 80c28 28 75 51 205 68c53 7 55 8 55 17v39c0 60 -28 83 -83 83c-17 0 -37 -3 -53 -10c14 -12 22 -28 22 -52c0 -37 -34 -64 -77 -64c-56 0 -82 35 -82 76c0 91 116 131 236 131c157 0 203 -76 203 -174v-205
c0 -22 10 -26 22 -26c10 0 21 10 29 50l55 -14c-17 -87 -55 -126 -132 -126c-63 0 -110 32 -121 107h-5c-33 -81 -86 -107 -159 -107zM249 83c44 0 66 43 66 107v32c-9 -2 -20 -3 -45 -8c-60 -11 -78 -38 -78 -76c0 -28 16 -55 57 -55zM276 530c-90 0 -141 56 -141 121
s54 123 141 123c88 0 140 -55 140 -121c0 -65 -54 -123 -140 -123zM277 587c28 0 49 21 49 65c0 45 -23 66 -52 66c-27 0 -49 -21 -49 -65c0 -45 24 -66 52 -66z" />
    <glyph glyph-name="Aringacute" unicode="&#x1fa;" 
d="M376 680c28 0 49 21 49 65c0 45 -23 66 -52 66c-27 0 -49 -21 -49 -65c0 -45 24 -66 52 -66zM406 289l-79 236h-4l-78 -236h161zM216 201l-35 -105h83v-96h-263v96h73l203 563c-28 20 -43 50 -43 85c0 65 54 123 141 123c88 0 140 -55 140 -121c0 -36 -16 -66 -45 -87
c0 1 206 -563 206 -563h73v-96h-362v96h83l-35 105h-219zM328 910l43 113c24 63 45 110 101 110c41 0 72 -32 72 -66c0 -41 -25 -66 -66 -97l-78 -60h-72z" />
    <glyph glyph-name="aringacute" unicode="&#x1fb;" horiz-adv-x="573" 
d="M170 -11c-83 0 -148 48 -148 127c0 31 13 60 33 80c28 28 75 51 205 68c53 7 55 8 55 17v39c0 60 -28 83 -83 83c-17 0 -37 -3 -53 -10c14 -12 22 -28 22 -52c0 -37 -34 -64 -77 -64c-56 0 -82 35 -82 76c0 91 116 131 236 131c157 0 203 -76 203 -174v-205
c0 -22 10 -26 22 -26c10 0 21 10 29 50l55 -14c-17 -87 -55 -126 -132 -126c-63 0 -110 32 -121 107h-5c-33 -81 -86 -107 -159 -107zM249 83c44 0 66 43 66 107v32c-9 -2 -20 -3 -45 -8c-60 -11 -78 -38 -78 -76c0 -28 16 -55 57 -55zM281 530c-90 0 -141 56 -141 121
s54 123 141 123c88 0 140 -55 140 -121c0 -65 -54 -123 -140 -123zM282 587c28 0 49 21 49 65c0 45 -23 66 -52 66c-27 0 -49 -21 -49 -65c0 -45 24 -66 52 -66zM233 816l43 113c24 63 45 110 101 110c41 0 72 -32 72 -66c0 -41 -25 -66 -66 -97l-78 -60h-72z" />
    <glyph glyph-name="Atilde" unicode="&#xc3;" 
d="M470 96l-35 105h-219l-35 -105h83v-96h-263v96h73l204 566h191l207 -566h73v-96h-362v96h83zM181 718c7 114 34 177 118 177c62 0 123 -48 164 -48c18 0 26 13 33 52h74c-7 -114 -34 -177 -118 -177c-62 0 -123 48 -164 48c-18 0 -26 -13 -33 -52h-74zM323 525l-78 -236
h160l-78 236h-4z" />
    <glyph glyph-name="atilde" unicode="&#xe3;" horiz-adv-x="573" 
d="M170 -11c-83 0 -148 48 -148 127c0 31 13 60 33 80c28 28 75 51 205 68c53 7 55 8 55 17v39c0 60 -28 83 -83 83c-17 0 -37 -3 -53 -10c14 -12 22 -28 22 -52c0 -37 -34 -64 -77 -64c-56 0 -82 35 -82 76c0 91 116 131 236 131c157 0 203 -76 203 -174v-205
c0 -22 10 -26 22 -26c10 0 21 10 29 50l55 -14c-17 -87 -55 -126 -132 -126c-63 0 -110 32 -121 107h-5c-33 -81 -86 -107 -159 -107zM249 83c44 0 66 43 66 107v32c-9 -2 -20 -3 -45 -8c-60 -11 -78 -38 -78 -76c0 -28 16 -55 57 -55zM81 530c7 114 34 177 118 177
c62 0 123 -48 164 -48c18 0 26 13 33 52h74c-7 -114 -34 -177 -118 -177c-62 0 -123 48 -164 48c-18 0 -26 -13 -33 -52h-74z" />
    <glyph glyph-name="Cacute" unicode="&#x106;" horiz-adv-x="703" 
d="M383 -16c-213 0 -348 131 -348 338c0 213 148 352 321 352c86 0 149 -28 189 -79l22 77h100v-264h-115c-38 123 -89 177 -170 177c-87 0 -144 -66 -144 -251c0 -180 66 -246 171 -246c90 0 141 67 160 175h107c-17 -167 -105 -279 -293 -279zM318 724l43 113
c24 63 45 110 101 110c41 0 72 -32 72 -66c0 -41 -25 -66 -66 -97l-78 -60h-72z" />
    <glyph glyph-name="cacute" unicode="&#x107;" horiz-adv-x="527" 
d="M291 -11c-167 0 -266 94 -266 239c0 154 107 256 267 256c150 0 215 -86 215 -161c0 -52 -30 -89 -86 -89c-52 0 -81 35 -81 76c0 34 21 55 44 64c-14 17 -36 29 -71 29c-64 0 -109 -61 -109 -165c0 -91 36 -154 108 -154c53 0 86 31 103 81h91
c-20 -100 -89 -176 -215 -176zM238 536l43 113c24 63 45 110 101 110c41 0 72 -32 72 -66c0 -41 -25 -66 -66 -97l-78 -60h-72z" />
    <glyph glyph-name="Ccaron" unicode="&#x10c;" horiz-adv-x="703" 
d="M383 -16c-213 0 -348 131 -348 338c0 213 148 352 321 352c86 0 149 -28 189 -79l22 77h100v-264h-115c-38 123 -89 177 -170 177c-87 0 -144 -66 -144 -251c0 -180 66 -246 171 -246c90 0 141 67 160 175h107c-17 -167 -105 -279 -293 -279zM315 724l-127 203h101
l78 -83l75 83h101l-130 -203h-98z" />
    <glyph glyph-name="ccaron" unicode="&#x10d;" horiz-adv-x="527" 
d="M291 -11c-167 0 -266 94 -266 239c0 154 107 256 267 256c150 0 215 -86 215 -161c0 -52 -30 -89 -86 -89c-52 0 -81 35 -81 76c0 34 21 55 44 64c-14 17 -36 29 -71 29c-64 0 -109 -61 -109 -165c0 -91 36 -154 108 -154c53 0 86 31 103 81h91
c-20 -100 -89 -176 -215 -176zM235 536l-127 203h101l78 -83l75 83h101l-130 -203h-98z" />
    <glyph glyph-name="Ccedilla" unicode="&#xc7;" horiz-adv-x="703" 
d="M361 -252c-51 0 -103 10 -146 33l33 54c25 -10 61 -19 93 -19c30 0 44 9 44 24c0 19 -25 32 -79 32c-7 0 -14 0 -24 -2l-26 50l85 66c-189 16 -306 143 -306 336c0 213 148 352 321 352c86 0 149 -28 189 -79l22 77h100v-264h-115c-38 123 -89 177 -170 177
c-87 0 -144 -66 -144 -251c0 -180 66 -246 171 -246c90 0 141 67 160 175h107c-16 -154 -92 -260 -250 -276l-42 -43l2 -4c85 -11 119 -48 119 -92c0 -61 -50 -100 -144 -100z" />
    <glyph glyph-name="ccedilla" unicode="&#xe7;" horiz-adv-x="527" 
d="M272 -252c-51 0 -103 10 -146 33l33 54c25 -10 61 -19 93 -19c30 0 44 9 44 24c0 19 -25 32 -79 32c-7 0 -14 0 -24 -2l-26 50l91 70c-147 11 -233 103 -233 238c0 154 107 256 267 256c150 0 215 -86 215 -161c0 -52 -30 -89 -86 -89c-52 0 -81 35 -81 76
c0 34 21 55 44 64c-14 17 -36 29 -71 29c-64 0 -109 -61 -109 -165c0 -91 36 -154 108 -154c53 0 86 31 103 81h91c-17 -85 -69 -153 -161 -171l-50 -50l2 -4c85 -11 119 -48 119 -92c0 -61 -50 -100 -144 -100z" />
    <glyph glyph-name="Cdotaccent" unicode="&#x10a;" horiz-adv-x="703" 
d="M383 -16c-213 0 -348 131 -348 338c0 213 148 352 321 352c86 0 149 -28 189 -79l22 77h100v-264h-115c-38 123 -89 177 -170 177c-87 0 -144 -66 -144 -251c0 -180 66 -246 171 -246c90 0 141 67 160 175h107c-17 -167 -105 -279 -293 -279zM365 718
c-57 0 -95 37 -95 86c0 50 39 90 95 90c57 0 95 -37 95 -86c0 -50 -39 -90 -95 -90z" />
    <glyph glyph-name="cdotaccent" unicode="&#x10b;" horiz-adv-x="527" 
d="M291 -11c-167 0 -266 94 -266 239c0 154 107 256 267 256c150 0 215 -86 215 -161c0 -52 -30 -89 -86 -89c-52 0 -81 35 -81 76c0 34 21 55 44 64c-14 17 -36 29 -71 29c-64 0 -109 -61 -109 -165c0 -91 36 -154 108 -154c53 0 86 31 103 81h91
c-20 -100 -89 -176 -215 -176zM285 530c-57 0 -95 37 -95 86c0 50 39 90 95 90c57 0 95 -37 95 -86c0 -50 -39 -90 -95 -90z" />
    <glyph glyph-name="Dcaron" unicode="&#x10e;" horiz-adv-x="764" 
d="M25 0v96h81v466h-81v96h302c276 0 402 -130 402 -328c0 -199 -128 -330 -398 -330h-306zM295 93h48c136 0 182 59 182 236c0 173 -50 236 -187 236h-43v-472zM347 724l-127 203h101l78 -83l75 83h101l-130 -203h-98z" />
    <glyph glyph-name="dcaron" unicode="&#x10f;" horiz-adv-x="612" 
d="M208 -11c-52 0 -90 19 -120 49c-43 43 -64 115 -64 198c0 88 25 157 67 199c31 31 73 49 122 49c67 0 113 -32 142 -80v197h-71v91h240v-601h66v-91h-223v100c-26 -64 -76 -111 -159 -111zM282 86c57 0 85 67 85 150c0 86 -25 150 -85 150c-57 0 -78 -53 -78 -155
c0 -96 20 -145 78 -145zM652 549h-57c-11 141 -11 151 -11 170c0 69 32 96 73 96c35 0 69 -27 69 -70c0 -28 -11 -55 -34 -106z" />
    <glyph glyph-name="Dcroat" unicode="&#x110;" horiz-adv-x="764" 
d="M25 0v96h81v203h-81v88h81v175h-81v96h302c276 0 402 -130 402 -328c0 -199 -128 -330 -398 -330h-306zM295 93h48c136 0 182 59 182 236c0 173 -50 236 -187 236h-43v-178h131v-88h-131v-206z" />
    <glyph glyph-name="dcroat" unicode="&#x111;" horiz-adv-x="612" 
d="M208 -11c-52 0 -90 19 -120 49c-43 43 -64 113 -64 193c0 85 25 152 67 194c31 31 73 49 122 49c67 0 113 -32 142 -80v109h-113v68h113v42h-71v79h240v-121h67v-68h-67v-412h66v-91h-223v100c-26 -64 -76 -111 -159 -111zM282 86c57 0 85 65 85 145
c0 83 -25 145 -85 145c-57 0 -78 -51 -78 -150c0 -93 20 -140 78 -140z" />
    <glyph glyph-name="Eacute" unicode="&#xc9;" horiz-adv-x="720" 
d="M25 0v96h81v466h-81v96h645v-243h-103c-21 129 -38 150 -125 150h-147v-187h48c48 0 52 11 63 88h89v-269h-89c-9 76 -16 88 -63 88h-48v-192h143c107 0 120 38 138 178h103v-271h-654zM333 724l43 113c24 63 45 110 101 110c41 0 72 -32 72 -66c0 -41 -25 -66 -66 -97
l-78 -60h-72z" />
    <glyph glyph-name="eacute" unicode="&#xe9;" horiz-adv-x="545" 
d="M517 212h-319c6 -107 47 -135 117 -135c55 0 88 23 106 80h90c-15 -98 -78 -168 -222 -168c-162 0 -264 95 -264 243c0 145 109 252 255 252c167 0 246 -107 237 -272zM238 536l43 113c24 63 45 110 101 110c41 0 72 -32 72 -66c0 -41 -25 -66 -66 -97l-78 -60h-72z
M278 410c-46 0 -75 -31 -80 -129h156c-4 100 -29 129 -76 129z" />
    <glyph glyph-name="Ebreve" unicode="&#x114;" horiz-adv-x="720" 
d="M25 0v96h81v466h-81v96h645v-243h-103c-21 129 -38 150 -125 150h-147v-187h48c48 0 52 11 63 88h89v-269h-89c-9 76 -16 88 -63 88h-48v-192h143c107 0 120 38 138 178h103v-271h-654zM379 718c-106 0 -166 61 -162 195h81c7 -57 35 -84 83 -84c46 0 75 27 82 84h81
c4 -134 -58 -195 -165 -195z" />
    <glyph glyph-name="ebreve" unicode="&#x115;" horiz-adv-x="545" 
d="M517 212h-319c6 -107 47 -135 117 -135c55 0 88 23 106 80h90c-15 -98 -78 -168 -222 -168c-162 0 -264 95 -264 243c0 145 109 252 255 252c167 0 246 -107 237 -272zM284 530c-106 0 -166 61 -162 195h81c7 -57 35 -84 83 -84c46 0 75 27 82 84h81
c4 -134 -58 -195 -165 -195zM278 410c-46 0 -75 -31 -80 -129h156c-4 100 -29 129 -76 129z" />
    <glyph glyph-name="Ecaron" unicode="&#x11a;" horiz-adv-x="720" 
d="M25 0v96h81v466h-81v96h645v-243h-103c-21 129 -38 150 -125 150h-147v-187h48c48 0 52 11 63 88h89v-269h-89c-9 76 -16 88 -63 88h-48v-192h143c107 0 120 38 138 178h103v-271h-654zM330 724l-127 203h101l78 -83l75 83h101l-130 -203h-98z" />
    <glyph glyph-name="ecaron" unicode="&#x11b;" horiz-adv-x="545" 
d="M517 212h-319c6 -107 47 -135 117 -135c55 0 88 23 106 80h90c-15 -98 -78 -168 -222 -168c-162 0 -264 95 -264 243c0 145 109 252 255 252c167 0 246 -107 237 -272zM235 536l-127 203h101l78 -83l75 83h101l-130 -203h-98zM278 410c-46 0 -75 -31 -80 -129h156
c-4 100 -29 129 -76 129z" />
    <glyph glyph-name="Ecircumflex" unicode="&#xca;" horiz-adv-x="720" 
d="M25 0v96h81v466h-81v96h645v-243h-103c-21 129 -38 150 -125 150h-147v-187h48c48 0 52 11 63 88h89v-269h-89c-9 76 -16 88 -63 88h-48v-192h143c107 0 120 38 138 178h103v-271h-654zM203 724l130 203h98l127 -203h-101l-78 83l-75 -83h-101z" />
    <glyph glyph-name="ecircumflex" unicode="&#xea;" horiz-adv-x="545" 
d="M517 212h-319c6 -107 47 -135 117 -135c55 0 88 23 106 80h90c-15 -98 -78 -168 -222 -168c-162 0 -264 95 -264 243c0 145 109 252 255 252c167 0 246 -107 237 -272zM108 536l130 203h98l127 -203h-101l-78 83l-75 -83h-101zM278 410c-46 0 -75 -31 -80 -129h156
c-4 100 -29 129 -76 129z" />
    <glyph glyph-name="Edieresis" unicode="&#xcb;" horiz-adv-x="720" 
d="M25 0v96h81v466h-81v96h645v-243h-103c-21 129 -38 150 -125 150h-147v-187h48c48 0 52 11 63 88h89v-269h-89c-9 76 -16 88 -63 88h-48v-192h143c107 0 120 38 138 178h103v-271h-654zM485 718c-51 0 -86 35 -86 82c0 48 36 86 86 86c51 0 85 -35 85 -82
c0 -48 -35 -86 -85 -86zM276 718c-51 0 -86 35 -86 82c0 48 36 86 86 86c51 0 85 -35 85 -82c0 -48 -35 -86 -85 -86z" />
    <glyph glyph-name="edieresis" unicode="&#xeb;" horiz-adv-x="545" 
d="M517 212h-319c6 -107 47 -135 117 -135c55 0 88 23 106 80h90c-15 -98 -78 -168 -222 -168c-162 0 -264 95 -264 243c0 145 109 252 255 252c167 0 246 -107 237 -272zM181 530c-51 0 -86 35 -86 82c0 48 36 86 86 86c51 0 85 -35 85 -82c0 -48 -35 -86 -85 -86zM390 530
c-51 0 -86 35 -86 82c0 48 36 86 86 86c51 0 85 -35 85 -82c0 -48 -35 -86 -85 -86zM278 410c-46 0 -75 -31 -80 -129h156c-4 100 -29 129 -76 129z" />
    <glyph glyph-name="Edotaccent" unicode="&#x116;" horiz-adv-x="720" 
d="M25 0v96h81v466h-81v96h645v-243h-103c-21 129 -38 150 -125 150h-147v-187h48c48 0 52 11 63 88h89v-269h-89c-9 76 -16 88 -63 88h-48v-192h143c107 0 120 38 138 178h103v-271h-654zM380 718c-57 0 -95 37 -95 86c0 50 39 90 95 90c57 0 95 -37 95 -86
c0 -50 -39 -90 -95 -90z" />
    <glyph glyph-name="edotaccent" unicode="&#x117;" horiz-adv-x="545" 
d="M517 212h-319c6 -107 47 -135 117 -135c55 0 88 23 106 80h90c-15 -98 -78 -168 -222 -168c-162 0 -264 95 -264 243c0 145 109 252 255 252c167 0 246 -107 237 -272zM285 530c-57 0 -95 37 -95 86c0 50 39 90 95 90c57 0 95 -37 95 -86c0 -50 -39 -90 -95 -90zM278 410
c-46 0 -75 -31 -80 -129h156c-4 100 -29 129 -76 129z" />
    <glyph glyph-name="Egrave" unicode="&#xc8;" horiz-adv-x="720" 
d="M25 0v96h81v466h-81v96h645v-243h-103c-21 129 -38 150 -125 150h-147v-187h48c48 0 52 11 63 88h89v-269h-89c-9 76 -16 88 -63 88h-48v-192h143c107 0 120 38 138 178h103v-271h-654zM433 724h-72l-78 60c-41 31 -66 56 -66 97c0 34 31 66 72 66c56 0 77 -47 101 -110z
" />
    <glyph glyph-name="egrave" unicode="&#xe8;" horiz-adv-x="545" 
d="M517 212h-319c6 -107 47 -135 117 -135c55 0 88 23 106 80h90c-15 -98 -78 -168 -222 -168c-162 0 -264 95 -264 243c0 145 109 252 255 252c167 0 246 -107 237 -272zM338 536h-72l-78 60c-41 31 -66 56 -66 97c0 34 31 66 72 66c56 0 77 -47 101 -110zM278 410
c-46 0 -75 -31 -80 -129h156c-4 100 -29 129 -76 129z" />
    <glyph glyph-name="Emacron" unicode="&#x112;" horiz-adv-x="720" 
d="M25 0v96h81v466h-81v96h645v-243h-103c-21 129 -38 150 -125 150h-147v-187h48c48 0 52 11 63 88h89v-269h-89c-9 76 -16 88 -63 88h-48v-192h143c107 0 120 38 138 178h103v-271h-654zM221 724v107h319v-107h-319z" />
    <glyph glyph-name="emacron" unicode="&#x113;" horiz-adv-x="545" 
d="M517 212h-319c6 -107 47 -135 117 -135c55 0 88 23 106 80h90c-15 -98 -78 -168 -222 -168c-162 0 -264 95 -264 243c0 145 109 252 255 252c167 0 246 -107 237 -272zM126 536v107h319v-107h-319zM278 410c-46 0 -75 -31 -80 -129h156c-4 100 -29 129 -76 129z" />
    <glyph glyph-name="Eogonek" unicode="&#x118;" horiz-adv-x="720" 
d="M25 0v96h81v466h-81v96h645v-243h-103c-21 129 -38 150 -125 150h-147v-187h48c48 0 52 11 63 88h89v-269h-89c-9 76 -16 88 -63 88h-48v-192h143c107 0 120 38 138 178h103v-271h-67l-14 -12c-52 -45 -71 -75 -71 -106c0 -26 16 -49 57 -49c21 0 40 7 61 18l24 -59
c-36 -22 -82 -45 -139 -45c-87 0 -129 49 -129 105c0 67 43 104 109 148h-485z" />
    <glyph glyph-name="eogonek" unicode="&#x119;" horiz-adv-x="545" 
d="M517 212h-319c6 -107 47 -135 117 -135c55 0 88 23 106 80h90c-11 -62 -32 -100 -88 -147l-20 -17c-58 -49 -77 -80 -77 -111c0 -26 16 -49 57 -49c21 0 40 7 61 18l24 -59c-36 -22 -82 -45 -139 -45c-87 0 -129 49 -129 105c0 57 32 92 82 129l11 8
c-175 3 -268 100 -268 243c0 145 109 252 255 252c167 0 246 -107 237 -272zM278 410c-46 0 -75 -31 -80 -129h156c-4 100 -29 129 -76 129z" />
    <glyph glyph-name="Eth" unicode="&#xd0;" horiz-adv-x="764" 
d="M25 0v96h81v199h-81v96h81v171h-81v96h302c276 0 402 -130 402 -328c0 -199 -128 -330 -398 -330h-306zM295 93h48c136 0 182 59 182 236c0 173 -50 236 -187 236h-43v-174h105v-96h-105v-202z" />
    <glyph glyph-name="eth" unicode="&#xf0;" horiz-adv-x="582" 
d="M527 614l-86 -31c69 -80 112 -178 112 -298c0 -208 -117 -296 -268 -296c-159 0 -260 93 -260 240c0 140 78 225 197 225c65 0 115 -22 146 -66c-8 52 -26 103 -52 150l-128 -45l-23 64l112 40c-23 30 -50 57 -79 82l112 18c27 -19 54 -39 78 -61l116 42zM288 63
c57 0 77 43 77 159c0 114 -27 148 -87 148c-49 0 -72 -36 -72 -149c0 -117 24 -158 82 -158z" />
    <glyph glyph-name="Gbreve" unicode="&#x11e;" horiz-adv-x="765" 
d="M537 95c-28 -62 -80 -111 -184 -111c-182 0 -318 134 -318 343c0 205 155 347 325 347c85 0 143 -30 183 -84l23 82h101v-254h-133c-34 120 -79 167 -152 167c-83 0 -144 -76 -144 -251c0 -159 47 -251 146 -251c31 0 55 10 74 29c26 26 37 67 37 122v15h-106v96h362v-96
h-70v-257h-101zM369 718c-106 0 -166 61 -162 195h81c7 -57 35 -84 83 -84c46 0 75 27 82 84h81c4 -134 -58 -195 -165 -195z" />
    <glyph glyph-name="gbreve" unicode="&#x11f;" horiz-adv-x="540" 
d="M466 333c0 -97 -69 -152 -209 -152c-19 0 -48 2 -65 2c-29 0 -48 -13 -48 -31c0 -19 19 -30 74 -30h132c131 0 184 -52 184 -130c0 -100 -87 -169 -309 -169c-164 0 -228 38 -228 102c0 48 41 78 117 89v5c-58 9 -90 47 -90 88c0 53 52 97 131 104
c-74 14 -119 55 -119 125c0 81 70 148 211 148c33 0 62 -3 88 -9c21 70 72 113 139 113c68 0 94 -39 94 -77c0 -37 -26 -67 -71 -67c-38 0 -62 26 -62 59c0 4 1 9 1 13c-21 -4 -39 -21 -51 -57c53 -25 81 -68 81 -126zM243 550c-106 0 -166 61 -162 195h81
c7 -57 35 -84 83 -84c46 0 75 27 82 84h81c4 -134 -58 -195 -165 -195zM245 -103c106 0 139 24 139 58c0 21 -22 35 -83 35h-124c-53 0 -77 -21 -77 -44c0 -28 35 -49 145 -49zM253 233c39 0 54 30 54 96c0 65 -18 98 -58 98s-55 -32 -55 -98c0 -65 18 -96 59 -96z" />
    <glyph glyph-name="Gcommaaccent" unicode="&#x122;" horiz-adv-x="765" 
d="M537 95c-28 -62 -80 -111 -184 -111c-182 0 -318 134 -318 343c0 205 155 347 325 347c85 0 143 -30 183 -84l23 82h101v-254h-133c-34 120 -79 167 -152 167c-83 0 -144 -76 -144 -251c0 -159 47 -251 146 -251c31 0 55 10 74 29c26 26 37 67 37 122v15h-106v96h362v-96
h-70v-257h-101zM285 -386l-24 54c76 33 115 69 124 122l-8 4c-7 -9 -21 -19 -42 -19c-39 0 -69 29 -69 76c0 50 37 92 93 92c63 0 105 -46 105 -125c0 -97 -62 -166 -179 -204z" />
    <glyph glyph-name="gcommaaccent" unicode="&#x123;" horiz-adv-x="540" 
d="M466 333c0 -97 -69 -152 -209 -152c-19 0 -48 2 -65 2c-29 0 -48 -13 -48 -31c0 -19 19 -30 74 -30h132c131 0 184 -52 184 -130c0 -100 -87 -169 -309 -169c-164 0 -228 38 -228 102c0 48 41 78 117 89v5c-58 9 -90 47 -90 88c0 53 52 97 131 104
c-74 14 -119 55 -119 125c0 81 70 148 211 148c33 0 62 -3 88 -9c21 70 72 113 139 113c68 0 94 -39 94 -77c0 -37 -26 -67 -71 -67c-38 0 -62 26 -62 59c0 4 1 9 1 13c-21 -4 -39 -21 -51 -57c53 -25 81 -68 81 -126zM322 869l24 -54c-76 -33 -115 -69 -124 -122l8 -4
c7 9 21 19 42 19c39 0 69 -29 69 -76c0 -50 -37 -92 -93 -92c-63 0 -105 46 -105 125c0 97 62 166 179 204zM245 -103c106 0 139 24 139 58c0 21 -22 35 -83 35h-124c-53 0 -77 -21 -77 -44c0 -28 35 -49 145 -49zM253 233c39 0 54 30 54 96c0 65 -18 98 -58 98
s-55 -32 -55 -98c0 -65 18 -96 59 -96z" />
    <glyph glyph-name="Gdotaccent" unicode="&#x120;" horiz-adv-x="765" 
d="M537 95c-28 -62 -80 -111 -184 -111c-182 0 -318 134 -318 343c0 205 155 347 325 347c85 0 143 -30 183 -84l23 82h101v-254h-133c-34 120 -79 167 -152 167c-83 0 -144 -76 -144 -251c0 -159 47 -251 146 -251c31 0 55 10 74 29c26 26 37 67 37 122v15h-106v96h362v-96
h-70v-257h-101zM370 718c-57 0 -95 37 -95 86c0 50 39 90 95 90c57 0 95 -37 95 -86c0 -50 -39 -90 -95 -90z" />
    <glyph glyph-name="gdotaccent" unicode="&#x121;" horiz-adv-x="540" 
d="M466 333c0 -97 -69 -152 -209 -152c-19 0 -48 2 -65 2c-29 0 -48 -13 -48 -31c0 -19 19 -30 74 -30h132c131 0 184 -52 184 -130c0 -100 -87 -169 -309 -169c-164 0 -228 38 -228 102c0 48 41 78 117 89v5c-58 9 -90 47 -90 88c0 53 52 97 131 104
c-74 14 -119 55 -119 125c0 81 70 148 211 148c33 0 62 -3 88 -9c21 70 72 113 139 113c68 0 94 -39 94 -77c0 -37 -26 -67 -71 -67c-38 0 -62 26 -62 59c0 4 1 9 1 13c-21 -4 -39 -21 -51 -57c53 -25 81 -68 81 -126zM240 540c-57 0 -95 37 -95 86c0 50 39 90 95 90
c57 0 95 -37 95 -86c0 -50 -39 -90 -95 -90zM245 -103c106 0 139 24 139 58c0 21 -22 35 -83 35h-124c-53 0 -77 -21 -77 -44c0 -28 35 -49 145 -49zM253 233c39 0 54 30 54 96c0 65 -18 98 -58 98s-55 -32 -55 -98c0 -65 18 -96 59 -96z" />
    <glyph glyph-name="Hbar" unicode="&#x126;" horiz-adv-x="828" 
d="M25 422v88h81v52h-81v96h357v-96h-87v-62h238v62h-87v96h357v-96h-81v-52h81v-88h-81v-326h81v-96h-357v96h87v178h-238v-178h87v-96h-357v96h81v326h-81zM295 370h238v62h-238v-62z" />
    <glyph glyph-name="hbar" unicode="&#x127;" horiz-adv-x="646" 
d="M22 0v91h66v412h-66v68h66v30h-66v91h235v-121h114v-68h-114v-142c29 65 77 113 157 113c113 0 152 -75 152 -174v-209h65v-91h-282v91h48v195c0 30 -6 52 -20 66c-10 10 -24 15 -43 15c-43 0 -77 -43 -77 -100v-176h46v-91h-281z" />
    <glyph glyph-name="Iacute" unicode="&#xcd;" horiz-adv-x="431" 
d="M37 0v96h84v466h-84v96h357v-96h-84v-466h84v-96h-357zM168 724l43 113c24 63 45 110 101 110c41 0 72 -32 72 -66c0 -41 -25 -66 -66 -97l-78 -60h-72z" />
    <glyph glyph-name="iacute" unicode="&#xed;" horiz-adv-x="357" 
d="M27 0v91h73v291h-73v91h242v-382h73v-91h-315zM118 536l43 113c24 63 45 110 101 110c41 0 72 -32 72 -66c0 -41 -25 -66 -66 -97l-78 -60h-72z" />
    <glyph glyph-name="Ibreve" unicode="&#x12c;" horiz-adv-x="431" 
d="M37 0v96h84v466h-84v96h357v-96h-84v-466h84v-96h-357zM214 718c-106 0 -166 61 -162 195h81c7 -57 35 -84 83 -84c46 0 75 27 82 84h81c4 -134 -58 -195 -165 -195z" />
    <glyph glyph-name="ibreve" unicode="&#x12d;" horiz-adv-x="357" 
d="M27 0v91h73v291h-73v91h242v-382h73v-91h-315zM164 530c-106 0 -166 61 -162 195h81c7 -57 35 -84 83 -84c46 0 75 27 82 84h81c4 -134 -58 -195 -165 -195z" />
    <glyph glyph-name="Icircumflex" unicode="&#xce;" horiz-adv-x="431" 
d="M37 0v96h84v466h-84v96h357v-96h-84v-466h84v-96h-357zM38 724l130 203h98l127 -203h-101l-78 83l-75 -83h-101z" />
    <glyph glyph-name="icircumflex" unicode="&#xee;" horiz-adv-x="357" 
d="M27 0v91h73v291h-73v91h242v-382h73v-91h-315zM-12 536l130 203h98l127 -203h-101l-78 83l-75 -83h-101z" />
    <glyph glyph-name="Idieresis" unicode="&#xcf;" horiz-adv-x="431" 
d="M37 0v96h84v466h-84v96h357v-96h-84v-466h84v-96h-357zM320 718c-51 0 -86 35 -86 82c0 48 36 86 86 86c51 0 85 -35 85 -82c0 -48 -35 -86 -85 -86zM111 718c-51 0 -86 35 -86 82c0 48 36 86 86 86c51 0 85 -35 85 -82c0 -48 -35 -86 -85 -86z" />
    <glyph glyph-name="idieresis" unicode="&#xef;" horiz-adv-x="357" 
d="M27 0v91h73v291h-73v91h242v-382h73v-91h-315zM270 530c-51 0 -86 35 -86 82c0 48 36 86 86 86c51 0 85 -35 85 -82c0 -48 -35 -86 -85 -86zM61 530c-51 0 -86 35 -86 82c0 48 36 86 86 86c51 0 85 -35 85 -82c0 -48 -35 -86 -85 -86z" />
    <glyph glyph-name="Idotaccent" unicode="&#x130;" horiz-adv-x="431" 
d="M37 0v96h84v466h-84v96h357v-96h-84v-466h84v-96h-357zM215 718c-57 0 -95 37 -95 86c0 50 39 90 95 90c57 0 95 -37 95 -86c0 -50 -39 -90 -95 -90z" />
    <glyph glyph-name="dotlessi" unicode="&#x131;" horiz-adv-x="357" 
d="M27 0v91h73v291h-73v91h242v-382h73v-91h-315z" />
    <glyph glyph-name="Igrave" unicode="&#xcc;" horiz-adv-x="431" 
d="M37 0v96h84v466h-84v96h357v-96h-84v-466h84v-96h-357zM268 724h-72l-78 60c-41 31 -66 56 -66 97c0 34 31 66 72 66c56 0 77 -47 101 -110z" />
    <glyph glyph-name="igrave" unicode="&#xec;" horiz-adv-x="357" 
d="M27 0v91h73v291h-73v91h242v-382h73v-91h-315zM218 536h-72l-78 60c-41 31 -66 56 -66 97c0 34 31 66 72 66c56 0 77 -47 101 -110z" />
    <glyph glyph-name="Imacron" unicode="&#x12a;" horiz-adv-x="431" 
d="M37 0v96h84v466h-84v96h357v-96h-84v-466h84v-96h-357zM56 724v107h319v-107h-319z" />
    <glyph glyph-name="imacron" unicode="&#x12b;" horiz-adv-x="357" 
d="M27 0v91h73v291h-73v91h242v-382h73v-91h-315zM6 536v107h319v-107h-319z" />
    <glyph glyph-name="Iogonek" unicode="&#x12e;" horiz-adv-x="431" 
d="M37 0v96h84v466h-84v96h357v-96h-84v-466h84v-96h-96l-14 -12c-52 -45 -71 -75 -71 -106c0 -26 16 -49 57 -49c21 0 40 7 61 18l24 -59c-36 -22 -82 -45 -139 -45c-87 0 -129 49 -129 105c0 67 43 104 109 148h-159z" />
    <glyph glyph-name="iogonek" unicode="&#x12f;" horiz-adv-x="357" 
d="M27 0v91h73v291h-73v91h242v-382h73v-91h-77l-14 -12c-52 -45 -71 -75 -71 -106c0 -26 16 -49 57 -49c21 0 40 7 61 18l24 -59c-36 -22 -82 -45 -139 -45c-87 0 -129 49 -129 105c0 67 43 104 109 148h-136zM177 529c-60 0 -100 39 -100 91c0 53 41 95 100 95
c60 0 100 -39 100 -91c0 -53 -41 -95 -100 -95z" />
    <glyph glyph-name="Kcommaaccent" unicode="&#x136;" horiz-adv-x="763" 
d="M295 217v-123h76v-94h-346v96h81v466h-81v96h351v-94h-81v-232l238 232h-80v94h287v-96h-80l-161 -156l220 -310h65v-96h-351v94h69l-131 196zM310 -386l-24 54c76 33 115 69 124 122l-8 4c-7 -9 -21 -19 -42 -19c-39 0 -69 29 -69 76c0 50 37 92 93 92
c63 0 105 -46 105 -125c0 -97 -62 -166 -179 -204z" />
    <glyph glyph-name="kcommaaccent" unicode="&#x137;" horiz-adv-x="619" 
d="M519 382l-97 -83l152 -208h49v-91h-275v89h51l-85 123l-57 -50v-73h47v-89h-282v91h66v510h-66v91h235v-441l153 133h-73v89h253v-91h-71zM235 -386l-24 54c76 33 115 69 124 122l-8 4c-7 -9 -21 -19 -42 -19c-39 0 -69 29 -69 76c0 50 37 92 93 92
c63 0 105 -46 105 -125c0 -97 -62 -166 -179 -204z" />
    <glyph glyph-name="Lacute" unicode="&#x139;" horiz-adv-x="648" 
d="M25 658h364v-93h-94v-472h102c78 0 95 21 136 190h91v-283h-599v96h81v466h-81v96zM158 724l43 113c24 63 45 110 101 110c41 0 72 -32 72 -66c0 -41 -25 -66 -66 -97l-78 -60h-72z" />
    <glyph glyph-name="lacute" unicode="&#x13a;" horiz-adv-x="357" 
d="M21 0v91h73v510h-73v91h242v-601h73v-91h-315zM116 755l43 113c24 63 45 110 101 110c41 0 72 -32 72 -66c0 -41 -25 -66 -66 -97l-78 -60h-72z" />
    <glyph glyph-name="Lcaron" unicode="&#x13d;" horiz-adv-x="648" 
d="M25 658h364v-93h-94v-472h102c78 0 95 21 136 190h91v-283h-599v96h81v466h-81v96zM512 495h-57c-11 141 -11 151 -11 170c0 69 32 96 73 96c35 0 69 -27 69 -70c0 -28 -11 -55 -34 -106z" />
    <glyph glyph-name="lcaron" unicode="&#x13e;" horiz-adv-x="357" 
d="M21 0v91h73v510h-73v91h242v-601h73v-91h-315zM391 529h-57c-11 141 -11 151 -11 170c0 69 32 96 73 96c35 0 69 -27 69 -70c0 -28 -11 -55 -34 -106z" />
    <glyph glyph-name="Lcommaaccent" unicode="&#x13b;" horiz-adv-x="648" 
d="M25 658h364v-93h-94v-472h102c78 0 95 21 136 190h91v-283h-599v96h81v466h-81v96zM255 -386l-24 54c76 33 115 69 124 122l-8 4c-7 -9 -21 -19 -42 -19c-39 0 -69 29 -69 76c0 50 37 92 93 92c63 0 105 -46 105 -125c0 -97 -62 -166 -179 -204z" />
    <glyph glyph-name="lcommaaccent" unicode="&#x13c;" horiz-adv-x="357" 
d="M21 0v91h73v510h-73v91h242v-601h73v-91h-315zM98 -386l-24 54c76 33 115 69 124 122l-8 4c-7 -9 -21 -19 -42 -19c-39 0 -69 29 -69 76c0 50 37 92 93 92c63 0 105 -46 105 -125c0 -97 -62 -166 -179 -204z" />
    <glyph glyph-name="Ldot" unicode="&#x13f;" horiz-adv-x="648" 
d="M25 658h364v-93h-94v-472h102c78 0 95 22 136 160h91v-253h-599v96h81v466h-81v96zM509 309c-56 0 -93 36 -93 84c0 49 38 88 93 88c56 0 93 -36 93 -84c0 -49 -38 -88 -93 -88z" />
    <glyph glyph-name="ldot" unicode="&#x140;" horiz-adv-x="455" 
d="M406 260c-54 0 -90 36 -90 82c0 48 37 86 90 86c54 0 90 -36 90 -82c0 -48 -37 -86 -90 -86zM21 0v91h73v510h-73v91h242v-601h73v-91h-315z" />
    <glyph glyph-name="Lslash" unicode="&#x141;" horiz-adv-x="653" 
d="M30 658h364v-93h-94v-172l159 55v-90l-159 -56v-209h102c78 0 95 21 136 190h91v-283h-599v96h81v141l-81 -28v91l81 28v234h-81v96z" />
    <glyph glyph-name="lslash" unicode="&#x142;" horiz-adv-x="373" 
d="M29 0v91h73v197l-95 -30v77l95 29v237h-73v91h242v-275l95 30v-76l-95 -30v-250h73v-91h-315z" />
    <glyph glyph-name="Nacute" unicode="&#x143;" horiz-adv-x="784" 
d="M491 -6l-282 497h-9v-395h84v-96h-259v96h79v466h-79v96h307l256 -452h9v356h-84v96h259v-96h-79v-568h-202zM363 724l43 113c24 63 45 110 101 110c41 0 72 -32 72 -66c0 -41 -25 -66 -66 -97l-78 -60h-72z" />
    <glyph glyph-name="nacute" unicode="&#x144;" horiz-adv-x="651" 
d="M27 0v91h66v291h-66v91h223v-126c25 75 74 137 169 137c113 0 152 -75 152 -174v-219h65v-91h-282v91h48v205c0 30 -6 52 -20 66c-10 10 -24 15 -43 15c-43 0 -77 -43 -77 -100v-186h46v-91h-281zM288 536l43 113c24 63 45 110 101 110c41 0 72 -32 72 -66
c0 -41 -25 -66 -66 -97l-78 -60h-72z" />
    <glyph glyph-name="Ncaron" unicode="&#x147;" horiz-adv-x="784" 
d="M491 -6l-282 497h-9v-395h84v-96h-259v96h79v466h-79v96h307l256 -452h9v356h-84v96h259v-96h-79v-568h-202zM360 724l-127 203h101l78 -83l75 83h101l-130 -203h-98z" />
    <glyph glyph-name="ncaron" unicode="&#x148;" horiz-adv-x="651" 
d="M27 0v91h66v291h-66v91h223v-126c25 75 74 137 169 137c113 0 152 -75 152 -174v-219h65v-91h-282v91h48v205c0 30 -6 52 -20 66c-10 10 -24 15 -43 15c-43 0 -77 -43 -77 -100v-186h46v-91h-281zM285 536l-127 203h101l78 -83l75 83h101l-130 -203h-98z" />
    <glyph glyph-name="Ncommaaccent" unicode="&#x145;" horiz-adv-x="784" 
d="M491 -6l-282 497h-9v-395h84v-96h-259v96h79v466h-79v96h307l256 -452h9v356h-84v96h259v-96h-79v-568h-202zM305 -386l-24 54c76 33 115 69 124 122l-8 4c-7 -9 -21 -19 -42 -19c-39 0 -69 29 -69 76c0 50 37 92 93 92c63 0 105 -46 105 -125c0 -97 -62 -166 -179 -204z
" />
    <glyph glyph-name="ncommaaccent" unicode="&#x146;" horiz-adv-x="651" 
d="M27 0v91h66v291h-66v91h223v-126c25 75 74 137 169 137c113 0 152 -75 152 -174v-219h65v-91h-282v91h48v205c0 30 -6 52 -20 66c-10 10 -24 15 -43 15c-43 0 -77 -43 -77 -100v-186h46v-91h-281zM250 -386l-24 54c76 33 115 69 124 122l-8 4c-7 -9 -21 -19 -42 -19
c-39 0 -69 29 -69 76c0 50 37 92 93 92c63 0 105 -46 105 -125c0 -97 -62 -166 -179 -204z" />
    <glyph glyph-name="Ntilde" unicode="&#xd1;" horiz-adv-x="784" 
d="M491 -6l-282 497h-9v-395h84v-96h-259v96h79v466h-79v96h307l256 -452h9v356h-84v96h259v-96h-79v-568h-202zM216 718c7 114 34 177 118 177c62 0 123 -48 164 -48c18 0 26 13 33 52h74c-7 -114 -34 -177 -118 -177c-62 0 -123 48 -164 48c-18 0 -26 -13 -33 -52h-74z
" />
    <glyph glyph-name="ntilde" unicode="&#xf1;" horiz-adv-x="651" 
d="M27 0v91h66v291h-66v91h223v-126c25 75 74 137 169 137c113 0 152 -75 152 -174v-219h65v-91h-282v91h48v205c0 30 -6 52 -20 66c-10 10 -24 15 -43 15c-43 0 -77 -43 -77 -100v-186h46v-91h-281zM141 530c7 114 34 177 118 177c62 0 123 -48 164 -48c18 0 26 13 33 52
h74c-7 -114 -34 -177 -118 -177c-62 0 -123 48 -164 48c-18 0 -26 -13 -33 -52h-74z" />
    <glyph glyph-name="Oacute" unicode="&#xd3;" 
d="M380 -16c-203 0 -345 131 -345 343c0 211 147 347 345 347c203 0 345 -132 345 -343c0 -212 -147 -347 -345 -347zM384 73c95 0 138 71 138 256c0 184 -51 256 -146 256s-138 -72 -138 -256c0 -185 51 -256 146 -256zM333 724l43 113c24 63 45 110 101 110
c41 0 72 -32 72 -66c0 -41 -25 -66 -66 -97l-78 -60h-72z" />
    <glyph glyph-name="oacute" unicode="&#xf3;" horiz-adv-x="577" 
d="M288 -11c-152 0 -263 98 -263 245s116 250 264 250c152 0 263 -98 263 -245s-116 -250 -264 -250zM291 63c57 0 77 48 77 174c0 127 -24 173 -82 173c-57 0 -77 -48 -77 -174c0 -127 24 -173 82 -173zM241 536l43 113c24 63 45 110 101 110c41 0 72 -32 72 -66
c0 -41 -25 -66 -66 -97l-78 -60h-72z" />
    <glyph glyph-name="Obreve" unicode="&#x14e;" 
d="M380 -16c-203 0 -345 131 -345 343c0 211 147 347 345 347c203 0 345 -132 345 -343c0 -212 -147 -347 -345 -347zM384 73c95 0 138 71 138 256c0 184 -51 256 -146 256s-138 -72 -138 -256c0 -185 51 -256 146 -256zM379 718c-106 0 -166 61 -162 195h81
c7 -57 35 -84 83 -84c46 0 75 27 82 84h81c4 -134 -58 -195 -165 -195z" />
    <glyph glyph-name="obreve" unicode="&#x14f;" horiz-adv-x="577" 
d="M288 -11c-152 0 -263 98 -263 245s116 250 264 250c152 0 263 -98 263 -245s-116 -250 -264 -250zM291 63c57 0 77 48 77 174c0 127 -24 173 -82 173c-57 0 -77 -48 -77 -174c0 -127 24 -173 82 -173zM287 530c-106 0 -166 61 -162 195h81c7 -57 35 -84 83 -84
c46 0 75 27 82 84h81c4 -134 -58 -195 -165 -195z" />
    <glyph glyph-name="Ocircumflex" unicode="&#xd4;" 
d="M380 -16c-203 0 -345 131 -345 343c0 211 147 347 345 347c203 0 345 -132 345 -343c0 -212 -147 -347 -345 -347zM384 73c95 0 138 71 138 256c0 184 -51 256 -146 256s-138 -72 -138 -256c0 -185 51 -256 146 -256zM203 724l130 203h98l127 -203h-101l-78 83l-75 -83
h-101z" />
    <glyph glyph-name="ocircumflex" unicode="&#xf4;" horiz-adv-x="577" 
d="M288 -11c-152 0 -263 98 -263 245s116 250 264 250c152 0 263 -98 263 -245s-116 -250 -264 -250zM291 63c57 0 77 48 77 174c0 127 -24 173 -82 173c-57 0 -77 -48 -77 -174c0 -127 24 -173 82 -173zM111 536l130 203h98l127 -203h-101l-78 83l-75 -83h-101z" />
    <glyph glyph-name="Odieresis" unicode="&#xd6;" 
d="M380 -16c-203 0 -345 131 -345 343c0 211 147 347 345 347c203 0 345 -132 345 -343c0 -212 -147 -347 -345 -347zM384 73c95 0 138 71 138 256c0 184 -51 256 -146 256s-138 -72 -138 -256c0 -185 51 -256 146 -256zM485 718c-51 0 -86 35 -86 82c0 48 36 86 86 86
c51 0 85 -35 85 -82c0 -48 -35 -86 -85 -86zM276 718c-51 0 -86 35 -86 82c0 48 36 86 86 86c51 0 85 -35 85 -82c0 -48 -35 -86 -85 -86z" />
    <glyph glyph-name="odieresis" unicode="&#xf6;" horiz-adv-x="577" 
d="M288 -11c-152 0 -263 98 -263 245s116 250 264 250c152 0 263 -98 263 -245s-116 -250 -264 -250zM291 63c57 0 77 48 77 174c0 127 -24 173 -82 173c-57 0 -77 -48 -77 -174c0 -127 24 -173 82 -173zM393 530c-51 0 -86 35 -86 82c0 48 36 86 86 86c51 0 85 -35 85 -82
c0 -48 -35 -86 -85 -86zM184 530c-51 0 -86 35 -86 82c0 48 36 86 86 86c51 0 85 -35 85 -82c0 -48 -35 -86 -85 -86z" />
    <glyph glyph-name="OE" unicode="&#x152;" horiz-adv-x="1083" 
d="M437 0c-276 0 -402 130 -402 328c0 199 128 330 398 330h600v-243h-103c-21 129 -38 150 -125 150h-147v-187h48c48 0 52 11 63 88h89v-269h-89c-9 76 -16 88 -63 88h-48v-192h143c107 0 120 38 138 178h103v-271h-605zM426 93h43v472h-48c-136 0 -182 -59 -182 -236
c0 -173 50 -236 187 -236z" />
    <glyph glyph-name="oe" unicode="&#x153;" horiz-adv-x="886" 
d="M858 212h-319c6 -107 47 -135 117 -135c55 0 88 23 106 80h90c-17 -100 -79 -168 -204 -168c-91 0 -155 28 -193 81c-39 -52 -100 -81 -174 -81c-143 0 -256 98 -256 245s117 250 257 250c79 0 140 -29 178 -83c38 53 97 83 172 83c154 0 235 -107 226 -272zM291 63
c57 0 77 48 77 174c0 127 -24 173 -82 173c-57 0 -77 -48 -77 -174c0 -127 24 -173 82 -173zM619 410c-46 0 -75 -31 -80 -129h156c-4 100 -29 129 -76 129z" />
    <glyph glyph-name="Ograve" unicode="&#xd2;" 
d="M380 -16c-203 0 -345 131 -345 343c0 211 147 347 345 347c203 0 345 -132 345 -343c0 -212 -147 -347 -345 -347zM384 73c95 0 138 71 138 256c0 184 -51 256 -146 256s-138 -72 -138 -256c0 -185 51 -256 146 -256zM433 724h-72l-78 60c-41 31 -66 56 -66 97
c0 34 31 66 72 66c56 0 77 -47 101 -110z" />
    <glyph glyph-name="ograve" unicode="&#xf2;" horiz-adv-x="577" 
d="M288 -11c-152 0 -263 98 -263 245s116 250 264 250c152 0 263 -98 263 -245s-116 -250 -264 -250zM291 63c57 0 77 48 77 174c0 127 -24 173 -82 173c-57 0 -77 -48 -77 -174c0 -127 24 -173 82 -173zM341 536h-72l-78 60c-41 31 -66 56 -66 97c0 34 31 66 72 66
c56 0 77 -47 101 -110z" />
    <glyph glyph-name="Ohungarumlaut" unicode="&#x150;" 
d="M380 -16c-203 0 -345 131 -345 343c0 211 147 347 345 347c203 0 345 -132 345 -343c0 -212 -147 -347 -345 -347zM384 73c95 0 138 71 138 256c0 184 -51 256 -146 256s-138 -72 -138 -256c0 -185 51 -256 146 -256zM434 724l46 113c25 62 49 110 101 110
c38 0 68 -31 68 -64c0 -40 -26 -66 -64 -97l-76 -62h-75zM250 724l38 113c21 62 39 110 94 110c40 0 69 -32 69 -64c0 -41 -21 -66 -58 -97l-73 -62h-70z" />
    <glyph glyph-name="ohungarumlaut" unicode="&#x151;" horiz-adv-x="577" 
d="M288 -11c-152 0 -263 98 -263 245s116 250 264 250c152 0 263 -98 263 -245s-116 -250 -264 -250zM291 63c57 0 77 48 77 174c0 127 -24 173 -82 173c-57 0 -77 -48 -77 -174c0 -127 24 -173 82 -173zM342 536l46 113c25 62 49 110 101 110c38 0 68 -31 68 -64
c0 -40 -26 -66 -64 -97l-76 -62h-75zM158 536l38 113c21 62 39 110 94 110c40 0 69 -32 69 -64c0 -41 -21 -66 -58 -97l-73 -62h-70z" />
    <glyph glyph-name="Omacron" unicode="&#x14c;" 
d="M380 -16c-203 0 -345 131 -345 343c0 211 147 347 345 347c203 0 345 -132 345 -343c0 -212 -147 -347 -345 -347zM384 73c95 0 138 71 138 256c0 184 -51 256 -146 256s-138 -72 -138 -256c0 -185 51 -256 146 -256zM221 724v107h319v-107h-319z" />
    <glyph glyph-name="omacron" unicode="&#x14d;" horiz-adv-x="577" 
d="M288 -11c-152 0 -263 98 -263 245s116 250 264 250c152 0 263 -98 263 -245s-116 -250 -264 -250zM291 63c57 0 77 48 77 174c0 127 -24 173 -82 173c-57 0 -77 -48 -77 -174c0 -127 24 -173 82 -173zM129 536v107h319v-107h-319z" />
    <glyph glyph-name="Oslash" unicode="&#xd8;" 
d="M162 -34h-115l85 113c-61 60 -97 145 -97 248c0 211 147 347 340 347c67 0 128 -15 180 -43l43 61h115l-85 -114c61 -60 97 -145 97 -247c0 -212 -147 -347 -340 -347c-67 0 -128 15 -180 42zM236 329c0 -46 2 -84 7 -116l239 328c-24 33 -59 46 -106 46
c-97 0 -140 -72 -140 -258zM384 71c97 0 140 71 140 258c0 45 -3 83 -8 115l-238 -328c24 -32 59 -45 106 -45z" />
    <glyph glyph-name="oslash" unicode="&#xf8;" horiz-adv-x="577" 
d="M124 -29h-98l72 89c-46 44 -73 105 -73 178c0 144 117 246 262 246c47 0 91 -11 129 -29l37 47h98l-72 -90c45 -44 73 -105 73 -177c0 -144 -117 -246 -262 -246c-48 0 -92 11 -129 28zM291 59c63 0 88 52 88 178c0 24 -1 45 -2 63l-156 -210c14 -23 37 -31 70 -31z
M198 236c0 -24 0 -45 2 -63l155 210c-14 23 -37 31 -69 31c-63 0 -88 -52 -88 -178z" />
    <glyph glyph-name="Oslashacute" unicode="&#x1fe;" 
d="M162 -34h-115l85 113c-61 60 -97 145 -97 248c0 211 147 347 340 347c67 0 128 -15 180 -43l43 61h115l-85 -114c61 -60 97 -145 97 -247c0 -212 -147 -347 -340 -347c-67 0 -128 15 -180 42zM236 329c0 -46 2 -84 7 -116l239 328c-24 33 -59 46 -106 46
c-97 0 -140 -72 -140 -258zM384 71c97 0 140 71 140 258c0 45 -3 83 -8 115l-238 -328c24 -32 59 -45 106 -45zM333 724l43 113c24 63 45 110 101 110c41 0 72 -32 72 -66c0 -41 -25 -66 -66 -97l-78 -60h-72z" />
    <glyph glyph-name="oslashacute" unicode="&#x1ff;" horiz-adv-x="577" 
d="M124 -29h-98l72 89c-46 44 -73 105 -73 178c0 144 117 246 262 246c47 0 91 -11 129 -29l37 47h98l-72 -90c45 -44 73 -105 73 -177c0 -144 -117 -246 -262 -246c-48 0 -92 11 -129 28zM241 536l43 113c24 63 45 110 101 110c41 0 72 -32 72 -66c0 -41 -25 -66 -66 -97
l-78 -60h-72zM291 59c63 0 88 52 88 178c0 24 -1 45 -2 63l-156 -210c14 -23 37 -31 70 -31zM198 236c0 -24 0 -45 2 -63l155 210c-14 23 -37 31 -69 31c-63 0 -88 -52 -88 -178z" />
    <glyph glyph-name="Otilde" unicode="&#xd5;" 
d="M380 -16c-203 0 -345 131 -345 343c0 211 147 347 345 347c203 0 345 -132 345 -343c0 -212 -147 -347 -345 -347zM384 73c95 0 138 71 138 256c0 184 -51 256 -146 256s-138 -72 -138 -256c0 -185 51 -256 146 -256zM186 718c7 114 34 177 118 177c62 0 123 -48 164 -48
c18 0 26 13 33 52h74c-7 -114 -34 -177 -118 -177c-62 0 -123 48 -164 48c-18 0 -26 -13 -33 -52h-74z" />
    <glyph glyph-name="otilde" unicode="&#xf5;" horiz-adv-x="577" 
d="M288 -11c-152 0 -263 98 -263 245s116 250 264 250c152 0 263 -98 263 -245s-116 -250 -264 -250zM291 63c57 0 77 48 77 174c0 127 -24 173 -82 173c-57 0 -77 -48 -77 -174c0 -127 24 -173 82 -173zM94 530c7 114 34 177 118 177c62 0 123 -48 164 -48
c18 0 26 13 33 52h74c-7 -114 -34 -177 -118 -177c-62 0 -123 48 -164 48c-18 0 -26 -13 -33 -52h-74z" />
    <glyph glyph-name="Racute" unicode="&#x154;" horiz-adv-x="747" 
d="M295 285v-189h87v-96h-357v96h81v466h-81v96h379c198 0 270 -82 270 -165c0 -84 -53 -147 -219 -163v-6c135 -7 181 -65 184 -147l1 -25c2 -46 11 -56 31 -56c14 0 26 15 39 67l65 -18c-18 -90 -59 -160 -164 -160c-123 0 -164 66 -164 183v15c0 75 -18 102 -83 102h-69z
M295 376h79c66 0 101 22 101 96c0 66 -19 95 -101 95h-79v-191zM328 724l43 113c24 63 45 110 101 110c41 0 72 -32 72 -66c0 -41 -25 -66 -66 -97l-78 -60h-72z" />
    <glyph glyph-name="racute" unicode="&#x155;" horiz-adv-x="504" 
d="M27 0v91h66v291h-66v91h223v-127c30 91 82 138 151 138c61 0 101 -47 101 -98c0 -56 -38 -95 -86 -95s-84 27 -84 76c0 1 1 3 1 4c-19 -4 -53 -25 -71 -81v-199h87v-91h-322zM223 536l43 113c24 63 45 110 101 110c41 0 72 -32 72 -66c0 -41 -25 -66 -66 -97l-78 -60h-72
z" />
    <glyph glyph-name="Rcaron" unicode="&#x158;" horiz-adv-x="747" 
d="M295 285v-189h87v-96h-357v96h81v466h-81v96h379c198 0 270 -82 270 -165c0 -84 -53 -147 -219 -163v-6c135 -7 181 -65 184 -147l1 -25c2 -46 11 -56 31 -56c14 0 26 15 39 67l65 -18c-18 -90 -59 -160 -164 -160c-123 0 -164 66 -164 183v15c0 75 -18 102 -83 102h-69z
M295 376h79c66 0 101 22 101 96c0 66 -19 95 -101 95h-79v-191zM325 724l-127 203h101l78 -83l75 83h101l-130 -203h-98z" />
    <glyph glyph-name="rcaron" unicode="&#x159;" horiz-adv-x="504" 
d="M27 0v91h66v291h-66v91h223v-127c30 91 82 138 151 138c61 0 101 -47 101 -98c0 -56 -38 -95 -86 -95s-84 27 -84 76c0 1 1 3 1 4c-19 -4 -53 -25 -71 -81v-199h87v-91h-322zM220 536l-127 203h101l78 -83l75 83h101l-130 -203h-98z" />
    <glyph glyph-name="Rcommaaccent" unicode="&#x156;" horiz-adv-x="747" 
d="M295 285v-189h87v-96h-357v96h81v466h-81v96h379c198 0 270 -82 270 -165c0 -84 -53 -147 -219 -163v-6c135 -7 181 -65 184 -147l1 -25c2 -46 11 -56 31 -56c14 0 26 15 39 67l65 -18c-18 -90 -59 -160 -164 -160c-123 0 -164 66 -164 183v15c0 75 -18 102 -83 102h-69z
M295 376h79c66 0 101 22 101 96c0 66 -19 95 -101 95h-79v-191zM295 -386l-24 54c76 33 115 69 124 122l-8 4c-7 -9 -21 -19 -42 -19c-39 0 -69 29 -69 76c0 50 37 92 93 92c63 0 105 -46 105 -125c0 -97 -62 -166 -179 -204z" />
    <glyph glyph-name="rcommaaccent" unicode="&#x157;" horiz-adv-x="504" 
d="M27 0v91h66v291h-66v91h223v-127c30 91 82 138 151 138c61 0 101 -47 101 -98c0 -56 -38 -95 -86 -95s-84 27 -84 76c0 1 1 3 1 4c-19 -4 -53 -25 -71 -81v-199h87v-91h-322zM105 -386l-24 54c76 33 115 69 124 122l-8 4c-7 -9 -21 -19 -42 -19c-39 0 -69 29 -69 76
c0 50 37 92 93 92c63 0 105 -46 105 -125c0 -97 -62 -166 -179 -204z" />
    <glyph glyph-name="Sacute" unicode="&#x15a;" horiz-adv-x="632" 
d="M41 -14v246h100c31 -102 89 -156 201 -156c68 0 105 33 105 78c0 52 -59 64 -163 88c-111 25 -238 63 -238 215c0 133 112 217 242 217c78 0 137 -29 170 -74l21 72h97v-236h-100c-33 100 -79 146 -168 146c-68 0 -102 -38 -102 -77c0 -56 66 -69 168 -93
c110 -26 233 -63 233 -210c0 -130 -102 -218 -251 -218c-85 0 -159 37 -195 83l-23 -81h-97zM273 724l43 113c24 63 45 110 101 110c41 0 72 -32 72 -66c0 -41 -25 -66 -66 -97l-78 -60h-72z" />
    <glyph glyph-name="sacute" unicode="&#x15b;" horiz-adv-x="501" 
d="M31 -9v172h84c47 -59 105 -98 158 -98c37 0 54 15 54 40c0 34 -23 47 -118 70c-113 28 -172 64 -172 152c0 86 67 157 176 157c66 0 112 -24 144 -59l18 57h86v-162h-84c-39 52 -94 90 -140 90c-40 0 -53 -17 -53 -40c0 -31 24 -41 115 -64c101 -26 178 -59 178 -158
c0 -86 -64 -159 -183 -159c-79 0 -129 33 -160 67l-18 -65h-85zM208 536l43 113c24 63 45 110 101 110c41 0 72 -32 72 -66c0 -41 -25 -66 -66 -97l-78 -60h-72z" />
    <glyph glyph-name="Scaron" unicode="&#x160;" horiz-adv-x="632" 
d="M41 -14v246h100c31 -102 89 -156 201 -156c68 0 105 33 105 78c0 52 -59 64 -163 88c-111 25 -238 63 -238 215c0 133 112 217 242 217c78 0 137 -29 170 -74l21 72h97v-236h-100c-33 100 -79 146 -168 146c-68 0 -102 -38 -102 -77c0 -56 66 -69 168 -93
c110 -26 233 -63 233 -210c0 -130 -102 -218 -251 -218c-85 0 -159 37 -195 83l-23 -81h-97zM270 724l-127 203h101l78 -83l75 83h101l-130 -203h-98z" />
    <glyph glyph-name="scaron" unicode="&#x161;" horiz-adv-x="501" 
d="M31 -9v172h84c47 -59 105 -98 158 -98c37 0 54 15 54 40c0 34 -23 47 -118 70c-113 28 -172 64 -172 152c0 86 67 157 176 157c66 0 112 -24 144 -59l18 57h86v-162h-84c-39 52 -94 90 -140 90c-40 0 -53 -17 -53 -40c0 -31 24 -41 115 -64c101 -26 178 -59 178 -158
c0 -86 -64 -159 -183 -159c-79 0 -129 33 -160 67l-18 -65h-85zM205 536l-127 203h101l78 -83l75 83h101l-130 -203h-98z" />
    <glyph glyph-name="Scedilla" unicode="&#x15e;" horiz-adv-x="632" 
d="M303 -252c-51 0 -103 10 -146 33l33 54c25 -10 61 -19 93 -19c30 0 44 9 44 24c0 19 -25 32 -79 32c-7 0 -14 0 -24 -2l-26 50l92 72c-56 12 -103 41 -129 75l-23 -81h-97v246h100c31 -102 89 -156 201 -156c68 0 105 33 105 78c0 52 -59 64 -163 88
c-111 25 -238 63 -238 215c0 133 112 217 242 217c78 0 137 -29 170 -74l21 72h97v-236h-100c-33 100 -79 146 -168 146c-68 0 -102 -38 -102 -77c0 -56 66 -69 168 -93c110 -26 233 -63 233 -210c0 -127 -98 -214 -241 -218l-40 -40l2 -4c85 -11 119 -48 119 -92
c0 -61 -50 -100 -144 -100z" />
    <glyph glyph-name="scedilla" unicode="&#x15f;" horiz-adv-x="501" 
d="M233 -252c-51 0 -103 10 -146 33l33 54c25 -10 61 -19 93 -19c30 0 44 9 44 24c0 19 -25 32 -79 32c-7 0 -14 0 -24 -2l-26 50l100 78c-42 11 -73 34 -94 58l-18 -65h-85v172h84c47 -59 105 -98 158 -98c37 0 54 15 54 40c0 34 -23 47 -118 70c-113 28 -172 64 -172 152
c0 86 67 157 176 157c66 0 112 -24 144 -59l18 57h86v-162h-84c-39 52 -94 90 -140 90c-40 0 -53 -17 -53 -40c0 -31 24 -41 115 -64c101 -26 178 -59 178 -158c0 -85 -62 -156 -176 -159l-45 -45l2 -4c85 -11 119 -48 119 -92c0 -61 -50 -100 -144 -100z" />
    <glyph glyph-name="Scommaaccent" unicode="&#x218;" horiz-adv-x="632" 
d="M41 -14v246h100c31 -102 89 -156 201 -156c68 0 105 33 105 78c0 52 -59 64 -163 88c-111 25 -238 63 -238 215c0 133 112 217 242 217c78 0 137 -29 170 -74l21 72h97v-236h-100c-33 100 -79 146 -168 146c-68 0 -102 -38 -102 -77c0 -56 66 -69 168 -93
c110 -26 233 -63 233 -210c0 -130 -102 -218 -251 -218c-85 0 -159 37 -195 83l-23 -81h-97zM240 -386l-24 54c76 33 115 69 124 122l-8 4c-7 -9 -21 -19 -42 -19c-39 0 -69 29 -69 76c0 50 37 92 93 92c63 0 105 -46 105 -125c0 -97 -62 -166 -179 -204z" />
    <glyph glyph-name="scommaaccent" unicode="&#x219;" horiz-adv-x="501" 
d="M31 -9v172h84c47 -59 105 -98 158 -98c37 0 54 15 54 40c0 34 -23 47 -118 70c-113 28 -172 64 -172 152c0 86 67 157 176 157c66 0 112 -24 144 -59l18 57h86v-162h-84c-39 52 -94 90 -140 90c-40 0 -53 -17 -53 -40c0 -31 24 -41 115 -64c101 -26 178 -59 178 -158
c0 -86 -64 -159 -183 -159c-79 0 -129 33 -160 67l-18 -65h-85zM175 -386l-24 54c76 33 115 69 124 122l-8 4c-7 -9 -21 -19 -42 -19c-39 0 -69 29 -69 76c0 50 37 92 93 92c63 0 105 -46 105 -125c0 -97 -62 -166 -179 -204z" />
    <glyph glyph-name="Tcaron" unicode="&#x164;" horiz-adv-x="707" 
d="M161 0v96h98v479h-17c-78 0 -94 -26 -126 -195h-93v278h661v-278h-93c-32 169 -48 195 -126 195h-17v-479h98v-96h-385zM305 724l-127 203h101l78 -83l75 83h101l-130 -203h-98z" />
    <glyph glyph-name="tcaron" unicode="&#x165;" horiz-adv-x="436" 
d="M88 576l164 20v-128h150v-86h-150v-222c0 -42 15 -67 46 -67s42 23 59 92l66 -16c-20 -125 -68 -180 -174 -180c-112 0 -166 56 -166 177v216h-80v86h85v108zM375 529h-57c-11 141 -11 151 -11 170c0 69 32 96 73 96c35 0 69 -27 69 -70c0 -28 -11 -55 -34 -106z" />
    <glyph glyph-name="Tcommaaccent" unicode="&#x162;" horiz-adv-x="707" 
d="M161 0v96h98v479h-17c-78 0 -94 -26 -126 -195h-93v278h661v-278h-93c-32 169 -48 195 -126 195h-17v-479h98v-96h-385zM275 -386l-24 54c76 33 115 69 124 122l-8 4c-7 -9 -21 -19 -42 -19c-39 0 -69 29 -69 76c0 50 37 92 93 92c63 0 105 -46 105 -125
c0 -97 -62 -166 -179 -204z" />
    <glyph glyph-name="tcommaaccent" unicode="&#x163;" horiz-adv-x="436" 
d="M88 576l164 20v-128h150v-86h-150v-222c0 -42 15 -67 46 -67s42 23 59 92l66 -16c-20 -125 -68 -180 -174 -180c-112 0 -166 56 -166 177v216h-80v86h85v108zM145 -386l-24 54c76 33 115 69 124 122l-8 4c-7 -9 -21 -19 -42 -19c-39 0 -69 29 -69 76c0 50 37 92 93 92
c63 0 105 -46 105 -125c0 -97 -62 -166 -179 -204z" />
    <glyph glyph-name="Thorn" unicode="&#xde;" horiz-adv-x="688" 
d="M25 0v96h81v466h-81v96h357v-96h-87v-46h80c211 0 292 -74 292 -185c0 -117 -83 -186 -292 -186h-80v-49h87v-96h-357zM295 238h58c79 0 116 25 116 93c0 65 -28 92 -116 92h-58v-185z" />
    <glyph glyph-name="thorn" unicode="&#xfe;" horiz-adv-x="594" 
d="M3 -164v91h66v674h-66v91h235v-312c27 61 72 104 147 104c52 0 90 -19 120 -49c43 -43 64 -115 64 -198c0 -75 -25 -146 -67 -188c-31 -31 -73 -49 -125 -49c-68 0 -116 31 -139 74v-147h82v-91h-317zM319 89c51 0 70 53 70 150c0 91 -20 140 -75 140
c-60 0 -88 -67 -88 -145c0 -81 27 -145 93 -145z" />
    <glyph glyph-name="Uacute" unicode="&#xda;" horiz-adv-x="753" 
d="M396 -16c-205 0 -300 93 -300 254v324h-81v96h359v-96h-89v-306c0 -121 49 -160 139 -160c44 0 76 11 100 35c27 27 41 74 41 143v288h-82v96h260v-96h-77v-317c0 -143 -80 -261 -270 -261zM368 724l43 113c24 63 45 110 101 110c41 0 72 -32 72 -66
c0 -41 -25 -66 -66 -97l-78 -60h-72z" />
    <glyph glyph-name="uacute" unicode="&#xfa;" horiz-adv-x="642" 
d="M230 -11c-111 0 -150 75 -150 174v219h-65v91h234v-296c0 -29 5 -52 20 -67c8 -8 22 -14 41 -14c41 0 75 43 75 100v186h-65v91h234v-382h66v-91h-223v126c-25 -75 -74 -137 -167 -137zM258 536l43 113c24 63 45 110 101 110c41 0 72 -32 72 -66c0 -41 -25 -66 -66 -97
l-78 -60h-72z" />
    <glyph glyph-name="Ubreve" unicode="&#x16c;" horiz-adv-x="753" 
d="M396 -16c-205 0 -300 93 -300 254v324h-81v96h359v-96h-89v-306c0 -121 49 -160 139 -160c44 0 76 11 100 35c27 27 41 74 41 143v288h-82v96h260v-96h-77v-317c0 -143 -80 -261 -270 -261zM414 718c-106 0 -166 61 -162 195h81c7 -57 35 -84 83 -84c46 0 75 27 82 84h81
c4 -134 -58 -195 -165 -195z" />
    <glyph glyph-name="ubreve" unicode="&#x16d;" horiz-adv-x="642" 
d="M230 -11c-111 0 -150 75 -150 174v219h-65v91h234v-296c0 -29 5 -52 20 -67c8 -8 22 -14 41 -14c41 0 75 43 75 100v186h-65v91h234v-382h66v-91h-223v126c-25 -75 -74 -137 -167 -137zM304 530c-106 0 -166 61 -162 195h81c7 -57 35 -84 83 -84c46 0 75 27 82 84h81
c4 -134 -58 -195 -165 -195z" />
    <glyph glyph-name="Ucircumflex" unicode="&#xdb;" horiz-adv-x="753" 
d="M396 -16c-205 0 -300 93 -300 254v324h-81v96h359v-96h-89v-306c0 -121 49 -160 139 -160c44 0 76 11 100 35c27 27 41 74 41 143v288h-82v96h260v-96h-77v-317c0 -143 -80 -261 -270 -261zM238 724l130 203h98l127 -203h-101l-78 83l-75 -83h-101z" />
    <glyph glyph-name="ucircumflex" unicode="&#xfb;" horiz-adv-x="642" 
d="M230 -11c-111 0 -150 75 -150 174v219h-65v91h234v-296c0 -29 5 -52 20 -67c8 -8 22 -14 41 -14c41 0 75 43 75 100v186h-65v91h234v-382h66v-91h-223v126c-25 -75 -74 -137 -167 -137zM128 536l130 203h98l127 -203h-101l-78 83l-75 -83h-101z" />
    <glyph glyph-name="Udieresis" unicode="&#xdc;" horiz-adv-x="753" 
d="M396 -16c-205 0 -300 93 -300 254v324h-81v96h359v-96h-89v-306c0 -121 49 -160 139 -160c44 0 76 11 100 35c27 27 41 74 41 143v288h-82v96h260v-96h-77v-317c0 -143 -80 -261 -270 -261zM520 718c-51 0 -86 35 -86 82c0 48 36 86 86 86c51 0 85 -35 85 -82
c0 -48 -35 -86 -85 -86zM311 718c-51 0 -86 35 -86 82c0 48 36 86 86 86c51 0 85 -35 85 -82c0 -48 -35 -86 -85 -86z" />
    <glyph glyph-name="udieresis" unicode="&#xfc;" horiz-adv-x="642" 
d="M230 -11c-111 0 -150 75 -150 174v219h-65v91h234v-296c0 -29 5 -52 20 -67c8 -8 22 -14 41 -14c41 0 75 43 75 100v186h-65v91h234v-382h66v-91h-223v126c-25 -75 -74 -137 -167 -137zM410 530c-51 0 -86 35 -86 82c0 48 36 86 86 86c51 0 85 -35 85 -82
c0 -48 -35 -86 -85 -86zM201 530c-51 0 -86 35 -86 82c0 48 36 86 86 86c51 0 85 -35 85 -82c0 -48 -35 -86 -85 -86z" />
    <glyph glyph-name="Ugrave" unicode="&#xd9;" horiz-adv-x="753" 
d="M396 -16c-205 0 -300 93 -300 254v324h-81v96h359v-96h-89v-306c0 -121 49 -160 139 -160c44 0 76 11 100 35c27 27 41 74 41 143v288h-82v96h260v-96h-77v-317c0 -143 -80 -261 -270 -261zM468 724h-72l-78 60c-41 31 -66 56 -66 97c0 34 31 66 72 66
c56 0 77 -47 101 -110z" />
    <glyph glyph-name="ugrave" unicode="&#xf9;" horiz-adv-x="642" 
d="M230 -11c-111 0 -150 75 -150 174v219h-65v91h234v-296c0 -29 5 -52 20 -67c8 -8 22 -14 41 -14c41 0 75 43 75 100v186h-65v91h234v-382h66v-91h-223v126c-25 -75 -74 -137 -167 -137zM358 536h-72l-78 60c-41 31 -66 56 -66 97c0 34 31 66 72 66c56 0 77 -47 101 -110z
" />
    <glyph glyph-name="Uhungarumlaut" unicode="&#x170;" horiz-adv-x="753" 
d="M396 -16c-205 0 -300 93 -300 254v324h-81v96h359v-96h-89v-306c0 -121 49 -160 139 -160c44 0 76 11 100 35c27 27 41 74 41 143v288h-82v96h260v-96h-77v-317c0 -143 -80 -261 -270 -261zM469 724l46 113c25 62 49 110 101 110c38 0 68 -31 68 -64
c0 -40 -26 -66 -64 -97l-76 -62h-75zM285 724l38 113c21 62 39 110 94 110c40 0 69 -32 69 -64c0 -41 -21 -66 -58 -97l-73 -62h-70z" />
    <glyph glyph-name="uhungarumlaut" unicode="&#x171;" horiz-adv-x="642" 
d="M230 -11c-111 0 -150 75 -150 174v219h-65v91h234v-296c0 -29 5 -52 20 -67c8 -8 22 -14 41 -14c41 0 75 43 75 100v186h-65v91h234v-382h66v-91h-223v126c-25 -75 -74 -137 -167 -137zM359 536l46 113c25 62 49 110 101 110c38 0 68 -31 68 -64c0 -40 -26 -66 -64 -97
l-76 -62h-75zM175 536l38 113c21 62 39 110 94 110c40 0 69 -32 69 -64c0 -41 -21 -66 -58 -97l-73 -62h-70z" />
    <glyph glyph-name="Umacron" unicode="&#x16a;" horiz-adv-x="753" 
d="M396 -16c-205 0 -300 93 -300 254v324h-81v96h359v-96h-89v-306c0 -121 49 -160 139 -160c44 0 76 11 100 35c27 27 41 74 41 143v288h-82v96h260v-96h-77v-317c0 -143 -80 -261 -270 -261zM256 724v107h319v-107h-319z" />
    <glyph glyph-name="umacron" unicode="&#x16b;" horiz-adv-x="642" 
d="M230 -11c-111 0 -150 75 -150 174v219h-65v91h234v-296c0 -29 5 -52 20 -67c8 -8 22 -14 41 -14c41 0 75 43 75 100v186h-65v91h234v-382h66v-91h-223v126c-25 -75 -74 -137 -167 -137zM146 536v107h319v-107h-319z" />
    <glyph glyph-name="Uogonek" unicode="&#x172;" horiz-adv-x="753" 
d="M390 -253c-87 0 -129 49 -129 105c0 59 34 95 88 134c-173 13 -253 103 -253 252v324h-81v96h359v-96h-89v-306c0 -121 49 -160 139 -160c44 0 76 11 100 35c27 27 41 74 41 143v288h-82v96h260v-96h-77v-317c0 -126 -63 -233 -207 -256l-1 -1c-52 -45 -71 -75 -71 -106
c0 -26 16 -49 57 -49c21 0 40 7 61 18l24 -59c-36 -22 -82 -45 -139 -45z" />
    <glyph glyph-name="uogonek" unicode="&#x173;" horiz-adv-x="642" 
d="M500 -253c-87 0 -129 49 -129 105c0 67 43 104 109 148h-83v126c-25 -75 -74 -137 -167 -137c-111 0 -150 75 -150 174v219h-65v91h234v-296c0 -29 5 -52 20 -67c8 -8 22 -14 41 -14c41 0 75 43 75 100v186h-65v91h234v-382h66v-91h-38l-14 -12c-52 -45 -71 -75 -71 -106
c0 -26 16 -49 57 -49c21 0 40 7 61 18l24 -59c-36 -22 -82 -45 -139 -45z" />
    <glyph glyph-name="Uring" unicode="&#x16e;" horiz-adv-x="753" 
d="M396 -16c-205 0 -300 93 -300 254v324h-81v96h359v-96h-89v-306c0 -121 49 -160 139 -160c44 0 76 11 100 35c27 27 41 74 41 143v288h-82v96h260v-96h-77v-317c0 -143 -80 -261 -270 -261zM416 718c-90 0 -141 56 -141 121s54 123 141 123c88 0 140 -55 140 -121
c0 -65 -54 -123 -140 -123zM417 775c28 0 49 21 49 65c0 45 -23 66 -52 66c-27 0 -49 -21 -49 -65c0 -45 24 -66 52 -66z" />
    <glyph glyph-name="uring" unicode="&#x16f;" horiz-adv-x="642" 
d="M230 -11c-111 0 -150 75 -150 174v219h-65v91h234v-296c0 -29 5 -52 20 -67c8 -8 22 -14 41 -14c41 0 75 43 75 100v186h-65v91h234v-382h66v-91h-223v126c-25 -75 -74 -137 -167 -137zM306 530c-90 0 -141 56 -141 121s54 123 141 123c88 0 140 -55 140 -121
c0 -65 -54 -123 -140 -123zM307 587c28 0 49 21 49 65c0 45 -23 66 -52 66c-27 0 -49 -21 -49 -65c0 -45 24 -66 52 -66z" />
    <glyph glyph-name="Wacute" unicode="&#x1e82;" horiz-adv-x="1098" 
d="M766 564h-72l109 -392h7l104 392h-82v94h265v-96h-77l-170 -566h-183l-103 343l-127 -343h-181l-165 566h-80v96h353v-94h-68l105 -395h7l114 302l-28 93h-67v94h339v-94zM548 724l43 113c24 63 45 110 101 110c41 0 72 -32 72 -66c0 -41 -25 -66 -66 -97l-78 -60h-72z
" />
    <glyph glyph-name="wacute" unicode="&#x1e83;" horiz-adv-x="877" 
d="M621 384h-52l75 -263h4l67 263h-49v89h207v-91h-62l-113 -385h-176l-76 233l-78 -233h-180l-115 385h-60v91h287v-89h-51l71 -264h4l80 236l-9 28h-50v89h276v-89zM433 536l43 113c24 63 45 110 101 110c41 0 72 -32 72 -66c0 -41 -25 -66 -66 -97l-78 -60h-72z" />
    <glyph glyph-name="Wcircumflex" unicode="&#x174;" horiz-adv-x="1098" 
d="M766 564h-72l109 -392h7l104 392h-82v94h265v-96h-77l-170 -566h-183l-103 343l-127 -343h-181l-165 566h-80v96h353v-94h-68l105 -395h7l114 302l-28 93h-67v94h339v-94zM418 724l130 203h98l127 -203h-101l-78 83l-75 -83h-101z" />
    <glyph glyph-name="wcircumflex" unicode="&#x175;" horiz-adv-x="877" 
d="M621 384h-52l75 -263h4l67 263h-49v89h207v-91h-62l-113 -385h-176l-76 233l-78 -233h-180l-115 385h-60v91h287v-89h-51l71 -264h4l80 236l-9 28h-50v89h276v-89zM303 536l130 203h98l127 -203h-101l-78 83l-75 -83h-101z" />
    <glyph glyph-name="Wdieresis" unicode="&#x1e84;" horiz-adv-x="1098" 
d="M766 564h-72l109 -392h7l104 392h-82v94h265v-96h-77l-170 -566h-183l-103 343l-127 -343h-181l-165 566h-80v96h353v-94h-68l105 -395h7l114 302l-28 93h-67v94h339v-94zM491 718c-51 0 -86 35 -86 82c0 48 36 86 86 86c51 0 85 -35 85 -82c0 -48 -35 -86 -85 -86z
M700 718c-51 0 -86 35 -86 82c0 48 36 86 86 86c51 0 85 -35 85 -82c0 -48 -35 -86 -85 -86z" />
    <glyph glyph-name="wdieresis" unicode="&#x1e85;" horiz-adv-x="877" 
d="M621 384h-52l75 -263h4l67 263h-49v89h207v-91h-62l-113 -385h-176l-76 233l-78 -233h-180l-115 385h-60v91h287v-89h-51l71 -264h4l80 236l-9 28h-50v89h276v-89zM376 530c-51 0 -86 35 -86 82c0 48 36 86 86 86c51 0 85 -35 85 -82c0 -48 -35 -86 -85 -86zM585 530
c-51 0 -86 35 -86 82c0 48 36 86 86 86c51 0 85 -35 85 -82c0 -48 -35 -86 -85 -86z" />
    <glyph glyph-name="Wgrave" unicode="&#x1e80;" horiz-adv-x="1098" 
d="M766 564h-72l109 -392h7l104 392h-82v94h265v-96h-77l-170 -566h-183l-103 343l-127 -343h-181l-165 566h-80v96h353v-94h-68l105 -395h7l114 302l-28 93h-67v94h339v-94zM648 724h-72l-78 60c-41 31 -66 56 -66 97c0 34 31 66 72 66c56 0 77 -47 101 -110z" />
    <glyph glyph-name="wgrave" unicode="&#x1e81;" horiz-adv-x="877" 
d="M621 384h-52l75 -263h4l67 263h-49v89h207v-91h-62l-113 -385h-176l-76 233l-78 -233h-180l-115 385h-60v91h287v-89h-51l71 -264h4l80 236l-9 28h-50v89h276v-89zM533 536h-72l-78 60c-41 31 -66 56 -66 97c0 34 31 66 72 66c56 0 77 -47 101 -110z" />
    <glyph glyph-name="Yacute" unicode="&#xdd;" horiz-adv-x="689" 
d="M401 372l114 192h-76v94h263v-96h-71l-185 -288v-178h84v-96h-357v96h84v164l-194 302h-63v96h356v-94h-68zM333 724l43 113c24 63 45 110 101 110c41 0 72 -32 72 -66c0 -41 -25 -66 -66 -97l-78 -60h-72z" />
    <glyph glyph-name="yacute" unicode="&#xfd;" horiz-adv-x="587" 
d="M96 30c56 0 82 -45 82 -88c0 -14 -3 -28 -9 -40c42 3 67 21 95 85l-202 395h-61v91h315v-91h-68l105 -226l86 226h-57v91h209v-91h-56l-160 -368c-43 -100 -94 -191 -220 -191c-95 0 -143 49 -143 115c0 53 33 92 84 92zM268 536l43 113c24 63 45 110 101 110
c41 0 72 -32 72 -66c0 -41 -25 -66 -66 -97l-78 -60h-72z" />
    <glyph glyph-name="Ycircumflex" unicode="&#x176;" horiz-adv-x="689" 
d="M401 372l114 192h-76v94h263v-96h-71l-185 -288v-178h84v-96h-357v96h84v164l-194 302h-63v96h356v-94h-68zM203 724l130 203h98l127 -203h-101l-78 83l-75 -83h-101z" />
    <glyph glyph-name="ycircumflex" unicode="&#x177;" horiz-adv-x="587" 
d="M96 30c56 0 82 -45 82 -88c0 -14 -3 -28 -9 -40c42 3 67 21 95 85l-202 395h-61v91h315v-91h-68l105 -226l86 226h-57v91h209v-91h-56l-160 -368c-43 -100 -94 -191 -220 -191c-95 0 -143 49 -143 115c0 53 33 92 84 92zM138 536l130 203h98l127 -203h-101l-78 83
l-75 -83h-101z" />
    <glyph glyph-name="Ydieresis" unicode="&#x178;" horiz-adv-x="689" 
d="M401 372l114 192h-76v94h263v-96h-71l-185 -288v-178h84v-96h-357v96h84v164l-194 302h-63v96h356v-94h-68zM485 718c-51 0 -86 35 -86 82c0 48 36 86 86 86c51 0 85 -35 85 -82c0 -48 -35 -86 -85 -86zM276 718c-51 0 -86 35 -86 82c0 48 36 86 86 86
c51 0 85 -35 85 -82c0 -48 -35 -86 -85 -86z" />
    <glyph glyph-name="ydieresis" unicode="&#xff;" horiz-adv-x="587" 
d="M96 30c56 0 82 -45 82 -88c0 -14 -3 -28 -9 -40c42 3 67 21 95 85l-202 395h-61v91h315v-91h-68l105 -226l86 226h-57v91h209v-91h-56l-160 -368c-43 -100 -94 -191 -220 -191c-95 0 -143 49 -143 115c0 53 33 92 84 92zM211 530c-51 0 -86 35 -86 82c0 48 36 86 86 86
c51 0 85 -35 85 -82c0 -48 -35 -86 -85 -86zM420 530c-51 0 -86 35 -86 82c0 48 36 86 86 86c51 0 85 -35 85 -82c0 -48 -35 -86 -85 -86z" />
    <glyph glyph-name="Ygrave" unicode="&#x1ef2;" horiz-adv-x="689" 
d="M401 372l114 192h-76v94h263v-96h-71l-185 -288v-178h84v-96h-357v96h84v164l-194 302h-63v96h356v-94h-68zM433 724h-72l-78 60c-41 31 -66 56 -66 97c0 34 31 66 72 66c56 0 77 -47 101 -110z" />
    <glyph glyph-name="ygrave" unicode="&#x1ef3;" horiz-adv-x="587" 
d="M96 30c56 0 82 -45 82 -88c0 -14 -3 -28 -9 -40c42 3 67 21 95 85l-202 395h-61v91h315v-91h-68l105 -226l86 226h-57v91h209v-91h-56l-160 -368c-43 -100 -94 -191 -220 -191c-95 0 -143 49 -143 115c0 53 33 92 84 92zM368 536h-72l-78 60c-41 31 -66 56 -66 97
c0 34 31 66 72 66c56 0 77 -47 101 -110z" />
    <glyph glyph-name="Zacute" unicode="&#x179;" horiz-adv-x="666" 
d="M22 0v91l389 474h-144c-78 0 -95 -21 -135 -180h-91v273h590v-91l-391 -474h167c78 0 95 21 136 190h91v-283h-612zM298 724l43 113c24 63 45 110 101 110c41 0 72 -32 72 -66c0 -41 -25 -66 -66 -97l-78 -60h-72z" />
    <glyph glyph-name="zacute" unicode="&#x17a;" horiz-adv-x="511" 
d="M25 0v76l269 322h-75c-58 0 -80 -7 -110 -122h-75v197h446v-76l-270 -322h88c57 0 80 7 111 129h75v-204h-459zM213 536l43 113c24 63 45 110 101 110c41 0 72 -32 72 -66c0 -41 -25 -66 -66 -97l-78 -60h-72z" />
    <glyph glyph-name="Zcaron" unicode="&#x17d;" horiz-adv-x="666" 
d="M22 0v91l389 474h-144c-78 0 -95 -21 -135 -180h-91v273h590v-91l-391 -474h167c78 0 95 21 136 190h91v-283h-612zM295 724l-127 203h101l78 -83l75 83h101l-130 -203h-98z" />
    <glyph glyph-name="zcaron" unicode="&#x17e;" horiz-adv-x="511" 
d="M25 0v76l269 322h-75c-58 0 -80 -7 -110 -122h-75v197h446v-76l-270 -322h88c57 0 80 7 111 129h75v-204h-459zM210 536l-127 203h101l78 -83l75 83h101l-130 -203h-98z" />
    <glyph glyph-name="Zdotaccent" unicode="&#x17b;" horiz-adv-x="666" 
d="M22 0v91l389 474h-144c-78 0 -95 -21 -135 -180h-91v273h590v-91l-391 -474h167c78 0 95 21 136 190h91v-283h-612zM345 718c-57 0 -95 37 -95 86c0 50 39 90 95 90c57 0 95 -37 95 -86c0 -50 -39 -90 -95 -90z" />
    <glyph glyph-name="zdotaccent" unicode="&#x17c;" horiz-adv-x="511" 
d="M25 0v76l269 322h-75c-58 0 -80 -7 -110 -122h-75v197h446v-76l-270 -322h88c57 0 80 7 111 129h75v-204h-459zM260 530c-57 0 -95 37 -95 86c0 50 39 90 95 90c57 0 95 -37 95 -86c0 -50 -39 -90 -95 -90z" />
    <glyph glyph-name="schwa" unicode="&#x259;" horiz-adv-x="545" 
d="M265 -11c-167 0 -246 107 -237 272h319c-7 107 -48 135 -117 135c-55 0 -88 -23 -106 -80h-90c15 98 78 168 222 168c162 0 264 -95 264 -243c0 -145 -109 -252 -255 -252zM267 63c45 0 74 30 80 129h-156c4 -100 29 -129 76 -129z" />
    <glyph glyph-name="germandbls" unicode="&#xdf;" horiz-adv-x="676" 
d="M471 -8c-108 0 -161 39 -161 99c0 39 27 73 71 73c49 0 76 -33 76 -76c0 -16 -3 -30 -7 -39c8 -3 17 -5 25 -5c36 0 54 19 54 54c0 52 -43 76 -89 100c-65 34 -112 63 -112 128c0 41 22 72 45 104c27 37 56 77 56 133c0 48 -30 76 -76 76c-51 0 -86 -30 -86 -117v-522
h-235v91h66v291h-83v86h86v4c0 153 111 227 263 227c147 0 223 -57 223 -128c0 -57 -45 -83 -85 -105c-39 -22 -59 -34 -59 -61c0 -30 38 -51 83 -77c64 -35 140 -80 140 -173c0 -91 -71 -163 -195 -163z" />
    <glyph glyph-name="zero" unicode="0" horiz-adv-x="626" 
d="M313 -16c-161 0 -277 117 -277 330c0 214 119 336 277 336c161 0 277 -117 277 -330c0 -216 -118 -336 -277 -336zM316 67c54 0 84 59 84 251s-35 249 -90 249c-54 0 -84 -59 -84 -251s35 -249 90 -249z" />
    <glyph glyph-name="one" unicode="1" horiz-adv-x="495" 
d="M40 0v91h132v388c-12 -3 -30 -5 -51 -5c-30 0 -62 5 -86 12v78c97 -4 174 24 210 79h106v-552h127v-91h-438z" />
    <glyph glyph-name="two" unicode="2" horiz-adv-x="580" 
d="M28 95c0 108 106 165 166 204c83 55 140 93 140 176c0 64 -32 100 -88 100c-39 0 -71 -16 -87 -44c36 -12 56 -41 56 -77c0 -44 -30 -82 -87 -82c-55 0 -93 42 -93 102c0 88 93 176 246 176c162 0 255 -76 255 -184c0 -125 -115 -165 -212 -200
c-96 -37 -180 -60 -206 -132l5 -4c32 26 71 44 128 44c72 0 118 -30 169 -30c36 0 48 21 61 80l63 -5c-5 -175 -53 -235 -136 -235c-123 0 -154 114 -220 114c-7 0 -13 -1 -19 -2c8 -6 19 -23 19 -46c0 -36 -25 -67 -70 -67c-52 0 -90 43 -90 112z" />
    <glyph glyph-name="three" unicode="3" horiz-adv-x="562" 
d="M271 -16c-163 0 -256 67 -256 152c0 58 37 92 92 92c59 0 88 -34 88 -75c0 -31 -20 -58 -49 -70c10 -10 50 -19 97 -19c55 0 101 29 101 101c0 79 -33 109 -147 109h-29v89h29c102 0 137 31 137 112c0 63 -31 95 -100 95c-28 0 -58 -7 -72 -15c28 -12 47 -39 47 -69
c0 -42 -28 -76 -87 -76c-56 0 -93 34 -93 89c0 85 96 151 247 151c167 0 254 -76 254 -165s-57 -138 -193 -156v-5c142 -18 203 -69 203 -154c0 -107 -101 -186 -269 -186z" />
    <glyph glyph-name="four" unicode="4" horiz-adv-x="612" 
d="M320 273v251h-6l-195 -251h201zM485 94h91v-94h-361v94h105v85h-307v93l299 373h173v-372h116v-94h-116v-85z" />
    <glyph glyph-name="five" unicode="5" horiz-adv-x="568" 
d="M158 495l-12 -153c46 36 104 54 162 54c169 0 232 -91 232 -193c0 -116 -86 -219 -263 -219c-148 0 -244 51 -244 139c0 54 36 95 95 95c55 0 82 -37 82 -73c0 -31 -15 -57 -39 -72c15 -8 42 -14 67 -14c67 0 106 45 106 124c0 86 -37 120 -107 120
c-30 0 -73 -15 -103 -39l-72 22l23 334l29 26c66 -22 154 -32 218 -32c74 0 116 12 169 38l30 -53c-47 -94 -122 -132 -212 -132c-69 0 -118 12 -161 28z" />
    <glyph glyph-name="six" unicode="6" horiz-adv-x="601" 
d="M226 332c26 38 83 63 143 63c115 0 202 -71 202 -195c0 -114 -89 -216 -252 -216c-186 0 -280 142 -280 313c0 213 117 353 317 353c129 0 198 -61 198 -134c0 -52 -36 -91 -91 -91c-60 0 -88 37 -88 79c0 26 11 49 28 62c-8 6 -25 12 -47 12c-91 0 -130 -64 -130 -246z
M229 197c0 -106 43 -139 89 -139c42 0 70 33 70 120c0 109 -32 139 -80 139s-79 -38 -79 -120z" />
    <glyph glyph-name="seven" unicode="7" horiz-adv-x="565" 
d="M341 84c-9 -55 -34 -100 -95 -100c-65 0 -102 37 -102 86c0 94 60 157 257 362l44 46l-6 6c-38 -28 -72 -37 -104 -37c-54 0 -103 34 -145 34c-33 0 -52 -21 -68 -102h-90v264h96l11 -87h8c19 65 52 94 95 94c83 0 110 -107 166 -107c4 0 7 1 9 2c-5 6 -11 22 -11 35
c0 43 27 70 76 70c48 0 79 -34 79 -75c0 -46 -30 -79 -59 -111c-56 -62 -125 -155 -161 -380z" />
    <glyph glyph-name="eight" unicode="8" horiz-adv-x="590" 
d="M49 447c0 112 100 203 251 203c163 0 237 -75 237 -152c0 -68 -54 -115 -130 -134c76 -27 149 -72 149 -169c0 -120 -103 -211 -264 -211c-169 0 -252 81 -252 164c0 69 56 116 137 135c-70 27 -128 70 -128 164zM402 135c0 66 -80 94 -187 124c-31 -33 -43 -67 -43 -103
c0 -58 42 -99 126 -99c64 0 104 30 104 78zM204 505c0 -62 61 -88 161 -116c27 30 39 60 39 94c0 49 -39 94 -111 94c-55 0 -89 -32 -89 -72z" />
    <glyph glyph-name="nine" unicode="9" horiz-adv-x="601" 
d="M375 294c-26 -38 -83 -63 -143 -63c-115 0 -202 71 -202 199c0 118 89 220 252 220c186 0 280 -142 280 -313c0 -213 -117 -353 -317 -353c-137 0 -206 61 -206 135c0 53 36 92 91 92c60 0 88 -37 88 -79c0 -26 -11 -49 -28 -62c16 -8 35 -14 55 -14c89 0 130 61 130 238
zM372 433c0 110 -43 143 -89 143c-42 0 -70 -33 -70 -124c0 -113 32 -143 80 -143s79 38 79 124z" />
    <glyph glyph-name="period" unicode="." horiz-adv-x="267" 
d="M133 -17c-56 0 -99 43 -99 98c0 56 43 100 101 100c56 0 99 -43 99 -98c0 -56 -43 -100 -101 -100z" />
    <glyph glyph-name="comma" unicode="," horiz-adv-x="267" 
d="M35 -173l-24 54c85 35 133 77 144 136l-8 4c-9 -13 -23 -22 -45 -22c-41 0 -69 31 -69 80c0 55 38 102 96 102c66 0 110 -49 110 -131c0 -106 -75 -188 -204 -223z" />
    <glyph glyph-name="colon" unicode=":" horiz-adv-x="283" 
d="M141 266c-56 0 -99 43 -99 98c0 56 43 100 101 100c56 0 99 -43 99 -98c0 -56 -43 -100 -101 -100zM141 -17c-56 0 -99 43 -99 98c0 56 43 100 101 100c56 0 99 -43 99 -98c0 -56 -43 -100 -101 -100z" />
    <glyph glyph-name="semicolon" unicode=";" horiz-adv-x="283" 
d="M141 266c-56 0 -99 43 -99 98c0 56 43 100 101 100c56 0 99 -43 99 -98c0 -56 -43 -100 -101 -100zM43 -173l-24 54c85 35 133 77 144 136l-8 4c-9 -13 -23 -22 -45 -22c-41 0 -69 31 -69 80c0 55 38 102 96 102c66 0 110 -49 110 -131c0 -106 -75 -188 -204 -223z" />
    <glyph glyph-name="ellipsis" unicode="&#x2026;" horiz-adv-x="790" 
d="M657 -17c-55 0 -97 42 -97 96c0 55 42 99 99 99c55 0 97 -43 97 -97c0 -55 -42 -98 -99 -98zM394 -17c-55 0 -97 42 -97 96c0 55 42 99 99 99c55 0 97 -43 97 -97c0 -55 -42 -98 -99 -98zM131 -17c-55 0 -97 42 -97 96c0 55 42 99 99 99c55 0 97 -43 97 -97
c0 -55 -42 -98 -99 -98z" />
    <glyph glyph-name="periodcentered" unicode="&#xb7;" horiz-adv-x="277" 
d="M138 224c-56 0 -99 43 -99 98c0 56 43 100 101 100c56 0 99 -43 99 -98c0 -56 -43 -100 -101 -100z" />
    <glyph glyph-name="bullet" unicode="&#x2022;" horiz-adv-x="490" 
d="M245 163c-89 0 -161 71 -161 160s72 161 161 161s161 -72 161 -161s-72 -160 -161 -160z" />
    <glyph glyph-name="ampersand" unicode="&#x26;" horiz-adv-x="756" 
d="M507 392h226v-95h-69c-33 -57 -75 -111 -112 -148c31 -40 46 -50 69 -50c25 0 38 16 51 65l61 -16c-18 -90 -56 -164 -157 -164c-66 0 -105 20 -152 76c-53 -52 -115 -76 -189 -76c-127 0 -213 70 -213 179c0 98 75 144 151 172c-50 49 -72 82 -72 141
c0 83 81 164 209 164c124 0 184 -75 184 -142c0 -78 -58 -110 -129 -137c55 -53 96 -99 139 -156c26 29 49 62 68 94h-65v93zM294 85c27 0 56 7 86 25c-55 71 -115 135 -162 181c-21 -23 -33 -54 -33 -98c0 -68 41 -108 109 -108zM250 514c0 -40 24 -68 72 -113
c34 27 47 57 47 97c0 41 -20 72 -63 72c-31 0 -56 -22 -56 -56z" />
    <glyph glyph-name="exclam" unicode="!" horiz-adv-x="310" 
d="M155 684c66 0 101 -40 101 -97c0 -29 -8 -76 -20 -135c-13 -65 -29 -144 -43 -232h-76c-14 88 -30 167 -43 232c-12 59 -20 106 -20 135c0 57 35 97 101 97zM154 -17c-56 0 -99 42 -99 95c0 54 43 97 101 97c56 0 99 -42 99 -95c0 -54 -43 -97 -101 -97z" />
    <glyph glyph-name="exclamdown" unicode="&#xa1;" horiz-adv-x="310" 
d="M155 -17c-66 0 -101 40 -101 97c0 29 8 76 20 135c13 65 29 144 43 232h76c14 -88 30 -167 43 -232c12 -59 20 -106 20 -135c0 -57 -35 -97 -101 -97zM156 684c56 0 99 -42 99 -95c0 -54 -43 -97 -101 -97c-56 0 -99 42 -99 95c0 54 43 97 101 97z" />
    <glyph glyph-name="question" unicode="?" horiz-adv-x="512" 
d="M188 230c-1 74 24 117 54 162c28 42 48 70 48 120c0 60 -28 92 -86 92c-33 0 -62 -11 -74 -29c38 -11 62 -39 62 -78c0 -44 -30 -81 -86 -81c-54 0 -92 37 -92 98c0 91 84 170 233 170c147 0 237 -79 237 -180c0 -84 -47 -122 -93 -150c-53 -32 -100 -61 -121 -124h-82z
M229 -17c-56 0 -99 42 -99 95c0 54 43 97 101 97c56 0 99 -42 99 -95c0 -54 -43 -97 -101 -97z" />
    <glyph glyph-name="questiondown" unicode="&#xbf;" horiz-adv-x="512" 
d="M324 437c1 -74 -24 -117 -54 -162c-28 -42 -48 -70 -48 -120c0 -60 28 -92 86 -92c33 0 62 11 74 29c-38 11 -62 39 -62 78c0 44 30 81 86 81c54 0 92 -37 92 -98c0 -91 -84 -170 -233 -170c-147 0 -237 79 -237 180c0 84 47 122 93 150c53 32 100 61 121 124h82z
M283 684c56 0 99 -42 99 -95c0 -54 -43 -97 -101 -97c-56 0 -99 42 -99 95c0 54 43 97 101 97z" />
    <glyph glyph-name="quotedblleft" unicode="&#x201c;" horiz-adv-x="508" 
d="M375 328c-66 0 -110 49 -110 131c0 106 75 188 204 223l24 -54c-85 -35 -133 -77 -144 -136l8 -4c9 13 23 22 45 22c41 0 69 -31 69 -80c0 -55 -38 -102 -96 -102zM134 328c-66 0 -110 49 -110 131c0 106 75 188 204 223l24 -54c-85 -35 -133 -77 -144 -136l8 -4
c9 13 23 22 45 22c41 0 69 -31 69 -80c0 -55 -38 -102 -96 -102z" />
    <glyph glyph-name="quotedblright" unicode="&#x201d;" horiz-adv-x="508" 
d="M280 320l-24 54c85 35 133 77 144 136l-8 4c-9 -13 -23 -22 -45 -22c-41 0 -69 31 -69 80c0 55 38 102 96 102c66 0 110 -49 110 -131c0 -106 -75 -188 -204 -223zM39 320l-24 54c85 35 133 77 144 136l-8 4c-9 -13 -23 -22 -45 -22c-41 0 -69 31 -69 80
c0 55 38 102 96 102c66 0 110 -49 110 -131c0 -106 -75 -188 -204 -223z" />
    <glyph glyph-name="quoteleft" unicode="&#x2018;" horiz-adv-x="267" 
d="M134 328c-66 0 -110 49 -110 131c0 106 75 188 204 223l24 -54c-85 -35 -133 -77 -144 -136l8 -4c9 13 23 22 45 22c41 0 69 -31 69 -80c0 -55 -38 -102 -96 -102z" />
    <glyph glyph-name="quoteright" unicode="&#x2019;" horiz-adv-x="267" 
d="M39 320l-24 54c85 35 133 77 144 136l-8 4c-9 -13 -23 -22 -45 -22c-41 0 -69 31 -69 80c0 55 38 102 96 102c66 0 110 -49 110 -131c0 -106 -75 -188 -204 -223z" />
    <glyph glyph-name="quotedblbase" unicode="&#x201e;" horiz-adv-x="508" 
d="M280 -173l-24 54c85 35 133 77 144 136l-8 4c-9 -13 -23 -22 -45 -22c-41 0 -69 31 -69 80c0 55 38 102 96 102c66 0 110 -49 110 -131c0 -106 -75 -188 -204 -223zM39 -173l-24 54c85 35 133 77 144 136l-8 4c-9 -13 -23 -22 -45 -22c-41 0 -69 31 -69 80
c0 55 38 102 96 102c66 0 110 -49 110 -131c0 -106 -75 -188 -204 -223z" />
    <glyph glyph-name="quotesinglbase" unicode="&#x201a;" horiz-adv-x="267" 
d="M39 -173l-24 54c85 35 133 77 144 136l-8 4c-9 -13 -23 -22 -45 -22c-41 0 -69 31 -69 80c0 55 38 102 96 102c66 0 110 -49 110 -131c0 -106 -75 -188 -204 -223z" />
    <glyph glyph-name="guillemotleft" unicode="&#xab;" horiz-adv-x="530" 
d="M170 231l102 -165l-42 -34l-190 158c-17 14 -23 30 -23 39s6 25 23 39l190 157l42 -34zM392 231l103 -165l-43 -34l-190 158c-17 14 -23 30 -23 39s6 25 23 39l190 157l43 -34z" />
    <glyph glyph-name="guillemotright" unicode="&#xbb;" horiz-adv-x="530" 
d="M360 226l-102 165l42 34l190 -158c17 -14 23 -30 23 -39s-6 -25 -23 -39l-190 -157l-42 34zM138 226l-103 165l43 34l190 -158c17 -14 23 -30 23 -39s-6 -25 -23 -39l-190 -157l-43 34z" />
    <glyph glyph-name="guilsinglleft" unicode="&#x2039;" horiz-adv-x="315" 
d="M175 231l105 -162l-42 -37l-198 157c-18 14 -23 31 -23 40s5 26 23 40l198 157l42 -37z" />
    <glyph glyph-name="guilsinglright" unicode="&#x203a;" horiz-adv-x="315" 
d="M140 227l-105 162l42 37l198 -157c18 -14 23 -31 23 -40s-5 -26 -23 -40l-198 -157l-42 37z" />
    <glyph glyph-name="hyphen" unicode="-" horiz-adv-x="351" 
d="M45 200v109h261v-109h-261z" />
    <glyph glyph-name="endash" unicode="&#x2013;" horiz-adv-x="525" 
d="M45 201v101h435v-101h-435z" />
    <glyph glyph-name="emdash" unicode="&#x2014;" horiz-adv-x="775" 
d="M45 201v101h685v-101h-685z" />
    <glyph glyph-name="underscore" unicode="_" horiz-adv-x="450" 
d="M-2 0v96h454v-96h-454z" />
    <glyph glyph-name="slash" unicode="/" horiz-adv-x="425" 
d="M-67 -203l390 917h109l-390 -917h-109z" />
    <glyph glyph-name="backslash" unicode="\" horiz-adv-x="425" 
d="M384 -203l-390 917h109l390 -917h-109z" />
    <glyph glyph-name="bar" unicode="|" horiz-adv-x="291" 
d="M95 -203v917h101v-917h-101z" />
    <glyph glyph-name="parenleft" unicode="(" horiz-adv-x="401" 
d="M374 -162c-192 70 -319 241 -319 439c0 203 128 380 319 449l36 -64c-108 -80 -186 -203 -186 -375c0 -177 78 -305 186 -385z" />
    <glyph glyph-name="parenright" unicode=")" horiz-adv-x="401" 
d="M27 726c192 -70 319 -241 319 -439c0 -203 -128 -380 -319 -449l-36 64c108 80 186 203 186 375c0 177 -78 305 -186 385z" />
    <glyph glyph-name="bracketleft" unicode="[" horiz-adv-x="376" 
d="M75 -161v887h306v-84h-151v-718h151v-85h-306z" />
    <glyph glyph-name="bracketright" unicode="]" horiz-adv-x="376" 
d="M301 726v-887h-306v85h151v718h-151v84h306z" />
    <glyph glyph-name="braceleft" unicode="{" horiz-adv-x="401" 
d="M19 332h25c89 0 116 30 116 83c0 39 -14 99 -14 147c0 107 80 163 264 164v-84c-88 -9 -106 -30 -106 -96c0 -38 6 -88 6 -124c0 -95 -41 -119 -164 -135v-9c123 -16 164 -40 164 -135c0 -36 -6 -86 -6 -124c0 -66 18 -87 106 -96v-84c-184 1 -264 57 -264 164
c0 48 14 108 14 147c0 53 -27 83 -116 83h-25v99z" />
    <glyph glyph-name="braceright" unicode="}" horiz-adv-x="401" 
d="M382 233h-25c-89 0 -116 -30 -116 -83c0 -39 14 -99 14 -147c0 -107 -80 -163 -264 -164v84c88 9 106 30 106 96c0 38 -6 88 -6 124c0 95 41 119 164 135v9c-123 16 -164 40 -164 135c0 36 6 86 6 124c0 66 -18 87 -106 96v84c184 -1 264 -57 264 -164
c0 -48 -14 -108 -14 -147c0 -53 27 -83 116 -83h25v-99z" />
    <glyph glyph-name="at" unicode="@" horiz-adv-x="898" 
d="M467 -155c-253 0 -430 150 -430 397c0 263 203 449 453 449c219 0 382 -132 382 -348c0 -188 -112 -292 -231 -292c-76 0 -143 31 -141 112l-9 4c-34 -76 -80 -111 -133 -111c-95 0 -133 69 -133 151c0 83 36 175 83 222c37 37 71 53 121 53c55 0 92 -40 103 -84l20 75
h141l-71 -253c-17 -62 -6 -93 50 -93c67 0 132 100 132 215c0 179 -133 292 -317 292c-214 0 -382 -164 -382 -388c0 -212 148 -344 364 -344c103 0 179 28 251 76l30 -49c-80 -53 -168 -84 -283 -84zM416 149c62 0 105 122 105 188c0 40 -17 66 -50 66
c-66 0 -98 -142 -98 -192c0 -40 13 -62 43 -62z" />
    <glyph glyph-name="copyright" unicode="&#xa9;" horiz-adv-x="787" 
d="M393 -35c-212 0 -369 151 -369 363s157 364 369 364s369 -152 369 -364s-157 -363 -369 -363zM393 19c182 0 303 127 303 309s-121 310 -303 310s-303 -128 -303 -310s121 -309 303 -309zM403 140c-117 0 -192 72 -192 186c0 118 82 194 177 194c47 0 82 -15 104 -43
l12 42h55v-145h-63c-21 67 -49 97 -94 97c-48 0 -79 -36 -79 -138c0 -99 36 -135 94 -135c50 0 78 36 88 96h59c-9 -92 -58 -154 -161 -154z" />
    <glyph glyph-name="published" unicode="&#x2117;" horiz-adv-x="787" 
d="M393 -35c-212 0 -369 151 -369 363s157 364 369 364s369 -152 369 -364s-157 -363 -369 -363zM393 19c182 0 303 127 303 309s-121 310 -303 310s-303 -128 -303 -310s121 -309 303 -309zM242 144v53h45v256h-45v53h190c114 0 160 -44 160 -113c0 -67 -48 -113 -160 -113
h-41v-83h48v-53h-197zM391 332h32c45 0 60 17 60 62s-13 62 -60 62h-32v-124z" />
    <glyph glyph-name="registered.alt" horiz-adv-x="787" 
d="M393 -35c-212 0 -369 151 -369 363s157 364 369 364s369 -152 369 -364s-157 -363 -369 -363zM393 19c182 0 303 127 303 309s-121 310 -303 310s-303 -128 -303 -310s121 -309 303 -309zM362 303v-100h48v-53h-196v53h44v256h-44v53h208c109 0 149 -45 149 -93
s-30 -83 -121 -92v-3c74 -4 97 -32 101 -79l1 -12c2 -25 6 -30 17 -30c8 0 14 8 21 36l36 -9c-10 -50 -32 -88 -90 -88c-68 0 -90 36 -90 100v8c0 38 -10 53 -46 53h-38zM362 353h43c37 0 56 12 56 54c0 39 -10 55 -56 55h-43v-109z" />
    <glyph glyph-name="registered" unicode="&#xae;" horiz-adv-x="500" 
d="M250 247c-130 0 -225 92 -225 221s95 222 225 222c129 0 225 -93 225 -222s-96 -221 -225 -221zM250 286c108 0 179 74 179 182s-71 183 -179 183s-179 -75 -179 -183s71 -182 179 -182zM231 453v-61h29v-32h-119v32h27v156h-27v32h127c66 0 90 -28 90 -57
s-18 -50 -73 -56v-1c45 -3 57 -20 61 -48l1 -8c2 -15 3 -18 10 -18c5 0 8 5 13 22l22 -6c-6 -30 -20 -53 -55 -53c-41 0 -55 22 -55 61v5c0 23 -6 32 -28 32h-23zM231 483h26c23 0 34 7 34 33c0 24 -6 33 -34 33h-26v-66z" />
    <glyph glyph-name="servicemark" unicode="&#x2120;" horiz-adv-x="872" 
d="M40 335v116h54c19 -45 52 -72 101 -72c27 0 43 14 43 34c0 23 -23 31 -77 43c-60 13 -118 37 -118 105c0 64 54 104 120 104c42 0 73 -15 91 -37l11 36h51v-111h-53c-18 43 -47 66 -85 66c-29 0 -44 -15 -44 -32c0 -24 26 -33 78 -45c57 -13 118 -36 118 -104
c0 -64 -50 -104 -125 -104c-47 0 -84 18 -103 40l-11 -39h-51zM361 341v55h41v207h-41v55h191l48 -158h7l43 158h185v-55h-43v-207h43v-55h-184v54h40v206h-7l-82 -260h-52l-86 260h-7v-206h40v-54h-136z" />
    <glyph glyph-name="trademark" unicode="&#x2122;" horiz-adv-x="904" 
d="M393 341v55h41v207h-41v55h191l48 -158h7l43 158h185v-55h-43v-207h43v-55h-184v54h40v206h-7l-82 -260h-52l-86 260h-7v-206h40v-54h-136zM91 341v55h54v215h-10c-31 0 -40 -14 -60 -93h-49v140h339v-140h-49c-20 79 -29 93 -60 93h-10v-215h54v-55h-209z" />
    <glyph glyph-name="asterisk" unicode="*" horiz-adv-x="427" 
d="M205 346c-9 27 -4 65 5 120l-13 4c-25 -51 -44 -85 -66 -101c-27 -19 -58 -13 -78 14c-21 28 -16 59 11 78c22 16 60 25 116 32v15c-56 7 -94 16 -116 32c-27 19 -32 50 -11 78c20 27 51 33 78 14c22 -16 41 -50 66 -102l13 4c-9 56 -14 95 -5 122c10 31 38 45 71 34
s47 -38 37 -70c-8 -25 -34 -55 -76 -94l8 -11c50 27 86 43 114 43c33 0 55 -22 55 -57s-22 -57 -55 -57c-28 0 -63 16 -113 43l-8 -11c41 -39 67 -69 75 -94c10 -32 -4 -59 -37 -70s-61 3 -71 34z" />
    <glyph glyph-name="dagger" unicode="&#x2020;" horiz-adv-x="549" 
d="M252 407c-52 19 -82 24 -99 24c-5 0 -8 0 -11 -1c7 -11 11 -24 11 -37c0 -32 -23 -65 -69 -65c-38 0 -71 24 -71 71c0 54 41 96 106 96c39 0 82 -9 129 -31l-50 171l7 17c11 26 36 51 69 51c34 0 59 -25 70 -51l7 -17l-57 -193c54 -19 85 -25 102 -25c5 0 8 0 11 1
c-7 11 -11 24 -11 37c0 32 23 65 69 65c38 0 71 -24 71 -71c0 -54 -41 -96 -106 -96c-39 0 -83 9 -130 32l43 -283v-137c0 -37 -55 -79 -68 -79c-14 0 -69 42 -69 79v137z" />
    <glyph glyph-name="daggerdbl" unicode="&#x2021;" horiz-adv-x="549" 
d="M247 471l-49 166l7 16c11 25 36 50 69 50c34 0 59 -25 70 -50l7 -16l-56 -188c53 -19 84 -25 101 -25c5 0 8 0 11 1c-7 11 -11 24 -11 37c0 32 23 65 69 65c38 0 71 -24 71 -71c0 -54 -41 -96 -106 -96c-38 0 -80 8 -126 30l33 -103l-36 -112c49 -18 79 -23 95 -23
c5 0 8 0 11 1c-7 11 -11 24 -11 37c0 32 23 65 69 65c38 0 71 -24 71 -71c0 -54 -41 -96 -106 -96c-39 0 -82 8 -128 31l49 -166l-7 -16c-11 -25 -36 -50 -69 -50c-34 0 -59 25 -70 50l-7 16l56 188c-53 19 -84 25 -101 25c-5 0 -8 0 -11 -1c7 -11 11 -24 11 -37
c0 -32 -23 -65 -69 -65c-38 0 -71 24 -71 71c0 54 41 96 106 96c38 0 80 -8 126 -30l-34 103l37 112c-49 18 -79 23 -95 23c-5 0 -8 0 -11 -1c7 -11 11 -24 11 -37c0 -32 -23 -65 -69 -65c-38 0 -71 24 -71 71c0 54 41 96 106 96c39 0 82 -8 128 -31z" />
    <glyph glyph-name="asciicircum" unicode="^" horiz-adv-x="389" 
d="M9 480l137 237h99l135 -237h-100l-86 109l-85 -109h-100z" />
    <glyph glyph-name="asciitilde" unicode="~" horiz-adv-x="431" 
d="M31 235c7 114 34 177 118 177c62 0 103 -48 144 -48c18 0 26 13 33 52h74c-7 -114 -34 -177 -118 -177c-62 0 -103 48 -144 48c-18 0 -26 -13 -33 -52h-74z" />
    <glyph glyph-name="dollar" unicode="$" horiz-adv-x="559" 
d="M328 -85h-84v85c-170 8 -232 74 -232 139c0 46 35 81 82 81c43 0 78 -31 78 -74c0 -22 -9 -43 -24 -57c24 -11 59 -20 97 -24v188c-133 33 -217 65 -217 180c0 112 87 187 216 201v78h84v-76c169 -10 210 -84 210 -134c0 -48 -33 -82 -78 -82c-50 0 -82 29 -82 74
c0 23 10 45 25 58c-13 9 -42 17 -76 20v-179c132 -33 214 -71 214 -187c0 -110 -79 -188 -213 -203v-88zM169 492c0 -45 27 -65 79 -80v160c-56 -9 -79 -39 -79 -80zM400 153c0 39 -31 62 -76 79v-165c60 11 76 44 76 86z" />
    <glyph glyph-name="sterling" unicode="&#xa3;" horiz-adv-x="640" 
d="M501 264h-136c-2 -39 -15 -68 -42 -100c83 -26 113 -37 163 -37c38 0 54 24 71 92l63 -5c0 -156 -34 -230 -141 -230c-73 0 -136 38 -213 92c-32 -63 -72 -92 -135 -92c-68 0 -111 38 -111 95c0 66 52 113 148 113c17 0 37 -2 58 -5c-4 28 -14 53 -27 77h-147v87h99
c-13 26 -22 53 -22 84c0 126 112 215 267 215c115 0 201 -58 201 -136c0 -55 -39 -98 -92 -98s-82 39 -82 78c0 31 16 58 40 73c-13 11 -34 19 -73 19c-64 0 -92 -33 -92 -84s29 -100 49 -151h154v-87zM136 47c32 0 58 16 81 59c-25 11 -50 16 -68 16c-29 0 -51 -14 -51 -40
c0 -20 12 -35 38 -35z" />
    <glyph glyph-name="Euro" unicode="&#x20ac;" horiz-adv-x="677" 
d="M27 340v85h89c37 136 142 225 305 225c125 0 221 -73 221 -161c0 -54 -33 -94 -91 -94c-54 0 -86 36 -86 80c0 32 18 55 38 67c-18 14 -46 23 -83 23c-70 0 -113 -33 -129 -142h139v-83h-146v-30v-30h146v-83h-138c17 -88 57 -116 126 -116c79 0 114 53 130 139h102
c-19 -148 -94 -236 -254 -236c-162 0 -252 79 -282 211h-87v85h75v29c0 10 0 21 1 31h-76z" />
    <glyph glyph-name="yen" unicode="&#xa5;" horiz-adv-x="640" 
d="M77 353h118l-128 187h-60v94h323v-92h-65l109 -174l100 174h-66v92h238v-94h-70l-121 -187h121v-80h-166v-50h166v-80h-166v-53h83v-90h-333v90h84v53h-167v80h167v50h-167v80z" />
    <glyph glyph-name="cent" unicode="&#xa2;" horiz-adv-x="566" 
d="M328 -103l-87 4l5 92c-142 17 -221 105 -221 235c0 140 99 242 256 254l7 84l87 -4l-7 -82c110 -17 181 -81 181 -157c0 -52 -30 -86 -82 -86c-50 0 -80 32 -80 70c0 35 16 57 39 71c-12 14 -30 28 -70 32l-23 -335c57 0 92 34 112 90h91c-19 -92 -77 -164 -202 -174z
M194 238c0 -87 19 -139 65 -156l22 327c-59 -13 -87 -68 -87 -171z" />
    <glyph glyph-name="numbersign" unicode="#" horiz-adv-x="683" 
d="M187 400h-128v87h144l32 176h97l-32 -176h140l32 176h98l-32 -176h115v-87h-131l-31 -170h128v-87h-144l-33 -183h-97l33 183h-140l-33 -183h-98l33 183h-115v87h131zM427 402h-144l-32 -174h144z" />
    <glyph glyph-name="paragraph" unicode="&#xb6;" horiz-adv-x="652" 
d="M317 -114v273c-166 1 -288 81 -288 232c0 142 108 232 309 232h292v-91h-66v-646h-92v648h-63v-648h-92z" />
    <glyph glyph-name="section" unicode="&#xa7;" horiz-adv-x="545" 
d="M263 -128c-142 0 -224 56 -224 123c0 44 33 78 79 78c48 0 83 -29 83 -70c0 -17 -7 -37 -20 -49c17 -10 52 -18 85 -18c62 0 91 26 91 59c0 49 -51 67 -151 98c-89 27 -184 59 -184 150c0 61 44 110 123 132v7c-50 20 -87 60 -87 113c0 104 110 166 234 166
c130 0 204 -51 204 -114c0 -41 -30 -75 -79 -75s-83 27 -83 69c0 15 4 30 16 43c-14 7 -36 13 -63 13c-62 0 -91 -25 -91 -60c0 -39 48 -56 145 -86c87 -27 182 -59 182 -151c0 -61 -42 -109 -121 -132v-7c53 -21 93 -60 93 -119c0 -109 -107 -170 -232 -170zM346 191
c30 16 40 36 40 58c0 47 -65 68 -140 90l-45 14c-31 -16 -42 -36 -42 -59c0 -47 65 -66 142 -89z" />
    <glyph glyph-name="ordfeminine" unicode="&#xaa;" horiz-adv-x="443" 
d="M128 315c-60 0 -106 34 -106 89c0 18 8 41 22 55c21 21 54 40 145 51c21 3 33 5 38 7v30c0 43 -20 59 -56 59c-12 0 -23 -2 -34 -7c10 -8 16 -20 16 -37c0 -26 -26 -45 -57 -45c-40 0 -60 24 -60 53c0 64 82 92 168 92c111 0 145 -53 145 -122v-134c0 -15 7 -18 15 -18
c7 0 15 7 20 35l42 -10c-12 -70 -41 -98 -97 -98c-46 0 -77 22 -85 71h-4c-23 -53 -60 -71 -112 -71zM183 381c29 0 44 30 44 75v22c-5 -2 -13 -2 -29 -5c-40 -8 -52 -25 -52 -53c0 -21 11 -39 37 -39z" />
    <glyph glyph-name="ordmasculine" unicode="&#xba;" horiz-adv-x="409" 
d="M205 315c-110 0 -188 69 -188 172s82 175 188 175c110 0 187 -69 187 -172s-81 -175 -187 -175zM207 371c37 0 51 30 51 118c0 89 -17 117 -55 117c-37 0 -51 -30 -51 -118c0 -89 17 -117 55 -117z" />
    <glyph glyph-name="degree" unicode="&#xb0;" horiz-adv-x="406" 
d="M204 343c-114 0 -180 71 -180 164s71 167 180 167c112 0 178 -71 178 -164s-70 -167 -178 -167zM206 415c44 0 74 32 74 93c0 62 -33 94 -79 94c-44 0 -74 -32 -74 -93c0 -62 33 -94 79 -94z" />
    <glyph glyph-name="percent" unicode="%" horiz-adv-x="791" 
d="M153 264c-81 0 -144 53 -144 141c0 117 98 230 205 230c43 0 78 -13 101 -36c25 -11 56 -17 97 -17c66 0 118 24 169 70h83l-442 -678h-107l390 573l-3 3c-37 -30 -76 -43 -119 -43c-12 0 -23 0 -32 1v-3c0 -119 -90 -241 -198 -241zM578 -14c-81 0 -144 53 -144 141
c0 117 98 230 205 230c85 0 137 -50 137 -130c0 -119 -90 -241 -198 -241zM601 48c58 0 108 110 108 186c0 35 -17 56 -45 56c-58 0 -109 -110 -109 -182c0 -39 18 -60 46 -60zM176 326c58 0 108 110 108 186c0 3 0 7 -1 10c-25 10 -45 25 -62 42c-50 -19 -91 -114 -91 -178
c0 -39 18 -60 46 -60z" />
    <glyph glyph-name="quotedbl" unicode="&#x22;" horiz-adv-x="457" 
d="M306 377l-57 25l19 119c8 52 13 72 24 100c12 31 37 51 67 51c40 0 79 -28 79 -73c0 -10 -1 -25 -6 -36c-12 -27 -22 -45 -54 -88zM106 377l-57 25l10 114c5 53 8 73 19 102c12 31 38 54 70 54c40 0 79 -28 79 -73c0 -10 -1 -21 -5 -32c-10 -30 -19 -47 -49 -91z" />
    <glyph glyph-name="quotesingle" unicode="'" horiz-adv-x="248" 
d="M103 377l-59 26l15 116c7 53 9 74 20 102c12 30 38 51 70 51c41 0 82 -30 82 -75c0 -11 -2 -21 -6 -32c-10 -28 -23 -46 -53 -89z" />
    <glyph glyph-name="plus" unicode="+" horiz-adv-x="525" 
d="M213 70v172h-169v89h169v169h99v-169h169v-89h-169v-172h-99z" />
    <glyph glyph-name="minus" unicode="&#x2212;" horiz-adv-x="519" 
d="M458 239h-397v95h397v-95z" />
    <glyph glyph-name="divide" unicode="&#xf7;" horiz-adv-x="519" 
d="M261 532c45 0 81 -35 81 -78s-37 -79 -83 -79c-45 0 -81 35 -81 78s37 79 83 79zM480 243h-441v87h441v-87zM261 197c45 0 81 -35 81 -78s-37 -79 -83 -79c-45 0 -81 35 -81 78s37 79 83 79z" />
    <glyph glyph-name="equal" unicode="=" horiz-adv-x="525" 
d="M54 338v97h417v-97h-417zM54 137v97h417v-97h-417z" />
    <glyph glyph-name="multiply" unicode="&#xd7;" horiz-adv-x="520" 
d="M323 286l136 -138l-67 -67l-132 140l-132 -140l-67 67l136 138l-136 138l67 67l132 -140l132 140l67 -67z" />
    <glyph glyph-name="less" unicode="&#x3c;" horiz-adv-x="524" 
d="M453 59l-381 176v102l381 176v-107l-286 -121l286 -121v-105z" />
    <glyph glyph-name="greater" unicode="&#x3e;" horiz-adv-x="524" 
d="M71 513l381 -176v-102l-381 -176v107l286 121l-286 121v105z" />
    <glyph glyph-name="plusminus" unicode="&#xb1;" horiz-adv-x="539" 
d="M225 165v154h-151v80h151v151h89v-151h151v-80h-151v-154h-89zM465 36h-391v80h391v-80z" />
    <glyph glyph-name="zero.osf" horiz-adv-x="630" 
d="M315 -16c-164 0 -279 109 -279 294c0 186 118 300 279 300c164 0 279 -109 279 -294c0 -188 -117 -300 -279 -300zM318 67c60 0 82 53 82 215s-27 213 -88 213c-60 0 -82 -53 -82 -215s27 -213 88 -213z" />
    <glyph glyph-name="one.osf" horiz-adv-x="487" 
d="M40 0v91h128v316c-11 -3 -29 -5 -49 -5c-29 0 -61 5 -84 12v78c97 -4 170 24 206 79h106v-480h123v-91h-430z" />
    <glyph glyph-name="two.osf" horiz-adv-x="578" 
d="M528 412c0 -116 -100 -144 -201 -167c-100 -23 -189 -45 -215 -117l6 -3c32 26 70 43 127 43c72 0 124 -24 177 -24c38 0 50 21 63 80l63 -5c-5 -175 -53 -235 -138 -235c-125 0 -162 108 -227 108c-6 0 -13 -1 -19 -2c11 -6 21 -21 21 -43c0 -33 -25 -64 -70 -64
c-52 0 -93 37 -93 106c0 88 66 145 177 200c90 44 127 67 127 132c0 46 -29 82 -94 82c-33 0 -60 -9 -75 -20c34 -12 54 -40 54 -73c0 -42 -29 -77 -85 -77c-54 0 -91 35 -91 91c0 81 90 154 239 154c166 0 254 -76 254 -166z" />
    <glyph glyph-name="three.osf" horiz-adv-x="554" 
d="M267 -95c-163 0 -252 68 -252 155c0 60 38 95 95 95c60 0 90 -35 90 -77c0 -32 -21 -64 -50 -76c10 -10 42 -21 89 -21c55 0 97 32 97 104c0 79 -31 114 -145 114h-23v89h23c102 0 135 34 135 115c0 63 -27 99 -96 99c-28 0 -51 -9 -65 -17c29 -12 48 -44 48 -75
c0 -42 -29 -77 -89 -77c-57 0 -95 35 -95 91c0 87 92 154 243 154c167 0 250 -78 250 -167s-57 -139 -191 -157v-5c140 -18 201 -72 201 -157c0 -107 -97 -187 -265 -187z" />
    <glyph glyph-name="four.osf" horiz-adv-x="604" 
d="M314 205v247h-6l-183 -247h189zM479 5h84v-90h-333v90h84v106h-301v85l293 377h173v-368h114v-94h-114v-106z" />
    <glyph glyph-name="five.osf" horiz-adv-x="558" 
d="M154 428l-12 -157c46 36 101 54 159 54c169 0 229 -92 229 -197c0 -126 -95 -223 -269 -223c-142 0 -234 50 -234 141c0 56 37 98 98 98c57 0 85 -38 85 -75c0 -33 -15 -59 -40 -75c15 -8 36 -14 61 -14c67 0 103 45 103 128c0 90 -34 124 -104 124
c-30 0 -70 -15 -100 -39l-72 22l23 338l29 26c64 -22 155 -32 217 -32c72 0 113 12 164 38l30 -53c-45 -94 -121 -132 -209 -132c-67 0 -117 12 -158 28z" />
    <glyph glyph-name="six.osf" horiz-adv-x="605" 
d="M226 330c26 38 83 63 145 63c117 0 204 -71 204 -194c0 -113 -89 -215 -254 -215c-188 0 -282 142 -282 312c0 209 121 352 323 352c131 0 200 -61 200 -134c0 -52 -36 -91 -91 -91c-60 0 -88 37 -88 79c0 26 11 49 28 62c-8 6 -27 12 -49 12c-91 0 -136 -67 -136 -246z
M229 196c0 -105 43 -138 91 -138c44 0 72 33 72 119c0 108 -32 138 -82 138s-81 -38 -81 -119z" />
    <glyph glyph-name="seven.osf" horiz-adv-x="553" 
d="M127 -10c0 91 63 158 260 363l46 48l-6 6c-38 -28 -64 -37 -96 -37c-54 0 -103 34 -145 34c-33 0 -48 -21 -64 -98h-90v265h96l11 -92h8c18 70 48 99 91 99c85 0 105 -112 162 -112c3 0 6 1 8 2c-8 10 -14 27 -14 40c0 43 27 70 76 70c48 0 79 -33 79 -77
c0 -45 -32 -85 -61 -115c-65 -68 -128 -157 -164 -382c-9 -55 -34 -100 -95 -100c-65 0 -102 37 -102 86z" />
    <glyph glyph-name="eight.osf" horiz-adv-x="582" 
d="M49 444c0 112 96 203 247 203c163 0 233 -75 233 -152c0 -68 -53 -115 -128 -133c76 -27 147 -70 147 -167c0 -120 -99 -210 -260 -210c-169 0 -248 80 -248 163c0 69 54 114 135 133c-69 27 -126 69 -126 163zM394 135c0 66 -75 92 -181 122c-31 -32 -41 -65 -41 -101
c0 -58 38 -98 122 -98c64 0 100 29 100 77zM204 502c0 -62 56 -87 156 -115c26 29 36 59 36 93c0 49 -35 94 -107 94c-55 0 -85 -32 -85 -72z" />
    <glyph glyph-name="nine.osf" horiz-adv-x="605" 
d="M379 227c-26 -38 -83 -63 -145 -63c-117 0 -204 71 -204 197c0 115 89 217 254 217c188 0 282 -142 282 -317c0 -214 -121 -356 -325 -356c-132 0 -201 61 -201 134c0 52 36 91 91 91c60 0 88 -37 88 -79c0 -26 -11 -49 -28 -62c8 -6 27 -12 50 -12c93 0 138 66 138 250z
M376 364c0 107 -43 140 -91 140c-44 0 -72 -33 -72 -121c0 -111 32 -141 82 -141s81 38 81 122z" />
    <glyph glyph-name="dollar.osf" horiz-adv-x="559" 
d="M328 -102h-84v87c-156 8 -228 65 -228 134c0 44 35 77 79 77c48 0 83 -29 83 -70c0 -20 -10 -43 -25 -55c24 -11 55 -19 92 -22v159c-130 32 -215 63 -215 173c0 106 86 176 214 190v77h84v-76c168 -10 206 -82 206 -130c0 -46 -33 -78 -79 -78c-51 0 -83 27 -83 70
c0 21 10 43 25 54c-13 9 -38 17 -70 21v-161c129 -30 214 -61 214 -172c0 -106 -81 -176 -213 -190v-88zM171 440c0 -41 27 -59 77 -73v141c-56 -7 -77 -32 -77 -68zM400 123c0 35 -32 53 -76 66v-138c60 8 76 36 76 72z" />
    <glyph glyph-name="sterling.osf" horiz-adv-x="644" 
d="M489 239h-137c-3 -33 -15 -60 -30 -87c75 -23 110 -34 155 -34c41 0 55 15 76 97l63 -5c0 -156 -34 -226 -141 -226c-70 0 -138 35 -212 85c-44 -61 -87 -85 -143 -85c-66 0 -110 36 -110 93c0 60 49 103 149 103c23 0 47 -1 74 -5c-3 20 -15 41 -30 64h-152v81h100
c-13 24 -21 52 -21 82c0 95 97 177 271 177c122 0 202 -51 202 -125c0 -43 -31 -85 -89 -85c-52 0 -79 34 -79 70c0 28 17 51 42 64c-18 7 -38 12 -68 12c-67 0 -102 -34 -102 -77s23 -74 36 -118h146v-81zM129 45c36 0 64 18 90 54c-26 15 -52 22 -77 22
c-38 0 -56 -18 -56 -39c0 -20 12 -37 43 -37z" />
    <glyph glyph-name="Euro.osf" horiz-adv-x="685" 
d="M27 297v80h91c39 117 144 202 299 202c137 0 233 -72 233 -163c0 -51 -33 -91 -93 -91c-56 0 -86 36 -86 80c0 32 20 55 40 69c-17 14 -46 24 -87 24c-73 0 -119 -32 -137 -123h147v-78h-155v-26v-28h155v-78h-143c19 -62 60 -88 127 -88c78 0 123 57 139 143h101
c-16 -144 -103 -236 -268 -236c-149 0 -239 71 -273 179h-90v80h75v27c0 9 0 18 1 27h-76z" />
    <glyph glyph-name="yen.osf" horiz-adv-x="665" 
d="M64 355h98l-84 119h-68v89h333v-87h-67l107 -166l102 166h-68v87h244v-89h-74l-81 -119h100v-78h-154l-34 -50h188v-78h-189v-64h83v-85h-329v85h84v64h-191v78h188l-35 50h-153v78z" />
    <glyph glyph-name="space" unicode=" " horiz-adv-x="171" 
 />
    <glyph glyph-name="uni00A0" unicode="&#xa0;" horiz-adv-x="171" 
 />
    <glyph glyph-name="emspace" unicode="&#x2003;" horiz-adv-x="1000" 
 />
    <glyph glyph-name="enspace" unicode="&#x2002;" horiz-adv-x="500" 
 />
    <glyph glyph-name="threeperemspace" unicode="&#x2004;" horiz-adv-x="333" 
 />
    <glyph glyph-name="fourperemspace" unicode="&#x2005;" horiz-adv-x="250" 
 />
    <glyph glyph-name="thinspace" unicode="&#x2009;" horiz-adv-x="133" 
 />
    <glyph glyph-name="hairspace" unicode="&#x200a;" horiz-adv-x="75" 
 />
    <glyph glyph-name="hfjslug" horiz-adv-x="694" 
d="M644 -200h-208l-8 14h-163l-8 -14h-207v303c18 0 32 14 32 32c0 17 -14 32 -32 32v554h100l30 79h334l29 -79h101v-921zM400 563v-172h15v78h38v14h-38v66h43v14h-58zM184 563v-172h15v79h47v-79h15v172h-15v-79h-47v79h-15zM460 394c5 -2 14 -4 21 -4c20 0 31 11 31 36
v137h-16v-137c0 -16 -5 -22 -16 -22c-6 0 -15 3 -20 5v-15zM371 465l-13 3c-2 -9 -5 -21 -8 -30h-1l-16 31c13 12 23 26 23 42c0 17 -9 31 -27 31c-17 0 -28 -14 -28 -31c0 -15 6 -24 14 -39c-15 -12 -23 -28 -23 -47c0 -22 12 -37 29 -37c13 0 23 9 29 24h1l12 -24l12 6
l-17 32c5 12 9 25 13 39zM523 323v-46h8v12l8 8l15 -20h10l-20 26l18 20h-10l-20 -24h-1v24h-8zM488 292l10 -15h9l-12 17c5 2 10 6 10 14c0 9 -7 15 -17 15h-20v-46h8v15h12zM426 276c14 0 24 11 24 24c0 12 -10 24 -24 24s-24 -12 -24 -24c0 -13 10 -24 24 -24zM370 301
l-13 22h-9l18 -29v-17h8v17l18 29h-9zM193 323v-46h34v7h-26v13h23v7h-23v12h26v7h-34zM132 323v-46h8v32l25 -32h7v46h-8v-32l-25 32h-7zM241 323l14 -47h8l11 34h1l11 -34h8l14 47h-8l-10 -35h-1l-11 35h-7l-11 -35h-1l-10 35h-8zM327 479c-7 13 -12 22 -12 32
c0 11 6 19 14 19s13 -8 13 -19c0 -12 -5 -21 -15 -32zM342 423c-5 -13 -12 -21 -20 -21c-9 0 -16 10 -16 25c0 13 7 26 16 35zM487 299h-11v17h11c6 0 10 -3 10 -8s-4 -9 -10 -9zM426 283c-10 0 -16 8 -16 17c0 8 6 17 16 17s16 -9 16 -17c0 -9 -6 -17 -16 -17z" />
    <glyph glyph-name="i.dot" horiz-adv-x="357" 
d="M177 529c-60 0 -100 39 -100 91c0 53 41 95 100 95c60 0 100 -39 100 -91c0 -53 -41 -95 -100 -95zM27 0v91h73v291h-73v91h242v-382h73v-91h-315z" />
    <glyph glyph-name="acute" unicode="&#xb4;" horiz-adv-x="281" 
d="M33 536l43 113c24 63 45 110 101 110c41 0 72 -32 72 -66c0 -41 -25 -66 -66 -97l-78 -60h-72z" />
    <glyph glyph-name="hungarumlaut" unicode="&#x2dd;" horiz-adv-x="354" 
d="M165 536l46 113c25 62 49 110 101 110c38 0 68 -31 68 -64c0 -40 -26 -66 -64 -97l-76 -62h-75zM-19 536l38 113c21 62 39 110 94 110c40 0 69 -32 69 -64c0 -41 -21 -66 -58 -97l-73 -62h-70z" />
    <glyph glyph-name="caron.alt" horiz-adv-x="238" 
d="M121 529h-57c-11 141 -11 151 -11 170c0 69 32 96 73 96c35 0 69 -27 69 -70c0 -28 -11 -55 -34 -106z" />
    <glyph glyph-name="grave" unicode="`" horiz-adv-x="281" 
d="M248 536h-72l-78 60c-41 31 -66 56 -66 97c0 34 31 66 72 66c56 0 77 -47 101 -110z" />
    <glyph glyph-name="circumflex" unicode="&#x2c6;" horiz-adv-x="373" 
d="M9 536l130 203h98l127 -203h-101l-78 83l-75 -83h-101z" />
    <glyph glyph-name="caron" unicode="&#x2c7;" horiz-adv-x="373" 
d="M136 536l-127 203h101l78 -83l75 83h101l-130 -203h-98z" />
    <glyph glyph-name="breve" unicode="&#x2d8;" horiz-adv-x="370" 
d="M183 530c-106 0 -166 61 -162 195h81c7 -57 35 -84 83 -84c46 0 75 27 82 84h81c4 -134 -58 -195 -165 -195z" />
    <glyph glyph-name="tilde" unicode="&#x2dc;" horiz-adv-x="431" 
d="M22 530c7 114 34 177 118 177c62 0 123 -48 164 -48c18 0 26 13 33 52h74c-7 -114 -34 -177 -118 -177c-62 0 -123 48 -164 48c-18 0 -26 -13 -33 -52h-74z" />
    <glyph glyph-name="macron" unicode="&#xaf;" horiz-adv-x="381" 
d="M31 536v107h319v-107h-319z" />
    <glyph glyph-name="dieresis" unicode="&#xa8;" horiz-adv-x="412" 
d="M311 530c-51 0 -86 35 -86 82c0 48 36 86 86 86c51 0 85 -35 85 -82c0 -48 -35 -86 -85 -86zM102 530c-51 0 -86 35 -86 82c0 48 36 86 86 86c51 0 85 -35 85 -82c0 -48 -35 -86 -85 -86z" />
    <glyph glyph-name="dotaccent" unicode="&#x2d9;" horiz-adv-x="222" 
d="M111 530c-57 0 -95 37 -95 86c0 50 39 90 95 90c57 0 95 -37 95 -86c0 -50 -39 -90 -95 -90z" />
    <glyph glyph-name="ring" unicode="&#x2da;" horiz-adv-x="311" 
d="M156 530c-90 0 -141 56 -141 121s54 123 141 123c88 0 140 -55 140 -121c0 -65 -54 -123 -140 -123zM157 587c28 0 49 21 49 65c0 45 -23 66 -52 66c-27 0 -49 -21 -49 -65c0 -45 24 -66 52 -66z" />
    <glyph glyph-name="commaaccent" unicode="&#x326;" horiz-adv-x="275" 
d="M55 -386l-24 54c76 33 115 69 124 122l-8 4c-7 -9 -21 -19 -42 -19c-39 0 -69 29 -69 76c0 50 37 92 93 92c63 0 105 -46 105 -125c0 -97 -62 -166 -179 -204z" />
    <glyph glyph-name="cedilla" unicode="&#xb8;" horiz-adv-x="361" 
d="M148 -252c-51 0 -103 10 -146 33l33 54c25 -10 61 -19 93 -19c30 0 44 9 44 24c0 19 -25 32 -79 32c-7 0 -14 0 -24 -2l-26 50l114 88h78l-64 -64l2 -4c85 -11 119 -48 119 -92c0 -61 -50 -100 -144 -100z" />
    <glyph glyph-name="ogonek" unicode="&#x2db;" horiz-adv-x="317" 
d="M145 -253c-87 0 -129 49 -129 105c0 68 45 105 114 151l21 14h96l-34 -29c-52 -45 -71 -75 -71 -106c0 -26 16 -49 57 -49c21 0 40 7 61 18l24 -59c-36 -22 -82 -45 -139 -45z" />
    </font>
</defs>
</svg>
