<svg data-name="Layer 1" xmlns="http://www.w3.org/2000/svg" viewBox="0 0 350 342.67"><path d="M124.89 222v2.88h-6.6a2.67 2.67 0 01-1.47-.34 3.05 3.05 0 01-1-1l-7.44-11.35a2.56 2.56 0 00-.93-.88 3.06 3.06 0 00-1.47-.29h-2.49v9l1.47.25c.34 0 .58.14.73.14a1.43 1.43 0 01.29.05 1.41 1.41 0 011.23 1.52v2.88h-14V222a1.42 1.42 0 011.23-1.52 1.6 1.6 0 01.29-.05 3.88 3.88 0 01.74-.14l1.46-.25v-25.67l-1.46-.24c-.35 0-.59-.15-.74-.15a1.6 1.6 0 01-.29 0 1.4 1.4 0 01-1.23-1.51v-2.89h14.14a23 23 0 016.22.73 11.79 11.79 0 014.21 2.11 8.23 8.23 0 012.44 3.23 10.21 10.21 0 01.79 4.11 11.11 11.11 0 01-.54 3.37A10 10 0 01119 206a9.14 9.14 0 01-2.45 2.25 13.93 13.93 0 01-3.32 1.57 6.65 6.65 0 012.15 2.05l5.58 8.22 1.51.25c.4 0 .64.14.84.14a2.7 2.7 0 01.39.05 1.41 1.41 0 011.19 1.47zm-12.08-17.4a5.48 5.48 0 001.32-2 6.62 6.62 0 00.44-2.44 5.11 5.11 0 00-1.76-4.16c-1.18-1-3-1.42-5.44-1.42h-3.86v11.74h3.77a10.49 10.49 0 003.23-.49 6.06 6.06 0 002.3-1.23zM142.94 200.15a9.43 9.43 0 013.43 2.25 9.89 9.89 0 012.25 3.57 13.24 13.24 0 01.83 4.79 7.43 7.43 0 01-.1 1.18 1.68 1.68 0 01-.19.68.9.9 0 01-.44.4 1.59 1.59 0 01-.69.09h-15.51c.2 2.6.88 4.46 2.11 5.68a6.42 6.42 0 004.79 1.81 7.67 7.67 0 002.5-.34 11.3 11.3 0 001.86-.79c.53-.29 1-.49 1.42-.73a2 2 0 011.12-.34 1.7 1.7 0 01.69.14 1.18 1.18 0 01.44.4l1.76 2.2a10.84 10.84 0 01-2.25 2 12.06 12.06 0 01-2.6 1.28 20 20 0 01-2.79.63 17.18 17.18 0 01-2.74.2 13.24 13.24 0 01-4.84-.83 11.08 11.08 0 01-3.91-2.6 11.78 11.78 0 01-2.65-4.21 16.45 16.45 0 01-.93-5.82 14 14 0 01.84-4.79 11.64 11.64 0 012.39-4 11.06 11.06 0 013.77-2.64 13 13 0 015.09-1 12.45 12.45 0 014.35.79zm-8.36 5.09a7.41 7.41 0 00-1.91 4.2H144a8.23 8.23 0 00-.34-2.2 5.14 5.14 0 00-1-1.81 4.18 4.18 0 00-1.66-1.22 5.83 5.83 0 00-2.35-.49 5.58 5.58 0 00-4.07 1.52zM169.9 223.14a13.25 13.25 0 01-2.44 1.28 16.43 16.43 0 01-2.6.63 16.24 16.24 0 01-2.69.2 10.91 10.91 0 01-4.35-.83 10.1 10.1 0 01-3.57-2.55 12 12 0 01-2.45-4.06 16.08 16.08 0 01-.88-5.53 15.4 15.4 0 01.78-5.09 12.28 12.28 0 012.35-4.11 10.3 10.3 0 013.82-2.69 13.55 13.55 0 015.23-1 23.52 23.52 0 017.93 1.81L171 209h-2.79a1.06 1.06 0 01-1.12-.93c0-.39-.2-1.56-.4-3.52a13 13 0 00-3.23-.49 6.16 6.16 0 00-2.78.59 5.17 5.17 0 00-2 1.61 7.27 7.27 0 00-1.22 2.65 14.27 14.27 0 00-.4 3.42 13.31 13.31 0 00.44 3.57 8.26 8.26 0 001.23 2.64 5.65 5.65 0 001.95 1.62 7.25 7.25 0 005 .2 7.31 7.31 0 001.51-.79c.39-.29.79-.54 1.08-.78a1.38 1.38 0 011-.34 1.19 1.19 0 011.12.54l1.72 2.2a11.53 11.53 0 01-2.21 1.95zM190.94 200.34a10.65 10.65 0 013.92 2.55 11.16 11.16 0 012.44 4.11 16.73 16.73 0 010 10.71 11.37 11.37 0 01-2.44 4.11 10.77 10.77 0 01-3.92 2.6 14.23 14.23 0 01-5.09.88 14.42 14.42 0 01-5.13-.88 10.77 10.77 0 01-3.92-2.6 11.43 11.43 0 01-2.54-4.11 16.73 16.73 0 010-10.71 11.22 11.22 0 012.54-4.06 10.65 10.65 0 013.92-2.55 14.41 14.41 0 015.13-.93 14.23 14.23 0 015.09.88zm-.49 18.15a13.24 13.24 0 000-12.32 5.19 5.19 0 00-4.6-2.16 5.42 5.42 0 00-4.69 2.16 10.53 10.53 0 00-1.57 6.21 10.19 10.19 0 001.57 6.11 5.38 5.38 0 004.69 2.11 5.16 5.16 0 004.6-2.11zM228.86 222v2.88h-7.39a1.49 1.49 0 01-1.52-1.12l-.44-2a19.67 19.67 0 01-1.61 1.47 8.57 8.57 0 01-1.76 1.08 12.49 12.49 0 01-2.06.73 11.1 11.1 0 01-2.3.25 9.64 9.64 0 01-3.67-.69 7.71 7.71 0 01-2.64-2 8.51 8.51 0 01-1.61-3 13.38 13.38 0 01-.54-3.86v-11.09c-2.1-.39-2.1-.39-2.5-.44a1.41 1.41 0 01-1.22-1.52v-2.89h9.74v16a5.6 5.6 0 001.07 3.57 3.91 3.91 0 003.18 1.22 6.68 6.68 0 002.94-.69 9.26 9.26 0 002.59-1.9v-13.35c-2.05-.34-2.05-.39-2.44-.44a1.41 1.41 0 01-1.23-1.52v-2.89h9.74v20.26c2.1.39 2.05.39 2.45.44a1.41 1.41 0 011.22 1.5zM260 222v2.88h-9.74V209a5.53 5.53 0 00-1.08-3.57 3.91 3.91 0 00-3.18-1.27 6.18 6.18 0 00-2.93.73 10.47 10.47 0 00-2.6 1.91v13.31l1.42.25a4.06 4.06 0 01.74.14.8.8 0 00.29.05 1.41 1.41 0 011.22 1.52v2.88h-13.4V222a1.41 1.41 0 011.26-1.5 1.79 1.79 0 01.29-.05 3.88 3.88 0 01.74-.14l1.42-.25v-15.41l-1.45-.25c-.35-.05-.59-.14-.74-.14a.8.8 0 00-.29 0 1.41 1.41 0 01-1.22-1.52v-2.94h7.38a1.48 1.48 0 011.52 1.13l.44 2a10.6 10.6 0 011.57-1.42 11.28 11.28 0 013.81-1.81 11.76 11.76 0 012.35-.25 8.74 8.74 0 013.67.69 6.9 6.9 0 012.64 2 9.23 9.23 0 011.62 3 12.09 12.09 0 01.54 3.86v11.11l1.46.25c.35 0 .59.14.74.14a1.6 1.6 0 01.29.05A1.42 1.42 0 01260 222zM267 223.44a7.11 7.11 0 01-1.76-5.09v-14h-2.55a1.26 1.26 0 01-.83-.34 1.12 1.12 0 01-.39-.93v-2.44l4.06-.64 1.27-6.85a1 1 0 01.45-.73 1.46 1.46 0 01.93-.3h3.13v7.93h6.6v4.3h-6.6V218a2.61 2.61 0 00.58 1.81 2 2 0 001.57.63 2.81 2.81 0 00.93-.09l.63-.3a4.4 4.4 0 00.54-.29.59.59 0 01.39-.1c.2 0 .4 0 .49.1a3 3 0 01.35.39l1.81 2.94a9.64 9.64 0 01-3 1.66 10.66 10.66 0 01-3.52.59 6.75 6.75 0 01-5.08-1.9zM293.54 222v2.88h-13.46V222a1.42 1.42 0 011.23-1.52 1.6 1.6 0 01.29-.05 3.91 3.91 0 01.73-.14l1.47-.25v-15.39l-1.47-.25c-.34-.05-.58-.14-.73-.14a1.6 1.6 0 01-.29 0 1.42 1.42 0 01-1.23-1.52v-2.94h9.74v20.26l1.47.25c.34 0 .59.14.73.14a1.77 1.77 0 01.3.05 1.41 1.41 0 011.22 1.5zm-3.13-28.09a4.44 4.44 0 01-.83 1.23 3.81 3.81 0 01-1.23.83 4.1 4.1 0 01-3 0 3.59 3.59 0 01-1.18-.83 4.44 4.44 0 01-.83-1.23 3.66 3.66 0 01-.29-1.46 4.11 4.11 0 01.29-1.52 3.66 3.66 0 01.83-1.22 3.36 3.36 0 011.18-.79 3.55 3.55 0 013 0 3.57 3.57 0 011.23.79 3.66 3.66 0 01.83 1.22 4.16 4.16 0 01.34 1.52 3.68 3.68 0 01-.34 1.48zM324.61 222v2.88h-9.74V209a5.53 5.53 0 00-1.08-3.57 3.91 3.91 0 00-3.18-1.27 6.21 6.21 0 00-2.93.73 10.42 10.42 0 00-2.59 1.91v13.31l1.41.25a3.88 3.88 0 01.74.14.8.8 0 00.29.05 1.41 1.41 0 011.22 1.52v2.88h-13.4V222a1.41 1.41 0 011.22-1.52 1.77 1.77 0 01.3-.05 3.74 3.74 0 01.73-.14l1.42-.25v-15.39l-1.42-.25c-.34-.05-.59-.14-.73-.14a.88.88 0 00-.3 0 1.41 1.41 0 01-1.22-1.52v-2.94h7.39a1.48 1.48 0 011.51 1.13l.44 2a10.6 10.6 0 011.57-1.42 11.21 11.21 0 013.82-1.81 11.58 11.58 0 012.34-.25 8.74 8.74 0 013.67.69 7 7 0 012.65 2 9.4 9.4 0 011.61 3 12.09 12.09 0 01.54 3.86v11.11l1.47.25c.34 0 .58.14.73.14a1.43 1.43 0 01.29.05 1.41 1.41 0 011.23 1.45zM340.21 199.71a8.85 8.85 0 012.6 1H350v2.25a1.23 1.23 0 01-.29.88 1.91 1.91 0 01-1 .44l-2.25.39a13.06 13.06 0 01.34 1.37 7 7 0 01.15 1.47 7.58 7.58 0 01-.74 3.37 7.44 7.44 0 01-2.05 2.55 10.64 10.64 0 01-3.13 1.61 12.18 12.18 0 01-3.87.59 12.88 12.88 0 01-2.79-.25c-.78.49-1.17 1-1.17 1.57a1.15 1.15 0 00.68 1.12 5.39 5.39 0 001.86.49 19.66 19.66 0 002.6.2c1 0 1.9 0 2.93.15a26.24 26.24 0 013 .44 8 8 0 012.54 1 4.9 4.9 0 011.86 1.76 5.42 5.42 0 01.68 2.93 6.87 6.87 0 01-.83 3.23 8.89 8.89 0 01-2.35 2.79 11.69 11.69 0 01-3.81 2 16.7 16.7 0 01-5.14.73 18.65 18.65 0 01-5-.54 12.8 12.8 0 01-3.47-1.46 6.07 6.07 0 01-2.06-2.11 5 5 0 01-.69-2.49 4.25 4.25 0 011.08-3 7.84 7.84 0 013-1.86 3.88 3.88 0 01-1.47-1.37 3.94 3.94 0 01-.59-2.25 3.2 3.2 0 01.2-1.17 4.3 4.3 0 01.58-1.18 7.73 7.73 0 011-1.12 8.24 8.24 0 011.47-.93 8.29 8.29 0 01-3-2.74 7.21 7.21 0 01-1.08-4 7.59 7.59 0 01.73-3.38 7.48 7.48 0 012.11-2.54 9.86 9.86 0 013.13-1.62 13.27 13.27 0 014-.59 14.39 14.39 0 013.05.27zm3.14 25.15a3.51 3.51 0 00-1.18-.74 8.76 8.76 0 00-1.81-.39c-.68-.1-1.37-.15-2.15-.2s-1.57 0-2.35-.09-1.57-.1-2.3-.2a5.69 5.69 0 00-1.66 1.32 2.73 2.73 0 00-.64 1.76 2.8 2.8 0 00.34 1.23 2.59 2.59 0 001 1 5.77 5.77 0 001.91.64 14.48 14.48 0 002.79.24 12.68 12.68 0 002.93-.29 8 8 0 002-.68 3.17 3.17 0 001.17-1.08 2.55 2.55 0 00.35-1.37 1.58 1.58 0 00-.4-1.15zm-4.21-13.41a3.86 3.86 0 001.37-.83 3.41 3.41 0 00.83-1.32 4.51 4.51 0 00.29-1.67 4 4 0 00-1.12-2.93 4.53 4.53 0 00-3.33-1.08 4.66 4.66 0 00-3.38 1.08 4 4 0 00-1.07 2.93 4.72 4.72 0 00.24 1.67 3.63 3.63 0 00.83 1.27 3.68 3.68 0 001.42.88 6 6 0 002 .29 5.82 5.82 0 001.92-.29zM129 252.69c-.14 0-.39.1-.73.15l-1.42.25v25.68l1.42.25c.34.05.59.14.73.14a1.77 1.77 0 01.3 0 1.41 1.41 0 011.22 1.52v2.89h-14v-2.89a1.41 1.41 0 011.22-1.52.8.8 0 00.29 0 6.65 6.65 0 01.74-.14l1.42-.25v-10.61h-16.63v10.61l1.44.23c.34.05.58.14.73.14a.83.83 0 00.29 0 1.41 1.41 0 011.23 1.52v2.89h-14v-2.89a1.42 1.42 0 011.23-1.52 1.6 1.6 0 01.29 0c.15 0 .39-.09.74-.14l1.46-.25v-25.66l-1.46-.25c-.35-.05-.59-.15-.74-.15a1 1 0 00-.29 0 1.42 1.42 0 01-1.23-1.52v-2.89h14v2.89a1.41 1.41 0 01-1.23 1.52 1 1 0 00-.29 0c-.15 0-.39.1-.73.15l-1.47.25v10.37h16.59v-10.37l-1.42-.25a4.61 4.61 0 01-.74-.15 2.2 2.2 0 01-.29 0 1.41 1.41 0 01-1.22-1.52v-2.89h14v2.89a1.41 1.41 0 01-1.22 1.52 2.17 2.17 0 01-.23 0zM161.34 280.73v2.89H154a1.47 1.47 0 01-1.51-1.13l-.44-2c-.54.53-1.08 1-1.62 1.46a7.92 7.92 0 01-1.76 1.08 12.71 12.71 0 01-2.05.73 11.26 11.26 0 01-2.3.25 9.6 9.6 0 01-3.67-.69 7.65 7.65 0 01-2.65-2 8.34 8.34 0 01-1.61-3 13.69 13.69 0 01-.54-3.86v-11.1c-2.1-.39-2.1-.39-2.49-.44a1.41 1.41 0 01-1.23-1.52v-2.88h9.74v16a5.53 5.53 0 001.03 3.48 3.89 3.89 0 003.18 1.22 6.8 6.8 0 002.93-.68 9.31 9.31 0 002.59-1.91v-13.27c-2-.34-2-.39-2.44-.44a1.42 1.42 0 01-1.23-1.52v-2.88h9.74v20.25c2.11.39 2.06.39 2.45.44a1.41 1.41 0 011.22 1.52zM182.92 258.91l-.79 4.55a.81.81 0 01-.29.59 1.34 1.34 0 01-.68.19 4.58 4.58 0 01-1-.15 8.47 8.47 0 00-1.72-.19 5 5 0 00-3.22 1A8.45 8.45 0 00173 268v10.76c2.11.39 2.06.39 2.45.44a1.41 1.41 0 011.22 1.52v2.89h-13.4v-2.89a1.41 1.41 0 011.22-1.52c.39 0 .34 0 2.45-.44v-15.4c-2.11-.39-2.06-.39-2.45-.44a1.41 1.41 0 01-1.22-1.52v-2.88h7.24a1.68 1.68 0 011.27.34 2.16 2.16 0 01.49 1.17l.39 3a11.09 11.09 0 013.13-3.67 6.75 6.75 0 014.06-1.32 5.18 5.18 0 013.07.87zM201.9 259.05a10.53 10.53 0 013.91 2.55 11.26 11.26 0 012.45 4.06 16.76 16.76 0 010 10.72 11.57 11.57 0 01-2.45 4.11 10.75 10.75 0 01-3.91 2.59 14 14 0 01-5.09.88 14.29 14.29 0 01-5.14-.88 10.92 10.92 0 01-3.91-2.59 11.6 11.6 0 01-2.54-4.11 16.58 16.58 0 010-10.72 11.3 11.3 0 012.54-4.06 10.7 10.7 0 013.91-2.55 14.51 14.51 0 015.14-.92 14.23 14.23 0 015.09.92zm-.49 18.16a13.26 13.26 0 000-12.33 5.19 5.19 0 00-4.6-2.16 5.45 5.45 0 00-4.7 2.16 10.63 10.63 0 00-1.56 6.21 10.32 10.32 0 001.56 6.12 5.41 5.41 0 004.7 2.1 5.15 5.15 0 004.6-2.1zM240.16 280.73v2.89h-9.74v-15.95a5.61 5.61 0 00-1.07-3.58 3.93 3.93 0 00-3.18-1.27 6.23 6.23 0 00-2.94.74 10.37 10.37 0 00-2.59 1.9v13.31l1.42.25a6.84 6.84 0 01.73.14.88.88 0 00.3 0 1.41 1.41 0 011.22 1.52v2.89H210.9v-2.89a1.41 1.41 0 011.23-1.52 1.43 1.43 0 01.29 0 6.84 6.84 0 01.73-.14l1.42-.25v-15.41l-1.42-.24c-.34-.05-.58-.15-.73-.15a.87.87 0 00-.29-.05 1.41 1.41 0 01-1.23-1.52v-2.88h7.39a1.49 1.49 0 011.52 1.12l.44 2a11.05 11.05 0 011.56-1.42 8.93 8.93 0 011.81-1.08 9.42 9.42 0 012-.73 11.69 11.69 0 012.35-.24 8.77 8.77 0 013.67.68 7.08 7.08 0 012.64 2 9.51 9.51 0 011.61 3 11.92 11.92 0 01.54 3.87v11.1l1.47.25c.34.05.59.14.73.14a1.77 1.77 0 01.3 0 1.41 1.41 0 011.23 1.52zM255.38 280.73v2.89h-13.46v-2.89a1.41 1.41 0 011.22-1.52 1.77 1.77 0 01.3 0 6.35 6.35 0 01.73-.14l1.47-.25v-15.46l-1.47-.24c-.34-.05-.59-.15-.73-.15a1.77 1.77 0 01-.3-.05 1.41 1.41 0 01-1.22-1.52v-2.88h9.74v20.25l1.47.25c.34.05.58.14.73.14a1.6 1.6 0 01.29 0 1.42 1.42 0 011.23 1.57zm-3.14-28.08a3.88 3.88 0 01-.83 1.22 3.66 3.66 0 01-1.22.83 3.92 3.92 0 01-1.52.29 3.87 3.87 0 01-1.51-.29 3.49 3.49 0 01-1.18-.83 4.17 4.17 0 01-.83-1.23 3.46 3.46 0 01-.29-1.46 3.92 3.92 0 01.29-1.52 3.66 3.66 0 01.83-1.22 3.27 3.27 0 011.18-.79 4.1 4.1 0 011.51-.34 4.16 4.16 0 011.52.34 3.43 3.43 0 011.22.79 3.39 3.39 0 01.83 1.22 4 4 0 01.35 1.52 3.57 3.57 0 01-.35 1.47zM280.82 280.68v2.89H275a2.73 2.73 0 01-1.37-.25 1.51 1.51 0 01-.73-1.07l-.54-1.76a16.65 16.65 0 01-1.86 1.51 10.29 10.29 0 01-1.9 1.08 9.14 9.14 0 01-2.06.63 12.3 12.3 0 01-2.45.25 9.34 9.34 0 01-2.93-.44 6.21 6.21 0 01-2.3-1.27 6 6 0 01-1.52-2.16 7.7 7.7 0 01-.54-2.93 6.14 6.14 0 01.74-2.84 6.73 6.73 0 012.49-2.49 16.21 16.21 0 014.6-1.86 29.81 29.81 0 017.19-.74v-1.47a5.77 5.77 0 00-1.07-3.76 3.73 3.73 0 00-3.08-1.23 6.87 6.87 0 00-2.45.35 10.93 10.93 0 00-1.71.78c-.49.29-.93.49-1.32.73a2.43 2.43 0 01-1.33.35 1.91 1.91 0 01-1.07-.3 2.59 2.59 0 01-.69-.78L258 262a14.93 14.93 0 0110.42-4 10.16 10.16 0 014 .73 8.71 8.71 0 012.89 2 9 9 0 011.86 3.08 12.5 12.5 0 01.59 3.92v11.1l1.32.25.54.09a1.41 1.41 0 011.2 1.51zm-13.36-7.44a14.3 14.3 0 00-2.89.88 3.6 3.6 0 00-1.51 1.18 2.7 2.7 0 00-.44 1.52 2.61 2.61 0 00.93 2.3 4.12 4.12 0 002.44.68 9.18 9.18 0 001.72-.15 5 5 0 001.51-.53 9.68 9.68 0 001.32-.84 13.86 13.86 0 001.32-1.17v-4.21a22.71 22.71 0 00-4.4.34zM131.06 339.83v2.5h-11.94v-2.5a1.38 1.38 0 011-1.27l1-.39-1.95-5.33H105l-2 5.33 1 .39a1.39 1.39 0 011 1.27v2.5H93.09v-2.5a1.38 1.38 0 011-1.27l2.69-1.12L108.7 307h6.75l12 30.49 2.69 1.12a1.3 1.3 0 01.92 1.22zm-13.61-11.64l-4.06-11c-.44-1.17-.88-2.59-1.32-4.16-.49 1.57-.88 3-1.32 4.21l-4 11zM152.63 317.62l-.78 4.55a.89.89 0 01-.29.59 1.29 1.29 0 01-.69.19 5.25 5.25 0 01-1-.14 7.72 7.72 0 00-1.71-.2 5.08 5.08 0 00-3.23 1 8.55 8.55 0 00-2.25 3.08v10.76c2.1.4 2.05.4 2.45.45a1.4 1.4 0 011.22 1.51v2.89H133v-2.89a1.4 1.4 0 011.23-1.51c.39-.05.34-.05 2.44-.45v-15.38c-2.1-.39-2-.39-2.44-.44a1.4 1.4 0 01-1.23-1.51v-2.89h7.24a1.77 1.77 0 011.28.34 2.27 2.27 0 01.49 1.18l.39 3a11.09 11.09 0 013.13-3.67 6.71 6.71 0 014.06-1.32 5.17 5.17 0 013.04.86zM173 340.57a12.62 12.62 0 01-2.44 1.27 15.93 15.93 0 01-2.6.64 17.38 17.38 0 01-2.69.19 10.74 10.74 0 01-4.35-.83 10.2 10.2 0 01-3.57-2.54 12.05 12.05 0 01-2.45-4.07 16.07 16.07 0 01-.88-5.52 15.35 15.35 0 01.78-5.09 12.09 12.09 0 012.35-4.11 10.08 10.08 0 013.82-2.69 13.4 13.4 0 015.23-1 23.27 23.27 0 017.93 1.81v7.73h-2.79a1.06 1.06 0 01-1.12-.93c0-.39-.2-1.57-.4-3.52a12.53 12.53 0 00-3.22-.49 6.18 6.18 0 00-2.79.58 5.1 5.1 0 00-2 1.62 7.15 7.15 0 00-1.22 2.64 14.36 14.36 0 00-.4 3.43 13 13 0 00.45 3.57 8.14 8.14 0 001.22 2.64 5.67 5.67 0 002 1.61 6.15 6.15 0 002.59.54 6.38 6.38 0 002.35-.34 7.83 7.83 0 001.51-.78c.4-.3.79-.54 1.08-.79a1.43 1.43 0 011-.34 1.21 1.21 0 011.12.54l1.72 2.2a11.94 11.94 0 01-2.23 2.03zM206 339.44v2.89h-9.73v-15.95a5.29 5.29 0 00-1.08-3.57 3.9 3.9 0 00-3.18-1.28 6.23 6.23 0 00-2.94.74 10.18 10.18 0 00-2.59 1.91v13.3l1.47.25c.34 0 .58.15.73.15a.88.88 0 00.3.05 1.4 1.4 0 011.22 1.51v2.89h-13.5v-2.89a1.4 1.4 0 011.23-1.51 1.6 1.6 0 01.29-.05c.15 0 .39-.1.73-.15l1.47-.25v-26.66l-1.47-.25c-.34 0-.58-.14-.73-.14a1.6 1.6 0 01-.29-.05 1.41 1.41 0 01-1.23-1.52V306h9.74v14a12.94 12.94 0 013.23-2.25 9.23 9.23 0 014.16-.88 9.38 9.38 0 013.62.68 7 7 0 012.64 2 9.52 9.52 0 011.62 3 13.42 13.42 0 01.58 3.82v11.15l1.42.25a4.87 4.87 0 01.74.15.8.8 0 00.29.05 1.4 1.4 0 011.26 1.47zM221.18 339.44v2.89h-13.46v-2.89a1.4 1.4 0 011.23-1.51 1.43 1.43 0 01.29-.05 4.68 4.68 0 01.73-.15l1.47-.25v-15.41l-1.47-.24c-.34-.05-.58-.15-.73-.15a1.43 1.43 0 01-.29-.05 1.4 1.4 0 01-1.23-1.51v-2.89h9.74v20.25l1.47.25c.34 0 .58.15.73.15a1.43 1.43 0 01.29.05 1.4 1.4 0 011.23 1.51zm-3.13-28.08a4.09 4.09 0 01-.84 1.22 3.52 3.52 0 01-1.22.83 4 4 0 01-3 0 3.45 3.45 0 01-1.18-.83 4.25 4.25 0 01-.83-1.22 3.67 3.67 0 01-.29-1.47 4.11 4.11 0 01.29-1.52 3.66 3.66 0 01.83-1.22 3.33 3.33 0 011.18-.78 3.45 3.45 0 013 0 3.41 3.41 0 011.22.78 3.54 3.54 0 01.84 1.22 4.16 4.16 0 01.34 1.52 3.69 3.69 0 01-.34 1.47zM251.32 320.12a1.4 1.4 0 01-1.23 1.51c-.39.05-.24.1-2.3.44l-8.07 20.26h-5.48l-8.07-20.26c-2.11-.39-1.91-.39-2.3-.44a1.4 1.4 0 01-1.23-1.51v-2.89h12.24v2.89a1.4 1.4 0 01-1.23 1.51c-.29.05-.39.05-1.37.25l3.58 9.88c.29.78.48 1.57.68 2.3s.39 1.52.54 2.25c.15-.73.29-1.52.49-2.25s.44-1.52.73-2.3l3.62-9.83c-1.22-.2-1.32-.25-1.61-.3a1.4 1.4 0 01-1.23-1.51v-2.89h12.24zM269.22 317.57a9.52 9.52 0 013.43 2.25 9.89 9.89 0 012.25 3.57 13.3 13.3 0 01.83 4.8 7.29 7.29 0 01-.1 1.17 1.92 1.92 0 01-.19.69.93.93 0 01-.44.39 1.44 1.44 0 01-.69.1H258.8c.2 2.59.88 4.45 2.11 5.67a6.37 6.37 0 004.79 1.79 7.41 7.41 0 002.5-.34 11.32 11.32 0 001.86-.78c.53-.3 1-.49 1.41-.74a2.08 2.08 0 011.13-.34 1.51 1.51 0 01.68.15 1 1 0 01.44.39l1.77 2.2a11.19 11.19 0 01-2.25 2 11.57 11.57 0 01-2.6 1.27 20 20 0 01-2.79.64 18.48 18.48 0 01-2.74.19 13 13 0 01-4.84-.83 11.19 11.19 0 01-3.91-2.59 12 12 0 01-2.65-4.21 16.49 16.49 0 01-.93-5.82 14.08 14.08 0 01.84-4.8 11.5 11.5 0 012.39-4 10.79 10.79 0 013.77-2.64 12.87 12.87 0 015.09-1 12.49 12.49 0 014.35.82zm-8.36 5.09a7.48 7.48 0 00-1.91 4.21h11.35a8.11 8.11 0 00-.34-2.2 5 5 0 00-1-1.81 4.3 4.3 0 00-1.66-1.23 6 6 0 00-2.35-.49 5.58 5.58 0 00-4.09 1.52z"/><path d="M59 259.28c1.58-4.8-.19-10.17-3.22-14.21S48.54 238 44.6 234.84c-15.47-12.41-28.49-28.13-36.41-46.32s-10.53-38.88-5.9-58.16c8.53-35.54 39.3-61.14 55.15-94.07C62.88 25 66.55 12.15 63.52 0c.19.74 2.61 2.17 3.22 2.7C68 3.79 69.22 4.91 70.42 6q3.47 3.29 6.67 6.85a106.09 106.09 0 0111.16 14.63 95 95 0 0113.23 34.15 80.68 80.68 0 01-.6 31.65c-4 17.45-13.88 32.84-22.19 48.7s-15.28 33.55-12.6 51.25c-8.8-13.39-14.6-29.55-12.16-45.38 2.92-19 17.29-35.71 16.38-54.94C53.11 109.94 35 128.6 31 152.47c-4.1 24.06 7.13 48.12 20.94 68.26 4 5.87 8.36 11.7 10.46 18.5s1.5 14.94-3.4 20.05z" fill="#161109"/></svg>