<svg data-name="Layer 1" xmlns="http://www.w3.org/2000/svg" viewBox="0 0 50 50"><circle cx="25" cy="25" r="25" fill="#fff"/><path d="M11 36.64V16a2.32 2.32 0 012.35-2.35h3.76v-1.77a.89.89 0 01.25-.63A.85.85 0 0118 11a.82.82 0 01.87.87v1.75h5.25v-1.74a.89.89 0 01.25-.63A.85.85 0 0125 11a.82.82 0 01.87.87v1.75h5.25v-1.74a.89.89 0 111.78 0v1.75h3.76A2.32 2.32 0 0139 16v20.64a2.29 2.29 0 01-.68 1.67 2.27 2.27 0 01-1.67.68h-23.3a2.27 2.27 0 01-1.67-.68 2.29 2.29 0 01-.68-1.67zm1.75 0a.6.6 0 00.17.44.58.58 0 00.44.16h23.29a.6.6 0 00.44-.16.58.58 0 00.16-.44V16a.6.6 0 00-.16-.44.64.64 0 00-.44-.16h-3.79v1.75a.85.85 0 01-.24.63.89.89 0 01-.62.22.85.85 0 01-.88-.88v-1.74h-5.26v1.75a.85.85 0 01-.24.63.89.89 0 01-.62.24.85.85 0 01-.88-.88v-1.74h-5.26v1.75a.85.85 0 01-.24.63.89.89 0 01-.62.24.85.85 0 01-.88-.88v-1.74h-3.77a.64.64 0 00-.44.16.6.6 0 00-.16.44v20.66zm4.36-3.76v-2.61h3.5v2.61zm0-4.39v-2.61h3.5v2.61zm0-4.36v-2.61h3.5v2.61zm6.14 8.75v-2.61h3.5v2.61zm0-4.39v-2.61h3.5v2.61zm0-4.36v-2.61h3.5v2.61zm6.11 8.75v-2.61h3.5v2.61zm0-4.39v-2.61h3.5v2.61zm0-4.36v-2.61h3.5v2.61z" fill="#161109"/></svg>