<svg data-name="Layer 1" xmlns="http://www.w3.org/2000/svg" viewBox="0 0 51 51"><g opacity=".5"><circle cx="25.5" cy="25.5" r="25" fill="#161109" stroke="#ffc565" stroke-miterlimit="10"/><path d="M18 34.82a1.78 1.78 0 01-1.77-1.77V18A1.77 1.77 0 0118 16.22h5.79a.61.61 0 110 1.21H18a.56.56 0 00-.56.55v15.07a.56.56 0 00.56.56h15a.56.56 0 00.55-.56v-5.79a.61.61 0 111.21 0v5.79A1.77 1.77 0 0133 34.82zm16.82-18.06v5.31a.58.58 0 01-1.16 0v-3.88l-9 9.18a.54.54 0 01-.41.17.59.59 0 01-.41-.16.58.58 0 010-.82l9-9.22h-4a.58.58 0 110-1.16h5.34a.4.4 0 01.15 0 .31.31 0 01.13.06.52.52 0 01.11.1.65.65 0 01.12.28s.13.13.13.14z" fill="#ffc565" data-name="Expand photo"/></g></svg>