<svg data-name="Layer 1" xmlns="http://www.w3.org/2000/svg" viewBox="0 0 200 200"><circle cx="100" cy="100" r="100" fill="#ffc565"/><path d="M104.49 176.86c.93-2.85-.12-6-1.91-8.43s-4.26-4.19-6.6-6.06a73.2 73.2 0 01-21.58-27.46c-4.7-10.78-6.25-23-3.5-34.48 5-21.07 23.3-36.25 32.7-55.77 3.22-6.69 5.4-14.31 3.6-21.52.11.44 1.54 1.29 1.91 1.61.74.64 1.47 1.3 2.18 2 1.37 1.29 2.69 2.65 3.95 4.05a64.53 64.53 0 016.62 8.65 56.32 56.32 0 017.84 20.25 48 48 0 01-.35 18.76c-2.35 10.35-8.23 19.47-13.16 28.87s-9.06 19.89-7.47 30.39c-5.21-7.94-8.65-17.52-7.21-26.9 1.74-11.28 10.25-21.18 9.71-32.58C101 88.32 90.31 99.39 87.9 113.53s4.23 28.53 12.41 40.47c2.39 3.48 5 6.94 6.21 11s.9 8.83-2.03 11.86z" fill="#161109"/></svg>