<svg id="Layer_1" data-name="Layer 1" xmlns="http://www.w3.org/2000/svg" viewBox="0 0 50 50"><defs><style>.cls-2{fill:#161109}</style></defs><path d="M50 25a25 25 0 10-25 25 25 25 0 0025-25z" fill="#fff"/><path class="cls-2" d="M25 12.62a1.09 1.09 0 00-1.09 0l-9.58 6.23h-3.59A1.06 1.06 0 009.68 20v9.3a1.06 1.06 0 001.06 1.07h3.55l9.58 6.23a1.12 1.12 0 00.58.17 1 1 0 00.51-.13 1.07 1.07 0 00.56-.94V13.56a1.07 1.07 0 00-.52-.94zM28.49 32.17a.65.65 0 00.27-.05c2.44-.95 4.08-3.88 4.08-7.29 0-3-1.33-5.75-3.39-6.95a.75.75 0 10-.75 1.29c1.61.94 2.65 3.16 2.65 5.66 0 2.76-1.29 5.18-3.13 5.9a.75.75 0 00-.43 1 .76.76 0 00.7.44z"/><path class="cls-2" d="M30.44 35.29a.65.65 0 00.27 0c3.43-1.33 5.83-5.64 5.83-10.48 0-4.35-1.9-8.28-4.85-10a.75.75 0 00-1 .26.76.76 0 00.26 1c2.5 1.46 4.11 4.88 4.11 8.71 0 4.24-2 8-4.87 9.09a.74.74 0 00.27 1.44z"/><path class="cls-2" d="M32.45 38.27a.75.75 0 01-.7-.49.76.76 0 01.43-1c3.9-1.51 6.63-6.49 6.63-12.09 0-5.05-2.17-9.59-5.55-11.57a.75.75 0 01-.27-1 .77.77 0 011-.27c3.82 2.24 6.29 7.29 6.29 12.87 0 6.21-3.12 11.77-7.6 13.5a.63.63 0 01-.23.05z"/></svg>